<?xml version="1.0" encoding="utf-8"?>
<!-- Generator: Adobe Illustrator 22.0.0, SVG Export Plug-In . SVG Version: 6.00 Build 0)  -->
<svg version="1.1" id="Layer_1" xmlns="http://www.w3.org/2000/svg" xmlns:xlink="http://www.w3.org/1999/xlink" x="0px" y="0px"
	 viewBox="0 0 434.7 132.4" style="enable-background:new 0 0 434.7 132.4;" xml:space="preserve">
<style type="text/css">
	.st0{fill:url(#SVGID_1_);}
</style>
<g>
	<g>
		<g>
			<polygon points="138.3,91.4 138.3,48.7 125.8,48.7 125.8,43 163.8,43 163.8,48.7 151.4,48.7 151.4,91.4 			"/>
			<polygon points="170.7,91.4 170.7,43 207,43 207,48.7 183.6,48.7 183.6,62.2 206.3,62.2 206.3,69 183.6,69 183.6,85.8 
				207.6,85.8 207.6,91.4 			"/>
			<polygon points="215.7,91.4 215.7,43 228.7,43 228.7,61.2 229.7,61.2 246.7,43 256.8,43 240.8,66.5 258.4,91.4 247.9,91.4 
				229.6,72.1 228.7,72.1 228.7,91.4 			"/>
			<polygon points="264.2,91.4 264.2,43 277.2,43 277.2,63.7 294.1,63.7 294.1,43 307,43 307,91.4 294.1,91.4 294.1,69.9 
				277.2,69.9 277.2,91.4 			"/>
			<polygon points="336,43 341.8,43 359.2,80.8 369,43 382.8,43 369,91.4 349.3,91.4 			"/>
			<polygon points="389.2,91.4 389.2,43 425.6,43 425.6,48.7 402.2,48.7 402.2,62.2 424.9,62.2 424.9,69 402.2,69 402.2,85.8 
				426.1,85.8 426.1,91.4 			"/>
			<path d="M329.4,43v48.4h-13.1V53.2l3.6-2.7l9.5,9.7v-0.4L316.3,43H329.4z"/>
		</g>
	</g>
</g>
<linearGradient id="SVGID_1_" gradientUnits="userSpaceOnUse" x1="8.1129" y1="67.2332" x2="102.1566" y2="67.2332">
	<stop  offset="0" style="stop-color:#499BD5"/>
	<stop  offset="1" style="stop-color:#57BF93"/>
</linearGradient>
<path class="st0" d="M102.2,67.1L102.2,67.1l0-11.5l-17-9l14.4-7.7l-6-3.3l-12.7,6.9l0-20.7L55.1,8.2L29.6,21.8l0,20.7l-12.7-6.9
	l-6,3.3l14.4,7.7l-17,9l0,11.5h0l0,0.1l0,0.1h0l0,11.5l17,9l-14.4,7.7l6,3.3L29.6,92l0,20.7l25.5,13.5l25.5-13.5l0-20.7l12.7,6.9
	l6-3.3l-14.4-7.7l17-9l0-11.5h0l0-0.1L102.2,67.1z M14.2,75.7l0-8.4l0-8.4l17-9l16.6,9l0,8.4l0,8.4l-16.6,9L14.2,75.7z M74.7,90.2
	l0,19.3l-19.5,10.3l-19.5-10.3l0-19.3l0-1.5l18.2-9.9l0-11.5h0l0-0.1l0-0.1h0l0-11.5l-18.2-9.9l0-1.5l0-19.3l19.5-10.3L74.6,25
	l0,19.3l0,1.5l-18.2,9.9l0,11.5h0l0,0.1l0,0.1h0l0,11.5l18.2,9.9L74.7,90.2z M96.1,75.7l-17,9l-16.6-9l0-8.4l0-8.4l16.6-9l17,9
	l0,8.4L96.1,75.7z"/>
</svg>
