<?xml version="1.0" encoding="utf-8"?>
<!-- Generator: Adobe Illustrator 28.0.0, SVG Export Plug-In . SVG Version: 6.00 Build 0)  -->
<svg version="1.1" id="SvgjsSvg1102" xmlns:svgjs="http://svgjs.com/svgjs"
	 xmlns="http://www.w3.org/2000/svg" xmlns:xlink="http://www.w3.org/1999/xlink" x="0px" y="0px" viewBox="0 0 360 360"
	 style="enable-background:new 0 0 360 360;" xml:space="preserve">
<style type="text/css">
	.st0{fill:#DBE4DF;}
	.st1{opacity:0.1;enable-background:new    ;}
	.st2{fill:#BECDC5;}
	.st3{fill:#F0F5F2;}
	.st4{fill:#37423C;}
	.st5{fill:#1FFF8F;}
	.st6{fill:#FFFFFF;}
	.st7{fill:none;}
	.st8{opacity:0.1;fill:#37423C;enable-background:new    ;}
	.st9{fill:url(#SVGID_1_);}
</style>
<g id="SvgjsG1104">
	<path class="st0" d="M231.8,213.4c-0.1,0-0.2-0.1-0.2-0.1c-0.1-0.1,0-0.3,0.1-0.4l35.6-20.7c1.1-0.6,2.4-0.6,3.5,0l35.9,20.7
		c0.1,0.1,0.2,0.3,0.1,0.4c-0.1,0.1-0.3,0.2-0.4,0.1l-35.9-20.7c-0.9-0.5-2-0.5-2.9,0l-35.6,20.7
		C231.9,213.4,231.8,213.4,231.8,213.4z M199.5,190.1c-0.1,0-0.2,0-0.2-0.1c-0.1-0.1,0-0.3,0.1-0.4l49.7-29.1c0.1-0.1,0.3,0,0.4,0.1
		c0.1,0.1,0,0.3-0.1,0.4l-49.7,29.1C199.6,190.1,199.5,190.1,199.5,190.1z M85.7,313.4c0,0-0.1,0-0.1,0l-30.2-17.6
		c-0.9-0.5-1.4-1.2-1.4-2c0-0.8,0.5-1.5,1.4-2l67.9-38.9c0.1-0.1,0.3,0,0.4,0.1c0.1,0.1,0,0.3-0.1,0.4l-67.9,38.9
		c-0.7,0.4-1.1,0.9-1.1,1.5c0,0.6,0.4,1.1,1.1,1.5l30.2,17.6c0.1,0.1,0.2,0.3,0.1,0.4C85.9,313.3,85.8,313.4,85.7,313.4z"/>
	<path class="st1" d="M37.8,262.8c-0.8,3.2,1,6.6,5.2,9.1c5.3,3.1,13.1,3.9,19.7,2.4l45.6,26.5c-2.6,3.8-1.2,8.3,4.1,11.4
		c4.3,2.5,10.1,3.5,15.6,3l-10.4-6.1l3.4-7.2l12.5-1.9l10.4,6.1c0.8-3.2-1-6.6-5.2-9.1c-5.3-3.1-13.1-3.9-19.7-2.4l-45.7-26.5
		c2.6-3.8,1.2-8.3-4.1-11.4c-4.3-2.5-10.1-3.5-15.6-3l10.4,6.1l-3.4,7.2l-12.5,1.9L37.8,262.8z"/>
	<path class="st0" d="M116.5,184.8c0,0-0.1,0-0.1,0L92.9,171c-0.8-0.5-1.3-1.4-1.3-2.3v-40c0-0.2,0.1-0.3,0.3-0.3s0.3,0.1,0.3,0.3
		v40c0,0.7,0.4,1.4,1,1.8l23.5,13.7c0.1,0.1,0.2,0.3,0.1,0.4C116.7,184.8,116.6,184.8,116.5,184.8z"/>
	<path class="st1" d="M122.6,133.1c1.9,1.1,1.9,2.9,0,4l-73.4,42.5c-1.9,1.1-5,1.1-6.9,0l-1.4-0.9c-1.9-1.1-1.9-2.9,0-4l73.4-42.5
		c1.9-1.1,5-1.1,6.9,0L122.6,133.1z"/>
	<path class="st2" d="M126.3,40.3c-1-0.6-2.4-0.5-3.9,0.4L47.8,83.8c-0.7,0.4-1.3,0.9-2,1.6c-1.5,1.6-2.7,3.7-3.2,5.8
		c-0.2,0.7-0.2,1.3-0.2,2l0.2,79.8c0,1.7,0.6,2.9,1.6,3.5L38,173c-1-0.6-1.6-1.8-1.6-3.5l-0.2-79.9c0-0.6,0.1-1.3,0.2-2
		c0.5-2.1,1.7-4.2,3.2-5.8c0.6-0.6,1.3-1.2,2-1.6l74.6-43.1c1.5-0.9,2.9-1,3.9-0.4L126.3,40.3z"/>
	<path class="st3" d="M45.8,85.3c-1.5,1.6-2.7,3.7-3.2,5.8l-6.1-3.5c0.5-2.1,1.7-4.2,3.2-5.8L45.8,85.3z"/>
	<path class="st4" d="M44.1,176.8c0,0-0.1,0-0.1,0l-6.1-3.5c-1.1-0.7-1.7-2-1.7-3.7L36,89.6c0-0.7,0.1-1.4,0.2-2
		c0.5-2.2,1.7-4.3,3.3-6c0.6-0.7,1.3-1.2,2-1.6l74.6-43.1c1.5-0.9,3-1,4.1-0.4l6.1,3.5c0,0,0,0,0,0c0.1,0.1,0.2,0.3,0.1,0.4
		c-0.1,0.1-0.3,0.2-0.4,0.1l0,0c-0.9-0.5-2.2-0.4-3.6,0.4L47.9,84c-0.6,0.4-1.3,0.9-1.9,1.5c-1.5,1.5-2.7,3.7-3.1,5.7
		c-0.2,0.7-0.2,1.3-0.2,1.9l0.2,79.8c0,1.5,0.5,2.7,1.4,3.2c0.1,0.1,0.2,0.3,0.1,0.4C44.3,176.7,44.2,176.8,44.1,176.8z M118.8,36.7
		c-0.7,0-1.5,0.2-2.3,0.7L41.8,80.5c-0.7,0.4-1.3,0.9-1.9,1.5c-1.5,1.5-2.7,3.7-3.1,5.7c-0.2,0.6-0.2,1.3-0.2,1.9l0.2,79.8
		c0,1.6,0.5,2.7,1.4,3.3l4.5,2.6c-0.3-0.6-0.5-1.4-0.5-2.4l-0.2-79.8c0-0.7,0.1-1.4,0.3-2.1c0.5-2.1,1.7-4.3,3.3-6
		c0.6-0.7,1.3-1.2,2-1.6l74.6-43.1c0.8-0.5,1.6-0.7,2.3-0.8L120,37C119.7,36.8,119.2,36.7,118.8,36.7z"/>
	<path class="st4" d="M42.5,168.8c0,0-0.1,0-0.1,0l-6.1-3.5c-0.1-0.1-0.2-0.2-0.1-0.4c0.1-0.1,0.2-0.2,0.4-0.1l6.1,3.5
		c0.1,0.1,0.2,0.2,0.1,0.4C42.7,168.7,42.6,168.8,42.5,168.8z M118.4,43.3c0,0-0.1,0-0.1,0l-6.1-3.5c-0.1-0.1-0.2-0.2-0.1-0.4
		c0.1-0.1,0.3-0.2,0.4-0.1l6.1,3.5c0.1,0.1,0.2,0.2,0.1,0.4C118.6,43.2,118.5,43.3,118.4,43.3z"/>
	<path class="st5" d="M127.8,43.8c0-3.4-2.5-4.8-5.5-3.1L47.8,83.8c-3,1.7-5.4,5.9-5.4,9.4l0,10.8l85.5-49.4L127.8,43.8z"/>
	<path class="st4" d="M42.4,104.2c0,0-0.1,0-0.1,0c-0.1-0.1-0.1-0.1-0.1-0.2l0-10.8c0-3.5,2.5-7.8,5.6-9.6l74.6-43.1
		c1.5-0.9,3-1,4.1-0.4c1.1,0.6,1.7,2,1.7,3.7l0,10.8c0,0.1-0.1,0.2-0.1,0.2l-85.5,49.4C42.5,104.2,42.4,104.2,42.4,104.2z
		 M124.8,40.2c-0.7,0-1.5,0.2-2.3,0.7L47.9,84c-2.9,1.7-5.3,5.8-5.3,9.1l0,10.3l84.9-49l0-10.6c0-1.6-0.5-2.7-1.5-3.2
		C125.7,40.3,125.3,40.2,124.8,40.2z"/>
	<path class="st6" d="M42.4,103.9l0.1,69.1c0,3.5,2.4,4.8,5.5,3.1l74.6-43.1c3-1.7,5.4-5.9,5.4-9.4l-0.1-69.1L42.4,103.9z"/>
	<path class="st4" d="M45.5,177.1c-0.6,0-1.1-0.1-1.6-0.4c-1.1-0.6-1.7-2-1.7-3.7l-0.1-69.1c0-0.1,0.1-0.2,0.1-0.2l85.5-49.4
		c0.1-0.1,0.2-0.1,0.3,0c0.1,0.1,0.1,0.1,0.1,0.2l0.1,69.1c0,3.5-2.5,7.9-5.6,9.6l-74.6,43.1C47.2,176.9,46.3,177.1,45.5,177.1z
		 M42.7,104.1l0.1,68.9c0,1.6,0.5,2.7,1.5,3.3c0.9,0.5,2.2,0.4,3.6-0.4l74.6-43.1c2.9-1.7,5.3-5.8,5.3-9.1L127.6,55L42.7,104.1z"/>
	<path class="st6" d="M50.2,88.2c1.3-0.7,2.3-0.2,2.3,1.3c0,1.4-1,3.2-2.3,3.9c-1.3,0.7-2.3,0.1-2.3-1.3
		C47.9,90.7,48.9,88.9,50.2,88.2z M59.7,82.7C60.9,82,62,82.6,62,84c0,1.4-1,3.2-2.3,3.9c-1.3,0.7-2.3,0.1-2.3-1.3
		C57.4,85.2,58.4,83.4,59.7,82.7z M69.2,77.2c1.3-0.7,2.3-0.1,2.3,1.3c0,1.4-1,3.2-2.3,3.9c-1.3,0.7-2.3,0.1-2.3-1.3
		C66.9,79.7,67.9,77.9,69.2,77.2z"/>
	<g>
		<polygon class="st5" points="86,83.8 86,115 47.3,137.3 47.2,106.1 		"/>
		<path class="st6" d="M60.8,108.9c0.2-0.1,0.4-0.1,0.5-0.1c0.1,0.1,0.2,0.2,0.2,0.5c0,0.4-0.2,0.7-0.5,1.1l-6.6,7.2l6.6-0.4
			c0.3,0,0.5,0.2,0.5,0.5c0,0.2-0.1,0.5-0.2,0.7c-0.1,0.2-0.3,0.4-0.5,0.5c-0.1,0.1-0.2,0.1-0.3,0.1l-7.3,0.5
			c-0.4,0-0.7-0.2-0.7-0.7v-0.2c0-0.5,0.2-1,0.7-1.5l7.3-8C60.6,109,60.7,108.9,60.8,108.9z M69,100.1c0.2-0.1,0.4-0.1,0.5-0.1
			c0.1,0.1,0.2,0.2,0.2,0.5c0,0.1,0,0.1,0,0.2c0,0.1,0,0.1,0,0.2L64.9,120c0,0.2-0.1,0.4-0.3,0.6c-0.1,0.2-0.3,0.3-0.5,0.4
			c-0.2,0.1-0.4,0.1-0.5,0.1c-0.1-0.1-0.2-0.3-0.2-0.5c0-0.1,0-0.1,0-0.2c0-0.1,0-0.1,0-0.2l4.8-19.2c0.1-0.2,0.1-0.4,0.3-0.6
			C68.7,100.3,68.9,100.2,69,100.1z M72.4,102.2c0.1-0.1,0.2-0.1,0.3-0.1l7.3-0.5c0.4,0,0.7,0.2,0.7,0.7v0.2c0,0.5-0.2,1-0.7,1.5
			l-7.3,8c-0.1,0.1-0.2,0.2-0.3,0.2c-0.2,0.1-0.4,0.1-0.5,0.1c-0.1-0.1-0.2-0.2-0.2-0.5c0-0.4,0.2-0.7,0.5-1.1l6.6-7.2l-6.6,0.4
			c-0.3,0-0.5-0.1-0.5-0.5c0-0.2,0.1-0.5,0.2-0.7C72,102.5,72.2,102.3,72.4,102.2z"/>
		<line class="st7" x1="118.1" y1="72.5" x2="123.2" y2="69.5"/>
		<path class="st4" d="M118.1,72.7c-0.1,0-0.2-0.1-0.2-0.1c-0.1-0.1,0-0.3,0.1-0.4l5.1-2.9c0.1-0.1,0.3,0,0.4,0.1
			c0.1,0.1,0,0.3-0.1,0.4l-5.1,2.9C118.2,72.7,118.2,72.7,118.1,72.7z"/>
		<path class="st5" d="M92.5,87.5c-0.1,0-0.2-0.1-0.2-0.1c-0.1-0.1,0-0.3,0.1-0.4l21.9-12.6c0.1-0.1,0.3,0,0.4,0.1
			c0.1,0.1,0,0.3-0.1,0.4L92.6,87.5C92.6,87.5,92.5,87.5,92.5,87.5z M112,84c-0.1,0-0.2-0.1-0.2-0.1c-0.1-0.1,0-0.3,0.1-0.4
			l11.8-6.8c0.1-0.1,0.3,0,0.4,0.1c0.1,0.1,0,0.3-0.1,0.4l-11.8,6.8C112.1,84,112,84,112,84z"/>
		<line class="st7" x1="92.5" y1="95" x2="108.3" y2="85.8"/>
		<path class="st4" d="M92.5,95.2c-0.1,0-0.2-0.1-0.2-0.1c-0.1-0.1,0-0.3,0.1-0.4l15.8-9.1c0.1-0.1,0.3,0,0.4,0.1
			c0.1,0.1,0,0.3-0.1,0.4l-15.8,9.1C92.6,95.2,92.5,95.2,92.5,95.2z"/>
		<path class="st5" d="M79.1,149.1c-0.1,0-0.2-0.1-0.2-0.1c-0.1-0.1,0-0.3,0.1-0.4l25-14.4c0.1-0.1,0.3,0,0.4,0.1
			c0.1,0.1,0,0.3-0.1,0.4l-25,14.4C79.2,149.1,79.1,149.1,79.1,149.1z"/>
		<line class="st7" x1="64.5" y1="157.2" x2="74.4" y2="151.5"/>
		<path class="st4" d="M64.5,157.5c-0.1,0-0.2-0.1-0.2-0.1c-0.1-0.1,0-0.3,0.1-0.4l9.8-5.7c0.1-0.1,0.3,0,0.4,0.1
			c0.1,0.1,0,0.3-0.1,0.4l-9.8,5.7C64.6,157.5,64.6,157.5,64.5,157.5z"/>
		<line class="st7" x1="122.8" y1="123.6" x2="107.7" y2="132.3"/>
		<path class="st4" d="M107.7,132.6c-0.1,0-0.2-0.1-0.2-0.1c-0.1-0.1,0-0.3,0.1-0.4l15.1-8.7c0.1-0.1,0.3,0,0.4,0.1
			c0.1,0.1,0,0.3-0.1,0.4l-15.1,8.7C107.8,132.6,107.8,132.6,107.7,132.6z"/>
		<line class="st7" x1="112.4" y1="91.1" x2="124.1" y2="84.4"/>
		<path class="st4" d="M112.4,91.4c-0.1,0-0.2-0.1-0.2-0.1c-0.1-0.1,0-0.3,0.1-0.4l11.7-6.8c0.1-0.1,0.3,0,0.4,0.1
			c0.1,0.1,0,0.3-0.1,0.4l-11.7,6.8C112.5,91.4,112.5,91.4,112.4,91.4z"/>
		<line class="st7" x1="108" y1="93.7" x2="100.4" y2="98.1"/>
		<path class="st4" d="M100.4,98.4c-0.1,0-0.2-0.1-0.2-0.1c-0.1-0.1,0-0.3,0.1-0.4l7.6-4.4c0.1-0.1,0.3,0,0.4,0.1
			c0.1,0.1,0,0.3-0.1,0.4l-7.6,4.4C100.5,98.3,100.4,98.4,100.4,98.4z"/>
		<path class="st5" d="M92.5,102.9c-0.1,0-0.2-0.1-0.2-0.1c-0.1-0.1,0-0.3,0.1-0.4l5.2-3c0.1-0.1,0.3,0,0.4,0.1
			c0.1,0.1,0,0.3-0.1,0.4l-5.2,3C92.6,102.9,92.5,102.9,92.5,102.9z M103.5,104.2c-0.1,0-0.2-0.1-0.2-0.1c-0.1-0.1,0-0.3,0.1-0.4
			l11.6-6.7c0.1-0.1,0.3,0,0.4,0.1c0.1,0.1,0,0.3-0.1,0.4l-11.6,6.7C103.6,104.2,103.6,104.2,103.5,104.2z"/>
		<line class="st7" x1="123" y1="92.7" x2="117.8" y2="95.7"/>
		<path class="st4" d="M117.8,96c-0.1,0-0.2-0.1-0.2-0.1c-0.1-0.1,0-0.3,0.1-0.4l5.1-3c0.1-0.1,0.3,0,0.4,0.1c0.1,0.1,0,0.3-0.1,0.4
			l-5.1,3C117.9,96,117.9,96,117.8,96z"/>
		<line class="st7" x1="92.5" y1="110.3" x2="100.8" y2="105.5"/>
		<path class="st4" d="M92.5,110.6c-0.1,0-0.2-0.1-0.2-0.1c-0.1-0.1,0-0.3,0.1-0.4l8.3-4.8c0.1-0.1,0.3,0,0.4,0.1
			c0.1,0.1,0,0.3-0.1,0.4l-8.3,4.8C92.6,110.6,92.5,110.6,92.5,110.6z"/>
		<line class="st7" x1="111.2" y1="107.2" x2="122.6" y2="100.6"/>
		<path class="st4" d="M111.2,107.5c-0.1,0-0.2-0.1-0.2-0.1c-0.1-0.1,0-0.3,0.1-0.4l11.4-6.6c0.1-0.1,0.3,0,0.4,0.1
			c0.1,0.1,0,0.3-0.1,0.4l-11.4,6.6C111.3,107.5,111.2,107.5,111.2,107.5z"/>
		<g>
			<path class="st5" d="M91.4,118.9c-0.1,0-0.2-0.1-0.2-0.1c-0.1-0.1,0-0.3,0.1-0.4l15.8-9.1c0.1-0.1,0.3,0,0.4,0.1
				c0.1,0.1,0,0.3-0.1,0.4l-15.8,9.1C91.5,118.9,91.5,118.9,91.4,118.9z"/>
		</g>
		<g>
			<line class="st7" x1="64.5" y1="134.2" x2="86.7" y2="121.4"/>
			<path class="st4" d="M64.5,134.4c-0.1,0-0.2-0.1-0.2-0.1c-0.1-0.1,0-0.3,0.1-0.4l22.1-12.8c0.1-0.1,0.3,0,0.4,0.1
				c0.1,0.1,0,0.3-0.1,0.4l-22.1,12.8C64.6,134.4,64.6,134.4,64.5,134.4z"/>
		</g>
		<g>
			<path class="st5" d="M47.2,144.5c-0.1,0-0.2-0.1-0.2-0.1c-0.1-0.1,0-0.3,0.1-0.4l10.1-5.8c0.1-0.1,0.3,0,0.4,0.1
				c0.1,0.1,0,0.3-0.1,0.4l-10.1,5.8C47.3,144.5,47.2,144.5,47.2,144.5z"/>
		</g>
		<g>
			<path class="st5" d="M102.7,120.1c-0.1,0-0.2-0.1-0.2-0.1c-0.1-0.1,0-0.3,0.1-0.4l19.9-11.5c0.1-0.1,0.3,0,0.4,0.1
				c0.1,0.1,0,0.3-0.1,0.4l-19.9,11.5C102.8,120.1,102.7,120.1,102.7,120.1z"/>
		</g>
		<g>
			<line class="st7" x1="83.3" y1="131" x2="98.5" y2="122.2"/>
			<path class="st4" d="M83.3,131.3c-0.1,0-0.2-0.1-0.2-0.1c-0.1-0.1,0-0.3,0.1-0.4l15.2-8.8c0.1-0.1,0.3,0,0.4,0.1
				c0.1,0.1,0,0.3-0.1,0.4l-15.2,8.8C83.4,131.3,83.3,131.3,83.3,131.3z"/>
		</g>
		<g>
			<path class="st5" d="M64.5,142.1c-0.1,0-0.2-0.1-0.2-0.1c-0.1-0.1,0-0.3,0.1-0.4l13-7.5c0.1-0.1,0.3,0,0.4,0.1
				c0.1,0.1,0,0.3-0.1,0.4l-13,7.5C64.6,142.1,64.6,142.1,64.5,142.1z"/>
		</g>
		<g>
			<line class="st7" x1="47.2" y1="151.9" x2="57.3" y2="146"/>
			<path class="st4" d="M47.2,152.2c-0.1,0-0.2-0.1-0.2-0.1c-0.1-0.1,0-0.3,0.1-0.4l10.1-5.8c0.1-0.1,0.3,0,0.4,0.1
				c0.1,0.1,0,0.3-0.1,0.4l-10.1,5.8C47.3,152.2,47.2,152.2,47.2,152.2z"/>
		</g>
		<g>
			<line class="st7" x1="115.5" y1="120.1" x2="123.7" y2="115.4"/>
			<path class="st4" d="M115.5,120.4c-0.1,0-0.2-0.1-0.2-0.1c-0.1-0.1,0-0.3,0.1-0.4l8.2-4.7c0.1-0.1,0.3,0,0.4,0.1
				c0.1,0.1,0,0.3-0.1,0.4l-8.2,4.7C115.6,120.4,115.5,120.4,115.5,120.4z"/>
		</g>
		<g>
			<path class="st5" d="M93.3,133.2c-0.1,0-0.2-0.1-0.2-0.1c-0.1-0.1,0-0.3,0.1-0.4l19.1-11c0.1-0.1,0.3,0,0.4,0.1
				c0.1,0.1,0,0.3-0.1,0.4l-19.1,11C93.3,133.2,93.3,133.2,93.3,133.2z"/>
		</g>
		<g>
			<line class="st7" x1="64.5" y1="149.5" x2="88.2" y2="135.9"/>
			<path class="st4" d="M64.5,149.8c-0.1,0-0.2-0.1-0.2-0.1c-0.1-0.1,0-0.3,0.1-0.4l23.7-13.7c0.1-0.1,0.3,0,0.4,0.1
				c0.1,0.1,0,0.3-0.1,0.4l-23.7,13.7C64.6,149.8,64.6,149.8,64.5,149.8z"/>
		</g>
		<g>
			<path class="st5" d="M47.2,159.9c-0.1,0-0.2-0.1-0.2-0.1c-0.1-0.1,0-0.3,0.1-0.4l10.1-5.8c0.1-0.1,0.3,0,0.4,0.1
				c0.1,0.1,0,0.3-0.1,0.4l-10.1,5.8C47.3,159.8,47.2,159.9,47.2,159.9z"/>
		</g>
		<g>
			<line class="st7" x1="47.2" y1="167.3" x2="57.3" y2="161.4"/>
			<path class="st4" d="M47.2,167.5c-0.1,0-0.2-0.1-0.2-0.1c-0.1-0.1,0-0.3,0.1-0.4l10.1-5.8c0.1-0.1,0.3,0,0.4,0.1
				c0.1,0.1,0,0.3-0.1,0.4l-10.1,5.8C47.3,167.5,47.2,167.5,47.2,167.5z"/>
		</g>
	</g>
	<g>
		<path class="st6" d="M199.7,215.1c-1.5,0.9-3.8,0.9-5.3,0c-1.5-0.8-1.5-2.2,0-3c1.4-0.8,3.8-0.9,5.2,0
			C201.1,212.9,201.1,214.2,199.7,215.1z"/>
	</g>
	<g>
		<path class="st1" d="M88,230.5c-4,2.3-4,6.1,0,8.4l143.3,83.3c4,2.3,10.4,2.3,14.5,0l75-43.3c4-2.3,4-6.1,0-8.4l-143.3-83.3
			c-4-2.3-10.4-2.3-14.5,0L88,230.5z"/>
		<path class="st2" d="M318.2,266.2c0,1.5-1,3-3,4.2l-75,43.3c-1.2,0.7-2.6,1.2-4.2,1.5c-1,0.2-2,0.3-3,0.3c-1,0-2-0.1-3-0.3
			c-1.6-0.3-3-0.8-4.2-1.5L82.4,230.4c-2-1.1-3-2.6-3-4.1l0-17.5c0,1.5,1,3,3,4.2l143.3,83.3c1.2,0.7,2.7,1.2,4.3,1.5
			c1,0.2,2,0.2,3,0.2c1,0,2-0.1,3-0.3c1.5-0.3,2.9-0.8,4.1-1.4l75-43.3c2-1.2,3-2.7,3-4.2L318.2,266.2z"/>
		<path class="st0" d="M236,297.7v17.5c-1,0.2-2,0.3-3,0.3c-1,0-2-0.1-3-0.3v-17.5c1,0.2,2,0.2,3,0.2C234,297.9,235,297.9,236,297.7
			z"/>
		<path class="st4" d="M232.9,315.7c-2.8,0-5.4-0.6-7.3-1.8L82.3,230.7c-2-1.2-3.1-2.7-3.1-4.4l0-17.5c0,0,0,0,0,0l0,0c0,0,0,0,0,0
			c0-0.2,0.1-0.3,0.3-0.3l0,0c0.2,0,0.3,0.1,0.3,0.3v0c0,1.5,1,2.9,2.8,3.9L225.8,296c1.9,1.1,4.4,1.7,7.1,1.7c0,0,0,0,0.1,0
			c2.6,0,5.1-0.6,7-1.7l75-43.3c1.9-1.1,2.9-2.5,2.9-4c0-0.2,0.1-0.3,0.3-0.3l0,0c0.2,0,0.3,0.1,0.3,0.3l0,17.5
			c0,1.7-1.1,3.3-3.2,4.5l-75,43.3C238.3,315.1,235.7,315.7,232.9,315.7C233,315.7,232.9,315.7,232.9,315.7z M79.7,210.8l0,15.4
			c0,1.5,1,2.9,2.8,3.9l143.3,83.3c1.9,1.1,4.4,1.7,7,1.7c0,0,0,0,0.1,0c2.7,0,5.2-0.6,7.1-1.7l75-43.3c1.9-1.1,2.9-2.5,2.9-4
			l0-15.5c-0.5,0.9-1.4,1.8-2.6,2.5l-75,43.3c-2,1.1-4.6,1.8-7.3,1.8c0,0,0,0-0.1,0c-2.8,0-5.4-0.6-7.4-1.8L82.3,213.2
			C81.1,212.5,80.2,211.7,79.7,210.8z"/>
		<line class="st7" x1="310.5" y1="255.6" x2="310.5" y2="273.1"/>
		<path class="st4" d="M310.5,273.4c-0.2,0-0.3-0.1-0.3-0.3v-17.5c0-0.2,0.1-0.3,0.3-0.3c0.2,0,0.3,0.1,0.3,0.3v17.5
			C310.7,273.3,310.6,273.4,310.5,273.4z M116.1,240.6c0,0.7-0.3,1.3-0.7,1.5l-1.5,0.9c0.4-0.3,0.7-0.8,0.7-1.5c0-1.5-1-3.3-2.3-4
			l-11.2-6.4c-0.7-0.4-1.2-0.4-1.7-0.2l1.5-0.9c0.4-0.2,1-0.2,1.7,0.2l11.2,6.4C115.1,237.3,116.1,239.1,116.1,240.6z"/>
		<path class="st4" d="M113.9,243.2c-0.1,0-0.2,0-0.2-0.1c-0.1-0.1,0-0.3,0.1-0.4c0.3-0.2,0.5-0.7,0.5-1.3c0-1.4-1-3.1-2.2-3.7
			l-11.1-6.4c-0.5-0.3-1-0.4-1.4-0.2c-0.1,0.1-0.3,0-0.4-0.1c-0.1-0.1,0-0.3,0.1-0.4l1.5-0.9c0.5-0.3,1.2-0.2,1.9,0.2l11.2,6.4
			c1.4,0.8,2.4,2.7,2.4,4.2c0,0,0,0,0,0c0,0.8-0.3,1.4-0.8,1.7l-1.5,0.9C114,243.2,114,243.2,113.9,243.2z M100.6,230.5
			c0.2,0.1,0.4,0.1,0.6,0.3l11.2,6.4c1.4,0.8,2.4,2.7,2.4,4.2c0,0.2,0,0.5-0.1,0.7l0.5-0.3c0.3-0.2,0.5-0.6,0.5-1.3
			c0-1.4-1-3.1-2.2-3.8l-11.1-6.4c-0.5-0.3-1-0.4-1.4-0.2L100.6,230.5z M116.1,240.6L116.1,240.6L116.1,240.6z"/>
		<path class="st6" d="M112.3,237.5c1.3,0.7,2.3,2.5,2.3,4s-1,2.1-2.3,1.3l-11.2-6.4c-1.3-0.7-2.3-2.5-2.3-4c0-1.5,1-2.1,2.3-1.3
			L112.3,237.5z"/>
		<path class="st4" d="M113.3,243.4c-0.4,0-0.8-0.1-1.2-0.4l-11.2-6.4c-1.4-0.8-2.5-2.7-2.4-4.2c0-0.8,0.3-1.4,0.8-1.7
			c0.5-0.3,1.2-0.2,1.9,0.2l11.2,6.4c1.4,0.8,2.5,2.7,2.4,4.2c0,0.8-0.3,1.4-0.8,1.7C113.8,243.3,113.6,243.4,113.3,243.4z
			 M100.1,231c-0.2,0-0.3,0-0.5,0.1c-0.3,0.2-0.5,0.6-0.5,1.2c0,1.4,1,3.1,2.2,3.8l11.2,6.4c0.5,0.3,1,0.4,1.4,0.2
			c0.3-0.2,0.5-0.6,0.5-1.2c0-1.4-1-3.1-2.2-3.8l0,0l-11.2-6.4C100.7,231.1,100.4,231,100.1,231z M82.4,204.6c-4,2.3-4,6.1,0,8.4
			l143.3,83.3c4,2.3,10.4,2.3,14.5,0l75-43.3c4-2.3,4-6.1,0-8.4l-143.3-83.3c-4-2.3-10.4-2.3-14.5,0L82.4,204.6z"/>
		<path class="st4" d="M232.9,298.2c-2.7,0-5.3-0.6-7.4-1.8L82.3,213.2c-2-1.2-3.1-2.7-3.1-4.4c0-1.7,1.1-3.3,3.2-4.4l0.1,0.2
			l-0.1-0.2l75-43.3c4.1-2.4,10.7-2.4,14.7,0l143.3,83.3c2,1.2,3.1,2.7,3.1,4.4c0,1.7-1.1,3.3-3.2,4.4l-75,43.3
			C238.2,297.6,235.6,298.2,232.9,298.2z M164.7,159.8c-2.6,0-5.1,0.6-7.1,1.7l-75,43.3c-1.9,1.1-2.9,2.5-2.9,4c0,1.5,1,2.9,2.8,3.9
			L225.8,296c3.9,2.3,10.3,2.3,14.2,0l75-43.3c1.9-1.1,2.9-2.5,2.9-4c0-1.5-1-2.9-2.8-3.9l-143.3-83.3
			C169.8,160.4,167.3,159.8,164.7,159.8z"/>
		<path class="st6" d="M84.7,210.4c0,1,0.8,2.1,2.3,3l143.3,83.3c1.7,1,4,1.5,6.5,1.5c2.5,0,4.8-0.6,6.5-1.5l75-43.3
			c1.5-0.8,2.3-1.9,2.3-3c0-1-0.8-2.1-2.3-3l-143.3-83.3c-1.7-1-4-1.5-6.5-1.5c-2.5,0-4.8,0.6-6.5,1.5l-75,43.3
			C85.5,208.3,84.7,209.4,84.7,210.4z"/>
		<path class="st4" d="M236.8,298.5c-2.5,0-4.9-0.6-6.7-1.6L86.8,213.6c-1.5-0.9-2.4-2.1-2.4-3.2c0-1.2,0.9-2.3,2.5-3.2l75-43.3
			c1.8-1,4.2-1.6,6.7-1.6c2.5,0,4.9,0.6,6.7,1.6l143.3,83.3c1.5,0.9,2.4,2.1,2.4,3.2c0,1.2-0.9,2.3-2.5,3.2l-75,43.3
			C241.7,297.9,239.3,298.5,236.8,298.5z M168.6,162.9c-2.4,0-4.7,0.5-6.4,1.5l-75,43.3c-1.4,0.8-2.2,1.8-2.2,2.8
			c0,0.9,0.8,1.9,2.1,2.7l143.3,83.3c1.7,1,3.9,1.5,6.4,1.5c2.4,0,4.7-0.5,6.4-1.5l75-43.3c1.4-0.8,2.2-1.8,2.2-2.8
			c0-0.9-0.8-1.9-2.1-2.7L175,164.4C173.3,163.4,171,162.9,168.6,162.9z"/>
		<path class="st4" d="M145.8,178.3c-1.1,0.6-29.3,17-30.6,17.8c-2.1,1.2-5.5,1.2-7.6,0l-3.8-2.2c1.3-0.8,36.7-21.3,38.2-22.2
			l3.8,2.2C147.9,175.1,147.9,177.1,145.8,178.3z"/>
		<path class="st4" d="M111.4,197.3c-1.4,0-2.8-0.3-3.9-0.9l-3.8-2.2c-0.1-0.1-0.1-0.1-0.1-0.2c0-0.1,0.1-0.2,0.1-0.2l13.7-8
			c10.6-6.2,23.6-13.7,24.5-14.2c0.1-0.1,0.2-0.1,0.3,0l3.8,2.2c1.1,0.6,1.7,1.5,1.7,2.5c0,0.9-0.6,1.8-1.7,2.4
			c-0.9,0.5-17.9,10.4-26.1,15.1l-4.5,2.6C114.3,197,112.8,197.3,111.4,197.3z M104.4,193.9l3.4,2c2,1.2,5.3,1.2,7.3,0l4.5-2.6
			c8.2-4.8,25.2-14.6,26.1-15.1c0,0,0,0,0,0c0.9-0.5,1.4-1.2,1.4-1.9c0-0.7-0.5-1.4-1.4-2l-3.7-2.1c-1.7,1-14.1,8.2-24.3,14.1
			L104.4,193.9z"/>
		<path class="st6" d="M117.4,191.4c-0.9,0-1.7-0.2-2.3-0.5c-0.5-0.3-0.8-0.7-0.8-1.1c0-0.4,0.3-0.8,0.8-1.1l23.7-13.8
			c0.6-0.3,1.4-0.5,2.3-0.5c0.9,0,1.7,0.2,2.3,0.5c0.5,0.3,0.8,0.7,0.8,1.1c0,0.4-0.3,0.8-0.8,1.1l-23.7,13.8
			C119,191.3,118.2,191.4,117.4,191.4z M111.2,195c-0.9,0-1.7-0.2-2.3-0.5c-0.5-0.3-0.8-0.7-0.8-1.1c0-0.4,0.3-0.8,0.8-1.1
			c0.6-0.3,1.4-0.5,2.3-0.5c0.9,0,1.7,0.2,2.3,0.5c0.5,0.3,0.8,0.7,0.8,1.1c0,0.4-0.3,0.8-0.8,1.1C112.9,194.8,112.1,195,111.2,195z
			"/>
		<path class="st5" d="M111.2,194.4c-0.5,0-1-0.1-1.4-0.3c-0.3-0.2-0.5-0.4-0.5-0.7c0-0.2,0.2-0.5,0.5-0.7c0.4-0.2,0.8-0.3,1.4-0.3
			c0.5,0,1,0.1,1.4,0.3c0.3,0.2,0.5,0.4,0.5,0.7c0,0.2-0.2,0.5-0.5,0.7C112.2,194.2,111.7,194.4,111.2,194.4z"/>
		<path class="st4" d="M247.4,299.9c0.8-0.5,1.5-0.1,1.5,0.9c0,1-0.7,2.1-1.5,2.6c-0.8,0.5-1.5,0.1-1.5-0.9
			C245.8,301.6,246.5,300.4,247.4,299.9z"/>
		<g>
			<path class="st4" d="M253.5,296.4c0.8-0.5,1.5-0.1,1.5,0.9c0,1-0.7,2.1-1.5,2.6c-0.8,0.5-1.5,0.1-1.5-0.9
				C252,298,252.7,296.9,253.5,296.4z"/>
		</g>
		<g>
			<path class="st4" d="M259.7,292.8c0.8-0.5,1.5-0.1,1.5,0.9c0,1-0.7,2.1-1.5,2.6c-0.8,0.5-1.5,0.1-1.5-0.9
				C258.2,294.4,258.9,293.3,259.7,292.8z"/>
		</g>
		<g>
			<path class="st4" d="M298.5,270.4c0.8-0.5,1.5-0.1,1.5,0.9c0,1-0.7,2.1-1.5,2.6c-0.8,0.5-1.5,0.1-1.5-0.9
				C297,272.1,297.7,270.9,298.5,270.4z"/>
		</g>
		<g>
			<path class="st4" d="M304.7,266.8c0.8-0.5,1.5-0.1,1.5,0.9c0,1-0.7,2.1-1.5,2.6c-0.8,0.5-1.5,0.1-1.5-0.9
				C303.2,268.5,303.8,267.3,304.7,266.8z"/>
		</g>
		<g>
			<path class="st4" d="M287.3,280.4c0.8-0.5,1.5-1.7,1.5-2.6c0-1-0.7-1.4-1.5-0.9l-16.4,9.5c-0.8,0.5-1.5,1.7-1.5,2.6
				c0,1,0.7,1.4,1.5,0.9L287.3,280.4z"/>
		</g>
		<g>
			<line class="st7" x1="216.4" y1="290.8" x2="216.4" y2="308.2"/>
			<path class="st4" d="M216.4,308.5c-0.2,0-0.3-0.1-0.3-0.3v-17.4c0-0.2,0.1-0.3,0.3-0.3c0.2,0,0.3,0.1,0.3,0.3v17.4
				C216.7,308.4,216.5,308.5,216.4,308.5z"/>
		</g>
		<g>
			<line class="st7" x1="90.8" y1="217.8" x2="90.8" y2="235.3"/>
			<path class="st4" d="M90.8,235.5c-0.2,0-0.3-0.1-0.3-0.3v-17.4c0-0.2,0.1-0.3,0.3-0.3c0.2,0,0.3,0.1,0.3,0.3v17.4
				C91.1,235.4,91,235.5,90.8,235.5z"/>
		</g>
		<g>
			<path class="st3" d="M182.5,277c1.4,0.8,2.5,2.7,2.5,4.3c0,1.6-1.1,2.2-2.5,1.4l-26.9-15.6c-1.4-0.8-2.5-2.7-2.5-4.3
				c0-1.6,1.1-2.2,2.5-1.4L182.5,277z"/>
		</g>
		<g>
			<path class="st4" d="M182.5,278.6c-0.6-0.3-1.1-0.1-1.1,0.6c0,0.7,0.5,1.5,1.1,1.9c0.6,0.4,1.1,0.1,1.1-0.6
				C183.6,279.8,183.1,279,182.5,278.6z"/>
		</g>
		<g>
			<polygon class="st5" points="103.1,216.9 132.6,234 166.2,214.6 136.7,197.5 			"/>
		</g>
		<g>
			<polygon class="st0" points="159.2,181.6 188.8,198.7 222.6,179.1 193.2,162 			"/>
		</g>
		<g>
			<polygon class="st0" points="169,255.2 202.7,235.7 172.6,218.2 138.8,237.8 			"/>
		</g>
		<g>
			<polygon class="st0" points="265.3,203.9 231.5,223.4 261.7,240.8 295.3,221.4 			"/>
			<path class="st3" d="M261.7,241.5l-31.3-18.1l34.9-20.1l31.2,18.1L261.7,241.5z M232.7,223.4l29,16.8l32.5-18.8l-29-16.8
				L232.7,223.4z"/>
		</g>
		<g>
			<polygon class="st5" points="209,239.3 175.2,258.8 205.3,276.3 239.2,256.7 			"/>
		</g>
		<g>
			<polygon class="st5" points="208.9,232 242.6,212.6 212.5,195.1 178.7,214.6 			"/>
		</g>
		<g>
			<path class="st4" d="M188.8,199c0,0-0.1,0-0.1,0l-29.5-17.1c-0.1-0.1-0.1-0.1-0.1-0.2s0.1-0.2,0.1-0.2l34-19.6
				c0.1-0.1,0.2,0,0.3,0l29.5,17.1c0.1,0.1,0.1,0.1,0.1,0.2c0,0.1-0.1,0.2-0.1,0.2l-33.9,19.6C188.9,199,188.8,199,188.8,199z
				 M159.8,181.6l29,16.7l33.3-19.2l-28.9-16.8L159.8,181.6z"/>
		</g>
		<g>
			<path class="st4" d="M261.7,241.1c0,0-0.1,0-0.1,0l-30.2-17.4c-0.1-0.1-0.1-0.1-0.1-0.2s0.1-0.2,0.1-0.2l33.7-19.5
				c0.1-0.1,0.2,0,0.3,0l30.1,17.5c0.1,0.1,0.1,0.1,0.1,0.2c0,0.1-0.1,0.2-0.1,0.2l-33.6,19.4C261.8,241.1,261.8,241.1,261.7,241.1z
				 M232.1,223.4l29.6,17.1l33.1-19.1l-29.5-17.1L232.1,223.4z"/>
		</g>
		<g>
			<polygon class="st6" points="202.3,216.9 205.9,227.6 213.5,223.3 220.8,219.1 211.8,218 			"/>
			<polygon class="st6" points="208.4,208 211.8,218 220.8,219.1 213.5,223.3 234.7,211 			"/>
		</g>
		<g>
			<path class="st5" d="M155.4,234c-0.5,0.3-0.6,0.7-0.2,1.1l1.4,1.8c0.2,0.2,0.1,0.5-0.2,0.7l-4.4,2.5c-0.7,0.4-0.7,1,0,1.4
				l12.3,7.1c0.7,0.4,1.7,0.4,2.4,0l22.9-13.2c0.7-0.4,0.7-1,0-1.4l-12.3-7.1c-0.7-0.4-1.7-0.4-2.4,0l-4.4,2.5
				c-0.3,0.2-0.8,0.2-1.1,0.1l-3-0.8c-0.6-0.2-1.3-0.2-1.8,0.1L155.4,234z"/>
			<path class="st6" d="M165,233.8c-2.8,1.6-2.9,4.3-0.1,5.9c2.8,1.6,7.4,1.7,10.2,0c2.8-1.6,2.9-4.3,0.1-5.9
				C172.4,232.2,167.8,232.2,165,233.8z"/>
			<path class="st5" d="M166.8,234.9c-1.8,1-1.8,2.7,0,3.8c1.8,1.1,4.7,1.1,6.5,0c1.8-1,1.8-2.7,0-3.8
				C171.5,233.8,168.6,233.8,166.8,234.9z"/>
		</g>
		<g>
			<path class="st6" d="M222.7,254.2c2.7,1.8,1.8,4.4-1.6,5.4c-8.7,2.6-19.1,2.6-27.8,0c-0.6-0.2-1.1-0.4-1.5-0.6
				c-2.2-1.2-2.4-3.3-0.3-4.7c0.5-0.3,1.3-0.4,1.9-0.1c1.9,0.9,4,1.5,6.1,2c0.2,0,0.4,0.1,0.5,0.2c0.3,0.2,0.5,0.5,0.3,0.8
				c-0.1,0.1-0.1,0.3-0.2,0.4c-0.1,0.3,0,0.6,0.3,0.8c0.2,0.1,0.4,0.2,0.6,0.2c4,0.6,8.1,0.6,12.1,0c0.7-0.1,1.2-0.6,1-1
				c-0.1-0.1-0.1-0.3-0.2-0.4c-0.2-0.4,0.2-0.8,0.8-1c2.2-0.5,4.2-1.1,6.1-2C221.5,253.9,222.3,253.9,222.7,254.2z"/>
		</g>
		<g>
			<path class="st5" d="M270.9,216.5c1.9,1.1,3.2,2.5,3.8,3.9l5.2,1.4c0.1,0,0.2,0.1,0.3,0.1c0.5,0.3,0.4,0.8-0.3,1l-5.2,1.3
				c-0.6,1.4-1.8,2.8-3.7,3.9c-5.5,3.2-14.6,3.2-20.2,0c-5.6-3.2-5.6-8.4,0-11.7C256.3,213.3,265.3,213.3,270.9,216.5z"/>
			<path class="st6" d="M253.9,224.6c-0.8,0.5-0.8,1.2,0,1.7c0.8,0.5,2.2,0.5,3,0c0.8-0.5,0.8-1.2,0-1.7
				C256.1,224.1,254.7,224.1,253.9,224.6z M259.3,221.5c-0.8,0.5-0.8,1.2,0,1.7c0.8,0.5,2.2,0.5,3,0c0.8-0.5,0.8-1.2,0-1.7
				S260.1,221,259.3,221.5z M264.7,218.4c-0.8,0.5-0.8,1.2,0,1.7s2.2,0.5,3,0c0.8-0.5,0.8-1.2,0-1.7
				C266.8,217.9,265.5,217.9,264.7,218.4z"/>
		</g>
		<g>
			<path class="st2" d="M265,269.8c-2.3,0-4.5-0.5-6.1-1.4c-1.4-0.8-2.2-1.9-2.2-2.9c0-1,0.8-2.1,2.2-2.9c1.6-0.9,3.8-1.4,6.1-1.4
				c2.3,0,4.5,0.5,6.1,1.4c1.4,0.8,2.2,1.9,2.2,2.9c0,1.1-0.8,2.1-2.2,2.9C269.5,269.3,267.3,269.8,265,269.8z"/>
			<path class="st4" d="M265,270.1c-2.4,0-4.6-0.5-6.2-1.5c-1.5-0.9-2.4-2-2.4-3.2c0-1.2,0.8-2.3,2.3-3.1c1.6-1,3.8-1.5,6.2-1.5
				c2.4,0,4.6,0.5,6.2,1.5c1.5,0.9,2.4,2,2.4,3.2c0,1.2-0.8,2.3-2.3,3.2C269.6,269.6,267.4,270.1,265,270.1z M265,261.4
				c-2.3,0-4.4,0.5-5.9,1.4c-1.3,0.8-2.1,1.7-2.1,2.7c0,1,0.7,1.9,2.1,2.7c1.6,0.9,3.7,1.4,5.9,1.4c2.3,0,4.4-0.5,5.9-1.4
				c1.3-0.8,2.1-1.7,2.1-2.7c0-1-0.7-1.9-2.1-2.7C269.3,261.9,267.2,261.4,265,261.4z"/>
		</g>
	</g>
	<g>
		<polygon class="st3" points="52.4,238.4 52.4,248.6 62.8,254.7 62.8,244.5 		"/>
		<path class="st4" d="M62.8,254.9c0,0-0.1,0-0.1,0l-10.4-6.1c-0.1,0-0.1-0.1-0.1-0.2l0-10.2c0-0.1,0.1-0.2,0.1-0.2
			c0.1-0.1,0.2,0,0.3,0l10.4,6.1c0.1,0,0.1,0.1,0.1,0.2l0,10.2c0,0.1-0.1,0.2-0.1,0.2C62.9,254.9,62.8,254.9,62.8,254.9z
			 M52.7,248.4l9.9,5.7l0-9.5l-9.9-5.7L52.7,248.4z"/>
		<path class="st2" d="M73.4,259.2l0-10.2c0,1.3-0.4,2.7-1.3,3.9l0,10.2C73,261.8,73.4,260.5,73.4,259.2z"/>
		<path class="st4" d="M72.1,263.4C72.1,263.4,72.1,263.3,72.1,263.4c-0.2,0-0.3-0.2-0.3-0.3l0-10.2c0-0.1,0-0.1,0-0.2
			c0.8-1.2,1.2-2.5,1.2-3.8l0,0l0,0c0-0.2,0.1-0.3,0.3-0.3c0,0,0,0,0,0c0.2,0,0.3,0.1,0.3,0.3l0,10.2l0,0c0,1.4-0.4,2.8-1.3,4.1
			C72.3,263.3,72.2,263.4,72.1,263.4z M72.4,253l0,9.1c0.5-0.9,0.7-1.9,0.7-2.9l0-7.5C72.9,252.1,72.7,252.6,72.4,253z"/>
		<path class="st2" d="M36.3,249.1l0,10.2c0,2.7,1.8,5.5,5.4,7.5c5.3,3.1,13.1,3.9,19.7,2.4l0-10.2c-6.6,1.5-14.4,0.7-19.7-2.4
			C38.1,254.6,36.3,251.8,36.3,249.1z"/>
		<path class="st4" d="M54.8,270.3c-4.9,0-9.7-1.1-13.2-3.2c-3.6-2.1-5.5-4.8-5.5-7.8l0-10.2c0-0.2,0.1-0.3,0.3-0.3c0,0,0,0,0,0
			c0.2,0,0.3,0.1,0.3,0.3c0,2.7,1.9,5.3,5.3,7.3c5.1,3,12.7,3.9,19.5,2.4c0.1,0,0.2,0,0.2,0.1c0.1,0.1,0.1,0.1,0.1,0.2l0,10.2
			c0,0.1-0.1,0.2-0.2,0.3C59.3,270,57.1,270.3,54.8,270.3z M36.6,251.8l0,7.5c0,2.7,1.9,5.3,5.3,7.3c5,2.9,12.6,3.9,19.3,2.4l0-9.6
			c-6.8,1.4-14.5,0.4-19.6-2.5C39.1,255.5,37.4,253.7,36.6,251.8z"/>
		<polygon class="st2" points="61.4,259.1 61.4,269.3 107.1,295.8 107,285.6 		"/>
		<path class="st4" d="M107.1,296.1c0,0-0.1,0-0.1,0l-45.6-26.5c-0.1,0-0.1-0.1-0.1-0.2l0-10.2c0-0.1,0.1-0.2,0.1-0.2
			c0.1-0.1,0.2,0,0.3,0l45.6,26.5c0.1,0,0.1,0.1,0.1,0.2l0,10.2c0,0.1-0.1,0.2-0.1,0.2C107.2,296.1,107.1,296.1,107.1,296.1z
			 M61.7,269.1l45.1,26.2l0-9.5l-45.1-26.2L61.7,269.1z"/>
		<polygon class="st3" points="119.8,286.8 119.8,297 132.3,295 132.3,284.9 		"/>
		<path class="st4" d="M119.8,297.3c-0.1,0-0.1,0-0.2-0.1c-0.1-0.1-0.1-0.1-0.1-0.2l0-10.2c0-0.1,0.1-0.3,0.2-0.3l12.5-1.9
			c0.1,0,0.2,0,0.2,0.1c0.1,0.1,0.1,0.1,0.1,0.2l0,10.2c0,0.1-0.1,0.3-0.2,0.3L119.8,297.3C119.8,297.3,119.8,297.3,119.8,297.3z
			 M120.1,287.1l0,9.6l11.9-1.8l0-9.6L120.1,287.1z"/>
		<g>
			<polygon class="st3" points="132.3,284.9 132.3,295 142.7,301.1 142.7,290.9 			"/>
			<path class="st4" d="M142.7,301.4c0,0-0.1,0-0.1,0l-10.4-6.1c-0.1,0-0.1-0.1-0.1-0.2l0-10.2c0-0.1,0.1-0.2,0.1-0.2
				c0.1-0.1,0.2,0,0.3,0l10.4,6.1c0.1,0,0.1,0.1,0.1,0.2l0,10.2c0,0.1-0.1,0.2-0.1,0.2C142.8,301.4,142.8,301.4,142.7,301.4z
				 M132.6,294.9l9.9,5.7l0-9.5l-9.9-5.7L132.6,294.9z"/>
		</g>
		<g>
			<path class="st6" d="M142.9,299.6l0-10.2c0,0.5-0.1,1-0.2,1.5l0,10.2C142.9,300.6,142.9,300.1,142.9,299.6z"/>
			<path class="st4" d="M142.7,301.4C142.7,301.4,142.7,301.4,142.7,301.4c-0.2,0-0.3-0.1-0.3-0.3l0-10.2c0.1-0.5,0.2-1,0.2-1.5l0,0
				l0,0c0-0.2,0.1-0.3,0.3-0.3c0,0,0,0,0,0c0.2,0,0.3,0.1,0.3,0.3l0,10.2c0,0.5-0.1,1.1-0.2,1.6C143,301.3,142.9,301.4,142.7,301.4z
				"/>
		</g>
		<g>
			<polygon class="st3" points="116.4,294 116.4,304.2 119.8,297 119.8,286.8 			"/>
			<path class="st4" d="M116.4,304.5C116.4,304.5,116.4,304.5,116.4,304.5c-0.2,0-0.3-0.1-0.3-0.3l0-10.2c0,0,0-0.1,0-0.1l3.4-7.2
				c0.1-0.1,0.2-0.2,0.3-0.2c0.1,0,0.2,0.1,0.2,0.3l0,10.2c0,0,0,0.1,0,0.1l-3.4,7.2C116.6,304.4,116.5,304.5,116.4,304.5z
				 M116.7,294.1l0,8.9l2.8-6l0-8.9L116.7,294.1z"/>
		</g>
		<g>
			<path class="st2" d="M105.8,289.5l0,10.2c0,2.7,1.8,5.5,5.4,7.5c4.3,2.5,10.1,3.5,15.6,3l0-10.2c-5.6,0.4-11.4-0.6-15.6-3
				C107.6,295,105.8,292.2,105.8,289.5z"/>
			<path class="st4" d="M124.2,310.7c-4.9,0-9.6-1.1-13.2-3.2c-3.5-2.1-5.5-4.8-5.5-7.8l0-10.2l0,0c0-0.2,0.1-0.3,0.3-0.3
				c0,0,0,0,0,0c0.2,0,0.3,0.1,0.3,0.3c0,2.7,1.9,5.3,5.2,7.3c4.1,2.4,9.7,3.5,15.5,3c0.1,0,0.2,0,0.2,0.1c0.1,0.1,0.1,0.1,0.1,0.2
				l0,10.2c0,0.1-0.1,0.3-0.3,0.3C126,310.6,125.1,310.7,124.2,310.7z M106.1,292.2l0,7.5c0,2.7,1.9,5.3,5.2,7.3
				c4,2.3,9.6,3.4,15.2,3l0-9.6c-5.8,0.4-11.4-0.7-15.5-3.1C108.6,295.9,106.9,294.1,106.1,292.2z"/>
		</g>
		<g>
			<path class="st0" d="M36.5,247.6c-0.8,3.2,1,6.6,5.2,9.1c5.3,3.1,13.1,3.9,19.7,2.4l45.6,26.5c-2.6,3.8-1.2,8.3,4.1,11.4
				c4.3,2.5,10.1,3.5,15.6,3l-10.4-6.1l3.4-7.2l12.5-1.9l10.4,6.1c0.8-3.2-1-6.6-5.2-9.1c-5.3-3.1-13.1-3.9-19.7-2.4l-45.7-26.5
				c2.6-3.8,1.2-8.3-4.1-11.4c-4.3-2.5-10.1-3.5-15.6-3l10.4,6.1l-3.4,7.2l-12.5,1.9L36.5,247.6z"/>
			<path class="st4" d="M124.2,300.5c-4.9,0-9.6-1.1-13.2-3.2c-2.9-1.7-4.8-3.9-5.3-6.3c-0.4-1.8-0.1-3.6,1-5.3l-45.3-26.3
				c-6.9,1.5-14.6,0.5-19.8-2.5c-4.2-2.4-6.2-5.9-5.4-9.4c0-0.1,0.1-0.2,0.2-0.2c0.1,0,0.2,0,0.3,0l10.3,6l12.2-1.9l3.2-6.9
				l-10.2-5.9c-0.1-0.1-0.2-0.2-0.1-0.3c0-0.1,0.1-0.2,0.3-0.2c5.9-0.5,11.6,0.7,15.8,3.1c2.9,1.7,4.8,3.9,5.3,6.3
				c0.4,1.8,0.1,3.6-1,5.3l45.3,26.3c6.9-1.5,14.6-0.5,19.8,2.5c4.2,2.4,6.2,5.9,5.3,9.4c0,0.1-0.1,0.2-0.2,0.2c-0.1,0-0.2,0-0.3,0
				l-10.3-6l-12.2,1.9l-3.2,6.9l10.2,5.9c0.1,0.1,0.2,0.2,0.1,0.3c0,0.1-0.1,0.2-0.3,0.2C126,300.4,125.1,300.5,124.2,300.5z
				 M61.4,258.8c0,0,0.1,0,0.1,0l45.6,26.5c0.1,0,0.1,0.1,0.1,0.2s0,0.2,0,0.2c-1.1,1.6-1.4,3.4-1,5.1c0.5,2.3,2.3,4.3,5.1,5.9
				c3.9,2.2,9.1,3.4,14.6,3.1l-9.6-5.6c-0.1-0.1-0.2-0.2-0.1-0.4l3.4-7.2c0-0.1,0.1-0.1,0.2-0.2l12.5-1.9c0.1,0,0.1,0,0.2,0
				l10.1,5.9c0.6-3.1-1.3-6.1-5.2-8.4c-5.1-3-12.7-3.9-19.5-2.4c-0.1,0-0.1,0-0.2,0L72,253.1c-0.1,0-0.1-0.1-0.1-0.2
				c0-0.1,0-0.2,0-0.2c1.1-1.6,1.5-3.4,1.1-5.1c-0.5-2.3-2.3-4.3-5.1-5.9c-3.9-2.2-9.1-3.3-14.6-3.1l9.6,5.6
				c0.1,0.1,0.2,0.2,0.1,0.4l-3.4,7.2c0,0.1-0.1,0.1-0.2,0.2l-12.5,1.9c-0.1,0-0.1,0-0.2,0L36.7,248c-0.6,3.1,1.3,6.1,5.2,8.4
				C46.9,259.4,54.6,260.3,61.4,258.8C61.4,258.8,61.4,258.8,61.4,258.8z"/>
		</g>
		<g>
			<path class="st6" d="M73.3,259.7c-1.5,0.9-1.5,2.3,0,3.2l29.8,17.3c1.5,0.9,4,0.9,5.5,0c1.5-0.9,1.6-2.3,0-3.2l-29.8-17.3
				c-0.8-0.4-1.8-0.7-2.8-0.7C75,259.1,74,259.3,73.3,259.7z"/>
		</g>
	</g>
	<g>
		<path class="st6" d="M124.4,216.2c-0.1,0.1-0.1,0.1-0.2,0.2l-2.6,6c-0.2,0.4,0,0.7,0.5,1l0.2,0.1c0.5,0.3,1.1,0.4,1.7,0.3
			l10.4-1.5c0.1,0,0.2-0.1,0.3-0.1c0.2-0.1,0.3-0.2,0.2-0.4c0-0.2-0.2-0.3-0.4-0.5c-0.4-0.2-0.8-0.3-1.3-0.2l-9.3,1.4l2.4-5.4
			c0.1-0.3,0-0.5-0.4-0.7c-0.2-0.1-0.5-0.2-0.8-0.3C124.8,216,124.6,216.1,124.4,216.2z M134.7,210.2c-0.2,0.1-0.2,0.2-0.2,0.4
			c0,0.2,0.2,0.3,0.4,0.5c0.4,0.2,0.8,0.3,1.3,0.2l9.3-1.4l-2.4,5.4c-0.1,0.3,0,0.5,0.4,0.7c0.2,0.1,0.5,0.2,0.8,0.2
			c0.3,0,0.5,0,0.7-0.1c0.1-0.1,0.2-0.1,0.2-0.2l2.6-6c0.2-0.4,0-0.7-0.5-1l-0.2-0.1c-0.5-0.3-1.1-0.4-1.7-0.3l-10.4,1.5
			C134.9,210.1,134.8,210.2,134.7,210.2z M127.5,209.5c-0.2,0.1-0.2,0.2-0.2,0.3c0,0.1,0.1,0.3,0.2,0.4l12.4,12.2
			c0,0,0.1,0.1,0.1,0.1c0.1,0,0.1,0.1,0.2,0.1c0.2,0.1,0.5,0.2,0.8,0.3c0.3,0,0.5,0,0.7-0.1c0.2-0.1,0.2-0.2,0.2-0.3
			c0-0.1-0.1-0.3-0.2-0.4l-12.4-12.2c0,0-0.1-0.1-0.1-0.1c-0.1,0-0.1-0.1-0.2-0.1c-0.2-0.1-0.5-0.2-0.8-0.3
			C128,209.4,127.7,209.4,127.5,209.5z"/>
	</g>
	<g>
		<path class="st5" d="M177.6,179.3c0.6-1.4,1.9-2.7,4-4c1.6-0.9,3.5-1.6,5.4-2c2-0.4,4-0.4,6.1-0.1c1.8,0.3,3.3,0.8,4.7,1.6
			c1.9,1.1,2.9,2.5,3.1,4.1c0.1,1.5-0.5,2.6-2,3.4c-0.5,0.3-0.9,0.4-1.3,0.5c-0.4,0.1-0.8,0.1-1.2,0c-0.2,0-0.6-0.2-1-0.4
			c0.1,0.5,0,1.1-0.3,1.5c-0.2,0.5-0.6,0.9-1.2,1.2c-0.6,0.3-1.3,0.6-2.2,0.7c-0.9,0.1-1.9,0.1-2.9-0.1c-1.1-0.2-2-0.6-2.9-1.1
			c-1-0.6-1.8-1.4-2.3-2.3c-0.5-0.9-0.6-1.8-0.4-2.5c0.3-0.8,0.8-1.4,1.6-1.8c0.6-0.3,1.3-0.6,2.1-0.7c0.8-0.1,1.7-0.1,2.7,0
			l-1.2-1.1l1.8-1l5.2,4.7c0.7,0.6,1.1,1,1.2,1.1c0.2,0.1,0.4,0.2,0.7,0.2c0.3,0,0.5-0.1,0.7-0.2c0.4-0.2,0.6-0.6,0.8-1.1
			c0.2-0.7,0.1-1.5-0.3-2.3c-0.4-0.8-1.2-1.4-2.1-2c-1.1-0.6-2.4-1.1-3.9-1.3c-1.5-0.2-3.1-0.2-4.8,0.1c-1.7,0.3-3.2,0.9-4.6,1.7
			c-1.6,0.9-2.6,1.9-3.2,3.1c-0.6,1.2-0.5,2.3,0.1,3.5c0.6,1.2,1.7,2.2,3.3,3.1c1.6,0.9,3.4,1.5,5.2,1.8c1.9,0.3,3.7,0.2,5.7-0.3
			c1.9-0.5,3.7-1.1,5.3-2.1c1.7-1,2.9-2,3.5-3c0.6-1,0.8-1.9,0.5-2.8l1.8-1c0.4,0.6,0.5,1.3,0.4,2.2c-0.1,0.9-0.5,1.8-1.2,2.7
			c-0.7,0.9-1.9,1.8-3.5,2.7c-1.5,0.8-3,1.5-4.6,2c-1.6,0.5-3.3,0.8-4.9,0.8c-1.6,0.1-3.2,0-4.6-0.4c-1.8-0.4-3.4-1-4.9-1.9
			c-1.6-0.9-2.8-2-3.6-3.2C177.3,182.2,177.1,180.7,177.6,179.3z M188.7,178.5c-0.9,0-1.7,0.1-2.4,0.5c-0.4,0.2-0.7,0.5-0.9,0.9
			c-0.2,0.3-0.2,0.8-0.1,1.2c0.1,0.5,0.4,1,0.9,1.5c0.5,0.5,1,0.9,1.5,1.3c0.9,0.5,1.8,0.8,2.8,0.9c0.9,0,1.7-0.1,2.2-0.4
			c0.4-0.2,0.7-0.5,0.8-0.9c0.2-0.4,0.3-0.8,0.2-1.2c-0.1-0.5-0.3-1-0.7-1.5c-0.5-0.5-1-1-1.7-1.4
			C190.6,178.8,189.7,178.5,188.7,178.5"/>
	</g>
	<g>
		<path class="st8" d="M294.2,134.5c14,8.1,14,21.1,0.1,29.2c-13.9,8.1-36.4,8.1-50.4,0s-14.1-21.1-0.2-29.2
			C257.6,126.4,280.2,126.4,294.2,134.5z"/>
		<path class="st2" d="M301.5,133.5l0,10.8c0,5.3-3.5,10.5-10.4,14.5c-5.8,3.4-13.1,5.3-20.7,5.9c-3,0.2-6.1,0.2-9.2,0
			c-7.5-0.6-14.8-2.5-20.5-5.9c-7-4.1-10.6-9.4-10.5-14.7l0.1-10.7c0,5.3,3.5,10.6,10.5,14.7c5.8,3.3,13,5.3,20.5,5.9
			c3,0.2,6.1,0.2,9.2,0c7.6-0.5,14.9-2.5,20.7-5.9C298.1,144,301.5,138.8,301.5,133.5z"/>
		<path class="st0" d="M270.4,153.9v10.8c-3,0.2-6.1,0.2-9.2,0v-10.8C264.3,154.1,267.4,154.1,270.4,153.9z"/>
		<path class="st4" d="M266,165.1c-9.2,0-18.4-2-25.4-6.1c-6.9-4-10.7-9.3-10.7-15l0.1-10.8c0-0.2,0.1-0.3,0.3-0.3h0
			c0.2,0,0.3,0.1,0.3,0.3l0,0v0c0,5.5,3.7,10.6,10.4,14.5c13.9,8,36.3,8,50.1,0c6.6-3.8,10.2-8.8,10.2-14.2v-0.1
			c0-0.2,0.1-0.3,0.3-0.3h0c0.2,0,0.3,0.1,0.3,0.3l0,0v0c0,0,0,0,0,0.1l-0.1,10.7c0,5.6-3.7,10.8-10.5,14.7
			C284.3,163.1,275.1,165.1,266,165.1z M230.5,137l0,7.1c0,5.5,3.7,10.6,10.4,14.5c13.9,8,36.3,8,50.1,0c6.6-3.8,10.2-8.9,10.2-14.3
			l0-7c-1.3,4.1-4.7,8-9.9,11c-13.9,8.1-36.6,8.1-50.7,0C235.3,145.2,231.8,141.3,230.5,137z"/>
		<path class="st6" d="M291,118.8c14,8.1,14,21.1,0.1,29.2c-13.9,8.1-36.4,8.1-50.4,0c-14-8.1-14.1-21.1-0.2-29.2
			C254.5,110.8,277.1,110.8,291,118.8z"/>
		<path class="st4" d="M266,154.3c-9.2,0-18.4-2-25.4-6.1c-6.9-4-10.7-9.3-10.7-14.9c0-5.6,3.7-10.8,10.5-14.8
			c13.9-8.1,36.7-8.1,50.7,0c6.9,4,10.6,9.2,10.7,14.9c0,5.6-3.7,10.9-10.5,14.8C284.3,152.3,275.2,154.3,266,154.3z M265.8,113.1
			c-9.1,0-18.1,2-25,6c-6.6,3.8-10.2,8.9-10.2,14.3c0,5.4,3.7,10.6,10.4,14.4c13.9,8,36.3,8,50.1,0c6.6-3.8,10.2-8.9,10.2-14.3
			c0-5.4-3.7-10.5-10.4-14.4C283.9,115.1,274.8,113.1,265.8,113.1z"/>
		<g>
			<path class="st6" d="M241,133.4c0,3,1.6,6,4.8,8.6c0.7,0.6,1.6,1.2,2.5,1.7c9.7,5.6,25.5,5.6,35.2,0c0.9-0.5,1.6-1,2.3-1.6
				c3.3-2.5,4.9-5.5,4.9-8.6c0-3.7-2.4-7.4-7.3-10.3c-9.8-5.6-25.5-5.6-35.2,0c-1.5,0.9-2.8,1.8-3.8,2.9c-0.4,0.4-0.8,0.8-1.1,1.2
				c-1,1.3-1.7,2.6-2,4c-0.1,0.2-0.1,0.5-0.1,0.7C241,132.4,241,132.9,241,133.4C241,133.3,241,133.4,241,133.4"/>
			<path class="st4" d="M265.9,148.1c-6.4,0-12.9-1.4-17.8-4.2c-0.9-0.5-1.8-1.1-2.5-1.7c-3.2-2.6-5-5.6-5-8.8v-0.1
				c0-0.4,0-0.9,0.1-1.4c0-0.2,0.1-0.5,0.1-0.7c0.4-1.4,1.1-2.8,2.1-4.1c0.4-0.5,0.8-0.9,1.1-1.3c1.1-1.1,2.4-2,3.9-2.9
				c9.8-5.7,25.7-5.7,35.5,0c4.8,2.8,7.5,6.5,7.5,10.5c0,3.2-1.8,6.3-5,8.8c-0.7,0.6-1.5,1.1-2.4,1.6
				C278.8,146.7,272.4,148.1,265.9,148.1z M265.8,119.3c-6.3,0-12.6,1.4-17.5,4.2c-1.5,0.9-2.7,1.8-3.8,2.8
				c-0.4,0.4-0.7,0.8-1.1,1.2c-1,1.2-1.6,2.5-2,3.9c-0.1,0.2-0.1,0.4-0.1,0.7c-0.1,0.4-0.1,0.9-0.1,1.3v0.1c0,3,1.6,5.9,4.7,8.3
				c0.7,0.6,1.6,1.2,2.5,1.7c9.7,5.6,25.3,5.6,34.9,0c0.9-0.5,1.6-1,2.3-1.6c3.1-2.4,4.8-5.3,4.8-8.3c0-3.8-2.5-7.3-7.2-10
				C278.5,120.7,272.1,119.3,265.8,119.3z"/>
			<path class="st4" d="M290.8,133.5c0,3-1.6,6-4.9,8.6c-0.7-0.6-1.6-1.1-2.5-1.7c-9.8-5.6-25.5-5.6-35.2,0c-0.9,0.5-1.6,1-2.3,1.6
				c-3.2-2.5-4.8-5.6-4.8-8.6v-0.1c0-0.4,0-0.9,0.1-1.3c0-0.2,0.1-0.5,0.1-0.7c0.3-1.4,1-2.7,2-4c0.3-0.4,0.7-0.8,1.1-1.2
				c1-1,2.3-2,3.8-2.9c9.7-5.6,25.5-5.6,35.2,0C288.3,126.1,290.8,129.8,290.8,133.5z"/>
			<path class="st4" d="M285.9,142.3c-0.1,0-0.1,0-0.2-0.1c-0.7-0.6-1.5-1.1-2.5-1.7c-9.7-5.6-25.3-5.6-35,0c-0.8,0.5-1.6,1-2.3,1.6
				c-0.1,0.1-0.2,0.1-0.3,0c-3.2-2.6-5-5.6-5-8.8c0-0.5,0-1,0.1-1.5c0-0.2,0.1-0.5,0.1-0.7c0.4-1.4,1.1-2.8,2.1-4.1
				c0.4-0.5,0.8-0.9,1.1-1.3c1.1-1.1,2.4-2,3.9-2.9c9.8-5.7,25.7-5.7,35.5,0c4.8,2.8,7.5,6.5,7.5,10.5c0,3.2-1.8,6.3-5,8.8
				C286,142.3,285.9,142.3,285.9,142.3z M265.7,135.9c6.4,0,12.9,1.4,17.8,4.3c0.9,0.5,1.6,1,2.4,1.6c3-2.4,4.6-5.3,4.6-8.2
				c0,0,0,0,0,0c0-3.8-2.5-7.3-7.2-10c-9.7-5.6-25.4-5.6-35,0c-1.5,0.9-2.7,1.8-3.8,2.8c-0.4,0.4-0.7,0.8-1.1,1.2
				c-1,1.2-1.6,2.5-2,3.9c-0.1,0.2-0.1,0.4-0.1,0.7c-0.1,0.4-0.1,0.9-0.1,1.3c0,3,1.6,5.9,4.6,8.3c0.7-0.5,1.4-1,2.2-1.5
				C252.9,137.3,259.3,135.9,265.7,135.9z"/>
			
				<linearGradient id="SVGID_1_" gradientUnits="userSpaceOnUse" x1="4151.395" y1="-2796.5256" x2="4151.395" y2="-2216.9058" gradientTransform="matrix(0.144 0 0 -0.144 -331.9306 -255.176)">
				<stop  offset="3.300000e-02" style="stop-color:#1FFF8F;stop-opacity:0.9"/>
				<stop  offset="0.121" style="stop-color:#3AFF9C;stop-opacity:0.819"/>
				<stop  offset="0.361" style="stop-color:#7FFFBF;stop-opacity:0.595"/>
				<stop  offset="0.577" style="stop-color:#B6FFDA;stop-opacity:0.394"/>
				<stop  offset="0.763" style="stop-color:#DEFFEE;stop-opacity:0.221"/>
				<stop  offset="0.91" style="stop-color:#F6FFFA;stop-opacity:8.400000e-02"/>
				<stop  offset="1" style="stop-color:#FFFFFF;stop-opacity:0"/>
			</linearGradient>
			<path class="st9" d="M306.5,86.7L290.3,134c0,3.5-2.4,6.8-6.8,9.3c-4.6,2.7-10.9,4.2-17.5,4.2c-6.6,0-12.9-1.5-17.5-4.2
				c-4.4-2.6-6.9-5.9-6.9-9.4h0l-16.2-47.4c-1.4-5.2,1.5-10.5,8.5-14.9c7.8-4.8,19.3-7.6,32-7.6c12.7,0,24.2,2.8,32.1,7.6
				C304.9,76.1,307.9,81.5,306.5,86.7z"/>
			<g>
				<path class="st4" d="M323.7,72.6l0,13.3c0,0.9-1.1,1.7-2.7,2l-12.7,1.7c-0.8,1.7-1.9,3.4-3.3,5.1l5.2-3c0.7-0.4,1-0.9,1-1.4
					l0,13.4c0,0.5-0.4,1-1,1.4l-6.5,3.8c-0.3,0.2-0.7,0.3-1.2,0.4c-1,0.2-2.2,0.2-3.2-0.2l-11.1-4c-3.5,1.2-7.3,2.1-11.2,2.7
					l-2.9,7.4c-0.2,0.5-0.7,0.9-1.4,1.2c-0.6,0.2-1.2,0.4-2,0.4h-9.2c-0.9,0-1.7-0.2-2.3-0.5c-0.1,0-0.2-0.1-0.2-0.1
					c-0.5-0.3-0.8-0.6-0.9-1l-3-7.4c-3.9-0.6-7.6-1.5-11.2-2.7l-11.1,4c-0.2,0.1-0.3,0.1-0.5,0.1c-0.2,0.1-0.5,0.1-0.7,0.1
					c-1.1,0.1-2.3-0.1-3.1-0.5l-6.5-3.8c-0.7-0.4-1.1-0.9-1.1-1.5l0-13.3c0,0.5,0.4,1.1,1.1,1.5l4.7,2.7c-1.3-1.5-2.3-3.1-3.1-4.8
					l-12.8-1.7c-0.7-0.1-1.2-0.3-1.7-0.5c-0.6-0.4-1-0.9-1-1.4v0l0-5.3l0-13.3l0,5.3v0c0,0.5,0.4,1.1,1,1.4c0.5,0.3,1,0.4,1.7,0.5
					l12.8,1.7c1,2.3,2.5,4.4,4.7,6.5l0,12.6l0.2,0.1c0.7,0.4,1.6,0.6,2.5,0.6v0c0.3,0,0.6,0,0.9-0.1c0.3-0.1,0.6-0.1,0.9-0.2l11.1-4
					c3.5,1.2,7.3,2.1,11.2,2.7l3,7.4c0.1,0.4,0.5,0.7,0.9,1c0.1,0,0.1,0.1,0.2,0.1c0.6,0.3,1.4,0.5,2.3,0.5h9.2
					c0.7,0,1.4-0.1,1.9-0.3c0.7-0.3,1.3-0.7,1.5-1.2l3-7.4c3.9-0.6,7.6-1.5,11.2-2.7l11.1,4c0.6,0.2,1.3,0.3,1.9,0.3v0
					c0.4,0,0.9-0.1,1.3-0.1c0.4-0.1,0.8-0.2,1.1-0.4l0,0l0-12.7c2.1-2,3.6-4.2,4.6-6.5l12.7-1.7c1.4-0.2,2.4-0.8,2.6-1.6v0
					C323.7,72.8,323.7,72.7,323.7,72.6z"/>
				<path class="st4" d="M261.3,117c-0.9,0-1.7-0.2-2.3-0.5c-0.1,0-0.1-0.1-0.2-0.1c-0.5-0.3-0.9-0.7-1-1.1l-3-7.2
					c-3.9-0.6-7.6-1.5-11-2.6l-11,4c-0.2,0.1-0.3,0.1-0.5,0.2c-0.2,0.1-0.5,0.1-0.8,0.1c-1.2,0.1-2.4-0.1-3.3-0.6l-6.5-3.8
					c-0.8-0.4-1.2-1-1.2-1.7l0-13.3c0-0.2,0.1-0.3,0.3-0.3l0,0c0.2,0,0.3,0.1,0.3,0.3c0,0.4,0.3,0.9,0.9,1.2l3.4,2
					c-0.8-1.1-1.6-2.3-2.1-3.5l-12.6-1.7c-0.7-0.1-1.3-0.3-1.8-0.6c-0.7-0.4-1.2-1-1.2-1.7l0-5.4l0-13.3c0-0.2,0.1-0.3,0.3-0.3l0,0
					c0.2,0,0.3,0.1,0.3,0.3l0,5.3c0,0.5,0.3,0.9,0.9,1.2c0.4,0.2,1,0.4,1.6,0.5l12.8,1.7c0.1,0,0.2,0.1,0.2,0.2
					c1,2.3,2.6,4.4,4.6,6.4c0.1,0.1,0.1,0.1,0.1,0.2l0,12.4l0.1,0.1c0.6,0.3,1.4,0.5,2.3,0.6c0,0,0.1,0,0.1,0c0.3,0,0.6,0,0.9,0
					c0.3,0,0.6-0.1,0.8-0.2l11.1-4c0.1,0,0.1,0,0.2,0c3.5,1.2,7.2,2.1,11.1,2.7c0.1,0,0.2,0.1,0.2,0.2l3,7.4
					c0.1,0.3,0.4,0.6,0.8,0.8c0.1,0,0.1,0.1,0.1,0.1c0.6,0.3,1.4,0.5,2.2,0.5h9.2c0.7,0,1.3-0.1,1.8-0.3c0.7-0.2,1.1-0.6,1.3-1.1
					l3-7.4c0-0.1,0.1-0.2,0.2-0.2c3.8-0.6,7.6-1.5,11.1-2.7c0.1,0,0.1,0,0.2,0l11.1,4c0.5,0.2,1.1,0.3,1.7,0.3c0,0,0.1,0,0.1,0
					c0.4,0,0.8,0,1.2-0.1c0.4-0.1,0.7-0.2,0.9-0.3l0-12.5c0-0.1,0-0.1,0.1-0.2c2-2,3.5-4.1,4.5-6.4c0-0.1,0.1-0.2,0.2-0.2l12.7-1.7
					c1.2-0.2,2.2-0.7,2.4-1.4c0,0,0,0,0-0.1c0-0.1,0-0.1,0-0.2v0c0-0.2,0.1-0.3,0.3-0.3l0,0c0.2,0,0.3,0.1,0.3,0.3v0l0,0
					c0,0,0,0,0,0l0,13.3c0,1.1-1.2,2-2.9,2.2l-12.6,1.7c-0.6,1.3-1.4,2.6-2.3,3.8l3.8-2.2c0.6-0.3,0.9-0.7,0.9-1.2v0
					c0-0.2,0.1-0.3,0.3-0.3l0,0c0.2,0,0.3,0.1,0.3,0.3c0,0,0,0,0,0l0,0c0,0,0,0,0,0l0,13.3c0,0.6-0.4,1.2-1.2,1.7l-6.5,3.8
					c-0.3,0.2-0.8,0.4-1.2,0.5c-1.1,0.3-2.3,0.2-3.3-0.2l-11-4c-3.5,1.2-7.2,2.1-11,2.6l-2.9,7.2c-0.2,0.6-0.8,1.1-1.6,1.4
					c-0.6,0.2-1.3,0.4-2.1,0.4L261.3,117C261.4,117,261.4,117,261.3,117z M243.8,104.8C243.8,104.8,243.9,104.8,243.8,104.8
					c3.5,1.2,7.3,2.1,11.2,2.7c0.1,0,0.2,0.1,0.2,0.2l3,7.4c0.1,0.3,0.4,0.6,0.8,0.8c0.1,0,0.1,0.1,0.2,0.1c0.6,0.3,1.3,0.5,2.2,0.5
					h9.2c0.7,0,1.3-0.1,1.8-0.3c0.7-0.3,1.1-0.6,1.3-1.1l2.9-7.4c0-0.1,0.1-0.2,0.2-0.2c3.8-0.6,7.6-1.5,11.1-2.7c0.1,0,0.1,0,0.2,0
					l11.1,4c0.9,0.3,2,0.4,3,0.1c0.4-0.1,0.8-0.2,1.1-0.4l6.5-3.8c0.6-0.3,0.9-0.8,0.9-1.2l0-12.1c-0.2,0.2-0.4,0.3-0.6,0.4l-5.2,3
					c-0.1,0.1-0.3,0-0.4-0.1c-0.1-0.1-0.1-0.3,0-0.4c1.4-1.6,2.5-3.2,3.2-5c0-0.1,0.1-0.2,0.2-0.2l12.7-1.7c1.4-0.2,2.4-0.9,2.4-1.7
					l0-12.1c-0.5,0.5-1.4,0.9-2.4,1l-12.6,1.7c-1,2.2-2.5,4.4-4.5,6.3l0,12.6c0,0.1,0,0.1-0.1,0.2c0,0,0,0-0.1,0.1
					c-0.3,0.2-0.8,0.4-1.2,0.5c-0.4,0.1-0.8,0.1-1.2,0.1c-0.1,0-0.1,0-0.2,0c-0.7,0-1.3-0.1-1.9-0.3l-11-3.9
					c-3.5,1.2-7.2,2.1-11,2.6l-2.9,7.2c-0.2,0.6-0.8,1.1-1.6,1.4c-0.6,0.2-1.3,0.4-2,0.4h-9.2c-0.9,0-1.8-0.2-2.4-0.5
					c-0.1,0-0.1-0.1-0.2-0.1c-0.5-0.3-0.9-0.7-1-1.1l-3-7.2c-3.9-0.6-7.6-1.5-11-2.6l-11,4c-0.3,0.1-0.6,0.2-0.9,0.2
					c-0.3,0-0.6,0.1-0.9,0.1c0,0-0.1,0-0.1,0c-1,0-1.9-0.2-2.6-0.6l-0.2-0.1c-0.1-0.1-0.1-0.1-0.1-0.2l0-12.5c-2-2-3.5-4.1-4.6-6.3
					l-12.6-1.7c-0.7-0.1-1.3-0.3-1.8-0.6c-0.3-0.1-0.5-0.3-0.6-0.5l0,6.8l0,5.3c0,0.5,0.3,0.9,0.9,1.2c0.4,0.2,1,0.4,1.6,0.5
					l12.8,1.7c0.1,0,0.2,0.1,0.2,0.2c0.7,1.6,1.8,3.2,3,4.7c0.1,0.1,0.1,0.3,0,0.4c-0.1,0.1-0.2,0.1-0.4,0.1l-4.7-2.7
					c-0.3-0.1-0.5-0.3-0.6-0.5l0,12.1c0,0.4,0.3,0.9,0.9,1.2l6.5,3.8c0.8,0.4,1.9,0.6,3,0.5c0.2,0,0.5,0,0.7-0.1
					c0.2,0,0.3-0.1,0.4-0.1L243.8,104.8C243.7,104.8,243.8,104.8,243.8,104.8z"/>
				<g>
					<path class="st4" d="M311,49.6l0,13.4c0,0.4-0.2,0.7-0.5,1.1l-6.9,6.4l0-13.4l6.9-6.4C310.8,50.3,311,49.9,311,49.6z"/>
					<path class="st4" d="M303.5,70.7c0,0-0.1,0-0.1,0c-0.1,0-0.2-0.1-0.2-0.3l0-13.4c0-0.1,0-0.2,0.1-0.2l6.9-6.4
						c0.3-0.3,0.4-0.6,0.4-0.9v0c0-0.2,0.1-0.3,0.3-0.3l0,0c0.2,0,0.3,0.1,0.3,0.3c0,0,0,0,0,0l0,0c0,0,0,0,0,0l0,13.3
						c0,0.4-0.2,0.9-0.6,1.3l-6.9,6.4C303.7,70.6,303.6,70.7,303.5,70.7z M303.9,57.2l0,12.6l6.4-6c0.3-0.3,0.4-0.6,0.4-0.9l0-12.1
						c0,0,0,0,0,0L303.9,57.2z M228.1,57.1l0,13.4l-6.9-6.4c-0.4-0.3-0.5-0.7-0.5-1.1l0-13.3c0,0.4,0.2,0.7,0.5,1.1L228.1,57.1z"/>
					<path class="st4" d="M228,70.7c-0.1,0-0.1,0-0.2-0.1l-6.9-6.4c-0.4-0.4-0.6-0.8-0.6-1.3l0-13.3c0-0.2,0.1-0.3,0.3-0.3l0,0
						c0.2,0,0.3,0.1,0.3,0.3c0,0.3,0.2,0.6,0.4,0.9l6.9,6.4c0.1,0.1,0.1,0.1,0.1,0.2l0,13.4c0,0.1-0.1,0.2-0.2,0.3
						C228.1,70.7,228.1,70.7,228,70.7z M220.9,50.8l0,12.1c0,0.3,0.1,0.6,0.4,0.9l6.4,6l0-12.6L220.9,50.8
						C220.9,50.8,220.9,50.8,220.9,50.8z"/>
					<g>
						<path class="st4" d="M285.3,70l0,13.3c0-2.9-1.9-5.8-5.7-8c-7.6-4.4-19.9-4.4-27.4,0c-3.7,2.2-5.6,5-5.6,7.9l0-13.3
							c0-2.9,1.9-5.7,5.6-7.9c7.5-4.4,19.8-4.4,27.4,0C283.4,64.2,285.3,67.1,285.3,70z"/>
						<path class="st4" d="M285.2,83.6L285.2,83.6c-0.2,0-0.3-0.1-0.3-0.3l0,0c0-2.9-2-5.7-5.6-7.7c-7.5-4.3-19.7-4.3-27.1,0
							c-3.5,2.1-5.5,4.8-5.5,7.6v0c0,0.2-0.1,0.3-0.3,0.3c0,0,0,0,0,0c-0.2,0-0.3-0.1-0.3-0.3v0c0,0,0,0,0,0l0-13.3
							c0-3.1,2.1-6,5.8-8.1c7.6-4.4,20-4.4,27.7,0c3.8,2.2,5.9,5.1,5.8,8.2l0,0l0,13.3C285.5,83.4,285.4,83.6,285.2,83.6z
							 M265.8,71.8c5,0,10,1.1,13.9,3.3c2.6,1.5,4.4,3.4,5.3,5.5l0-10.6c0-2.9-2-5.7-5.6-7.7c-7.5-4.3-19.7-4.3-27.1,0
							c-3.5,2.1-5.5,4.8-5.5,7.6l0,10.6c0.8-2,2.6-3.9,5.2-5.4C255.8,72.9,260.8,71.8,265.8,71.8z M285.3,70L285.3,70L285.3,70z"/>
					</g>
					<g>
						<path class="st6" d="M310.6,89.2c0.9,0.8,0.7,1.8-0.5,2.5l-6.5,3.8c-1.2,0.7-2.9,0.8-4.3,0.3l-11.1-4
							c-3.5,1.2-7.3,2.1-11.2,2.7l-3,7.4c-0.4,0.9-1.8,1.6-3.4,1.6h-9.2c-1,0-1.9-0.2-2.5-0.6c-0.4-0.3-0.8-0.6-0.9-1l-3-7.4
							c-3.9-0.6-7.6-1.5-11.2-2.7l-11.1,4c-1.4,0.5-3.2,0.4-4.3-0.3l-6.5-3.8c-1.2-0.7-1.4-1.7-0.5-2.5l6.9-6.4
							c-2.1-2-3.6-4.2-4.7-6.5l-12.8-1.7c-0.6-0.1-1.2-0.3-1.7-0.5c-0.6-0.4-1-0.9-1-1.5l0-5.3c0-0.9,1.1-1.8,2.7-2l12.7-1.7
							c1-2.2,2.5-4.4,4.6-6.5l-6.9-6.4c-0.9-0.8-0.7-1.8,0.5-2.5l6.5-3.8c1.2-0.7,2.9-0.8,4.3-0.3l11.1,4c3.5-1.2,7.3-2.1,11.2-2.7
							l3-7.4c0.4-0.9,1.8-1.6,3.4-1.6h9.2c1,0,1.9,0.2,2.5,0.6c0.5,0.3,0.8,0.6,0.9,1l3,7.4c3.9,0.6,7.7,1.5,11.2,2.7l11.1-4
							c1.4-0.5,3.2-0.4,4.3,0.3l6.5,3.8c1.2,0.7,1.4,1.7,0.5,2.5l-6.9,6.4c2.1,2.1,3.7,4.2,4.7,6.5l12.7,1.7
							c0.7,0.1,1.2,0.3,1.7,0.5c0.6,0.4,1,0.9,1,1.4l0,5.3c0,0.9-1.1,1.8-2.7,2l-12.7,1.7c-1,2.3-2.5,4.4-4.6,6.5L310.6,89.2z
							 M252.2,77.9c7.6,4.4,19.9,4.4,27.4,0c7.5-4.4,7.5-11.5-0.1-15.9c-7.6-4.4-19.9-4.4-27.4,0C244.6,66.4,244.6,73.5,252.2,77.9"
							/>
						<path class="st4" d="M261.4,103.7c-1,0-1.9-0.2-2.6-0.6c-0.5-0.3-0.9-0.7-1-1.1l-3-7.2c-3.9-0.6-7.6-1.5-11-2.6l-11,4
							c-1.5,0.5-3.3,0.4-4.6-0.3l-6.5-3.8c-0.7-0.4-1.1-0.9-1.2-1.5c-0.1-0.5,0.1-1,0.6-1.4l6.6-6.2c-1.9-1.9-3.4-4-4.4-6.2
							l-12.6-1.7c-0.7-0.1-1.3-0.3-1.8-0.6c-0.8-0.4-1.2-1.1-1.2-1.7l0-5.3c0-1.1,1.2-2,2.9-2.2l12.5-1.7c1-2.2,2.5-4.3,4.4-6.2
							l-6.7-6.2c-0.5-0.4-0.7-0.9-0.6-1.5c0.1-0.6,0.5-1.1,1.2-1.5l6.5-3.8c1.2-0.7,3.1-0.8,4.6-0.3l11,3.9c3.4-1.1,7.1-2,11-2.6
							l2.9-7.2c0.4-1,1.9-1.7,3.6-1.7c0,0,0,0,0,0h9.2c1,0,1.9,0.2,2.6,0.6c0.5,0.3,0.9,0.7,1,1.1l3,7.2c3.9,0.6,7.6,1.5,11,2.6
							l11-4c1.5-0.5,3.4-0.4,4.6,0.3l6.5,3.8c0.7,0.4,1.1,0.9,1.2,1.5c0.1,0.5-0.2,1-0.6,1.4l-6.6,6.2c1.9,1.9,3.4,4,4.5,6.2L321,65
							c0.7,0.1,1.3,0.3,1.8,0.6c0.7,0.4,1.2,1,1.2,1.7l0,5.3c0,1.1-1.2,2-2.9,2.3l-12.6,1.7c-1,2.2-2.5,4.3-4.4,6.2l6.7,6.2
							c0.5,0.4,0.7,0.9,0.6,1.4c-0.1,0.6-0.5,1.1-1.2,1.5l-6.5,3.8c-1.2,0.7-3.1,0.8-4.6,0.3l-11-4c-3.5,1.2-7.2,2.1-11,2.6
							l-2.9,7.2c-0.4,1-1.9,1.7-3.6,1.7c0,0,0,0,0,0L261.4,103.7C261.5,103.7,261.4,103.7,261.4,103.7z M243.8,91.5
							C243.9,91.5,243.9,91.5,243.8,91.5c3.5,1.2,7.3,2.1,11.2,2.7c0.1,0,0.2,0.1,0.2,0.2l3,7.4c0.1,0.3,0.4,0.6,0.8,0.8
							c0.6,0.4,1.4,0.5,2.3,0.5c0,0,0,0,0.1,0h9.2c0,0,0,0,0,0c1.5,0,2.8-0.6,3.1-1.4l3-7.4c0-0.1,0.1-0.2,0.2-0.2
							c3.8-0.6,7.6-1.5,11.1-2.7c0.1,0,0.1,0,0.2,0l11.1,4c1.3,0.5,3,0.4,4.1-0.3l6.5-3.8c0.5-0.3,0.8-0.7,0.9-1.1
							c0-0.3-0.1-0.7-0.5-1c0,0,0,0,0,0l-6.9-6.4c-0.1-0.1-0.1-0.1-0.1-0.2c0-0.1,0-0.1,0.1-0.2c2-2,3.5-4.1,4.5-6.4
							c0-0.1,0.1-0.2,0.2-0.2l12.7-1.7c1.4-0.2,2.5-0.9,2.4-1.7l0-5.3c0-0.4-0.3-0.9-0.9-1.2c-0.4-0.3-1-0.4-1.6-0.5l-12.7-1.7
							c-0.1,0-0.2-0.1-0.2-0.2c-1-2.3-2.6-4.4-4.6-6.4c-0.1-0.1-0.1-0.1-0.1-0.2c0-0.1,0-0.1,0.1-0.2l6.9-6.4c0.3-0.3,0.5-0.6,0.4-1
							c0-0.4-0.4-0.8-0.9-1.1l-6.5-3.8c-1.1-0.6-2.8-0.7-4.1-0.3l-11.1,4c-0.1,0-0.1,0-0.2,0c-3.4-1.2-7.2-2.1-11.2-2.7
							c-0.1,0-0.2-0.1-0.2-0.2l-3-7.4c-0.1-0.3-0.4-0.6-0.8-0.8c-0.6-0.4-1.5-0.5-2.3-0.5h-9.2c0,0,0,0,0,0c-1.5,0-2.8,0.6-3.1,1.4
							l-3,7.4c0,0.1-0.1,0.2-0.2,0.2c-4,0.6-7.7,1.5-11.1,2.7c-0.1,0-0.1,0-0.2,0l-11.1-4c-1.3-0.5-3-0.4-4.1,0.3l-6.5,3.8
							c-0.5,0.3-0.8,0.7-0.9,1.1c0,0.3,0.1,0.7,0.4,1l6.9,6.4c0.1,0.1,0.1,0.1,0.1,0.2c0,0.1,0,0.1-0.1,0.2c-2,2-3.5,4.2-4.5,6.4
							c0,0.1-0.1,0.2-0.2,0.2l-12.7,1.7c-1.4,0.2-2.5,0.9-2.5,1.7l0,5.3c0,0.4,0.3,0.9,0.9,1.2c0.4,0.2,1,0.4,1.6,0.5l12.8,1.7
							c0.1,0,0.2,0.1,0.2,0.2c1,2.3,2.6,4.4,4.6,6.4c0.1,0.1,0.1,0.1,0.1,0.2c0,0.1,0,0.1-0.1,0.2l-6.9,6.4c-0.3,0.3-0.5,0.6-0.4,1
							c0,0.4,0.4,0.8,0.9,1.1l6.5,3.8c1.1,0.6,2.8,0.8,4.1,0.3L243.8,91.5C243.8,91.5,243.8,91.5,243.8,91.5z M265.9,81.4
							c-5,0-10-1.1-13.8-3.3l0,0c-3.8-2.2-5.9-5.1-5.9-8.2c0-3.1,2-6,5.8-8.2c7.6-4.4,20-4.4,27.7,0c3.8,2.2,5.8,5.1,5.8,8.2
							c0,3.1-2,6-5.8,8.2C276,80.3,270.9,81.4,265.9,81.4z M265.8,59c-4.9,0-9.8,1.1-13.5,3.3c-3.5,2.1-5.5,4.8-5.5,7.7
							c0,2.9,2,5.6,5.6,7.7l0,0c7.5,4.3,19.7,4.3,27.1,0c3.5-2.1,5.5-4.8,5.5-7.7c0-2.9-2-5.6-5.6-7.7C275.7,60,270.7,59,265.8,59z"
							/>
					</g>
				</g>
			</g>
		</g>
	</g>
	<g>
		<path class="st6" d="M83.6,315.6c-2-1.2-2-3.1,0-4.2c2-1.2,5.3-1.2,7.3,0c2,1.2,2,3.1,0,4.2C88.9,316.7,85.6,316.7,83.6,315.6z"/>
		<path class="st0" d="M87.3,316.7c-1.4,0-2.8-0.3-3.8-0.9l0,0c-1.1-0.6-1.7-1.5-1.7-2.4c0-0.9,0.6-1.7,1.6-2.4
			c2.1-1.2,5.5-1.2,7.6,0c1.1,0.6,1.7,1.5,1.7,2.4c0,0.9-0.6,1.7-1.6,2.4C90,316.4,88.7,316.7,87.3,316.7z M83.7,315.3
			c2,1.1,5.1,1.1,7,0c0.9-0.5,1.4-1.2,1.4-1.9c0-0.7-0.5-1.4-1.4-1.9c-2-1.1-5.1-1.1-7,0c-0.9,0.5-1.4,1.2-1.4,1.9
			C82.4,314.1,82.9,314.8,83.7,315.3L83.7,315.3z"/>
		<g>
			<path class="st5" d="M87.2,312.1c0.8,0,1.6,0.2,2.1,0.5c0.4,0.3,0.7,0.6,0.7,0.8c0,0.3-0.2,0.6-0.7,0.8c-0.5,0.3-1.3,0.5-2.1,0.5
				c-0.8,0-1.6-0.2-2.1-0.5c-0.4-0.3-0.7-0.6-0.7-0.9c0-0.3,0.2-0.6,0.7-0.8C85.7,312.3,86.5,312.1,87.2,312.1z"/>
		</g>
		<g>
			<path class="st4" d="M69.4,301.9c0.8,0,1.7,0.2,2.3,0.5c0.5,0.3,0.7,0.6,0.7,0.9c0,0.3-0.3,0.6-0.7,0.9c-0.6,0.3-1.4,0.5-2.2,0.5
				c-0.8,0-1.7-0.2-2.3-0.5c-0.5-0.3-0.7-0.6-0.7-0.9c0-0.3,0.3-0.6,0.7-0.9C67.7,302.1,68.5,301.9,69.4,301.9z"/>
		</g>
	</g>
	<g>
		<path class="st4" d="M108.8,259.5c0.8,0,1.7,0.2,2.3,0.5c0.5,0.3,0.7,0.6,0.7,0.9c0,0.3-0.3,0.6-0.7,0.9c-0.6,0.3-1.4,0.5-2.2,0.5
			c-0.8,0-1.7-0.2-2.3-0.5c-0.5-0.3-0.7-0.6-0.7-0.9c0-0.3,0.3-0.6,0.7-0.9C107.1,259.7,107.9,259.5,108.8,259.5z"/>
	</g>
	<g>
		<path class="st4" d="M103.4,175.2c-0.8,0-1.7,0.2-2.3,0.5c-0.5,0.3-0.7,0.6-0.7,0.9c0,0.3,0.3,0.6,0.7,0.9
			c0.6,0.3,1.4,0.5,2.2,0.5c0.8,0,1.7-0.2,2.3-0.5c0.5-0.3,0.7-0.6,0.7-0.9c0-0.3-0.3-0.6-0.7-0.9
			C105,175.4,104.2,175.2,103.4,175.2z"/>
	</g>
	<g>
		<path class="st4" d="M228.8,170.7c0.8,0,1.7,0.2,2.3,0.5c0.5,0.3,0.7,0.6,0.7,0.9c0,0.3-0.3,0.6-0.7,0.9c-0.6,0.3-1.4,0.5-2.2,0.5
			c-0.8,0-1.7-0.2-2.3-0.5c-0.5-0.3-0.7-0.6-0.7-0.9c0-0.3,0.3-0.6,0.7-0.9C227.1,170.9,227.9,170.7,228.8,170.7z"/>
	</g>
	<g>
		<path class="st6" d="M301.3,214c-2-1.2-2-3.1,0-4.2c2-1.2,5.3-1.2,7.3,0c2,1.2,2,3.1,0,4.2C306.6,215.2,303.3,215.2,301.3,214z"/>
		<path class="st0" d="M304.9,215.1c-1.4,0-2.8-0.3-3.8-0.9c-1.1-0.6-1.7-1.5-1.7-2.4c0-0.9,0.6-1.7,1.6-2.4c2.1-1.2,5.5-1.2,7.6,0
			c1.1,0.6,1.7,1.5,1.7,2.4c0,0.9-0.6,1.7-1.6,2.4C307.7,214.8,306.3,215.1,304.9,215.1z M304.9,209.1c-1.3,0-2.5,0.3-3.5,0.8
			c-0.9,0.5-1.4,1.2-1.4,1.9c0,0.7,0.5,1.4,1.4,1.9l0,0c1.9,1.1,5.1,1.1,7,0c0.9-0.5,1.4-1.2,1.4-1.9c0-0.7-0.5-1.4-1.4-1.9
			C307.4,209.4,306.2,209.1,304.9,209.1z"/>
		<g>
			<path class="st5" d="M304.9,210.5c0.8,0,1.6,0.2,2.1,0.5c0.4,0.3,0.7,0.6,0.7,0.8c0,0.3-0.2,0.6-0.7,0.8
				c-0.5,0.3-1.3,0.5-2.1,0.5s-1.6-0.2-2.1-0.5c-0.4-0.3-0.7-0.6-0.7-0.9c0-0.3,0.2-0.6,0.7-0.8
				C303.3,210.7,304.1,210.5,304.9,210.5z"/>
		</g>
		<g>
			<path class="st4" d="M287,200.3c0.8,0,1.7,0.2,2.3,0.5c0.5,0.3,0.7,0.6,0.7,0.9c0,0.3-0.3,0.6-0.7,0.9c-0.6,0.3-1.4,0.5-2.2,0.5
				c-0.8,0-1.7-0.2-2.3-0.5c-0.5-0.3-0.7-0.6-0.7-0.9c0-0.3,0.3-0.6,0.7-0.9C285.4,200.5,286.2,200.3,287,200.3z"/>
		</g>
	</g>
</g>
</svg>
