<svg id="SvgjsSvg1102" width="360" height="360" xmlns="http://www.w3.org/2000/svg" version="1.1" xmlns:xlink="http://www.w3.org/1999/xlink" xmlns:svgjs="http://svgjs.com/svgjs"><defs id="SvgjsDefs1103"></defs><g id="SvgjsG1104"><svg xmlns="http://www.w3.org/2000/svg" enable-background="new 0 0 2500 2500" viewBox="0 0 2500 2500" width="360" height="360"><path fill="#dbe4df" d="M1609.55 1482.01c-.67 0-1.32-.35-1.68-.97-.54-.94-.23-2.12.7-2.67l247.35-143.75c7.45-4.33 16.69-4.34 24.15-.04l249.02 143.77c.93.54 1.25 1.74.72 2.67-.56.94-1.76 1.23-2.67.72l-249.02-143.77c-6.25-3.6-14.01-3.59-20.23.02l-247.35 143.75C1610.22 1481.92 1609.88 1482.01 1609.55 1482.01zM1385.12 1320.11c-.67 0-1.32-.34-1.68-.97-.54-.93-.23-2.12.7-2.67l345.46-202.39c.91-.56 2.11-.24 2.67.7.54.93.23 2.12-.7 2.67l-345.46 202.39C1385.8 1320.03 1385.46 1320.11 1385.12 1320.11zM595.27 2176.32c-.34 0-.67-.08-.98-.27l-209.56-122.08c-6.24-3.6-9.69-8.52-9.7-13.84-.01-5.29 3.39-10.18 9.56-13.77l471.34-270.43c.93-.53 2.12-.21 2.66.72.53.93.21 2.12-.72 2.66l-471.32 270.43c-4.91 2.86-7.61 6.55-7.61 10.39.01 3.88 2.76 7.59 7.76 10.48l209.57 122.09c.93.54 1.24 1.74.7 2.67C596.6 2175.97 595.94 2176.32 595.27 2176.32z" class="svgShape colordbdee4-0 selectable"></path><path d="M262.51,1825.08c-5.47,22.33,6.69,45.8,36.26,62.99c36.88,21.43,90.89,27.05,136.93,16.9l316.97,184.21
				c-17.74,26.61-8.21,57.91,28.67,79.34c29.57,17.18,70,24.28,108.57,21.18l-72.33-42.03l23.61-50.24l86.7-13.45l72.39,42.07
				c5.47-22.33-6.63-45.84-36.2-63.02c-36.88-21.43-90.89-27.05-136.93-16.83l-317.08-184.27c17.85-26.61,8.32-57.91-28.56-79.34
				c-29.57-17.18-70.06-24.24-108.62-21.15l72.33,42.03l-23.55,50.21l-86.76,13.48L262.51,1825.08z" opacity=".1" fill="#000000" class="svgShape color000000-1 selectable"></path><path fill="#dbe4df" d="M809.22,1283.46c-0.34,0-0.68-0.08-0.98-0.27l-163.18-95.41c-5.68-3.3-9.21-9.43-9.21-16V894.23
				c0-1.07,0.88-1.95,1.95-1.95s1.95,0.88,1.95,1.95v277.55c0,5.19,2.79,10.02,7.27,12.63l163.18,95.41
				c0.93,0.54,1.24,1.74,0.7,2.67C810.54,1283.12,809.89,1283.46,809.22,1283.46z" class="svgShape colordbdee4-2 selectable"></path><path d="M851.13,924.04c13.21,7.63,13.28,20.02,0.16,27.65L341.5,1246.55c-13.17,7.65-34.52,7.63-47.74,0l-9.66-6.18
					c-13.21-7.63-13.32-20-0.16-27.65l509.79-294.87c13.13-7.63,34.52-7.63,47.74,0L851.13,924.04z" opacity=".1" fill="#000000" class="svgShape color000000-3 selectable"></path><path fill="#becdc5" d="M876.8,279.94c-6.86-4.02-16.36-3.43-26.85,2.57L331.68,581.8c-4.82,2.77-9.37,6.46-13.59,10.82
					c-10.62,10.88-18.93,25.86-22.3,40.44c-1.12,4.68-1.72,9.37-1.72,13.85l1.19,554.45c0,11.94,4.29,20.25,11.02,24.21
					l-42.15-24.41c-6.73-3.96-10.95-12.34-11.02-24.28l-1.19-554.52c0-4.42,0.53-9.04,1.65-13.72c3.36-14.58,11.61-29.49,22.3-40.44
					c4.15-4.35,8.84-8.11,13.65-10.88L807.81,258.1c10.49-6.07,19.99-6.6,26.85-2.7L876.8,279.94z" class="svgShape colorbec4cd-4 selectable"></path><path fill="#f0f5f2" d="M318.09,592.62c-10.62,10.88-18.93,25.86-22.3,40.44l-42.22-24.41c3.36-14.58,11.61-29.49,22.3-40.44
						L318.09,592.62z" class="svgShape colorf0f2f5-5 selectable"></path><path fill="#37423c" d="M306.29,1227.52c-0.34,0-0.67-0.08-0.97-0.26l-42.15-24.4c-7.67-4.52-11.92-13.74-11.99-25.96l-1.19-554.52
					c0-4.7,0.57-9.47,1.7-14.19c3.45-14.96,11.76-30.03,22.8-41.34c4.31-4.52,9.18-8.4,14.07-11.22l518.28-299.22
					c10.73-6.21,20.95-7.15,28.78-2.72l42.06,24.49c0.04,0.02,0.08,0.05,0.11,0.07c0.93,0.55,1.24,1.74,0.7,2.67
					c-0.55,0.94-1.74,1.24-2.67,0.7l-0.1-0.05c-6.47-3.74-15.28-2.82-24.8,2.63L332.66,583.49c-4.5,2.59-8.92,6.11-13.17,10.49
					c-10.39,10.66-18.54,25.43-21.8,39.52c-1.1,4.62-1.66,9.13-1.66,13.42l1.19,554.44c0,10.72,3.57,18.72,10.06,22.53
					c0.92,0.55,1.23,1.74,0.69,2.67C307.61,1227.18,306.96,1227.52,306.29,1227.52z M824.79,254.85c-4.87,0-10.33,1.66-16.01,4.95
					L290.5,559.02c-4.58,2.63-9.15,6.28-13.22,10.55c-10.41,10.67-18.56,25.44-21.81,39.53c-1.06,4.43-1.59,8.89-1.59,13.28
					l1.19,554.51c0.05,10.79,3.62,18.82,10.05,22.6l31.59,18.29c-2.22-4.5-3.39-10.05-3.39-16.41l-1.19-554.44
					c0-4.6,0.59-9.41,1.77-14.32c3.4-14.73,11.92-30.19,22.8-41.34c4.49-4.62,9.21-8.38,14.01-11.15l518.28-299.29
					c5.67-3.24,11.19-5.04,16.26-5.36l-31.57-18.38C831.04,255.59,828.04,254.85,824.79,254.85z" class="svgShape color373b42-6 selectable"></path><path fill="#37423c" d="M295.2 1172.06c-.34 0-.67-.08-.98-.27l-42.15-24.47c-.93-.54-1.24-1.73-.7-2.67.53-.93 1.72-1.26 2.67-.7l42.15 24.47c.93.54 1.24 1.73.7 2.67C296.53 1171.71 295.87 1172.06 295.2 1172.06zM822.06 300.55c-.34 0-.67-.08-.97-.27L779 275.87c-.94-.54-1.25-1.73-.71-2.66.53-.94 1.74-1.26 2.66-.71l42.09 24.41c.94.54 1.25 1.73.71 2.66C823.38 300.2 822.73 300.55 822.06 300.55z" class="svgShape color373b42-7 selectable"></path><path fill="#1fff8f" d="M887.82,304.09c-0.07-23.92-17.05-33.54-37.87-21.52L331.7,581.79c-20.86,12.04-37.69,41.19-37.62,65.11
					l0.21,74.82l593.75-342.81L887.82,304.09z" class="svgShape color1fb6ff-8 selectable"></path><path fill="#37423c" d="M294.29,723.67c-0.34,0-0.67-0.08-0.97-0.26c-0.6-0.35-0.97-0.99-0.97-1.68l-0.21-74.81
					c-0.07-24.51,17.25-54.48,38.6-66.81l518.26-299.22c10.74-6.2,20.96-7.14,28.75-2.66c7.74,4.45,12.01,13.64,12.05,25.87
					l0.21,74.81c0,0.7-0.37,1.35-0.97,1.7L295.26,723.41C294.96,723.58,294.62,723.67,294.29,723.67z M866.88,279.33
					c-4.84,0-10.28,1.65-15.95,4.93L332.67,583.48c-20.28,11.7-36.72,40.15-36.65,63.41l0.21,71.45l589.86-340.56l-0.21-73.68
					c-0.03-10.79-3.62-18.78-10.09-22.51C873.15,280.08,870.15,279.33,866.88,279.33z" class="svgShape color373b42-9 selectable"></path><path fill="#ffffff" d="M294.29,721.72l1.01,479.67c0.07,23.97,17.01,33.63,37.87,21.58l518.26-299.23
					c20.81-12.02,37.69-41.19,37.62-65.17l-1.01-479.67L294.29,721.72z" class="svgShape colorffffff-10 selectable"></path><path fill="#37423c" d="M316.2,1230.12c-3.93,0-7.58-0.92-10.81-2.78c-7.73-4.45-12.01-13.67-12.05-25.94l-1.01-479.67
					c0-0.7,0.37-1.35,0.97-1.7l593.75-342.81c0.61-0.35,1.34-0.35,1.95,0c0.6,0.35,0.97,0.99,0.97,1.68l1.01,479.67
					c0.07,24.54-17.25,54.54-38.6,66.86l-518.26,299.22C327.84,1228.28,321.74,1230.12,316.2,1230.12z M296.24,722.84l1.01,478.53
					c0.03,10.84,3.62,18.85,10.1,22.58c6.52,3.75,15.35,2.8,24.85-2.68l518.26-299.22c20.28-11.7,36.72-40.17,36.65-63.47l-1-476.3
					L296.24,722.84z" class="svgShape color373b42-11 selectable"></path><path fill="#ffffff" d="M348.35 612.53c8.79-5.08 15.86-1.05 15.89 9.05.03 10.02-7 22.27-15.79 27.35-8.79 5.08-15.86.96-15.89-9.06C332.53 629.77 339.56 617.61 348.35 612.53zM414.49 574.34c8.72-5.03 15.86-1.05 15.89 9.06.03 10.02-7.07 22.32-15.79 27.35-8.79 5.08-15.86.96-15.89-9.06C398.67 591.59 405.7 579.42 414.49 574.34zM480.64 536.11c8.74-5.04 15.83-1.01 15.85 9.12.03 10.04-7.01 22.33-15.75 27.37-8.81 5.09-15.9.96-15.93-9.08C464.78 553.4 471.82 541.2 480.64 536.11z" class="svgShape colorffffff-12 selectable"></path><g><polygon fill="#1fff8f" points="596.94 581.74 597.48 798.29 328.43 953.64 327.88 737.09" class="svgShape color1fb6ff-14 selectable"></polygon><path fill="#ffffff" d="M422.28 756.05c1.46-.84 2.68-1.01 3.65-.43.99.56 1.47 1.67 1.47 3.35.01 2.54-1.12 5.06-3.42 7.55l-45.91 50.03 46.04-3.06c2.31-.14 3.44 1.07 3.45 3.61 0 1.65-.46 3.33-1.45 5.03-.96 1.67-2.18 2.94-3.64 3.78-.68.39-1.36.65-2.05.75l-51.03 3.13c-3.06.23-4.6-1.46-4.61-4.97l0-1.19c-.01-3.51 1.51-6.94 4.56-10.27l50.89-55.69C420.91 756.97 421.6 756.44 422.28 756.05zM479.48 694.84c1.55-.9 2.8-1.02 3.79-.4.97.61 1.47 1.73 1.47 3.4 0 .38-.04.84-.11 1.31-.09.49-.19.87-.26 1.09l-33.54 133.32c-.33 1.35-.91 2.69-1.78 3.98-.84 1.27-1.9 2.26-3.17 2.99-1.55.9-2.8 1.02-3.79.43-.97-.63-1.47-1.75-1.47-3.43 0-.38.04-.81.11-1.31.09-.49.16-.85.26-1.09l33.52-133.3c.35-1.37.93-2.68 1.8-3.96C477.16 696.59 478.21 695.58 479.48 694.84zM502.87 709.52c.78-.45 1.46-.71 2.07-.76l51.03-3.16c3.06-.2 4.6 1.46 4.61 4.97l0 1.19c.01 3.51-1.51 6.96-4.56 10.27l-50.88 55.72c-.61.65-1.29 1.18-2.07 1.63-1.34.77-2.54.9-3.58.39-1.01-.55-1.54-1.66-1.54-3.31-.01-2.54 1.14-5.07 3.44-7.59l45.91-50.03-46.04 3.06c-2.31.17-3.47-1.03-3.47-3.57 0-1.68.51-3.35 1.52-5.07C500.33 711.52 501.53 710.29 502.87 709.52z" class="svgShape colorffffff-15 selectable"></path><line x1="820.32" x2="855.5" y1="503.22" y2="482.91" fill="#ffffff" class="svgShape colorffffff-16 selectable"></line><path fill="#37423c" d="M820.32,505.17c-0.67,0-1.32-0.35-1.69-0.97c-0.53-0.93-0.21-2.12,0.72-2.67l35.18-20.31
				c0.91-0.53,2.11-0.23,2.67,0.72c0.53,0.93,0.21,2.12-0.72,2.67l-35.18,20.31C820.99,505.09,820.66,505.17,820.32,505.17z" class="svgShape color373b42-17 selectable"></path><path fill="#1fff8f" d="M642.26 607.98c-.67 0-1.32-.35-1.69-.97-.53-.93-.21-2.12.72-2.67l151.9-87.71c.91-.53 2.11-.23 2.67.72.53.93.21 2.12-.72 2.67l-151.9 87.71C642.93 607.89 642.6 607.98 642.26 607.98zM777.76 583.14c-.67 0-1.32-.35-1.69-.97-.53-.93-.21-2.12.72-2.67l81.84-47.25c.91-.53 2.11-.23 2.67.72.53.93.21 2.12-.72 2.67l-81.84 47.25C778.43 583.05 778.1 583.14 777.76 583.14z" class="svgShape color1fb6ff-18 selectable"></path><line x1="642.26" x2="752.19" y1="659.43" y2="595.96" fill="#ffffff" class="svgShape colorffffff-19 selectable"></line><path fill="#37423c" d="M642.26,661.38c-0.67,0-1.32-0.35-1.69-0.97c-0.53-0.93-0.21-2.12,0.72-2.67l109.92-63.47
				c0.91-0.53,2.12-0.23,2.67,0.72c0.53,0.93,0.21,2.12-0.72,2.67l-109.92,63.47C642.93,661.29,642.6,661.38,642.26,661.38z" class="svgShape color373b42-20 selectable"></path><path fill="#1fff8f" d="M549.01,1035.61c-0.67,0-1.32-0.35-1.69-0.97c-0.53-0.93-0.21-2.12,0.72-2.67l173.59-100.22
				c0.91-0.53,2.12-0.23,2.67,0.72c0.53,0.93,0.21,2.12-0.72,2.67l-173.59,100.22C549.68,1035.52,549.35,1035.61,549.01,1035.61z" class="svgShape color1fb6ff-21 selectable"></path><line x1="448.13" x2="516.52" y1="1091.91" y2="1052.42" fill="#ffffff" class="svgShape colorffffff-22 selectable"></line><path fill="#37423c" d="M448.13,1093.86c-0.67,0-1.32-0.35-1.69-0.97c-0.53-0.93-0.21-2.12,0.72-2.67l68.39-39.49
				c0.91-0.53,2.11-0.22,2.67,0.72c0.53,0.93,0.21,2.12-0.72,2.67l-68.39,39.49C448.8,1093.78,448.46,1093.86,448.13,1093.86z" class="svgShape color373b42-23 selectable"></path><line x1="852.78" x2="748.14" y1="858.27" y2="918.69" fill="#ffffff" class="svgShape colorffffff-24 selectable"></line><path fill="#37423c" d="M748.14,920.64c-0.67,0-1.32-0.35-1.69-0.97c-0.53-0.93-0.21-2.12,0.72-2.67l104.64-60.42
				c0.91-0.53,2.11-0.22,2.67,0.72c0.53,0.93,0.21,2.12-0.72,2.67l-104.64,60.42C748.81,920.56,748.48,920.64,748.14,920.64z" class="svgShape color373b42-25 selectable"></path><line x1="780.68" x2="861.9" y1="632.91" y2="586.02" fill="#ffffff" class="svgShape colorffffff-26 selectable"></line><path fill="#37423c" d="M780.68,634.86c-0.67,0-1.32-0.35-1.69-0.97c-0.53-0.93-0.21-2.12,0.72-2.67l81.22-46.89
				c0.91-0.53,2.11-0.22,2.67,0.72c0.53,0.93,0.21,2.12-0.72,2.67l-81.22,46.89C781.35,634.77,781.01,634.86,780.68,634.86z" class="svgShape color373b42-27 selectable"></path><line x1="749.81" x2="697.21" y1="650.73" y2="681.1" fill="#ffffff" class="svgShape colorffffff-28 selectable"></line><path fill="#37423c" d="M697.22,683.05c-0.67,0-1.32-0.35-1.69-0.97c-0.53-0.93-0.21-2.12,0.72-2.67l52.59-30.37
				c0.91-0.53,2.12-0.22,2.67,0.72c0.53,0.93,0.21,2.12-0.72,2.67l-52.59,30.37C697.89,682.97,697.55,683.05,697.22,683.05z" class="svgShape color373b42-29 selectable"></path><path fill="#1fff8f" d="M642.26 714.78c-.67 0-1.32-.35-1.69-.97-.53-.93-.21-2.12.72-2.67l35.81-20.68c.91-.53 2.11-.22 2.67.72.53.93.21 2.12-.72 2.67l-35.81 20.68C642.93 714.7 642.6 714.78 642.26 714.78zM718.89 723.93c-.67 0-1.32-.35-1.69-.97-.53-.93-.21-2.12.72-2.67l80.31-46.37c.91-.53 2.12-.22 2.67.72.53.93.21 2.12-.72 2.67l-80.31 46.37C719.56 723.85 719.22 723.93 718.89 723.93z" class="svgShape color1fb6ff-30 selectable"></path><line x1="853.92" x2="818.34" y1="644.02" y2="664.56" fill="#ffffff" class="svgShape colorffffff-31 selectable"></line><path fill="#37423c" d="M818.34,666.51c-0.67,0-1.32-0.35-1.69-0.97c-0.53-0.93-0.21-2.12,0.72-2.67l35.58-20.54
				c0.91-0.53,2.11-0.22,2.67,0.72c0.53,0.93,0.21,2.12-0.72,2.67l-35.58,20.54C819.01,666.43,818.68,666.51,818.34,666.51z" class="svgShape color373b42-32 selectable"></path><line x1="642.26" x2="700.22" y1="766.23" y2="732.76" fill="#ffffff" class="svgShape colorffffff-33 selectable"></line><path fill="#37423c" d="M642.26,768.17c-0.67,0-1.32-0.35-1.69-0.97c-0.53-0.93-0.21-2.12,0.72-2.67l57.96-33.47
				c0.91-0.53,2.11-0.23,2.67,0.72c0.53,0.93,0.21,2.12-0.72,2.67l-57.96,33.47C642.93,768.09,642.6,768.17,642.26,768.17z" class="svgShape color373b42-34 selectable"></path><line x1="772.13" x2="851.53" y1="744.64" y2="698.8" fill="#ffffff" class="svgShape colorffffff-35 selectable"></line><path fill="#37423c" d="M772.13,746.59c-0.67,0-1.32-0.35-1.69-0.97c-0.53-0.93-0.21-2.12,0.72-2.67l79.41-45.85
				c0.91-0.53,2.12-0.22,2.67,0.72c0.53,0.93,0.21,2.12-0.72,2.67l-79.41,45.85C772.8,746.51,772.46,746.59,772.13,746.59z" class="svgShape color373b42-36 selectable"></path><g><path fill="#1fff8f" d="M634.75,825.91c-0.67,0-1.32-0.35-1.69-0.97c-0.53-0.93-0.21-2.12,0.72-2.67l109.85-63.42
				c0.91-0.53,2.12-0.23,2.67,0.72c0.53,0.93,0.21,2.12-0.72,2.67l-109.85,63.42C635.42,825.82,635.09,825.91,634.75,825.91z" class="svgShape color1fb6ff-38 selectable"></path></g><g><line x1="448.13" x2="601.89" y1="931.71" y2="842.93" fill="#ffffff" class="svgShape colorffffff-40 selectable"></line><path fill="#37423c" d="M448.13,933.66c-0.67,0-1.32-0.35-1.69-0.97c-0.53-0.93-0.21-2.12,0.72-2.67l153.76-88.78
				c0.91-0.53,2.11-0.23,2.67,0.72c0.53,0.93,0.21,2.12-0.72,2.67L449.1,933.4C448.8,933.58,448.46,933.66,448.13,933.66z" class="svgShape color373b42-41 selectable"></path></g><g><path fill="#1fff8f" d="M327.49,1003.31c-0.67,0-1.32-0.35-1.69-0.97c-0.53-0.93-0.21-2.12,0.72-2.67l70.26-40.56
				c0.91-0.53,2.11-0.22,2.67,0.72c0.53,0.93,0.21,2.12-0.72,2.67l-70.26,40.56C328.16,1003.22,327.83,1003.31,327.49,1003.31z" class="svgShape color1fb6ff-43 selectable"></path></g><g><path fill="#1fff8f" d="M713.03,834.12c-0.67,0-1.32-0.35-1.69-0.97c-0.53-0.93-0.21-2.12,0.72-2.67l138.5-79.97
				c0.91-0.53,2.12-0.23,2.67,0.72c0.53,0.93,0.21,2.12-0.72,2.67l-138.5,79.97C713.7,834.03,713.37,834.12,713.03,834.12z" class="svgShape color1fb6ff-45 selectable"></path></g><g><line x1="578.31" x2="684.12" y1="909.95" y2="848.86" fill="#ffffff" class="svgShape colorffffff-47 selectable"></line><path fill="#37423c" d="M578.31,911.9c-0.67,0-1.32-0.35-1.69-0.97c-0.53-0.93-0.21-2.12,0.72-2.67l105.81-61.09
				c0.91-0.53,2.11-0.22,2.67,0.72c0.53,0.93,0.21,2.12-0.72,2.67l-105.81,61.09C578.98,911.82,578.65,911.9,578.31,911.9z" class="svgShape color373b42-48 selectable"></path></g><g><path fill="#1fff8f" d="M448.13,987.06c-0.67,0-1.32-0.35-1.69-0.97c-0.53-0.93-0.21-2.12,0.72-2.67l90.32-52.15
				c0.91-0.53,2.11-0.23,2.67,0.72c0.53,0.93,0.21,2.12-0.72,2.67L449.1,986.8C448.8,986.97,448.46,987.06,448.13,987.06z" class="svgShape color1fb6ff-50 selectable"></path></g><g><line x1="327.5" x2="397.75" y1="1054.76" y2="1014.19" fill="#ffffff" class="svgShape colorffffff-52 selectable"></line><path fill="#37423c" d="M327.49,1056.71c-0.67,0-1.32-0.35-1.69-0.97c-0.53-0.93-0.21-2.12,0.72-2.67l70.26-40.56
				c0.91-0.53,2.11-0.23,2.67,0.72c0.53,0.93,0.21,2.12-0.72,2.67l-70.26,40.56C328.16,1056.62,327.83,1056.71,327.49,1056.71z" class="svgShape color373b42-53 selectable"></path></g><g><line x1="801.85" x2="858.69" y1="834.28" y2="801.46" fill="#ffffff" class="svgShape colorffffff-55 selectable"></line><path fill="#37423c" d="M801.85,836.23c-0.67,0-1.32-0.35-1.69-0.97c-0.53-0.93-0.21-2.12,0.72-2.67l56.84-32.82
				c0.91-0.53,2.11-0.23,2.67,0.72c0.53,0.93,0.21,2.12-0.72,2.67l-56.84,32.82C802.52,836.15,802.18,836.23,801.85,836.23z" class="svgShape color373b42-56 selectable"></path></g><g><path fill="#1fff8f" d="M647.59,925.29c-0.67,0-1.32-0.35-1.69-0.97c-0.53-0.93-0.21-2.12,0.72-2.67l132.87-76.72
				c0.91-0.53,2.11-0.23,2.67,0.72c0.53,0.93,0.21,2.12-0.72,2.67l-132.87,76.72C648.26,925.21,647.93,925.29,647.59,925.29z" class="svgShape color1fb6ff-58 selectable"></path></g><g><line x1="448.13" x2="612.46" y1="1038.51" y2="943.63" fill="#ffffff" class="svgShape colorffffff-60 selectable"></line><path fill="#37423c" d="M448.13,1040.46c-0.67,0-1.32-0.35-1.69-0.97c-0.53-0.93-0.21-2.12,0.72-2.67l164.34-94.89
				c0.91-0.53,2.11-0.23,2.67,0.72c0.53,0.93,0.21,2.12-0.72,2.67L449.1,1040.2C448.8,1040.37,448.46,1040.46,448.13,1040.46z" class="svgShape color373b42-61 selectable"></path></g><g><path fill="#1fff8f" d="M327.49,1110.11c-0.67,0-1.32-0.35-1.69-0.97c-0.53-0.93-0.21-2.12,0.72-2.67l70.26-40.56
				c0.91-0.53,2.11-0.23,2.67,0.72c0.53,0.93,0.21,2.12-0.72,2.67l-70.26,40.56C328.16,1110.03,327.83,1110.11,327.49,1110.11z" class="svgShape color1fb6ff-63 selectable"></path></g><g><line x1="327.5" x2="397.75" y1="1161.56" y2="1120.99" fill="#ffffff" class="svgShape colorffffff-65 selectable"></line><path fill="#37423c" d="M327.49,1163.5c-0.67,0-1.32-0.35-1.69-0.97c-0.53-0.93-0.21-2.12,0.72-2.67l70.26-40.56
				c0.91-0.53,2.11-0.23,2.67,0.72c0.53,0.93,0.21,2.12-0.72,2.67l-70.26,40.56C328.16,1163.42,327.83,1163.5,327.49,1163.5z" class="svgShape color373b42-66 selectable"></path></g></g><g><path fill="#ffffff" d="M1386.67,1493.5c-10.32,5.95-26.58,5.95-36.53,0.12c-10.07-5.83-10.07-15.17,0.24-21.12
			c9.95-5.83,26.09-5.95,36.29,0C1396.62,1478.2,1396.74,1487.67,1386.67,1493.5z" class="svgShape colorffffff-68 selectable"></path></g><g><path d="M610.89,1600.57c-27.83,16.07-27.98,42.08-0.33,58.15L1605.61,2237c27.65,16.07,72.56,16.07,100.39,0l521.09-300.86
						c27.83-16.07,27.98-42.08,0.33-58.15l-995.05-578.28c-27.65-16.07-72.56-16.07-100.39,0L610.89,1600.57z" opacity=".1" fill="#000000" class="svgShape color000000-70 selectable"></path><path fill="#becdc5" d="M2210.04,1848.31c0,10.49-7.02,21.13-20.98,29.16l-521.16,300.85c-8.39,4.85-18.31,8.25-28.87,10.13
						c-6.8,1.3-13.96,1.95-21.05,1.95c-7.09,0-14.11-0.58-20.98-1.81c-10.78-1.88-20.91-5.28-29.38-10.27l-995.07-578.26
						c-13.82-7.96-20.69-18.38-20.69-28.8l-0.29-121.41c0,10.49,6.87,20.98,20.62,28.87l995.07,578.33
						c8.61,5.06,18.81,8.47,29.74,10.28c6.87,1.23,13.89,1.73,20.98,1.73c7.09,0,14.18-0.65,21.05-1.95
						c10.49-1.88,20.33-5.28,28.65-10.06l521.01-300.85c14.04-8.18,20.98-18.67,20.98-29.38L2210.04,1848.31z" class="svgShape colorbec4cd-71 selectable"></path><path fill="#dbe4df" d="M1639.03,2067.1v121.34c-6.8,1.3-13.96,1.95-21.05,1.95c-7.09,0-14.11-0.58-20.98-1.81v-121.27
						c6.87,1.23,13.89,1.73,20.98,1.73C1625.06,2069.06,1632.16,2068.41,1639.03,2067.1z" class="svgShape colordbdee4-72 selectable"></path><path fill="#37423c" d="M1617.51,2192.34c-19.25,0-37.31-4.36-50.9-12.31l-995.06-578.28c-13.94-8.05-21.63-18.88-21.63-30.5
						L549.6,1450c0-0.05,0-0.08,0-0.13l0,0c0-0.01,0-0.01,0-0.01c0-1.07,0.87-1.95,1.95-1.95l0,0c1.07,0,1.95,0.87,1.95,1.94v0.13
						c0.05,10.23,7.04,19.84,19.68,27.08l995.07,578.29c13.04,7.6,30.52,11.78,49.26,11.78c0.16,0,0.31,0,0.47,0
						c18.35-0.06,35.65-4.25,48.71-11.79l521.07-300.86c12.9-7.52,20.01-17.35,20.01-27.65c0-1.07,0.87-1.95,1.95-1.95l0,0
						c1.07,0,1.95,0.87,1.95,1.94l0.32,121.45c0,11.8-7.8,22.78-21.97,30.91l-521.12,300.86c-13.71,7.87-31.78,12.24-50.9,12.31
						C1617.83,2192.34,1617.67,2192.34,1617.51,2192.34z M553.53,1463.98l0.28,107.25c0,10.17,6.99,19.81,19.68,27.14l995.07,578.29
						c13.01,7.6,30.37,11.78,48.94,11.78c0.15,0,0.31,0,0.46,0c18.46-0.06,35.85-4.25,48.97-11.79l521.13-300.86
						c12.91-7.41,20.01-17.18,20.01-27.52l-0.28-107.46c-3.63,6.36-9.76,12.18-18.09,17.03l-521.08,300.87
						c-13.64,7.87-31.62,12.24-50.64,12.31c-0.16,0-0.33,0-0.49,0c-19.42,0-37.6-4.36-51.22-12.31l-995.05-578.28
						C563.12,1475.79,557.13,1470.18,553.53,1463.98z" class="svgShape color373b42-73 selectable"></path><line x1="2156.01" x2="2156.01" y1="1775.06" y2="1896.55" fill="#ffffff" class="svgShape colorffffff-74 selectable"></line><path fill="#37423c" d="M2156.01 1898.51c-1.07 0-1.95-.88-1.95-1.95v-121.5c0-1.07.88-1.95 1.95-1.95s1.95.88 1.95 1.95v121.5C2157.96 1897.63 2157.09 1898.51 2156.01 1898.51zM806.48 1670.67c-.08 5.07-1.81 8.7-4.69 10.36l-10.63 6.18c2.87-1.74 4.61-5.29 4.69-10.36 0-10.21-7.18-22.61-16.03-27.75l-77.44-44.7c-4.54-2.57-8.54-2.8-11.49-1.13l10.63-6.18c2.95-1.67 6.96-1.44 11.49 1.13l77.44 44.7C799.29 1648.06 806.48 1660.46 806.48 1670.67z" class="svgShape color373b42-75 selectable"></path><path fill="#37423c" d="M791.16,1689.16c-0.66,0-1.31-0.34-1.68-0.95c-0.55-0.92-0.25-2.11,0.67-2.67
									c2.35-1.42,3.69-4.52,3.74-8.71c0-9.53-6.75-21.21-15.06-26.04l-77.43-44.7c-3.72-2.1-7.12-2.51-9.57-1.13
									c-0.91,0.5-2.12,0.2-2.64-0.73c-0.53-0.93-0.21-2.12,0.71-2.65l10.64-6.18c3.72-2.09,8.48-1.69,13.43,1.12l77.46,44.71
									c9.53,5.54,17,18.47,17,29.44c0,0.01,0,0.02,0,0.03c-0.08,5.69-2.1,9.96-5.67,12.02l-10.62,6.18
									C791.83,1689.07,791.49,1689.16,791.16,1689.16z M698.95,1600.83c1.43,0.41,2.9,1.04,4.39,1.87l77.45,44.71
									c9.53,5.54,17,18.47,17,29.44c-0.02,1.64-0.21,3.17-0.55,4.56l3.56-2.07c2.34-1.35,3.66-4.43,3.72-8.69
									c-0.01-9.54-6.76-21.23-15.06-26.05l-77.43-44.7c-3.71-2.12-7.12-2.51-9.56-1.13L698.95,1600.83z M806.48,1670.67h0.05
									H806.48z" class="svgShape color373b42-76 selectable"></path><path fill="#ffffff" d="M779.8,1649.12c8.88,5.13,16.05,17.55,16.02,27.75s-7.25,14.32-16.13,9.19l-77.45-44.73
									c-8.88-5.13-16.05-17.55-16.02-27.75s7.24-14.32,16.13-9.19L779.8,1649.12z" class="svgShape colorffffff-77 selectable"></path><path fill="#37423c" d="M786.92 1690.22c-2.56 0-5.35-.83-8.2-2.47l-77.45-44.73c-9.56-5.52-17.03-18.45-17-29.45.02-5.64 2.04-9.91 5.7-12.02 3.67-2.1 8.42-1.7 13.36 1.14l77.45 44.73c9.56 5.52 17.03 18.45 17 29.45-.02 5.64-2.04 9.91-5.7 12.02C790.53 1689.78 788.78 1690.22 786.92 1690.22zM695.14 1604.12c-1.2 0-2.28.27-3.23.81-2.4 1.38-3.72 4.45-3.74 8.65-.03 9.56 6.72 21.25 15.05 26.05l77.45 44.73c3.69 2.13 7.05 2.55 9.47 1.14 2.4-1.38 3.72-4.45 3.74-8.65.03-9.56-6.72-21.25-15.05-26.05l0 0-77.45-44.73C699.13 1604.78 697 1604.12 695.14 1604.12zM572.53 1420.6c-27.83 16.07-27.98 42.08-.33 58.15l995.05 578.28c27.65 16.07 72.56 16.07 100.39 0l521.09-300.86c27.83-16.07 27.98-42.08.33-58.15l-995.05-578.28c-27.65-16.07-72.56-16.07-100.39 0L572.53 1420.6z" class="svgShape color373b42-78 selectable"></path><path fill="#37423c" d="M1617.38,2070.98c-18.53,0-37.04-4.09-51.11-12.27l-995.04-578.27c-13.95-8.11-21.63-19-21.61-30.66
						c0.02-11.74,7.81-22.7,21.95-30.86l0.97,1.69l-0.97-1.69l521.09-300.86c28.33-16.34,74.23-16.34,102.34,0.01l995.05,578.28
						c13.95,8.1,21.63,18.99,21.61,30.66c-0.02,11.74-7.81,22.7-21.95,30.86l-521.09,300.86
						C1654.47,2066.89,1635.91,2070.98,1617.38,2070.98z M1143.89,1109.64c-17.83,0-35.67,3.93-49.29,11.8l-521.09,300.86
						c-12.88,7.43-19.98,17.19-20,27.49c-0.02,10.21,6.97,19.9,19.68,27.29l995.04,578.27c27.05,15.72,71.21,15.72,98.43-0.01
						l521.09-300.86c12.88-7.43,19.98-17.19,20-27.49c0.02-10.21-6.98-19.9-19.68-27.28l-995.05-578.28
						C1179.51,1113.57,1161.72,1109.64,1143.89,1109.64z" class="svgShape color373b42-79 selectable"></path><path fill="#ffffff" d="M588.14,1461.41c0,7.19,5.76,14.7,15.8,20.53l995.05,578.28c11.92,6.93,27.98,10.75,45.27,10.75
						c17.23,0,33.36-3.82,45.4-10.75l521.07-300.86c10.23-5.89,16.13-13.47,16.13-20.79c0-7.19-5.76-14.7-15.8-20.53l-995.05-578.28
						c-11.92-6.93-27.98-10.75-45.27-10.75c-17.23,0-33.36,3.82-45.4,10.75l-521.07,300.86
						C594.03,1446.51,588.14,1454.09,588.14,1461.41z" class="svgShape colorffffff-80 selectable"></path><path fill="#37423c" d="M1644.27,2072.93c-17.62,0-34.05-3.91-46.26-11.03l-995.06-578.28c-10.65-6.18-16.77-14.28-16.77-22.21
						c0-8.03,6.24-16.23,17.1-22.49l521.07-300.86c12.35-7.1,28.82-11.01,46.38-11.01c17.6,0,34.03,3.91,46.25,11.02l995.06,578.28
						c10.65,6.19,16.77,14.29,16.77,22.22c0,8.03-6.24,16.22-17.1,22.48l-521.07,300.86
						C1678.3,2069.01,1661.83,2072.93,1644.27,2072.93z M1170.74,1130.95c-16.89,0-32.67,3.72-44.43,10.49l-521.07,300.86
						c-9.63,5.54-15.15,12.51-15.15,19.11c0,6.5,5.41,13.37,14.83,18.85l995.06,578.28c11.63,6.77,27.36,10.49,44.29,10.49
						c16.89,0,32.67-3.73,44.42-10.5l521.07-300.86c9.63-5.54,15.15-12.5,15.15-19.1c0-6.5-5.41-13.37-14.83-18.85l-995.06-578.28
						C1203.4,1134.67,1187.67,1130.95,1170.74,1130.95z" class="svgShape color373b42-81 selectable"></path><path fill="#37423c" d="M1012.52,1238.4c-7.69,4.5-203.41,118.21-212.49,123.49c-14.52,8.42-38.19,8.42-52.75,0.04l-26.5-15.33
							c9.08-5.28,254.77-148.02,265.12-154.03l26.5,15.29C1026.95,1216.28,1027.03,1229.98,1012.52,1238.4z" class="svgShape color373b42-82 selectable"></path><path fill="#37423c" d="M773.62,1370.13c-9.88,0-19.78-2.17-27.32-6.51l-26.5-15.34c-0.6-0.35-0.97-0.99-0.97-1.69
							c0-0.69,0.37-1.33,0.97-1.68l95.3-55.37c73.53-42.73,163.65-95.08,169.82-98.67c0.61-0.35,1.35-0.36,1.96-0.01l26.5,15.29
							c7.7,4.46,11.94,10.5,11.94,17.02c0,6.48-4.19,12.48-11.81,16.9c-5.91,3.46-124.12,72.15-180.93,105.15l-31.56,18.34
							C793.47,1367.94,783.54,1370.13,773.62,1370.13z M724.66,1346.6l23.59,13.65c14.04,8.09,36.82,8.06,50.8-0.04l31.56-18.34
							c56.81-33.01,175.01-101.69,180.92-105.15c0,0,0,0,0.01,0c6.37-3.7,9.87-8.51,9.87-13.53c0-5.07-3.55-9.92-9.99-13.65
							l-25.52-14.73c-11.6,6.75-97.94,56.9-168.85,98.1L724.66,1346.6z" class="svgShape color373b42-83 selectable"></path><path fill="#ffffff" d="M815.04 1329.5c-6.03 0-11.67-1.34-15.87-3.76-3.78-2.18-5.87-4.92-5.87-7.7 0-2.74 2.03-5.43 5.71-7.58l164.65-95.68c4.18-2.43 9.82-3.77 15.88-3.77 6.07 0 11.74 1.35 15.97 3.79 3.74 2.16 5.8 4.87 5.8 7.63.01 2.76-2.03 5.46-5.74 7.62l-164.65 95.68C826.73 1328.16 821.1 1329.5 815.04 1329.5zM772.35 1354.31c-6.03 0-11.67-1.34-15.87-3.76-3.78-2.18-5.86-4.92-5.87-7.7-.01-2.75 2.03-5.44 5.73-7.6 4.18-2.43 9.82-3.77 15.88-3.77 6.07 0 11.74 1.34 15.97 3.79 3.73 2.16 5.79 4.87 5.8 7.63.01 2.76-2.03 5.46-5.74 7.62C784.06 1352.96 778.41 1354.31 772.35 1354.31z" class="svgShape colorffffff-84 selectable"></path><path fill="#1fff8f" d="M772.33,1349.68c-3.59,0-6.94-0.79-9.43-2.23c-2.25-1.3-3.48-2.92-3.49-4.58c0-1.63,1.21-3.24,3.41-4.52
								c2.49-1.44,5.84-2.24,9.44-2.24c3.61,0,6.98,0.8,9.49,2.25c2.22,1.28,3.44,2.89,3.45,4.54c0,1.64-1.21,3.25-3.41,4.53
								C779.29,1348.88,775.94,1349.68,772.33,1349.68z" class="svgShape color1fb6ff-85 selectable"></path><path fill="#37423c" d="M1717.74,2082.9c5.74-3.31,10.37-0.58,10.39,6.01c0.02,6.68-4.59,14.66-10.33,17.97
								c-5.89,3.4-10.52,0.76-10.54-5.92C1707.25,2094.37,1711.86,2086.3,1717.74,2082.9z" class="svgShape color373b42-86 selectable"></path><g><path fill="#37423c" d="M1760.69,2058.1c5.74-3.31,10.37-0.58,10.39,6.01c0.02,6.68-4.59,14.66-10.33,17.97
								c-5.89,3.4-10.52,0.76-10.54-5.92C1750.2,2069.57,1754.8,2061.5,1760.69,2058.1z" class="svgShape color373b42-88 selectable"></path></g><g><path fill="#37423c" d="M1803.64,2033.31c5.74-3.31,10.37-0.58,10.39,6.01c0.02,6.68-4.59,14.66-10.33,17.97
								c-5.89,3.4-10.52,0.76-10.54-5.92C1793.15,2044.77,1797.75,2036.71,1803.64,2033.31z" class="svgShape color373b42-90 selectable"></path></g><g><path fill="#37423c" d="M2072.9,1877.86c5.74-3.31,10.37-0.58,10.39,6.01c0.02,6.68-4.59,14.66-10.33,17.97
								c-5.89,3.4-10.52,0.76-10.54-5.92C2062.41,1889.32,2067.02,1881.26,2072.9,1877.86z" class="svgShape color373b42-92 selectable"></path></g><g><path fill="#37423c" d="M2115.85,1853.06c5.74-3.31,10.37-0.58,10.39,6.01c0.02,6.68-4.59,14.66-10.33,17.97
								c-5.89,3.4-10.52,0.76-10.54-5.92C2105.36,1864.53,2109.96,1856.46,2115.85,1853.06z" class="svgShape color373b42-94 selectable"></path></g><g><path fill="#37423c" d="M1995.14,1947c5.88-3.39,10.63-11.63,10.61-18.39c-0.02-6.75-4.81-9.48-10.68-6.09l-113.77,65.69
							c-5.88,3.39-10.62,11.63-10.6,18.38c0.02,6.75,4.79,9.49,10.67,6.1L1995.14,1947z" class="svgShape color373b42-96 selectable"></path></g><g><line x1="1502.67" x2="1502.67" y1="2019.49" y2="2140.62" fill="#ffffff" class="svgShape colorffffff-98 selectable"></line><path fill="#37423c" d="M1502.68,2142.57c-1.07,0-1.95-0.88-1.95-1.95V2019.5c0-1.07,0.88-1.95,1.95-1.95
						c1.07,0,1.95,0.88,1.95,1.95v121.13C1504.63,2141.7,1503.75,2142.57,1502.68,2142.57z" class="svgShape color373b42-99 selectable"></path></g><g><line x1="630.6" x2="630.6" y1="1512.69" y2="1633.81" fill="#ffffff" class="svgShape colorffffff-101 selectable"></line><path fill="#37423c" d="M630.59,1635.76c-1.07,0-1.95-0.88-1.95-1.95v-121.13c0-1.07,0.88-1.95,1.95-1.95s1.95,0.88,1.95,1.95
						v121.13C632.54,1634.89,631.67,1635.76,630.59,1635.76z" class="svgShape color373b42-102 selectable"></path></g><g><path fill="#f0f5f2" d="M1267.58,1923.7c9.63,5.56,17.4,19.02,17.37,30.09c-0.03,11.07-7.85,15.52-17.48,9.96l-187.02-108
							c-9.63-5.56-17.4-19.02-17.37-30.09s7.85-15.52,17.48-9.96L1267.58,1923.7z" class="svgShape colorf0f2f5-104 selectable"></path></g><g><path fill="#37423c" d="M1267.36,1934.77c-4.18-2.41-7.55-0.43-7.57,4.37c-0.01,4.86,3.34,10.67,7.52,13.08
								c4.29,2.47,7.66,0.55,7.67-4.31C1274.99,1943.12,1271.64,1937.25,1267.36,1934.77z" class="svgShape color373b42-106 selectable"></path></g><g><polygon fill="#1fff8f" points="716.07 1506.48 920.63 1625.31 1154.36 1490.37 949.21 1371.83" class="svgShape color1fb6ff-108 selectable"></polygon></g><g><polygon fill="#dbe4df" points="1105.74 1261.43 1310.89 1379.89 1546.18 1244.06 1341.62 1125.23" class="svgShape colordbdee4-110 selectable"></polygon></g><g><polygon fill="#dbe4df" points="1173.73 1772.05 1407.68 1636.96 1198.82 1515.6 964.2 1651.06" class="svgShape colordbdee4-112 selectable"></polygon></g><g><polygon fill="#dbe4df" points="1842.18 1416.12 1607.93 1551.43 1817.39 1672.42 2051.04 1537.47" class="svgShape colordbdee4-114 selectable"></polygon><path fill="#f0f5f2" d="M1817.39,1676.91l-217.25-125.48l242.05-139.82l216.63,125.87L1817.39,1676.91z M1615.73,1551.43
						l201.66,116.48l225.88-130.45l-201.09-116.84L1615.73,1551.43z" class="svgShape colorf0f2f5-115 selectable"></path></g><g><polygon fill="#1fff8f" points="1451.4 1661.83 1216.71 1797.37 1425.5 1918.72 1660.86 1782.82" class="svgShape color1fb6ff-117 selectable"></polygon></g><g><polygon fill="#1fff8f" points="1450.59 1611.25 1684.54 1476.16 1475.67 1354.81 1241.05 1490.27" class="svgShape color1fb6ff-119 selectable"></polygon></g><g><path fill="#37423c" d="M1310.89,1381.85c-0.33,0-0.67-0.08-0.97-0.26l-205.15-118.47c-0.6-0.35-0.97-1-0.97-1.69
						c0-0.69,0.37-1.34,0.97-1.69l235.89-136.2c0.61-0.35,1.35-0.34,1.96,0.01l204.56,118.83c0.6,0.35,0.97,0.99,0.97,1.68
						c0,0.7-0.37,1.34-0.97,1.69l-235.29,135.84C1311.56,1381.76,1311.22,1381.85,1310.89,1381.85z M1109.63,1261.43l201.25,116.21
						l231.4-133.59l-200.67-116.57L1109.63,1261.43z" class="svgShape color373b42-121 selectable"></path></g><g><path fill="#37423c" d="M1817.39,1674.36c-0.34,0-0.67-0.08-0.97-0.26l-209.46-120.98c-0.6-0.35-0.97-1-0.97-1.69
						c0-0.69,0.37-1.34,0.97-1.69l234.25-135.31c0.61-0.35,1.35-0.34,1.96,0.01l208.86,121.35c0.6,0.35,0.97,0.99,0.97,1.68
						c0,0.7-0.37,1.34-0.97,1.69l-233.66,134.94C1818.06,1674.28,1817.72,1674.36,1817.39,1674.36z M1611.83,1551.43l205.56,118.73
						l229.76-132.69l-204.97-119.09L1611.83,1551.43z" class="svgShape color373b42-123 selectable"></path></g><g><polygon fill="#ffffff" points="1405.01 1506.44 1430.06 1580.9 1482.92 1550.38 1533.45 1521.2 1470.68 1513.99" class="svgShape colorffffff-125 selectable"></polygon><polygon fill="#ffffff" points="1447.3 1444.48 1470.68 1513.99 1533.45 1521.2 1482.92 1550.38 1629.96 1465.48" class="svgShape colorffffff-126 selectable"></polygon></g><g><path fill="#1fff8f" d="M1079.1,1625.31c-3.37,1.95-3.98,5.01-1.38,7.4l9.63,12.2c1.23,1.55,0.67,3.39-1.46,4.61l-30.33,17.51
						c-4.62,2.67-4.64,6.94-0.09,9.59l85.34,49.59c4.56,2.65,11.97,2.67,16.59,0l158.98-91.79c4.59-2.65,4.61-6.96,0.05-9.61
						l-85.34-49.59c-4.56-2.65-11.97-2.63-16.56,0.02l-30.33,17.51c-2.1,1.21-5.3,1.55-7.97,0.83l-21.03-5.62
						c-4.07-1.53-9.36-1.19-12.8,0.79L1079.1,1625.31z" class="svgShape color1fb6ff-128 selectable"></path><path fill="#ffffff" d="M1145.74,1623.47c-19.69,11.25-19.92,29.62-0.43,41.08c19.45,11.43,51.21,11.58,70.9,0.34
						c19.69-11.25,19.88-29.64,0.43-41.07C1197.15,1612.36,1165.43,1612.23,1145.74,1623.47z" class="svgShape colorffffff-129 selectable"></path><path fill="#1fff8f" d="M1158.46,1630.95c-12.58,7.18-12.73,18.92-0.27,26.24c12.43,7.3,32.72,7.4,45.3,0.21
						c12.58-7.18,12.7-18.94,0.27-26.24C1191.31,1623.85,1171.04,1623.77,1158.46,1630.95z" class="svgShape color1fb6ff-130 selectable"></path></g><g><path fill="#ffffff" d="M1546.83,1765.46c18.69,12.22,12.74,30.48-11.2,37.65c-60.4,18.06-132.68,18.06-193.28,0
					c-3.98-1.19-7.46-2.68-10.43-4.39c-14.97-8.64-16.8-22.98-1.97-32.76c3.67-2.42,9.3-2.68,13.25-0.89
					c13.12,5.96,27.52,10.52,42.58,13.69c1.36,0.29,2.55,0.73,3.51,1.29c2.38,1.37,3.41,3.42,2.4,5.4c-0.45,0.87-0.9,1.74-1.35,2.62
					c-1.02,1.99,0.02,4.06,2.39,5.42c1.15,0.67,2.63,1.16,4.33,1.4c27.53,3.84,56.31,3.84,83.8,0c5.18-0.72,8.18-3.87,6.64-6.83
					c-0.46-0.88-0.92-1.75-1.38-2.62c-1.45-2.78,1.13-5.69,5.84-6.69c15.02-3.17,29.36-7.73,42.42-13.69
					C1538.13,1763.36,1543.47,1763.53,1546.83,1765.46z" class="svgShape colorffffff-132 selectable"></path></g><g><path fill="#1fff8f" d="M1881.25,1503.72c13.46,7.77,22.22,17.24,26.39,27.08l36.31,9.53c0.88,0.23,1.63,0.53,2.24,0.89
						c3.48,2.01,2.75,5.7-2.26,7.02l-36.15,9.36c-4,9.95-12.65,19.41-25.97,27.15c-38.52,22.39-101.26,22.39-140.03,0
						c-38.65-22.32-38.86-58.66-0.34-81.04C1779.86,1481.4,1842.59,1481.4,1881.25,1503.72z" class="svgShape color1fb6ff-134 selectable"></path><path fill="#ffffff" d="M1763.33 1559.47c-5.7 3.29-5.73 8.66-.04 11.97 5.69 3.31 14.96 3.31 20.66.02 5.73-3.31 5.76-8.68.07-11.99C1778.33 1556.16 1769.06 1556.16 1763.33 1559.47zM1800.67 1537.91c-5.73 3.31-5.76 8.68-.07 11.99 5.69 3.31 14.96 3.31 20.69 0 5.73-3.31 5.76-8.68.07-11.99C1815.67 1534.6 1806.4 1534.6 1800.67 1537.91zM1838.01 1516.35c-5.73 3.31-5.76 8.68-.07 11.99 5.69 3.31 14.96 3.31 20.69 0 5.7-3.29 5.73-8.66.04-11.97C1852.98 1513.06 1843.71 1513.06 1838.01 1516.35z" class="svgShape colorffffff-135 selectable"></path></g><g><path fill="#becdc5" d="M1840.32,1873.84c-16.01,0-30.96-3.54-42.1-9.97c-10.03-5.78-15.55-13.04-15.56-20.42
					c-0.01-7.28,5.39-14.44,15.21-20.15c11.1-6.44,26.05-9.99,42.13-9.99c16.1,0,31.16,3.56,42.37,10.04
					c9.9,5.72,15.36,12.91,15.38,20.25c0.01,7.31-5.39,14.49-15.22,20.21C1871.38,1870.28,1856.39,1873.84,1840.32,1873.84z" class="svgShape colorbec4cd-137 selectable"></path><path fill="#37423c" d="M1840.32,1875.79c-16.34,0-31.64-3.63-43.07-10.23c-10.65-6.14-16.52-13.98-16.54-22.1
					c-0.02-8,5.73-15.76,16.17-21.85c11.39-6.62,26.7-10.26,43.11-10.26c16.46,0,31.85,3.66,43.34,10.3
					c10.53,6.08,16.34,13.87,16.36,21.93c0.02,8.04-5.73,15.82-16.19,21.9C1872.06,1872.14,1856.73,1875.79,1840.32,1875.79z
					 M1839.99,1815.26c-15.73,0-30.34,3.46-41.14,9.72c-9.2,5.36-14.25,11.92-14.24,18.47c0.02,6.67,5.19,13.33,14.59,18.73
					c10.84,6.27,25.45,9.72,41.12,9.72c15.73,0,30.37-3.47,41.22-9.77c9.21-5.35,14.27-11.93,14.25-18.52
					c-0.02-6.62-5.13-13.21-14.41-18.56C1870.47,1818.73,1855.77,1815.26,1839.99,1815.26z" class="svgShape color373b42-138 selectable"></path></g></g><g><polygon fill="#f0f5f2" points="363.57 1655.75 363.77 1726.38 436.1 1768.41 435.9 1697.78" class="svgShape colorf0f2f5-140 selectable"></polygon><path fill="#37423c" d="M436.1,1770.37c-0.34,0-0.68-0.09-0.98-0.27l-72.33-42.04c-0.59-0.34-0.97-0.98-0.97-1.68l-0.2-70.63
								c0-0.7,0.37-1.35,0.97-1.7c0.61-0.35,1.35-0.34,1.96,0.01l72.33,42.03c0.59,0.34,0.97,0.98,0.97,1.68l0.2,70.64
								c0,0.7-0.37,1.35-0.97,1.7C436.77,1770.28,436.44,1770.37,436.1,1770.37z M365.72,1725.25l68.43,39.77l-0.19-66.12
								l-68.43-39.76L365.72,1725.25z" class="svgShape color373b42-141 selectable"></path><path fill="#becdc5" d="M509.68,1799.73l-0.2-70.63c0.03,9.21-2.88,18.43-8.73,27.14l0.2,70.63
								C506.8,1818.15,509.71,1808.94,509.68,1799.73z" class="svgShape colorbec4cd-142 selectable"></path><path fill="#37423c" d="M500.95,1828.82c-0.19,0-0.38-0.03-0.56-0.08c-0.82-0.25-1.39-1.01-1.39-1.86l-0.2-70.63
								c0-0.39,0.11-0.77,0.33-1.1c5.6-8.35,8.43-17.11,8.41-26.05l0,0l0,0c0-1.08,0.87-1.96,1.94-1.96c0.01,0,0.01,0,0.01,0
								c1.07,0,1.95,0.87,1.95,1.94l0.2,70.64l0,0c0.02,9.73-3.02,19.23-9.06,28.24C502.2,1828.5,501.59,1828.82,500.95,1828.82z
								 M502.7,1756.82l0.18,62.89c3.24-6.49,4.87-13.18,4.86-19.97l-0.14-51.99C506.29,1750.82,504.66,1753.84,502.7,1756.82z" class="svgShape color373b42-143 selectable"></path><path fill="#becdc5" d="M251.93,1729.99l0.2,70.63c0.05,18.97,12.61,37.92,37.53,52.41c36.88,21.43,90.89,27.05,136.93,16.9
								l-0.2-70.63c-46.05,10.16-100.05,4.54-136.93-16.9C264.54,1767.91,251.99,1748.95,251.93,1729.99z" class="svgShape colorbec4cd-144 selectable"></path><path fill="#37423c" d="M380.67,1876.77c-33.95,0-67.24-7.68-91.98-22.06c-24.77-14.39-38.44-33.6-38.5-54.08l-0.2-70.63
								c0-1.08,0.87-1.96,1.94-1.96c0.01,0,0.01,0,0.01,0c1.07,0,1.95,0.87,1.95,1.94c0.05,19.04,13.04,37.05,36.57,50.73
								c35.29,20.51,88.48,27.06,135.53,16.68c0.58-0.14,1.18,0.01,1.64,0.38c0.46,0.37,0.73,0.93,0.73,1.52l0.2,70.63
								c0,0.92-0.63,1.71-1.53,1.91C411.94,1875.15,396.24,1876.77,380.67,1876.77z M253.94,1748.68l0.14,51.93
								c0.05,19.04,13.04,37.05,36.57,50.73c34.91,20.29,87.35,26.9,133.99,17.01l-0.18-66.66c-47.36,9.85-100.48,3.02-135.97-17.62
								C271.44,1774.17,259.65,1761.98,253.94,1748.68z" class="svgShape color373b42-145 selectable"></path><polygon fill="#becdc5" points="426.4 1799.29 426.6 1869.92 743.57 2054.13 743.37 1983.5" class="svgShape colorbec4cd-146 selectable"></polygon><path fill="#37423c" d="M743.57,2056.08c-0.34,0-0.68-0.09-0.98-0.27L425.62,1871.6c-0.59-0.34-0.97-0.98-0.97-1.68l-0.2-70.63
								c0-0.7,0.37-1.35,0.97-1.7c0.61-0.35,1.35-0.34,1.96,0.01l316.97,184.21c0.59,0.34,0.97,0.98,0.97,1.68l0.2,70.63
								c0,0.7-0.37,1.35-0.97,1.7C744.24,2055.99,743.9,2056.08,743.57,2056.08z M428.55,1868.79l313.06,181.94l-0.19-66.11
								l-313.06-181.94L428.55,1868.79z" class="svgShape color373b42-147 selectable"></path><polygon fill="#f0f5f2" points="831.88 1991.74 832.08 2062.37 918.78 2048.92 918.58 1978.29" class="svgShape colorf0f2f5-148 selectable"></polygon><path fill="#37423c" d="M832.08,2064.32c-0.46,0-0.91-0.16-1.26-0.46c-0.43-0.37-0.69-0.91-0.69-1.48l-0.21-70.63
								c0-0.97,0.7-1.79,1.65-1.93l86.71-13.45c0.58-0.09,1.14,0.08,1.56,0.44c0.43,0.37,0.69,0.91,0.69,1.48l0.2,70.63
								c0,0.97-0.7,1.79-1.65,1.93l-86.7,13.45C832.28,2064.31,832.18,2064.32,832.08,2064.32z M833.83,1993.41l0.19,66.69
								l82.8-12.84l-0.18-66.69L833.83,1993.41z" class="svgShape color373b42-149 selectable"></path><g><polygon fill="#f0f5f2" points="918.58 1978.29 918.78 2048.92 991.17 2090.99 990.97 2020.36" class="svgShape colorf0f2f5-151 selectable"></polygon><path fill="#37423c" d="M991.16,2092.94c-0.34,0-0.68-0.09-0.98-0.27l-72.38-42.06c-0.59-0.34-0.97-0.98-0.97-1.68l-0.2-70.63
								c0-0.7,0.37-1.35,0.97-1.7c0.61-0.35,1.35-0.34,1.96,0.01l72.38,42.06c0.59,0.34,0.97,0.98,0.97,1.68l0.2,70.63
								c0,0.7-0.37,1.35-0.97,1.7C991.83,2092.85,991.5,2092.94,991.16,2092.94z M920.73,2047.8l68.48,39.79l-0.19-66.11
								l-68.48-39.79L920.73,2047.8z" class="svgShape color373b42-152 selectable"></path></g><g><path fill="#ffffff" d="M992.44,2080.38l-0.2-70.63c0.01,3.55-0.42,7.09-1.28,10.61l0.2,70.63
								C992.03,2087.47,992.45,2083.93,992.44,2080.38z" class="svgShape colorffffff-154 selectable"></path><path fill="#37423c" d="M991.16,2092.94c-0.08,0-0.15-0.01-0.24-0.02c-0.97-0.11-1.71-0.94-1.71-1.93l-0.2-70.63
								c0.88-3.81,1.29-7.23,1.28-10.61l0,0l0,0c0-1.08,0.87-1.96,1.94-1.96c0.01,0,0.01,0,0.01,0c1.07,0,1.95,0.87,1.95,1.94
								l0.2,70.63c0.02,3.7-0.43,7.43-1.33,11.09C992.84,2092.34,992.05,2092.94,991.16,2092.94z" class="svgShape color373b42-155 selectable"></path></g><g><polygon fill="#f0f5f2" points="808.27 2041.98 808.47 2112.61 832.08 2062.37 831.88 1991.74" class="svgShape colorf0f2f5-157 selectable"></polygon><path fill="#37423c" d="M808.47,2114.56c-0.14,0-0.28-0.02-0.42-0.05c-0.89-0.2-1.53-0.99-1.53-1.9l-0.21-70.63
								c0-0.29,0.06-0.58,0.18-0.84l23.61-50.24c0.39-0.82,1.29-1.27,2.19-1.07c0.89,0.2,1.53,0.99,1.53,1.9l0.21,70.63
								c0,0.29-0.06,0.58-0.18,0.84l-23.61,50.24C809.91,2114.14,809.22,2114.56,808.47,2114.56z M810.22,2042.42l0.18,61.52
								l19.73-41.99l-0.18-61.52L810.22,2042.42z" class="svgShape color373b42-158 selectable"></path></g><g><path fill="#becdc5" d="M734.71,2010.56l0.2,70.63c0.05,18.94,12.49,37.85,37.32,52.28c29.57,17.18,70,24.28,108.57,21.18
								l-0.2-70.63c-38.56,3.1-79-3.99-108.57-21.18C747.2,2048.4,734.77,2029.5,734.71,2010.56z" class="svgShape colorbec4cd-160 selectable"></path><path fill="#37423c" d="M862.8,2157.32c-34.22,0-66.83-7.8-91.55-22.17c-24.63-14.31-38.23-33.47-38.29-53.96l-0.21-70.63l0,0
								c0-1.08,0.87-1.96,1.94-1.96c0.01,0,0.01,0,0.01,0c1.07,0,1.95,0.87,1.95,1.94c0.05,19.04,12.97,37.01,36.36,50.61
								c28.38,16.49,67.56,24.11,107.42,20.92c0.54-0.09,1.08,0.14,1.48,0.51c0.4,0.37,0.63,0.88,0.63,1.42l0.2,70.63
								c0,1.02-0.78,1.87-1.79,1.95C874.87,2157.08,868.81,2157.32,862.8,2157.32z M736.71,2029.29l0.15,51.89
								c0.05,19.04,12.96,37.01,36.35,50.61c27.95,16.25,66.38,23.86,105.62,21.05l-0.18-66.73c-39.97,2.82-79.05-5-107.6-21.59
								C754.13,2054.68,742.41,2042.55,736.71,2029.29z" class="svgShape color373b42-161 selectable"></path></g><g><path fill="#dbe4df" d="M253.21,1719.4c-5.47,22.33,6.69,45.8,36.26,62.99c36.88,21.43,90.89,27.05,136.93,16.9l316.97,184.21
								c-17.74,26.61-8.21,57.91,28.67,79.34c29.57,17.18,70,24.28,108.57,21.18l-72.33-42.03l23.61-50.24l86.7-13.45l72.39,42.07
								c5.47-22.33-6.63-45.84-36.2-63.02c-36.88-21.43-90.89-27.05-136.93-16.83l-317.08-184.27
								c17.85-26.61,8.32-57.91-28.56-79.34c-29.57-17.18-70.06-24.24-108.62-21.15l72.33,42.03l-23.55,50.21l-86.76,13.48
								L253.21,1719.4z" class="svgShape colordbdee4-163 selectable"></path><path fill="#37423c" d="M862.61,2086.69c-34.22,0-66.83-7.8-91.55-22.17c-20.38-11.84-33.21-26.94-37.09-43.66
								c-2.87-12.38-0.57-25.03,6.66-36.7l-314.55-182.8c-47.76,10.36-101.69,3.59-137.59-17.28
								c-29.13-16.93-43.02-41.28-37.17-65.14c0.15-0.59,0.57-1.09,1.13-1.33c0.56-0.23,1.2-0.19,1.74,0.11l71.78,41.72l85.06-13.21
								l22.36-47.66l-70.79-41.14c-0.73-0.43-1.1-1.28-0.92-2.12c0.19-0.83,0.9-1.44,1.74-1.51c40.72-3.34,80.73,4.52,109.77,21.4
								c20.39,11.85,33.21,26.96,37.07,43.68c2.86,12.37,0.52,25.02-6.75,36.69l314.65,182.86c47.74-10.4,101.66-3.67,137.59,17.22
								c29.1,16.91,42.98,41.27,37.12,65.17c-0.15,0.59-0.57,1.09-1.13,1.33c-0.56,0.23-1.21,0.2-1.74-0.11l-71.78-41.71l-85,13.18
								l-22.41,47.69l70.79,41.13c0.73,0.43,1.1,1.28,0.92,2.12c-0.19,0.83-0.9,1.44-1.74,1.51
								C874.67,2086.44,868.61,2086.69,862.61,2086.69z M426.4,1797.34c0.34,0,0.68,0.09,0.98,0.27l316.97,184.21
								c0.46,0.27,0.79,0.72,0.91,1.24s0.02,1.07-0.27,1.52c-7.49,11.24-9.99,23.48-7.23,35.4c3.63,15.65,15.82,29.89,35.26,41.18
								c26.87,15.62,63.38,23.27,101.08,21.34l-66.81-38.83c-0.87-0.5-1.21-1.6-0.78-2.51l23.61-50.24c0.28-0.59,0.83-1,1.47-1.1
								l86.71-13.45c0.44-0.08,0.88,0.02,1.28,0.24l70.06,40.71c3.94-21.56-8.98-42.68-35.85-58.3
								c-35.31-20.53-88.5-27.05-135.53-16.62c-0.46,0.11-0.97,0.03-1.4-0.22l-317.08-184.27c-0.46-0.27-0.8-0.72-0.91-1.24
								c-0.12-0.53-0.02-1.08,0.27-1.53c7.54-11.22,10.07-23.47,7.32-35.39c-3.61-15.65-15.79-29.89-35.23-41.19
								c-26.85-15.6-63.38-23.23-101.14-21.31l66.81,38.83c0.87,0.5,1.21,1.6,0.78,2.51l-23.55,50.22c-0.27,0.59-0.83,1-1.47,1.1
								l-86.76,13.48c-0.45,0.06-0.89-0.02-1.28-0.24l-70.06-40.72c-3.94,21.53,9.01,42.63,35.9,58.27
								c35.29,20.51,88.48,27.06,135.53,16.68C426.12,1797.35,426.26,1797.34,426.4,1797.34z" class="svgShape color373b42-164 selectable"></path></g><g><path fill="#ffffff" d="M508.75,1803.59c-10.62,6.13-10.68,16.16-0.07,22.33l206.77,120.16c10.61,6.16,27.87,6.13,38.49,0
						c10.73-6.2,10.79-16.16,0.18-22.33l-206.77-120.16c-5.33-3.1-12.27-4.63-19.22-4.63
						C521.07,1798.96,514.11,1800.49,508.75,1803.59z" class="svgShape colorffffff-166 selectable"></path></g></g><g><path fill="#ffffff" d="M863.69 1501.16c-.61.35-1.04.77-1.37 1.29l-18.34 41.77c-1.09 2.49.15 4.8 3.76 6.9l1.18.69c3.61 2.1 7.59 2.83 11.89 2.2l72.16-10.49c.9-.19 1.62-.44 2.23-.79 1.29-.75 1.8-1.7 1.52-2.87-.28-1.16-1.28-2.24-2.99-3.24-2.61-1.52-5.51-2.03-8.78-1.56l-64.81 9.6 16.74-37.53c.84-1.89-.05-3.57-2.66-5.09-1.72-1-3.58-1.58-5.58-1.74C866.63 1500.12 864.98 1500.41 863.69 1501.16zM935.23 1459.85c-1.22.71-1.73 1.66-1.49 2.85.24 1.18 1.24 2.26 2.96 3.26 2.61 1.52 5.51 2.04 8.78 1.56l64.84-9.57-16.78 37.51c-.83 1.89.05 3.57 2.66 5.09 1.72 1 3.58 1.58 5.62 1.72 2.04.15 3.69-.15 4.92-.85.68-.39 1.12-.81 1.37-1.29l18.34-41.77c1.09-2.49-.15-4.8-3.76-6.9l-1.18-.69c-3.61-2.1-7.58-2.82-11.89-2.2l-72.16 10.49C936.63 1459.2 935.92 1459.45 935.23 1459.85zM885.71 1455.07c-1.12.64-1.62 1.43-1.59 2.33.07.91.49 1.79 1.42 2.66l86.43 85.03c.11.19.36.42.75.73.36.29.75.56 1.14.79 1.72 1 3.61 1.6 5.66 1.79 2.08.21 3.8-.08 5.17-.87 1.15-.66 1.66-1.45 1.63-2.35-.03-.89-.49-1.79-1.42-2.66l-86.43-85.03c-.14-.17-.36-.42-.71-.71-.39-.31-.79-.58-1.18-.81-1.72-1-3.61-1.6-5.66-1.79C888.8 1453.99 887.08 1454.28 885.71 1455.07z" class="svgShape colorffffff-168 selectable"></path></g><g><path fill="#1fff8f" d="M1233.24,1245.06c3.87-9.81,13.13-18.95,27.9-27.48c11.37-6.56,24-11.16,37.78-13.74
				c13.78-2.58,27.76-2.7,42.36-0.37c12.38,2.02,23.16,5.71,32.45,11.1c13.3,7.73,20.45,17.3,21.34,28.77
				c0.79,10.18-3.7,18.16-13.69,23.92c-3.19,1.84-6.16,3.07-9.13,3.68c-2.97,0.49-5.83,0.55-8.47,0c-1.69-0.25-4.12-1.17-7.29-2.64
				c0.51,3.74-0.15,7.3-1.75,10.67c-1.5,3.31-4.27,6.13-7.99,8.28c-4.04,2.33-9.34,3.93-15.49,4.78
				c-6.36,0.86-13.14,0.49-20.43-0.92c-7.4-1.47-14.06-3.99-19.97-7.42c-7.28-4.23-12.76-9.51-16.22-15.95
				c-3.56-6.38-4.38-12.27-2.44-17.67c1.83-5.34,5.45-9.51,10.77-12.58c3.93-2.27,8.81-3.86,14.54-4.85
				c5.72-0.86,11.97-0.8,18.96,0.18l-8.32-7.55l12.43-7.18l36.14,32.57c4.95,4.48,7.9,6.93,8.54,7.3c1.27,0.74,2.75,1.1,4.65,1.1
				c1.8-0.06,3.39-0.49,4.67-1.23c2.44-1.41,4.26-4.05,5.55-7.97c1.51-5.15,0.69-10.43-2.35-15.77c-3.04-5.34-7.99-9.94-14.54-13.74
				c-7.6-4.42-16.69-7.48-27.27-9.08c-10.58-1.6-21.81-1.23-33.58,0.92c-11.77,2.27-22.38,6.07-31.84,11.53
				c-10.84,6.26-18.18,13.31-22.04,21.41c-3.96,8.04-3.59,16.26,0.71,24.54c4.51,8.28,12.09,15.52,22.86,21.78
				c11.19,6.5,23.34,10.73,36.36,12.64c13.02,1.78,26.04,1.23,39.3-1.9c13.04-3.13,25.35-7.91,36.72-14.48
				c12.01-6.93,20.09-13.93,24.26-20.98c4.06-7.12,5.37-13.5,3.6-19.2l12.54-7.24c2.52,4.17,3.34,9.32,2.67,15.58
				c-0.78,6.2-3.67,12.39-8.58,18.65c-5.12,6.26-13.1,12.58-24.25,19.02c-10.2,5.89-20.92,10.61-32.17,14.05
				c-11.35,3.5-22.59,5.46-33.92,5.89c-11.23,0.49-21.92-0.31-31.86-2.52c-12.48-2.82-23.79-7.18-33.81-13.01
				c-11.19-6.5-19.62-13.99-24.97-22.51C1231.11,1264.99,1229.58,1254.87,1233.24,1245.06z M1310.58,1239.41
				c-6.56-0.25-12.08,0.98-16.54,3.56c-2.98,1.72-5,3.74-6.07,6.07c-1.18,2.39-1.3,5.28-0.47,8.59c0.83,3.31,2.93,6.75,6.19,10.37
				c3.26,3.62,6.85,6.56,10.75,8.83c6.23,3.62,12.68,5.64,19.13,5.95c6.56,0.25,11.65-0.74,15.48-2.94c2.66-1.53,4.57-3.5,5.86-6.07
				c1.39-2.52,1.83-5.46,1.43-8.65c-0.41-3.31-2.08-6.75-5.02-10.43c-3.16-3.68-6.95-6.87-11.6-9.57
				C1323.48,1241.5,1317.04,1239.6,1310.58,1239.41" class="svgShape color1fb6ff-170 selectable"></path></g><g><path fill="#37423c" d="M2042.8,933.93c96.95,55.97,97.35,146.68,1.04,202.65c-96.32,55.97-252.84,55.97-349.78,0
					s-97.67-146.74-1.35-202.71C1789.02,877.91,1945.85,877.97,2042.8,933.93z" opacity=".1" class="svgShape color373b42-172 selectable"></path><path fill="#becdc5" d="M2093.91,927.23l-0.29,74.78c-0.2,36.46-24.15,72.83-72.05,100.69c-40.28,23.36-91.02,36.95-143.52,40.76
							c-21.12,1.56-42.53,1.56-63.55-0.1c-52.11-3.91-102.46-17.5-142.64-40.66c-48.88-28.25-73.32-65.2-73.22-102.25l0.39-74.58
							c0,36.95,24.44,73.9,73.22,102.05c40.08,23.07,90.33,36.66,142.24,40.66c21.02,1.66,42.43,1.66,63.55,0.1
							c52.69-3.71,103.53-17.3,143.91-40.76C2069.86,1000.06,2093.82,963.69,2093.91,927.23z" class="svgShape colorbec4cd-173 selectable"></path><path fill="#dbe4df" d="M1878.05,1068.68v74.78c-21.12,1.56-42.53,1.56-63.55-0.1v-74.78
						C1835.53,1070.25,1856.94,1070.25,1878.05,1068.68z" class="svgShape colordbdee4-174 selectable"></path><path fill="#37423c" d="M1846.96,1146.48c-63.69,0-127.45-14.03-176.1-42.12c-47.92-27.66-74.24-64.55-74.13-103.88l0.38-74.79
							c0.01-1.07,0.88-1.94,1.95-1.94h0.01c1.07,0.01,1.94,0.88,1.94,1.96l0,0v0.01c-0.11,37.87,25.52,73.55,72.18,100.48
							c96.23,55.56,252.27,55.54,347.83,0c45.51-26.45,70.71-61.45,70.99-98.61v-0.39c0.01-1.07,0.88-1.94,1.95-1.94h0.01
							c1.07,0.01,1.94,0.88,1.94,1.96l0,0v0.01c0,0.12,0,0.25,0,0.37l-0.39,74.41c-0.11,38.74-26,75.09-72.93,102.35
							C1974.27,1132.44,1910.65,1146.48,1846.96,1146.48z M1600.88,951.41l-0.25,49.09c-0.11,37.87,25.52,73.56,72.18,100.48
							c96.2,55.53,252.23,55.56,347.82,0.01c45.68-26.54,70.89-61.69,70.99-99l0.25-48.76c-8.96,28.81-32.67,55.28-68.89,76.33
							c-96.66,56.18-254.44,56.18-351.74,0.02C1633.95,1008.04,1609.73,980.92,1600.88,951.41z" class="svgShape color373b42-175 selectable"></path><path fill="#ffffff" d="M2020.96,825.23c96.95,55.97,97.35,146.68,1.04,202.65c-96.32,55.97-252.83,55.97-349.78,0
							c-96.95-55.97-97.67-146.74-1.35-202.71C1767.18,769.2,1924.02,769.26,2020.96,825.23z" class="svgShape colorffffff-176 selectable"></path><path fill="#37423c" d="M1847.34,1071.69c-63.69,0-127.45-14.03-176.1-42.12c-47.74-27.57-74.08-64.33-74.13-103.51
							c-0.05-38.84,25.79-75.28,72.77-102.58c96.73-56.2,254.66-56.18,352.06,0.05c47.64,27.5,73.92,64.19,73.97,103.3
							c0.05,38.89-25.84,75.36-72.93,102.72C1974.65,1057.65,1911.03,1071.69,1847.34,1071.69z M1845.59,785.19
							c-63.02,0-125.94,13.89-173.74,41.66c-45.73,26.58-70.89,61.81-70.84,99.2c0.05,37.74,25.68,73.31,72.18,100.14
							c96.23,55.56,252.27,55.54,347.83,0c45.83-26.64,71.04-61.91,70.99-99.35c-0.05-37.66-25.63-73.15-72.02-99.93
							C1971.81,799.1,1908.64,785.19,1845.59,785.19z" class="svgShape color373b42-177 selectable"></path><g><path fill="#ffffff" d="M1673.34,926.3c0,20.83,11.24,41.75,33.65,59.44c5.19,4.09,11.01,8.02,17.46,11.71
							c67.62,39.07,177.23,39.07,244.53-0.08c5.98-3.46,11.4-7.08,16.28-10.93c22.65-17.53,33.97-38.52,34.05-59.44
							c0.16-25.79-16.91-51.65-50.95-71.31c-67.78-39.15-177.39-39.15-244.69,0c-10.46,6.05-19.34,12.74-26.58,19.89
							c-2.83,2.75-5.43,5.66-7.78,8.57c-7.08,8.81-11.79,18.16-14.15,27.67c-0.39,1.57-0.71,3.14-0.94,4.72
							c-0.55,3.07-0.86,6.21-0.86,9.28C1673.34,925.99,1673.34,926.14,1673.34,926.3" class="svgShape colorffffff-179 selectable"></path><path fill="#37423c" d="M1846.76,1028.66c-44.61,0-89.24-9.84-123.29-29.51c-6.38-3.66-12.33-7.65-17.69-11.87
							c-22.5-17.76-34.4-38.85-34.4-60.97v-0.47c0-3.09,0.3-6.33,0.9-9.62c0.24-1.57,0.56-3.21,0.97-4.84
							c2.45-9.91,7.33-19.48,14.51-28.42c2.6-3.21,5.27-6.15,7.94-8.74c7.39-7.31,16.47-14.11,26.97-20.19
							c67.76-39.41,178.4-39.41,246.64,0c33.66,19.43,52.1,45.36,51.92,73.01c-0.08,22-12.44,43.65-34.8,60.96
							c-4.84,3.83-10.24,7.45-16.49,11.08C1936.06,1018.79,1891.42,1028.66,1846.76,1028.66z M1845.83,828.29
							c-43.96,0-87.84,9.7-121.19,29.1c-10.22,5.92-19.03,12.5-26.19,19.59c-2.57,2.51-5.14,5.33-7.64,8.41
							c-6.82,8.5-11.45,17.55-13.77,26.92c-0.39,1.52-0.69,3.03-0.91,4.54c-0.56,3.12-0.85,6.13-0.85,8.99v0.47
							c0,20.89,11.38,40.91,32.92,57.91c5.2,4.1,10.99,7.99,17.21,11.55c67.08,38.76,175.91,38.72,242.59-0.07
							c6.09-3.53,11.34-7.05,16.04-10.77c21.4-16.58,33.23-37.14,33.31-57.92c0.16-26.19-17.58-50.91-49.97-69.61
							C1933.79,837.99,1889.78,828.29,1845.83,828.29z" class="svgShape color373b42-180 selectable"></path><path fill="#37423c" d="M2019.3,927.01c-0.08,20.91-11.4,41.9-34.05,59.44c-5.19-4.09-10.93-7.94-17.3-11.64
								c-67.78-39.15-177.39-39.15-244.69,0c-5.97,3.46-11.4,7.15-16.27,10.93c-22.41-17.69-33.65-38.6-33.65-59.44v-0.47
								c0-3.07,0.31-6.21,0.86-9.28c0.24-1.57,0.55-3.15,0.94-4.72c2.36-9.51,7.08-18.87,14.15-27.67c2.36-2.91,4.95-5.82,7.78-8.57
								c7.23-7.15,16.12-13.84,26.58-19.89c67.31-39.15,176.91-39.15,244.69,0C2002.4,875.36,2019.46,901.22,2019.3,927.01z" class="svgShape color373b42-181 selectable"></path><path fill="#37423c" d="M1985.25,988.4c-0.43,0-0.85-0.14-1.21-0.42c-5.1-4.03-10.69-7.78-17.06-11.48
								c-67.16-38.79-176.04-38.79-242.73,0c-5.61,3.24-11.02,6.88-16.06,10.78c-0.71,0.56-1.7,0.55-2.41-0.01
								c-22.5-17.76-34.4-38.85-34.4-60.97c0-3.56,0.3-6.8,0.9-10.1c0.24-1.57,0.56-3.21,0.97-4.84
								c2.45-9.91,7.33-19.48,14.51-28.42c2.61-3.21,5.28-6.15,7.96-8.75c7.37-7.3,16.45-14.09,26.96-20.18
								c67.76-39.41,178.4-39.41,246.64,0c33.66,19.43,52.1,45.36,51.92,73.01c-0.08,22-12.44,43.65-34.8,60.96
								C1986.1,988.26,1985.67,988.4,1985.25,988.4z M1845.43,943.56c44.66,0,89.37,9.85,123.49,29.56
								c6.05,3.5,11.4,7.06,16.32,10.85c20.64-16.4,32.03-36.58,32.1-56.97c0,0,0,0,0-0.01c0.16-26.19-17.58-50.9-49.97-69.6
								c-67.17-38.81-176.05-38.8-242.73-0.01c-10.23,5.92-19.04,12.51-26.19,19.59c-2.57,2.5-5.14,5.32-7.65,8.41
								c-6.82,8.5-11.45,17.55-13.77,26.92c-0.39,1.52-0.69,3.03-0.91,4.54c-0.56,3.12-0.85,6.13-0.85,8.99
								c0,20.96,10.97,40.65,31.73,57.44c4.84-3.66,9.97-7.07,15.28-10.14C1756.17,953.42,1800.77,943.56,1845.43,943.56z" class="svgShape color373b42-182 selectable"></path><linearGradient id="a" x1="2017.337" x2="2017.337" y1="1024.475" y2="444.854" gradientTransform="translate(-171.018)" gradientUnits="userSpaceOnUse"><stop offset=".033" stop-color="#1fff8f" stop-opacity=".9" class="svgShape stopColor1fb6ff-184"></stop><stop offset=".121" stop-color="#3aff9c" stop-opacity=".819" class="svgShape stopColor3abfff-185"></stop><stop offset=".361" stop-color="#7fffbf" stop-opacity=".595" class="svgShape stopColor7fd5ff-186"></stop><stop offset=".577" stop-color="#b6ffda" stop-opacity=".394" class="svgShape stopColorb6e7ff-187"></stop><stop offset=".763" stop-color="#deffee" stop-opacity=".221" class="svgShape stopColordef4ff-188"></stop><stop offset=".91" stop-color="#f6fffa" stop-opacity=".084" class="svgShape stopColorf6fcff-189"></stop><stop offset="1" stop-color="#ffffff" stop-opacity="0" class="svgShape stopColorffffff-190"></stop></linearGradient><path fill="url(#a)" d="M2128.16,602.03l-112.38,328.53c0.04,24.11-16.74,47.17-47.25,64.87
						c-32.25,18.76-75.37,29.04-121.45,29.04c-46.12,0-89.41-10.33-121.87-29.04c-30.86-17.83-47.93-40.93-48.1-65.12h-0.08
						l-112.51-329.04c-9.74-36.12,10.2-73.09,58.76-103.31c54.13-33.68,133.92-53.11,222.11-53.11
						c88.19,0,168.24,19.35,222.83,53.11C2117.53,528.4,2137.89,565.66,2128.16,602.03z" class="svgShape colorgradient-191 selectable"></path><g><path fill="#37423c" d="M2248.06,504.23l-0.27,92.63c0,6.51-7.69,12.03-18.63,13.57l-88.38,12.03
							c-5.34,12.12-12.85,23.88-22.8,35.19l35.82-20.8c4.61-2.71,7.06-6.24,7.06-9.86l-0.27,92.72c0,3.62-2.44,7.15-7.06,9.86
							l-44.96,26.14c-2.35,1.36-5.07,2.35-8.05,3.08c-7.06,1.72-15.2,1.45-22.07-1.09l-77.34-27.68
							c-24.52,8.41-50.66,14.74-77.53,18.63l-20.44,51.2c-1.45,3.53-5.16,6.51-10.04,8.41c-3.89,1.63-8.59,2.44-13.57,2.44h-63.96
							c-5.97,0.09-11.58-1.08-15.83-3.35c-0.54-0.18-1.09-0.45-1.54-0.72c-3.16-1.81-5.43-4.07-6.42-6.69l-21.08-51.29
							c-26.96-3.98-53.1-10.13-77.71-18.63l-77.07,27.77c-1.09,0.36-2.17,0.72-3.35,0.99c-1.63,0.36-3.26,0.54-4.97,0.72
							c-7.69,0.81-15.92-0.45-21.71-3.8l-45.32-26.23c-4.79-2.71-7.33-6.42-7.33-10.13l0.27-92.63c0,3.71,2.53,7.33,7.33,10.13
							l32.66,18.82c-9.23-10.68-16.28-21.8-21.35-33.2l-88.65-12.03c-4.52-0.63-8.5-1.9-11.67-3.71c-4.34-2.53-7.06-6.06-7.06-9.86
							v-0.27l-0.18-37l0.27-92.62l0.18,37v0.18c0,3.8,2.71,7.33,7.06,9.86c3.17,1.81,7.15,3.08,11.67,3.71l88.65,12.03
							c6.97,15.65,17.64,30.76,32.3,44.96l-0.27,87.29l1.72,0.99c4.7,2.71,11.04,4.16,17.37,4.16v-0.18c2.17,0,4.34-0.09,6.51-0.36
							c2.08-0.36,4.25-0.81,6.15-1.54l77.07-27.68c24.61,8.41,50.75,14.56,77.71,18.54l21.08,51.29c1,2.62,3.26,4.88,6.42,6.69
							c0.45,0.27,0.81,0.45,1.27,0.63c4.34,2.26,10.04,3.53,16.1,3.44h63.87c4.89,0,9.5-0.81,13.39-2.35
							c5.07-1.81,8.77-4.88,10.22-8.41l20.54-51.2c26.87-3.98,53.01-10.31,77.53-18.63l77.25,27.59c4.16,1.54,8.78,2.26,13.39,2.17
							v-0.18c3.08,0,6.15-0.36,8.96-1c2.89-0.63,5.61-1.63,7.87-2.99l0.09-0.09l0.27-88.19c14.38-14.2,24.97-29.31,31.84-44.96
							l88.38-12.03c9.59-1.27,16.64-5.7,18.27-11.13v-0.09C2247.97,505.77,2248.06,505.05,2248.06,504.23z" class="svgShape color373b42-193 selectable"></path><path fill="#37423c" d="M1814.9,812.65c-6.03,0-11.73-1.26-16.08-3.59c-0.35-0.09-1.04-0.41-1.64-0.78
							c-3.65-2.08-6.1-4.67-7.23-7.67l-20.64-50.21c-27-4.05-52.67-10.22-76.31-18.34l-76.42,27.54c-1.24,0.41-2.36,0.77-3.57,1.05
							c-1.71,0.39-3.42,0.57-5.21,0.77c-8.41,0.87-16.98-0.63-22.9-4.05l-45.32-26.23c-5.27-2.98-8.3-7.29-8.3-11.82l0.27-92.63
							c0-1.07,0.88-1.94,1.95-1.94l0,0c1.08,0,1.95,0.88,1.95,1.95c0,3.05,2.26,6.05,6.36,8.44l23.63,13.61
							c-5.89-7.86-10.79-16.07-14.64-24.51l-87.58-11.89c-4.8-0.67-8.95-2-12.38-3.95c-5.11-2.98-8.03-7.19-8.03-11.55l-0.18-37.26
							l0.27-92.64c0-1.07,0.88-1.94,1.95-1.94l0,0c1.07,0,1.94,0.87,1.95,1.94l0.18,36.99c0,3.13,2.22,6.11,6.09,8.37
							c2.93,1.67,6.72,2.87,10.95,3.46l88.65,12.03c0.67,0.09,1.25,0.53,1.52,1.14c7,15.72,17.73,30.64,31.87,44.34
							c0.38,0.37,0.59,0.88,0.59,1.41l-0.27,86.16l0.75,0.43c4.12,2.38,9.78,3.79,15.65,3.9c0.23-0.11,0.48-0.18,0.75-0.18
							c2.34,0,4.39-0.11,6.27-0.34c1.75-0.31,3.88-0.73,5.7-1.42l77.11-27.69c0.41-0.15,0.87-0.14,1.29-0.01
							c24.05,8.22,50.09,14.43,77.36,18.46c0.69,0.1,1.26,0.55,1.52,1.19l21.08,51.28c0.81,2.15,2.74,4.12,5.59,5.74
							c0.39,0.24,0.66,0.37,1.01,0.5c4.36,2.25,9.62,3.32,15.37,3.31h63.89c4.62,0,9-0.77,12.67-2.22c4.58-1.64,7.9-4.31,9.14-7.34
							l20.52-51.18c0.26-0.65,0.84-1.1,1.52-1.2c26.51-3.93,52.48-10.17,77.2-18.55c0.4-0.13,0.86-0.14,1.28,0.01l77.25,27.59
							c3.67,1.36,7.78,2.06,11.95,2.06c0.24-0.12,0.5-0.19,0.78-0.19c2.86,0,5.8-0.33,8.53-0.95c2.45-0.53,4.61-1.29,6.44-2.27
							l0.27-87.1c0-0.52,0.21-1.01,0.58-1.38c14-13.81,24.56-28.73,31.43-44.35c0.27-0.62,0.85-1.06,1.52-1.15l88.38-12.03
							c8.47-1.12,15.11-4.96,16.62-9.59c0.02-0.14,0.05-0.27,0.1-0.38c0.16-0.43,0.23-0.88,0.24-1.51v-0.07
							c0-1.07,0.88-1.94,1.95-1.94l0,0c1.08,0,1.95,0.88,1.95,1.95v0.01l0,0c0,0.02,0,0.04,0,0.05l-0.27,92.57
							c0,7.55-8.16,13.78-20.31,15.5l-87.32,11.88c-4.1,9.09-9.4,17.9-15.8,26.31l26.51-15.4c3.91-2.3,6.07-5.19,6.08-8.14v-0.05
							c0-1.07,0.88-1.94,1.95-1.94l0,0c1.08,0,1.95,0.88,1.95,1.95c0,0,0,0,0,0.01l0,0c0,0.02,0,0.03,0,0.05l-0.27,92.67
							c0,4.39-2.85,8.5-8.02,11.54l-44.96,26.14c-2.41,1.4-5.22,2.47-8.58,3.29c-7.68,1.87-16.14,1.44-23.21-1.16l-76.68-27.44
							c-24.37,8.32-49.97,14.48-76.12,18.34l-20.03,50.15c-1.63,3.97-5.59,7.34-11.15,9.51c-4.01,1.68-8.96,2.57-14.28,2.57h-63.96
							C1815.34,812.64,1815.12,812.65,1814.9,812.65z M1692.98,728.06c0.21,0,0.43,0.04,0.64,0.11
							c23.91,8.25,49.93,14.5,77.35,18.55c0.69,0.1,1.26,0.55,1.52,1.19l21.08,51.28c0.81,2.15,2.74,4.12,5.59,5.74
							c0.4,0.24,0.82,0.44,1.2,0.56c4.23,2.22,9.27,3.27,15.18,3.25h63.99c4.8,0,9.24-0.79,12.82-2.29c4.54-1.77,7.8-4.44,8.99-7.36
							l20.44-51.18c0.26-0.65,0.85-1.1,1.53-1.2c26.53-3.85,52.49-10.08,77.17-18.55c0.42-0.14,0.87-0.14,1.29,0.01l77.34,27.67
							c6.3,2.32,14.12,2.71,20.96,1.03c3-0.72,5.46-1.66,7.55-2.87l44.95-26.13c3.93-2.31,6.09-5.22,6.09-8.18l0.24-84.26
							c-1.13,1.11-2.51,2.15-4.09,3.08l-35.83,20.81c-0.84,0.49-1.88,0.3-2.49-0.45c-0.6-0.73-0.59-1.8,0.05-2.52
							c9.56-10.87,17.13-22.53,22.48-34.68c0.27-0.62,0.85-1.06,1.52-1.15l88.38-12.03c9.82-1.38,16.95-6.27,16.95-11.64l0.25-84.23
							c-3.61,3.53-9.45,6.1-16.41,7.02l-87.29,11.88c-6.98,15.5-17.48,30.28-31.24,43.98l-0.27,87.39c0,0.51-0.21,1.01-0.57,1.37
							c-0.11,0.11-0.33,0.3-0.46,0.38c-2.37,1.43-5.22,2.51-8.45,3.22c-2.75,0.62-5.7,0.98-8.6,1.04c-0.46,0.23-1.01,0.2-1.55,0.2
							c-4.63,0-9.21-0.79-13.3-2.3l-76.59-27.35c-24.4,8.23-50,14.39-76.12,18.33l-20.11,50.16c-1.68,4.07-5.82,7.53-11.38,9.53
							c-4.06,1.61-8.93,2.47-14.04,2.47h-63.86c-6.35,0.07-12.3-1.21-17-3.66c-0.37-0.13-0.82-0.36-1.38-0.69
							c-3.65-2.08-6.1-4.67-7.23-7.67l-20.64-50.21c-26.86-4.04-52.53-10.17-76.31-18.24l-76.43,27.45
							c-2.09,0.79-4.45,1.26-6.48,1.62c-1.92,0.24-3.89,0.36-6.08,0.38c-0.24,0.12-0.49,0.19-0.77,0.19
							c-6.78,0-13.48-1.61-18.34-4.42l-1.72-0.99c-0.6-0.35-0.97-1-0.97-1.7l0.27-86.46c-13.92-13.6-24.56-28.39-31.68-43.98
							l-87.58-11.89c-4.79-0.67-8.95-1.99-12.37-3.95c-1.75-1.02-3.24-2.19-4.45-3.45l-0.14,47.36l0.18,36.98
							c0,3.22,2.22,6.2,6.08,8.46c2.93,1.67,6.72,2.87,10.96,3.46l88.64,12.03c0.67,0.09,1.25,0.53,1.52,1.14
							c5.08,11.43,12.16,22.43,21.05,32.71c0.62,0.72,0.63,1.78,0.02,2.51c-0.61,0.75-1.65,0.91-2.47,0.45l-32.66-18.82
							c-1.74-1.01-3.21-2.14-4.42-3.35l-0.25,84.16c0,3.07,2.31,6.14,6.34,8.42l45.34,26.24c5.24,3.03,12.94,4.37,20.54,3.55
							c1.64-0.17,3.19-0.34,4.75-0.69c1.08-0.25,2.09-0.59,3.1-0.91l77.08-27.78C1692.53,728.1,1692.76,728.06,1692.98,728.06z" class="svgShape color373b42-194 selectable"></path><g><path fill="#37423c" d="M2159.41,344.13l-0.27,92.72c0,2.53-1.18,5.07-3.62,7.42l-47.58,44.59l0.27-92.72l47.58-44.59
										C2158.23,349.29,2159.41,346.66,2159.41,344.13z" class="svgShape color373b42-196 selectable"></path><path fill="#37423c" d="M2107.93 490.8c-.27 0-.53-.05-.78-.16-.72-.31-1.17-1.02-1.17-1.8l.27-92.72c0-.53.22-1.05.62-1.42l47.58-44.59c1.95-1.8 2.98-3.86 3-5.95v-.05c0-1.07.88-1.94 1.95-1.94l0 0c1.08 0 1.95.88 1.95 1.95 0 0 0 0 0 .01l0 0c0 .02 0 .03 0 .05l-.27 92.67c0 3.11-1.46 6.15-4.22 8.81l-47.61 44.61C2108.9 490.62 2108.42 490.8 2107.93 490.8zM2110.16 396.98l-.26 87.36 44.29-41.51c1.99-1.91 3.01-3.94 3.01-5.99l.24-84.17c-.11.1-.21.21-.32.3L2110.16 396.98zM1583.71 396.23l-.27 92.72-48.04-44.68c-2.53-2.35-3.71-4.98-3.71-7.6l.27-92.63c0 2.53 1.18 5.16 3.71 7.51L1583.71 396.23z" class="svgShape color373b42-197 selectable"></path><path fill="#37423c" d="M1583.44,490.89c-0.48,0-0.96-0.18-1.32-0.53l-48.04-44.68c-2.83-2.63-4.33-5.76-4.33-9.02l0.27-92.63
										c0-1.07,0.88-1.94,1.95-1.94l0,0c1.08,0,1.95,0.88,1.95,1.95c0,2.1,1.07,4.2,3.08,6.08l48.03,44.69
										c0.4,0.37,0.62,0.88,0.62,1.43l-0.27,92.72c0,0.77-0.46,1.47-1.17,1.78C1583.96,490.84,1583.7,490.89,1583.44,490.89z
										 M1533.89,352.54l-0.25,84.13c0,2.19,1.04,4.26,3.08,6.17l44.78,41.64l0.25-87.41l-47.41-44.1
										C1534.19,352.83,1534.03,352.68,1533.89,352.54z" class="svgShape color373b42-198 selectable"></path><g><path fill="#37423c" d="M1981.02,485.79l-0.3,92.63c0.06-20.06-13.17-40.14-39.64-55.43c-52.75-30.45-137.98-30.45-190.39,0
										c-26.04,15.13-39.07,34.93-39.13,54.75l0.3-92.63c0.06-19.83,13.09-39.62,39.13-54.75c52.41-30.46,137.64-30.46,190.39,0
										C1967.85,445.64,1981.07,465.72,1981.02,485.79z" class="svgShape color373b42-200 selectable"></path><path fill="#37423c" d="M1980.72,580.37C1980.72,580.37,1980.72,580.37,1980.72,580.37c-1.08,0-1.95-0.88-1.95-1.96l0,0
										c0.05-20.22-13.68-39.31-38.67-53.73c-52.13-30.09-136.65-30.1-188.43-0.01c-24.53,14.25-38.08,33.08-38.16,53.01v0.06
										c0,1.07-0.88,1.94-1.95,1.94c0,0,0,0-0.01,0c-1.07,0-1.94-0.88-1.94-1.96v-0.02c0-0.01,0-0.02,0-0.02l0.3-92.59
										c0.06-21.4,14.29-41.43,40.09-56.42c52.85-30.71,139.13-30.73,192.35-0.02c26.26,15.15,40.69,35.45,40.62,57.12l0,0
										l-0.3,92.63C1982.67,579.5,1981.79,580.37,1980.72,580.37z M1845.75,498.27c34.83,0,69.7,7.68,96.29,23.03
										c18.32,10.58,30.88,23.66,36.78,37.97l0.24-73.49c0.05-20.22-13.68-39.31-38.67-53.73c-52.11-30.09-136.65-30.09-188.43,0
										c-24.55,14.27-38.1,33.12-38.16,53.07l-0.24,73.46c5.89-14.03,18.24-26.87,36.14-37.27
										C1776.13,505.95,1810.92,498.27,1845.75,498.27z M1981.02,485.79h0.05H1981.02z" class="svgShape color373b42-201 selectable"></path></g><g><path fill="#ffffff" d="M2157.09,619.44c6.13,5.57,4.72,12.75-3.32,17.42l-44.93,26.11c-8.04,4.67-20.44,5.51-30.18,2.04
										l-77.28-27.66c-24.56,8.38-50.68,14.67-77.54,18.62l-20.49,51.2c-2.55,6.41-12.34,10.9-23.61,10.84l-63.89,0
										c-6.71,0.07-12.92-1.48-17.4-4.07c-3.12-1.8-5.4-4.1-6.43-6.71l-21.07-51.32c-26.9-3.95-53.1-10.12-77.64-18.56
										l-77.07,27.73c-9.7,3.47-22.11,2.51-30.1-2.1l-45.33-26.17c-7.99-4.61-9.68-11.8-3.72-17.42l47.62-44.73
										c-14.66-14.19-25.29-29.28-32.3-44.91l-88.67-12.04c-4.5-0.59-8.48-1.9-11.6-3.71c-4.48-2.59-7.19-6.18-7.09-10.07
										l-0.21-37.01c-0.14-6.53,7.58-12.22,18.74-13.65l88.22-12.1c6.84-15.51,17.51-30.72,31.9-44.97l-48.02-44.67
										c-6.03-5.63-4.62-12.81,3.42-17.48l44.93-26.11c8.04-4.67,20.44-5.51,30.07-1.98l77.39,27.6
										c24.56-8.38,50.58-14.49,77.54-18.62l20.6-51.14c2.44-6.47,12.24-10.96,23.51-10.9l63.89,0c6.67-0.07,12.85,1.46,17.3,4.04
										c3.15,1.82,5.43,4.15,6.43,6.8l21.17,51.14c27.01,4.13,53.2,10.3,77.85,18.68l76.87-27.73c9.7-3.47,22.21-2.57,30.2,2.04
										l45.33,26.17c7.99,4.61,9.58,11.86,3.62,17.48l-47.62,44.61c14.56,14.25,25.39,29.46,32.51,45.03l88.36,12.09
										c4.58,0.57,8.62,1.89,11.76,3.7c4.46,2.57,7.13,6.15,7.03,10.01l0.21,37.01c0.14,6.53-7.58,12.22-18.64,13.71l-88.33,12.04
										c-6.94,15.69-17.51,30.72-31.9,44.97L2157.09,619.44z M1751.6,540.63c52.64,30.39,137.86,30.39,190.27-0.07
										c52.41-30.46,52.13-79.82-0.5-110.2c-52.75-30.45-137.98-30.45-190.39,0C1698.57,460.82,1698.85,510.18,1751.6,540.63" class="svgShape colorffffff-203 selectable"></path><path fill="#37423c" d="M1815.39,719.96c-6.72,0-13.07-1.53-17.93-4.33c-3.59-2.09-6.1-4.74-7.26-7.68l-20.64-50.26
										c-26.89-4.01-52.53-10.16-76.25-18.27l-76.43,27.5c-10.13,3.63-23.16,2.7-31.74-2.24l-45.32-26.16
										c-4.8-2.78-7.71-6.56-8.19-10.63c-0.42-3.55,1.01-6.97,4.1-9.91l46.14-43.34c-13.42-13.3-23.79-27.79-30.82-43.09
										l-87.59-11.89c-4.64-0.62-8.91-1.98-12.32-3.95c-5.23-3.03-8.17-7.33-8.06-11.81l-0.21-36.95
										c-0.16-7.59,8.25-14.02,20.44-15.59l87.13-11.94c6.82-15.08,17.04-29.58,30.44-43.14l-46.53-43.3
										c-3.21-2.99-4.69-6.48-4.28-10.08c0.45-4.03,3.31-7.77,8.04-10.52l44.93-26.1c8.57-4.98,21.61-5.84,31.72-2.12l76.73,27.37
										c23.41-7.94,49.01-14.1,76.13-18.31l20.19-50.11c2.7-7.13,13-12.11,25.09-12.11c0.08,0,0.16,0,0.24,0h63.89
										c6.91-0.01,13.36,1.45,18.28,4.29c3.64,2.11,6.15,4.8,7.29,7.81l20.72,50.07c27.1,4.2,52.82,10.38,76.45,18.37l76.23-27.5
										c10.19-3.66,23.28-2.76,31.84,2.19l45.33,26.16c4.77,2.76,7.65,6.52,8.12,10.6c0.41,3.53-1.07,7.08-4.15,9.99l-46.14,43.24
										c13.5,13.51,23.93,28.02,31.02,43.2l87.31,11.95c4.68,0.59,9,1.95,12.47,3.94c5.2,3,8.12,7.29,8,11.76l0.21,36.94
										c0.17,7.56-8.19,14.02-20.32,15.66l-87.25,11.89c-6.85,15.13-17.08,29.63-30.44,43.14l46.43,43.34
										c3.21,2.9,4.76,6.46,4.39,10c-0.43,4.04-3.28,7.78-8.03,10.54l-44.93,26.11c-8.5,4.93-21.58,5.83-31.81,2.19l-76.65-27.44
										c-24.24,8.23-49.84,14.39-76.13,18.33l-20.07,50.16c-2.83,7.12-13.17,12.06-25.2,12.06c-0.08,0-0.16,0-0.24,0h-63.89
										C1815.69,719.96,1815.54,719.96,1815.39,719.96z M1693.29,635.4c0.21,0,0.43,0.04,0.63,0.11
										c23.99,8.25,50,14.47,77.29,18.48c0.69,0.1,1.26,0.55,1.52,1.19l21.08,51.32c0.85,2.14,2.78,4.13,5.6,5.76
										c4.21,2.44,10.03,3.81,16.01,3.81c0.14,0,0.27,0,0.4,0h63.92c0.07,0,0.14,0,0.21,0c10.32,0,19.37-4.02,21.59-9.6
										l20.49-51.21c0.26-0.65,0.85-1.1,1.53-1.2c26.68-3.93,52.65-10.17,77.19-18.54c0.42-0.13,0.87-0.14,1.29,0.01l77.29,27.66
										c9.24,3.3,20.96,2.51,28.54-1.88l44.93-26.11c3.66-2.12,5.83-4.81,6.12-7.58c0.24-2.31-0.85-4.63-3.14-6.71
										c-0.01-0.01-0.02-0.02-0.02-0.02l-47.91-44.73c-0.39-0.36-0.61-0.87-0.62-1.39c-0.01-0.53,0.2-1.04,0.58-1.42
										c14-13.87,24.6-28.8,31.49-44.38c0.27-0.62,0.85-1.05,1.52-1.14l88.33-12.04c9.94-1.34,17.07-6.27,16.95-11.73l-0.21-37.04
										c0.08-3.05-2.13-6.07-6.05-8.33c-3.02-1.74-6.82-2.93-11.03-3.46l-88.39-12.1c-0.66-0.09-1.23-0.52-1.51-1.13
										c-7.14-15.63-17.94-30.58-32.1-44.44c-0.38-0.37-0.59-0.88-0.59-1.42c0.01-0.53,0.23-1.04,0.62-1.4l47.61-44.61
										c2.19-2.07,3.22-4.39,2.95-6.7c-0.33-2.83-2.53-5.55-6.2-7.67l-45.33-26.16c-7.51-4.34-19.52-5.13-28.57-1.9l-76.86,27.72
										c-0.43,0.14-0.89,0.14-1.29,0.01c-23.92-8.13-50.01-14.39-77.52-18.59c-0.67-0.1-1.24-0.55-1.51-1.18l-21.17-51.14
										c-0.83-2.21-2.76-4.21-5.6-5.86c-4.26-2.47-10.1-3.69-16.3-3.78h-63.92c-0.07,0-0.14,0-0.21,0
										c-10.36,0-19.36,4.04-21.48,9.64l-20.61,51.18c-0.25,0.64-0.83,1.09-1.51,1.2c-27.55,4.22-53.53,10.45-77.2,18.53
										c-0.41,0.14-0.86,0.14-1.29-0.01l-77.39-27.6c-9.15-3.36-20.83-2.59-28.43,1.83l-44.93,26.1
										c-3.64,2.12-5.82,4.81-6.14,7.59c-0.26,2.32,0.8,4.68,3.07,6.79l48.01,44.67c0.39,0.36,0.62,0.86,0.62,1.39
										c0.01,0.53-0.2,1.04-0.58,1.42c-14.05,13.92-24.65,28.85-31.49,44.37c-0.27,0.62-0.85,1.06-1.52,1.15l-88.22,12.09
										c-10.01,1.29-17.17,6.2-17.06,11.68l0.21,37.04c-0.08,3.06,2.15,6.1,6.11,8.38c2.98,1.72,6.74,2.92,10.88,3.46l88.67,12.03
										c0.67,0.09,1.24,0.52,1.52,1.13c7.08,15.77,17.81,30.68,31.88,44.31c0.38,0.37,0.6,0.88,0.59,1.42
										c-0.01,0.53-0.23,1.04-0.62,1.41l-47.62,44.73c-2.16,2.05-3.18,4.33-2.91,6.62c0.33,2.82,2.56,5.56,6.27,7.7l45.32,26.16
										c7.65,4.42,19.35,5.22,28.47,1.95l77.07-27.72C1692.84,635.44,1693.07,635.4,1693.29,635.4z M1846.76,565.3
										c-34.78,0-69.58-7.66-96.13-22.98l0,0c-26.23-15.15-40.69-35.39-40.72-57.02c-0.03-21.47,14.21-41.58,40.09-56.62
										c52.85-30.71,139.13-30.73,192.35-0.02c26.16,15.11,40.59,35.32,40.62,56.92c0.03,21.49-14.22,41.61-40.11,56.66
										C1916.4,557.61,1881.59,565.3,1846.76,565.3z M1846.06,409.48c-34.13,0-68.2,7.52-94.09,22.57
										c-24.63,14.32-38.19,33.22-38.16,53.26c0.03,20.17,13.8,39.22,38.77,53.64l0,0c52.05,30.06,136.53,30.02,188.31-0.06
										c24.65-14.32,38.2-33.25,38.18-53.29c-0.03-20.15-13.77-39.17-38.67-53.55C1914.34,417,1880.17,409.48,1846.06,409.48z" class="svgShape color373b42-204 selectable"></path></g></g></g></g></g><g><path fill="#ffffff" d="M580.62,2191.5c-14.1-8.14-14.18-21.34-0.17-29.48c14.01-8.14,36.8-8.14,50.9,0
					c14.1,8.14,14.17,21.34,0.16,29.48S594.72,2199.64,580.62,2191.5z" class="svgShape colorffffff-206 selectable"></path><path fill="#dbe4df" d="M606.1,2199.51c-9.56,0-19.14-2.11-26.45-6.33l0,0c-7.47-4.32-11.59-10.17-11.6-16.49
					c-0.01-6.27,4.05-12.09,11.42-16.37c14.54-8.44,38.24-8.44,52.85,0c7.46,4.32,11.58,10.17,11.59,16.47
					c0.01,6.27-4.04,12.09-11.42,16.38C625.23,2197.4,615.67,2199.51,606.1,2199.51z M581.59,2189.8
					c13.55,7.83,35.51,7.82,48.93,0.01c6.13-3.56,9.5-8.18,9.49-13.01c-0.01-4.86-3.43-9.51-9.64-13.1
					c-13.55-7.83-35.51-7.83-48.94-0.02c-6.13,3.56-9.5,8.18-9.49,13C571.95,2181.56,575.38,2186.22,581.59,2189.8L581.59,2189.8z" class="svgShape colordbdee4-207 selectable"></path><g><path fill="#1fff8f" d="M605.9,2167.46c5.5,0,10.81,1.25,14.59,3.43c3.03,1.75,4.78,3.9,4.78,5.9c0,1.98-1.7,4.1-4.68,5.83
					c-3.75,2.18-9.04,3.43-14.53,3.43c-5.49,0-10.81-1.25-14.58-3.43c-3.04-1.75-4.78-3.91-4.78-5.91c0-1.98,1.7-4.1,4.68-5.83
					C595.12,2168.7,600.41,2167.46,605.9,2167.46z" class="svgShape color1fb6ff-209 selectable"></path></g><g><path fill="#37423c" d="M481.8,2096.82c5.9,0,11.61,1.34,15.67,3.69c3.26,1.88,5.13,4.19,5.13,6.34c0,2.12-1.83,4.41-5.03,6.27
				c-4.02,2.34-9.71,3.68-15.61,3.68c-5.9,0-11.6-1.34-15.66-3.68c-3.26-1.88-5.13-4.2-5.14-6.35c0-2.12,1.83-4.41,5.03-6.26
				C470.21,2098.16,475.9,2096.82,481.8,2096.82z" class="svgShape color373b42-211 selectable"></path></g></g><g><path fill="#37423c" d="M755.34,1802.41c5.9,0,11.61,1.34,15.67,3.69c3.26,1.88,5.13,4.19,5.13,6.34c0,2.12-1.83,4.41-5.03,6.27
				c-4.02,2.34-9.71,3.68-15.61,3.68c-5.9,0-11.6-1.34-15.66-3.68c-3.26-1.88-5.13-4.2-5.14-6.35c0-2.12,1.83-4.41,5.03-6.26
				C743.76,1803.75,749.45,1802.41,755.34,1802.41z" class="svgShape color373b42-213 selectable"></path></g><g><path fill="#37423c" d="M717.79,1216.97c-5.9,0-11.61,1.34-15.67,3.69c-3.26,1.88-5.13,4.19-5.13,6.34c0,2.12,1.83,4.41,5.03,6.27
			c4.02,2.34,9.71,3.68,15.61,3.68c5.9,0,11.6-1.34,15.66-3.68c3.26-1.88,5.13-4.2,5.14-6.35c0-2.12-1.83-4.41-5.03-6.26
			C729.37,1218.31,723.69,1216.97,717.79,1216.97z" class="svgShape color373b42-215 selectable"></path></g><g><path fill="#37423c" d="M1588.75,1185.54c5.9,0,11.61,1.34,15.67,3.69c3.26,1.88,5.13,4.19,5.13,6.34c0,2.12-1.83,4.41-5.03,6.27
				c-4.02,2.34-9.71,3.68-15.61,3.68c-5.9,0-11.6-1.34-15.66-3.68c-3.26-1.88-5.13-4.2-5.14-6.35c0-2.12,1.83-4.41,5.03-6.26
				C1577.16,1186.88,1582.85,1185.54,1588.75,1185.54z" class="svgShape color373b42-217 selectable"></path></g><g><path fill="#ffffff" d="M2092.02,1485.99c-14.1-8.14-14.18-21.34-0.17-29.48s36.8-8.14,50.9,0c14.1,8.14,14.17,21.34,0.16,29.48
					C2128.91,1494.12,2106.12,1494.13,2092.02,1485.99z" class="svgShape colorffffff-219 selectable"></path><path fill="#dbe4df" d="M2117.5,1494c-9.56,0-19.14-2.11-26.45-6.33c-7.47-4.31-11.59-10.16-11.6-16.48
					c-0.01-6.27,4.05-12.09,11.42-16.38c14.53-8.44,38.23-8.44,52.85,0c7.47,4.32,11.59,10.17,11.6,16.47
					c0.01,6.27-4.05,12.09-11.43,16.38C2136.63,1491.89,2127.07,1494,2117.5,1494z M2117.25,1452.33c-8.86,0-17.7,1.96-24.42,5.86
					c-6.12,3.56-9.5,8.18-9.49,13.01c0.01,4.87,3.44,9.53,9.66,13.1l0,0c13.53,7.82,35.48,7.82,48.92,0.01
					c6.13-3.56,9.5-8.18,9.5-13.01c-0.01-4.86-3.43-9.51-9.65-13.1C2135,1454.28,2126.13,1452.33,2117.25,1452.33z" class="svgShape colordbdee4-220 selectable"></path><g><path fill="#1fff8f" d="M2117.3,1461.95c5.5,0,10.81,1.25,14.59,3.43c3.03,1.75,4.78,3.9,4.78,5.9c0,1.98-1.7,4.1-4.68,5.83
					c-3.75,2.18-9.04,3.43-14.53,3.43c-5.49,0-10.81-1.25-14.58-3.43c-3.04-1.75-4.78-3.91-4.78-5.91c0-1.98,1.7-4.1,4.68-5.83
					C2106.52,1463.19,2111.81,1461.95,2117.3,1461.95z" class="svgShape color1fb6ff-222 selectable"></path></g><g><path fill="#37423c" d="M1993.2,1391.31c5.9,0,11.61,1.34,15.67,3.69c3.26,1.88,5.13,4.19,5.13,6.34c0,2.12-1.83,4.41-5.03,6.27
				c-4.02,2.34-9.71,3.68-15.61,3.68c-5.9,0-11.6-1.34-15.66-3.68c-3.26-1.88-5.13-4.2-5.14-6.35c0-2.12,1.83-4.41,5.03-6.26
				C1981.62,1392.65,1987.3,1391.31,1993.2,1391.31z" class="svgShape color373b42-224 selectable"></path></g></g></svg></g></svg>