<?xml version="1.0" encoding="utf-8"?>
<!-- Generator: Adobe Illustrator 28.0.0, SVG Export Plug-In . SVG Version: 6.00 Build 0)  -->
<svg version="1.1" id="SvgjsSvg2911" xmlns:svgjs="http://svgjs.com/svgjs"
	 xmlns="http://www.w3.org/2000/svg" xmlns:xlink="http://www.w3.org/1999/xlink" x="0px" y="0px" viewBox="0 0 360 360"
	 style="enable-background:new 0 0 360 360;" xml:space="preserve">
<style type="text/css">
	.st0{opacity:0.13;}
	.st1{fill:#808080;}
	.st2{fill:#333333;}
	.st3{fill:#1A1A1A;}
	.st4{fill:none;}
	.st5{fill:#999999;}
	.st6{fill:#ED1C24;}
	.st7{fill:#666666;}
	.st8{opacity:0.15;enable-background:new    ;}
	.st9{fill:#CCCCCC;stroke:#333333;stroke-width:0.6973;stroke-miterlimit:10;}
	.st10{filter:url(#Adobe_OpacityMaskFilter);}
	.st11{fill:#EF4444;}
	.st12{mask:url(#b_00000047039781786290133920000001252054019251674767_);}
	.st13{fill:#B3B3B3;}
	.st14{fill:#F2F2F2;}
	.st15{fill:#777777;}
	.st16{fill:#2291F2;}
	.st17{fill:#445EF2;}
	.st18{fill:#535353;}
	.st19{fill:#E6E6E6;}
	.st20{fill:#4D4D4D;}
	.st21{fill:#0E1D73;}
	.st22{fill:#FCC0A9;}
	.st23{fill:#FC9A74;}
	.st24{fill:#FF0000;}
	.st25{opacity:0.3;enable-background:new    ;}
	.st26{opacity:0.15;}
	.st27{filter:url(#Adobe_OpacityMaskFilter_00000061450837744664084330000008942637924056381101_);}
	.st28{fill:#FFFFFF;}
	.st29{opacity:0.5;mask:url(#d_00000007406727388235219340000016070096259809900439_);}
	.st30{filter:url(#Adobe_OpacityMaskFilter_00000026160845791795863730000007764216461542223015_);}
	.st31{fill:#4F4F4F;}
	.st32{mask:url(#f_00000063626927636652917200000010057768251016600996_);}
	.st33{fill:#E38C74;}
	.st34{fill:#D97559;}
	.st35{opacity:0.1;enable-background:new    ;}
	.st36{fill:#CCCCCC;}
	.st37{fill:#1C1C1C;}
	.st38{filter:url(#Adobe_OpacityMaskFilter_00000109007464115865211810000008989468164234402471_);}
	.st39{opacity:0.5;mask:url(#h_00000122703907351145750640000009276129087845430668_);}
	.st40{opacity:0.2;fill:#FFFFFF;enable-background:new    ;}
	.st41{opacity:0.3;fill:#FFFFFF;enable-background:new    ;}
	.st42{opacity:0.1;fill:#FFFFFF;enable-background:new    ;}
	.st43{fill:#231F20;}
	.st44{opacity:0.2;}
</style>
<g id="SvgjsG2913">
	<g class="st0">
		<rect x="51.7" y="243.5" width="254" height="3.4"/>
		<rect x="228" y="107.5" width="29" height="36.8"/>
		<rect x="232.3" y="111.9" class="st1" width="20.2" height="28.1"/>
		<path class="st2" d="M252.6,128.7V140h-20.2V135c7.5-4.4,8.7-4.2,11.8-6.9C246.7,125.9,250.5,126.9,252.6,128.7z"/>
		<circle class="st2" cx="241.2" cy="121.8" r="2.5"/>
		
			<rect x="245.3" y="117.9" transform="matrix(0.7982 -0.6024 0.6024 0.7982 -21.2196 172.8206)" class="st2" width="4" height="0.4"/>
		
			<rect x="242.7" y="115.4" transform="matrix(0.2866 -0.958 0.958 0.2866 63.3661 316.2924)" class="st2" width="2.7" height="0.4"/>
		
			<rect x="239.8" y="114.3" transform="matrix(0.9701 -0.2425 0.2425 0.9701 -20.8706 61.6395)" class="st2" width="0.4" height="2.7"/>
		
			<rect x="235.3" y="118.5" transform="matrix(0.4372 -0.8994 0.8994 0.4372 24.7358 279.283)" class="st2" width="0.4" height="2.7"/>
		
			<rect x="237.5" y="116.5" transform="matrix(0.7828 -0.6223 0.6223 0.7828 -21.8588 173.5589)" class="st2" width="0.4" height="3.1"/>
		
			<rect x="235.4" y="123.6" transform="matrix(0.8798 -0.4753 0.4753 0.8798 -30.3772 127.3379)" class="st2" width="2.5" height="0.4"/>
		
			<rect x="236" y="126.7" transform="matrix(0.5842 -0.8116 0.8116 0.5842 -4.1103 245.6407)" class="st2" width="3.3" height="0.4"/>
		<g>
			<rect x="262.4" y="121.6" width="29" height="36.8"/>
			<rect x="266.7" y="125.9" class="st1" width="20.2" height="28.1"/>
			<path class="st2" d="M287,142.7V154h-20.2v-4.9c7.5-4.4,8.7-4.2,11.8-6.9C281.1,140,284.9,140.9,287,142.7z"/>
			<circle class="st2" cx="275.6" cy="135.8" r="2.5"/>
			
				<rect x="279.8" y="132" transform="matrix(0.7982 -0.6023 0.6023 0.7982 -22.7382 196.3737)" class="st2" width="4" height="0.4"/>
			
				<rect x="277.2" y="129.5" transform="matrix(0.2866 -0.958 0.958 0.2866 74.485 359.287)" class="st2" width="2.7" height="0.4"/>
			
				<rect x="274.2" y="128.3" transform="matrix(0.9701 -0.2425 0.2425 0.9701 -23.2461 70.4071)" class="st2" width="0.4" height="2.7"/>
			
				<rect x="269.8" y="132.6" transform="matrix(0.4372 -0.8994 0.8994 0.4372 31.4965 318.1376)" class="st2" width="0.4" height="2.7"/>
			
				<rect x="271.9" y="130.6" transform="matrix(0.7828 -0.6223 0.6223 0.7828 -23.1101 198.0277)" class="st2" width="0.4" height="3.1"/>
			
				<rect x="269.8" y="137.6" transform="matrix(0.8798 -0.4754 0.4754 0.8798 -32.9055 145.407)" class="st2" width="2.5" height="0.4"/>
			
				<rect x="270.5" y="140.7" transform="matrix(0.5842 -0.8116 0.8116 0.5842 -1.1802 279.4124)" class="st2" width="3.3" height="0.4"/>
		</g>
		<g>
			<rect x="93.9" y="107" class="st3" width="120" height="3.4"/>
			<path d="M213.9,110.4H93.8V107h120.1L213.9,110.4L213.9,110.4z M93.9,110.4h120V107h-120V110.4z"/>
			<rect x="97.7" y="110.4" class="st1" width="112.4" height="72.1"/>
			<rect x="93.9" y="182.5" class="st3" width="120" height="3.4"/>
			<path d="M213.9,185.9H93.8v-3.4h120.1L213.9,185.9L213.9,185.9z M93.9,185.8h120v-3.3h-120V185.8z"/>
			<rect x="103.9" y="118.6" class="st3" width="24.5" height="2.7"/>
			<path d="M128.4,121.4h-24.5v-2.7h24.5V121.4z M103.9,121.3h24.5v-2.7h-24.5V121.3z"/>
			<rect x="140.9" y="118.6" class="st3" width="24.5" height="2.7"/>
			<path d="M165.4,121.4h-24.5v-2.7h24.5V121.4z M140.9,121.3h24.5v-2.7h-24.5V121.3z"/>
			<rect x="177.5" y="118.6" class="st3" width="24.5" height="2.7"/>
			<path d="M202,121.4h-24.5v-2.7H202V121.4z M177.5,121.3H202v-2.7h-24.5V121.3z"/>
			<line class="st4" x1="116.4" y1="118.6" x2="116.4" y2="173.7"/>
			<path d="M116.1,118.8c0,0.5,0,1,0,1.5c0,1.3,0,2.7,0,4c0,2,0,3.9,0,5.9c0,2.4,0,4.8,0,7.2c0,2.6,0,5.3,0,7.9c0,2.7,0,5.3,0,8
				c0,2.5,0,4.9,0,7.4c0,2.1,0,4.2,0,6.3c0,1.5,0,3,0,4.5c0,0.7,0,1.4,0,2.1c0,0,0,0.1,0,0.1c0,0.1,0.1,0.2,0.2,0.1
				c0.1-0.1,0.2-0.2,0.2-0.4c0-0.5,0-1,0-1.5c0-1.3,0-2.7,0-4c0-2,0-3.9,0-5.9c0-2.4,0-4.8,0-7.2c0-2.6,0-5.3,0-7.9c0-2.7,0-5.3,0-8
				c0-2.5,0-4.9,0-7.4c0-2.1,0-4.2,0-6.3c0-1.5,0-3,0-4.5c0-0.7,0-1.4,0-2.1c0,0,0-0.1,0-0.1c0-0.1-0.1-0.2-0.2-0.1
				C116.2,118.5,116.1,118.6,116.1,118.8L116.1,118.8z"/>
			<g>
				<path class="st3" d="M135.6,173.7"/>
				<path d="M135.5,173.9c0.1,0,0.3-0.1,0.3-0.3c0-0.1,0.1-0.3-0.1-0.3c-0.1,0-0.3,0.1-0.3,0.3C135.4,173.7,135.3,173.9,135.5,173.9
					L135.5,173.9z"/>
			</g>
			<g>
				<path class="st3" d="M135.6,118.6"/>
				<path d="M135.5,118.9c0.1,0,0.3-0.1,0.3-0.3c0-0.1,0.1-0.3-0.1-0.3c-0.1,0-0.3,0.1-0.3,0.3C135.4,118.7,135.3,118.9,135.5,118.9
					L135.5,118.9z"/>
			</g>
			<g>
				<path class="st3" d="M171.4,173.7"/>
				<path d="M171.3,173.9c0.1,0,0.3-0.1,0.3-0.3c0-0.1,0.1-0.3-0.1-0.3c-0.1,0-0.3,0.1-0.3,0.3C171.1,173.7,171.1,173.9,171.3,173.9
					L171.3,173.9z"/>
			</g>
			<g>
				<path class="st3" d="M171.4,118.6"/>
				<path d="M171.3,118.9c0.1,0,0.3-0.1,0.3-0.3c0-0.1,0.1-0.3-0.1-0.3c-0.1,0-0.3,0.1-0.3,0.3C171.1,118.7,171.1,118.9,171.3,118.9
					L171.3,118.9z"/>
			</g>
			<g>
				<line class="st4" x1="102.5" y1="125.4" x2="203.9" y2="125.4"/>
				<path d="M102.4,125.6c0.9,0,1.8,0,2.7,0c2.5,0,4.9,0,7.4,0c3.6,0,7.3,0,10.9,0c4.4,0,8.8,0,13.3,0c4.9,0,9.7,0,14.6,0
					c4.9,0,9.8,0,14.7,0c4.6,0,9.2,0,13.8,0c3.9,0,7.7,0,11.6,0c2.8,0,5.6,0,8.4,0c1.3,0,2.6,0,3.9,0c0.1,0,0.1,0,0.2,0
					c0.2,0,0.5-0.6,0.2-0.6c-0.9,0-1.8,0-2.7,0c-2.5,0-4.9,0-7.4,0c-3.6,0-7.3,0-10.9,0c-4.4,0-8.8,0-13.3,0c-4.9,0-9.7,0-14.6,0
					c-4.9,0-9.8,0-14.7,0c-4.6,0-9.2,0-13.8,0c-3.9,0-7.7,0-11.6,0c-2.8,0-5.6,0-8.4,0c-1.3,0-2.6,0-3.9,0c-0.1,0-0.1,0-0.2,0
					C102.4,125.1,102.2,125.6,102.4,125.6L102.4,125.6z"/>
			</g>
		</g>
		<g>
			<path class="st2" d="M126.3,228.4c0,0,2,25.1,7.8,25.1c0.4,0,0.8,0,1.1,0c5.9,0,0.8,0,5.2,0c0.3,0,0.7,0,1.1,0
				c5.7,0,7.8-25.1,7.8-25.1H126.3z"/>
			<path class="st5" d="M138.6,213.8c-10.7-3.3-7.8-7.1-4.5-12.1c3.2-5,2.8-7.5,2.8-7.5s7.4-4,8.2-6.1c6.1,7.1,6.1,5.9,4.9,9
				c-1.2,3.1,0.7,8.5-0.5,11.1C148.2,210.9,139.8,214.2,138.6,213.8z"/>
			<path class="st2" d="M138.5,232c-0.1,0-0.2-0.1-0.2-0.2c-0.4-8-0.2-14.8,0.8-20.7c0.8-4.9,2-9.2,4-13.5c0-0.1,0.2-0.2,0.3-0.1
				c0.1,0,0.2,0.2,0.1,0.3c-2.9,6.6-5.7,15.8-4.7,34C138.7,231.9,138.6,232,138.5,232C138.5,232,138.5,232,138.5,232z"/>
			<path class="st2" d="M139.8,208.7c-0.1,0-0.1,0-0.2-0.1c-0.1-0.1-0.1-0.2,0-0.3c0.2-0.2,4.8-4,7.4-4.8c0.1,0,0.2,0,0.3,0.1
				c0,0.1,0,0.2-0.1,0.3c-2.6,0.8-7.2,4.7-7.3,4.7C139.9,208.7,139.8,208.7,139.8,208.7z M140.4,206c-0.1,0-0.2,0-0.2-0.1
				c-2.2-4.4-3.7-4.7-3.8-4.7c-0.1,0-0.2-0.1-0.2-0.2c0-0.1,0.1-0.2,0.3-0.2c0.1,0,1.8,0.3,4.1,5C140.6,205.8,140.6,205.9,140.4,206
				C140.5,206,140.4,206,140.4,206z M141.9,201.1c-0.1,0-0.2-0.1-0.2-0.2c0-0.1,0-0.2,0.2-0.3c0,0,2.9-0.8,4.7-3.2
				c0.1-0.1,0.2-0.1,0.3,0c0.1,0.1,0.1,0.2,0,0.3C145,200.3,142.1,201.1,141.9,201.1C141.9,201.1,141.9,201.1,141.9,201.1z
				 M142.5,199.5c-0.1,0-0.1,0-0.2-0.1c-0.1-0.1-2.5-2.6-2.2-4.6c0-0.1,0.1-0.2,0.3-0.2c0.1,0,0.2,0.1,0.2,0.3
				c-0.3,1.8,2.1,4.2,2.1,4.2c0.1,0.1,0.1,0.2,0,0.3C142.6,199.5,142.6,199.5,142.5,199.5z"/>
			<g>
				<path class="st5" d="M130.5,209.9c-2.3-2.8-6.9-2.4-9.5-4.3c-1.4,6.7,2.2,7.7,0.7,11.5c-1.5,3.8,1.4,8.6,5.8,8.3
					c4.4-0.3,5.2,0.7,5.2,0.7s0.9-1.7,3.3-4.5C138.4,218.7,134.2,214.5,130.5,209.9z"/>
				<path class="st2" d="M133.9,238.5c-0.1,0-0.2-0.1-0.2-0.2c-0.3-4.9-0.6-7.4-0.8-9.4c-0.2-2-0.4-3.5-0.5-6.3
					c-0.2-3-2.3-6.3-4-8.5c-1.7-2.1-3.3-3.6-3.3-3.6c-0.1-0.1-0.1-0.2,0-0.3c0.1-0.1,0.2-0.1,0.3,0c0,0,1.7,1.5,3.4,3.6
					c1.8,2.2,4,5.5,4.1,8.7c0.2,2.8,0.3,4.3,0.5,6.3c0.2,2,0.5,4.6,0.8,9.5C134.1,238.3,134,238.4,133.9,238.5
					C133.9,238.5,133.9,238.5,133.9,238.5z"/>
				<path class="st2" d="M128.4,214.1c-0.4,0-3.3,0-4.8-1.3c-0.1-0.1-0.1-0.2,0-0.3c0.1-0.1,0.2-0.1,0.3,0c1.4,1.2,4.5,1.2,4.5,1.2
					c0.1,0,0.2,0.1,0.2,0.2C128.7,214,128.6,214.1,128.4,214.1C128.4,214.1,128.4,214.1,128.4,214.1z M129.9,216.1
					C129.9,216.1,129.8,216.1,129.9,216.1c-0.2-0.1-0.3-0.2-0.2-0.3c0,0,1-2.5,0.7-4.5c0-0.1,0.1-0.2,0.2-0.2c0.1,0,0.2,0.1,0.2,0.2
					c0.2,2.1-0.7,4.6-0.8,4.7C130.1,216,130,216.1,129.9,216.1z M131.9,220c-0.6,0-3.6-0.1-6.9-1.4c-0.1,0-0.2-0.2-0.1-0.3
					c0-0.1,0.2-0.2,0.3-0.1c3.5,1.5,6.8,1.4,6.8,1.4c0.1,0,0.2,0.1,0.2,0.2c0,0.1-0.1,0.2-0.2,0.2C132,220,131.9,220,131.9,220z
					 M132.4,221.7C132.4,221.7,132.3,221.7,132.4,221.7c-0.2-0.1-0.3-0.2-0.2-0.3c0,0,1.7-3.5,1.5-5.5c0-0.1,0.1-0.2,0.2-0.2
					c0.1,0,0.2,0.1,0.2,0.2c0.3,2.1-1.4,5.6-1.5,5.8C132.6,221.7,132.5,221.7,132.4,221.7z"/>
			</g>
			<g>
				<path class="st6" d="M150.6,217.8c-0.4,0-0.6,0-0.6,0l0-0.2c0.1,0,5.4,0.1,6.4-1l0.1,0.1C155.6,217.7,152.1,217.8,150.6,217.8z"
					/>
				<path class="st5" d="M159.9,208.5c-5.4,4.1-9.9,2.6-12,3.2c-2.1,0.6-4.2,0.9-5.9,4.2s-2.4,7.9-0.3,11c0,0,5.1,0.4,7.9,0.5
					c2.8,0.1,2.5-4.8,4.4-6.1c1.8-1.4,3.8-4.2,4.6-7.9C159.5,209.7,159.9,208.5,159.9,208.5z"/>
				<path class="st2" d="M138.6,234.7C138.5,234.7,138.5,234.7,138.6,234.7c-0.2-0.1-0.3-0.2-0.2-0.3c0.1-0.3,3.3-7.7,5.3-9.4
					c1.3-1.1,2.7-3,4.6-5.5c0.8-1.1,1.8-2.3,2.8-3.6c0.4-0.5,0.7-0.9,1.1-1.3c0.1-0.1,0.2-0.1,0.3,0c0.1,0.1,0.1,0.2,0,0.3
					c-0.3,0.4-0.7,0.8-1.1,1.3c-1,1.3-2,2.5-2.8,3.6c-1.9,2.5-3.4,4.4-4.7,5.6c-2,1.7-5.2,9.2-5.2,9.3
					C138.7,234.7,138.6,234.7,138.6,234.7z"/>
				<path class="st2" d="M150.7,216.9c-0.1,0-0.2-0.1-0.2-0.2c0-0.1-0.6-2.4,0.4-4.3c0.1-0.1,0.2-0.2,0.3-0.1
					c0.1,0.1,0.2,0.2,0.1,0.3c-0.9,1.7-0.4,3.9-0.3,4C151,216.8,150.9,216.9,150.7,216.9C150.8,216.9,150.7,216.9,150.7,216.9z
					 M147,221.7c-0.1,0-0.2-0.1-0.2-0.2c0-0.2-0.6-4.4-0.2-6.7c0-0.1,0.1-0.2,0.3-0.2c0.1,0,0.2,0.1,0.2,0.3
					c-0.3,2.2,0.2,6.5,0.2,6.5C147.3,221.5,147.2,221.7,147,221.7C147.1,221.7,147,221.7,147,221.7z M145.8,224.2
					c-0.5,0-0.9,0-0.9,0c-0.1,0-0.2-0.1-0.2-0.2c0-0.1,0.1-0.2,0.2-0.2c0,0,3,0,4.6-0.1c0.1,0,0.2,0.1,0.2,0.2
					c0,0.1-0.1,0.2-0.2,0.2C148.5,224.2,146.8,224.2,145.8,224.2z"/>
			</g>
			<g>
				<path class="st7" d="M147.9,238.9c-1.2,6.9-3.2,14.7-6.4,14.7h-1.1c-4.4,0,0.7,0-5.2,0h-1.1c-1.2,0-2.3-1.1-3.1-2.9
					C138.2,248.9,143.6,243.9,147.9,238.9z"/>
			</g>
		</g>
		<g>
			<path class="st2" d="M187.2,199.2h114.2c1.7,0,3.1-1.4,3.1-3.1l0,0c0-1.7-1.4-3.1-3.1-3.1H187.2c-1.7,0-3.1,1.4-3.1,3.1l0,0
				C184.1,197.8,185.5,199.2,187.2,199.2z"/>
			<polygon points="294.2,252.7 295.8,252.7 297.6,199.2 292.4,199.2 			"/>
			<polygon class="st8" points="292.4,199.2 292.5,201.5 297.5,201.5 297.6,199.2 			"/>
			<polygon points="277.3,252.7 278.9,252.7 280.7,199.2 275.5,199.2 			"/>
			<polygon class="st8" points="275.5,199.2 275.6,201.5 280.7,201.5 280.7,199.2 			"/>
			<polygon points="210.4,252.7 212,252.7 213.8,199.2 208.6,199.2 			"/>
			<polygon class="st8" points="208.6,199.2 208.6,201.5 213.7,201.5 213.8,199.2 			"/>
			<polygon points="193.2,252.7 194.8,252.7 196.6,199.2 191.4,199.2 			"/>
			<polygon class="st8" points="191.4,199.2 191.4,201.5 196.5,201.5 196.6,199.2 			"/>
			<path class="st9" d="M273.8,213.5"/>
			<rect x="194" y="211.9" width="101" height="3.1"/>
			<defs>
				<filter id="Adobe_OpacityMaskFilter" filterUnits="userSpaceOnUse" x="181.8" y="188.9" width="126.5" height="9.3">
					<feColorMatrix  type="matrix" values="1 0 0 0 0  0 1 0 0 0  0 0 1 0 0  0 0 0 1 0"/>
				</filter>
			</defs>
			
				<mask maskUnits="userSpaceOnUse" x="181.8" y="188.9" width="126.5" height="9.3" id="b_00000047039781786290133920000001252054019251674767_">
				<g class="st10">
					<path class="st11" d="M187.2,199.2h114.2c1.7,0,3.1-1.4,3.1-3.1l0,0c0-1.7-1.4-3.1-3.1-3.1H187.2c-1.7,0-3.1,1.4-3.1,3.1l0,0
						C184.1,197.8,185.5,199.2,187.2,199.2z"/>
				</g>
			</mask>
			<g class="st12">
				<rect x="181.8" y="196.2" class="st13" width="22.8" height="0.4"/>
				<rect x="184.3" y="195.1" class="st13" width="18.3" height="0.4"/>
				<rect x="264.2" y="197.9" class="st13" width="41.5" height="0.4"/>
				<rect x="246.5" y="196.7" class="st13" width="24.5" height="0.4"/>
				<rect x="264.2" y="195.9" class="st13" width="10.6" height="0.4"/>
				<rect x="271" y="194.7" class="st13" width="13.9" height="0.4"/>
				<rect x="246.5" y="194.7" class="st13" width="21.6" height="0.4"/>
				<path class="st13" d="M209.3,198.2l0-0.4c9.7-0.3,11.7-2.1,17.6-7.4c0.6-0.5,1.2-1,1.8-1.6l0.2,0.3c-0.6,0.6-1.2,1.1-1.8,1.6
					C221.2,196.1,219.2,197.9,209.3,198.2z"/>
				<path class="st13" d="M212.5,196.3l0-0.4c4.4-0.3,5.9-2.1,8.1-4.6c0.5-0.6,1-1.2,1.5-1.8l0.3,0.2c-0.6,0.6-1.1,1.2-1.5,1.8
					C218.7,194,217,196,212.5,196.3z M209.6,195.4c-1.2,0-2.2-0.2-2.9-0.3c-0.2,0-0.4-0.1-0.5-0.1c-2.1-0.3-1.8-4.4-1.8-4.6l0.4,0
					c0,0-0.3,4,1.5,4.2c0.2,0,0.3,0.1,0.5,0.1c2.3,0.4,7.2,1.3,10.4-4.4l0.3,0.2c-1.4,2.5-3.3,4.1-5.8,4.7
					C211,195.4,210.3,195.4,209.6,195.4z M296.3,196.6c-1.3,0-2.6-0.1-3.9-0.3c-1.4-0.2-2.4-0.8-3-1.7c-1-1.4-0.6-3.1-0.6-3.2
					l0.3,0.1c0,0-0.3,1.6,0.6,2.9c0.6,0.8,1.5,1.3,2.7,1.5c3.7,0.6,9.4,0.6,15.7-2.6l0.2,0.3c-2.7,1.4-5.6,2.3-8.5,2.7
					C298.6,196.5,297.4,196.6,296.3,196.6z"/>
				<path class="st13" d="M298,195.4c-0.1,0-0.2,0-0.4,0c-2.3-0.1-3.6-0.3-4.5-0.7c-1-0.5-1.4-1.2-1.4-2.4l0.4,0
					c0,1.1,0.4,1.7,1.2,2.1c0.8,0.4,2.1,0.6,4.4,0.7c4.1,0.1,7.9-1.7,8-1.7l0.2,0.3C305.7,193.7,302,195.4,298,195.4z"/>
				<rect x="223.7" y="197.9" class="st13" width="13.4" height="0.4"/>
			</g>
			<g>
				<path class="st13" d="M265.8,170l5.3,19.6h9.4c1.9,0,3.4,1.5,3.4,3.4h-12.6h-20.8l-6-22.4c-0.2-0.8,0.4-1.6,1.2-1.6h18.9
					C265.1,169.1,265.6,169.5,265.8,170z"/>
				<polygon class="st14" points="252.4,187.5 269,187.5 264.5,171 247.8,171 				"/>
				<path class="st5" d="M245.7,169.1l5.8,20.5h14.2c1.4,0,2.5,1.1,2.5,2.5v0.9h-15h-2.7l-6-22.3
					C244.2,169.9,244.9,169.1,245.7,169.1L245.7,169.1z"/>
			</g>
			<g>
				<polygon points="237.1,184.5 236.6,184.4 237.8,175.6 240.2,174.1 240.5,174.6 238.3,175.9 				"/>
				<path class="st7" d="M233.7,193h3.6c0.5,0,0.9-0.4,0.9-0.8l0.9-12h-7.3l0.9,12C232.9,192.7,233.3,193,233.7,193z"/>
				<rect x="231.2" y="179.6" class="st15" width="8.6" height="1.2"/>
				<rect x="232.2" y="179.1" class="st15" width="6.6" height="1.5"/>
			</g>
		</g>
		<g>
			<path class="st7" d="M233.9,219.9h40.8v-4.2h-38.4c-1.3,0-2.4,1.1-2.4,2.4L233.9,219.9L233.9,219.9z"/>
			<rect x="269.8" y="219.7" class="st2" width="1.4" height="33.2"/>
			<rect x="252.1" y="219.7" class="st2" width="1.4" height="33.2"/>
			<rect x="238.8" y="243.9" class="st2" width="14.2" height="1.4"/>
			<rect x="256.9" y="243.9" class="st2" width="14.2" height="1.4"/>
			<rect x="256.2" y="219.7" class="st2" width="1.4" height="33.2"/>
			<rect x="238.4" y="219.7" class="st2" width="1.4" height="33.2"/>
			<polygon class="st7" points="280.7,181.3 277.5,181.3 271.7,219.7 274.9,219.7 			"/>
			<polygon class="st7" points="258.6,181.3 255.4,181.3 249.6,219.7 252.8,219.7 			"/>
			<polygon class="st7" points="254.6,186.7 279.9,186.7 280.6,182.4 255.3,182.4 			"/>
			<polygon class="st7" points="252,203.9 277.3,203.9 277.7,201.4 252.4,201.4 			"/>
			<polygon class="st7" points="270.4,183.2 267.4,203.2 269.5,203.2 272.6,183.2 			"/>
			<polygon class="st7" points="263,183.2 260,203.2 262.2,203.2 265.2,183.2 			"/>
		</g>
	</g>
	<path class="st11" d="M122,188.6c-3-0.2-10.4-0.8-15-1.2c1.3-3.3,1.2-14.7,1.2-14.7l16.5,1.3C124.8,174.1,124.3,186.5,122,188.6z"
		/>
	<circle class="st2" cx="116.5" cy="173.6" r="1.8"/>
	<path class="st11" d="M114.4,185.6c-2-1-2.9-3.4-1.9-5.4c1-2,3.4-2.9,5.4-1.9c2,1,2.9,3.4,1.9,5.4
		C118.9,185.7,116.5,186.5,114.4,185.6z"/>
	<circle class="st14" cx="116.2" cy="181.9" r="4.1"/>
	<path class="st11" d="M114.6,184.3l0.3-0.6c-0.4-0.2-0.7-0.5-0.9-0.8l0.5-0.6c0.2,0.3,0.5,0.6,0.9,0.7c0.3,0.2,0.6,0.1,0.8-0.1
		c0.1-0.2,0-0.5-0.4-0.8c-0.5-0.5-0.9-1-0.6-1.6c0.3-0.5,0.8-0.8,1.5-0.6l0.3-0.6l0.6,0.3l-0.3,0.5c0.4,0.2,0.6,0.4,0.8,0.6
		l-0.5,0.6c-0.1-0.1-0.3-0.4-0.8-0.6c-0.4-0.2-0.6-0.1-0.7,0.1c-0.1,0.2,0.1,0.4,0.5,0.9c0.6,0.6,0.7,1.1,0.5,1.6
		c-0.3,0.5-0.9,0.8-1.6,0.6l-0.3,0.6L114.6,184.3z"/>
	<path class="st16" d="M131.1,125.4c2.6-0.2,9-0.7,13-1c-1.1-2.9-1-12.7-1-12.7l-14.3,1.1C128.8,112.8,129.2,123.5,131.1,125.4z"/>
	<circle class="st2" cx="135.9" cy="112.3" r="1.6"/>
	<path class="st14" d="M132.5,122c0.1,0.1,0.2,0.1,0.3,0.1l2.3-1.6c0.1-0.1,0.1-0.2,0.1-0.3l-0.6-0.9c-0.1-0.1-0.2-0.1-0.3-0.1
		l-2.3,1.6c-0.1,0.1-0.1,0.2-0.1,0.3L132.5,122z M140.1,118.7c-0.3,1.1-1.2,2-2.4,2.1c-1.5,0.2-2.8-0.9-3-2.4c0-0.3,0-0.6,0.1-0.9
		c0.3-1.1,1.2-2,2.4-2.1c1.5-0.2,2.8,0.9,3,2.4C140.2,118.1,140.2,118.4,140.1,118.7 M139.4,118.5c0.1-0.2,0.1-0.4,0-0.7v0
		c-0.1-0.5-0.3-1-0.7-1.3c-0.4-0.3-0.9-0.5-1.5-0.4c-0.8,0.1-1.5,0.7-1.7,1.5c-0.1,0.2-0.1,0.4,0,0.7c0.1,0.5,0.3,1,0.7,1.3
		c0.4,0.3,0.9,0.5,1.5,0.4C138.5,119.9,139.2,119.3,139.4,118.5L139.4,118.5z"/>
	<path class="st16" d="M141,185.4c2.7-0.2,9.6-0.8,13.9-1.1c-1.2-3.1-1.1-13.6-1.1-13.6l-15.3,1.2
		C138.4,171.8,138.9,183.4,141,185.4z"/>
	<circle class="st2" cx="146.1" cy="171.4" r="1.7"/>
	<g>
		<path class="st11" d="M148.8,175.1c-1.8-1.2-4.2-0.6-5.4,1.2c-1.2,1.8-0.6,4.2,1.2,5.4c1.8,1.2,4.2,0.6,5.4-1.2
			S150.6,176.2,148.8,175.1z M144.9,181c-1.5-0.9-1.9-2.9-1-4.4c0.9-1.5,2.9-1.9,4.4-1c1.5,0.9,1.9,2.9,1,4.4
			C148.4,181.5,146.4,182,144.9,181z"/>
		<circle class="st14" cx="146.6" cy="178.4" r="3.2"/>
		<path class="st11" d="M145.2,180l0.3-0.4c-0.3-0.2-0.5-0.5-0.6-0.7l0.5-0.4c0.1,0.2,0.3,0.5,0.6,0.7c0.3,0.2,0.5,0.2,0.6,0
			c0.1-0.2,0-0.4-0.2-0.7c-0.4-0.5-0.6-0.9-0.3-1.3c0.2-0.4,0.7-0.5,1.2-0.3l0.3-0.4l0.4,0.3l-0.2,0.4c0.3,0.2,0.4,0.4,0.5,0.6
			l-0.4,0.4c-0.1-0.1-0.2-0.4-0.5-0.6c-0.3-0.2-0.5-0.1-0.5,0c-0.1,0.1,0,0.3,0.3,0.7c0.4,0.5,0.5,0.9,0.2,1.3
			c-0.3,0.4-0.7,0.5-1.3,0.3l-0.3,0.4L145.2,180z"/>
	</g>
	<g>
		<path class="st11" d="M131.3,143.6c-2.6-0.2-9.1-0.7-13.2-1.1c1.1-2.9,1-12.9,1-12.9l14.6,1.2
			C133.7,130.8,133.3,141.7,131.3,143.6z"/>
		<circle class="st2" cx="126.4" cy="130.3" r="1.6"/>
		<polygon class="st14" points="121.2,140.1 120.7,139.9 123,135.4 126.5,138.7 130.1,133.9 130.5,134.2 126.6,139.5 123.1,136.2 		
			"/>
		<polygon class="st14" points="130.7,134.7 130.9,133.2 129.5,133.8 		"/>
	</g>
	<g>
		<path class="st13" d="M115.6,133.1c-2.4,0.1-8.6,0.5-12.4,0.7c0.7-2.8-0.7-12.2-0.7-12.2l13.7-0.8
			C116.2,120.9,117.2,131.1,115.6,133.1z"/>
		<circle class="st2" cx="108.7" cy="121" r="1.5"/>
		<g>
			<path class="st17" d="M108.5,129.7c-0.1,0.1-0.2,0.1-0.3,0.2c0.3,0.1,0.6,0.2,1,0.2c1.5,0,2.7-1.2,2.7-2.7c0-0.1,0-0.3,0-0.4
				C110.6,128.1,109.5,129.1,108.5,129.7z M112.9,125.2c-0.3,0.1-0.8,0.3-1.1,0.3l0.3,0.2c-0.2,0.2-0.3,0.3-0.5,0.4
				c-0.4-0.8-1.3-1.4-2.3-1.4c-1.5,0-2.7,1.2-2.7,2.7c0,0.3,0,0.6,0.1,0.8c-0.5,0.5-1,1.1-0.9,1.5c0,0.2,0.2,0.3,0.4,0.4
				c0.1,0,0.2,0,0.2,0c0.4,0,1-0.3,1.8-0.8c1.1-0.7,2.5-1.9,4.1-3.4l0.2,0.4C112.6,126,112.7,125.5,112.9,125.2z M106.3,129.7
				C106.3,129.7,106.3,129.7,106.3,129.7c-0.1-0.3,0.1-0.8,0.6-1.2c0.1,0.1,0.1,0.2,0.2,0.3c0.1,0.2,0.3,0.3,0.4,0.5
				C106.7,129.8,106.4,129.8,106.3,129.7z"/>
		</g>
	</g>
	<g>
		<path class="st18" d="M118.7,160c2.7,2.4,5,5.2,6.9,8.3c0.1,0.2,0.5-0.3,0.4-0.5c-1.9-3.1-4.3-5.9-7-8.4
			C118.9,159.3,118.5,159.8,118.7,160L118.7,160z"/>
		<path class="st18" d="M124.2,160.7c-1.6,2.2-3.3,4.3-5.1,6.3c-0.2,0.2,0,0.6,0.2,0.3c1.7-2.1,3.4-4.2,5.1-6.3
			C124.6,160.8,124.5,160.4,124.2,160.7L124.2,160.7z"/>
	</g>
	<g>
		<path class="st18" d="M127.6,163.9c2.4,0.8,4.9,0.1,7-1.1c1.1-0.6,2.1-1.3,3.2-2c0.5-0.4,1-0.7,1.6-1.1c0.6-0.4,1.1-0.7,1.8-0.8
			c0.2,0,0.4-0.5,0.1-0.5c-1.2,0.2-2.2,1.1-3.1,1.7c-1,0.7-2,1.4-3,2c-2.1,1.2-4.7,2.1-7.2,1.3C127.6,163.4,127.4,163.9,127.6,163.9
			L127.6,163.9z"/>
		<path class="st18" d="M138.4,157.9c0.8,0.3,1.7,0.5,2.5,0.8c0.2,0.1,0.4-0.4,0.3-0.5c-0.8-0.3-1.7-0.5-2.5-0.8
			C138.5,157.4,138.2,157.8,138.4,157.9L138.4,157.9z"/>
		<path class="st18" d="M141,158.6c-0.2,0.6-0.3,1.3-0.3,1.9c0,0.3,0.3,0.1,0.4-0.1c0.1-0.6,0.2-1.3,0.3-1.9
			C141.5,158.1,141.1,158.3,141,158.6L141,158.6z"/>
	</g>
	<g>
		<path class="st18" d="M142.9,155.7c0.6,1.2,1.1,2.4,1.4,3.6c0.1,0.4,0.7-0.2,0.6-0.5c-0.4-1.3-0.9-2.6-1.5-3.8
			C143.3,154.7,142.7,155.4,142.9,155.7L142.9,155.7z"/>
		<path class="st18" d="M144.9,159.1c2.3-2.8,5.3-4.9,8.6-6.2c0.2-0.1,0.4-0.3,0.4-0.5c0-0.1,0-0.4-0.2-0.3
			c-3.5,1.4-6.7,3.6-9.1,6.6c-0.1,0.1-0.2,0.4-0.1,0.6C144.6,159.4,144.8,159.3,144.9,159.1L144.9,159.1z"/>
	</g>
	<g>
		<path class="st11" d="M202.4,117c-3.3,0-6.2-2.2-6.9-5.4c-0.5-1.9-0.2-3.8,0.8-5.4c1-1.6,2.6-2.8,4.4-3.2c0.6-0.1,1.1-0.2,1.7-0.2
			c3.3,0,6.2,2.2,6.9,5.4c0.9,3.8-1.4,7.7-5.2,8.7C203.5,116.9,203,117,202.4,117C202.4,117,202.4,117,202.4,117z"/>
		<path class="st11" d="M202.4,106.1c1.7,0,3.2,1.1,3.6,2.8c0.5,2-0.7,4-2.7,4.5c-0.3,0.1-0.6,0.1-0.9,0.1c-1.7,0-3.2-1.1-3.6-2.8
			c-0.5-2,0.7-4,2.7-4.5C201.8,106.2,202.1,106.1,202.4,106.1 M202.4,99.2c-0.9,0-1.7,0.1-2.5,0.3c-1.4,0.3-2.7,0.9-3.8,1.8
			c-1.1,0.8-2,1.8-2.7,3c-0.7,1.2-1.2,2.5-1.4,3.8c-0.2,1.4-0.2,2.8,0.2,4.2c0.6,2.3,1.9,4.4,3.8,5.9c1.9,1.4,4.2,2.2,6.5,2.2
			c0.9,0,1.7-0.1,2.5-0.3c1.4-0.3,2.7-0.9,3.8-1.8c1.1-0.8,2-1.8,2.7-3c0.7-1.2,1.2-2.5,1.4-3.8c0.2-1.4,0.2-2.8-0.2-4.2
			c-0.6-2.3-1.9-4.4-3.8-5.9C207,100,204.7,99.2,202.4,99.2L202.4,99.2z"/>
		<path class="st19" d="M202.4,106.1c1.7,0,3.2,1.1,3.6,2.8c0.5,2-0.7,4-2.7,4.5c-0.3,0.1-0.6,0.1-0.9,0.1c-1.7,0-3.2-1.1-3.6-2.8
			c-0.5-2,0.7-4,2.7-4.5C201.8,106.2,202.1,106.1,202.4,106.1 M202.4,101c-0.7,0-1.4,0.1-2.1,0.3c-1.2,0.3-2.2,0.8-3.2,1.5
			c-0.9,0.7-1.7,1.5-2.3,2.5c-0.6,1-1,2.1-1.2,3.2c-0.2,1.2-0.1,2.4,0.1,3.5c0.5,1.9,1.6,3.7,3.2,4.9c1.5,1.2,3.5,1.9,5.4,1.9
			c0.7,0,1.4-0.1,2.1-0.3c1.2-0.3,2.2-0.8,3.2-1.5c0.9-0.7,1.7-1.5,2.3-2.5c0.6-1,1-2.1,1.2-3.2c0.2-1.2,0.1-2.4-0.1-3.5
			c-0.5-1.9-1.6-3.7-3.2-4.9C206.3,101.6,204.4,101,202.4,101L202.4,101z"/>
		<path class="st11" d="M202.4,106.1c1.7,0,3.2,1.1,3.6,2.8c0.5,2-0.7,4-2.7,4.5c-0.3,0.1-0.6,0.1-0.9,0.1c-1.7,0-3.2-1.1-3.6-2.8
			c-0.5-2,0.7-4,2.7-4.5C201.8,106.2,202.1,106.1,202.4,106.1 M202.4,102.7c-0.6,0-1.2,0.1-1.7,0.2c-3.8,0.9-6.2,4.8-5.2,8.7
			c0.4,1.6,1.3,3,2.6,3.9c1.2,1,2.8,1.5,4.4,1.5c0.6,0,1.2-0.1,1.7-0.2c1.9-0.5,3.4-1.6,4.4-3.2c1-1.6,1.3-3.6,0.8-5.4
			c-0.4-1.6-1.3-3-2.6-3.9C205.5,103.2,204,102.7,202.4,102.7L202.4,102.7z"/>
		<path class="st19" d="M202.4,106.1c1.7,0,3.2,1.1,3.6,2.8c0.5,2-0.7,4-2.7,4.5c-0.3,0.1-0.6,0.1-0.9,0.1c-1.7,0-3.2-1.1-3.6-2.8
			c-0.5-2,0.7-4,2.7-4.5C201.8,106.2,202.1,106.1,202.4,106.1 M202.4,104.4c-0.4,0-0.9,0.1-1.3,0.2c-2.9,0.7-4.7,3.7-4,6.6
			c0.3,1.2,1,2.2,1.9,3c0.9,0.7,2.1,1.1,3.3,1.1c0.4,0,0.9-0.1,1.3-0.2c1.4-0.3,2.6-1.2,3.3-2.5s1-2.7,0.6-4.1c-0.3-1.2-1-2.2-1.9-3
			C204.8,104.8,203.6,104.4,202.4,104.4L202.4,104.4z"/>
		<g>
			<polygon class="st2" points="202,109.9 205.4,106.3 205.1,108.4 224.4,103.6 225.3,100.8 226.1,100.6 225.2,103.4 226,103.2 
				226.8,100.4 227.6,100.2 226.8,103 227.6,102.9 228.4,100 229.2,99.8 228.4,102.7 229.2,102.5 229.5,104 228.7,104.1 
				230.8,106.3 230,106.5 228,104.3 227.2,104.5 229.2,106.7 228.4,106.9 226.4,104.7 225.6,104.9 227.7,107.1 226.9,107.3 
				224.8,105.1 205.4,109.9 206.7,111.5 			"/>
		</g>
	</g>
	<g>
		<rect x="158.9" y="130.3" class="st1" width="44.3" height="0.1"/>
		<rect x="158.9" y="134.5" class="st1" width="44.3" height="0.1"/>
		<rect x="158.9" y="138.7" class="st1" width="44.3" height="0.1"/>
		<rect x="158.9" y="142.9" class="st1" width="44.3" height="0.1"/>
		<rect x="158.9" y="147.1" class="st1" width="44.3" height="0.1"/>
		<rect x="158.9" y="151.4" class="st1" width="44.3" height="0.1"/>
		<rect x="158.9" y="155.6" class="st1" width="44.3" height="0.1"/>
		<rect x="158.9" y="159.8" class="st1" width="44.3" height="0.1"/>
		<rect x="158.9" y="164" class="st1" width="44.3" height="0.1"/>
		<polygon class="st20" points="203.9,171.9 158.3,171.9 158.4,128.3 159.5,128.3 159.4,170.8 203.9,170.8 		"/>
		<g>
			<polygon class="st16" points="162.5,167.1 162,166.6 177.1,149.5 184.4,144.8 191.8,140.5 199.3,131.1 199.9,131.5 192.3,141.1 
				184.8,145.5 177.6,150.1 			"/>
			<circle class="st16" cx="162.3" cy="166.9" r="0.9"/>
			<circle class="st16" cx="177.3" cy="149.8" r="0.9"/>
			<path class="st16" d="M193.1,140.7c0,0.5-0.4,0.9-0.9,0.9c-0.5,0-0.9-0.4-0.9-0.9c0-0.5,0.4-0.9,0.9-0.9
				C192.7,139.8,193.1,140.2,193.1,140.7z"/>
			<circle class="st16" cx="199.6" cy="131.3" r="0.9"/>
		</g>
		<g>
			<polygon class="st21" points="171.2,160.5 162,152.6 162.5,151.9 170.9,159.1 179.2,144 185.3,151.8 192.1,148.6 199.8,152.6 
				199.4,153.4 192,149.6 185,152.9 179.4,145.6 			"/>
			<circle class="st21" cx="179.2" cy="144.9" r="0.9"/>
			<circle class="st21" cx="185.2" cy="152.3" r="0.9"/>
			<circle class="st21" cx="192.2" cy="149.1" r="0.9"/>
			<path class="st21" d="M200.6,153c0,0.5-0.4,0.9-0.9,0.9c-0.5,0-0.9-0.4-0.9-0.9c0-0.5,0.4-0.9,0.9-0.9
				C200.1,152.1,200.6,152.5,200.6,153z"/>
		</g>
		<g>
			<polygon class="st11" points="199.5,168.6 192,167.2 184.7,166.4 176.9,162.3 169.8,153.4 161.9,138.3 162.6,138 170.4,153 
				177.4,161.7 184.9,165.7 192.1,166.4 192.1,166.4 199.7,167.9 			"/>
			<circle class="st11" cx="162.3" cy="138.2" r="0.9"/>
			<circle class="st11" cx="170.1" cy="153.3" r="0.9"/>
			<circle class="st11" cx="177.1" cy="162" r="0.9"/>
			<path class="st11" d="M185.7,166c0,0.5-0.4,0.9-0.9,0.9c-0.5,0-0.9-0.4-0.9-0.9c0-0.5,0.4-0.9,0.9-0.9
				C185.3,165.1,185.7,165.5,185.7,166z"/>
			<circle class="st11" cx="199.6" cy="168.3" r="0.9"/>
		</g>
		<g>
			<circle class="st21" cx="162.3" cy="152.3" r="0.9"/>
		</g>
	</g>
	<g>
		<path class="st13" d="M148.9,143.7c-2.4-0.2-8.6-0.7-12.4-1c1-2.7,1-12.1,1-12.1l13.7,1.1C151.2,131.7,150.8,142,148.9,143.7z"/>
		
			<rect x="138.8" y="138.2" transform="matrix(7.739768e-02 -0.997 0.997 7.739768e-02 -8.6791 268.2173)" class="st16" width="3.5" height="1.2"/>
		
			<rect x="140.2" y="137.6" transform="matrix(7.739768e-02 -0.997 0.997 7.739768e-02 -6.0383 269.822)" class="st2" width="5.1" height="1.2"/>
		
			<rect x="141.7" y="137" transform="matrix(7.739768e-02 -0.997 0.997 7.739768e-02 -3.5271 271.4757)" class="st11" width="6.5" height="1.2"/>
		
			<rect x="144.7" y="138.2" transform="matrix(7.739768e-02 -0.997 0.997 7.739768e-02 -2.7354 274.5579)" class="st2" width="4.6" height="1.2"/>
		<circle class="st2" cx="144.4" cy="131.3" r="1.5"/>
	</g>
	<g>
		<path class="st22" d="M211,157.6c-2.5,3.5-5.4,5.4-5.4,5.4s-10.5-3.3-11.9-4.5c-3-3.9-7-3.3-8.5-3.3c-4.5-0.1-5.5,2.2-4,3.6
			c1.6,1.4,4.2,2.4,4.2,2.4s0.5,0.6,5.7-0.1c0,0,14.9,12.1,20.1,5.2c5.3-6.9,5.6-7,5.6-7L211,157.6z"/>
		<path class="st23" d="M216.9,159.3c0,0-0.4,0.1-5.6,7c-5.3,6.9-20.1-5.2-20.1-5.2c-2.1,0.3-3.5,0.4-4.3,0.4c0.8-0.1,2.1-0.4,4-1
			c0,0,16.6,10.9,20.7,2.7c1-2,1.8-3.6,2.4-4.7L216.9,159.3z"/>
		<path class="st11" d="M219.7,145.5c0,0-8.1,11.4-9.2,12.7c2.7,2.5,7.1,4.3,8.2,4S230.6,150.8,219.7,145.5z"/>
		<path class="st8" d="M218.8,162.3c-0.2,0-0.5,0-0.8-0.1c3-3.2,8.8-11.7,3.2-17.1C230.7,150.5,219.9,162,218.8,162.3z"/>
		<path class="st22" d="M188.6,155.4c-2.1-0.2-3.9,0.1-4,0.8c-0.1,0.7,3.2,0.3,3.8,1.4"/>
		<path class="st24" d="M256.1,253.3L256.1,253.3c2.1-2.1,4.4-8.2,5.5-11.8l0.1,0C260.5,245.1,258.2,251.3,256.1,253.3z"/>
		<path class="st22" d="M241.8,214.1c4.1,10.7,14.9,20.7,18.9,24.1c0.9,0.8,1.3,2.1,0.9,3.3c-1.1,3.3-3.5,9.7-5.6,11.7
			c-2.9,2.8-1.9-5.1-1.6-11.3c0.3-6.3-4.7-6.7-21.2-26.4L241.8,214.1z"/>
		<path class="st2" d="M261.6,241.6c-1.1,3.3-3.5,9.7-5.6,11.7c-2.3,2.2-2.1-2.3-1.8-7.4c1.3-0.3,3-0.6,3.4-0.4
			c0.5,0.3,2.4-5,2.5-7.8c0.2,0.2,0.4,0.4,0.6,0.5C261.7,239.1,262,240.4,261.6,241.6z"/>
		<path class="st23" d="M243.6,218.1c-1.4,0.5-4.4,1.3-6.6,1.8c-0.5-0.6-1-1.1-1.5-1.7l7.1-2.2C242.9,216.7,243.2,217.4,243.6,218.1
			z"/>
		<path class="st22" d="M229.3,215.5c-2.9,27.8-1.7,38.4-0.5,42.4c0.4,1.3-0.5,2.6-1.8,2.6c-7.4,0.4-24.4,0.8-14.5-3.4
			c12.5-5.3,9.1-4.1,7.7-45.7L229.3,215.5z"/>
		<path class="st23" d="M229,218.5c-0.1,1.3-0.2,2.6-0.4,3.8c-1.8,0.5-5.2,1-7.9,1.2c-0.1-1.5-0.1-3-0.2-4.6L229,218.5z"/>
		<path class="st2" d="M227,260.5c-7.4,0.4-24.4,0.8-14.5-3.4c1.7-0.7,3.1-1.3,4.2-1.9c0.5,0.7,1.1,1.5,1.1,1.9
			c0,0,7.4-0.7,10.2-2.8c0.2,1.5,0.5,2.7,0.7,3.6C229.2,259.2,228.3,260.5,227,260.5z"/>
		<path class="st25" d="M227,260.5c-5.2,0.3-15.2,0.6-17.2-0.7c4,0.3,12.4-0.8,17.2-1.6c0.7-0.1,1.3-0.5,1.6-1.1
			c0.1,0.3,0.1,0.5,0.2,0.8C229.2,259.2,228.3,260.5,227,260.5z"/>
		<g>
			<path class="st21" d="M242.5,172.7c4.3,22.3-4.1,19,3.2,43.5c-25.2,6.4-28.4,4.8-28.4,4.8c-0.1-13.1-5.4-24.9-0.8-48.3H242.5z"/>
		</g>
		<g class="st26">
			<path d="M217,221c0-4.1-0.6-8.2-1.2-12.5c-1.3-9.3-2.8-19.9,0.4-35.9l0.8,0.1c-3.1,15.9-1.6,26.4-0.4,35.6
				c0.6,4.3,1.2,8.4,1.2,12.6L217,221z"/>
		</g>
		<g class="st26">
			<path d="M245.7,216.2c-1.2,0.3-2.4,0.6-3.5,0.9c-6.7-24.3,1.4-21.3-2.9-44.4h3.1C246.8,195,238.4,191.7,245.7,216.2z"/>
		</g>
		<g>
			<path class="st11" d="M229.7,141.8c-3.4,0.7-6.4,1.7-8.5,2.4c-1.5,0.5-2.2,2.3-1.5,3.7c1.8,3.3,4,9.4,1.2,15.4
				c-4.2,8.9-5.1,9.7-5.6,11.4c0,0,7.9,8.7,28.9,1.6c-0.7-11-7.5-13.4-1.2-29.3c0.6-1.5-0.3-3.2-1.8-3.6
				C230.1,140.8,229.7,141.8,229.7,141.8z"/>
		</g>
		<g class="st26">
			<path d="M244.1,176.3c-0.7-11-7.5-13.4-1.2-29.3c0.6-1.4-0.1-2.9-1.5-3.5c0.3,0.9,0.3,1.9-0.2,2.8c-2,3.6-2.7,8.1-5.3,9.7
				c0-0.1-3,2.3-5.8-0.2c-3.6-1.7-6,3.2-8-0.2c0,0,0,1.4,0,2.8c0.6,1.6,2.5,3.7,4.5,3.8c3,0.2,8,1.9,9.7,3.4c0.4,3.8,1.3,7.5,1,12.5
				C239.4,177.8,241.7,177.2,244.1,176.3z M236.9,166.7c-0.1,0.3-0.1,0.1-0.1-0.4C236.9,166.5,236.9,166.6,236.9,166.7z"/>
		</g>
		<g class="st26">
			<path d="M236.9,166.7c-0.1,0.3-0.1,0.1-0.1-0.4C236.9,166.5,236.9,166.6,236.9,166.7z"/>
		</g>
		<g>
			<path d="M236.9,166.7c-0.1,0.3-0.1,0.1-0.1-0.4C236.9,166.5,236.9,166.6,236.9,166.7z"/>
		</g>
		<g>
			<path class="st11" d="M242.7,144.7l7.9,14.1c0,0-9.4,3.2-11.5,4c-0.2-10-5.2-15.6,1.3-19.2C240.8,143.4,242,143.5,242.7,144.7z"
				/>
			<path class="st16" d="M223.9,159.9c8-1.3,16-2.3,16-2.3l2.8,22.6l-16.4,3.2L223.9,159.9z"/>
			<path class="st22" d="M242.7,161.6c3.4,8.3,3.3,8.2-11.9,9.8c-6.9-2.7-7.6-0.9-6.7,3c0.7,3.4,2.3,2.6,6.7,1
				c4.5-1.6,15.1-0.4,18.9-3.3c3.8-2.9-0.7-12.7-0.7-12.7L242.7,161.6z"/>
			<path class="st23" d="M249.7,172.1c-3.8,2.9-14.5,1.7-18.9,3.3c-1.1,0.4-2,0.7-2.8,1c0.6-0.3,1.2-0.7,1.9-1.1
				c4.2-2.3,14.9-2.6,18.2-6.1c2-2.1,0.7-6.3-0.7-9.3l1.5-0.5C248.9,159.4,253.5,169.2,249.7,172.1z"/>
		</g>
		<g>
			<path class="st22" d="M226.7,136.2c1.1,2.9,1.2,5.5-0.9,6.6c0.7,5.6,7.3-0.2,8-0.7c-2.7-3-3-5.5-2.3-8.5
				C232.1,130.6,226.7,136.2,226.7,136.2z"/>
			<path class="st23" d="M233.7,142.2c-0.1,0.1,0.1-0.1-0.5,0.3c-2.6-3.1-3.5-5.1-2.8-8.2c0.2-0.8-0.1-1.1-0.5-1
				c1-0.7,1.8-0.9,1.5,0.3C230.8,136.7,231,139.1,233.7,142.2z"/>
			<path class="st3" d="M234.9,132.6c1.7,2.6,5.7,4.2,2.2,10l7.1,1.5c0,0,6.6-13.9-8.5-15.5S234.9,132.6,234.9,132.6z"/>
			<defs>
				
					<filter id="Adobe_OpacityMaskFilter_00000027596612655290541490000002212892231420079247_" filterUnits="userSpaceOnUse" x="229.2" y="129.4" width="14.1" height="15.7">
					<feColorMatrix  type="matrix" values="1 0 0 0 0  0 1 0 0 0  0 0 1 0 0  0 0 0 1 0"/>
				</filter>
			</defs>
			
				<mask maskUnits="userSpaceOnUse" x="229.2" y="129.4" width="14.1" height="15.7" id="d_00000007406727388235219340000016070096259809900439_">
				<g style="filter:url(#Adobe_OpacityMaskFilter_00000027596612655290541490000002212892231420079247_);">
					<path class="st28" d="M234.9,132.6c1.7,2.6,5.7,4.2,2.2,10l7.1,1.5c0,0,6.6-13.9-8.5-15.5S234.9,132.6,234.9,132.6z"/>
				</g>
			</mask>
			<g class="st29">
				<path class="st28" d="M238.2,143.9L238.2,143.9c1.6-2.7,2.1-5,1.6-6.9c-0.9-3-4.7-4.7-8.3-6.4c-0.2-0.1-0.4-0.2-0.5-0.2l0-0.1
					c0.2,0.1,0.4,0.2,0.5,0.2c3.7,1.6,7.4,3.3,8.4,6.4C240.5,139,239.9,141.2,238.2,143.9z"/>
				<path class="st28" d="M240.8,144.8L240.8,144.8c0-1.2,0.1-2.4,0.2-3.4c0.3-3.1,0.6-5.4-0.7-7.2c-1.3-1.9-4.3-3.3-9.9-4.6l0-0.1
					c5.6,1.3,8.6,2.7,10,4.6c1.3,1.9,1,4.1,0.7,7.3C241,142.5,240.9,143.6,240.8,144.8z"/>
				<path class="st28" d="M242.8,145.1L242.8,145.1c0-2.1,0.1-3.8,0.2-5.4c0.3-3.7,0.4-5.7-1.3-7.1c-1.8-1.5-5.6-2.2-12.5-3.1l0-0.1
					c14.5,1.9,14.4,3,13.9,10.3C242.9,141.2,242.8,143,242.8,145.1z"/>
			</g>
			<path class="st3" d="M235,132.8c0.3,0.4,0.6,0.7,0.9,1.1c0.3,0.4,0.5,0.8,0.8,1.2c0.2,0.4,0.4,0.8,0.6,1.3
				c0.2,0.4,0.3,0.9,0.4,1.4c0.1,0.5,0.1,0.9,0,1.4c-0.1,0.5-0.2,0.9-0.4,1.4c-0.2,0.4-0.4,0.8-0.7,1.2l-0.2,0.3l-0.2,0.3
				c0,0-0.1,0.1-0.1,0.1l-0.1,0.1l-0.3,0.2l0.2-0.3l0.1-0.1c0,0,0.1-0.1,0.1-0.1l0.2-0.3l0.2-0.3c0.1-0.1,0.1-0.2,0.2-0.3
				c0.1-0.1,0.1-0.2,0.2-0.3c0-0.1,0.1-0.2,0.2-0.3l0.1-0.3c0.3-0.8,0.4-1.8,0.3-2.6c-0.1-0.4-0.2-0.9-0.3-1.3
				c-0.2-0.4-0.3-0.8-0.6-1.2c-0.2-0.4-0.4-0.8-0.7-1.2C235.5,133.6,235.3,133.2,235,132.8z"/>
			<path class="st3" d="M230.7,135.2c0.2,0,0.5,0.1,0.7,0.1c0.2,0,0.5,0,0.7,0c0.5,0,0.9-0.1,1.3-0.2c0.4-0.2,0.8-0.4,1.1-0.8
				c0.3-0.4,0.5-0.8,0.7-1.2c-0.1,0.5-0.2,0.9-0.5,1.4c-0.1,0.2-0.3,0.4-0.5,0.6c-0.2,0.2-0.4,0.3-0.7,0.4c-0.5,0.2-1,0.2-1.5,0.2
				C231.6,135.5,231.1,135.4,230.7,135.2z M232.9,128.6c0.3-0.2,0.7-0.3,1.1-0.3c0.4-0.1,0.7-0.1,1.1-0.1c0.4,0,0.7,0,1.1-0.1
				c0.4,0,0.7-0.1,1-0.3c-0.1,0.1-0.3,0.2-0.5,0.3c-0.2,0.1-0.4,0.1-0.5,0.2c-0.4,0.1-0.7,0.1-1.1,0.1c-0.4,0-0.7,0-1.1,0.1
				C233.6,128.5,233.3,128.5,232.9,128.6z"/>
			<path class="st22" d="M221.5,125.6c-1.8,8.4-0.1,13.7,2.6,14.1c1.6,0.3,2.7-0.4,3.9-1.5c4.7-4.4,3.5-8.9,3.6-10.1
				C231.7,126.9,222.3,121.8,221.5,125.6z"/>
			<path class="st23" d="M231.8,128c0,1.1,0.8,5.1-3.1,9.6c2.7-4.7,2.4-8.3,0-10.8c-0.2-0.2,1.4-0.1,0.7-0.8
				C230.8,126.8,231.8,127.6,231.8,128z"/>
			<path class="st2" d="M234.6,125.6c-0.9-2.1-10.2-6-13.4-1.1c-0.7,1.4-0.1,2.7-0.1,2.7c0.3-0.2,0.6-2.1,2.3-1.2
				c4.1-1.7,5.5,2,8,4.9c-0.3,1.7-0.3,4-0.3,4c2.4-0.5,3.9-0.9,4.2-3.3c0,0,0,0,0,0C235.7,130,235.3,127,234.6,125.6z"/>
			<defs>
				
					<filter id="Adobe_OpacityMaskFilter_00000052823468629206508370000002667695020043956119_" filterUnits="userSpaceOnUse" x="223.5" y="122.4" width="12.6" height="10.4">
					<feColorMatrix  type="matrix" values="1 0 0 0 0  0 1 0 0 0  0 0 1 0 0  0 0 0 1 0"/>
				</filter>
			</defs>
			
				<mask maskUnits="userSpaceOnUse" x="223.5" y="122.4" width="12.6" height="10.4" id="f_00000063626927636652917200000010057768251016600996_">
				<g style="filter:url(#Adobe_OpacityMaskFilter_00000052823468629206508370000002667695020043956119_);">
					<path class="st31" d="M234.6,125.6c-0.9-2.1-10.2-6-13.4-1.1c-0.7,1.4-0.1,2.7-0.1,2.7c0.3-0.2,0.3-2,2-1
						c4.1-1.7,5.9,1.8,8.3,4.8c-0.3,1.7-0.3,4-0.3,4c2.4-0.5,3.9-0.9,4.2-3.3c0,0,0,0,0,0C235.7,130,235.3,127,234.6,125.6z"/>
				</g>
			</mask>
			<g class="st32">
				<path class="st28" d="M223.6,126.9L223.6,126.9c0-0.2,0-0.4-0.1-0.7c-0.1-0.9-0.2-2.1,0.8-3c1.2-1,3.6-1.1,7.3-0.2l0,0.1
					c-3.6-0.9-6.1-0.8-7.2,0.2c-1,0.8-0.9,2.1-0.8,2.9C223.6,126.5,223.7,126.7,223.6,126.9z"/>
				<path class="st28" d="M225.5,126.8L225.5,126.8c-0.1,0,0.2-2.2,2.8-2.6c2.7-0.4,5.3-0.1,6.8,0.9l0,0.1c-1.5-0.9-4.1-1.3-6.7-0.9
					C225.8,124.8,225.5,126.8,225.5,126.8z"/>
				<path class="st28" d="M227.3,127.7L227.3,127.7c0-0.1,1.3-1,3-1.7c1.6-0.6,3.9-1.1,5.6,0l0,0.1
					C232.5,124,227.3,127.7,227.3,127.7z M229.6,129.1c-0.2,0-0.3,0-0.3,0l0-0.1c0,0,0.6,0.2,2.2-0.4c1-0.3,2-0.8,2.9-1.2
					c0.6-0.3,1.2-0.5,1.6-0.7l0,0.1c-0.5,0.2-1,0.4-1.6,0.7c-0.9,0.4-1.9,0.9-2.9,1.2C230.6,129,230,129.1,229.6,129.1z
					 M229.8,129.9L229.8,129.9c0-0.1,4.9-0.9,5.6-2.4l0.1,0C234.8,129,230,129.8,229.8,129.9z"/>
				<path class="st28" d="M231.9,132.8L231.9,132.8c0.2-0.2,0.5-0.3,0.7-0.4c1.9-0.8,2.9-1.2,3-5.2l0.1,0c-0.1,4-1.2,4.5-3,5.2
					C232.4,132.6,232.2,132.7,231.9,132.8z"/>
			</g>
			<path class="st23" d="M231.2,131.2c1.6-1.9,2.9-0.8,2.9,0.3c0,1.2-2.7,3.9-3.5,1.9C230.3,132.5,231.2,131.2,231.2,131.2z"/>
			<path class="st33" d="M223.3,130.9c0.1,0.1,0.1,0.2,0.1,0.3c0,0.1,0,0.2,0,0.3c0,0.2,0,0.4,0,0.6c-0.1,0.4-0.2,0.8-0.4,1.2
				c0,0.1-0.1,0.2-0.1,0.3l0,0l0,0c0,0,0,0,0,0.1c0,0,0,0.1-0.1,0.1c0,0.1,0,0.2,0,0.2c0,0,0,0,0,0c0,0,0,0,0.1,0.1
				c0.1,0,0.2,0.1,0.3,0.1c0.1,0,0.2,0,0.3,0c0.2,0,0.4,0.1,0.6,0.1c-0.2,0-0.4,0.1-0.6,0.1c-0.1,0-0.2,0-0.3,0c-0.1,0-0.2,0-0.3,0
				c-0.1,0-0.1,0-0.2-0.1c-0.1,0-0.1-0.1-0.1-0.2c0-0.1,0-0.2,0-0.2c0-0.1,0-0.1,0-0.2c0-0.1,0-0.1,0.1-0.2c0,0,0-0.1,0-0.1l0,0l0,0
				l0,0c0-0.1,0.1-0.2,0.1-0.3c0.2-0.4,0.3-0.8,0.4-1.2c0.1-0.2,0.1-0.4,0.2-0.6C223.4,131.3,223.4,131.1,223.3,130.9z"/>
			<path class="st28" d="M225.4,135.5c-1.8,0.6-2.8,0.2-2.8,0.2S223.4,139.4,225.4,135.5z"/>
			<path class="st34" d="M221.2,129.9c0.1-0.1,0.2-0.1,0.3-0.2c0.1,0,0.2,0,0.4,0c0.1,0,0.2,0,0.3,0.1c0.1,0,0.1,0.1,0.2,0.1
				c0,0,0,0,0.1,0.1c0,0,0,0.1,0,0.1c-0.1,0-0.1,0-0.2,0c-0.1,0-0.1,0-0.2,0c-0.1,0-0.2,0-0.3,0c-0.1,0-0.2,0-0.3-0.1
				C221.4,130,221.3,130,221.2,129.9z M224.4,130.1c0.1-0.2,0.3-0.3,0.5-0.4c0.2-0.1,0.4-0.2,0.5-0.2c0.2,0,0.4,0,0.6,0
				c0.2,0,0.4,0.1,0.6,0.2c-0.2,0-0.4,0.1-0.5,0.1l-0.5,0.1c-0.2,0-0.3,0.1-0.5,0.1C224.8,130,224.6,130.1,224.4,130.1z"/>
			<path class="st23" d="M226.4,133.1c0,0.1,0,0.2-0.1,0.2c-0.1,0-0.2,0-0.2-0.1c0-0.1,0-0.2,0.1-0.2
				C226.3,132.9,226.4,133,226.4,133.1z M227.3,132.8c0,0.1,0,0.2-0.1,0.2c-0.1,0-0.2,0-0.2-0.1c0-0.1,0-0.2,0.1-0.2
				C227.2,132.7,227.3,132.7,227.3,132.8z M227.1,133.5c0,0.1,0,0.1-0.1,0.1c-0.1,0-0.1,0-0.1-0.1c0-0.1,0-0.1,0.1-0.1
				C227.1,133.4,227.1,133.5,227.1,133.5z M227.2,132.4c0,0.1,0,0.1-0.1,0.1c-0.1,0-0.1,0-0.1-0.1c0-0.1,0-0.1,0.1-0.1
				C227.1,132.3,227.1,132.3,227.2,132.4z M226.5,133.9c0,0,0,0.1-0.1,0.1c0,0-0.1,0-0.1-0.1c0,0,0-0.1,0.1-0.1
				C226.5,133.9,226.5,133.9,226.5,133.9z M225.8,133.8c0,0.1,0,0.1-0.1,0.1s-0.2,0-0.2-0.1c0-0.1,0-0.1,0.1-0.1
				S225.7,133.7,225.8,133.8z M225.5,133.1C225.5,133.2,225.5,133.2,225.5,133.1c-0.1,0.1-0.2,0.1-0.2,0
				C225.3,133.1,225.4,133.1,225.5,133.1C225.5,133.1,225.5,133.1,225.5,133.1z"/>
			<g>
				<path class="st23" d="M221.3,134c0.1,0,0.1,0.1,0,0.2c0,0.1-0.1,0.1-0.2,0c-0.1,0-0.1-0.1,0-0.2C221.2,134,221.2,134,221.3,134z
					 M221.6,133.4c0,0,0.1,0.1,0,0.1c0,0-0.1,0.1-0.1,0c0,0-0.1-0.1,0-0.1C221.5,133.4,221.6,133.4,221.6,133.4z M221.9,133.9
					c0,0,0.1,0.1,0,0.1c0,0-0.1,0.1-0.1,0c0,0-0.1-0.1,0-0.1C221.8,133.9,221.8,133.8,221.9,133.9z M221.3,133.3c0,0,0,0.1,0,0.1
					c0,0-0.1,0-0.1,0c0,0,0-0.1,0-0.1C221.2,133.3,221.2,133.3,221.3,133.3z M221.8,134.4C221.8,134.4,221.9,134.4,221.8,134.4
					c0,0.1,0,0.1-0.1,0.1C221.7,134.5,221.7,134.4,221.8,134.4C221.7,134.4,221.8,134.4,221.8,134.4z"/>
			</g>
			<g>
				<path class="st28" d="M224.1,139.7"/>
			</g>
			<g>
				<path d="M224.9,131.7c0.1-0.2,0.2-0.3,0.4-0.4c0.2-0.1,0.3-0.2,0.5-0.2c0.2,0,0.4,0,0.6,0.1c0.1,0,0.2,0.1,0.3,0.1
					c0.1,0,0.2,0.1,0.2,0.2c-0.1,0-0.2,0-0.3,0c-0.1,0-0.2,0-0.2,0c-0.2,0-0.3,0-0.5,0c-0.2,0-0.3,0-0.5,0.1
					C225.3,131.5,225.1,131.6,224.9,131.7z"/>
			</g>
			<g>
				<path d="M226.3,132c-0.1,0.4-0.4,0.7-0.7,0.7c-0.3,0-0.6-0.4-0.5-0.8s0.4-0.7,0.7-0.7C226.1,131.2,226.3,131.6,226.3,132z"/>
			</g>
			<g>
				<path d="M222.6,131.9c-0.1-0.1-0.3-0.2-0.4-0.2c-0.1-0.1-0.2-0.1-0.4-0.2c-0.1,0-0.1,0-0.2,0c-0.1,0-0.1,0-0.2,0
					c0,0-0.1,0-0.1,0c0,0-0.1,0-0.1,0c-0.1,0-0.1,0-0.2,0c0,0,0.1-0.1,0.1-0.1c0,0,0.1-0.1,0.1-0.1c0,0,0.1,0,0.1-0.1c0,0,0,0,0.1,0
					c0,0,0,0,0.1,0c0.1,0,0.2,0,0.2,0c0,0,0.1,0,0.1,0c0,0,0.1,0,0.1,0c0.2,0.1,0.3,0.2,0.4,0.3
					C222.5,131.6,222.6,131.7,222.6,131.9z"/>
			</g>
			<g>
				<path d="M221.2,132c0,0.4,0.2,0.7,0.5,0.7c0.3,0,0.5-0.3,0.5-0.6c0-0.4-0.2-0.7-0.5-0.7C221.5,131.3,221.2,131.6,221.2,132z"/>
			</g>
		</g>
		<g class="st26">
			<path d="M231.4,215.8c-0.9-1.1-2-2.6-2.5-5.3c-0.4-2.6-0.3-6,0.5-10.4l0.6,0.1c-1.6,9-0.4,12.6,1.8,15.2L231.4,215.8z"/>
		</g>
		<g class="st26">
			<path d="M221.4,198.9c-0.7,0-1-0.2-1.1-0.2l0.1-0.3l0.1-0.3c0,0,0.8,0.4,2.8-0.2c1.8-0.6,5.1-2.1,10.1-6.3l0.4,0.5
				C226.9,198,223.1,198.9,221.4,198.9z"/>
		</g>
	</g>
	<g>
		<path class="st21" d="M96.3,133.8c7.2,3.5,8.5,19.5,9.8,20.5c1.3,0.9,1.8,7.2,1.5,7.5c-0.3,0.3-5,2.6-6.2,0.8
			c-1.2-1.8-4.9-11.6-6.3-16.7"/>
		<path class="st35" d="M94.6,142.8c0,1,0.1,2.1,0.4,3.1c1.4,5.2,5.1,14.9,6.3,16.7c1.2,1.8,6-0.5,6.2-0.8c0.1-0.1,0.1-0.5,0.1-1
			c-1,0.5-2.4,0.7-3.1-0.3c-1.4-1.8-7.7-10.9-9.5-15.9C94.9,143.9,94.7,143.4,94.6,142.8z"/>
		<path class="st22" d="M110.4,155.5c2.8-0.7,16-5.2,18.6-6.4c2.8,4.6,0,5.6,0,5.6s-16.3,4.6-17.1,6.1
			C109.9,157.8,110.4,155.5,110.4,155.5z"/>
		<path class="st23" d="M111.9,160.8c0.8-1.6,17.1-6.1,17.1-6.1s0.3-0.1,0.7-0.5c-3.1,0.6-17.2,3.4-18,4.7c-0.7-1.2-1.1-2.2-1.2-3.1
			C110.3,156.6,110.3,158.5,111.9,160.8z"/>
		<path class="st36" d="M106,155.7c-0.1-2.1,4-1.7,3.7-1.1c0.1,0.4,2.3-0.1,2.3-0.1s2,7.4,1.3,7.7c-0.6,0.3-2.4,1.5-3.9,1.3
			c-0.6,1.9-3.1,1.5-3.4,0.4S106,155.7,106,155.7z"/>
		<path class="st23" d="M131.2,150.8c1.5-0.2,2.3,1.2,4.1,1.2c1.8,0,3-0.3,2.8,0.4c-0.2,0.7,0.2,1.5-3.4,0.9
			C131,152.8,131.2,150.8,131.2,150.8z"/>
		<path class="st22" d="M129,149.1c3-0.5,4.5,3.4,7.9,4.4c3.5,1,5.2-1.4,5.9-0.6c0.7,0.8-1.5,2.5-4.8,2.9c-3.3,0.4-6.1-2-9-1.2
			C126.1,155.5,129,149.1,129,149.1z"/>
		<path class="st36" d="M94.1,237.8c-0.4,10.2,5,12.1,9.6,13.5c4.6,1.5,7.1,5.1,7.1,8.2H92.3c0,0-0.2-2.2-1.4-2.2v2.2h-7
			c0,0-0.7-4.7,1.2-9c1.9-4.3,1.4-12.8,1.4-12.8H94.1z"/>
		<path class="st8" d="M86.6,240.8h7.6c-0.1-0.7-0.1-1.4-0.1-2.1h-7.5C86.6,239.3,86.6,240,86.6,240.8z"/>
		<path class="st37" d="M83.9,259.6h7v-2.2c1.2,0,1.4,2.2,1.4,2.2h18.5c0-3.1-2.5-6.7-7.1-8.2c-2.6-0.8-5.6-1.8-7.5-4.5
			c-2.7,2-5.2,5.3-7.8,4.2c-1.6-0.7-2.4-1.4-2.8-1.8c-0.1,0.5-0.3,0.9-0.5,1.4C83.2,254.9,83.9,259.6,83.9,259.6z"/>
		<path class="st36" d="M68.4,237.8c0.4,10.2-5,12.1-9.6,13.5c-4.6,1.5-7.1,5.1-7.1,8.2h18.5c0,0,0.2-2.2,1.4-2.2v2.2h7
			c0,0,0.7-4.7-1.2-9c-1.9-4.3-1.4-12.8-1.4-12.8H68.4z"/>
		<path class="st8" d="M75.8,240.7h-7.6c0.1-0.7,0.1-1.4,0.1-2.1h7.5C75.9,239.1,75.8,239.9,75.8,240.7z"/>
		<path class="st37" d="M78.6,259.6h-7v-2.2c-1.2,0-1.4,2.2-1.4,2.2H51.7c0-3.1,2.5-6.7,7.1-8.2c2.6-0.8,5.6-1.8,7.5-4.5
			c2.7,2,5.2,5.3,7.8,4.2c1.6-0.7,2.4-1.4,2.8-1.8c0.1,0.5,0.3,0.9,0.5,1.4C79.3,254.9,78.6,259.6,78.6,259.6z"/>
		<path class="st2" d="M64.7,247.2l5.5-81l15.3,0.4h11.6c-0.8,26.6-0.8,80.6-0.8,80.6h-12l-0.8-58.6L77.9,248L64.7,247.2z"/>
		<polygon class="st8" points="64.7,247.2 68,247.4 71.9,166.2 70.3,166.1 		"/>
		<polygon class="st8" points="83.5,188.5 84.3,247.1 88.1,247.1 		"/>
		<path class="st21" d="M85.8,131.9c9.2,0.8,10.5,2,10.5,2s0,16.7,0.9,21.1c0.6,2.9,0.2,7.4-0.1,13.7c-3.8-0.1-7.5-1.7-11.3-0.9
			s-14,1.2-15.1-2.7c-1.1-4,1.9-11.9,1.3-17.4c0,0,0.8-12.1,0.7-14.1C72.5,131.5,85.8,131.9,85.8,131.9z"/>
		<path class="st35" d="M70.6,165.6c1.1,4,11.4,2.9,15.2,2.1c3.8-0.8,6.9,0.8,11.2,1c0-0.5-0.1-0.7,0.1-1C94,167,93,166.5,90,167
			c-4.2,0.6-15.7,1.1-16.7-3.4c-1-4.5,2-12.5,1.7-18.7l-3.1,2.7C72.5,153.1,69.4,161.7,70.6,165.6z"/>
		<path class="st22" d="M89.3,122.1c-0.5,2-1,8.8,0,10.1c-2,2.7-2.4,3.3-2.4,3.3s-3-2.3-5.2-3.7c2.2-5,2-10.3,2-10.3L89.3,122.1z"/>
		<polygon class="st36" points="91,138.1 86.6,135.8 81.1,138 78.9,132 79.3,131.9 81.4,137.4 86.6,135.3 90.7,137.4 91.5,132.5 
			91.9,132.6 		"/>
		<path class="st36" d="M87.4,167.7l-0.4-0.2c0,0,1-2.3,0-5.1c-1.1-2.9-0.7-25.9-0.7-26.9l0.4,0c0,0.2-0.4,23.9,0.6,26.7
			C88.5,165.2,87.5,167.6,87.4,167.7z"/>
		<path class="st21" d="M72.9,133.1c2.6-2,2.9,12.1,2.1,12.9c-0.8,0.7-9.1,12.6-9.9,13.8s-11.2-2.2-7.4-7.3
			C61.5,147.4,65.9,138.5,72.9,133.1z"/>
		<path class="st35" d="M63.1,158.5c0.8,1.1,1.7,1.7,2,1.3c0.8-1.2,9-13.1,9.9-13.8c0.2-0.2,0.4-0.9,0.5-1.9
			c-0.2,0.4-0.3,0.7-0.5,0.8C74.1,145.6,65.7,155.3,63.1,158.5z"/>
		<path class="st36" d="M66.8,156.4c-2.3,2.2-5.2,6.1-5.2,6.1s-2.5,0.5-2.7-1.6c-1.4-0.1-4.7-0.9-2.9-5.2c2.3-5.3,5.5-5.6,9.2-2.8
			c0,0,0,0,0,0C67.2,153.2,68,155.2,66.8,156.4z"/>
		<path class="st8" d="M66.8,156.4c-2.3,2.2-5.2,6.1-5.2,6.1s-2.5,0.5-2.7-1.6c-1.3-0.1-4.1-0.8-3.3-4.1c-0.1,2.1,3.5,3.3,3.5,3.3
			s5.6-1.7,6.6-6.2c0.1-0.3,0.1-0.6,0.2-0.8C67.4,153.7,67.9,155.3,66.8,156.4z"/>
		<path class="st22" d="M76.4,170.3c-2.9-2.9-9.6-10.1-10-12.6c-0.3-2.5-7-1.2-7.2,1.2c-0.3,2.4,8.1,8.6,11.5,12.9
			C74.4,176.7,76.4,170.3,76.4,170.3z"/>
		<path class="st23" d="M75.3,172.4c-1,1.3-2.5,2.3-4.7-0.5c-1.2-1.5-2.9-3.3-4.7-5c2.2,1.5,4.5,3,6,4.3
			C73.5,172.6,74.6,172.8,75.3,172.4z"/>
		<path class="st35" d="M70.6,172.4c-0.1-0.1-0.1-0.2-0.1-0.2C70.5,172.2,70.5,172.3,70.6,172.4z M105.9,161.7c0,1,0.1,1.8,0.1,2.1
			c0.3,1.1,2.8,1.6,3.4-0.4c1.5,0.2,3.2-1,3.9-1.3c0.2-0.1,0.1-1.2-0.1-2.4c-1.1,0.4-2.5,0.9-3.8,0.8
			C108.8,161.9,107,162.1,105.9,161.7z"/>
		
			<rect x="78.5" y="174.7" transform="matrix(8.750342e-02 -0.9962 0.9962 8.750342e-02 -95.9285 245.1917)" class="st14" width="14.7" height="0.4"/>
		<path class="st14" d="M96.8,174.5c0,0-0.1,0-0.1,0c-0.1-0.1-2-1.5-3.1-4.3c0-0.1,0-0.2,0.1-0.3c0.1,0,0.2,0,0.3,0.1
			c1,2.7,2.9,4.1,2.9,4.1c0.1,0.1,0.1,0.2,0,0.3C96.9,174.4,96.9,174.5,96.8,174.5z"/>
		<g>
			<path class="st14" d="M71.9,174.9c-0.1,0-0.2-0.1-0.2-0.2c0-0.1,0-0.2,0.2-0.3c1.6-0.4,2.8-1.3,3.6-2.6c0.6-1,0.8-1.8,0.8-1.8
				c0-0.1,0.1-0.2,0.3-0.2c0.1,0,0.2,0.1,0.2,0.3c0,0-0.2,0.9-0.8,2C75.2,173,74.1,174.3,71.9,174.9
				C71.9,174.9,71.9,174.9,71.9,174.9z"/>
		</g>
		<g>
			<path class="st23" d="M88.8,129.2c-1.4-0.3-2.3-1.1-5.2-4.6c0-0.2,0-0.4,0.1-0.5l5.3,1C88.8,126.4,88.7,127.9,88.8,129.2z"/>
		</g>
		<g>
			<path class="st22" d="M92.1,110.3c2,12.4,0.1,17-2.7,17.4c-3.2,0.4-7-1.1-9.1-8.2C78.2,112.4,84.6,103.4,92.1,110.3z"/>
			<path class="st37" d="M82.8,113.1c7.8-0.8,8.6,2.4,12.3-2.7c2.1-2.9-6.7-5.3-7.3-5.2c-0.7,0.1,0,2.2-4.4,1.6
				c-4.4-0.6-4.5,1.8-4.1,3.5C79.6,112.1,81.4,113.2,82.8,113.1z"/>
			<defs>
				
					<filter id="Adobe_OpacityMaskFilter_00000155145444584156440880000001026549882449586595_" filterUnits="userSpaceOnUse" x="78.5" y="105.3" width="20.6" height="7.2">
					<feColorMatrix  type="matrix" values="1 0 0 0 0  0 1 0 0 0  0 0 1 0 0  0 0 0 1 0"/>
				</filter>
			</defs>
			
				<mask maskUnits="userSpaceOnUse" x="78.5" y="105.3" width="20.6" height="7.2" id="h_00000122703907351145750640000009276129087845430668_">
				<g style="filter:url(#Adobe_OpacityMaskFilter_00000155145444584156440880000001026549882449586595_);">
					<path class="st28" d="M82.8,113.1c7.8-0.8,17,2.3,13.9-3c-3.2-5.3-5.1-4.9-5.7-4.7c-0.7,0.1-1.2,1.4-5.6,0.9
						c-4.4-0.6-6.6,2.5-6.2,4.2C79.6,112.1,81.4,113.2,82.8,113.1z"/>
				</g>
			</mask>
			<g class="st39">
				<path class="st40" d="M78.5,111.2c0.1-0.2,0.2-0.3,0.3-0.5c0.1-0.2,0.2-0.3,0.4-0.5c0.3-0.3,0.5-0.7,0.8-1
					c0.1-0.2,0.3-0.3,0.4-0.4c0.1-0.1,0.2-0.1,0.2-0.2l0.1-0.1c0,0,0.1-0.1,0.1-0.1c0.3-0.3,0.7-0.5,1.1-0.7
					c0.4-0.2,0.8-0.3,1.2-0.4c0.1,0,0.2,0,0.3-0.1l0.2,0l0,0l0,0c0,0,0.1,0,0.1,0c0.2,0,0.4,0,0.7,0c0.8,0.1,1.6,0.2,2.5,0.2
					c0.4,0,0.8,0.1,1.2,0.1c0.4,0,0.8,0.1,1.2,0.1c0.8,0,1.6,0,2.4-0.1c0.8-0.1,1.6-0.3,2.3-0.6c0.2-0.1,0.3-0.2,0.5-0.3
					c0.2-0.1,0.3-0.2,0.5-0.4c0.3-0.3,0.5-0.6,0.7-1c0,0.2-0.1,0.4-0.2,0.6c-0.1,0.2-0.2,0.4-0.3,0.6c-0.1,0.2-0.3,0.3-0.4,0.5
					c-0.2,0.1-0.3,0.3-0.5,0.4c-0.2,0.1-0.4,0.2-0.6,0.3c-0.2,0.1-0.4,0.2-0.6,0.3c-0.4,0.1-0.8,0.3-1.2,0.3c-0.2,0-0.4,0.1-0.6,0.1
					c-0.2,0-0.4,0-0.6,0.1c-0.4,0-0.8,0-1.3,0.1c-0.4,0-0.8,0-1.2,0c-0.4,0-0.8-0.1-1.2-0.1c-0.4,0-0.8-0.1-1.2-0.1
					c-0.4-0.1-0.8-0.1-1.2-0.1c-0.2,0-0.4,0-0.6,0c0,0,0,0-0.1,0l0,0l0,0l-0.1,0c-0.1,0-0.2,0-0.3,0c-0.4,0.1-0.7,0.1-1.1,0.3
					l-0.1,0.1c0,0-0.1,0-0.1,0.1l-0.3,0.1l-0.3,0.1c-0.1,0-0.2,0.1-0.3,0.1c-0.3,0.2-0.7,0.4-1,0.7c-0.3,0.2-0.6,0.5-0.9,0.8
					c-0.1,0.1-0.3,0.3-0.4,0.4C78.8,110.9,78.7,111,78.5,111.2z"/>
				<path class="st41" d="M78.5,112.1c0.7-0.5,1.5-1,2.3-1.4c0.1-0.1,0.2-0.1,0.3-0.1l0.3-0.1c0.2-0.1,0.4-0.2,0.6-0.2
					c0.2-0.1,0.4-0.1,0.6-0.2c0.2-0.1,0.4-0.1,0.7-0.2c0.9-0.2,1.8-0.3,2.7-0.3c0.9-0.1,1.8,0,2.7,0l1.3,0.1l0.7,0
					c0.1,0,0.2,0,0.3,0l0.3,0l0.7,0c0.2,0,0.4,0,0.7,0l0.3,0c0.1,0,0.2,0,0.3,0l0.7,0c0.9-0.1,1.8-0.2,2.6-0.4
					c0.9-0.2,1.7-0.5,2.5-0.9c-0.4,0.2-0.8,0.4-1.2,0.6c-0.4,0.2-0.8,0.3-1.3,0.4c-0.9,0.2-1.7,0.4-2.6,0.5l-0.7,0.1
					c-0.1,0-0.2,0-0.3,0l-0.3,0c-0.2,0-0.4,0-0.7,0l-0.7,0l-0.3,0c-0.1,0-0.2,0-0.3,0l-0.7,0l-1.3-0.1c-0.9,0-1.8-0.1-2.7,0
					c-0.9,0-1.8,0.1-2.6,0.3c-0.9,0.2-1.7,0.4-2.5,0.8c-0.2,0.1-0.4,0.2-0.6,0.3l-0.3,0.2l-0.3,0.2
					C79.3,111.6,78.9,111.8,78.5,112.1z"/>
				<path class="st42" d="M79.9,112.5c0.2-0.1,0.4-0.2,0.6-0.3c0.2-0.1,0.4-0.1,0.6-0.2c0.4-0.1,0.8-0.2,1.2-0.2
					c0.8-0.1,1.6-0.2,2.4-0.2c0.8,0,1.6,0,2.4,0l2.4,0c0.8,0,1.6,0,2.4,0c0.8,0,1.6-0.1,2.4-0.2c0.4-0.1,0.8-0.2,1.1-0.3
					c0.1,0,0.2-0.1,0.2-0.1c0.1,0,0.2-0.1,0.2-0.2l0.2-0.2c0.1-0.1,0.2-0.1,0.3-0.2c0.3-0.2,0.7-0.4,1.1-0.5
					c0.2-0.1,0.4-0.1,0.6-0.1c0.1,0,0.1,0,0.2,0c0,0,0.1,0,0.1,0.1c0.1,0.1,0.2,0.1,0.2,0.2c-0.1-0.1-0.1-0.2-0.2-0.2
					c0,0-0.1,0-0.1,0c0,0-0.1,0-0.1,0c-0.2,0-0.4,0.1-0.6,0.1l-0.3,0.1l-0.3,0.1c-0.2,0.1-0.3,0.2-0.5,0.3c-0.1,0.1-0.2,0.1-0.2,0.2
					l-0.2,0.2c-0.1,0.1-0.2,0.1-0.2,0.2c-0.1,0.1-0.2,0.1-0.3,0.2c-0.4,0.2-0.8,0.3-1.2,0.4c-0.2,0-0.4,0.1-0.6,0.1
					c-0.2,0-0.4,0.1-0.6,0.1c-0.4,0-0.8,0.1-1.2,0.1c-0.8,0-1.6,0-2.4,0c-0.8,0-1.6,0-2.4-0.1c-0.8,0-1.6,0-2.4-0.1
					c-0.4,0-0.8,0-1.2,0c-0.4,0-0.8,0-1.2,0.1c-0.4,0-0.8,0.1-1.2,0.1C80.7,112.3,80.3,112.4,79.9,112.5z"/>
			</g>
			<path class="st37" d="M82.6,112c1.3,1.5-0.8,5.5,0,7.6c-2.3,0-1,3-1,3s-3-1.5-4.8-6.4c-1.8-4.9,2.4-7,3.9-6
				C82.1,111.2,80.6,109.7,82.6,112z"/>
			<path class="st42" d="M81.7,111c-0.2,0-0.5,0-0.7,0.1c-0.2,0.1-0.4,0.2-0.6,0.3c-0.3,0.3-0.6,0.6-0.8,1c-0.2,0.4-0.4,0.8-0.4,1.2
				c0,0.1,0,0.2,0,0.3l0,0.4c0,0.2,0,0.5,0,0.7c0,0.2,0,0.4,0.1,0.6c0,0.2,0.1,0.4,0.2,0.6c0.1,0.4,0.3,0.8,0.6,1.3
				c0.4,0.8,1,1.6,1.4,2.5c-0.4-0.3-0.7-0.6-1.1-1c-0.3-0.4-0.7-0.7-0.9-1.1c-0.3-0.4-0.6-0.8-0.8-1.3c-0.1-0.2-0.2-0.5-0.3-0.7
				c-0.1-0.3-0.1-0.5-0.1-0.8c0-0.3,0-0.5,0-0.8l0-0.4c0-0.1,0-0.3,0.1-0.4c0.1-0.3,0.2-0.5,0.3-0.8c0.1-0.2,0.3-0.5,0.4-0.7
				c0.3-0.4,0.7-0.8,1.2-1c0.2-0.1,0.5-0.2,0.8-0.2c0.1,0,0.3,0,0.4,0C81.5,110.9,81.6,110.9,81.7,111z"/>
			<path class="st40" d="M81.2,120.5c-0.4-0.4-0.9-0.7-1.3-1.1c-0.2-0.2-0.4-0.4-0.6-0.6c-0.2-0.2-0.4-0.4-0.6-0.7
				c-0.4-0.5-0.7-1-0.9-1.5c-0.1-0.3-0.3-0.5-0.4-0.8l-0.1-0.2c0-0.1-0.1-0.1-0.1-0.2c0-0.1-0.1-0.3-0.1-0.4
				c-0.1-0.6-0.1-1.2,0.1-1.8c0.2-0.6,0.5-1.1,0.9-1.6c0.4-0.4,0.9-0.8,1.4-1c0.3-0.1,0.6-0.2,0.9-0.2c0.1,0,0.3,0,0.4,0
				c0.1,0,0.3,0.1,0.4,0.1l0,0l0,0l0,0l0,0c-0.3-0.1-0.6-0.1-0.8,0c-0.3,0.1-0.5,0.1-0.8,0.3c-0.5,0.3-0.9,0.6-1.3,1.1
				c-0.3,0.4-0.6,0.9-0.8,1.5c-0.1,0.5-0.2,1.1-0.1,1.6c0,0.1,0.1,0.3,0.1,0.4c0,0.1,0,0.1,0.1,0.2l0.1,0.2c0.1,0.3,0.2,0.5,0.3,0.8
				c0.1,0.3,0.3,0.5,0.4,0.7c0.1,0.2,0.3,0.5,0.5,0.7c0.2,0.2,0.3,0.5,0.5,0.7c0.2,0.2,0.4,0.4,0.6,0.6
				C80.5,119.7,80.9,120.1,81.2,120.5z"/>
			<path class="st23" d="M82.1,120.1c-1.4-1.5-3.8-1.2-3.6,0c0.2,1.2,1.1,3.2,3.8,2.3C83.5,121.8,82.1,120.1,82.1,120.1z"/>
			<path class="st2" d="M92.5,117.2c-0.2,0-0.3,0-0.5-0.1c-0.1,0-0.3,0-0.4,0c-0.1,0-0.3,0-0.4,0c-0.1,0-0.3,0.1-0.5,0.1
				c0-0.2,0.2-0.3,0.3-0.4c0.2-0.1,0.4-0.2,0.6-0.1c0.2,0,0.4,0.1,0.5,0.2C92.3,116.9,92.4,117,92.5,117.2z M88.4,117.1
				c-0.3,0-0.5-0.1-0.7-0.1c-0.2,0-0.5-0.1-0.7-0.1c-0.2,0-0.4,0-0.7,0c-0.2,0-0.4,0.1-0.7,0.2c0.1-0.2,0.3-0.4,0.6-0.5
				c0.3-0.1,0.5-0.1,0.8-0.1c0.3,0,0.5,0.1,0.8,0.2C88,116.7,88.2,116.8,88.4,117.1z"/>
			<path class="st23" d="M89.5,122c-0.1,0-0.1,0-0.1-0.1c0-0.1,0-0.2,0.1-0.2c0,0,0.4-0.1,0.6-0.5c0.1-0.2,0.1-0.4-0.1-0.6
				c0-0.1-0.1-0.2-0.1-0.3c-0.3-0.6-0.7-1.3-0.3-2.4c0-0.1,0.1-0.1,0.2-0.1c0.1,0,0.1,0.1,0.1,0.2c-0.4,0.9,0,1.6,0.3,2.1
				c0.1,0.1,0.1,0.2,0.2,0.3c0.1,0.3,0.2,0.6,0.1,0.8C90.1,121.8,89.5,122,89.5,122C89.5,122,89.5,122,89.5,122z M90.9,123.6
				c0,0-1.6,0.1-4.1-0.1C86.7,123.5,89.9,125.5,90.9,123.6z"/>
			<path class="st2" d="M90.9,119.3c0-0.2,0.1-0.3,0.3-0.5c0.1-0.1,0.3-0.2,0.5-0.3c0.2-0.1,0.4,0,0.6,0c0.2,0.1,0.3,0.2,0.4,0.3
				c-0.2,0-0.3,0-0.5,0c-0.1,0-0.3,0-0.4,0.1c-0.1,0-0.3,0.1-0.4,0.1C91.2,119.2,91,119.2,90.9,119.3z M88.1,119.3
				C88.1,119.3,88.1,119.3,88.1,119.3c0-0.1,0-0.1-0.1-0.1c0,0-0.1-0.1-0.1-0.1c-0.1,0-0.2-0.1-0.3-0.1c-0.2-0.1-0.4-0.1-0.6-0.1
				c-0.2,0-0.4,0-0.6,0c-0.2,0-0.4,0.1-0.7,0.1c0.1-0.2,0.3-0.4,0.6-0.5c0.2-0.1,0.5-0.2,0.7-0.2c0.3,0,0.5,0.1,0.7,0.2
				c0.1,0.1,0.2,0.2,0.3,0.3c0,0.1,0.1,0.1,0.1,0.2C88.2,119.2,88.2,119.2,88.1,119.3C88.1,119.3,88.1,119.3,88.1,119.3z"/>
			<path class="st43" d="M86.9,119.3c0,0.3,0.2,0.6,0.4,0.6c0.2,0,0.4-0.3,0.4-0.6c0-0.3-0.2-0.6-0.4-0.6
				C87.1,118.7,86.9,119,86.9,119.3z"/>
			<ellipse class="st43" cx="91.7" cy="119.4" rx="0.4" ry="0.6"/>
			<g class="st44">
				<path class="st6" d="M84.7,121.1c0,0.4,0.4,0.7,0.9,0.7c0.5,0,0.9-0.3,0.9-0.7c0-0.4-0.4-0.7-0.9-0.7
					C85.1,120.4,84.7,120.7,84.7,121.1z"/>
			</g>
			<g class="st44">
				<path class="st6" d="M92.9,120.8c-0.1-0.1-0.3-0.1-0.4-0.1c-0.5,0-0.9,0.3-0.9,0.7s0.4,0.7,0.9,0.7c0.1,0,0.2,0,0.3,0
					L92.9,120.8z"/>
			</g>
		</g>
	</g>
</g>
</svg>
