<?xml version="1.0" encoding="utf-8"?>
<!-- Generator: Adobe Illustrator 28.0.0, SVG Export Plug-In . SVG Version: 6.00 Build 0)  -->
<svg version="1.1" id="SvgjsSvg1756" xmlns="http://www.w3.org/2000/svg" xmlns:xlink="http://www.w3.org/1999/xlink" x="0px"
	 y="0px" viewBox="0 0 360 360" style="enable-background:new 0 0 360 360;" xml:space="preserve">
<style type="text/css">
	.st0{opacity:0.7;fill:#F8F8F8;enable-background:new    ;}
	.st1{fill:#F4A682;}
	.st2{fill:#F6F3F4;}
	.st3{fill:#E5E5E5;}
	.st4{fill:#B01927;}
	.st5{fill:#FFFFFF;}
	.st6{fill:#DF643B;}
	.st7{fill:#97360E;}
	.st8{fill:#EDB2A6;}
	.st9{fill:#EDB28A;}
	.st10{fill:#FFD7CE;}
	.st11{fill:#7D3A1C;}
	.st12{opacity:0.4;}
	.st13{clip-path:url(#SVGID_00000137108788013811253590000009378873347030970528_);}
	.st14{fill:#462400;}
	.st15{fill:#842333;}
	.st16{opacity:0.33;fill:#560210;enable-background:new    ;}
	.st17{opacity:0.4;fill:#B32931;enable-background:new    ;}
	.st18{opacity:0.66;fill:#B32931;enable-background:new    ;}
	.st19{fill:#B32931;}
	.st20{opacity:0.48;}
	.st21{fill:#DD5865;}
	.st22{opacity:0.55;}
	.st23{opacity:0.53;}
	.st24{opacity:0.47;}
	.st25{opacity:0.49;}
	.st26{opacity:0.62;}
	.st27{fill:#F7798B;}
	.st28{opacity:0.41;}
	.st29{fill:#EF7083;}
	.st30{opacity:0.59;fill:#8A2812;enable-background:new    ;}
	.st31{fill:#8A2812;}
	.st32{opacity:0.29;}
	.st33{clip-path:url(#SVGID_00000164507973310360075180000008292008642144234648_);}
	.st34{clip-path:url(#SVGID_00000149347792890678035490000009995060320173376430_);}
	.st35{fill:#E05562;}
	.st36{opacity:0.91;fill:#90241E;enable-background:new    ;}
	.st37{opacity:0.42;fill:#51151B;enable-background:new    ;}
	.st38{opacity:0.37;fill:#F48C98;enable-background:new    ;}
	.st39{opacity:0.47;fill:#F48C98;enable-background:new    ;}
	.st40{fill:#51151B;}
	.st41{fill:#F4A289;}
	.st42{opacity:0.63;fill:#F4A289;enable-background:new    ;}
	.st43{opacity:0.54;fill:#F48C98;enable-background:new    ;}
	.st44{opacity:0.63;fill:#F48C98;enable-background:new    ;}
	.st45{fill:#F2F2F2;}
	.st46{fill:#CFB496;}
	.st47{opacity:0.5;}
	.st48{clip-path:url(#SVGID_00000083076491683222258550000008592369888343104400_);}
	.st49{fill:#773112;}
	.st50{clip-path:url(#SVGID_00000086681267302733350420000012879862645313385626_);}
	.st51{fill:#5C4408;}
	.st52{fill:none;}
</style>
<g>
	<g id="SvgjsG1758">
		<path class="st0" d="M327.4,146.9c63.4,99.1-18.6,204.9-148.1,204.9c-89.9,0-152.6-63-166.4-151.9c-4.4-28.1-18-155,115.3-161.1
			c44.6-2,61.3,44.7,87.2,60.9C261.2,128.1,303.8,109.9,327.4,146.9L327.4,146.9L327.4,146.9z"/>
		<path class="st1" d="M20.9,278.6c0,0,27.3,38.5,82.7,36.9c4.3-0.1,8.3-2.6,10.4-6.4c10-17.5,14.6-21.6,23.2-27.7
			c9.5-6.7,29.4-17.5,26.4-57.6c-3.1-40.1-73.3-3.1-73.3-3.1l-49,49.5L20.9,278.6L20.9,278.6L20.9,278.6z"/>
		<path d="M218.3,205.1c-1.4,3.1-3.9,5.4-7.1,6.6l-79.9,28.6c-1.3,0.5-2.7,0.7-4.1,0.7c-5.1,0-9.6-3.2-11.4-7.9L46.4,51.3
			c-1.2-3.2-1-6.7,0.4-9.7c1.5-3,4.2-5.3,7.4-6.3L129.5,12c1.2-0.4,2.4-0.6,3.6-0.6c4.9,0,9.4,3,11.3,7.5L177,96.8l34.5,82.3
			l6.9,16.4C219.6,198.6,219.6,202,218.3,205.1L218.3,205.1L218.3,205.1z"/>
		<path d="M211.2,211.7l-6.5,2.3l0,0l-73.5,26.2c-1.3,0.5-2.7,0.7-4.1,0.7l0,0c-5.1,0-9.7-3.2-11.4-7.9L46.4,51.3
			c-0.1-0.3-0.2-0.7-0.3-1c-0.8-2.9-0.5-6,0.8-8.7c0.4-0.8,0.9-1.6,1.5-2.3l0,0L44,44.5c-0.8,0.9-1.5,1.8-2,2.9
			c-1.5,3-1.6,6.6-0.4,9.7l69.2,181.7c1.8,4.7,6.4,7.9,11.4,7.9l0,0c1.4,0,2.8-0.2,4.1-0.7l79.9-28.6c2.1-0.7,3.8-2,5.2-3.7
			c0.1,0,0.1,0,0.1,0l5-5.8h-0.1C215.1,209.6,213.3,210.9,211.2,211.7L211.2,211.7L211.2,211.7z"/>
		<path class="st2" d="M131.2,14.1L56,37.4c-5.1,1.6-7.8,7.2-5.9,12.1l69.3,181.8c1.8,4.7,7,7.1,11.8,5.4l79.9-28.6
			c5-1.8,7.5-7.4,5.4-12.3l-74-176.4C140.7,15,135.8,12.7,131.2,14.1z"/>
		<polygon class="st3" points="147,82.8 98.3,98.7 91.6,81.3 140.2,65.7 		"/>
		<path class="st4" d="M155.1,70.6c2.3,5.8-0.1,11.9-5.4,13.6c-5.3,1.7-11.6-1.6-13.9-7.5c-2.3-5.8,0.1-12,5.4-13.6
			C146.5,61.5,152.8,64.8,155.1,70.6L155.1,70.6L155.1,70.6z"/>
		<path class="st5" d="M149.5,67.5l-1.8,0.6c-0.2,0.1-0.3,0.2-0.3,0.4l0.1,1.7l-7.6,2.4c-0.1,0.1-0.2,0.2-0.2,0.3s0,0.3,0.1,0.4
			l3.4,4c0.1,0.1,0.3,0.2,0.5,0.2l4.7-1.5c0.2-0.1,0.3-0.2,0.3-0.4l-0.3-5l0,0l-0.1-1.6l1.5-0.5c0.2-0.1,0.3-0.3,0.2-0.6
			C150,67.6,149.7,67.5,149.5,67.5L149.5,67.5L149.5,67.5z M147.8,75.1l-4.1,1.3l-2.8-3.2l6.6-2.1L147.8,75.1L147.8,75.1z
			 M144.3,77.7c-0.4,0.1-0.6,0.6-0.4,1s0.6,0.7,1,0.6s0.6-0.6,0.4-1S144.7,77.6,144.3,77.7z M148,76.5c-0.4,0.1-0.6,0.6-0.4,1
			c0.2,0.4,0.6,0.7,1,0.6s0.6-0.6,0.4-1C148.9,76.7,148.4,76.4,148,76.5z"/>
		<path d="M108.8,81.2c-0.2,0-0.4-0.1-0.4-0.3c-0.1-0.2,0.1-0.5,0.3-0.6l5.9-1.9c0.2-0.1,0.5,0.1,0.6,0.3c0.1,0.2-0.1,0.5-0.3,0.6
			l-5.9,1.9C109,81.1,108.9,81.2,108.8,81.2L108.8,81.2z M118.6,82.7c-0.2,0-0.4-0.1-0.4-0.3c-0.1-0.2,0.1-0.5,0.3-0.6l10.2-3.3
			c0.2-0.1,0.5,0.1,0.6,0.3c0.1,0.2-0.1,0.5-0.3,0.6l-10.2,3.3C118.8,82.7,118.7,82.7,118.6,82.7L118.6,82.7z M110.4,85.3
			c-0.2,0-0.4-0.1-0.4-0.3c-0.1-0.2,0.1-0.5,0.3-0.6l6-1.9c0.2-0.1,0.5,0.1,0.6,0.3c0.1,0.2-0.1,0.5-0.3,0.6l-6,1.9
			C110.6,85.3,110.5,85.4,110.4,85.3L110.4,85.3L110.4,85.3z M126.2,84.9c-0.2,0-0.4-0.1-0.4-0.3c-0.1-0.2,0.1-0.5,0.3-0.6l4.3-1.4
			c0.2-0.1,0.5,0.1,0.6,0.3c0.1,0.2-0.1,0.5-0.3,0.6l-4.3,1.4C126.4,84.9,126.3,84.9,126.2,84.9L126.2,84.9z M115.9,88.3
			c-0.2,0-0.4-0.1-0.4-0.3c-0.1-0.2,0.1-0.5,0.3-0.6l7.9-2.6c0.2-0.1,0.5,0.1,0.6,0.3c0.1,0.2-0.1,0.5-0.3,0.6l-7.9,2.6
			C116,88.3,115.9,88.3,115.9,88.3L115.9,88.3L115.9,88.3z M112,89.5c-0.2,0-0.4-0.1-0.4-0.3c-0.1-0.2,0.1-0.5,0.3-0.6l1.7-0.6
			c0.2-0.1,0.5,0.1,0.6,0.3c0.1,0.2-0.1,0.5-0.3,0.6l-1.7,0.6C112.2,89.5,112.1,89.5,112,89.5L112,89.5L112,89.5z"/>
		<polygon class="st3" points="161.2,117.9 112.1,134.4 105.3,117.1 154.3,100.9 		"/>
		<path class="st4" d="M169.4,105.7c2.4,5.8,0,11.8-5.4,13.6c-5.4,1.8-11.7-1.5-14-7.2c-2.4-5.8,0.1-11.9,5.5-13.7
			C160.8,96.6,167,99.9,169.4,105.7L169.4,105.7z"/>
		<path class="st5" d="M163.8,102.7l-1.8,0.6c-0.2,0.1-0.3,0.2-0.3,0.4l0.1,1.6l-7.6,2.5c-0.1,0.1-0.2,0.2-0.3,0.3
			c0,0.1,0,0.3,0.1,0.4l3.5,3.9c0.1,0.1,0.3,0.2,0.5,0.2l4.7-1.6c0.2-0.1,0.3-0.2,0.3-0.4l-0.3-4.9l0,0l-0.1-1.6l1.5-0.5
			c0.2-0.1,0.3-0.3,0.2-0.6C164.2,102.7,164,102.6,163.8,102.7L163.8,102.7L163.8,102.7z M162.1,110.3l-4.2,1.4l-2.8-3.2l6.7-2.2
			L162.1,110.3L162.1,110.3L162.1,110.3z M158.6,112.9c-0.4,0.1-0.6,0.6-0.4,1s0.6,0.7,1,0.5c0.4-0.1,0.6-0.6,0.4-1
			S159,112.7,158.6,112.9z M162.3,111.7c-0.4,0.1-0.6,0.6-0.4,1s0.6,0.7,1,0.5s0.6-0.6,0.4-1S162.7,111.5,162.3,111.7z"/>
		<path d="M122.7,116.8c-0.2,0-0.4-0.1-0.4-0.3c-0.1-0.2,0.1-0.5,0.3-0.6l6-2c0.2-0.1,0.5,0.1,0.6,0.3s-0.1,0.5-0.3,0.6l-6,2
			C122.8,116.7,122.7,116.8,122.7,116.8L122.7,116.8z M132.6,118.2c-0.2,0-0.4-0.1-0.4-0.3c-0.1-0.2,0.1-0.5,0.3-0.6l10.3-3.4
			c0.2-0.1,0.5,0.1,0.6,0.3s-0.1,0.5-0.3,0.6l-10.3,3.4C132.7,118.1,132.6,118.2,132.6,118.2L132.6,118.2z M124.3,120.9
			c-0.2,0-0.4-0.1-0.4-0.3c-0.1-0.2,0.1-0.5,0.3-0.6l6.1-2c0.2-0.1,0.5,0.1,0.6,0.3s-0.1,0.5-0.3,0.6l-6.1,2
			C124.5,120.9,124.4,120.9,124.3,120.9L124.3,120.9z M140.3,120.3c-0.2,0-0.4-0.1-0.4-0.3c-0.1-0.2,0.1-0.5,0.3-0.6l4.3-1.4
			c0.2-0.1,0.5,0.1,0.6,0.3s-0.1,0.5-0.3,0.6l-4.3,1.4C140.4,120.3,140.3,120.3,140.3,120.3L140.3,120.3z M129.9,123.7
			c-0.2,0-0.4-0.1-0.4-0.3c-0.1-0.2,0.1-0.5,0.3-0.6l8-2.7c0.2-0.1,0.5,0.1,0.6,0.3s-0.1,0.5-0.3,0.6l-8,2.7
			C130,123.7,129.9,123.7,129.9,123.7L129.9,123.7z M125.9,125c-0.2,0-0.4-0.1-0.4-0.3c-0.1-0.2,0.1-0.5,0.3-0.6l1.7-0.6
			c0.2-0.1,0.5,0.1,0.6,0.3c0.1,0.2-0.1,0.5-0.3,0.6l-1.7,0.6C126.1,125,126,125,125.9,125L125.9,125z"/>
		<g>
			<polygon class="st3" points="175.8,152.7 126.1,169.7 119.3,152.6 168.7,135.9 			"/>
			<path class="st4" d="M184,140.4c2.4,5.7,0,11.8-5.4,13.6s-11.8-1.3-14.2-7c-2.4-5.8,0.1-11.9,5.5-13.7
				C175.2,131.5,181.6,134.7,184,140.4L184,140.4L184,140.4z"/>
			<path class="st5" d="M178.2,137.5l-1.8,0.6c-0.2,0.1-0.3,0.2-0.3,0.4l0.1,1.6l-7.7,2.6c-0.1,0.1-0.2,0.2-0.3,0.3
				c0,0.1,0,0.3,0.1,0.4l3.5,3.9c0.1,0.1,0.3,0.2,0.5,0.1l4.8-1.6c0.2-0.1,0.3-0.2,0.3-0.4l-0.3-4.9l0,0l-0.1-1.6l1.5-0.5
				c0.2-0.1,0.3-0.3,0.2-0.6C178.7,137.5,178.5,137.4,178.2,137.5L178.2,137.5L178.2,137.5z M176.6,145.1l-4.2,1.4l-2.8-3.1l6.8-2.3
				L176.6,145.1L176.6,145.1L176.6,145.1z M173,147.7c-0.4,0.1-0.6,0.6-0.4,1c0.2,0.4,0.7,0.7,1.1,0.5c0.4-0.1,0.6-0.6,0.4-1
				C173.9,147.8,173.4,147.6,173,147.7z M176.8,146.4c-0.4,0.1-0.6,0.6-0.4,1c0.2,0.4,0.7,0.7,1.1,0.5c0.4-0.1,0.6-0.6,0.4-1
				C177.7,146.5,177.2,146.3,176.8,146.4z"/>
			<path d="M135.1,153.1c-0.2,0-0.4-0.1-0.4-0.3c-0.1-0.2,0.1-0.5,0.3-0.6l6.1-2.1c0.2-0.1,0.5,0.1,0.6,0.3s-0.1,0.5-0.3,0.6
				l-6.1,2.1C135.3,153.1,135.2,153.1,135.1,153.1L135.1,153.1L135.1,153.1z M145.2,154.4c-0.2,0-0.4-0.1-0.4-0.3
				c-0.1-0.2,0.1-0.5,0.3-0.6l10.4-3.5c0.2-0.1,0.5,0.1,0.6,0.3s-0.1,0.5-0.3,0.6l-10.4,3.5C145.3,154.3,145.2,154.4,145.2,154.4
				L145.2,154.4L145.2,154.4z M136.8,157.2c-0.2,0-0.4-0.1-0.4-0.3c-0.1-0.2,0.1-0.5,0.3-0.6l6.1-2.1c0.2-0.1,0.5,0.1,0.6,0.3
				s-0.1,0.5-0.3,0.6l-6.1,2.1C137,157.2,136.9,157.2,136.8,157.2L136.8,157.2L136.8,157.2z M152.9,156.4c-0.2,0-0.4-0.1-0.4-0.3
				c-0.1-0.2,0.1-0.5,0.3-0.6l4.4-1.5c0.2-0.1,0.5,0.1,0.6,0.3s-0.1,0.5-0.3,0.6l-4.4,1.5C153.1,156.3,153,156.4,152.9,156.4
				L152.9,156.4L152.9,156.4z M142.4,159.9c-0.2,0-0.4-0.1-0.4-0.3c-0.1-0.2,0.1-0.5,0.3-0.6l8.1-2.8c0.2-0.1,0.5,0.1,0.6,0.3
				s-0.1,0.5-0.3,0.6l-8.1,2.8C142.6,159.9,142.5,159.9,142.4,159.9L142.4,159.9L142.4,159.9z M138.5,161.3c-0.2,0-0.4-0.1-0.4-0.3
				c-0.1-0.2,0.1-0.5,0.3-0.6l1.7-0.6c0.2-0.1,0.5,0.1,0.6,0.3s-0.1,0.5-0.3,0.6l-1.7,0.6C138.6,161.3,138.5,161.3,138.5,161.3
				L138.5,161.3L138.5,161.3z"/>
		</g>
		<g>
			<polygon class="st3" points="191,188.2 140.9,205.8 133.9,188.8 183.8,171.5 			"/>
			<path class="st4" d="M199.2,175.8c2.5,5.6,0,11.8-5.5,13.6c-5.5,1.9-11.9-1.1-14.4-6.8c-2.4-5.7,0-11.8,5.5-13.7
				C190.4,167,196.8,170.2,199.2,175.8L199.2,175.8L199.2,175.8z"/>
			<path class="st5" d="M193.4,173l-1.8,0.6c-0.2,0.1-0.3,0.2-0.3,0.4l0.1,1.6l-7.8,2.7c-0.1,0.1-0.2,0.2-0.3,0.3
				c0,0.1,0,0.3,0.1,0.4l3.6,3.8c0.1,0.1,0.3,0.2,0.5,0.1l4.8-1.7c0.2-0.1,0.3-0.2,0.3-0.4l-0.3-4.9l0,0l-0.1-1.6l1.6-0.5
				c0.2-0.1,0.3-0.3,0.2-0.6C193.9,173,193.7,172.9,193.4,173L193.4,173L193.4,173z M191.7,180.5l-4.2,1.4l-2.9-3.1l6.8-2.3
				L191.7,180.5L191.7,180.5L191.7,180.5z M188.2,183.2c-0.4,0.1-0.6,0.6-0.4,1s0.7,0.6,1.1,0.5c0.4-0.1,0.6-0.6,0.4-1
				S188.6,183.1,188.2,183.2z M192,181.9c-0.4,0.1-0.6,0.6-0.4,1s0.7,0.6,1.1,0.5s0.6-0.6,0.4-1S192.4,181.8,192,181.9z"/>
			<path d="M147.5,189.7c-0.2,0-0.4-0.1-0.4-0.3c-0.1-0.2,0.1-0.5,0.3-0.6l6.1-2.1c0.2-0.1,0.5,0.1,0.6,0.3s-0.1,0.5-0.3,0.6
				l-6.1,2.1C147.7,189.7,147.6,189.7,147.5,189.7L147.5,189.7z M157.7,190.8c-0.2,0-0.4-0.1-0.4-0.3c-0.1-0.2,0.1-0.5,0.3-0.6
				l10.5-3.7c0.2-0.1,0.5,0.1,0.6,0.3s-0.1,0.5-0.3,0.6l-10.5,3.7C157.8,190.8,157.7,190.8,157.7,190.8L157.7,190.8z M149.3,193.8
				c-0.2,0-0.4-0.1-0.4-0.3c-0.1-0.2,0.1-0.5,0.3-0.6l6.2-2.2c0.2-0.1,0.5,0.1,0.6,0.3s-0.1,0.5-0.3,0.6l-6.2,2.2
				C149.4,193.8,149.3,193.8,149.3,193.8L149.3,193.8L149.3,193.8z M165.5,192.7c-0.2,0-0.4-0.1-0.4-0.3c-0.1-0.2,0.1-0.5,0.3-0.6
				l4.4-1.5c0.2-0.1,0.5,0.1,0.6,0.3s-0.1,0.5-0.3,0.6l-4.4,1.5C165.7,192.7,165.6,192.7,165.5,192.7L165.5,192.7z M154.9,196.5
				c-0.2,0-0.4-0.1-0.4-0.3c-0.1-0.2,0.1-0.5,0.3-0.6l8.2-2.9c0.2-0.1,0.5,0.1,0.6,0.3s-0.1,0.5-0.3,0.6l-8.2,2.9
				C155.1,196.4,155,196.5,154.9,196.5L154.9,196.5z M151,197.8c-0.2,0-0.4-0.1-0.4-0.3c-0.1-0.2,0.1-0.5,0.3-0.6l1.7-0.6
				c0.2-0.1,0.5,0.1,0.6,0.3s-0.1,0.5-0.3,0.6l-1.7,0.6C151.1,197.8,151,197.8,151,197.8L151,197.8z"/>
		</g>
		<g>
			<path d="M68.8,66.8c-2.5,0-5-1.8-6-4.5c-0.6-1.7-0.5-3.6,0.2-5.1c0.7-1.3,1.7-2.3,3.1-2.7l50.6-16c2.9-0.9,6.4,1,7.6,4.2
				c0.7,1.7,0.6,3.5-0.1,5c-0.6,1.3-1.7,2.2-3,2.6L70.5,66.6C69.9,66.7,69.4,66.8,68.8,66.8L68.8,66.8L68.8,66.8z M118.3,39.1
				c-0.4,0-0.8,0.1-1.3,0.2l-50.6,16c-1.1,0.3-2,1.1-2.5,2.2c-0.6,1.3-0.7,2.9-0.2,4.4c1,2.9,4,4.5,6.5,3.7L121,49.4l0,0
				c1.1-0.3,2-1.1,2.5-2.2c0.6-1.3,0.6-2.8,0.1-4.3C122.6,40.7,120.4,39.2,118.3,39.1L118.3,39.1L118.3,39.1z M133.6,44.2
				c-2.2,0-4.4-1.5-5.4-3.9c-0.6-1.5-0.5-3.1,0.1-4.4c0.6-1.1,1.5-1.9,2.7-2.3c2.6-0.8,5.6,0.9,6.7,3.7c0.6,1.5,0.6,3.1-0.1,4.4
				c-0.5,1.1-1.5,2-2.7,2.3C134.5,44.1,134.1,44.2,133.6,44.2L133.6,44.2L133.6,44.2z M132.4,34.7c-0.3,0-0.6,0-0.9,0.1
				c-0.8,0.2-1.4,0.8-1.8,1.6c-0.5,1-0.5,2.2-0.1,3.3c0.8,2.2,3.1,3.5,5,2.9c0.8-0.2,1.5-0.8,1.8-1.6c0.5-1,0.5-2.2,0-3.3l0,0
				C135.7,36,134,34.8,132.4,34.7L132.4,34.7L132.4,34.7z"/>
			<path d="M140.9,44.1c-0.1,0-0.2,0-0.3-0.1l-3.8-2.1c-0.3-0.2-0.5-0.6-0.3-0.9c0.2-0.3,0.6-0.5,0.9-0.3l3.8,2.1
				c0.3,0.2,0.5,0.6,0.3,0.9C141.4,43.9,141.2,44.1,140.9,44.1L140.9,44.1z"/>
			<path d="M68.9,60.3c0.2,0.5,0,1-0.4,1.1s-0.9-0.1-1.1-0.6s0-1,0.4-1.1C68.3,59.6,68.8,59.8,68.9,60.3z M73.5,58.8
				c0.2,0.5,0,1-0.4,1.1s-0.9-0.1-1.1-0.6s0-1,0.4-1.1S73.3,58.4,73.5,58.8z M78,57.4c0.2,0.5,0,1-0.4,1.1s-0.9-0.1-1.1-0.6
				s0-1,0.4-1.1C77.3,56.6,77.8,56.9,78,57.4z M82.5,55.9c0.2,0.5,0,1-0.4,1.1s-0.9-0.1-1.1-0.6s0-1,0.4-1.1
				C81.9,55.2,82.3,55.5,82.5,55.9z"/>
		</g>
		<path class="st1" d="M211.5,179.1L177,96.8c5.2-0.3,14.7,0.6,18.9,10.2c4.1,9.3-1,17.6-1,17.6s10,2.4,12.3,10.1
			s-0.8,15.3-4.7,18.6c0,0,12.2,1,14.6,9.5C219,169.6,214.3,176.3,211.5,179.1L211.5,179.1L211.5,179.1z"/>
		<path d="M191,128.2c-0.1,0-0.3-0.1-0.4-0.2c-0.2-0.2-0.1-0.5,0.1-0.7l3.9-3.2c0.2-0.2,0.5-0.1,0.6,0.1c0.2,0.2,0.1,0.5-0.1,0.7
			l-3.9,3.2C191.2,128.1,191.1,128.2,191,128.2L191,128.2L191,128.2z"/>
		<g>
			<path class="st1" d="M335,331.8c-24.6,6.3-50.2,7.1-76.4,4.8l-2-8.1c-0.7-3.1-2.1-5.9-4-8.3s-4.3-4.4-7.2-5.8
				c-12.8-6.5-23.9-16-32.3-27.6c-7.4-10.3-16.7-23.5-24-35c-2.5-3.9-3-8.8-1.5-13.2c3.2-9.5,4-18.8,4.2-23.5c0.1-2.9,1.7-5.6,4.3-7
				c10.7-5.6,22.9,14.5,21.5,21.1c-1,4.9,1.5,10.7,4.5,14.4c1.6,2,3.4,3.3,4.8,3.5c3.2,0.5,6.6-6.5,8-9.8c0.4-1.1,0.6-2.2,0.4-3.3
				l-1.7-11.9c-0.2-1.1-0.5-2.1-1.1-3.1l-9.2-16l-29.8-51.7c-2.6-4.6-3.3-10.1-1.9-15.1c0.3-0.9,0.6-1.8,1-2.7
				c2.1-4.6,8.1-5.6,11.5-1.9l35.4,37.4l10.3,0.6c3.1,0.2,6,1.4,8.3,3.4l5.5,4.7l7.4,0.2c3.9,0.1,7.5,1.8,10.1,4.6l8.5,9.2l4.3,0.1
				c3.8,0.1,7.4,1.7,10,4.5l15.5,16.4c6,6.3,9.6,14.6,10.2,23.3l4.2,62l6.3,25.5C340.9,327.2,338.7,330.9,335,331.8L335,331.8
				L335,331.8z"/>
			<path d="M207.5,135.4c-0.1,0-0.2-0.1-0.3-0.1l-3.2-3.4c-1.5-1.6-3.7-2.3-5.8-2c-2.2,0.4-4,1.8-4.9,3.8c-0.1,0.2-0.4,0.3-0.6,0.2
				s-0.3-0.4-0.2-0.6c1-2.3,3.1-3.9,5.6-4.3c2.5-0.4,5,0.4,6.7,2.2l3.2,3.4c0.2,0.2,0.2,0.5,0,0.6
				C207.7,135.3,207.6,135.3,207.5,135.4L207.5,135.4L207.5,135.4z M272,206.8c-0.1,0-0.2-0.1-0.4-0.2l-32.3-37.4
				c-0.2-0.2-0.1-0.5,0.1-0.6s0.5-0.1,0.6,0.1l32.3,37.4c0.2,0.2,0.1,0.5,0,0.6C272.2,206.8,272.1,206.8,272,206.8L272,206.8z
				 M289.9,205.3c-0.1,0-0.2-0.1-0.3-0.1l-26.3-27.1c-0.2-0.2-0.2-0.5,0-0.6s0.5-0.2,0.6,0l26.3,27.1c0.2,0.2,0.2,0.5,0,0.6
				C290.2,205.2,290,205.3,289.9,205.3L289.9,205.3L289.9,205.3z M301.9,205.8c-0.1,0-0.2-0.1-0.3-0.2l-12.3-13.5
				c-0.2-0.2-0.2-0.5,0-0.6c0.2-0.2,0.5-0.2,0.6,0l12.3,13.5c0.2,0.2,0.2,0.5,0,0.6C302.1,205.7,302,205.8,301.9,205.8L301.9,205.8z
				"/>
		</g>
		<path class="st6" d="M164,301.5c-0.4-2.3-1-8.2-7.2-9.6c-0.1,0-0.1-0.2,0-0.3c5.6-1.1,6.5-6.5,7.1-9.2c0-0.2,0.3-0.2,0.3,0
			c0.5,4.7,3.4,8.4,7,9.2c0.2,0,0.2,0.4,0,0.4c-5.6,1.8-6.8,7.2-7,9.5C164.2,301.6,164,301.6,164,301.5L164,301.5L164,301.5z"/>
		<path d="M174.7,64.6c-0.4-2-0.8-7-6.1-8.2c-0.1,0-0.1-0.2,0-0.2c4.8-1,5.6-5.5,6.1-7.9c0-0.2,0.3-0.1,0.3,0c0.4,4,2.9,7.2,6,7.8
			c0.2,0,0.2,0.3,0,0.4c-4.8,1.5-5.8,6.1-6,8.1C174.9,64.7,174.8,64.7,174.7,64.6L174.7,64.6L174.7,64.6z"/>
		<path class="st6" d="M30.2,92.1c-0.3-1.6-0.7-5.6-4.9-6.6c-0.1,0-0.1-0.2,0-0.2c3.8-0.8,4.4-4.4,4.9-6.3c0-0.1,0.2-0.1,0.2,0
			c0.4,3.2,2.3,5.8,4.8,6.2c0.2,0,0.2,0.2,0,0.3c-3.8,1.2-4.6,4.9-4.8,6.5C30.3,92.2,30.2,92.2,30.2,92.1L30.2,92.1z"/>
		<path d="M200.6,321.4c-0.3-1.6-0.7-5.6-4.9-6.5c-0.1,0-0.1-0.2,0-0.2c3.8-0.8,4.4-4.4,4.9-6.3c0-0.1,0.2-0.1,0.2,0
			c0.4,3.2,2.3,5.8,4.8,6.2c0.2,0,0.2,0.2,0,0.3c-3.8,1.2-4.6,4.9-4.8,6.5C200.8,321.5,200.7,321.5,200.6,321.4L200.6,321.4
			L200.6,321.4z"/>
		<path class="st6" d="M318.2,178.3c0,1.9-1.5,3.4-3.4,3.4s-3.4-1.5-3.4-3.4s1.5-3.4,3.4-3.4S318.2,176.4,318.2,178.3z"/>
		<path d="M38.9,224c0,1.5-1.2,2.8-2.8,2.8s-2.8-1.2-2.8-2.8s1.2-2.8,2.8-2.8S38.9,222.5,38.9,224z"/>
		<g>
			<path class="st7" d="M75.7,96.3c-5.4-3.1-8.5-6.4-1.6-10.4c1.7-1,5.6-1.8,7.3-2.4c2.2-0.7,4.9-2.5,7.2-3.2
				c2.2-0.7,6.3-1.8,12.1,1.5s3.9,5.7,2.6,7c-1.2,1.3-5.1,3.3-6.3,4.6c-0.9,1-1.6,2.8-3.3,3.8C86.8,101.2,81.1,99.4,75.7,96.3
				L75.7,96.3z"/>
			<path class="st7" d="M73.1,91.1c-0.2-0.6-0.1-1.2,0.3-1.8c0.5-0.7,1.4-1.4,2.7-2.2c0.8-0.5,3.2-1.1,4.7-1.5
				c0.8-0.2,1.4-0.4,1.9-0.5c1.4-0.4,2.8-1.1,4.2-1.8c1.1-0.6,2.2-1.1,3.1-1.4c1.1-0.3,2.1-0.6,3.2-0.6c1.6,0,3.5,0.6,5.4,1.8
				s3,2.2,3.1,3.1c0.1,0.7-0.3,1.2-0.9,1.8c-0.5,0.5-1.7,1.3-2.8,2c-1.4,0.9-2.8,1.8-3.6,2.6c-0.4,0.4-0.7,0.9-1.1,1.5
				c-0.5,0.7-1,1.6-1.7,2c-1.3,0.8-2.6,1.3-3.8,1.6c-1.1,0.2-2.1,0.3-3.2,0.2c-2.1-0.2-4.5-1.1-7.1-2.6C75,93.7,73.5,92.3,73.1,91.1
				L73.1,91.1z M81.2,86c-1.3,0.3-3.7,1-4.4,1.4c-1.2,0.7-2.1,1.4-2.5,2c-0.4,0.5-0.5,1-0.3,1.6c0.4,1.2,1.8,2.5,4.2,3.9
				s4.6,2.2,6.7,2.4c0.9,0.1,1.8,0.1,2.7-0.2c1.1-0.3,2.2-0.7,3.5-1.4c0.5-0.3,1.1-1.2,1.5-1.8c0.3-0.5,0.7-1.1,1.1-1.5
				c0.8-0.9,2.3-1.8,3.7-2.7c1-0.7,2.3-1.5,2.7-1.9c0.5-0.6,0.9-1,0.8-1.6c-0.1-0.8-1-1.8-2.8-2.8s-3.4-1.6-4.8-1.6
				c-0.9,0-1.7,0.2-2.7,0.5c-0.8,0.2-1.9,0.8-2.9,1.3c-1.4,0.7-2.8,1.4-4.3,1.9C82.7,85.6,82,85.8,81.2,86L81.2,86L81.2,86z"/>
			<path class="st8" d="M72.3,88.9c0.6-0.8,1.5-1.6,3-2.4c1-0.6,3.3-1.2,5.1-1.7c0.7-0.2,1.4-0.4,1.9-0.5c1.2-0.4,2.6-1.1,3.9-1.7
				c1.2-0.6,2.3-1.2,3.3-1.5c1.1-0.3,2.3-0.7,3.8-0.6c1.9,0.1,4.1,0.7,6.2,2c2.2,1.3,3.3,2.5,3.4,3.6c0.1,0.9-0.5,1.6-1.1,2.2
				c-0.5,0.6-1.8,1.3-2.9,2.1c-1.3,0.9-2.7,1.8-3.4,2.5c-0.4,0.4-0.7,0.9-1,1.4c-0.5,0.8-1.1,1.7-2,2.2c-1.4,0.8-2.8,1.4-4.2,1.7
				c-1.3,0.3-2.6,0.4-3.9,0.2c-2.4-0.3-4.9-1.2-7.7-2.8s-4.4-3.1-4.9-4.5C71.6,90.4,71.8,89.7,72.3,88.9L72.3,88.9z M80.4,84.9
				c-1.7,0.5-4.1,1.1-5,1.7C74,87.4,73,88.2,72.5,89s-0.7,1.5-0.4,2.2c0.5,1.4,2.1,2.8,4.8,4.4s5.3,2.5,7.7,2.8
				c1.3,0.2,2.6,0.1,3.8-0.2c1.3-0.3,2.7-0.9,4.1-1.7c0.8-0.5,1.4-1.4,1.9-2.2c0.3-0.5,0.6-1,1-1.4c0.7-0.8,2.1-1.7,3.4-2.5
				c1.2-0.8,2.4-1.6,2.9-2.1c0.6-0.6,1.2-1.3,1.1-2.2c-0.1-1.1-1.2-2.3-3.4-3.6c-2.2-1.2-4.2-1.9-6.2-2c-1.5,0-2.7,0.3-3.8,0.6
				c-0.9,0.3-2.1,0.9-3.3,1.5c-1.3,0.7-2.7,1.3-3.9,1.7C81.8,84.6,81.1,84.7,80.4,84.9L80.4,84.9L80.4,84.9z"/>
			<path class="st7" d="M93.1,81.8c-0.9,0-1.7,0.2-2.6,0.5c-0.7,0.2-1.9,0.8-2.9,1.3c-1.4,0.7-2.8,1.4-4.3,1.9
				c-0.6,0.2-1.2,0.3-2,0.6c-1.3,0.3-3.7,1-4.4,1.4c-1.2,0.7-2,1.4-2.5,2C74,90,74,90.5,74.1,91c0.4,1.2,1.8,2.5,4.2,3.8
				s4.6,2.2,6.6,2.4c0.9,0.1,1.7,0,2.6-0.2c1.1-0.2,2.2-0.7,3.4-1.4c0.5-0.3,1.1-1.2,1.5-1.8c0.3-0.5,0.7-1.1,1.1-1.5
				c0.8-0.9,2.3-1.8,3.7-2.8c1-0.7,2.2-1.5,2.7-1.9c0.5-0.6,0.8-1,0.8-1.5c-0.1-0.8-1-1.7-2.8-2.8C96.1,82.4,94.5,81.8,93.1,81.8
				L93.1,81.8z M84.3,91.1c1.6,0.9,1.8,2.3,0.5,3.1c-1.3,0.8-3.7,0.6-5.3-0.3c-1.6-0.9-1.8-2.3-0.5-3.1C80.4,90,82.7,90.2,84.3,91.1
				L84.3,91.1L84.3,91.1z"/>
			<path class="st7" d="M71.3,91.3c-0.6-1.7,0.6-3.3,3.5-5c1.1-0.6,3.4-1.2,5.3-1.7c0.7-0.2,1.3-0.4,1.8-0.5c1.2-0.4,2.5-1,3.8-1.7
				c1.2-0.6,2.4-1.2,3.4-1.5c1.1-0.4,2.5-0.7,4.2-0.7c2.1,0.1,4.4,0.8,6.7,2.1c2.3,1.3,3.5,2.6,3.6,3.9c0.1,1-0.5,1.8-1.2,2.4
				c-0.6,0.6-1.8,1.4-3,2.2c-1.3,0.8-2.7,1.7-3.3,2.4c-0.4,0.4-0.7,0.8-1,1.3c-0.6,0.8-1.2,1.8-2.1,2.3c-2.9,1.7-5.8,2.4-8.6,2.1
				c-2.4-0.3-4.9-1.2-7.9-3S71.7,92.6,71.3,91.3L71.3,91.3z M80.3,84.8c-1.7,0.5-4.1,1.1-5.1,1.7c-1.4,0.8-2.4,1.6-3,2.4
				c-0.5,0.8-0.7,1.5-0.4,2.3c0.5,1.4,2.1,2.8,4.9,4.5s5.3,2.5,7.7,2.8c1.3,0.2,2.6,0.1,3.9-0.2c1.3-0.3,2.8-0.9,4.2-1.7
				c0.8-0.5,1.4-1.4,2-2.2c0.3-0.5,0.6-1,1-1.4c0.7-0.7,2.1-1.6,3.4-2.5c1.2-0.8,2.4-1.6,2.9-2.1c0.6-0.6,1.2-1.3,1.1-2.2
				c-0.1-1.1-1.2-2.3-3.4-3.6s-4.3-1.9-6.2-2c-1.5,0-2.7,0.3-3.8,0.6c-0.9,0.3-2.1,0.9-3.3,1.5c-1.3,0.7-2.7,1.3-3.9,1.7
				C81.7,84.5,81,84.6,80.3,84.8L80.3,84.8L80.3,84.8z"/>
			<path class="st9" d="M70.6,91.3c-0.6-1.8,0.6-3.5,3.7-5.3c1.2-0.7,3.5-1.3,5.4-1.8c0.7-0.2,1.3-0.4,1.8-0.5
				c1.1-0.3,2.4-1,3.7-1.6c1.2-0.6,2.4-1.2,3.5-1.6c1.2-0.4,2.7-0.8,4.5-0.7c2.3,0.1,4.7,0.8,7.1,2.2c2.4,1.4,3.7,2.8,3.8,4.1
				c0.1,1.1-0.6,1.9-1.2,2.6c-0.6,0.6-1.9,1.4-3.1,2.3c-1.3,0.8-2.6,1.7-3.2,2.4c-0.3,0.4-0.6,0.8-0.9,1.3c-0.6,0.9-1.2,1.9-2.3,2.5
				c-3.1,1.8-6.1,2.5-9.2,2.2c-2.5-0.3-5.1-1.3-8.3-3.1C72.8,94.3,71.1,92.8,70.6,91.3L70.6,91.3z M80,84.5
				c-1.9,0.5-4.2,1.1-5.3,1.7c-2.9,1.7-4.1,3.3-3.5,5c0.5,1.4,2.1,2.8,5.2,4.6s5.6,2.7,7.9,3c2.9,0.3,5.7-0.3,8.6-2.1
				c0.9-0.5,1.6-1.5,2.1-2.3c0.3-0.5,0.6-0.9,1-1.3c0.7-0.7,2-1.6,3.3-2.4c1.2-0.8,2.5-1.6,3-2.2c0.6-0.7,1.2-1.4,1.2-2.4
				c-0.1-1.2-1.3-2.5-3.6-3.9c-2.3-1.3-4.6-2-6.7-2.1c-1.7,0-3.1,0.3-4.2,0.7c-1,0.3-2.2,0.9-3.4,1.5C84.3,83,83,83.6,81.8,84
				C81.4,84.1,80.8,84.3,80,84.5L80,84.5L80,84.5z"/>
			<path class="st9" d="M73.2,89.2c0.5-0.7,1.4-1.5,2.7-2.2c0.9-0.5,3.2-1.1,4.8-1.6c0.8-0.2,1.4-0.4,1.9-0.5
				c1.4-0.4,2.8-1.1,4.1-1.8c1.1-0.6,2.3-1.2,3.1-1.4c1.1-0.4,2.1-0.6,3.3-0.6c1.7,0,3.6,0.7,5.6,1.8c2,1.2,3.1,2.2,3.2,3.2
				c0.1,0.7-0.3,1.3-1,1.9c-0.5,0.5-1.7,1.3-2.8,2c-1.4,0.9-2.8,1.8-3.5,2.6c-0.4,0.4-0.7,0.9-1.1,1.4c-0.5,0.7-1.1,1.6-1.7,2
				c-1.3,0.8-2.6,1.3-3.8,1.6c-1.1,0.3-2.2,0.3-3.3,0.2c-2.2-0.2-4.6-1.1-7.2-2.6s-4.2-2.9-4.6-4.2C72.7,90.4,72.8,89.8,73.2,89.2
				L73.2,89.2z M80.8,85.5c-1.5,0.4-3.9,1-4.7,1.5c-1.3,0.8-2.2,1.5-2.7,2.2c-0.4,0.6-0.5,1.2-0.3,1.8c0.4,1.2,1.9,2.6,4.5,4.1
				s5,2.4,7.1,2.6c1.1,0.1,2.1,0.1,3.2-0.2c1.2-0.3,2.5-0.8,3.8-1.6c0.7-0.4,1.2-1.2,1.7-2c0.3-0.5,0.7-1,1.1-1.5
				c0.8-0.8,2.2-1.7,3.6-2.6c1.1-0.7,2.3-1.5,2.8-2c0.6-0.6,1-1.2,0.9-1.8c-0.1-0.9-1.1-2-3.1-3.1s-3.8-1.7-5.4-1.8
				c-1.1,0-2.1,0.2-3.2,0.6c-0.8,0.3-2,0.8-3.1,1.4c-1.4,0.7-2.8,1.4-4.2,1.8C82.2,85.1,81.6,85.3,80.8,85.5L80.8,85.5L80.8,85.5z"
				/>
			<path class="st10" d="M79,90.8c-1.3,0.8-1.1,2.1,0.5,3.1s4,1.1,5.3,0.3c1.3-0.8,1.1-2.1-0.5-3.1S80.4,90.1,79,90.8z"/>
			<path class="st9" d="M74.3,89.4c0.4-0.6,1.3-1.3,2.5-2c0.7-0.4,3.2-1.1,4.4-1.4c0.8-0.2,1.4-0.4,2-0.6c1.5-0.4,2.9-1.2,4.3-1.9
				c1-0.5,2.2-1.1,2.9-1.3c1-0.3,1.8-0.5,2.7-0.5c1.4,0,3.1,0.6,4.8,1.6c1.8,1,2.8,2,2.8,2.8c0.1,0.5-0.3,1-0.8,1.6
				c-0.4,0.4-1.7,1.2-2.7,1.9c-1.4,0.9-2.9,1.9-3.7,2.7c-0.4,0.5-0.8,1-1.1,1.5c-0.4,0.6-1,1.5-1.5,1.8c-1.2,0.7-2.4,1.2-3.5,1.4
				c-0.9,0.2-1.8,0.3-2.7,0.2c-2.1-0.2-4.3-1.1-6.7-2.4c-2.4-1.4-3.8-2.7-4.2-3.9C73.8,90.4,73.9,89.9,74.3,89.4L74.3,89.4z
				 M81.3,86c-1.3,0.3-3.7,1-4.4,1.4c-1.2,0.7-2,1.4-2.5,2c-0.4,0.5-0.4,1-0.3,1.5c0.4,1.2,1.8,2.5,4.2,3.8s4.6,2.2,6.6,2.4
				c0.9,0.1,1.7,0,2.6-0.2c1.1-0.2,2.2-0.7,3.4-1.4c0.5-0.3,1.1-1.2,1.5-1.8c0.3-0.5,0.7-1.1,1.1-1.5c0.8-0.9,2.3-1.8,3.7-2.8
				c1-0.7,2.2-1.5,2.7-1.9c0.5-0.6,0.8-1,0.8-1.5c-0.1-0.8-1-1.7-2.8-2.8c-1.8-1-3.4-1.6-4.8-1.6c-0.9,0-1.7,0.2-2.6,0.5
				c-0.7,0.2-1.9,0.8-2.9,1.3c-1.4,0.7-2.8,1.4-4.3,1.9C82.7,85.7,82,85.9,81.3,86L81.3,86L81.3,86z"/>
			<path class="st11" d="M70.1,95.2c0,2.1,2.4,4,5.6,5.8c5.4,3.1,11.1,4.9,18,0.9c1.7-1,2.3-2.8,3.3-3.8c1.2-1.3,5.1-3.3,6.3-4.6
				c0.6-0.6,1.3-1.5,1.3-2.5v-4.8c0,1.1-0.7,1.9-1.3,2.5c-1.2,1.3-5.1,3.3-6.3,4.6c-0.9,1-1.6,2.8-3.3,3.8c-6.9,4-12.6,2.2-18-0.9
				c-3.2-1.8-5.6-3.8-5.6-5.8V95.2L70.1,95.2z"/>
			<g class="st12">
				<g>
					<g>
						<defs>
							<path id="SVGID_1_" d="M75.7,96.3c-5.4-3.1-8.5-6.4-1.6-10.4c1.7-1,5.6-1.8,7.3-2.4c2.2-0.7,4.9-2.5,7.2-3.2
								c2.2-0.7,6.3-1.8,12.1,1.5s3.9,5.7,2.6,7c-1.2,1.3-5.1,3.3-6.3,4.6c-0.9,1-1.6,2.8-3.3,3.8C86.8,101.2,81.1,99.4,75.7,96.3
								L75.7,96.3z"/>
						</defs>
						<clipPath id="SVGID_00000125598006165938477470000000974117179680033458_">
							<use xlink:href="#SVGID_1_"  style="overflow:visible;"/>
						</clipPath>
						<g style="clip-path:url(#SVGID_00000125598006165938477470000000974117179680033458_);">
							<g>
								
									<rect x="69.1" y="83.8" transform="matrix(0.8696 -0.4938 0.4938 0.8696 -30.1327 54.5182)" class="st14" width="38" height="1.1"/>
								
									<rect x="70.9" y="87.2" transform="matrix(0.8696 -0.4938 0.4938 0.8696 -31.6139 55.8608)" class="st14" width="38" height="1.1"/>
								
									<rect x="72.5" y="90.7" transform="matrix(0.8696 -0.4938 0.4938 0.8696 -33.1321 57.0978)" class="st14" width="38" height="1.1"/>
								
									<rect x="74.9" y="93.6" transform="matrix(0.8696 -0.4938 0.4938 0.8696 -34.2522 58.6731)" class="st14" width="38" height="1.1"/>
								
									<rect x="67.2" y="80.6" transform="matrix(0.8696 -0.4938 0.4938 0.8696 -28.8524 53.1348)" class="st14" width="38" height="1.1"/>
							</g>
						</g>
					</g>
				</g>
			</g>
		</g>
		<path class="st1" d="M52.2,251c0,0,9.1-8.8,7.1-24.4s-12.2-32-10.1-75.4c1-20.6,2.9-36.2,2.9-36.2S45,92,48.4,86.7
			c3.4-5.3,21.8-3.8,27.8,13.7s1.4,24.7,0.9,38.3c-0.5,13.5,6.2,16.9,15.2,35s18.4,54.4,15.7,70.2c-2.7,15.7-87.1,34.7-87.1,34.7
			L52.2,251L52.2,251L52.2,251z"/>
		<g>
			<path class="st15" d="M97.6,136.8c-0.7,0.2-10.5-0.6-10.5-0.6c-0.9-0.7-0.8-4.5-0.6-4.5c1.6-0.5,6.6-16.5,12.5-16.5
				c1,0,3.3,0.7,4.3,0.6c3.6-0.6,3.3-0.6,5.1-0.4c5,0.5,8.2,4.7,8.4,5.1c0.9,1.2,1.8,2.5,1.8,4.3c0,1.5-0.9,4.9-1,6.5
				c0,0.3-6,4.1-6.3,4.5C110.9,136.5,107.4,134.2,97.6,136.8L97.6,136.8z"/>
			<path class="st16" d="M117.4,120.3c-0.2-0.3-3.4-4.6-8.4-5.1c-1.8-0.2-1.5-0.2-5.1,0.4c-0.9,0.1-3.2-0.6-4.3-0.6
				c-5.9,0.1-11,15.5-12.2,16.5c-0.2,0.1-0.7,3.9,0.2,4.6c0,0,9.8,0.8,10.5,0.6c9.8-2.6,13.2-0.3,13.9-1.2c0.3-0.4,6.3-4.1,6.3-4.5
				c0.1-1.6,1-5,1-6.5C119.2,122.8,118.3,121.5,117.4,120.3L117.4,120.3z M103,117.1c0.2,0.2,1.1,3.2,1,3c-1.6-3.5-1.9-2.7-3-1.3
				c-0.5,0.6,0.1,3.5-0.1,2.7c-0.7-2.8-4.5,3.1-4.7,3.9c-0.1,0.2-0.7,0.6-0.5,0.4c0.8-0.8,2.1-3.3,2.5-4.2c1.2-2.2,2.2-1.4,2.2-1.6
				C100.4,119.4,102,116.2,103,117.1L103,117.1z M98.7,133.4C98.9,133.5,99,133.6,98.7,133.4c-0.8-0.2-2.3-0.2-2.8-1
				c-0.5-0.7,0.3-1.5,0.8-2c1.1-0.9,2.3-1.6,3.4-2.6c0.7-0.6,1.7-1.2,2.1-2c0.3-0.6,1.1-2.1,1.2-3.8c0-0.2,0,0.9,0,1.1
				c-0.1,0.7-0.5,2.1-0.8,2.6c-0.2,0.5-0.8,1.1-1.2,1.5c-1,0.9-2,1.2-3.1,1.9c-0.7,0.5-1.3,0.9-2,2.2
				C95.7,132.9,98,133.2,98.7,133.4L98.7,133.4z M97.6,119.5c0.2-0.1,0.7-2.9,2.3-3.5c1.1-0.4,2,0.3,1.7,0.3
				c-2.8-0.9-3.6,3.4-3.8,3.4c-1.4,0-3.2,2.2-3.4,4.2c0,0.2-0.1,0.3-0.1,0.1C94.3,121.7,95.5,120,97.6,119.5L97.6,119.5z
				 M90.7,129.3c0.5-1.5,2.1-2.1,3.2-2.9c0.3,0.1,0.5-0.2,0.4-0.6c-0.2-0.5,0.1-1.4,0.1-1.2c0,0.3,0.1,0.7,0.2,0.8
				c0.1,0.4,0.1,0.6,0.1,0.8c0,0.2-0.5,0.6-0.7,0.7c0.6,0.1,1.3-0.1,1.5-0.5s-0.1,0.6-0.7,0.7s-0.7,0.1-1.2,0.3
				c-0.3,0.1-0.2,0.2-0.3,0.1c-0.5-0.2-1.3-0.1-2.3,1.8C90.6,129.7,90.6,129.7,90.7,129.3z M96.4,134.4c-4.3,1.3-7.6,0.3-5.4-2.6
				c0.6-0.8,1.5-1.3,2.4-1.7c1.4-0.8,2.8-1.6,4.1-2.5c1.7-1.1,3-2.7,3.8-4.6c-0.6,2.4-0.6,2.8-2.3,4c-1.4,1-3.8,2-5.3,2.8
				c-0.9,0.5-2.7,2.2-2.8,3.4c0,0.6,0.3,1.6,1.3,1.5c0.9,0,3.2-0.7,4.1-0.8c1.3-0.1,2.6-0.3,3.9-0.4
				C98.9,133.8,97.6,134.1,96.4,134.4L96.4,134.4z M100.6,131c0.8-0.6,1.4-2.2,1.9-2.9c0.5-0.7,0.8-1,1.4-1.7c1.4-1.4,2.6-0.6,3.1-2
				c0.3-0.6-2.6-2.2-2.5-3.1c0-0.2,0.2,0.6,0.7,1c0.6,0.6,2.5,1.2,2.2,2.1c-0.5,1.5-1.9,1.9-3.8,2.7c-1,0.4-1.8,3.2-2.1,3.7
				c-1.2,1.9,4-0.4,4.8-0.7c1.7-0.5,2.1,0.3,3.8,0.7c-1.2-0.3-1.4-0.6-2.7-0.5c-1,0-1.8,0.6-2.7,0.9
				C103.8,131.5,98.9,132.3,100.6,131L100.6,131z M110.2,134c-0.4-2.3-4.4-1.4-4.9-1.1c0.4-0.2,2-0.9,2.4-0.9
				C110.5,131.5,110.2,134.2,110.2,134L110.2,134z"/>
			<path class="st17" d="M110.8,132.1c0.1-0.2,0.2-0.6,0.3-1.2c0.2-2,1-6.7-1.8-6.1c-0.2,0-0.4,0.1-0.4,0.1
				c-0.1,0.1,0.1-0.1,0.4-0.5c1.6-2.1-0.5-4.5-1.9-6.1l0,0c0,0.1,0,0.2,0,0.3c0.5,1.2,1.3,2.6,1.3,3.9c0,1.1-1.1,2.9-1.8,3.6
				c-0.8,0.8,0.6,0.7,0.8,0.7c0.9-0.2,2.5,0.3,2.8,0.8c0.3,0.5,0.8,1.5-0.2,3.8c-0.3,0.6-1-0.3-0.9-0.2c0.3,0.6,1.4,2.8,1.2,4
				c-0.1,0.6,0.5,0.4,0.6,0.4c0,0,0-1.3,0-2C111.2,132.4,110.7,132.2,110.8,132.1L110.8,132.1z"/>
			<path class="st18" d="M118.8,124.7c0-1.8-0.9-3-1.8-4.3c-0.2-0.3-3.4-4.6-8.4-5.1c-1.8-0.2-1.5-0.2-5.1,0.4
				c-0.9,0.1-3.2-0.6-4.3-0.6c-5.9,0.1-10.1,14.7-12.5,16.5c-0.2,0.1-0.3,3.5,0.4,4.4c-0.4-1.4-0.2-2.9,0.6-4.2
				c0.5-1,1.2-1.7,1.8-2.7c0.8-1.3,2-2.7,3.3-3.3c-0.4-0.7-1.8-1.4-0.3-4.1c0.8-1.4,2.1-3.2,3.3-4.3c1-0.9,2.1-2,3.5-1.9
				c0.7,0,1.6,0.4,2.2,0.7c0.7,0.3,1.4,0.3,2.2,0.5c0.3,0.1,0.7,0.1,1,0.2c1.2,0.2,2.4,0.7,3.1,1.8c0.9,1.4,3.4,3.8,1.1,6.2
				c-0.2,0.2,2.8-1.6,2.4,3.2c-0.1,1.1-0.1,3.2-0.5,4c0.9,1.2,0.4,2.4,0.6,3.4c0.4,0,0,0.2,0.2,0.1c0.3-0.4,6.3-4.1,6.3-4.5
				C117.9,129.6,118.8,126.2,118.8,124.7L118.8,124.7z"/>
			<path class="st19" d="M117.8,124.3c1.2-1.7-1.5-3-2.1-4.6c-0.3-1-7.2-5.4-8.8-3.2c0.2,0.3,1.8,1.5,2,1.7c0.1,0.1,0.1,0.3,0,0.4
				c1.4,1.7,3.5,3.5,2.5,5.4c1.8,0,1,5.1,0.9,7.2c0.4-1.2,2.1-4.4,1.3-5.5C113,124.9,116,124.2,117.8,124.3L117.8,124.3z"/>
			<g class="st20">
				<path class="st21" d="M113.1,117.8c-0.1,1.7-3.3,5.1-0.5,4.8c2.1-0.2,3.8-0.1,4.2,2.6c0.2,1,0.3,2.1,1.2,2.8
					c0.2,0.1,0.1,0.1,0-0.1c-1.6-1.7,0.3-4.5-2.6-5.3c-1.2-0.3-4,0.4-3.5-1.6C112.2,119.6,113.3,119.3,113.1,117.8
					c0-0.1,0-0.4-0.1-0.4C113.1,117.4,113.1,117.8,113.1,117.8z"/>
			</g>
			<g class="st22">
				<path class="st21" d="M111.5,116.9c0.2,0.6-0.1,1.2-0.4,1.6c-0.2,0.2-0.6,0.6-0.8,0.8c-0.3,0.5,0.3,0.6,0.1,1
					c0,0,0.6,0.7,0.5,0.6C109.6,119.2,112,118.7,111.5,116.9L111.5,116.9L111.5,116.9z"/>
			</g>
			<g class="st23">
				<path class="st21" d="M115.2,119.6c-0.6,0.4-1.5,1.2-0.8,1.9c0.4,0.4,1.7,0.8,2.1,1c1.5,0.5,1.2,0.8,1.4,1.7
					c0,0.1,0.2-0.3,0.2-0.4c-0.1-0.7-0.3-0.8-1.1-1.1c-0.4-0.1-0.8-0.4-1.4-0.7c-0.3-0.1-0.7-0.6-0.9-0.9c-0.4-0.6,0.8-1.3,1-1.7
					C115.7,119.4,115.2,119.6,115.2,119.6L115.2,119.6L115.2,119.6z"/>
			</g>
			<g class="st24">
				<path class="st21" d="M111.9,124c1.5-0.3,0.8,4.5,1,5.2c0,0.1,0.2,0.1,0.2,0.1c0.2-0.4,0.3-0.9,0.7-1.3c0.4-0.4,1.1-0.9,1.7-1
					c1.1-0.1,1.2,0.7,1,1.5s-1.3,3-0.6,3.8c0.1,0.1,0-0.2,0-0.3c-0.7-1.4,1.7-3.5,0.8-5c-0.7-1.2-2.1-0.1-2.6,0.5
					c-0.3,0.3-0.9,1.2-0.8,1.3c-0.3-0.3-0.1-2.2-0.1-2.7C112.9,125.8,112.8,123.8,111.9,124C111.8,124,111.9,124,111.9,124
					L111.9,124L111.9,124z"/>
			</g>
			<g class="st12">
				<path class="st21" d="M113.7,129.9c0.5,0.2,0.7,0.7,0.4,1.2c-0.2,0.3-0.7,0.6-0.9,1c-0.4,0.7-0.6,1.6-0.3,2.4
					c0,0,0.5-0.3,0.4-0.4c-1.3-1.1,0.5-2,1-3c0.3-0.7-0.1-1.1-0.7-1.3C113.4,129.8,113.7,129.9,113.7,129.9L113.7,129.9z"/>
			</g>
			<g class="st25">
				<path class="st21" d="M101.6,115.8c0.8,0.5,1.8,0.8,2.8,1c0.8,0.2,1.7,0.2,2.4,0.5c0.9,0.4,1.7,1.1,2.3,1.7
					c0.3,0.3,0.8-0.1,0.6-0.5c-0.7-1.2-1.9-2.3-3.3-2.5C104.9,116,103.3,116.1,101.6,115.8C101.7,115.8,101.6,115.8,101.6,115.8
					L101.6,115.8L101.6,115.8z"/>
			</g>
			<g class="st26">
				<path class="st27" d="M107.7,117.7c0.2,0.1,0.9,0.7,1.1,0.9c0.1,0.2,0.2,0,0.1-0.6c-0.2-0.8-1.4-0.8-2.2-0.8
					C106.4,117.2,107.4,117.4,107.7,117.7z"/>
			</g>
			<g class="st28">
				<path class="st21" d="M117.3,128.8c-1.7,4-0.2,0.5-0.7,2.9c-0.1,0.4,0.6-2.9,1.2-2.6c0.2,0.1-0.2,2.1-0.2,2.2
					c0,0,0.1-0.1,0.1-0.3C118.2,126.8,117.3,128.8,117.3,128.8z"/>
			</g>
			<path class="st29" d="M96.7,116c-2.5,1.4-3.9,3.6-5.3,6.1c-1.8,3.3-3.8,8.8-4.8,9.1v0.5c0.9-0.4,1.7-2,2.2-3.1
				c0.8-1.6,1.4-3.1,2.2-4.7c1.5-2.9,3.2-6,5.9-8C97,115.8,96.7,116,96.7,116L96.7,116z"/>
		</g>
		<ellipse class="st7" cx="115.2" cy="162.4" rx="17" ry="11.4"/>
		<path class="st30" d="M101.5,158c0,0.8,0.2,1.6,0.5,2.2c0.4,0.6,0.9,1.1,1.5,1.4c1.2,0.7,2.8,1.1,4.3,1.3c1.6,0.2,3.2,0.5,4.8,0.6
			c1.7,0.2,3.3,0.2,5,0.2c0.8,0,1.7-0.1,2.5-0.1c0.8-0.1,1.7-0.2,2.5-0.3s1.6-0.3,2.4-0.6s1.5-0.6,2.1-1s1.1-1,1.3-1.7
			c0.1-0.3,0.2-0.7,0.2-1.1c0-0.4-0.1-0.8-0.2-1.1c-0.2-0.8-0.6-1.5-1-2.2c-0.4-0.7-0.9-1.4-1.5-2l0.2-0.2c0.7,0.6,1.3,1.2,1.8,1.9
			c0.5,0.7,1,1.4,1.3,2.3c0.3,0.9,0.5,1.8,0.2,2.8c-0.1,0.5-0.3,0.9-0.6,1.4c-0.3,0.4-0.6,0.8-1,1.1c-0.7,0.6-1.6,1.1-2.4,1.4
			c-0.8,0.4-1.7,0.6-2.6,0.9c-1.7,0.5-3.5,0.7-5.2,0.9s-3.5,0.3-5.2,0.4s-3.6,0-5.4-0.4c-0.4-0.1-0.9-0.2-1.3-0.4
			c-0.2-0.1-0.4-0.2-0.7-0.2s-0.4-0.2-0.7-0.3c-0.9-0.4-1.7-0.9-2.4-1.7c-0.4-0.4-0.7-0.8-0.9-1.2c-0.2-0.5-0.4-0.9-0.5-1.5
			c-0.1-0.5-0.1-1,0-1.5s0.3-0.9,0.5-1.3L101.5,158L101.5,158z"/>
		<path class="st31" d="M114.2,159.5c0.2-0.4,0.5-0.7,0.8-1c0.2-0.1,0.3-0.3,0.5-0.4l0.2-0.1l0.2-0.1c0.1-0.1,0.2-0.1,0.3-0.1
			s0.2-0.1,0.3-0.1l0.3-0.1c0.1,0,0.2,0,0.4,0c0.1,0,0.1,0,0.2,0s0.1,0,0.2,0.1c0.5,0.1,0.9,0.4,1.1,0.9l-0.1,0.1
			c-0.1,0-0.2,0-0.3,0s-0.2,0-0.3,0s-0.2,0-0.3,0c-0.1,0-0.2,0-0.3,0h-0.1h-0.1c-0.1,0-0.2,0-0.3,0h-0.3c-0.1,0-0.2,0-0.3,0
			c-0.1,0-0.2,0-0.3,0.1h-0.1l-0.1,0.1c-0.2,0.1-0.4,0.1-0.6,0.2C114.9,159.2,114.6,159.4,114.2,159.5L114.2,159.5L114.2,159.5z
			 M104.4,157.2c0.2-0.4,0.5-0.7,0.8-1c0.2-0.1,0.3-0.3,0.5-0.4l0.2-0.1l0.2-0.1c0.1-0.1,0.2-0.1,0.3-0.1s0.2-0.1,0.3-0.1l0.3-0.1
			c0.1,0,0.2,0,0.4,0c0.1,0,0.1,0,0.2,0s0.1,0,0.2,0.1c0.5,0.1,0.9,0.4,1.1,0.9l-0.1,0.1c-0.1,0-0.2,0-0.3,0s-0.2,0-0.3,0
			s-0.2,0-0.3,0c-0.1,0-0.2,0-0.3,0h-0.1h-0.1c-0.1,0-0.2,0-0.3,0h-0.3c-0.1,0-0.2,0-0.3,0c-0.1,0-0.2,0-0.3,0.1h-0.1l-0.1,0.1
			c-0.2,0.1-0.4,0.1-0.6,0.2C105.1,156.8,104.8,157,104.4,157.2L104.4,157.2L104.4,157.2z M111.6,154.4c0.2-0.4,0.5-0.7,0.8-1
			c0.2-0.1,0.3-0.3,0.5-0.4l0.2-0.1l0.2-0.1c0.1-0.1,0.2-0.1,0.3-0.1s0.2-0.1,0.3-0.1l0.3-0.1c0.1,0,0.2,0,0.4,0c0.1,0,0.1,0,0.2,0
			s0.1,0,0.2,0.1c0.5,0.1,0.9,0.4,1.1,0.9l-0.1,0.1c-0.1,0-0.2,0-0.3,0s-0.2,0-0.3,0s-0.2,0-0.3,0c-0.1,0-0.2,0-0.3,0h-0.1h-0.1
			c-0.1,0-0.2,0-0.3,0H114c-0.1,0-0.2,0-0.3,0c-0.1,0-0.2,0-0.3,0.1h-0.1l-0.1,0.1c-0.2,0.1-0.4,0.1-0.6,0.2
			C112.3,154,111.9,154.2,111.6,154.4L111.6,154.4L111.6,154.4z M121.8,156.3c0.2-0.4,0.5-0.7,0.8-1c0.2-0.1,0.3-0.3,0.5-0.4
			l0.2-0.1l0.2-0.1c0.1-0.1,0.2-0.1,0.3-0.1s0.2-0.1,0.3-0.1l0.3-0.1c0.1,0,0.2,0,0.4,0c0.1,0,0.1,0,0.2,0s0.1,0,0.2,0.1
			c0.5,0.1,0.9,0.4,1.1,0.9l-0.1,0.1c-0.1,0-0.2,0-0.3,0s-0.2,0-0.3,0s-0.2,0-0.3,0c-0.1,0-0.2,0-0.3,0h-0.1h-0.1
			c-0.1,0-0.2,0-0.3,0h-0.3c-0.1,0-0.2,0-0.3,0c-0.1,0-0.2,0-0.3,0.1h-0.1l-0.1,0.1c-0.2,0.1-0.4,0.1-0.6,0.2
			C122.6,155.9,122.2,156.2,121.8,156.3L121.8,156.3L121.8,156.3z M122.3,166.1c0.4,0.1,0.8,0.2,1.2,0.4c0.2,0.1,0.4,0.2,0.6,0.3
			l0.1,0.1l0.1,0.1c0.1,0.1,0.2,0.1,0.2,0.2c0.1,0.1,0.2,0.2,0.2,0.3l0.2,0.3c0.1,0.1,0.1,0.2,0.2,0.3c0,0.1,0.1,0.1,0.1,0.2
			c0,0.1,0,0.1,0,0.2c0.1,0.5-0.1,1-0.3,1.4h-0.1c-0.1-0.1-0.1-0.2-0.2-0.3c0-0.1-0.1-0.2-0.1-0.3s-0.1-0.2-0.1-0.3
			s-0.1-0.2-0.1-0.2v-0.1c0,0,0-0.1-0.1-0.1c0-0.1-0.1-0.2-0.1-0.2l-0.1-0.2c0-0.1-0.1-0.2-0.1-0.2c0-0.1-0.1-0.1-0.2-0.2l-0.1-0.1
			l-0.1-0.1c-0.1-0.1-0.3-0.3-0.4-0.4C123,166.6,122.6,166.4,122.3,166.1L122.3,166.1z"/>
		<g class="st32">
			<g>
				<g>
					<defs>
						<ellipse id="SVGID_00000116916587590644170160000013742938482475596448_" cx="115.4" cy="158.6" rx="14.6" ry="7.3"/>
					</defs>
					<clipPath id="SVGID_00000016798333564909649990000011444034438804412091_">
						<use xlink:href="#SVGID_00000116916587590644170160000013742938482475596448_"  style="overflow:visible;"/>
					</clipPath>
					<g style="clip-path:url(#SVGID_00000016798333564909649990000011444034438804412091_);">
						<g>
							
								<rect x="86.6" y="150.4" transform="matrix(0.8696 -0.4938 0.4938 0.8696 -59.7238 75.8572)" class="st14" width="54.2" height="1.1"/>
							
								<rect x="89.1" y="155.4" transform="matrix(0.8696 -0.4938 0.4938 0.8696 -61.8669 77.747)" class="st14" width="54.2" height="1.1"/>
							
								<rect x="91.5" y="160.5" transform="matrix(0.8696 -0.4938 0.4938 0.8696 -64.069 79.5576)" class="st14" width="54.2" height="1.1"/>
							
								<rect x="94.8" y="164.5" transform="matrix(0.8696 -0.4938 0.4938 0.8696 -65.6208 81.7439)" class="st14" width="54.2" height="1.1"/>
							
								<rect x="83.8" y="146" transform="matrix(0.8696 -0.4938 0.4938 0.8696 -57.9264 73.8707)" class="st14" width="54.2" height="1.1"/>
						</g>
					</g>
				</g>
			</g>
			<g>
				<g>
					<defs>
						<ellipse id="SVGID_00000044893301404665839370000004784158282152148126_" cx="115.4" cy="158.6" rx="14.6" ry="7.3"/>
					</defs>
					<clipPath id="SVGID_00000176741017561976086760000007619264061842369949_">
						<use xlink:href="#SVGID_00000044893301404665839370000004784158282152148126_"  style="overflow:visible;"/>
					</clipPath>
					<g style="clip-path:url(#SVGID_00000176741017561976086760000007619264061842369949_);">
						<g>
							
								<rect x="122.3" y="123.9" transform="matrix(0.4938 -0.8696 0.8696 0.4938 -69.0784 183.2959)" class="st14" width="1.1" height="54.2"/>
							
								<rect x="119.8" y="129" transform="matrix(0.4938 -0.8696 0.8696 0.4938 -74.7844 183.6469)" class="st14" width="1.1" height="54.2"/>
							
								<rect x="117.5" y="133.9" transform="matrix(0.4938 -0.8696 0.8696 0.4938 -80.2479 184.196)" class="st14" width="1.1" height="54.2"/>
							
								<rect x="114.1" y="138.1" transform="matrix(0.4938 -0.8696 0.8696 0.4938 -85.5862 183.292)" class="st14" width="1.1" height="54.2"/>
							
								<rect x="125.1" y="119.5" transform="matrix(0.4938 -0.8696 0.8696 0.4938 -63.8155 183.4958)" class="st14" width="1.1" height="54.2"/>
						</g>
					</g>
				</g>
			</g>
		</g>
		<g>
			<path class="st35" d="M141.1,193.4c-0.3,0-0.9-3.7-1.4-3.7c-3-0.1-7.6-0.9-11.5,0.6c-3,1.1-5.5,1.7-7.8,5.8
				c-0.4,0.1-1.2,1.5-1.6,1.4c0.2-0.2,0.2-1.2,0.5-1.4c0.6-0.4,0.3-1.6,0.3-1.6c-0.9-0.3-3.6,1.1-3.6,1.1c-1.5,0.9-1.9,1.6-1.9,1.6
				c-0.2,0.9-0.6,4.9-0.2,5.7c1.6,1.2,4.3,3.9,7.9,5.8c2.3,1.2,6.6,3.6,7.1,3.5c1.6-0.2,5.4-1.6,7.5-2.9c3.5-2.2,7.7-6.1,7.1-10.8
				C143.2,197.2,142.9,194.8,141.1,193.4L141.1,193.4z"/>
			<path class="st36" d="M141.6,193.7c-0.1,0.6-0.4,1.1-0.6,1.6c-0.5,1.2-0.4,2-1.5,2.6c0,0.5,1.7,0.3,1.5,0.8
				c-2,5.5-5.8,4.7-7.1,5.7c-1.4,1.1-1.9,2.9-6.5,3.2c-1.6,0.1-2.2-3.8-6.6-3.6c-2.1,0.1-3-2.2-3-2.2c-2.8-1.6-1.9-1.5-3.4-4.5
				c-0.2,1.5-0.5,5-0.2,5.7c1.6,1.2,4.3,3.9,7.9,5.8c2.3,1.2,6.6,3.6,7.1,3.5c1.6-0.2,5.4-1.6,7.5-2.9c3.5-2.2,8.3-6.3,7.1-10.8
				C143.2,197.4,143.2,195.2,141.6,193.7L141.6,193.7z"/>
			<path class="st37" d="M119.7,204c1.3,0.5,1.8-0.1,3.2,0.4c1.7,0.6,0.9,2.6,1.7,4.6c0.5,1.3-1.3,0-4-1.2
				C118.8,206.9,115.9,202.6,119.7,204L119.7,204z"/>
			<path class="st37" d="M130.7,206.9c2.9-1.4,2.6-2.1,3.5-2.5c0.2-0.1,0.6,1,1.5,2.1c0.8,1.1,0.5,2.2-0.3,2.9
				C134,210.8,127.1,208.7,130.7,206.9L130.7,206.9z"/>
			<path class="st37" d="M141.1,198.7c-3.2-0.7-0.4-0.3-0.4-2.5c0-0.3,2.2,0.2,2.5,0.9c0.6,1,0.4,1.8,0.5,3
				C143.8,200.5,141.5,198.7,141.1,198.7L141.1,198.7z"/>
			<path class="st36" d="M118.6,196.7L118.6,196.7L118.6,196.7c0,0.1,0,0.1,0,0.2c0,0,0,0,0,0.1c0,0.2,0.1,0.5,0.2,0.7
				c0.8-0.2,2-1.3,2.6-1.7c1.4-1.1,1.9-3.1,3.8-3.8c2.2-0.9,5.8-3.5,6.7,0c0.5-0.4-0.7-1.5-0.1-2c1.2-1.1,2.9-0.1,3.4-0.7
				c-2.2-0.1-4.6,0-6.8,0.9c-3,1.1-5.5,1.7-7.8,5.8c-0.4,0.1-1.2,1.5-1.6,1.4c0.2-0.2,0.2-1.2,0.5-1.4c0.6-0.4,0.3-1.6,0.3-1.6
				c-0.2-0.1-0.5,0-0.8,0C118.8,194.8,119.4,195,118.6,196.7L118.6,196.7z"/>
			<path class="st38" d="M122.4,198.1v0.1c0.4,0.7,0.6,1.4,0.7,2.2c0,0.1-0.1,0.2-0.1,0c-0.1-0.7-1-1.8-1-1.7
				c-0.8,1.5-3.4,1.2-3.2,1.6c0.3,0.7,3.4-0.1,5.4,0.6C125.4,199.8,123.5,198.4,122.4,198.1L122.4,198.1z"/>
			<path class="st38" d="M125.6,197.1c0-0.1,0.1-0.1,0.1-0.1l0,0c-0.5-0.2-1.1-0.3-1.7-0.4c0,0,0,0.1-0.1,0.1
				c-0.3,0.3-0.2,0.7,0.2,0.9C124.7,197.8,125.3,197.6,125.6,197.1L125.6,197.1z"/>
			<path class="st38" d="M125.5,198c0.5,0.7,1.3,0.6,2,0.3c-0.4-0.3-0.8-0.7-1.2-1l-0.1-0.1c-0.1,0-0.2-0.1-0.3-0.1
				c-0.1,0.1-0.1,0.1-0.2,0.2c0.1,0.1,0,0.2-0.1,0.3C125.7,197.7,125.5,197.8,125.5,198L125.5,198L125.5,198z"/>
			<path class="st38" d="M126.5,199.5c-0.1,0-0.2-0.1-0.2-0.2c-0.1,0-0.1,0-0.1,0s-0.1,0-0.2,0c-0.2,0-0.3,0-0.3,0.2
				c0.3,0.6,1,1.1,1.5,1.2c0.1,0,0.1,0-0.1,0c-0.5-0.1-1.2-0.2-1.6-0.7c0,0.1,0,0.1,0,0.2c0,0.1,0,0.2-0.1,0.2
				c-0.1,0.2-0.1,0.5-0.2,0.7c0,0.4,0.2,0.8,0.4,1.1c0.5,0.6,1.2,0.5,1.5-0.2C127.6,201.3,127.5,199.7,126.5,199.5L126.5,199.5z"/>
			<path class="st38" d="M129.5,199.8c-0.3-0.6-1.4-0.7-1.4,0.1c0,0.1,0,0.2-0.1,0.2c0,0.1,0,0.1,0,0.2c0,0,0.1,0,0.1,0.1
				C128.6,201,129.9,200.6,129.5,199.8L129.5,199.8z"/>
			<path class="st38" d="M130.9,200.5c0.6,1.2,1.5,1.5,2.7,1.8c0.2-0.6,0.4-0.9,0.5-1.5c-1.1-0.1-2.2-0.4-3.3-0.7
				C130.9,200.1,130.9,200.4,130.9,200.5L130.9,200.5z"/>
			<path class="st38" d="M130.8,200.5c-0.1,1.1,1.1,2.5,1.8,3.2c0.1,0.1,0.1,0.2,0,0.1c-0.8-0.8-2.1-1.7-2.1-2.9
				c-0.3,0.4-0.4,0.5-0.8,0.7c-0.3,0.2-0.8,0.2-1.1,0.4c0,0.1,0,0.1-0.1,0.2c-0.9,1.1-1.3,2.1-0.1,3.2l0.1,0.1
				c0.4,0.1,0.6,0.1,0.6,0.1c2.7,0,3.8-1.1,4.4-2.6C132.2,202.7,131.2,201.7,130.8,200.5L130.8,200.5z"/>
			<path class="st38" d="M136.7,191.6c0,0-0.1,0-0.1-0.1c-0.3-0.2-0.7-0.3-1-0.3c-0.3,0.1-0.5,0.1-0.8,0.2c-0.1,0.1-0.2,0.2-0.3,0.4
				c-0.1,0.1-0.2,0.2-0.3,0.2c-0.1,1.1,1,2.4,2,2.2c0.2-0.3,1.2-0.7,0.7-1.4c0-0.1-1.4-0.6,0.2-0.2c0.1,0,0.4,0.4,0.4,0.6
				c-0.1,0.6-0.7,0.6-0.9,0.8c0.1,0,0.5-0.1,0.6,0c0.3-0.2,0.7-0.4,1-0.6C137.8,192.6,137.2,192,136.7,191.6z"/>
			<path class="st38" d="M133.8,193.9c-0.1-0.1-0.1-0.3,0-0.4c-0.1-0.2-0.2-0.4-0.3-0.7c-0.1,0-0.1,0-0.2,0c0,0-0.1,0-0.1,0.1
				c0,0,0,0.1-0.1,0.1c-0.2,0.2-0.4,0.5-0.5,0.9c0,0.6,0.2,1.2,0.9,1.1c0.2,0,0.4-0.1,0.5-0.3C134.1,194.4,134,194.1,133.8,193.9z"
				/>
			<path class="st38" d="M131.1,192.9C131.1,192.9,131.1,192.8,131.1,192.9c-0.3-0.5-0.6-0.9-1.2-1.2c-0.4-0.2-0.7,0-1.3,0.1
				c0.6,0.3,0.4,0.7,0.9,1.2c0.1,0.1-0.1-0.1-0.2-0.2c-0.5-0.4-0.4-0.4-0.9-1c-0.1,0.1-0.3,0.1-0.4,0.2c0.4,0.2,0.4,1.8,0.9,1
				c0.1-0.1-0.1,0.9-0.2,0.7c-0.3-0.4-0.6-1.5-1-1.6c-1.4,0.5-0.6,1.9,0.4,2.5C129.4,195.4,131.5,194.5,131.1,192.9L131.1,192.9z"/>
			<path class="st38" d="M131.1,195.2c-0.6,0-1.3,0.3-1.6,0.9c-0.1,0.2-0.3,0.2-0.4,0.1c-0.1,0.4,0.1,0.7,0.3,1
				c0.3-0.4,1.7-0.8,0.8-1.2c-0.1-0.1,0.6,0,0.6,0.2c-0.1,0.7-1.2,0.8-1.5,1.2c0.2,0.2,0.6,0.3,0.9,0.4c0.5-0.6,1.4-1,1.8-1.7
				C132.4,195.4,131.6,195.2,131.1,195.2L131.1,195.2z"/>
			<path class="st39" d="M131.6,198.6c0.4,0.1,0.8,0,1.1-0.2c0.1-0.3,0.3-0.6,0.5-0.8v-0.1c0.1-0.1,0.1-0.3,0-0.4
				c-0.1-0.1-0.2-0.2-0.4-0.2c-0.1,0-0.3,0-0.3-0.1c-0.5,0.6-1.4,1.1-1.7,1.6c0.2,0.1,0.4,0.1,0.6,0.2
				C131.4,198.5,131.5,198.5,131.6,198.6L131.6,198.6z"/>
			<path class="st38" d="M128,196.5c0.4-0.3,0.2-0.8-0.2-1.1c-0.5-0.3-0.8,0-1,0.4c0,0.1,0,0.1-0.1,0.1
				C127.1,196.1,127.5,196.4,128,196.5C127.9,196.6,127.9,196.6,128,196.5L128,196.5z"/>
			<path class="st38" d="M125.5,195.4c0.1-0.1,0.2-0.1,0.3-0.1c0.4-0.2,0.5-0.6,0.3-1.1c-0.1-0.2,0-0.3,0.2-0.4
				c-0.1-0.4-0.3-0.6-0.7-0.7c0,0,0,0-0.1,0c-0.9,0.6-1.7,1.5-2.2,2.4C124.1,195.2,124.7,195.3,125.5,195.4
				C125.4,195.4,125.4,195.4,125.5,195.4L125.5,195.4z"/>
			<path class="st38" d="M135.4,195.4c-0.1-0.1-0.2-0.2-0.4-0.4c-0.1,0-0.2,0-0.2,0.1c-0.1,0.1-0.2,0.1-0.3,0c0,0.1,0,0.1-0.1,0.1
				c-0.4,0.2,0,0.7,0.3,0.8c0.2-0.1,0.4-0.3,0.6-0.4C135.4,195.6,135.4,195.5,135.4,195.4L135.4,195.4z"/>
			<path class="st38" d="M138.4,195.1c0.1,0,0.1,0,0.2,0h0.1l0,0c0-0.4-0.1-0.7-0.2-1c-0.4,0.2-1.2,0.4-1.2,0.9l0,0
				c0.3,0,0.6,0.1,0.8,0.2C138.2,195.1,138.2,195.1,138.4,195.1L138.4,195.1z"/>
			<path class="st38" d="M137.9,195.8c-0.5-0.2-1.1,0-1.6,0.2s-1.1,0.6-1.5,0.9c-0.3,0.2-1,0.8-1.3,1.2c0.1,0.1,0.1,0.2,0,0.3
				l-0.1,0.1c0,0.1,0.1,0.2,0.3,0.2c0.6-1.1,1.9-2.2,3.2-1.9c0.1,0,0.2,0.1,0.1,0.2c-0.9,0.6-2.8,0.9-3.4,1.9
				c0.1,0.1,0.3,0.1,0.3,0.2c0.2,0,0.4,0.1,0.6,0.1c0.5-1.2,2.1-1.6,3.2-2.1c0.1-0.1,0.1-0.1,0,0c-0.9,0.5-2.1,1.1-2.6,2.1
				c2.6,0,2.3-0.7,3.1-2.1c0.2-0.4,0.3-0.7,0.4-1C138.3,196,138.1,195.9,137.9,195.8L137.9,195.8z"/>
			<path class="st40" d="M143.4,196.5c0-0.1-0.1-0.2-0.3-0.2c-0.1-0.9-0.1-1.2-0.7-1.9c-0.3-0.3-0.6-0.6-1-0.8
				c-0.5-0.3-0.9-2.2-1.3-3.1v0.4c0.4,0.5,0.2,1.5,0.2,1.6c0.4,0.8,0.9,1,1.1,1.2c0.5,0.5,1.4,1.7,1.1,2.8c0,0.1,0.1,0.2,0.1,0.3
				c0.1,0.1,0.1,0.1,0.2,0.2c1.3,2.3,0.7,4.9-0.8,6.9c-0.7,1-1.7,2-2.9,2.5c-1.1,0.4-2.3,0.3-3.5,0.1l0,0c0,0.1,0,0.2-0.1,0.3
				c-1.2,3.1-6.6,5.4-9.5,3.4c-0.3-0.1-0.6-0.2-0.9-0.5c-0.2-0.1-0.4-0.1-0.6-0.2c-0.9-0.2-1.8-0.6-2.6-1.1h-0.1
				c-0.6-0.3-3.5-2.2-3.8-2.6c-0.9-1.4-2.6-2.1-0.8-3.5c0.1-0.1-3.4,0.5-2.1,1.6c1.1,1,1.3,0.9,2.3,1.9s2.4,1.7,3.6,2.6
				c1.2,0.9,2.5,1.5,3.9,2.2c0.9,0.5,1.8,1.2,2.6,1.8c0.6,0,1.2,0,1.7,0c0.2-0.2,0.4-0.2,0.7-0.3c0.3,0,0.6-0.2,0.9-0.2
				c0.7-0.1,1.3-0.4,2-0.6c1.3-0.6,2.4-1.3,3.6-2c1.6-1.1,2.5-1.8,4.1-3c0,0,0,0,0-0.1c1.2-0.9,2.2-2.1,2.7-3.6
				C144.2,200.6,143.9,198.5,143.4,196.5L143.4,196.5z"/>
			<path class="st41" d="M132.1,199.7c-0.1-0.1-2.8-1.1-3.4-1.5c-0.7-0.4-1-1.1-1.7-1.6c-0.5-0.4-1.2-0.1-2.1-0.8
				c-0.6-0.5-1.5-0.3-3.4,0.8c-0.8,0.4-2.6,1.5-2.6,1.5c-0.1-0.1-0.5-0.6-0.4-0.9c0.3-0.7,0.3-1.2,0.5-1.8c0.3-1.1-1-0.4-1.5-0.1
				c0,0,1.8-0.7,0.7,1.4c-0.3,0.5-0.6,1.1-0.8,1.7c-0.8,2.1-1.9,1.5-1.8,1.7c0.2,0.6,1.1,1.1,1,0.9c-0.1-0.3-0.7-0.8,0.4-1.5
				c1.2-0.9,2.2-0.6,3.8-1.1c2.5-0.8,2.4-1.3,2-1.7c1.8-1.1,1.4-0.7,2.5-0.2s1.6,0,2.2,1.3c0.6,1.4,4.2,2.2,5.6,2.4h0.4
				C133.6,200.1,132.2,199.9,132.1,199.7L132.1,199.7z"/>
			<path class="st41" d="M138.9,200.3c-0.1,0-0.6-0.1-0.5-0.1c0.7-0.2,1.3,0.1,1.6,0.4c0.1-0.1,0.1-0.3,0.1-0.3
				c-0.5-0.8-1.8-0.6-2.6-0.6c-1.4,0.1-2.8,0.5-4.2,0.3l0,0c1,0.4,2.1,0.6,3.2,0.6c0.5,0,1.1-0.1,1.6-0.1c0.6,0,1.2,0.1,1.7,0.5
				c0,0,0.1-0.2,0.2-0.3C139.7,200.5,139.7,200.5,138.9,200.3L138.9,200.3z"/>
			<path class="st42" d="M139.2,200.1c-0.4-0.9-0.5-1.4-1.2-3.3l-0.2,0.3c0.9,2.6-0.1,0.3-0.2,0.4c-0.1,0.1,0,0.1-0.2,0.3
				c-0.1,0,1.1,0.8,1.8,2.8c0.2,0.5,0.4,1.1,0.4,1.4c0,0.2,0.9-1.1,0.9-1.1C140.5,200.8,139.4,200.9,139.2,200.1L139.2,200.1z"/>
			<path class="st38" d="M118.6,202.8c0,0,0.1,0.1,0.2,0.1c0.1,0.1,0.6,0.3,0.6,0.4c0.9-0.6,1.4-1.4,2.5-1.6c0.1,0,0,0-0.1,0.1
				c-1,0.2-1.1,1.2-2,1.8c0.8,0.4,1,0.2,1.8,0.2c0.3,0.4,0.4-0.2,1.3,0.3c0.5,0.3,0.6-1.6,0.1-2.1c-0.1-0.1-0.1-0.2-0.2-0.2
				c-0.1-0.1-0.3-0.3-0.4-0.4l-0.6,0.1c-0.4-0.4-0.8-0.2-1.3,0C119.8,201.7,119.6,202.5,118.6,202.8
				C118.7,202.7,118.6,202.7,118.6,202.8L118.6,202.8z"/>
			<path class="st38" d="M124.6,203.5c-0.2-0.3-0.5-0.1-0.7,0.2c-0.1,0.1-0.2,0.3-0.3,0.5h0.1h0.1c0.3,0.2,0.7,0.6,1,0.8
				C124.9,204.7,124.9,203.8,124.6,203.5L124.6,203.5z"/>
			<path class="st38" d="M127.1,204.5c-0.2-0.4-0.5-0.6-0.9-0.9c0.1,0.3-0.3,0.6-0.4,1c0,0.1-0.1,0.1-0.1,0c0.1-0.4,0.2-0.7,0-1.1
				c-0.2-0.1-0.3-0.2-0.5-0.3s-0.2,0.2-0.2,0.2c0.3,0.7-0.1,1.1-0.1,1.9c0.5,0.2,1.2,0,1.7-0.3C127,204.7,127.3,204.8,127.1,204.5
				L127.1,204.5z"/>
			<path class="st43" d="M129.3,202.5c-0.1-0.2-0.7,0-0.7,0.2s0.4,0.4,0.6,0.3C129.2,202.9,129.2,202.7,129.3,202.5L129.3,202.5z"/>
			<path class="st43" d="M126.4,201.3c-0.2-0.1-0.5,0.1-0.5,0.4c-0.1,0.2,0.1,0.5,0.3,0.6c0.2,0.1,0.5,0.1,0.7,0
				c0.1,0,0.1-0.1,0.2-0.1C126.9,201.8,126.7,201.5,126.4,201.3L126.4,201.3z"/>
			<path class="st43" d="M129.1,200.3c-0.2-0.1-0.5-0.1-0.7,0l0,0c-0.1,0-0.1,0.1,0,0.1c0.1,0.1,0.3,0.1,0.5,0.1
				C129.1,200.6,129.2,200.4,129.1,200.3L129.1,200.3z"/>
			<path class="st43" d="M123.4,200.5c0.3-0.1,0.4,0.1,0.4,0.1c0.2-0.1,0.5-0.4,0.5-0.6c0-0.1,0-0.2-0.1-0.3c-0.2-0.4-0.7-0.5-1-0.2
				c-0.1,0.1,0.2,0.3,0.2,0.4C124,200.6,123.1,200.4,123.4,200.5L123.4,200.5z"/>
			<path class="st44" d="M133.7,201.3c0-0.3-0.3-0.1-0.6-0.1c-0.2,0-0.3-0.1-0.5-0.2c-0.1,0-0.6-0.1-0.6-0.1
				c-0.2-0.1,0.5,0.3,0.5,0.3c0.1,0.1,0.2,0.4,0.4,0.5C133.5,202,133.7,201.8,133.7,201.3L133.7,201.3z"/>
		</g>
	</g>
	<g>
		<path class="st45" d="M245.3,44.2c-0.2-7.2-2.3-14-4.2-20.2c-1.2-4-2.4-7.9-2.9-11.2l-11.7-1.2c0.6,4.1,3.7,10.9,5,15.3
			c2,6.7,4.2,13.7,3.7,20.4c-2,31.6-8.9,39.1-11.7,40.9c-1.1,0.7-2.9,1.4-6.3,0l-3.9,9.2c7,3,12.2,1.3,15.4-0.7
			c9.4-5.8,14.7-21.7,16.4-48.8C245.3,46.7,245.3,45.4,245.3,44.2L245.3,44.2z"/>
		
			<ellipse transform="matrix(0.2807 -0.9598 0.9598 0.2807 155.5713 231.4648)" class="st46" cx="232.2" cy="11.9" rx="3.5" ry="6.1"/>
		<path class="st7" d="M240.6,58.1c0.6-1.7,1.9-3.7,4-3.6l-10.4-1.3c-0.1,0-0.2,0-0.3,0c-0.9,0-1.7,0.5-2.2,1.2
			c-1.2,1.3-1.6,3-2.1,4.7c-0.7,2.1-1.4,4.1-2.3,6.1c-2.4,5.3-5.4,10.4-9.4,14.7c-1.6,1.8-3.5,3.4-5.5,4.8c-1.6,1.4-2.3,3.5-2.5,5.6
			c-0.2,2.3,0.3,4.5,0.7,6.8c0.8,4.2,2.5,10.3,5.9,12.6c0.9,0.6,1.8,1,2.7,1.1l10.4,1.3c-4.8-0.4-7.5-7.6-8.4-12.5
			c-0.5-2.4-1-4.8-1-7.3c0.1-2.7,1.1-5.6,3.5-7C232.2,78.6,237.6,68.3,240.6,58.1L240.6,58.1z"/>
		<path class="st11" d="M241.7,56.1c1.4-1.9,3.3-2.2,4.7-0.5c2.4,3.2,4.2,7.5,5.8,11.2c4.5,10.5-0.4,24.4-8.4,35.2
			c-14,18.6-21.8,8.6-23.5-8.2c-0.3-2.5,0.4-5.3,1.6-6.9c0.3-0.4,0.7-0.8,1.1-1.1c8.3-5.8,14.6-17.1,17.4-27
			C240.7,57.8,241.1,56.8,241.7,56.1L241.7,56.1z"/>
		<g class="st47">
			<g>
				<g>
					<defs>
						<path id="SVGID_00000080885102990817954290000001553049234643433643_" d="M241.7,56.1c1.4-1.9,3.3-2.2,4.7-0.5
							c2.4,3.2,4.2,7.5,5.8,11.2c4.5,10.5-0.4,24.4-8.4,35.2c-14,18.6-21.8,8.6-23.5-8.2c-0.3-2.5,0.4-5.3,1.6-6.9
							c0.3-0.4,0.7-0.8,1.1-1.1c8.3-5.8,14.6-17.1,17.4-27C240.7,57.8,241.1,56.8,241.7,56.1L241.7,56.1z"/>
					</defs>
					<clipPath id="SVGID_00000142153034324297348650000001647128363827218304_">
						<use xlink:href="#SVGID_00000080885102990817954290000001553049234643433643_"  style="overflow:visible;"/>
					</clipPath>
					<g style="clip-path:url(#SVGID_00000142153034324297348650000001647128363827218304_);">
						<g>
							
								<rect x="247.1" y="39.5" transform="matrix(0.9997 -2.565278e-02 2.565278e-02 0.9997 -1.969 6.3846)" class="st14" width="1.6" height="80.8"/>
							
								<rect x="238.8" y="39.3" transform="matrix(0.9997 -2.565278e-02 2.565278e-02 0.9997 -1.9666 6.1716)" class="st14" width="1.6" height="80.8"/>
							
								<rect x="230.6" y="38.7" transform="matrix(0.9997 -2.565278e-02 2.565278e-02 0.9997 -1.9539 5.961)" class="st14" width="1.6" height="80.8"/>
							
								<rect x="222.8" y="40.4" transform="matrix(0.9997 -2.565278e-02 2.565278e-02 0.9997 -2.0001 5.7615)" class="st14" width="1.6" height="80.8"/>
							
								<rect x="255" y="38.8" transform="matrix(0.9997 -2.565278e-02 2.565278e-02 0.9997 -1.9484 6.587)" class="st14" width="1.6" height="80.8"/>
						</g>
					</g>
				</g>
			</g>
		</g>
	</g>
	<g>
		<path class="st49" d="M349.6,118.1c-0.1,4.1-7.1,7.9-10.3,10c-6.4,3.9-13.3,7-20.3,9.5c-10.2,3.6-20.9,6.3-31.7,7.2
			c-7.1,0.6-23.3,0.9-23.1-9.1v11.9c-0.1,3,1.5,5.5,4.4,6.9c8.2,4.1,21.7,2.2,30.5,0.5c7.3-1.5,14.5-3.5,21.5-6.1
			c6.5-2.4,12.7-5.2,18.6-8.8c3.2-2,8.9-5.2,10.3-8.7c0.2-0.5,0.3-1,0.3-1.6v-11.9C349.6,118,349.6,118.1,349.6,118.1L349.6,118.1z"
			/>
		<path class="st7" d="M329.2,95.7c3,1.7,5.6,3.9,8,6.4c14.4,15,18.7,16.3-0.4,27.4c-19.1,11.1-55.9,20.3-68.9,12.8
			s9.8-32.9,28.9-44C310.8,90.3,321.1,91.1,329.2,95.7L329.2,95.7z"/>
		<g>
			<path class="st9" d="M326.3,98.9c2.4,1.4,4.8,3.3,7.1,5.7c0.1,0.3,0.2,0.7,0.4,1c-0.5-0.2-0.8-0.5-1-0.8
				c-2.3-2.3-4.6-4.2-6.9-5.6c-2.9-1.7-5.9-2.6-9.1-2.9c-5.6-0.5-11.9,1.3-18.7,5.2c-8.5,4.9-17.5,12.9-23.1,20.4
				c-3,4-4.8,7.6-5.3,10.6c-0.5,3.3,0.5,5.7,3.1,7.2s6.5,2.3,11.6,2.3c4.6,0,10.2-0.6,16.1-1.9c11.5-2.4,23.7-6.9,32-11.7
				c8.1-4.7,10.9-7.2,11.1-9.7c0.2-2.6-2.5-5.5-6.9-10l0.3-0.1c0.4,0.2,0.6,0.4,1,0.5c4.2,4.3,6.6,7,6.4,9.7
				c-0.2,3.1-4.2,5.9-11.3,10c-8.3,4.8-20.7,9.3-32.3,11.7c-13,2.7-23.2,2.5-28.5-0.6c-7-4.1-1.8-13.2,2-18.3
				c5.6-7.5,14.7-15.5,23.2-20.5c7-4,13.4-5.8,19.3-5.4C320.1,96.2,323.2,97.2,326.3,98.9L326.3,98.9z"/>
			<path class="st9" d="M322,103.4c2,1.1,3.9,2.7,5.7,4.6c0.2,0.2,0.4,0.4,0.6,0.7l-1.1,0.6c-0.3-0.3-0.6-0.6-0.9-0.9
				c-1.8-1.9-3.6-3.3-5.5-4.4c-2.3-1.3-4.6-2-7-2.2c-4.3-0.3-9.2,1-14.5,4.1c-13.6,7.9-28.7,25.3-20.2,30.2c8.4,4.9,33.3-1,47.1-8.9
				c11.3-6.6,10.6-7.9,3.6-15.1l1.2-0.6c7.2,7.4,8.4,9.2-3.8,16.2c-6.7,3.9-16.6,7.5-26,9.4c-10.6,2.2-18.9,2-23.2-0.5
				c-5.8-3.4-1.5-10.8,1.5-14.9c4.5-6,11.8-12.5,18.7-16.5c5.7-3.3,11-4.8,15.8-4.4C316.9,101.1,319.5,101.9,322,103.4L322,103.4z"
				/>
			<path class="st9" d="M329.3,96c2,1.1,3.5,2.2,5.4,3.9c-0.3,0.2,6.1,5.8,5.9,6.1c-0.1,0.1-6.4-4.9-6.5-4.8c-2-1.8-3.9-3.3-6-4.5
				c-3.2-1.8-6.5-2.9-10-3.2c-6.1-0.5-13,1.4-20.5,5.8c-19.1,11.1-40.2,35.5-28.3,42.4c11.9,6.8,46.9-1.3,66.2-12.5
				c14.4-8.4,15-10.8,7.7-18.6c0.3,0,0.7,0,1,0c-0.1-0.3-0.3-0.6-0.5-0.8c-0.1-0.1-0.2-0.3-0.3-0.4c0-0.1-0.1-0.1-0.1-0.2l-0.1-0.2
				c-0.2-0.2-0.4-0.5-0.5-0.7c-0.2-0.2-0.4-0.4-0.5-0.7c-0.1-0.1-0.2-0.2-0.3-0.3l-0.3-0.3c-0.2-0.2-0.3-0.4-0.5-0.6l-0.9-1.1
				c0.3,0.3,0.5,0.6,0.8,0.8c5.5,5.7,8.9,9.1,8.6,12.4c-0.3,3.5-4.7,6.7-12.8,11.4c-9.4,5.4-23.3,10.5-36.3,13.2
				c-14.8,3.1-26.3,2.8-32.4-0.7c-8.1-4.7-2.1-15,2.2-20.8c6.2-8.4,16.5-17.4,26.1-23c7.9-4.6,15.3-6.6,22-6.1
				C322.2,92.8,325.8,94,329.3,96L329.3,96z"/>
		</g>
		<g class="st47">
			<g>
				<g>
					<defs>
						<path id="SVGID_00000075883867064792547310000009750904403760066200_" d="M329.2,95.7c0,0,2.7,1.6,5.5,4
							c0.2,0.2,0.5,0.4,0.5,0.4s0.3,0.3,0.5,0.5c0.5,0.5,1,0.9,1.5,1.5c4.3,4.4,6.5,6.6,7.7,8.2c0.2,0.3,0.4,0.4,0.5,0.7
							c2.1,2.7,3.9,6,4.1,7.3c1,5-12.8,11.2-12.8,11.2c-19.1,11.1-55.9,20.3-68.9,12.8s9.8-32.9,28.9-44
							C310.8,90.3,321.1,91.1,329.2,95.7L329.2,95.7z"/>
					</defs>
					<clipPath id="SVGID_00000040540675799336878780000011788638085922988424_">
						<use xlink:href="#SVGID_00000075883867064792547310000009750904403760066200_"  style="overflow:visible;"/>
					</clipPath>
					<g style="clip-path:url(#SVGID_00000040540675799336878780000011788638085922988424_);">
						<g>
							
								<rect x="246.5" y="112" transform="matrix(0.8696 -0.4938 0.4938 0.8696 -16.522 164.7854)" class="st51" width="114.3" height="3.3"/>
							
								<rect x="251.8" y="122.5" transform="matrix(0.8696 -0.4938 0.4938 0.8696 -21.0165 168.7677)" class="st51" width="114.3" height="3.3"/>
							
								<rect x="256.6" y="133.2" transform="matrix(0.8696 -0.4938 0.4938 0.8696 -25.6927 172.5077)" class="st51" width="114.3" height="3.3"/>
							
								<rect x="240.5" y="102.6" transform="matrix(0.8696 -0.4938 0.4938 0.8696 -12.6832 160.5601)" class="st51" width="114.3" height="3.3"/>
						</g>
					</g>
				</g>
			</g>
		</g>
	</g>
	<polyline class="st52" points="345,110.9 335.1,100.1 285,133.6 	"/>
</g>
</svg>
