<?xml version="1.0" encoding="utf-8"?>
<!-- Generator: Adobe Illustrator 28.0.0, SVG Export Plug-In . SVG Version: 6.00 Build 0)  -->
<svg version="1.1" id="SvgjsSvg1266" xmlns:svgjs="http://svgjs.com/svgjs"
	 xmlns="http://www.w3.org/2000/svg" xmlns:xlink="http://www.w3.org/1999/xlink" x="0px" y="0px" viewBox="0 0 360 360"
	 style="enable-background:new 0 0 360 360;" xml:space="preserve">
<style type="text/css">
	.st0{fill:#CDE2FD;stroke:#FFFFFF;stroke-width:1.44;stroke-linecap:round;stroke-linejoin:round;stroke-miterlimit:10;}
	.st1{fill:#AED3FF;stroke:#FFFFFF;stroke-width:1.44;stroke-linecap:round;stroke-linejoin:round;stroke-miterlimit:10;}
	.st2{fill:#D9E9FF;stroke:#FFFFFF;stroke-width:1.44;stroke-linecap:round;stroke-linejoin:round;stroke-miterlimit:10;}
	.st3{fill:#0084F0;}
	.st4{fill:#FF8469;}
	.st5{fill:#FFFFFF;}
	.st6{clip-path:url(#SVGID_00000083784431507184938710000018258934679366306945_);}
	.st7{fill:none;stroke:#143C9A;stroke-width:1.08;stroke-linecap:round;stroke-linejoin:round;stroke-miterlimit:10;}
	.st8{clip-path:url(#SVGID_00000041286916093959417770000008238617053285787822_);}
	.st9{clip-path:url(#SVGID_00000024681287388900575600000004967227708549728674_);}
	.st10{fill:#FFFFFF;stroke:#143C9A;stroke-width:1.08;stroke-linecap:round;stroke-linejoin:round;stroke-miterlimit:10;}
	.st11{fill:#0084F0;stroke:#143C9A;stroke-width:1.08;stroke-linecap:round;stroke-linejoin:round;stroke-miterlimit:10;}
	.st12{clip-path:url(#SVGID_00000072247542227412483080000006511517932019894428_);}
	.st13{clip-path:url(#SVGID_00000148643199765156782500000008794306536952756371_);}
	.st14{opacity:0.16;}
	.st15{clip-path:url(#SVGID_00000072262027103816979550000015735551624816512406_);}
	.st16{clip-path:url(#SVGID_00000134213665172261130940000016939926626372498354_);}
	.st17{stroke:#000000;stroke-width:1.08;stroke-linecap:round;stroke-linejoin:round;stroke-miterlimit:10;}
	.st18{clip-path:url(#SVGID_00000040554275933929922610000005998205857216825773_);}
	.st19{opacity:0.27;fill:#FF8469;enable-background:new    ;}
	.st20{clip-path:url(#SVGID_00000094612056576538241340000004155154812455061431_);}
	.st21{fill:#0059A4;}
	.st22{clip-path:url(#SVGID_00000051375332909323093630000002417274840516018846_);}
	.st23{clip-path:url(#SVGID_00000065771615981914572650000011359859588495700620_);}
	.st24{clip-path:url(#SVGID_00000029749371093759943760000002035350447233817228_);}
	.st25{clip-path:url(#SVGID_00000000205507139162248650000004662568896651855263_);}
	.st26{clip-path:url(#SVGID_00000098184612148026100290000002601021475770841521_);}
	.st27{clip-path:url(#SVGID_00000091730670326615942780000015535925502058632377_);}
	.st28{clip-path:url(#SVGID_00000026875197940968093430000008084114645333565853_);}
	.st29{clip-path:url(#SVGID_00000013908891463761304760000011778742667546119340_);}
	.st30{opacity:0.29;}
	.st31{opacity:0.27;}
	.st32{clip-path:url(#SVGID_00000176022086031845859200000017189715370600309899_);}
	.st33{clip-path:url(#SVGID_00000079445745518462245760000009519999435476548003_);}
	.st34{fill:#FF8469;stroke:#143C9A;stroke-width:1.08;stroke-linecap:round;stroke-linejoin:round;stroke-miterlimit:10;}
	.st35{clip-path:url(#SVGID_00000055707783320786210430000017895809162870262718_);}
	.st36{clip-path:url(#SVGID_00000075843858291871034780000008198986733056505237_);}
</style>
<g id="SvgjsG1268">
	<path class="st0" d="M252,69.6c-9.3,0-16.8,7.5-16.8,16.8s7.5,16.8,16.8,16.8c9.3,0,16.8-7.5,16.8-16.8S261.3,69.6,252,69.6z
		 M252,91.6c-2.8,0-5.2-2.3-5.2-5.2s2.3-5.2,5.2-5.2c2.8,0,5.2,2.3,5.2,5.2C257.2,89.3,254.9,91.6,252,91.6
		C252,91.6,252,91.6,252,91.6L252,91.6z M71.7,180.3c-9.3,0-16.8,7.5-16.8,16.8c0,9.3,7.5,16.8,16.8,16.8s16.8-7.5,16.8-16.8
		C88.5,187.8,81,180.3,71.7,180.3z M71.7,202.3c-2.8,0-5.2-2.3-5.2-5.2c0-2.8,2.3-5.2,5.2-5.2s5.2,2.3,5.2,5.2c0,0,0,0,0,0
		C76.8,200,74.5,202.3,71.7,202.3C71.7,202.3,71.7,202.3,71.7,202.3z M322,197.1c-4.7,0-8.4,3.8-8.4,8.4c0,4.7,3.8,8.4,8.4,8.4
		c4.7,0,8.4-3.8,8.4-8.4C330.5,200.9,326.7,197.1,322,197.1L322,197.1z M322,208.1c-1.4,0-2.6-1.2-2.6-2.6s1.2-2.6,2.6-2.6
		c1.4,0,2.6,1.2,2.6,2.6S323.5,208.1,322,208.1L322,208.1z"/>
	<circle class="st1" cx="255" cy="140.3" r="4.5"/>
	<circle class="st1" cx="129.5" cy="231.3" r="4.5"/>
	<path class="st2" d="M181,199.4h-3.7v-3.7c0-1.3-1.1-2.4-2.4-2.4l0,0c-1.3,0-2.4,1.1-2.4,2.4v3.7h-3.7c-1.3,0-2.4,1.1-2.4,2.4l0,0
		c0,1.3,1.1,2.4,2.4,2.4h3.7v3.7c0,1.3,1.1,2.4,2.4,2.4l0,0c1.3,0,2.4-1.1,2.4-2.4v-3.7h3.7c1.3,0,2.4-1.1,2.4-2.4c0,0,0,0,0,0l0,0
		C183.4,200.5,182.3,199.4,181,199.4z"/>
	<path class="st3" d="M186.3,129h-3.7v-3.7c0-1.3-1.1-2.4-2.4-2.4l0,0l0,0c-1.3,0-2.4,1.1-2.4,2.4v3.7H174c-1.3,0-2.4,1.1-2.4,2.4
		l0,0c0,1.3,1.1,2.4,2.4,2.4h3.7v3.7c0,1.3,1.1,2.4,2.4,2.4l0,0c1.3,0,2.4-1.1,2.4-2.4v-3.7h3.7c1.3,0,2.4-1.1,2.4-2.4l0,0
		C188.7,130,187.6,129,186.3,129z M32.5,238.5l-0.8-0.8l0.8-0.8c0.3-0.3,0.3-0.7,0-1l0,0c-0.3-0.3-0.7-0.3-1,0l-0.8,0.8L30,236
		c-0.3-0.3-0.7-0.3-1,0l0,0c-0.3,0.3-0.3,0.7,0,1l0.8,0.8l-0.8,0.8c-0.3,0.3-0.3,0.7,0,1l0,0c0.3,0.3,0.7,0.3,1,0l0.8-0.8l0.8,0.8
		c0.3,0.3,0.7,0.3,1,0l0,0C32.8,239.2,32.8,238.7,32.5,238.5z"/>
	<path class="st2" d="M153,95.7L153,95.7c0-0.4-0.3-0.8-0.7-1c-3.5-1.3-6.3-4.1-7.6-7.6c-0.2-0.4-0.5-0.7-1-0.7l0,0
		c-0.4,0-0.8,0.3-1,0.7c-1.3,3.5-4.1,6.3-7.6,7.6c-0.4,0.2-0.7,0.5-0.7,1l0,0c0,0.4,0.3,0.8,0.7,1c3.5,1.3,6.3,4.1,7.6,7.6
		c0.2,0.4,0.5,0.7,1,0.7l0,0c0.4,0,0.8-0.3,1-0.7c1.3-3.5,4.1-6.3,7.6-7.6C152.7,96.5,153,96.1,153,95.7z M317.7,149.5L317.7,149.5
		c0-0.4-0.3-0.8-0.7-1c-3.5-1.3-6.3-4.1-7.6-7.6c-0.2-0.4-0.5-0.7-1-0.7l0,0c-0.4,0-0.8,0.3-1,0.7c-1.3,3.5-4.1,6.3-7.6,7.6
		c-0.4,0.2-0.7,0.5-0.7,1l0,0c0,0.4,0.3,0.8,0.7,1c3.5,1.3,6.3,4.1,7.6,7.6c0.2,0.4,0.5,0.7,1,0.7l0,0c0.4,0,0.8-0.3,1-0.7
		c1.3-3.5,4.1-6.3,7.6-7.6C317.5,150.4,317.7,150,317.7,149.5z"/>
	<path class="st4" d="M267.3,201c-11.8-0.4,18,21,18,21l-7.6-26.3"/>
	<path class="st5" d="M302.5,267.6c0,0-23.6-61.8-30-69.1S286,191,286,191l4.7,13.8l17.7,60.6L302.5,267.6z"/>
	<g>
		<defs>
			<path id="SVGID_1_" d="M302.5,267.6c0,0-23.6-61.8-30-69.1S286,191,286,191l4.7,13.8l17.7,60.6L302.5,267.6z"/>
		</defs>
		<clipPath id="SVGID_00000170243711710104449610000008925394381561813901_">
			<use xlink:href="#SVGID_1_"  style="overflow:visible;"/>
		</clipPath>
		<g style="clip-path:url(#SVGID_00000170243711710104449610000008925394381561813901_);">
			<path class="st4" d="M273.2,214.2c-2.7-10.1,14.5-6.4,21-4s-4.5-7.5-4.5-7.5l-9.8-8l-5.2,1l-1.4,0.4"/>
		</g>
	</g>
	<path class="st7" d="M302.5,267.6c0,0-23.6-61.8-30-69.1S286,191,286,191l4.7,13.8l17.7,60.6L302.5,267.6z"/>
	<path class="st5" d="M263.6,205.3c8.1,3.3,13.7,4.2,18,4c1,0,0.4-10.3,1.3-10.4c0.9-0.2,3.3,9.8,4.1,9.5c4.7-1.4,7.6-3.7,12.6-3
		c0,0-8.9-4.7-6.4-21.7s-13.4-31.4-13.4-31.4l-14.3-0.2L263.6,205.3z"/>
	<g>
		<defs>
			<path id="SVGID_00000128483201664219933770000018097267769278625948_" d="M263.6,205.3c8.1,3.3,13.7,4.2,18,4
				c1,0,0.4-10.3,1.3-10.4c0.9-0.2,3.3,9.8,4.1,9.5c4.7-1.4,7.6-3.7,12.6-3c0,0-8.9-4.7-6.4-21.7s-13.4-31.4-13.4-31.4l-14.3-0.2
				L263.6,205.3z"/>
		</defs>
		<clipPath id="SVGID_00000147191298760629738460000010395317556579773834_">
			<use xlink:href="#SVGID_00000128483201664219933770000018097267769278625948_"  style="overflow:visible;"/>
		</clipPath>
		<g style="clip-path:url(#SVGID_00000147191298760629738460000010395317556579773834_);">
			<path class="st4" d="M258.2,175.8c0,0-13.7-0.6-5.5-5.4c1.2-0.7,2.8-1.4,5-2.3c17.3-6.9,22.3-10.3,28.6-4.3
				c6.3,5.9,10.3-3.2,10.3-3.2l-8.6-5.7l-20.8,0.4l-9.4,1.6l-5.2,6.1"/>
		</g>
	</g>
	<path class="st7" d="M263.6,205.3c8.1,3.3,13.7,4.2,18,4c1,0,0.4-10.3,1.3-10.4c0.9-0.2,3.3,9.8,4.1,9.5c4.7-1.4,7.6-3.7,12.6-3
		c0,0-8.9-4.7-6.4-21.7s-13.4-31.4-13.4-31.4l-14.3-0.2L263.6,205.3z"/>
	<path class="st5" d="M254.8,122.7c0,0-1.4-2.8-4.3-3.8c-2.9-1-4.2-2.7-4.2-2.7s-1.9,1.3,1,3.3c0,0-4.8,0.1-7-0.6
		c-2.8-0.9-3.7,0.6,1.1,2.4c4.8,1.8,10.2,3.3,11.8,6.5C254.8,130.8,254.8,122.7,254.8,122.7z"/>
	<g>
		<defs>
			<path id="SVGID_00000145770184576802269580000015618420602136403092_" d="M254.8,122.7c0,0-1.4-2.8-4.3-3.8
				c-2.9-1-4.2-2.7-4.2-2.7s-1.9,1.3,1,3.3c0,0-4.8,0.1-7-0.6c-2.8-0.9-3.7,0.6,1.1,2.4c4.8,1.8,10.2,3.3,11.8,6.5
				C254.8,130.8,254.8,122.7,254.8,122.7z"/>
		</defs>
		<clipPath id="SVGID_00000165918973507811397030000017941508620583022984_">
			<use xlink:href="#SVGID_00000145770184576802269580000015618420602136403092_"  style="overflow:visible;"/>
		</clipPath>
		<g style="clip-path:url(#SVGID_00000165918973507811397030000017941508620583022984_);">
			<path class="st4" d="M250,116.7c-0.4,7.7-12,5.8-12,5.8l-1.9-6.4"/>
		</g>
	</g>
	<path class="st7" d="M254.8,122.7c0,0-1.4-2.8-4.3-3.8c-2.9-1-4.2-2.7-4.2-2.7s-1.9,1.3,1,3.3c0,0-4.8,0.1-7-0.6
		c-2.8-0.9-3.7,0.6,1.1,2.4c4.8,1.8,10.2,3.3,11.8,6.5C254.8,130.8,254.8,122.7,254.8,122.7z"/>
	<path class="st5" d="M167.8,76.8h78.1c2.2,0,4,1.8,4,4v35.8c0,2.2-1.8,4-4,4h-78.1c-2.2,0-4-1.8-4-4V80.9
		C163.7,78.6,165.6,76.8,167.8,76.8z"/>
	<path class="st7" d="M167.8,76.8h78.1c2.2,0,4,1.8,4,4v35.8c0,2.2-1.8,4-4,4h-78.1c-2.2,0-4-1.8-4-4V80.9
		C163.7,78.6,165.6,76.8,167.8,76.8z"/>
	<path class="st10" d="M173,82.8h18.8c0.7,0,1.3,0.6,1.3,1.3v0c0,0.7-0.6,1.3-1.3,1.3H173c-0.7,0-1.3-0.6-1.3-1.3v0
		C171.7,83.4,172.3,82.8,173,82.8z"/>
	<path class="st10" d="M196.3,82.8h7c0.7,0,1.3,0.6,1.3,1.3v0c0,0.7-0.6,1.3-1.3,1.3h-7c-0.7,0-1.3-0.6-1.3-1.3v0
		C195,83.4,195.6,82.8,196.3,82.8z"/>
	<rect x="171" y="91.6" class="st11" width="3.1" height="22.9"/>
	<rect x="174.1" y="102.5" class="st11" width="3.1" height="12"/>
	<rect x="177.2" y="98.7" class="st10" width="3.1" height="15.8"/>
	<rect x="180.3" y="104.8" class="st10" width="3.1" height="9.7"/>
	<rect x="199.7" y="101.8" class="st10" width="3.1" height="12.7"/>
	<rect x="196.6" y="93.4" class="st10" width="3.1" height="21.1"/>
	<rect x="193.5" y="101.8" class="st11" width="3.1" height="12.7"/>
	<rect x="190.4" y="97.4" class="st11" width="3.1" height="17.1"/>
	<rect x="219" y="104.8" class="st10" width="3.1" height="9.7"/>
	<rect x="215.9" y="105.4" class="st10" width="3.1" height="9.1"/>
	<rect x="212.8" y="98.7" class="st11" width="3.1" height="15.8"/>
	<rect x="209.7" y="97.2" class="st11" width="3.1" height="17.3"/>
	<rect x="238.4" y="100.8" class="st10" width="3.1" height="13.7"/>
	<rect x="235.3" y="102.5" class="st10" width="3.1" height="12"/>
	<rect x="232.2" y="91.2" class="st11" width="3.1" height="23.3"/>
	<rect x="229.1" y="104.8" class="st11" width="3.1" height="9.7"/>
	<polygon class="st5" points="274.3,106.9 271.5,119.9 280.6,119.9 280.6,108.3 	"/>
	<g>
		<defs>
			<polygon id="SVGID_00000052804603589756078730000010624085751202230173_" points="274.3,106.9 271.5,119.9 280.6,119.9 
				280.6,108.3 			"/>
		</defs>
		<clipPath id="SVGID_00000168834618662878536240000002919417259016911002_">
			<use xlink:href="#SVGID_00000052804603589756078730000010624085751202230173_"  style="overflow:visible;"/>
		</clipPath>
		<g style="clip-path:url(#SVGID_00000168834618662878536240000002919417259016911002_);">
			<path class="st4" d="M277,110.5l-5.8-1.6c0,0,0.2,11.2,1.5,7.4C273.8,113.1,277,110.5,277,110.5"/>
		</g>
	</g>
	<polygon class="st7" points="274.3,106.9 271.5,119.9 280.6,119.9 280.6,108.3 	"/>
	<path class="st3" d="M252.6,118.9c0,0-3.6,6.7-2.4,9.3c1.2,2.6,21.1,21.4,21.1,21.4l13.6-33.5l-16.7,12.6L252.6,118.9z"/>
	<g>
		<defs>
			<path id="SVGID_00000014635398301347654230000007718366218497337007_" d="M252.6,118.9c0,0-3.6,6.7-2.4,9.3
				c1.2,2.6,21.1,21.4,21.1,21.4l13.6-33.5l-16.7,12.6L252.6,118.9z"/>
		</defs>
		<clipPath id="SVGID_00000148661991008368761300000013463812924268405895_">
			<use xlink:href="#SVGID_00000014635398301347654230000007718366218497337007_"  style="overflow:visible;"/>
		</clipPath>
		<g style="clip-path:url(#SVGID_00000148661991008368761300000013463812924268405895_);">
			<g class="st14">
				<rect x="197.4" y="83.8" class="st11" width="5.7" height="104.5"/>
				<rect x="208.4" y="83.8" class="st11" width="5.7" height="104.5"/>
				<rect x="219.3" y="83.8" class="st11" width="5.7" height="104.5"/>
				<rect x="230.3" y="83.8" class="st11" width="5.7" height="104.5"/>
				<rect x="241.2" y="83.8" class="st11" width="5.7" height="104.5"/>
				<rect x="252.2" y="83.8" class="st11" width="5.7" height="104.5"/>
				<rect x="263.1" y="83.8" class="st11" width="5.7" height="104.5"/>
				<rect x="274.1" y="83.8" class="st11" width="5.7" height="104.5"/>
			</g>
			<g class="st14">
				<rect x="184.1" y="94.6" class="st11" width="103.9" height="5.8"/>
				<rect x="184.1" y="105.7" class="st11" width="103.9" height="5.8"/>
				<rect x="184.1" y="116.7" class="st11" width="103.9" height="5.8"/>
				<rect x="184.1" y="127.7" class="st11" width="103.9" height="5.8"/>
				<rect x="184.1" y="138.7" class="st11" width="103.9" height="5.8"/>
				<rect x="184.1" y="149.7" class="st11" width="103.9" height="5.8"/>
				<rect x="184.1" y="160.7" class="st11" width="103.9" height="5.8"/>
				<rect x="184.1" y="171.8" class="st11" width="103.9" height="5.8"/>
			</g>
		</g>
	</g>
	<path class="st7" d="M252.6,118.9c0,0-3.6,6.7-2.4,9.3c1.2,2.6,21.1,21.4,21.1,21.4l13.6-33.5l-16.7,12.6L252.6,118.9z"/>
	<path class="st3" d="M262,160.3l3.6-22.3c0,0-8.5-12,7.8-22.5l7.5-2.1c0,0,11.2,13.6,7.6,32.9c-1.7,9.2,3.9,12.6,3.9,12.6
		L262,160.3z"/>
	<g>
		<defs>
			<path id="SVGID_00000044862965162757955280000008017338099442362039_" d="M262,160.3l3.6-22.3c0,0-8.5-12,7.8-22.5l7.5-2.1
				c0,0,11.2,13.6,7.6,32.9c-1.7,9.2,3.9,12.6,3.9,12.6L262,160.3z"/>
		</defs>
		<clipPath id="SVGID_00000039131547454496979800000012723686364954062481_">
			<use xlink:href="#SVGID_00000044862965162757955280000008017338099442362039_"  style="overflow:visible;"/>
		</clipPath>
		<g style="clip-path:url(#SVGID_00000039131547454496979800000012723686364954062481_);">
			<g class="st14">
				<rect x="238.6" y="84.6" class="st11" width="5.7" height="104.5"/>
				<rect x="249.6" y="84.6" class="st11" width="5.7" height="104.5"/>
				<rect x="260.5" y="84.6" class="st11" width="5.7" height="104.5"/>
				<rect x="271.5" y="84.6" class="st11" width="5.7" height="104.5"/>
				<rect x="282.4" y="84.6" class="st11" width="5.7" height="104.5"/>
				<rect x="293.4" y="84.6" class="st11" width="5.7" height="104.5"/>
				<rect x="304.3" y="84.6" class="st11" width="5.7" height="104.5"/>
				<rect x="315.3" y="84.6" class="st11" width="5.7" height="104.5"/>
			</g>
			<g class="st14">
				<rect x="225.3" y="95.4" class="st11" width="103.9" height="5.8"/>
				<rect x="225.3" y="106.4" class="st11" width="103.9" height="5.8"/>
				<rect x="225.3" y="117.4" class="st11" width="103.9" height="5.8"/>
				<rect x="225.3" y="128.5" class="st11" width="103.9" height="5.8"/>
				<rect x="225.3" y="139.5" class="st11" width="103.9" height="5.8"/>
				<rect x="225.3" y="150.5" class="st11" width="103.9" height="5.8"/>
				<rect x="225.3" y="161.5" class="st11" width="103.9" height="5.8"/>
				<rect x="225.3" y="172.5" class="st11" width="103.9" height="5.8"/>
			</g>
		</g>
	</g>
	<path class="st7" d="M262,160.3l3.6-22.3c0,0-8.5-12,7.8-22.5l7.5-2.1c0,0,11.2,13.6,7.6,32.9c-1.7,9.2,3.9,12.6,3.9,12.6
		L262,160.3z"/>
	<path class="st5" d="M224.7,124.1c0,0-1.4-2.8-4.3-3.8s-4.2-2.7-4.2-2.7s-1.9,1.3,1,3.3c0,0-5.9,0.5-7.8-0.6s-2.9,0.6,1.9,2.4
		s10.2,3.3,11.8,6.5C224.7,132.3,224.7,124.1,224.7,124.1z"/>
	<g>
		<defs>
			<path id="SVGID_00000075123222468140863660000008714675843676832168_" d="M224.7,124.1c0,0-1.4-2.8-4.3-3.8s-4.2-2.7-4.2-2.7
				s-1.9,1.3,1,3.3c0,0-5.9,0.5-7.8-0.6s-2.9,0.6,1.9,2.4s10.2,3.3,11.8,6.5C224.7,132.3,224.7,124.1,224.7,124.1z"/>
		</defs>
		<clipPath id="SVGID_00000054224569218669631560000014387184483489891737_">
			<use xlink:href="#SVGID_00000075123222468140863660000008714675843676832168_"  style="overflow:visible;"/>
		</clipPath>
		<g style="clip-path:url(#SVGID_00000054224569218669631560000014387184483489891737_);">
			<path class="st4" d="M224.4,122.7c-2.9,5.5-6.3,1.7-7.2,3c-1,1.2,3.9,3.5,3.9,3.5l2.8,0.5l1.6-7.9"/>
		</g>
	</g>
	<path class="st7" d="M224.7,124.1c0,0-1.4-2.8-4.3-3.8s-4.2-2.7-4.2-2.7s-1.9,1.3,1,3.3c0,0-5.9,0.5-7.8-0.6s-2.9,0.6,1.9,2.4
		s10.2,3.3,11.8,6.5C224.7,132.3,224.7,124.1,224.7,124.1z"/>
	<path class="st10" d="M285.2,113.4l0.3-16.6l-13.3-5l-3.4,10.3c-1.1,3.3,0.7,6.8,3.8,7.7l3.7,1"/>
	<path class="st17" d="M288,109.3c1.9-12.5-5-20-12.1-18.9c-0.4-0.1-0.9-0.1-1.4-0.1c-3.3,0-6.1,1.7-6.1,3.7c0,1.4,1.2,2.6,3,3.2
		c1.7,2.6,4.9,4.8,4.9,4.8s7.7-2-2,20c-11.5,26,33.4,26,33.6,11C308.1,117.9,285.4,126.4,288,109.3z"/>
	<path class="st10" d="M275.5,102.1c0.6-0.6,1.4-1.1,2.4-1.2c1.9-0.2,3.6,0.8,3.7,2.2c0.2,1.5-1.2,2.8-3.1,3c-0.2,0-0.4,0-0.6,0"/>
	<path class="st3" d="M270.1,121l-21.3,17.1l-24.5-15.5c0,0-4.5,7.7-3.9,9c0.4,1,15.8,12.7,23.3,18.4c2.4,1.8,5.7,1.9,8.2,0.2
		l20.5-10.9"/>
	<g>
		<defs>
			<path id="SVGID_00000099638338684628053430000016804731269720657828_" d="M270.1,121l-21.3,17.1l-24.5-15.5c0,0-4.5,7.7-3.9,9
				c0.4,1,15.8,12.7,23.3,18.4c2.4,1.8,5.7,1.9,8.2,0.2l20.5-10.9"/>
		</defs>
		<clipPath id="SVGID_00000049926689442357079960000005531017070811332777_">
			<use xlink:href="#SVGID_00000099638338684628053430000016804731269720657828_"  style="overflow:visible;"/>
		</clipPath>
		<g style="clip-path:url(#SVGID_00000049926689442357079960000005531017070811332777_);">
			<g class="st14">
				<rect x="223.1" y="87" class="st11" width="5.7" height="104.5"/>
				<rect x="234.1" y="87" class="st11" width="5.7" height="104.5"/>
				<rect x="245" y="87" class="st11" width="5.7" height="104.5"/>
				<rect x="256" y="87" class="st11" width="5.7" height="104.5"/>
				<rect x="266.9" y="87" class="st11" width="5.7" height="104.5"/>
				<rect x="277.9" y="87" class="st11" width="5.7" height="104.5"/>
				<rect x="288.8" y="87" class="st11" width="5.7" height="104.5"/>
				<rect x="299.8" y="87" class="st11" width="5.7" height="104.5"/>
			</g>
			<g class="st14">
				<rect x="209.8" y="97.8" class="st11" width="103.9" height="5.8"/>
				<rect x="209.8" y="108.8" class="st11" width="103.9" height="5.8"/>
				<rect x="209.8" y="119.8" class="st11" width="103.9" height="5.8"/>
				<rect x="209.8" y="130.8" class="st11" width="103.9" height="5.8"/>
				<rect x="209.8" y="141.8" class="st11" width="103.9" height="5.8"/>
				<rect x="209.8" y="152.9" class="st11" width="103.9" height="5.8"/>
				<rect x="209.8" y="163.9" class="st11" width="103.9" height="5.8"/>
				<rect x="209.8" y="174.9" class="st11" width="103.9" height="5.8"/>
			</g>
		</g>
	</g>
	<path class="st7" d="M270.1,121l-21.3,17.1l-24.5-15.5c0,0-4.5,7.7-3.9,9c0.4,1,15.8,12.7,23.3,18.4c2.4,1.8,5.7,1.9,8.2,0.2
		l20.5-10.9"/>
	<path class="st10" d="M269.6,100.9c-2.7,1.2-2.7,3.1-0.6,3.2"/>
	<ellipse class="st19" cx="274.5" cy="103.5" rx="2.1" ry="2.1"/>
	<path class="st10" d="M272.1,104.1c-0.5,1.2-1.5,1-1.5,1"/>
	<path class="st10" d="M32.4,45"/>
	<rect x="187.4" y="247.8" class="st5" width="20" height="29.9"/>
	<g>
		<defs>
			<rect id="SVGID_00000097460580327333067350000000426534921119102105_" x="187.4" y="247.8" width="20" height="29.9"/>
		</defs>
		<clipPath id="SVGID_00000173142712685801746670000016718879954513124788_">
			<use xlink:href="#SVGID_00000097460580327333067350000000426534921119102105_"  style="overflow:visible;"/>
		</clipPath>
		<g style="clip-path:url(#SVGID_00000173142712685801746670000016718879954513124788_);">
			<path class="st4" d="M182.8,256.4c22.8,1.2,22.1,25.3,22.1,25.3l16.4-5.2l-2.8-28.6"/>
		</g>
	</g>
	<rect x="187.4" y="247.8" class="st7" width="20" height="29.9"/>
	<path class="st10" d="M112.1,149.8h170.7c1.5,0,2.8,1.2,2.8,2.8v102.4c0,1.5-1.2,2.8-2.8,2.8H112.1c-1.5,0-2.8-1.2-2.8-2.8V152.5
		C109.4,151,110.6,149.8,112.1,149.8z"/>
	<path class="st10" d="M112.1,149.8h170.7c1.5,0,2.8,1.2,2.8,2.8l0,0v95.3l0,0H109.4l0,0v-95.3C109.4,151,110.6,149.8,112.1,149.8z
		 M172.2,275.7h50.5c4,0,7.2,3.2,7.2,7.2v0.2l0,0H165l0,0v-0.2C165,279,168.2,275.7,172.2,275.7z"/>
	<path class="st7" d="M149.9,159.9l-2.4,2.1 M270,240.4c-2.1,1.8-4.5,3.3-6.9,4.5"/>
	<path class="st21" d="M177.1,160.3h137.4c2.7,0,5,2.2,5,5v97.9c0,2.7-2.2,5-5,5H177.1c-2.7,0-5-2.2-5-5v-97.9
		C172.1,162.5,174.3,160.3,177.1,160.3z"/>
	<g>
		<defs>
			<path id="SVGID_00000124872477374594889380000016893410432937719470_" d="M177.1,160.3h137.4c2.7,0,5,2.2,5,5v97.9
				c0,2.7-2.2,5-5,5H177.1c-2.7,0-5-2.2-5-5v-97.9C172.1,162.5,174.3,160.3,177.1,160.3z"/>
		</defs>
		<clipPath id="SVGID_00000091014516038486543850000007547978217842246802_">
			<use xlink:href="#SVGID_00000124872477374594889380000016893410432937719470_"  style="overflow:visible;"/>
		</clipPath>
		<g style="clip-path:url(#SVGID_00000091014516038486543850000007547978217842246802_);">
			<rect x="165" y="156.3" class="st4" width="164" height="19.1"/>
			<g>
				<defs>
					<rect id="SVGID_00000096054134961292017440000009390112296513022117_" x="165" y="156.3" width="164" height="19.1"/>
				</defs>
				<clipPath id="SVGID_00000168095325443399718970000013550165470437536415_">
					<use xlink:href="#SVGID_00000096054134961292017440000009390112296513022117_"  style="overflow:visible;"/>
				</clipPath>
				<g style="clip-path:url(#SVGID_00000168095325443399718970000013550165470437536415_);">
					<path class="st4" d="M158.6,176.4c155.6,1.4,171.9-9,163.9-28.1c-8-19.1,11.1,19.1,11.1,19.1l-3.5,18.1l-45.6,1.4l-101-2.1"/>
				</g>
			</g>
			<rect x="165" y="156.3" class="st7" width="164" height="19.1"/>
		</g>
	</g>
	<path class="st7" d="M177.1,160.3h137.4c2.7,0,5,2.2,5,5v97.9c0,2.7-2.2,5-5,5H177.1c-2.7,0-5-2.2-5-5v-97.9
		C172.1,162.5,174.3,160.3,177.1,160.3z"/>
	<ellipse class="st10" cx="180.9" cy="167.4" rx="2.7" ry="2.7"/>
	<ellipse class="st10" cx="189" cy="167.4" rx="2.7" ry="2.7"/>
	<ellipse class="st10" cx="197.2" cy="167.4" rx="2.7" ry="2.7"/>
	<path class="st5" d="M187,183h117.5c3.7,0,6.6,3,6.6,6.6v63.6c0,3.7-3,6.6-6.6,6.6H187c-3.7,0-6.6-3-6.6-6.6v-63.6
		C180.4,186,183.4,183,187,183z"/>
	<path class="st7" d="M187,183h117.5c3.7,0,6.6,3,6.6,6.6v63.6c0,3.7-3,6.6-6.6,6.6H187c-3.7,0-6.6-3-6.6-6.6v-63.6
		C180.4,186,183.4,183,187,183z"/>
	<path class="st10" d="M196.2,195.3h14.2c0.5,0,1,0.4,1,1v0c0,0.5-0.4,1-1,1h-14.2c-0.5,0-1-0.4-1-1v0
		C195.2,195.8,195.6,195.3,196.2,195.3z"/>
	<path class="st10" d="M213.8,195.3h5.2c0.5,0,1,0.4,1,1v0c0,0.5-0.4,1-1,1h-5.2c-0.5,0-1-0.4-1-1v0
		C212.8,195.8,213.2,195.3,213.8,195.3z"/>
	<path class="st7" d="M193.2,208.2c4.2-4.3,4.3,5.6,10.5,4.8c6.2-0.8,4.2-6.6,9.8-6.4c5.6,0.2,3.3,7.1,9.3,6.5
		c6.1-0.6,3.8-14.7,9.2-14.6c5.4,0.1,3.5,15.1,8.3,14.6s2.6-5.8,10-6.1"/>
	<ellipse class="st10" cx="195.1" cy="207.1" rx="1.1" ry="1.1"/>
	<ellipse class="st10" cx="213.2" cy="206.8" rx="1.1" ry="1.1"/>
	<ellipse class="st11" cx="222.3" cy="212.9" rx="1.1" ry="1.1"/>
	<ellipse class="st10" cx="232.1" cy="198.4" rx="1.1" ry="1.1"/>
	<ellipse class="st10" cx="240.9" cy="213.1" rx="1.1" ry="1.1"/>
	<ellipse class="st10" cx="248.8" cy="206.9" rx="1.1" ry="1.1"/>
	<ellipse class="st10" cx="203.5" cy="212.9" rx="1.1" ry="1.1"/>
	<path class="st10" d="M261.8,201.4h41c1,0,1.9,0.8,1.9,1.9v0c0,1-0.8,1.9-1.9,1.9h-41c-1,0-1.9-0.8-1.9-1.9v0
		C259.9,202.3,260.8,201.4,261.8,201.4z"/>
	<path class="st10" d="M261.8,209.2h23.4c1,0,1.9,0.8,1.9,1.9v0c0,1-0.8,1.9-1.9,1.9h-23.4c-1,0-1.9-0.8-1.9-1.9v0
		C259.9,210,260.8,209.2,261.8,209.2z"/>
	<path class="st10" d="M196.4,233.6h41c1,0,1.9,0.8,1.9,1.9v0c0,1-0.8,1.9-1.9,1.9h-41c-1,0-1.9-0.8-1.9-1.9v0
		C194.5,234.5,195.3,233.6,196.4,233.6z"/>
	<path class="st10" d="M196.4,241.4h23.4c1,0,1.9,0.8,1.9,1.9v0c0,1-0.8,1.9-1.9,1.9h-23.4c-1,0-1.9-0.8-1.9-1.9v0
		C194.5,242.3,195.3,241.4,196.4,241.4z"/>
	<path class="st10" d="M248.9,226.6L248.9,226.6c0.8,0,1.5,0.7,1.5,1.5v19.2c0,0.8-0.7,1.5-1.5,1.5h0c-0.8,0-1.5-0.7-1.5-1.5v-19.2
		C247.4,227.3,248.1,226.6,248.9,226.6z"/>
	<path class="st10" d="M248.9,234.1L248.9,234.1c0.8,0,1.5,0.7,1.5,1.5v11.7c0,0.8-0.7,1.5-1.5,1.5h0c-0.8,0-1.5-0.7-1.5-1.5v-11.7
		C247.4,234.8,248.1,234.1,248.9,234.1z"/>
	<path class="st10" d="M263,226.6L263,226.6c0.8,0,1.5,0.7,1.5,1.5v19.2c0,0.8-0.7,1.5-1.5,1.5h0c-0.8,0-1.5-0.7-1.5-1.5v-19.2
		C261.5,227.3,262.1,226.6,263,226.6z"/>
	<path class="st10" d="M263,230.7L263,230.7c0.8,0,1.5,0.7,1.5,1.5v15.1c0,0.8-0.7,1.5-1.5,1.5h0c-0.8,0-1.5-0.7-1.5-1.5v-15.1
		C261.5,231.4,262.1,230.7,263,230.7z"/>
	<path class="st10" d="M256,226.6L256,226.6c0.8,0,1.5,0.7,1.5,1.5v19.2c0,0.8-0.7,1.5-1.5,1.5h0c-0.8,0-1.5-0.7-1.5-1.5v-19.2
		C254.4,227.3,255.1,226.6,256,226.6z"/>
	<path class="st10" d="M256,237.6L256,237.6c0.8,0,1.5,0.7,1.5,1.5v8.2c0,0.8-0.7,1.5-1.5,1.5h0c-0.8,0-1.5-0.7-1.5-1.5v-8.2
		C254.4,238.3,255.1,237.6,256,237.6z"/>
	<path class="st10" d="M270,226.6L270,226.6c0.8,0,1.5,0.7,1.5,1.5v19.2c0,0.8-0.7,1.5-1.5,1.5h0c-0.8,0-1.5-0.7-1.5-1.5v-19.2
		C268.5,227.3,269.2,226.6,270,226.6z"/>
	<path class="st10" d="M270,236.2L270,236.2c0.8,0,1.5,0.7,1.5,1.5v9.6c0,0.8-0.7,1.5-1.5,1.5h0c-0.8,0-1.5-0.7-1.5-1.5v-9.6
		C268.5,236.9,269.2,236.2,270,236.2z"/>
	<path class="st10" d="M277.1,226.6L277.1,226.6c0.8,0,1.5,0.7,1.5,1.5v19.2c0,0.8-0.7,1.5-1.5,1.5h0c-0.8,0-1.5-0.7-1.5-1.5v-19.2
		C275.5,227.3,276.2,226.6,277.1,226.6z"/>
	<path class="st10" d="M277.1,241.5L277.1,241.5c0.8,0,1.5,0.7,1.5,1.5v4.3c0,0.8-0.7,1.5-1.5,1.5h0c-0.8,0-1.5-0.7-1.5-1.5V243
		C275.5,242.2,276.2,241.5,277.1,241.5z"/>
	<path class="st10" d="M291.1,226.6L291.1,226.6c0.8,0,1.5,0.7,1.5,1.5v19.2c0,0.8-0.7,1.5-1.5,1.5h0c-0.8,0-1.5-0.7-1.5-1.5v-19.2
		C289.6,227.3,290.3,226.6,291.1,226.6z"/>
	<path class="st10" d="M291.1,236.2L291.1,236.2c0.8,0,1.5,0.7,1.5,1.5v9.6c0,0.8-0.7,1.5-1.5,1.5h0c-0.8,0-1.5-0.7-1.5-1.5v-9.6
		C289.6,236.9,290.3,236.2,291.1,236.2z"/>
	<path class="st10" d="M284.1,226.6L284.1,226.6c0.8,0,1.5,0.7,1.5,1.5v19.2c0,0.8-0.7,1.5-1.5,1.5l0,0c-0.8,0-1.5-0.7-1.5-1.5
		v-19.2C282.6,227.3,283.2,226.6,284.1,226.6z"/>
	<path class="st10" d="M284.1,239.7L284.1,239.7c0.8,0,1.5,0.7,1.5,1.5v6.1c0,0.8-0.7,1.5-1.5,1.5l0,0c-0.8,0-1.5-0.7-1.5-1.5v-6.1
		C282.6,240.4,283.2,239.7,284.1,239.7z"/>
	<path class="st10" d="M298.2,226.6L298.2,226.6c0.8,0,1.5,0.7,1.5,1.5v19.2c0,0.8-0.7,1.5-1.5,1.5h0c-0.8,0-1.5-0.7-1.5-1.5v-19.2
		C296.6,227.3,297.3,226.6,298.2,226.6z"/>
	<path class="st10" d="M298.2,242.9L298.2,242.9c0.8,0,1.5,0.7,1.5,1.5v2.9c0,0.8-0.7,1.5-1.5,1.5h0c-0.8,0-1.5-0.7-1.5-1.5v-2.9
		C296.6,243.6,297.3,242.9,298.2,242.9z"/>
	<path class="st7" d="M289,165.3c1.9,0.4,3.7,1.2,5.2,2.3 M213.6,226.4c1.1,1.1,2.4,1.9,3.9,2.3"/>
	<polyline class="st5" points="133.4,158.9 138.3,150 144.5,155.4 139.5,168.3 137.6,166.2 133.6,161.4 133.9,159.4 	"/>
	<g>
		<defs>
			<polyline id="SVGID_00000107564267027925397870000015414374768940027566_" points="133.4,158.9 138.3,150 144.5,155.4 
				139.5,168.3 137.6,166.2 133.6,161.4 133.9,159.4 			"/>
		</defs>
		<clipPath id="SVGID_00000157301156488763707830000009716512475453257857_">
			<use xlink:href="#SVGID_00000107564267027925397870000015414374768940027566_"  style="overflow:visible;"/>
		</clipPath>
		<g style="clip-path:url(#SVGID_00000157301156488763707830000009716512475453257857_);">
			<path class="st4" d="M143.2,163.4c-7.5-4.1,0-3.8-2.4-6c-0.7-0.6,1.8-0.9,1.8-0.9l1.7-1.1"/>
		</g>
	</g>
	<polyline class="st7" points="133.4,158.9 138.3,150 144.5,155.4 139.5,168.3 137.6,166.2 133.6,161.4 133.9,159.4 	"/>
	<path class="st10" d="M139,151.1l2.1-5.7l6.3-5.5c1.3,5.9,8,22.5-5.4,16.6"/>
	<path class="st17" d="M138.1,151.5c2.5,0.9,5.7-4.2,4.2-5.8c0,0,4.2,1.5,7.1-1.1c10,0.8,8.8-11.5,0.2-7.5c-4.7-2.3-9.6,0.4-9.2,3.2
		C131.5,136.3,130.6,148.9,138.1,151.5z"/>
	<path class="st10" d="M137.8,154.2c-4.6-3.6-1.6-9.4,3.8-2.8 M148.5,148c2.6,0.6,2.7,3.1,1,3.2"/>
	<ellipse transform="matrix(0.9813 -0.1926 0.1926 0.9813 -26.3099 30.8108)" class="st19" cx="145.3" cy="150.7" rx="1.4" ry="1"/>
	<path class="st10" d="M146.4,151.9c0.4,0.3,0.8,0.5,1.3,0.5 M131.5,157.9c0,0,0.8-1.7,2.9-2.6c0,0,5.2,2.3,6.5,11.2l-8.9-7.9
		L131.5,157.9z"/>
	<path class="st5" d="M160.1,182.4l3.8-1.7l7.2-3.1l9.3-1.1c0.9,1.5-4.5,2.2-7.1,4.3c-1.7,1.4-13.2,7.8-13.2,7.8L160.1,182.4z"/>
	<g>
		<defs>
			<path id="SVGID_00000013890571240230148110000002927754597782148788_" d="M160.1,182.4l3.8-1.7l7.2-3.1l9.3-1.1
				c0.9,1.5-4.5,2.2-7.1,4.3c-1.7,1.4-13.2,7.8-13.2,7.8L160.1,182.4z"/>
		</defs>
		<clipPath id="SVGID_00000122720049500737358390000012035522604036044183_">
			<use xlink:href="#SVGID_00000013890571240230148110000002927754597782148788_"  style="overflow:visible;"/>
		</clipPath>
		<g style="clip-path:url(#SVGID_00000122720049500737358390000012035522604036044183_);">
			<path class="st4" d="M168.3,188c-1-6-3.7-7.8-3.7-7.8s-0.6,5.2-0.6,5.4c0.1,0.2,3.5,1.5,3.5,1.5"/>
		</g>
	</g>
	<path class="st7" d="M160.1,182.4l3.8-1.7l7.2-3.1l9.3-1.1c0.9,1.5-4.5,2.2-7.1,4.3c-1.7,1.4-13.2,7.8-13.2,7.8L160.1,182.4z"/>
	<path class="st5" d="M164.6,180.2c0,0,3.1,5.7,2.1,9l-14.3,5.2c-2,1.1-4.6,0.6-6-1.2l-16.8-20.4l12.5-5l10.1,16.9L164.6,180.2z"/>
	<g>
		<defs>
			<path id="SVGID_00000034773074732189741960000009058779619733073335_" d="M164.6,180.2c0,0,3.1,5.7,2.1,9l-14.3,5.2
				c-2,1.1-4.6,0.6-6-1.2l-16.8-20.4l12.5-5l10.1,16.9L164.6,180.2z"/>
		</defs>
		<clipPath id="SVGID_00000122685477675197204910000009379443494118816936_">
			<use xlink:href="#SVGID_00000034773074732189741960000009058779619733073335_"  style="overflow:visible;"/>
		</clipPath>
		<g style="clip-path:url(#SVGID_00000122685477675197204910000009379443494118816936_);">
			<path class="st11" d="M140.9,171.2c-4.6,9,6.7,25.2,9.4,26.4c2.7,1.2-16.4-15.7-16.4-15.7l-2.4-5.1l7.7-3.7"/>
			<ellipse class="st11" cx="149.9" cy="196.2" rx="7.8" ry="5.8"/>
		</g>
	</g>
	<path class="st7" d="M164.6,180.2c0,0,3.1,5.7,2.1,9l-14.3,5.2c-2,1.1-4.6,0.6-6-1.2l-16.8-20.4l12.5-5l10.1,16.9L164.6,180.2z"/>
	<path class="st5" d="M163.3,246.5c0.2,0.3,4.7,14.5,4.7,14.5l8.3-4.1l-3.9-18.3L163.3,246.5z"/>
	<g>
		<defs>
			<path id="SVGID_00000168819742226650225230000005420284278570717336_" d="M163.3,246.5c0.2,0.3,4.7,14.5,4.7,14.5l8.3-4.1
				l-3.9-18.3L163.3,246.5z"/>
		</defs>
		<clipPath id="SVGID_00000002367220065500447460000017002758906536104104_">
			<use xlink:href="#SVGID_00000168819742226650225230000005420284278570717336_"  style="overflow:visible;"/>
		</clipPath>
		<g style="clip-path:url(#SVGID_00000002367220065500447460000017002758906536104104_);">
			<path class="st4" d="M162.5,257.9c4.3-0.7,13.2-8.2,13.2-8.2l-10.7-2l-3.8,6.9"/>
		</g>
	</g>
	<path class="st7" d="M163.3,246.5c0.2,0.3,4.7,14.5,4.7,14.5l8.3-4.1l-3.9-18.3L163.3,246.5z"/>
	<polyline class="st11" points="170.9,264.6 169.9,265.8 170.9,267.2 180.3,264 180.3,261 	"/>
	<path class="st11" d="M167.4,258.9c0,0-1,4.2,2.6,6.9l25.3-8.2c1-6.7-15.2,2.4-18.7-4.4L167.4,258.9z"/>
	<path class="st5" d="M69.1,225c-0.4,0-14.2-5.4-14.2-5.4l-2,9.1l16.6,8.4L69.1,225z"/>
	<g>
		<defs>
			<path id="SVGID_00000118378947957308437560000009535547675965238967_" d="M69.1,225c-0.4,0-14.2-5.4-14.2-5.4l-2,9.1l16.6,8.4
				L69.1,225z"/>
		</defs>
		<clipPath id="SVGID_00000011740884745550956850000009823039776483678603_">
			<use xlink:href="#SVGID_00000118378947957308437560000009535547675965238967_"  style="overflow:visible;"/>
		</clipPath>
		<g style="clip-path:url(#SVGID_00000011740884745550956850000009823039776483678603_);">
			<path class="st4" d="M63.9,217.9c-9.4,10.8,0.7,21.4,0.7,21.4l5-17.2l-12.1-4.8"/>
		</g>
	</g>
	<path class="st7" d="M69.1,225c-0.4,0-14.2-5.4-14.2-5.4l-2,9.1l16.6,8.4L69.1,225z"/>
	<polyline class="st11" points="50.3,219.6 50,218.1 48.2,218 44.8,227.4 47.2,229.3 	"/>
	<path class="st11" d="M57.5,220.7c0,0-3.2-3.6-7.5-2.5l-9.4,25c4.6,4.9,7.7-13.4,15.1-11.9L57.5,220.7z"/>
	<path class="st5" d="M105.6,218.1l45.9-1.4l12.9,36.4c0,0,8.6,1.2,14.6-6.8l-12.4-39.2c-1.1-3.4-3.9-5.9-7.4-6.5l-44.3-8.1
		L105.6,218.1z"/>
	<g>
		<defs>
			<path id="SVGID_00000044140907223234936970000007293546469511835804_" d="M105.6,218.1l45.9-1.4l12.9,36.4c0,0,8.6,1.2,14.6-6.8
				l-12.4-39.2c-1.1-3.4-3.9-5.9-7.4-6.5l-44.3-8.1L105.6,218.1z"/>
		</defs>
		<clipPath id="SVGID_00000167356258496272692310000014862651138700442242_">
			<use xlink:href="#SVGID_00000044140907223234936970000007293546469511835804_"  style="overflow:visible;"/>
		</clipPath>
		<g style="clip-path:url(#SVGID_00000167356258496272692310000014862651138700442242_);">
			<g class="st30">
				<rect x="102.8" y="172.7" class="st11" width="5.5" height="100.3"/>
				<rect x="113.3" y="172.7" class="st11" width="5.5" height="100.3"/>
				<rect x="123.8" y="172.7" class="st11" width="5.5" height="100.3"/>
				<rect x="134.3" y="172.7" class="st11" width="5.5" height="100.3"/>
				<rect x="144.8" y="172.7" class="st11" width="5.5" height="100.3"/>
				<rect x="155.3" y="172.7" class="st11" width="5.5" height="100.3"/>
				<rect x="165.8" y="172.7" class="st11" width="5.5" height="100.3"/>
				<rect x="176.3" y="172.7" class="st11" width="5.5" height="100.3"/>
			</g>
			<g class="st31">
				<rect x="92.5" y="183.1" class="st11" width="99.7" height="5.5"/>
				<rect x="92.5" y="193.7" class="st11" width="99.7" height="5.5"/>
				<rect x="92.5" y="204.2" class="st11" width="99.7" height="5.5"/>
				<rect x="92.5" y="214.8" class="st11" width="99.7" height="5.5"/>
				<rect x="92.5" y="225.4" class="st11" width="99.7" height="5.5"/>
				<rect x="92.5" y="235.9" class="st11" width="99.7" height="5.5"/>
				<rect x="92.5" y="246.5" class="st11" width="99.7" height="5.5"/>
				<rect x="92.5" y="257.1" class="st11" width="99.7" height="5.5"/>
			</g>
		</g>
	</g>
	<path class="st7" d="M105.6,218.1l45.9-1.4l12.9,36.4c0,0,8.6,1.2,14.6-6.8l-12.4-39.2c-1.1-3.4-3.9-5.9-7.4-6.5l-44.3-8.1
		L105.6,218.1z"/>
	<path class="st5" d="M124.9,194.3l-26.6-3.1l-2.6,41.6L64.1,223c0,0-4.8,6.3-2.4,15.5l37,10.4c5.7,1.6,11.7-1.7,13.5-7.4
		L124.9,194.3"/>
	<g>
		<defs>
			<path id="SVGID_00000099622439950133284720000013582656915603905690_" d="M124.9,194.3l-26.6-3.1l-2.6,41.6L64.1,223
				c0,0-4.8,6.3-2.4,15.5l37,10.4c5.7,1.6,11.7-1.7,13.5-7.4L124.9,194.3"/>
		</defs>
		<clipPath id="SVGID_00000026859409652565881040000005229733910194364063_">
			<use xlink:href="#SVGID_00000099622439950133284720000013582656915603905690_"  style="overflow:visible;"/>
		</clipPath>
		<g style="clip-path:url(#SVGID_00000026859409652565881040000005229733910194364063_);">
			<g class="st30">
				<rect x="53.4" y="170.1" class="st11" width="5.5" height="100.3"/>
				<rect x="63.9" y="170.1" class="st11" width="5.5" height="100.3"/>
				<rect x="74.4" y="170.1" class="st11" width="5.5" height="100.3"/>
				<rect x="85" y="170.1" class="st11" width="5.5" height="100.3"/>
				<rect x="95.5" y="170.1" class="st11" width="5.5" height="100.3"/>
				<rect x="106" y="170.1" class="st11" width="5.5" height="100.3"/>
				<rect x="116.5" y="170.1" class="st11" width="5.5" height="100.3"/>
				<rect x="127" y="170.1" class="st11" width="5.5" height="100.3"/>
			</g>
			<g class="st31">
				<rect x="43.1" y="180.5" class="st11" width="99.7" height="5.5"/>
				<rect x="43.1" y="191.1" class="st11" width="99.7" height="5.5"/>
				<rect x="43.1" y="201.6" class="st11" width="99.7" height="5.5"/>
				<rect x="43.1" y="212.2" class="st11" width="99.7" height="5.5"/>
				<rect x="43.1" y="222.8" class="st11" width="99.7" height="5.5"/>
				<rect x="43.1" y="233.3" class="st11" width="99.7" height="5.5"/>
				<rect x="43.1" y="243.9" class="st11" width="99.7" height="5.5"/>
				<rect x="43.1" y="254.5" class="st11" width="99.7" height="5.5"/>
			</g>
		</g>
	</g>
	<path class="st7" d="M124.9,194.3l-26.6-3.1l-2.6,41.6L64.1,223c0,0-4.8,6.3-2.4,15.5l37,10.4c5.7,1.6,11.7-1.7,13.5-7.4
		L124.9,194.3"/>
	<path class="st5" d="M142.4,168.2c0,0-5.1-12-15.5-11.3c-13.8,0.9-31.3,18.1-30,35.6c0,0,16.3,9.4,29.7,2.6
		c-2.7-11.4,9.1-13.6,13.7-20.7"/>
	<g>
		<defs>
			<path id="SVGID_00000144299693050245693310000009800424487643685565_" d="M142.4,168.2c0,0-5.1-12-15.5-11.3
				c-13.8,0.9-31.3,18.1-30,35.6c0,0,16.3,9.4,29.7,2.6c-2.7-11.4,9.1-13.6,13.7-20.7"/>
		</defs>
		<clipPath id="SVGID_00000010294543335030849230000014976689844838907264_">
			<use xlink:href="#SVGID_00000144299693050245693310000009800424487643685565_"  style="overflow:visible;"/>
		</clipPath>
		<g style="clip-path:url(#SVGID_00000010294543335030849230000014976689844838907264_);">
			<path class="st10" d="M139.2,163.1c0,0-0.2,4.4-1.8,7.1l2,2l2.7-4.3"/>
		</g>
	</g>
	<path class="st7" d="M142.4,168.2c0,0-5.1-12-15.5-11.3c-13.8,0.9-31.3,18.1-30,35.6c0,0,16.3,9.4,29.7,2.6
		c-2.7-11.4,9.1-13.6,13.7-20.7"/>
	<path class="st34" d="M105.2,185.3l5.1-6.1c0,0,27.4-2.8,30.3-14.1l0.8,1.3c-4.8,16.9-28.1,19.7-28.1,19.7L105.2,185.3z"/>
	<path class="st5" d="M202.7,174.1l-48.8,28.8c-1.4,0.8-3.2,0.4-4-1c0,0,0,0,0,0l-13-22.3c-0.8-1.4-0.3-3.2,1-4l48.8-28.8
		c1.4-0.8,3.2-0.4,4,1c0,0,0,0,0,0l13,22.3C204.6,171.5,204.1,173.3,202.7,174.1z"/>
	<g>
		<defs>
			<path id="SVGID_00000045598552377920981970000004969217625363944321_" d="M202.7,174.1l-48.8,28.8c-1.4,0.8-3.2,0.4-4-1
				c0,0,0,0,0,0l-13-22.3c-0.8-1.4-0.3-3.2,1-4l48.8-28.8c1.4-0.8,3.2-0.4,4,1c0,0,0,0,0,0l13,22.3
				C204.6,171.5,204.1,173.3,202.7,174.1z"/>
		</defs>
		<clipPath id="SVGID_00000100370412746502019970000013673524407300287384_">
			<use xlink:href="#SVGID_00000045598552377920981970000004969217625363944321_"  style="overflow:visible;"/>
		</clipPath>
		<g style="clip-path:url(#SVGID_00000100370412746502019970000013673524407300287384_);">
			<path class="st4" d="M194.5,148.2c-12.9,3.4,19.6,20.5-18.7,42s67.1-14.9,67.1-14.9l-51-25.6"/>
		</g>
	</g>
	<path class="st7" d="M202.7,174.1l-48.8,28.8c-1.4,0.8-3.2,0.4-4-1c0,0,0,0,0,0l-13-22.3c-0.8-1.4-0.3-3.2,1-4l48.8-28.8
		c1.4-0.8,3.2-0.4,4,1c0,0,0,0,0,0l13,22.3C204.6,171.5,204.1,173.3,202.7,174.1z"/>
	<path class="st10" d="M156.1,172l-11.8,6.9c-0.4,0.3-1,0.1-1.3-0.3c0,0,0,0,0,0l0,0c-0.3-0.5-0.1-1,0.3-1.3l11.8-6.9
		c0.4-0.3,1-0.1,1.3,0.3c0,0,0,0,0,0l0,0C156.7,171.1,156.6,171.7,156.1,172z M163.3,167.8l-4.3,2.6c-0.4,0.3-1,0.1-1.3-0.3
		c0,0,0,0,0,0l0,0c-0.3-0.5-0.1-1,0.3-1.3l4.3-2.6c0.4-0.3,1-0.1,1.3,0.3c0,0,0,0,0,0l0,0C163.9,166.9,163.7,167.5,163.3,167.8z"/>
	<polygon class="st11" points="155.6,196.6 153.7,197.8 145.3,183.5 147.3,182.3 	"/>
	<polygon class="st11" points="157.5,195.5 155.6,196.6 151.2,189.1 153.2,188 	"/>
	<polygon class="st10" points="159.5,194.3 157.5,195.5 151.8,185.6 153.7,184.5 	"/>
	<polygon class="st10" points="161.4,193.2 159.5,194.3 155.9,188.3 157.9,187.2 	"/>
	<polygon class="st10" points="171.6,187.2 173.5,186.1 168.9,178.1 166.9,179.3 	"/>
	<polygon class="st10" points="169.6,188.4 171.6,187.2 163.9,174 161.9,175.1 	"/>
	<polygon class="st11" points="167.7,189.5 169.6,188.4 165,180.4 163.1,181.6 	"/>
	<polygon class="st11" points="165.8,190.6 167.7,189.5 161.5,178.8 159.5,179.9 	"/>
	<polygon class="st10" points="183.7,180.1 185.6,179 182.1,172.9 180.1,174 	"/>
	<polygon class="st10" points="181.7,181.2 183.7,180.1 180.4,174.4 178.4,175.6 	"/>
	<polygon class="st11" points="179.8,182.4 181.7,181.2 176,171.3 174,172.5 	"/>
	<polygon class="st11" points="177.9,183.5 179.8,182.4 173.5,171.6 171.6,172.7 	"/>
	<polygon class="st10" points="195.8,173 197.7,171.8 192.7,163.2 190.8,164.4 	"/>
	<polygon class="st10" points="193.8,174.1 195.8,173 191.4,165.5 189.5,166.6 	"/>
	<polygon class="st11" points="191.9,175.2 193.8,174.1 185.4,159.5 183.4,160.7 	"/>
	<polygon class="st11" points="190,176.4 191.9,175.2 188.4,169.2 186.4,170.3 	"/>
	<path class="st5" d="M207.1,191.1l-59.4,17.1c-1.7,0.5-3.5-0.5-3.9-2.2c0,0,0,0,0,0l-7.7-27.2c-0.5-1.7,0.5-3.5,2.2-4l59.4-17.1
		c1.7-0.5,3.5,0.5,3.9,2.2c0,0,0,0,0,0l7.7,27.2C209.7,188.9,208.8,190.6,207.1,191.1z"/>
	<path class="st7" d="M207.1,191.1l-59.4,17.1c-1.7,0.5-3.5-0.5-3.9-2.2c0,0,0,0,0,0l-7.7-27.2c-0.5-1.7,0.5-3.5,2.2-4l59.4-17.1
		c1.7-0.5,3.5,0.5,3.9,2.2c0,0,0,0,0,0l7.7,27.2C209.7,188.9,208.8,190.6,207.1,191.1z"/>
	<path class="st10" d="M158.3,176.2l-14.3,4.1c-0.5,0.2-1.1-0.2-1.3-0.7c0,0,0,0,0,0l0,0c-0.2-0.6,0.2-1.1,0.7-1.3l14.3-4.1
		c0.5-0.2,1.1,0.2,1.3,0.7c0,0,0,0,0,0l0,0C159.2,175.5,158.8,176,158.3,176.2z M167,173.7l-5.3,1.5c-0.5,0.2-1.1-0.2-1.3-0.7
		c0,0,0,0,0,0l0,0c-0.2-0.6,0.2-1.1,0.7-1.3l5.3-1.5c0.5-0.2,1.1,0.2,1.3,0.7c0,0,0,0,0,0l0,0C167.9,172.9,167.6,173.5,167,173.7z"
		/>
	<polygon class="st11" points="151.1,202.2 148.7,202.8 143.8,185.4 146.1,184.7 	"/>
	<polygon class="st11" points="153.5,201.5 151.1,202.2 148.5,193 150.9,192.4 	"/>
	<polygon class="st10" points="155.8,200.8 153.5,201.5 150,189.4 152.4,188.8 	"/>
	<polygon class="st10" points="158.2,200.1 155.8,200.8 153.7,193.4 156.1,192.7 	"/>
	<polygon class="st10" points="170.5,196.5 172.9,195.9 170.1,186.2 167.8,186.9 	"/>
	<polygon class="st10" points="168.2,197.2 170.5,196.5 166,180.5 163.6,181.1 	"/>
	<polygon class="st11" points="165.8,197.9 168.2,197.2 165.4,187.6 163.1,188.3 	"/>
	<polygon class="st11" points="163.5,198.6 165.8,197.9 162.1,184.9 159.8,185.6 	"/>
	<polygon class="st10" points="185.3,192.3 187.6,191.6 185.5,184.3 183.2,184.9 	"/>
	<polygon class="st10" points="182.9,193 185.3,192.3 183.3,185.4 181,186.1 	"/>
	<polygon class="st11" points="180.6,193.7 182.9,193 179.5,180.9 177.1,181.6 	"/>
	<polygon class="st11" points="178.2,194.3 180.6,193.7 176.8,180.5 174.5,181.2 	"/>
	<polygon class="st10" points="200,188.1 202.3,187.4 199.4,176.9 197,177.6 	"/>
	<polygon class="st10" points="197.6,188.7 200,188.1 197.4,179 195,179.6 	"/>
	<polygon class="st11" points="195.3,189.4 197.6,188.7 192.6,171 190.2,171.7 	"/>
	<polygon class="st11" points="192.9,190.1 195.3,189.4 193.2,182 190.8,182.7 	"/>
	<path class="st5" d="M147.8,180.9c0,0,4-2.4,5.2-3.4s3.8-3.8,4.4-4s4.2-1.4,4.8-1.1s5,1,5,1c0.5,1.7-4.5,0.7-4.5,0.7
		s2.4,1.5,2.5,1.8s-0.1,0.4-0.1,0.4l0.9,0.4c0.7,1.4-4.1,0.7-4.1,0.7l-4.7,4.2l-10.6,3.8L147.8,180.9z"/>
	<g>
		<defs>
			<path id="SVGID_00000132057006788656587630000011157108813975745668_" d="M147.8,180.9c0,0,4-2.4,5.2-3.4s3.8-3.8,4.4-4
				s4.2-1.4,4.8-1.1s5,1,5,1c0.5,1.7-4.5,0.7-4.5,0.7s2.4,1.5,2.5,1.8s-0.1,0.4-0.1,0.4l0.9,0.4c0.7,1.4-4.1,0.7-4.1,0.7l-4.7,4.2
				l-10.6,3.8L147.8,180.9z"/>
		</defs>
		<clipPath id="SVGID_00000100342719248183946120000000875636466379127959_">
			<use xlink:href="#SVGID_00000132057006788656587630000011157108813975745668_"  style="overflow:visible;"/>
		</clipPath>
		<g style="clip-path:url(#SVGID_00000100342719248183946120000000875636466379127959_);">
			<path class="st4" d="M153.5,186.2c1.4-2.1-0.1-7.4-1.7-7.9s-2,7.7-2,7.7l3.5,0.7"/>
		</g>
	</g>
	<path class="st7" d="M147.8,180.9c0,0,4-2.4,5.2-3.4s3.8-3.8,4.4-4s4.2-1.4,4.8-1.1s5,1,5,1c0.5,1.7-4.5,0.7-4.5,0.7
		s2.4,1.5,2.5,1.8s-0.1,0.4-0.1,0.4l0.9,0.4c0.7,1.4-4.1,0.7-4.1,0.7l-4.7,4.2l-10.6,3.8L147.8,180.9z"/>
	<path class="st5" d="M131.5,164.4l6.5,16.5l13.8-2.5c0,0,2.1,3.9,0.8,10.2l-16.5,4.3c-2.6,1.2-5.7,0-6.9-2.6l-9.5-18.7"/>
	<path class="st7" d="M131.5,164.4l6.5,16.5l13.8-2.5c0,0,2.1,3.9,0.8,10.2l-16.5,4.3c-2.6,1.2-5.7,0-6.9-2.6l-9.5-18.7 M176,171.2
		c-0.1,1.9-1.3,3.8-3.1,4.5 M138.1,150.1c0.2-4,3.7-7.1,7.7-6.9c4,0.2,7.1,3.7,6.9,7.7 M144.5,139.2c0.1,0.8-0.1,1.5-0.7,2
		 M138,181.1c-0.7,0.5-1.5,0.8-2.3,1 M110.2,173.4c-1.3,0.7-2.3,1.9-2.7,3.3 M95.9,232.3c0.3,1.1,1.5,1.8,2.6,1.7 M151.2,216.8
		c1-0.6,1.7-1.6,2-2.8 M161.5,228.8l-1.5,1.8 M113.8,204.5c-1.5,1.3-3.3,2.1-5.3,2.4 M257.7,191.6l-2.4,2"/>
</g>
</svg>
