<?xml version="1.0" encoding="utf-8"?>
<!-- Generator: Adobe Illustrator 28.0.0, SVG Export Plug-In . SVG Version: 6.00 Build 0)  -->
<svg version="1.1" id="SvgjsSvg1690" xmlns:svgjs="http://svgjs.com/svgjs"
	 xmlns="http://www.w3.org/2000/svg" xmlns:xlink="http://www.w3.org/1999/xlink" x="0px" y="0px" viewBox="0 0 360 360"
	 style="enable-background:new 0 0 360 360;" xml:space="preserve">
<style type="text/css">
	.st0{fill:#BFF0FF;}
	.st1{clip-path:url(#SVGID_00000103968707729670027060000002197451026589818758_);}
	.st2{fill:#FDB477;}
	.st3{fill:#D98641;}
	.st4{fill:#48C6C6;}
	.st5{fill:#33201B;}
	.st6{fill:#FFFFFF;}
	.st7{fill:#4AC4D9;}
	.st8{fill:#FDFDFF;}
	.st9{fill:#CFFAFA;}
	.st10{fill:#5B4E99;}
	.st11{fill:#FFD3AD;}
	.st12{fill:#AAE0FF;}
	.st13{fill:#E6F9FF;}
	.st14{clip-path:url(#SVGID_00000131328909732634998260000006501801279190855856_);}
	.st15{fill:#241F3C;}
	.st16{fill:#312A52;}
	.st17{fill:#B3E0FF;}
	.st18{fill:#B8F5E9;}
	.st19{fill:#3BA3A3;}
	.st20{fill:#00CCAF;}
	.st21{clip-path:url(#SVGID_00000088104930604603659330000014428487476925867441_);}
	.st22{fill:#D9F0FF;}
	.st23{fill:#7AD0FF;}
	.st24{fill:#D9FFFF;}
	.st25{fill:#00BDAB;}
</style>
<g id="SvgjsG1692">
	<rect x="101.9" y="175.8" class="st0" width="152.3" height="150.1"/>
	<g>
		<defs>
			<rect id="SVGID_1_" x="102.2" y="131.3" width="151.7" height="194.2"/>
		</defs>
		<clipPath id="SVGID_00000148650281416609607200000000290436851554132638_">
			<use xlink:href="#SVGID_1_"  style="overflow:visible;"/>
		</clipPath>
		<g style="clip-path:url(#SVGID_00000148650281416609607200000000290436851554132638_);">
			<path class="st2" d="M221.2,241.7l19.4,48.4c-2.3,14.6-23.7,21-38.7,18.4l-54.3-32.6C130.3,265.8,171,188.3,221.2,241.7z"/>
			<path class="st2" d="M236.5,280.4c51.1,79.5,66.7,127.1,89.6,196.3c4.1,12.8-67.1,51.1-72.6,33.6c-13.5-75-35.6-162-56.7-208.1
				L236.5,280.4z"/>
			<path class="st3" d="M175.2,291c0,0,14.2-0.9,28.3,3.3c8.3,2.5,11.3-3.6,8.5-10.5c-4.3-10.8-16.9-20.3-29.1-15.9
				C172.2,271.8,168.7,287.8,175.2,291z"/>
			<path class="st2" d="M209.9,249.7c0,0-81.2-61.6-88.4-49.7c-8.3,13.7,77.5,66.7,77.5,66.7L209.9,249.7z"/>
			<path class="st4" d="M205.9,291.2l-58.6-0.5c-3.7,0-6.6-3.2-6.6-7l0.5-126.7c0-3.7,2.9-6.7,6.5-6.7l57.5,0c3.6,0,6.6,3,6.6,6.7
				l0.7,127.3C212.5,288.2,209.5,291.3,205.9,291.2z"/>
			<path class="st5" d="M206.7,290.3c-0.2,0-0.5,0-0.7,0l-58.6-0.6c-3.1,0-5.7-2.8-5.7-6.1l0.5-126.6c0-3.2,2.5-5.8,5.6-5.8
				l57.5-0.1c0.1,0,0.2,0,0.3,0c1.4,0.1,2.8,0.7,3.8,1.7c1,1.1,1.6,2.5,1.6,4l0.7,127.4C211.7,287.4,209.5,290,206.7,290.3z"/>
			<polygon class="st6" points="208.9,157.9 209.6,284.9 143.6,284.4 144,157.7 			"/>
			<path class="st7" d="M150.9,207.2h51.6c0.8,0,1.4,0.6,1.4,1.4v25.4c0,0.8-0.6,1.4-1.4,1.4h-51.6c-0.8,0-1.4-0.6-1.4-1.4v-25.4
				C149.5,207.9,150.1,207.2,150.9,207.2z"/>
			<path class="st6" d="M198.5,215.3h-44.7c0,0-0.1,0-0.1-0.1c0,0,0-0.1,0.1-0.1l0,0h44.7C198.6,215.2,198.6,215.2,198.5,215.3
				C198.6,215.3,198.6,215.3,198.5,215.3z M198.5,224.8h-44.7c0,0-0.1,0-0.1-0.1c0,0,0-0.1,0.1-0.1h44.7
				C198.6,224.6,198.6,224.7,198.5,224.8C198.6,224.7,198.6,224.8,198.5,224.8C198.6,224.8,198.6,224.8,198.5,224.8z M198.5,220.2
				h-44.7c0,0-0.1,0-0.1-0.1c0,0,0-0.1,0.1-0.1h44.7C198.6,220,198.6,220.1,198.5,220.2C198.6,220.1,198.6,220.2,198.5,220.2
				C198.6,220.2,198.6,220.2,198.5,220.2z"/>
			<path class="st6" d="M198.5,229.6h-44.8l-0.1-16.9c0-0.1,0.1-0.1,0.1-0.1l0,0c0.1,0,0.1,0.1,0.1,0.1c0,0,0,0,0,0l0.1,16.6h44.5
				c0.1,0,0.1,0,0.1,0.1C198.7,229.5,198.6,229.6,198.5,229.6C198.6,229.6,198.6,229.6,198.5,229.6L198.5,229.6z"/>
			<path class="st6" d="M176.9,217l-10.2,9.8l-5.2-4.6l-7.7,7.2c-0.1,0.1-0.1,0.1,0,0.2c0,0,0.1,0,0.1,0c0,0,0.1,0,0.1,0l7.6-7.1
				l5.2,4.6l10.2-9.8V217z"/>
			<path class="st6" d="M162.2,222.3c0,0.4-0.3,0.7-0.7,0.7c-0.4,0-0.7-0.3-0.7-0.7c0-0.4,0.3-0.7,0.7-0.7
				C161.9,221.6,162.2,221.9,162.2,222.3L162.2,222.3z M167.6,226.9c0,0.4-0.3,0.7-0.7,0.7c-0.4,0-0.7-0.3-0.7-0.7
				c0-0.4,0.3-0.7,0.7-0.7C167.2,226.2,167.6,226.5,167.6,226.9L167.6,226.9z M177.7,217.1c0,0.4-0.3,0.7-0.7,0.7
				c-0.4,0-0.7-0.3-0.7-0.7c0-0.4,0.3-0.7,0.7-0.7S177.7,216.7,177.7,217.1L177.7,217.1z"/>
			<path class="st7" d="M151,172.1h23.4c0.8,0,1.4,0.6,1.4,1.4v18.2c0,0.8-0.6,1.4-1.4,1.4H151c-0.8,0-1.4-0.6-1.4-1.4v-18.2
				C149.6,172.8,150.2,172.1,151,172.1z"/>
			<path class="st8" d="M174.6,188.7h-22.4v-15.5c0-0.1,0.1-0.1,0.1-0.1c0.1,0,0.1,0.1,0.1,0.1v15.2h22.2c0.1,0,0.1,0.1,0.1,0.1
				C174.7,188.6,174.7,188.7,174.6,188.7L174.6,188.7z"/>
			<rect x="154.4" y="183.8" class="st8" width="2.5" height="4.7"/>
			<rect x="157.8" y="182.7" class="st8" width="2.5" height="5.8"/>
			<rect x="161.3" y="180.6" class="st8" width="2.5" height="8"/>
			<rect x="164.7" y="179" class="st8" width="2.5" height="9.5"/>
			<rect x="168.2" y="175.7" class="st8" width="2.5" height="12.8"/>
			<path class="st7" d="M179.2,172.1h23.4c0.8,0,1.4,0.6,1.4,1.4v18.2c0,0.8-0.6,1.4-1.4,1.4h-23.4c-0.8,0-1.4-0.6-1.4-1.4v-18.2
				C177.7,172.8,178.4,172.1,179.2,172.1z"/>
			<path class="st8" d="M202.7,188.7h-22.4V174c0-0.1,0.1-0.1,0.1-0.1s0.1,0.1,0.1,0.1v14.4h22.2c0.1,0,0.1,0.1,0.1,0.1
				C202.8,188.6,202.8,188.7,202.7,188.7L202.7,188.7z"/>
			<path class="st8" d="M180.4,188.6c3.8-0.3,4.3-15.4,9.9-8.7c5.3,6.4,5.6-5.5,11.3-5.5v14.1L180.4,188.6z"/>
			<path class="st4" d="M204,170.2h-54.3v-4.6H204V170.2z M149.8,170h54.1v-4.4h-54.1V170z"/>
			<rect x="162.8" y="167.1" class="st4" width="9" height="1.6"/>
			<rect x="172.8" y="167.1" class="st4" width="4.7" height="1.6"/>
			<rect x="150.6" y="167.1" class="st4" width="11" height="1.6"/>
			<rect x="149.8" y="196.1" class="st9" width="25.9" height="1.5"/>
			<rect x="149.8" y="201.5" class="st9" width="22.6" height="1.5"/>
			<rect x="149.8" y="198.8" class="st9" width="39.2" height="1.5"/>
			<path class="st4" d="M176.2,245.2L176.2,245.2c-8.4,0-15.2,6.8-15.2,15.2c0,8.4,6.8,15.1,15.2,15.1c2.4,0,4.9-0.6,7-1.7l-7-13.4
				V245.2z"/>
			<path class="st10" d="M183.3,273.7c5-2.6,8.1-7.8,8.1-13.4h-15.1L183.3,273.7z"/>
			<path class="st9" d="M176.2,245.2v15.1h15.1C191.4,251.9,184.6,245.2,176.2,245.2z"/>
			<path class="st2" d="M229.9,291.7c-35.2-2.4-25.7-53.8-25.7-53.8s-12.6-16.3-10.7-26.4c1.9-10.1,7.3-8.1,7.3-8.1s0.3,0.4,0.8,1.2
				c1,1.4,2.9,4.1,5.3,7.6c6.8,10.1,17.6,27.1,23.6,42C236,268.5,241.4,292.5,229.9,291.7z"/>
			<path class="st11" d="M206.7,212.1c-1,0.7-2.6,1.6-4.2,2.2c-4-4.5-1.5-9.3-1.2-9.9C202.4,205.9,204.3,208.6,206.7,212.1z"/>
			<path class="st2" d="M141.2,267.7c-1.9-0.6-4.3-2.3-6.9-5.7c-0.4-0.5-0.7-0.9-1-1.4c-8.8-13,7.4-19.5,7.4-19.5s1.5,5.4,3.8,9.6
				C149.4,259.3,147.3,269.4,141.2,267.7z"/>
			<path class="st11" d="M140.1,265.8c-1.3-0.4-2.9-1.6-4.8-3.9c-0.3-0.3-0.5-0.7-0.7-1c0.3-0.8,0.9-2,2.4-3.4
				C140.6,257.8,140.9,264,140.1,265.8z"/>
			<path class="st2" d="M142.1,289.6c-1.7,0.2-4.1-1-6.8-4.6c-0.4-0.5-0.8-1-1.1-1.6c-6.2-9.9,6.1-14.7,6.1-14.7s1.2,4.2,3,7.5
				C146.7,282.3,145.7,289.2,142.1,289.6z"/>
			<path class="st11" d="M141.4,288c-1.3,0.2-3-0.8-5.1-3.4c-0.3-0.4-0.6-0.8-0.8-1.2c0.4-0.8,1.1-1.7,2.2-2.8
				C140.8,280.9,141.6,285.3,141.4,288z"/>
			<path class="st2" d="M141.9,252.1c-2.1-0.3-4.6-2-7.6-5.8c-0.2-0.2-0.4-0.5-0.5-0.7c-9.9-13.5,6.9-20.2,6.9-20.2s1.5,5.4,3.8,9.6
				C149.3,243.2,147.5,252.9,141.9,252.1z"/>
			<path class="st11" d="M140.6,250.1c-1.4-0.2-3.1-1.4-5-3.9c-0.1-0.2-0.2-0.3-0.3-0.5c0.2-0.8,0.8-2,2.4-3.5
				C141,242.6,141.4,248.2,140.6,250.1z"/>
		</g>
	</g>
	<circle class="st12" cx="153.7" cy="141.8" r="2.3"/>
	<path class="st12" d="M145.4,134.5l-1-1.1c5.6-5.6,14.3-5.4,19.6,0.5l-1,1.1C158.2,129.7,150.4,129.5,145.4,134.5z"/>
	<path class="st12" d="M147.5,136.8l-1-1.1c4.4-4.4,11.2-4.2,15.4,0.4l-1,1.1C157.2,133.2,151.3,133.1,147.5,136.8z"/>
	<path class="st12" d="M149.5,139.1l-1-1.1c3.2-3.2,8.2-3.1,11.2,0.3l-1,1.1C156.1,136.6,152.1,136.6,149.5,139.1z"/>
	<g>
		<rect x="245.3" y="59.1" class="st13" width="61.6" height="60.7"/>
		<g>
			<defs>
				<rect id="SVGID_00000132083973154216227140000014556760024725982633_" x="245.3" y="59.1" width="61.6" height="60.7"/>
			</defs>
			<clipPath id="SVGID_00000155840112443453235250000006302529782525746321_">
				<use xlink:href="#SVGID_00000132083973154216227140000014556760024725982633_"  style="overflow:visible;"/>
			</clipPath>
			<g style="clip-path:url(#SVGID_00000155840112443453235250000006302529782525746321_);">
				<rect x="291.6" y="79.2" class="st15" width="1.7" height="7.7"/>
				<path class="st4" d="M293.4,84.6h-1.9c-0.4,0.3-0.6,0.7-0.6,1.2v1.4h3.1v-1.4C294,85.3,293.8,84.9,293.4,84.6z"/>
				<path class="st15" d="M290.9,87.6L290.9,87.6c-0.4,0-0.8,0.3-0.8,0.8c0,0.1,0,0.2,0,0.3l1.6,4.2c0,0.1,0.2,0.2,0.3,0.2l0,0
					c0.1,0,0.2-0.1,0.2-0.3l-0.5-4.4C291.6,87.9,291.3,87.6,290.9,87.6z M294.1,87.6L294.1,87.6c0.4,0,0.8,0.3,0.8,0.8
					c0,0.1,0,0.2,0,0.3l-1.6,4.2c0,0.1-0.2,0.2-0.3,0.2l0,0c-0.1,0-0.2-0.1-0.2-0.3l0.5-4.4C293.4,87.9,293.7,87.6,294.1,87.6z"/>
				<rect x="290.7" y="87.2" class="st15" width="3.6" height="0.4"/>
				<path class="st15" d="M291.7,87.6c0,0.2-0.2,0.4-0.4,0.4s-0.4-0.2-0.4-0.4s0.2-0.4,0.4-0.4c0,0,0,0,0,0
					C291.5,87.3,291.7,87.4,291.7,87.6C291.7,87.6,291.7,87.6,291.7,87.6z M294,87.6c0,0.2-0.2,0.4-0.4,0.4c-0.2,0-0.4-0.2-0.4-0.4
					c0-0.2,0.2-0.4,0.4-0.4l0,0C293.8,87.3,294,87.4,294,87.6C294,87.6,294,87.6,294,87.6z"/>
				<rect x="284.5" y="78" class="st15" width="7.9" height="2.5"/>
				<path class="st4" d="M285.5,82h-5.1c-1.5,0-2.8-1.2-2.8-2.8c0,0,0,0,0,0l0,0c0-1.5,1.2-2.8,2.8-2.8h5.1V82z M292.1,82h-3.6v-5.6
					h3.6c1.5,0,2.8,1.2,2.8,2.8l0,0C294.9,80.8,293.6,82,292.1,82C292.1,82,292.1,82,292.1,82z"/>
				<path class="st15" d="M292.8,80.6c-0.7,0.3-1.6,0-1.9-0.8c-0.3-0.7,0-1.6,0.8-1.9c0.7-0.3,1.6,0,1.9,0.8c0,0,0,0,0,0
					C293.9,79.4,293.5,80.2,292.8,80.6z M291.9,78.4c-0.4,0.2-0.6,0.7-0.5,1.1c0.2,0.4,0.7,0.6,1.1,0.5c0.4-0.2,0.6-0.7,0.5-1.1
					c0,0,0,0,0,0C292.8,78.4,292.3,78.2,291.9,78.4L291.9,78.4z"/>
				
					<rect x="266.3" y="83.9" transform="matrix(0.84 -0.5426 0.5426 0.84 -4.9758 159.0415)" class="st15" width="1.7" height="8.1"/>
				<path class="st15" d="M256.1,95.1L256.1,95.1c-0.7-1-0.4-2.4,0.7-3.1c0,0,0,0,0,0l11.4-7.3l2.4,3.7l-11.4,7.3
					C258.1,96.4,256.8,96.1,256.1,95.1C256.1,95.1,256.1,95.1,256.1,95.1z"/>
				<path class="st4" d="M269.6,92l12.3-9.1c1.6-1.2,2-3.4,0.9-5l0,0c-1.1-1.7-3.3-2.2-5-1.2l-13.3,7.6L269.6,92z"/>
				<path class="st15" d="M281,81.8c-1.1,0.7-2.6,0.4-3.3-0.7c-0.7-1.1-0.4-2.6,0.7-3.3c1.1-0.7,2.6-0.4,3.3,0.7c0,0,0,0,0,0
					C282.4,79.6,282.1,81.1,281,81.8z M278.9,78.7c-0.6,0.4-0.8,1.3-0.4,1.9s1.3,0.8,1.9,0.4c0.6-0.4,0.8-1.3,0.4-1.9
					C280.4,78.4,279.6,78.3,278.9,78.7L278.9,78.7z"/>
				<path class="st4" d="M274.4,114.2L274.4,114.2c-3,2.6-7.5,2.3-10.1-0.7l-11.8-13.6c-2.6-3-2.3-7.5,0.7-10.1l0,0
					c3-2.6,7.5-2.3,10.1,0.7l11.8,13.6C277.7,107.1,277.4,111.6,274.4,114.2z"/>
				<path class="st15" d="M255.1,92c-1.6,1.4-1.8,3.8-0.4,5.3c1.4,1.6,3.8,1.8,5.3,0.4c1.6-1.4,1.8-3.8,0.4-5.3c0,0,0,0,0,0
					C259.1,90.8,256.7,90.6,255.1,92z M259.1,96.6c-0.9,0.8-2.4,0.7-3.2-0.2c-0.8-0.9-0.7-2.4,0.2-3.2c0.9-0.8,2.4-0.7,3.2,0.2
					C260.1,94.3,260,95.7,259.1,96.6L259.1,96.6z M270.2,103.4h0.5c3.5,0,6.3,2.8,6.3,6.3l0,0v5.9l0,0h-13.1l0,0v-5.9
					C263.9,106.2,266.7,103.4,270.2,103.4L270.2,103.4z"/>
				<path class="st4" d="M268.6,107.6c-1.2,1.1-1.4,3-0.3,4.2c1.1,1.2,3,1.4,4.2,0.3s1.4-3,0.3-4.2v0
					C271.7,106.7,269.8,106.5,268.6,107.6C268.6,107.6,268.6,107.6,268.6,107.6z M271.7,111.2c-0.7,0.6-1.9,0.6-2.5-0.2
					c-0.6-0.7-0.6-1.9,0.2-2.5c0.7-0.6,1.9-0.6,2.5,0.2c0,0,0,0,0,0C272.5,109.4,272.4,110.5,271.7,111.2
					C271.7,111.2,271.7,111.2,271.7,111.2z"/>
				<path class="st16" d="M283.1,121.9h-25v-3.5c0-1.8,1.4-3.2,3.2-3.2l0,0h18.6c1.8,0,3.2,1.4,3.2,3.2c0,0,0,0,0,0V121.9z"/>
				<rect x="254" y="119.9" class="st15" width="33.1" height="6.7"/>
			</g>
		</g>
	</g>
	<g>
		<path class="st4" d="M313.4,155.7h-13.6c-1.1,0-1.9-0.9-1.9-1.9c0,0,0,0,0,0l0,0c0-1.1,0.9-1.9,1.9-1.9l0,0h13.6
			c1.1,0,1.9,0.9,1.9,1.9c0,0,0,0,0,0l0,0C315.3,154.8,314.5,155.7,313.4,155.7L313.4,155.7z M313.4,162.6h-13.6
			c-1.1,0-1.9-0.9-1.9-1.9c0,0,0,0,0,0l0,0c0-1.1,0.9-1.9,1.9-1.9l0,0h13.6c1.1,0,1.9,0.9,1.9,1.9c0,0,0,0,0,0l0,0
			C315.3,161.8,314.5,162.6,313.4,162.6C313.4,162.6,313.4,162.6,313.4,162.6z M313.4,169.6h-13.6c-1.1,0-1.9-0.9-1.9-1.9
			c0,0,0,0,0,0l0,0c0-1.1,0.9-1.9,1.9-1.9l0,0h13.6c1.1,0,1.9,0.9,1.9,1.9c0,0,0,0,0,0l0,0C315.3,168.8,314.5,169.6,313.4,169.6
			C313.4,169.6,313.4,169.6,313.4,169.6z M270.6,213.3c-4.9,2.6-10.3,3.9-15.8,3.9c-18.8,0-34-15.2-34-34s15.2-34,34-34h0.1v16.5
			c-9.7,0-17.5,7.8-17.5,17.5c0,9.7,7.8,17.5,17.5,17.5c2.8,0,5.6-0.7,8.1-2L270.6,213.3z"/>
		<path class="st10" d="M288.9,183.1c0,12.7-7,24.3-18.2,30.1l-7.6-14.6c5.8-3,9.4-9,9.4-15.5H288.9z"/>
		<path class="st9" d="M288.9,183.1h-16.4c0-9.7-7.8-17.5-17.5-17.5v-16.5C273.7,149.2,288.9,164.4,288.9,183.1z"/>
	</g>
	<rect x="292.2" y="211" class="st17" width="52.2" height="49.5"/>
	<rect x="301.5" y="237.9" class="st8" width="4.9" height="14.3"/>
	<rect x="308.4" y="235.8" class="st8" width="4.9" height="16.4"/>
	<rect x="315.3" y="231.4" class="st8" width="4.9" height="20.8"/>
	<rect x="322.2" y="228.3" class="st8" width="4.9" height="23.8"/>
	<rect x="329.1" y="221.8" class="st8" width="4.9" height="30.4"/>
	<g>
		<circle class="st4" cx="294.2" cy="301.4" r="25.8"/>
		<path class="st6" d="M314.9,291.1c-0.3-0.5-0.5-1-0.8-1.5c-4.1-6.9-11.6-11.2-19.7-11.3H294c-8.1,0.1-15.6,4.3-19.7,11.3
			c-0.3,0.5-0.6,1-0.8,1.5c-3.3,6.6-3.3,14.4,0.1,21c0.3,0.5,0.6,1,0.9,1.5c4.2,6.8,11.5,11,19.5,11h0.4c8-0.1,15.3-4.2,19.5-11
			c0.3-0.5,0.6-1,0.9-1.5C318.2,305.5,318.3,297.7,314.9,291.1L314.9,291.1z M313.1,312c-0.3,0.5-0.6,1-0.9,1.5
			c-2.7,3.9-6.5,6.9-11,8.4l0,0c-2,0.7-4,1-6.1,1.1c-0.2,0-0.4,0-0.6,0c-0.1,0-0.1,0-0.2,0c-0.1,0-0.1,0-0.2,0c-0.2,0-0.4,0-0.6,0
			c-1.8-0.1-3.6-0.3-5.3-0.8c-4.8-1.4-9-4.5-11.9-8.7c-0.3-0.5-0.6-1-0.9-1.5c-1.7-3-2.7-6.4-2.8-9.9c0-0.3,0-0.5,0-0.8s0-0.5,0-0.8
			c0.1-3.4,1-6.6,2.6-9.6c0.3-0.5,0.6-1,0.9-1.5c2.8-4.3,7.1-7.5,12.1-8.9c1.7-0.5,3.5-0.8,5.3-0.8c0.2,0,0.4,0,0.6,0
			c0.1,0,0.1,0,0.2,0c0.1,0,0.1,0,0.2,0c0.2,0,0.4,0,0.6,0c2.1,0.1,4.2,0.4,6.1,1.1l0,0c4.6,1.6,8.5,4.6,11.2,8.7
			c0.3,0.5,0.6,1,0.9,1.5c1.6,2.9,2.5,6.2,2.6,9.6c0,0.3,0,0.5,0,0.8c0,0.3,0,0.5,0,0.8C315.7,305.6,314.8,309,313.1,312L313.1,312z
			"/>
		<rect x="271.8" y="300.7" class="st6" width="44.8" height="1.5"/>
		<path class="st6" d="M314.9,291.1h-41.4c0.3-0.5,0.5-1,0.8-1.5h39.8C314.4,290,314.7,290.6,314.9,291.1z M314.8,312
			c-0.3,0.5-0.6,1-0.9,1.5h-39.4c-0.3-0.5-0.6-1-0.9-1.5H314.8z"/>
		<path class="st6" d="M314.9,291.1c-0.3-0.5-0.5-1-0.8-1.5c-4.1-6.9-11.6-11.2-19.7-11.3H294c-8.1,0.1-15.6,4.3-19.7,11.3
			c-0.3,0.5-0.6,1-0.8,1.5c-3.3,6.6-3.3,14.4,0.1,21c0.3,0.5,0.6,1,0.9,1.5c4.2,6.8,11.5,11,19.5,11h0.4c8-0.1,15.3-4.2,19.5-11
			c0.3-0.5,0.6-1,0.9-1.5C318.2,305.5,318.3,297.7,314.9,291.1L314.9,291.1z M313.1,312c-0.3,0.5-0.6,1-0.9,1.5
			c-2.7,3.9-6.5,6.9-11,8.4l0,0c-2,0.7-4,1-6.1,1.1c-0.2,0-0.4,0-0.6,0c-0.1,0-0.1,0-0.2,0c-0.1,0-0.1,0-0.2,0c-0.2,0-0.4,0-0.6,0
			c-1.8-0.1-3.6-0.3-5.3-0.8c-4.8-1.4-9-4.5-11.9-8.7c-0.3-0.5-0.6-1-0.9-1.5c-1.7-3-2.7-6.4-2.8-9.9c0-0.3,0-0.5,0-0.8s0-0.5,0-0.8
			c0.1-3.4,1-6.6,2.6-9.6c0.3-0.5,0.6-1,0.9-1.5c2.8-4.3,7.1-7.5,12.1-8.9c1.7-0.5,3.5-0.8,5.3-0.8c0.2,0,0.4,0,0.6,0
			c0.1,0,0.1,0,0.2,0c0.1,0,0.1,0,0.2,0c0.2,0,0.4,0,0.6,0c2.1,0.1,4.2,0.4,6.1,1.1l0,0c4.6,1.6,8.5,4.6,11.2,8.7
			c0.3,0.5,0.6,1,0.9,1.5c1.6,2.9,2.5,6.2,2.6,9.6c0,0.3,0,0.5,0,0.8c0,0.3,0,0.5,0,0.8C315.7,305.6,314.8,309,313.1,312L313.1,312z
			"/>
		<rect x="293.5" y="279" class="st6" width="1.5" height="44.8"/>
		<path class="st6" d="M281.5,301.4c0-6,1.1-11.6,3.1-15.7c2.3-4.9,5.6-7.4,9.6-7.4v1.5c-7.3,0-11.2,10.9-11.2,21.6
			c0,10.8,3.8,21.6,11.2,21.6v1.5C285.5,324.6,281.5,312.6,281.5,301.4z M294.2,324.6v-1.5c8.5,0,12.3-11.2,12.3-21.6
			c0-10.4-3.9-21.6-12.3-21.6v-1.5c9.5,0,13.8,12,13.8,23.2C308,312.6,303.7,324.6,294.2,324.6z"/>
		<path class="st6" d="M315.7,327.7h-21.1v-26.1h21.1V327.7z"/>
		<rect x="298.8" y="305.7" class="st4" width="20.4" height="25.4"/>
		<rect x="302" y="309.9" class="st6" width="10.5" height="1.7"/>
		<rect x="302" y="313.8" class="st6" width="13.7" height="1.7"/>
		<rect x="302" y="317.7" class="st6" width="13.7" height="1.7"/>
		<rect x="302" y="321.6" class="st6" width="13.7" height="1.7"/>
		<rect x="302" y="325.4" class="st6" width="13.7" height="1.7"/>
	</g>
	<g>
		<rect x="134.2" y="38.6" class="st18" width="79.9" height="75.7"/>
		<polygon class="st16" points="187.7,114.4 187.7,103.3 181.2,84.7 181.2,73.8 167.2,73.8 167.2,84.7 160.7,103.3 160.7,114.4 		
			"/>
		<rect x="166.4" y="73.7" class="st16" width="15.4" height="0.6"/>
		<polygon class="st4" points="230.3,112.7 230.3,85.1 216.1,74.4 202.4,85.1 173.7,85.1 173.7,112.7 		"/>
		<rect x="176.8" y="92.7" class="st16" width="6" height="5.7"/>
		<rect x="184.2" y="92.7" class="st16" width="6" height="5.7"/>
		<rect x="176.8" y="101.9" class="st19" width="6" height="10.2"/>
		<rect x="183.1" y="101.9" class="st19" width="6" height="10.2"/>
		<rect x="191.4" y="101.9" class="st19" width="6" height="10.2"/>
		<rect x="197.7" y="101.9" class="st19" width="6" height="10.2"/>
		<rect x="205.8" y="101.9" class="st19" width="6" height="10.2"/>
		<rect x="212.1" y="101.9" class="st19" width="6" height="10.2"/>
		<rect x="221.4" y="101.9" class="st19" width="6" height="10.2"/>
		<rect x="191.6" y="92.7" class="st16" width="6" height="5.7"/>
		<rect x="199.1" y="92.7" class="st16" width="6" height="5.7"/>
		<rect x="206.5" y="92.7" class="st16" width="6" height="5.7"/>
		<rect x="213.9" y="92.7" class="st16" width="6" height="5.7"/>
		<rect x="221.4" y="92.7" class="st16" width="6" height="5.7"/>
		<polygon class="st4" points="200.9,86.3 192.7,86.3 193.1,78 193.3,73.8 193.8,63.7 199.8,63.7 200.3,73.8 200.5,78 		"/>
		<polygon class="st4" points="189.7,86.3 182.8,86.3 183.2,78 183.4,73.8 183.7,67.3 188.8,67.3 189.1,73.8 189.3,78 		"/>
		<rect x="193.3" y="63.7" class="st4" width="7.2" height="0.4"/>
		<rect x="183.2" y="67.2" class="st4" width="6.3" height="0.4"/>
		<rect x="170.3" y="112.2" class="st4" width="63.1" height="2.1"/>
		<polygon class="st6" points="168.1,114.4 168.1,103.3 164.7,93.7 161.5,84.7 161.5,73.8 147.6,73.8 147.6,84.7 144.5,93.7 
			141.1,103.3 141.1,114.4 		"/>
		<rect x="146.8" y="73.7" class="st6" width="15.4" height="0.6"/>
		<polygon class="st4" points="164.7,93.7 144.5,93.7 147.6,84.7 147.6,80.5 161.5,80.5 161.5,84.7 		"/>
		<polygon class="st6" points="189.1,73.8 189.3,78 183.2,78 183.4,73.8 		"/>
		<polygon class="st6" points="200.5,78 193.1,78 193.3,73.8 200.3,73.8 		"/>
		<circle class="st6" cx="196.3" cy="59" r="2.6"/>
		
			<ellipse transform="matrix(0.3827 -0.9239 0.9239 0.3827 69.6159 213.5104)" class="st6" cx="194.6" cy="54.7" rx="3.8" ry="3.8"/>
		<circle class="st6" cx="190.8" cy="48.7" r="5.5"/>
		<circle class="st6" cx="186.5" cy="42.3" r="8.6"/>
		<circle class="st6" cx="184.5" cy="63.1" r="2.6"/>
		<circle class="st6" cx="182.8" cy="58.7" r="3.8"/>
		<circle class="st6" cx="179" cy="52.7" r="5.5"/>
		<circle class="st6" cx="174.8" cy="46.3" r="8.6"/>
		<circle class="st6" cx="168.7" cy="39.8" r="10.9"/>
		<path class="st20" d="M153,34.3c-6.5,0-11.8,5.3-11.8,11.8c0,0,0,0,0,0c0,6.5,11.8,17.8,11.8,17.8s11.8-11.2,11.8-17.8
			C164.8,39.6,159.5,34.3,153,34.3C153,34.3,153,34.3,153,34.3z M153,49.4c-2.2,0-4-1.8-4-4c0-2.2,1.8-4,4-4c2.2,0,4,1.8,4,4
			c0,0,0,0,0,0C157,47.6,155.2,49.4,153,49.4z"/>
	</g>
	<g>
		<g>
			<defs>
				<rect id="SVGID_00000034793445490164063270000011629025868371522234_" x="21.9" y="73" width="94.5" height="93.1"/>
			</defs>
			<clipPath id="SVGID_00000011009501279572671120000007395203890460867772_">
				<use xlink:href="#SVGID_00000034793445490164063270000011629025868371522234_"  style="overflow:visible;"/>
			</clipPath>
			<g style="clip-path:url(#SVGID_00000011009501279572671120000007395203890460867772_);">
				<rect x="21.9" y="73" class="st22" width="94.5" height="93.1"/>
				<path class="st4" d="M40.2,61.6h20.5c3,0,5.4,2.4,5.4,5.4v0.4c0,3-2.4,5.4-5.4,5.4H40.2c-3,0-5.4-2.4-5.4-5.4V67
					C34.8,64,37.2,61.6,40.2,61.6z"/>
				<rect x="48.3" y="79.7" class="st15" width="3.7" height="16.7"/>
				
					<rect x="56.6" y="120.7" transform="matrix(0.6696 -0.7427 0.7427 0.6696 -69.5416 88.7402)" class="st15" width="16.7" height="3.7"/>
				
					<rect x="51.1" y="134" transform="matrix(0.9999 -1.082083e-02 1.082083e-02 0.9999 -1.508 0.5816)" class="st15" width="3.7" height="11.2"/>
				<path class="st4" d="M50,64.6h0.3c2,0,3.6,1.6,3.6,3.6v12.4c0,2-1.6,3.6-3.6,3.6H50c-2,0-3.6-1.6-3.6-3.6V68.2
					C46.4,66.2,48.1,64.6,50,64.6z"/>
				<path class="st15" d="M49.3,78.4c-1.1,0.5-1.6,1.8-1.1,2.9c0.5,1.1,1.8,1.6,2.9,1.1c1.1-0.5,1.6-1.8,1.1-2.9c0,0,0,0,0,0
					C51.7,78.4,50.4,77.9,49.3,78.4z M39.3,64.4c-1.5,0.6-2.1,2.3-1.5,3.7c0.6,1.5,2.3,2.1,3.7,1.5c1.5-0.6,2.1-2.3,1.5-3.7
					c0,0,0,0,0,0C42.4,64.5,40.7,63.8,39.3,64.4z M59.4,64.6c-1.4,0.6-2.1,2.3-1.5,3.8c0.6,1.4,2.3,2.1,3.8,1.5
					c1.4-0.6,2.1-2.3,1.5-3.7C62.5,64.6,60.8,64,59.4,64.6z"/>
				<path class="st4" d="M66.6,120.1l-19.3-17.6c-3-2.7-3.2-7.3-0.5-10.2c0,0,0,0,0,0l0,0c2.7-3,7.3-3.2,10.2-0.5c0,0,0,0,0,0
					l19.3,17.6c3,2.7,3.2,7.3,0.5,10.2l0,0C74.1,122.6,69.5,122.8,66.6,120.1z"/>
				<path class="st15" d="M53.5,93.5c-1.9-0.7-4.1,0.3-4.7,2.2c-0.7,1.9,0.3,4.1,2.2,4.7c1.9,0.7,4.1-0.3,4.7-2.2
					C56.5,96.3,55.5,94.2,53.5,93.5z M72.7,111.3c-1.9-0.7-4,0.4-4.7,2.3c-0.7,1.9,0.4,4,2.3,4.7c1.9,0.7,4-0.4,4.7-2.3
					C75.6,114.1,74.6,112,72.7,111.3z"/>
				<path class="st4" d="M65.4,128.1L56,138.6c-1.4,1.6-3.9,1.7-5.5,0.3l0,0c-1.6-1.4-1.7-3.9-0.3-5.5l9.4-10.5
					c1.4-1.6,3.9-1.7,5.5-0.3c0,0,0,0,0,0l0,0C66.7,124,66.9,126.5,65.4,128.1z"/>
				<path class="st15" d="M51.5,135.4c-0.3,0.8,0.2,1.8,1,2c0.8,0.3,1.8-0.2,2-1c0.3-0.8-0.2-1.8-1-2
					C52.7,134.1,51.8,134.6,51.5,135.4C51.5,135.4,51.5,135.4,51.5,135.4z M61.2,124.8c-0.3,0.8,0.2,1.8,1,2c0.8,0.3,1.8-0.2,2-1
					c0.3-0.8-0.2-1.8-1-2c0,0,0,0,0,0C62.5,123.5,61.5,124,61.2,124.8z"/>
				<rect x="51" y="151.3" class="st15" width="3.7" height="1.6"/>
				<rect x="51.8" y="152.2" class="st15" width="2.2" height="2.3"/>
				<rect x="51" y="151.3" class="st15" width="3.7" height="1.6"/>
				<path class="st15" d="M54.8,155L54.8,155l-0.3-0.3c-0.4-0.4-1-0.6-1.6-0.6l0,0c-0.6,0-1.1,0.2-1.6,0.6l-0.3,0.3l0,0v1.8l0,0
					l0.3,0.3c0.4,0.4,1,0.6,1.5,0.6h0c0.6,0,1.1-0.2,1.5-0.6l0.3-0.3l0,0V155z"/>
				<rect x="51.9" y="156.6" class="st15" width="2.1" height="1.5"/>
				<polygon class="st15" points="52.6,155.5 52.6,161.9 53,162.3 53.4,161.9 53.4,155.5 				"/>
				<polygon class="st4" points="55.1,152 50.7,152 48.4,149.5 57.4,149.5 				"/>
				<polygon class="st4" points="50.5,142.4 55.3,142.4 57.7,144.1 48,144.1 				"/>
				<rect x="47.7" y="143.8" class="st15" width="10.3" height="5.9"/>
			</g>
		</g>
		<circle class="st12" cx="50.1" cy="66.3" r="2.3"/>
		<path class="st12" d="M41.8,58.9l-1-1.1c5.6-5.6,14.3-5.4,19.6,0.5l-1,1.1C54.6,54.1,46.8,53.9,41.8,58.9z"/>
		<path class="st12" d="M43.9,61.3l-1-1.1c4.4-4.4,11.2-4.2,15.4,0.4l-1.1,1.1C53.6,57.6,47.7,57.5,43.9,61.3z"/>
		<path class="st12" d="M45.9,63.5l-1-1.1c3.2-3.2,8.2-3.1,11.2,0.3l-1.1,1.1C52.5,61.1,48.5,61,45.9,63.5z"/>
	</g>
	<g>
		<path class="st4" d="M107.3,278.2c1.6-11.7-6.6-22.4-18.2-24c-9.5-1.3-18.8,4-22.5,12.8c-6.1-5.5-15.5-4.9-21,1.2
			c-2.4,2.7-3.8,6.3-3.8,9.9h-2.8c-7.9,0-14.4,6.5-14.4,14.4l0,0c0,7.9,6.5,14.4,14.4,14.4h67.2c7.9,0,14.4-6.5,14.4-14.4l0,0
			C120.7,285,114.8,278.8,107.3,278.2z"/>
		<polygon class="st10" points="74.1,311.5 74.1,302 71.7,302 71.7,311.5 36.6,311.5 36.6,313.7 111.2,313.7 111.2,311.5 		"/>
		<rect x="58.9" y="275" class="st23" width="29.3" height="26.5"/>
		<path class="st6" d="M58.6,275h29.9c0.5,0,0.9,0.4,0.9,0.9v6.1c0,0.5-0.4,0.9-0.9,0.9H58.6c-0.5,0-0.9-0.4-0.9-0.9V276
			C57.7,275.4,58.1,275,58.6,275z"/>
		<rect x="59.1" y="277.1" class="st23" width="3.1" height="4.2"/>
		<rect x="63.8" y="277.1" class="st23" width="3.1" height="4.2"/>
		<rect x="68.5" y="277.1" class="st23" width="3.1" height="4.2"/>
		<path class="st6" d="M58.6,284.5h29.9c0.5,0,0.9,0.4,0.9,0.9v6.1c0,0.5-0.4,0.9-0.9,0.9H58.6c-0.5,0-0.9-0.4-0.9-0.9v-6.1
			C57.7,285,58.1,284.5,58.6,284.5z"/>
		<rect x="59.1" y="286.6" class="st23" width="3.1" height="4.2"/>
		<rect x="63.8" y="286.6" class="st23" width="3.1" height="4.2"/>
		<rect x="68.5" y="286.6" class="st23" width="3.1" height="4.2"/>
		<path class="st6" d="M58.6,294h29.9c0.5,0,0.9,0.4,0.9,0.9v6.1c0,0.5-0.4,0.9-0.9,0.9H58.6c-0.5,0-0.9-0.4-0.9-0.9V295
			C57.7,294.5,58.1,294,58.6,294z"/>
		<rect x="59.1" y="296.1" class="st23" width="3.1" height="4.2"/>
		<rect x="63.8" y="296.1" class="st23" width="3.1" height="4.2"/>
		<rect x="68.5" y="296.1" class="st23" width="3.1" height="4.2"/>
		<rect x="67.4" y="309.8" class="st10" width="11.2" height="5.4"/>
		<path class="st24" d="M30,252.7L30,252.7L30,252.7z M30,252.7L30,252.7L30,252.7z M56.1,252.9L56.1,252.9z M56.1,252.9L56.1,252.9
			z"/>
		<path class="st6" d="M43.2,245.7c-3.1,3.2-7.9,5.8-13.1,6.9c0,0.3,0,2.3-0.1,11.1c-0.1,11.8,11.1,17.6,12.8,18.5
			c1.7-0.8,13.1-6.4,13.2-18.2c0.1-8.8,0.1-10.7,0.1-11.1C50.9,251.7,46.1,249,43.2,245.7z"/>
		<path class="st25" d="M43.1,247.8c-3,2.7-7.1,4.8-11.7,5.9l-0.1,10c-0.1,4.6,1.7,8.7,5.3,12.3c1.8,1.8,3.9,3.3,6.1,4.5
			c0.1,0,0.1-0.1,0.2-0.1L43.1,247.8L43.1,247.8z"/>
		<path class="st25" d="M43.1,247.9l-0.2,32.6c2.2-1.1,4.2-2.6,6-4.3c3.7-3.5,5.5-7.6,5.6-12.2l0.1-10
			C50.2,252.8,46.1,250.6,43.1,247.9z"/>
		<path class="st6" d="M37.4,261.3v8c0,0.9,10.9,0.9,10.9,0v-8H37.4z M43.4,265.6v2.3c0,0.3-0.2,0.6-0.5,0.6c-0.3,0-0.6-0.2-0.6-0.5
			c0,0,0,0,0-0.1v-2.3c-0.7-0.3-1-1.1-0.7-1.8c0.3-0.7,1.1-1,1.8-0.7c0.7,0.3,1,1.1,0.7,1.8C44,265.2,43.7,265.5,43.4,265.6
			L43.4,265.6z M47.4,260.8h-1.1v-0.5c0-1.9-1.5-3.4-3.4-3.4c-1.9,0-3.4,1.5-3.4,3.4v0.5h-1.1v-0.5c0-2.5,2.1-4.5,4.6-4.4
			c2.4,0,4.4,2,4.4,4.4V260.8z"/>
	</g>
	<g>
		<path class="st4" d="M26.8,223.9l-10.2-7.7h22.3l-10.2,7.7C28.1,224.4,27.3,224.4,26.8,223.9z"/>
		<path class="st4" d="M39.8,217.5v15.6H15.6v-15.6l10.9,8.1c0.8,0.6,1.8,0.6,2.6,0L39.8,217.5z"/>
		<path class="st20" d="M88.5,161.8h34.7c1.8,0,3.3,1.5,3.3,3.3V179c0,1.8-1.5,3.3-3.3,3.3H88.5c-1.8,0-3.3-1.5-3.3-3.3v-13.9
			C85.3,163.3,86.7,161.8,88.5,161.8z"/>
		<polygon class="st20" points="119.7,179 119.7,188.2 110.3,178.8 		"/>
		<circle class="st6" cx="93.1" cy="172.2" r="1.8"/>
		<circle class="st6" cx="99.2" cy="172.2" r="1.8"/>
		<circle class="st6" cx="105.2" cy="172.2" r="1.8"/>
		<circle class="st6" cx="111.2" cy="172.2" r="1.8"/>
		<circle class="st6" cx="117.2" cy="172.2" r="1.8"/>
		<path class="st12" d="M46.7,189.3c-0.3,1.3-0.4,2.7-0.2,4l1.1-0.2c0.2,1.2,0.6,2.4,1.2,3.4l-1,0.6c0.7,1.2,1.6,2.2,2.7,3l0.2-0.2
			l0.5-0.7c1,0.7,2.1,1.3,3.3,1.6l-0.3,1.1c1.3,0.3,2.7,0.4,4,0.2l-0.2-1.1c1.2-0.2,2.4-0.6,3.4-1.2l0.6,1c1.2-0.7,2.2-1.6,3-2.7
			l0,0l-0.3-0.2l-0.6-0.5c0.7-1,1.3-2.1,1.6-3.3l1.1,0.3c0.3-1.3,0.4-2.7,0.2-4l-1.1,0.2c-0.2-1.2-0.6-2.4-1.2-3.4l1-0.6
			c-0.7-1.2-1.6-2.2-2.7-3l-0.7,0.9c-1-0.7-2.1-1.3-3.3-1.6l0.3-1.1c-1.3-0.3-2.7-0.4-4-0.2l0.2,1.1c-1.2,0.2-2.4,0.6-3.4,1.2
			l-0.6-1c-1.2,0.7-2.2,1.6-3,2.7h0l0.6,0.5l0.3,0.2c-0.7,1-1.3,2.1-1.6,3.3L46.7,189.3z M51.9,190.7c0.7-2.7,3.4-4.3,6.1-3.6
			c2.7,0.7,4.3,3.4,3.6,6.1c-0.7,2.7-3.4,4.3-6.1,3.6C52.8,196.1,51.2,193.3,51.9,190.7C51.9,190.7,51.9,190.7,51.9,190.7
			L51.9,190.7z M97.2,245.2v-12.9c-6.7-0.3-11.8-5.9-11.6-12.6c0.3-6.3,5.3-11.3,11.6-11.6v-12.9c-1,0-2,0.1-3,0.2l0.4,2.7
			c-2.9,0.4-5.7,1.4-8.3,2.9l-1.4-2.4c-2.8,1.6-5.3,3.8-7.2,6.4l0,0l1.4,1.1l0.7,0.6c-1.8,2.3-3.1,5-3.8,7.9l-2.6-0.7
			c-0.8,3.1-1,6.4-0.6,9.6l2.7-0.4c0.4,2.9,1.4,5.7,2.9,8.3l-2.4,1.4c1.6,2.8,3.8,5.3,6.4,7.2l0.4-0.5l1.3-1.7
			c2.4,1.8,5,3.1,7.9,3.8l-0.7,2.6C93.2,244.9,95.2,245.1,97.2,245.2z"/>
	</g>
</g>
</svg>
