<?xml version="1.0" encoding="utf-8"?>
<!-- Generator: Adobe Illustrator 28.0.0, SVG Export Plug-In . SVG Version: 6.00 Build 0)  -->
<svg version="1.1" id="SvgjsSvg1566" xmlns:svgjs="http://svgjs.com/svgjs"
	 xmlns="http://www.w3.org/2000/svg" xmlns:xlink="http://www.w3.org/1999/xlink" x="0px" y="0px" viewBox="0 0 360 360"
	 style="enable-background:new 0 0 360 360;" xml:space="preserve">
<style type="text/css">
	.st0{fill:#CAE9FF;}
	.st1{fill:none;stroke:#0B0354;stroke-width:0.6851;stroke-linecap:round;stroke-miterlimit:10.9091;}
	.st2{fill:#FFFFFF;stroke:#0B0354;stroke-width:0.3425;stroke-miterlimit:10.9091;}
	.st3{fill:#219EB4;}
	.st4{fill:#47C6C6;}
	.st5{fill:#FFFFFF;}
	.st6{fill:none;stroke:#FFFFFF;stroke-width:0.3415;stroke-linecap:round;stroke-miterlimit:10.9091;}
	.st7{fill:none;stroke:#FFFFFF;stroke-width:0.3425;stroke-linecap:round;stroke-miterlimit:10.9091;}
	.st8{fill:none;stroke:#FEAC00;stroke-width:0.3425;stroke-linecap:round;stroke-miterlimit:10.9091;}
	.st9{fill:none;stroke:#0B0354;stroke-width:0.3425;stroke-linecap:round;stroke-miterlimit:10.9091;}
	.st10{fill:#FEAC00;}
	.st11{fill:#FFFFFF;stroke:#47C6C6;stroke-width:0.3425;stroke-linecap:round;stroke-miterlimit:10.9091;}
	.st12{fill:#FFFFFF;stroke:#0B0354;stroke-width:0.3425;stroke-linejoin:round;stroke-miterlimit:10.9091;}
	.st13{fill:#0B0354;}
	.st14{fill:#787878;}
	.st15{fill:none;stroke:#FEAC00;stroke-width:0.3425;stroke-miterlimit:10.9091;}
	.st16{fill:none;stroke:#0B0354;stroke-width:0.3415;stroke-linecap:round;stroke-miterlimit:10.9091;}
</style>
<g id="SvgjsG1568">
	<path class="st0" d="M258.8,140.8c-11-16.1,4.3-49.9-29.9-60.1c-26.7-8.1-42.7,17.5-56.1,19c-15.7,1.9-43.7-17.9-61.5-3.5
		c-26.5,21.5-16,46.4-26.7,64.3c-8.1,13.4-28,17.6-31.1,52.9c-2.1,24.5,8.3,50.2,41.5,67.5h181C349.9,195.5,267.9,154.3,258.8,140.8
		z"/>
	<line class="st1" x1="37" y1="280.9" x2="323" y2="280.9"/>
	<path class="st2" d="M87.3,221.2l3.9-5.2c3.1-4,6.8-7.3,11.1-9.9l0,0c7.3-4.3,10.4-13.2,7.4-21.1l-11.5-30.8L83.5,192L87.3,221.2z"
		/>
	<path class="st3" d="M263.3,205.6H97.9c-3.1,0-5.5-2.4-5.5-5.5v-115c0-3.1,2.4-5.5,5.5-5.5h165.5c3.1,0,5.5,2.4,5.5,5.5v115
		C268.8,203.2,266.4,205.6,263.3,205.6z"/>
	<path class="st4" d="M265.1,87.7c0-2.9-2.4-4.8-5.3-4.8H101.3c-2.9,0-4.4,2-4.4,4.8v4h168.1V87.7z"/>
	<path class="st5" d="M97,91.9V198c0,2.9,1.4,5.2,4.4,5.2h158.5c2.9,0,5.3-2.3,5.3-5.2V91.9H97z"/>
	<circle class="st6" cx="245.6" cy="87.2" r="2.1"/>
	<line class="st6" x1="253.7" y1="85.9" x2="257.1" y2="89.2"/>
	<line class="st6" x1="253.7" y1="89.2" x2="257.1" y2="85.9"/>
	<line class="st7" x1="234.3" y1="89.6" x2="237.1" y2="89.6"/>
	<path class="st5" d="M106.4,89.2h37.2c1.1,0,2-0.9,2-2v-0.3c0-1.1-0.9-2-2-2h-37.2c-1.1,0-2,0.9-2,2v0.3
		C104.4,88.4,105.3,89.2,106.4,89.2z"/>
	<g>
		<path class="st2" d="M91.2,208.7l5.2-16.9c3.8-11.6,4.6-24,2.2-35.9l-0.7-3.3c-0.8-3.5-0.9-7.1-0.3-10.6l3.2-23.5
			c1-7.2-9.2-9.7-11.7-2.9L79,142.6c-2.1,5.3-3.4,11-3.9,16.8l-1.7,18.4l-30.5,53.6c0,0,9.6,20.1,36.1,16.7l8.3-26.8"/>
		<path class="st2" d="M88.9,115.9l-2.7,7.4c1.2,0.5,2.6,0.8,4.7,0.2l2.8-7c0.7-1.7-0.2-3.5-1.2-4.5
			C90.8,112.5,89.7,113.9,88.9,115.9z"/>
	</g>
	<g>
		<path class="st8" d="M199.9,122.6v21.5c0,2.3,1.9,4.1,4.1,4.1h71.1c2.3,0,4.1-1.9,4.1-4.1v-39.2"/>
		<line class="st9" x1="199" y1="98.8" x2="214.8" y2="98.8"/>
		<line class="st9" x1="199" y1="101.6" x2="224.7" y2="101.6"/>
		<line class="st9" x1="199" y1="104.7" x2="219.2" y2="104.7"/>
		<path class="st8" d="M196.1,124.1c0,0,4.3-2.4,6.4-2.4c3.9,0,6.7,9.9,10.6,9.5c5-0.5,11.2-14.2,16.3-14.2c8.4,0,19,17.2,27.3,15.8
			c9.1-1.6,10.4-28.3,22.5-28.3c0.9,0,3.4,0,3.4,0"/>
		<circle class="st10" cx="229.5" cy="117.2" r="2.3"/>
		<circle class="st10" cx="255.9" cy="133.1" r="2.3"/>
		<circle class="st10" cx="279.4" cy="104.6" r="2.3"/>
		<circle class="st10" cx="213.1" cy="131.1" r="2.3"/>
		<circle class="st10" cx="200.1" cy="122.6" r="2.3"/>
	</g>
	<g>
		<path class="st11" d="M65.6,103.3L65.6,103.3c0-4.1,3.4-7.6,7.6-7.6h108.3c4.1,0,7.6,3.4,7.6,7.6l0,0c0,4.1-3.4,7.6-7.6,7.6H73.1
			C68.9,110.9,65.6,107.6,65.6,103.3z"/>
		<path class="st4" d="M173.5,110.9V95.8h8.1c4.1,0,7.6,3.4,7.6,7.6l0,0c0,4.1-3.4,7.6-7.6,7.6h-8.1V110.9z"/>
		<circle class="st6" cx="180" cy="102.7" r="2.5"/>
		<line class="st6" x1="181.9" y1="104.4" x2="183.6" y2="106.1"/>
		<g>
			<path class="st4" d="M76.1,104.8l-1.6-1.6l1.6-1.6h1.1l-1.6,1.6l1.6,1.6H76.1z M84.1,101.8l-1.3,4h-0.9l-0.8-2.9l-0.8,2.9h-0.9
				l-1.2-4h0.9l0.9,3.2l0.9-3.2h0.9l0.8,3.2l0.9-3.2H84.1z M90.1,101.8l-1.3,4h-0.9l-0.8-2.9l-0.9,2.9h-0.9l-1.2-4h0.9l0.9,3.2
				l0.9-3.2h0.9l0.8,3.2l0.9-3.2H90.1z M96,101.8l-1.2,4h-0.9l-0.8-2.9l-0.9,2.9h-0.9l-1.2-4h0.9l0.9,3.2l0.9-3.2h0.9l0.8,3.2
				l0.9-3.2H96z M96.7,105.7c-0.1-0.1-0.1-0.2-0.1-0.3c0-0.1,0-0.3,0.1-0.3c0.1-0.1,0.2-0.1,0.3-0.1s0.2,0,0.3,0.1
				c0.1,0.1,0.1,0.2,0.1,0.3c0,0.1,0,0.3-0.1,0.3c-0.1,0.1-0.2,0.1-0.3,0.1C96.9,105.8,96.7,105.8,96.7,105.7z M101,98.9l-2,8.1
				h-0.8l2-8.1H101z M104.8,98.9l-2,8.1h-0.8l2-8.1H104.8z M106.1,101.6h1.1l1.6,1.6l-1.6,1.6h-1.1l1.6-1.6L106.1,101.6z"/>
		</g>
	</g>
	<g>
		<polygon class="st12" points="145.7,126.8 145.1,140.7 160.3,140.2 		"/>
		<path class="st12" d="M145.7,126.8h-34.9c-1.2,0-2.2,1-2.2,2.2v55.3c0,1.2,1,2.2,2.2,2.2h47.2c1.2,0,2.2-1,2.2-2.2v-44.1h-14.5
			V126.8z"/>
		<path class="st13" d="M153.5,147.9h-38.1c-0.8,0-1.4,0.7-1.4,1.4v14.5c0,0.8,0.7,1.4,1.4,1.4h38.1c0.8,0,1.4-0.7,1.4-1.4v-14.6
			C154.9,148.5,154.3,147.9,153.5,147.9z"/>
		<g>
			<path class="st5" d="M122,154.4c0.3-0.7,0.9-1.1,1.5-1.5c0.7-0.3,1.3-0.5,2.2-0.5c1,0,1.9,0.2,2.5,0.8c0.7,0.5,1.2,1.2,1.4,2.1
				h-2.2c-0.2-0.3-0.4-0.7-0.7-0.8c-0.3-0.2-0.7-0.2-1-0.2c-0.7,0-1.1,0.2-1.5,0.7c-0.4,0.4-0.5,1-0.5,1.7c0,0.8,0.2,1.3,0.5,1.7
				c0.4,0.4,0.9,0.7,1.5,0.7c0.4,0,0.8-0.1,1-0.2c0.3-0.2,0.5-0.4,0.7-0.8h2.2c-0.2,0.9-0.7,1.6-1.4,2.1c-0.7,0.5-1.5,0.8-2.5,0.8
				c-0.8,0-1.5-0.2-2.2-0.5c-0.7-0.3-1.1-0.9-1.5-1.5c-0.3-0.7-0.5-1.4-0.5-2.2C121.4,155.7,121.5,155,122,154.4z M140.1,152.4v8.3
				H138v-5l-1.9,5h-1.6l-1.9-5v5h-2.1v-8.3h2.4l2.3,5.8l2.3-5.8H140.1z M142.9,160.5c-0.4-0.2-0.9-0.4-1.2-0.9
				c-0.3-0.4-0.4-0.9-0.4-1.4h2.2c0,0.3,0.1,0.5,0.3,0.7c0.2,0.1,0.4,0.2,0.7,0.2c0.3,0,0.5-0.1,0.7-0.2c0.2-0.1,0.2-0.3,0.2-0.5
				c0-0.2-0.1-0.3-0.2-0.5c-0.1-0.1-0.3-0.2-0.5-0.3c-0.2-0.1-0.4-0.2-0.9-0.3c-0.5-0.2-1-0.3-1.3-0.5c-0.3-0.2-0.7-0.4-0.9-0.8
				c-0.2-0.3-0.3-0.8-0.3-1.3c0-0.8,0.3-1.4,0.9-1.9s1.3-0.7,2.2-0.7s1.6,0.2,2.2,0.7c0.5,0.4,0.9,1.1,0.9,1.9h-2.2
				c0-0.2-0.1-0.4-0.3-0.7c-0.2-0.1-0.4-0.2-0.7-0.2c-0.2,0-0.4,0.1-0.5,0.2c-0.1,0.1-0.2,0.3-0.2,0.5c0,0.2,0.1,0.4,0.3,0.7
				c0.2,0.1,0.7,0.3,1.2,0.4c0.5,0.2,1,0.3,1.3,0.5c0.3,0.2,0.7,0.4,0.9,0.8c0.2,0.3,0.3,0.8,0.3,1.2c0,0.4-0.1,0.9-0.3,1.3
				c-0.2,0.4-0.5,0.7-1.1,0.9c-0.4,0.2-1,0.3-1.6,0.3C144,160.8,143.5,160.7,142.9,160.5z"/>
		</g>
	</g>
	<polyline class="st9" points="89.6,214 92.2,205.5 93.7,200.5 	"/>
	<g>
		<path class="st10" d="M231.3,160.3h-53.3c-1.5,0-2.7,1.2-2.7,2.7v32.9c0,1.5,1.2,2.7,2.7,2.7h53.3c1.5,0,2.7-1.2,2.7-2.7V163
			C234,161.5,232.8,160.3,231.3,160.3z"/>
		<path class="st5" d="M218.9,176.7c-0.1,0-0.2,0-0.4,0c-0.8-5.1-5.2-8.9-10.5-8.9c-3.6,0-6.8,1.7-8.6,4.5c-0.7-0.2-1.4-0.3-2.2-0.3
			c-3.5,0-6.4,2.8-6.4,6.4c-0.4-0.1-0.9-0.1-1.3-0.1c-3.4,0-6.1,3.4-6.1,6.7c0,3.4,2.7,6.7,6.1,6.7c0.2,0,29.1,0,29.5,0
			c3.7,0,6.8-3.6,6.8-7.4C225.7,180.4,222.7,176.7,218.9,176.7z"/>
		<rect x="202.3" y="181.9" class="st10" width="5" height="9.7"/>
		<path class="st10" d="M200.5,181.9l3.9-4.6c0.2-0.2,0.5-0.2,0.8,0l3.9,4.6c0.3,0.3,0,0.9-0.4,0.9h-7.9
			C200.4,182.6,200.2,182.2,200.5,181.9z"/>
	</g>
	<g>
		<path class="st2" d="M287.7,280.9c0,0,20.3,0,29.3-22.1l-25.4-29.9l0.3-22.4c0-3.2-0.1-6.3-0.4-9.4l-1.5-15.3
			c-0.5-5.2-7.6-6.1-9.5-1.3l-0.2,0.5l-2-8.9c-1.3-5.9-9.4-6.5-11.6-0.9l0,0l-0.5-1.7c-1.9-6.3-10.9-5.1-11.1,1.4l-0.4,15.8
			l-11.7-44.2c-1.2-4.7-8.1-3.3-7.5,1.5l8.1,64.9l-21.7-17.3c-5.3-4.3-12.2,2.6-8.1,8.1l17.9,23.3c2,2.5,4.1,4.9,6.5,7l20.6,18.3
			L287.7,280.9z"/>
		<path class="st2" d="M242.8,147.4l-1.1-4.8c-0.9-3.2-5.6-2.3-5.1,1l0.5,4.8C237.2,148.4,240.1,150.4,242.8,147.4z M213.6,199.6
			l4.5,5.9c1.2-0.8,2.5-2.1,2.9-4.7l-4.9-4.8c-1.2-1.1-2.6-1.2-3.7-0.8C212.3,196.7,212.6,198.2,213.6,199.6z"/>
		<line class="st9" x1="254.6" y1="186.8" x2="257.8" y2="200.5"/>
		<line class="st9" x1="266.6" y1="171.3" x2="270.4" y2="192.9"/>
		<line class="st9" x1="280.1" y1="181.2" x2="281.2" y2="190"/>
		<polygon class="st14" points="261.5,251.3 291.6,228.8 300.7,239.5 271.5,262.6 		"/>
		<g>
			<path class="st13" d="M295.9,247.3l-15.3,12.1c-0.5,0.4-1.4,0.3-2-0.2l-12.1-15.3c-0.4-0.5-0.3-1.4,0.2-2l15.3-12.1
				c0.5-0.4,1.4-0.3,2,0.2l12.1,15.3C296.5,246,296.4,246.9,295.9,247.3z"/>
			<path class="st15" d="M294.3,247.2L280.8,258c-0.5,0.4-1.4,0.3-2-0.2L268,244.3c-0.4-0.5-0.3-1.4,0.2-2l13.5-10.8
				c0.5-0.4,1.4-0.3,2,0.2l10.8,13.5C295,245.8,294.9,246.7,294.3,247.2z"/>
			<path class="st5" d="M292.4,247l-11.5,9.1c-0.5,0.4-1.4,0.3-2-0.2l-9.1-11.5c-0.4-0.5-0.3-1.4,0.2-2l11.5-9.1
				c0.5-0.4,1.4-0.3,2,0.2l9.1,11.5C293.1,245.6,293,246.4,292.4,247z"/>
			<polyline class="st16" points="278.5,241.4 281.2,244.8 287,244.6 			"/>
		</g>
	</g>
</g>
</svg>
