<?xml version="1.0" encoding="utf-8"?>
<!-- Generator: Adobe Illustrator 28.0.0, SVG Export Plug-In . SVG Version: 6.00 Build 0)  -->
<svg version="1.1" id="SvgjsSvg1603" xmlns:svgjs="http://svgjs.com/svgjs"
	 xmlns="http://www.w3.org/2000/svg" xmlns:xlink="http://www.w3.org/1999/xlink" x="0px" y="0px" viewBox="0 0 360 360"
	 style="enable-background:new 0 0 360 360;" xml:space="preserve">
<style type="text/css">
	.st0{opacity:0.15;fill:#600815;enable-background:new    ;}
	.st1{fill:#7B3841;}
	.st2{fill:#600815;}
	.st3{fill:#5F1921;}
	.st4{fill:#FFFFFF;}
	.st5{fill:#FAFAFA;}
	.st6{fill:#E5D1D4;}
	.st7{fill:#FF6699;}
	.st8{fill:#E37384;}
	.st9{fill:#D04056;}
	.st10{fill:#FE798D;}
	.st11{fill:none;}
	.st12{fill:#FF3D5E;}
	.st13{fill:#FF7E91;}
</style>
<g id="SvgjsG1605">
	<path class="st0" d="M313.7,259.2c4.2,2.4,4.2,6.3,0,8.7L223,320.6c-4.1,2.4-10.8,2.4-15,0l-172.9-98c-4.2-2.4-4.2-6.3,0-8.7
		l90.7-52.7c4.1-2.4,10.8-2.4,15,0L313.7,259.2z"/>
	<path class="st1" d="M317.3,233.4l0,17.3c0,1.6-1,3.1-3.1,4.3l-90.7,52.7c-4.1,2.4-10.8,2.4-15,0L29.9,206.5
		c-2.1-1.2-3.1-2.8-3.1-4.4l0-17.3c0,1.6,1,3.2,3.1,4.4l178.5,101.2c4.2,2.4,10.9,2.4,15,0l90.7-52.7
		C316.3,236.5,317.3,235,317.3,233.4z"/>
	<path class="st2" d="M314.2,237.7l-90.7,52.7c-4.1,2.4-10.8,2.4-15,0l-0.8-0.4v17.3l0.7,0.4c4.2,2.4,10.9,2.4,15,0l90.7-52.7
		c2.1-1.2,3.1-2.7,3.1-4.3l0-17.3C317.3,235,316.3,236.5,314.2,237.7z"/>
	<polygon class="st3" points="226.8,288.5 226.8,305.8 234.3,301.4 234.3,284.2 	"/>
	<path class="st2" d="M216,310.1c-2.8,0-5.6-0.6-7.8-1.9l-73.2-41.5c-0.3-0.2-0.4-0.5-0.2-0.8c0.2-0.3,0.5-0.4,0.8-0.2l73.2,41.5
		c4,2.3,10.4,2.3,14.4,0l90.7-52.7c1.8-1,2.8-2.4,2.8-3.8l0-14.2c-0.6,0.6-1.3,1.2-2.2,1.8L223.8,291c-4.3,2.5-11.3,2.5-15.6,0
		L29.7,189.8c-0.9-0.5-1.7-1.2-2.2-1.8l0,14.2c0,1.4,1,2.8,2.8,3.8l81,45.9c0.3,0.2,0.4,0.5,0.2,0.8c-0.2,0.3-0.5,0.4-0.8,0.2
		l-81-45.9c-2.2-1.3-3.4-3-3.4-4.9l0-17.3c0-0.3,0.3-0.6,0.6-0.6c0,0,0,0,0,0c0.3,0,0.6,0.3,0.6,0.6c0,1.4,1,2.8,2.8,3.8
		l178.5,101.2c4,2.3,10.4,2.3,14.4,0l90.7-52.7c1.8-1,2.8-2.4,2.8-3.8v0c0-0.3,0.3-0.6,0.6-0.6c0,0,0,0,0,0c0.3,0,0.6,0.3,0.6,0.6
		c0,0,0,0,0,0l0,17.2c0,1.9-1.2,3.6-3.4,4.8l-90.7,52.7C221.6,309.5,218.8,310.1,216,310.1z"/>
	<path class="st4" d="M314.2,237.7l-90.7,52.7c-4.1,2.4-10.8,2.4-15,0L30,189.3c-4.2-2.4-4.2-6.3,0-8.7l90.7-52.7
		c4.1-2.4,10.8-2.4,15,0l170.9,96.9l0.4,0.2l7.2,4.1C318.3,231.4,318.3,235.3,314.2,237.7z"/>
	<path class="st2" d="M216,292.8c-2.8,0-5.6-0.6-7.8-1.9L29.7,189.8c-2.2-1.3-3.4-3-3.4-4.9c0-1.9,1.2-3.6,3.4-4.8l90.7-52.7
		c4.3-2.5,11.3-2.5,15.6,0l170.9,96.9l0.4,0.2l7.2,4.1c2.2,1.3,3.4,3,3.4,4.9c0,1.9-1.2,3.6-3.4,4.8l0,0L223.8,291
		C221.7,292.2,218.8,292.8,216,292.8z M128.1,126.6c-2.6,0-5.2,0.6-7.2,1.7l-90.7,52.7c-1.8,1-2.8,2.4-2.8,3.8c0,1.4,1,2.8,2.8,3.8
		l178.5,101.2c4,2.3,10.4,2.3,14.4,0l90.7-52.7c1.8-1,2.8-2.4,2.8-3.8c0-1.4-1-2.8-2.8-3.8l-7.6-4.3l-170.9-96.9
		C133.4,127.2,130.7,126.6,128.1,126.6z M314.2,237.7L314.2,237.7L314.2,237.7z"/>
	<path class="st4" d="M275.8,266.3c1.1-0.7,2.1-0.1,2.1,1.2c0,1.3-0.9,2.9-2,3.6l-13,7.5c-1.1,0.7-2.1,0.1-2.1-1.2
		c0-1.3,0.9-2.9,2.1-3.6L275.8,266.3z M284.7,261.2c1.1-0.7,2.1-0.1,2.1,1.2c0,1.3-0.9,2.9-2.1,3.6c-1.1,0.7-2.1,0.1-2.1-1.2
		C282.6,263.4,283.5,261.9,284.7,261.2z M290.8,257.6c1.1-0.7,2.1-0.1,2.1,1.2c0,1.3-0.9,2.9-2,3.6c-1.1,0.7-2.1,0.1-2.1-1.2
		C288.8,259.9,289.7,258.3,290.8,257.6z M247.7,282.6c1.1-0.7,2.1-0.1,2.1,1.2c0,1.3-0.9,2.9-2,3.6c-1.1,0.7-2.1,0.1-2.1-1.2
		C245.6,284.8,246.5,283.2,247.7,282.6z M253.8,279c1.1-0.7,2.1-0.1,2.1,1.2c0,1.3-0.9,2.9-2,3.6c-1.1,0.7-2.1,0.1-2.1-1.2
		C251.8,281.2,252.7,279.7,253.8,279z"/>
	<g>
		<path class="st5" d="M144.3,244.6l43.8,24.8c2.5,1.4,5.6,1.4,8.1,0l81.2-47.2c1.8-1.1,1.8-3.7,0-4.7l-146-82.8
			c-2.5-1.4-5.6-1.4-8.1,0L42,182c-1.8,1.1-1.8,3.7,0,4.7l70.7,40.1"/>
		<path class="st2" d="M192.1,271.1c-1.5,0-3-0.4-4.3-1.1L144,245.2c-0.3-0.2-0.4-0.5-0.2-0.8c0.2-0.3,0.5-0.4,0.8-0.2l43.8,24.8
			c2.3,1.3,5.2,1.3,7.5,0l81.2-47.2c0.7-0.4,1.1-1.1,1.1-1.8c0-0.8-0.4-1.5-1.1-1.8l-146-82.8c-2.3-1.3-5.2-1.3-7.5,0l-81.2,47.2
			c-0.7,0.4-1.1,1.1-1.1,1.8c0,0.8,0.4,1.5,1.1,1.8l70.7,40.1c0.3,0.2,0.4,0.5,0.2,0.8c-0.2,0.3-0.5,0.4-0.8,0.2l-70.7-40.1
			c-1-0.6-1.7-1.7-1.7-2.9c0-1.2,0.6-2.3,1.7-2.9l81.2-47.2c2.7-1.6,6-1.6,8.7,0l146,82.8c1,0.6,1.7,1.7,1.7,2.9
			c0,1.2-0.6,2.3-1.7,2.9L196.5,270C195.2,270.8,193.6,271.1,192.1,271.1z"/>
	</g>
	<g>
		<path class="st6" d="M124,39c-1.9,1.1-3.1,3.5-3.1,6.9l0,15.8l-66.6,38.7l0.1-15.8c0-3.4,1.2-5.8,3.1-6.9L124,39z"/>
		<path class="st2" d="M54.3,101c-0.1,0-0.2,0-0.3-0.1c-0.2-0.1-0.3-0.3-0.3-0.5l0.1-15.8c0-3.5,1.2-6.1,3.4-7.4l66.5-38.7
			c0,0,0,0,0.1,0c0.3-0.2,0.7-0.1,0.8,0.2c0.2,0.3,0.1,0.7-0.2,0.8l0,0c-1.8,1.1-2.8,3.3-2.8,6.3l0,15.8c0,0.2-0.1,0.4-0.3,0.5
			L54.6,101C54.5,101,54.4,101,54.3,101z M121.2,41.4L57.8,78.2c-1.8,1-2.8,3.3-2.8,6.3l-0.1,14.8l65.4-38l0-15.5
			C120.3,44.2,120.6,42.6,121.2,41.4z"/>
		<g>
			<path class="st4" d="M161.9,161.7l-66.6,38.7c-1.9,1.1-4.6,0.9-7.8-0.9c-2.9-1.7-5.6-4.6-7.5-7.9c-1.9-3.3-3.1-7.1-3.1-10.5
				l0.4-82.5c0-7.4-5.2-16.4-11.6-20.1c-3.2-1.9-6.1-2-8.3-0.8L124.1,39c2.1-1.2,5-1.1,8.3,0.8c6.4,3.7,11.6,12.7,11.6,20.1
				l-0.4,82.5c0,3.4,1.2,7.1,3.1,10.5c1.9,3.3,4.6,6.2,7.5,7.9C157.3,162.7,160,162.8,161.9,161.7z"/>
			<path class="st2" d="M92.6,201.7c-1.4,0-3.2-0.4-5.3-1.7c-2.9-1.7-5.7-4.6-7.7-8.2c-2.1-3.6-3.2-7.4-3.2-10.8l0.4-82.5
				c0-7.2-5.1-15.9-11.3-19.5c-2.9-1.7-5.6-2-7.6-0.8l0,0l0,0c-0.3,0.2-0.7,0.1-0.8-0.2c-0.2-0.3-0.1-0.7,0.2-0.8l66.6-38.7
				c2.4-1.4,5.5-1.1,8.9,0.8c6.6,3.8,11.9,13,11.9,20.6l-0.4,82.5c0,3.1,1.1,6.7,3,10.2c2,3.4,4.6,6.1,7.3,7.7
				c2.8,1.6,5.3,1.9,7.1,0.9c0.3-0.2,0.7-0.1,0.8,0.2c0.2,0.3,0.1,0.7-0.2,0.8L95.7,201C94.9,201.4,93.9,201.7,92.6,201.7z M61,76.4
				c1.6,0.1,3.3,0.7,5,1.7c6.6,3.8,11.9,13,11.9,20.6l-0.4,82.5c0,3.2,1.1,6.8,3,10.2c2,3.4,4.5,6.1,7.3,7.7
				c2.8,1.6,5.3,1.9,7.2,0.9l63.5-36.9c-1.5-0.1-3-0.7-4.7-1.6c-2.9-1.7-5.7-4.6-7.7-8.2c-2.1-3.6-3.2-7.4-3.2-10.8l0.4-82.5
				c0-7.2-5-15.9-11.3-19.5c-2.9-1.7-5.7-2-7.7-0.8L61,76.4z"/>
			<path class="st6" d="M168.6,123.3c-1.9,1.1-3.1,3.5-3.1,6.9l-0.1,24.1c0,3.7-1.3,6.2-3.4,7.4l-66.6,38.7c2.1-1.2,3.4-3.8,3.4-7.4
				l0.1-24.1c0-3.4,1.2-5.7,3.2-6.9L168.6,123.3z"/>
			<path class="st2" d="M95.4,201c-0.2,0-0.4-0.1-0.5-0.3c-0.2-0.3-0.1-0.7,0.2-0.8c2-1.2,3.1-3.6,3.1-6.9l0.1-24.1
				c0-3.5,1.2-6.1,3.5-7.4l66.5-38.6c0,0,0.1,0,0.1-0.1c0.3-0.2,0.7-0.1,0.8,0.2c0.2,0.3,0.1,0.7-0.2,0.8l-0.1,0
				c-1.8,1.1-2.8,3.3-2.8,6.3l-0.1,24.1c0,3.8-1.3,6.6-3.7,8l-66.6,38.7c0,0,0,0,0,0l0,0C95.6,201,95.5,201,95.4,201z M165.7,125.7
				l-63.4,36.8c-1.8,1-2.8,3.3-2.9,6.3L99.4,193c0,2-0.4,3.7-1,5l63.3-36.8c2-1.2,3.1-3.6,3.1-6.9l0.1-24.1
				C164.9,128.4,165.2,126.9,165.7,125.7z"/>
			<g>
				<path class="st4" d="M241.4,210.6l-66.6,38.7l-42.4-24.5c-2.9-1.7-5.6-4.6-7.5-7.9c-1.9-3.3-3.1-7.1-3.1-10.5l0.1-23.5
					c0-7.4-5.2-16.4-11.6-20.1c-3.2-1.9-6.2-2-8.3-0.8l66.6-38.7c2.1-1.2,5-1.1,8.3,0.8c6.4,3.7,11.6,12.7,11.6,20.1l-0.1,23.5
					c0,3.4,1.2,7.1,3.1,10.5c1.9,3.3,4.6,6.2,7.5,7.9L241.4,210.6z"/>
				<path class="st2" d="M174.8,249.9c-0.1,0-0.2,0-0.3-0.1l-42.4-24.5c-2.9-1.7-5.7-4.6-7.7-8.2c-2.1-3.6-3.2-7.4-3.2-10.8
					l0.1-23.5c0-7.2-5-15.9-11.3-19.5c-2.9-1.7-5.7-2-7.7-0.8c-0.3,0.2-0.7,0.1-0.8-0.2c-0.2-0.3-0.1-0.7,0.2-0.8l0,0c0,0,0,0,0,0
					l66.6-38.7c2.4-1.4,5.6-1.1,8.9,0.8c6.6,3.8,11.9,13,11.9,20.6l-0.1,23.5c0,3.2,1.1,6.8,3,10.2c1.9,3.4,4.5,6.1,7.3,7.7
					l42.4,24.5c0.2,0.1,0.3,0.3,0.3,0.5c0,0.2-0.1,0.4-0.3,0.5l-66.6,38.7C175,249.9,174.9,249.9,174.8,249.9z M105.5,160.6
					c1.6,0.1,3.3,0.7,5,1.7c6.6,3.8,11.9,13,11.9,20.6l-0.1,23.5c0,3.1,1.1,6.8,3,10.2c2,3.4,4.6,6.1,7.3,7.7l42.1,24.3l65.4-38
					l-41.5-24c-2.9-1.7-5.7-4.6-7.7-8.2c-2.1-3.6-3.2-7.4-3.2-10.8l0.1-23.5c0-7.2-5-15.9-11.3-19.5c-2.9-1.7-5.7-2-7.7-0.8
					L105.5,160.6z"/>
			</g>
		</g>
	</g>
	<g>
		<path class="st7" d="M84.3,158.5l-0.1-33.7c10.4-5.3,5.5,19.1,14.3,4.1c9-15.3,9,7.7,15.7-4.5c6.7-12.1,13.4-1.9,16-7.1
			c2.4-4.8,5.9-4.7,6.4-4.7l0,15.6L84.3,158.5z"/>
	</g>
	<g>
		<path class="st2" d="M125.9,170.4c-0.2,0-0.4-0.1-0.5-0.3c-0.2-0.3-0.1-0.7,0.2-0.8l53.8-31.1c0.3-0.2,0.7-0.1,0.8,0.2
			c0.2,0.3,0.1,0.7-0.2,0.8l-53.8,31.1C126.1,170.4,126,170.4,125.9,170.4z"/>
	</g>
	<g>
		<path class="st2" d="M129.2,189.3c-0.2,0-0.4-0.1-0.5-0.3c-0.2-0.3-0.1-0.7,0.2-0.8l51.8-29.9c0.3-0.2,0.7-0.1,0.8,0.2
			c0.2,0.3,0.1,0.7-0.2,0.8l-51.8,29.9C129.4,189.3,129.3,189.3,129.2,189.3z"/>
	</g>
	<g>
		<path class="st2" d="M129.6,209.8c-0.2,0-0.4-0.1-0.5-0.3c-0.2-0.3-0.1-0.7,0.2-0.8l53.7-31c0.3-0.2,0.7-0.1,0.8,0.2
			c0.2,0.3,0.1,0.7-0.2,0.8l-53.7,31C129.8,209.8,129.7,209.8,129.6,209.8z"/>
	</g>
	<g>
		<path class="st2" d="M142.8,222.9c-0.2,0-0.4-0.1-0.5-0.3c-0.2-0.3-0.1-0.7,0.2-0.8l52-30c0.3-0.2,0.7-0.1,0.8,0.2
			c0.2,0.3,0.1,0.7-0.2,0.8l-52,30C143,222.9,142.9,222.9,142.8,222.9z"/>
	</g>
	<g>
		<path class="st2" d="M160.7,233.3c-0.2,0-0.4-0.1-0.5-0.3c-0.2-0.3-0.1-0.7,0.2-0.8l52-30c0.3-0.2,0.7-0.1,0.8,0.2
			c0.2,0.3,0.1,0.7-0.2,0.8l-52,30C160.9,233.3,160.8,233.3,160.7,233.3z"/>
	</g>
	<g>
		<path class="st2" d="M258.5,250c3.9,2.3,4,5.9,0,8.2c-3.9,2.3-10.3,2.3-14.2,0c-3.9-2.3-4-5.9,0-8.2
			C248.2,247.7,254.5,247.7,258.5,250z"/>
	</g>
	<g>
		<path class="st2" d="M95.7,95.6c0.4-0.2,0.8-0.4,1.3-0.6c0.4-0.1,0.8-0.2,1.1-0.3c0.3-0.1,0.7-0.1,0.9,0c0.3,0,0.5,0.1,0.6,0.1
			c0.1,0.1,0.2,0.1,0.2,0.2c0,0,0.1,0.1,0.1,0.2c0,0.1,0,0.2,0,0.3c0,0.1,0,0.2,0,0.4c0,0.2,0,0.3,0,0.5c0,0.1,0,0.2-0.1,0.3
			c0,0.1-0.1,0.2-0.1,0.2c0,0.1-0.1,0.1-0.2,0.1c-0.1,0.1-0.3,0.1-0.5,0c-0.2-0.1-0.4-0.1-0.7-0.1c-0.3,0-0.7,0-1.1,0.1
			c-0.4,0.1-1,0.3-1.6,0.6c-0.7,0.4-1.3,0.9-1.8,1.5c-0.5,0.6-1,1.3-1.4,2.1c-0.4,0.8-0.7,1.7-0.9,2.7c-0.2,1-0.3,2-0.3,3.1
			c0,1.1,0.1,2,0.3,2.7c0.2,0.7,0.5,1.2,0.9,1.6c0.4,0.3,0.9,0.5,1.4,0.5c0.6,0,1.2-0.3,1.9-0.7c0.6-0.3,1.1-0.7,1.6-1.1
			c0.4-0.4,0.8-0.8,1.1-1.2c0.3-0.4,0.6-0.7,0.8-1c0.2-0.3,0.4-0.5,0.5-0.5c0.1,0,0.1,0,0.1,0c0,0,0.1,0,0.1,0.1
			c0,0.1,0,0.2,0.1,0.3c0,0.1,0,0.3,0,0.5c0,0.1,0,0.3,0,0.4c0,0.1,0,0.2,0,0.3c0,0.1,0,0.2-0.1,0.3c0,0.1-0.1,0.2-0.2,0.3
			c-0.1,0.1-0.2,0.4-0.5,0.7c-0.2,0.3-0.5,0.7-0.9,1.1c-0.4,0.4-0.8,0.8-1.3,1.2c-0.5,0.4-1,0.8-1.5,1.1c-1,0.6-1.8,0.9-2.6,1
			c-0.8,0.1-1.4-0.1-2-0.5c-0.6-0.4-1-1.1-1.3-1.9c-0.3-0.9-0.4-2-0.5-3.4c0-1.4,0.1-2.8,0.5-4.1c0.3-1.3,0.8-2.5,1.3-3.6
			c0.6-1.1,1.3-2.1,2.1-2.9C93.8,96.8,94.7,96.1,95.7,95.6z M112.5,102.6c0,0.1,0,0.2,0,0.3c0,0.1,0,0.1,0,0.2
			c0,0.1-0.1,0.1-0.1,0.2c-0.1,0.1-0.2,0.2-0.3,0.3c-0.1,0.1-0.3,0.2-0.6,0.3c-0.2,0.1-0.4,0.2-0.5,0.3c-0.1,0.1-0.2,0.1-0.3,0.1
			c-0.1,0-0.1,0-0.2-0.1c0,0-0.1-0.1-0.1-0.2l-1.4-3.2c-0.2-0.4-0.3-0.7-0.5-1c-0.2-0.3-0.4-0.5-0.6-0.6c-0.2-0.1-0.5-0.2-0.8-0.2
			c-0.3,0-0.7,0.2-1.2,0.4l-1.3,0.8l0,7.3c0,0.1,0,0.1-0.1,0.2c0,0.1-0.1,0.1-0.2,0.2c-0.1,0.1-0.2,0.2-0.3,0.3
			c-0.1,0.1-0.3,0.2-0.5,0.3c-0.2,0.1-0.4,0.2-0.5,0.2c-0.1,0.1-0.2,0.1-0.3,0.1c-0.1,0-0.1,0-0.2,0c0,0,0-0.1,0-0.2l0-15.8
			c0-0.3,0.1-0.6,0.2-0.9c0.2-0.2,0.3-0.4,0.5-0.5l3.2-1.8c0.4-0.2,0.7-0.4,0.9-0.5c0.2-0.1,0.5-0.2,0.7-0.3
			c0.6-0.2,1.1-0.3,1.5-0.3c0.4,0,0.8,0.1,1.1,0.3c0.3,0.2,0.5,0.5,0.7,0.9c0.2,0.4,0.2,0.9,0.2,1.5c0,0.6-0.1,1.1-0.2,1.7
			c-0.1,0.5-0.3,1-0.6,1.5c-0.3,0.5-0.6,1-0.9,1.4c-0.4,0.5-0.7,0.9-1.2,1.3c0.2,0,0.5,0,0.7,0.1c0.2,0.1,0.4,0.2,0.6,0.4
			c0.2,0.2,0.3,0.4,0.5,0.6c0.2,0.3,0.3,0.6,0.5,0.9l1.3,3C112.4,102.3,112.4,102.5,112.5,102.6z M107.8,96.2
			c0.4-0.4,0.7-0.7,0.9-1.2c0.3-0.4,0.4-0.8,0.6-1.2c0.1-0.4,0.2-0.8,0.2-1.3c0-0.7-0.1-1.2-0.4-1.5c-0.3-0.3-0.7-0.4-1.3-0.2
			c-0.2,0-0.4,0.1-0.7,0.2c-0.2,0.1-0.6,0.3-0.9,0.5l-1.7,1l0,5.8l1.9-1.1C107,96.9,107.5,96.6,107.8,96.2 M130.7,75.6
			c0.1-0.1,0.2-0.1,0.3-0.1c0.1,0,0.2,0,0.3,0c0.1,0,0.1,0.1,0.2,0.2c0,0.1,0.1,0.2,0.1,0.4l0,15.7c0,0.1,0,0.1,0,0.2
			c0,0.1-0.1,0.1-0.2,0.2c-0.1,0.1-0.2,0.2-0.3,0.3c-0.1,0.1-0.3,0.2-0.5,0.3c-0.2,0.1-0.3,0.2-0.5,0.2c-0.1,0.1-0.2,0.1-0.3,0.1
			c-0.1,0-0.1,0-0.2,0c0,0,0-0.1,0-0.2l0-14.9l-5.2,18c0,0.1-0.1,0.1-0.1,0.2c0,0.1-0.1,0.1-0.2,0.2c-0.1,0.1-0.2,0.2-0.3,0.2
			c-0.1,0.1-0.2,0.2-0.4,0.2c-0.2,0.1-0.3,0.2-0.4,0.2c-0.1,0.1-0.2,0.1-0.3,0.1c-0.1,0-0.1,0-0.2,0l-0.1-0.1l-5.1-12.1l0,14.9
			c0,0.1,0,0.1,0,0.2c0,0.1-0.1,0.1-0.2,0.2c-0.1,0.1-0.2,0.2-0.3,0.3c-0.1,0.1-0.3,0.2-0.5,0.3c-0.2,0.1-0.3,0.2-0.5,0.2
			c-0.1,0.1-0.2,0.1-0.3,0.1c-0.1,0-0.1,0-0.2,0c0,0,0-0.1,0-0.2l0-15.7c0-0.4,0.1-0.7,0.3-0.9c0.2-0.3,0.4-0.4,0.6-0.6l1.2-0.7
			c0.2-0.1,0.5-0.2,0.7-0.3c0.2-0.1,0.3-0.1,0.5,0c0.1,0,0.3,0.1,0.4,0.2c0.1,0.1,0.2,0.3,0.2,0.5l4.3,9.9l0.1,0l4.4-14.9
			c0.1-0.3,0.2-0.6,0.3-0.8c0.1-0.2,0.2-0.5,0.3-0.6c0.1-0.2,0.3-0.3,0.4-0.5c0.2-0.1,0.3-0.3,0.5-0.4L130.7,75.6z"/>
	</g>
	<g>
		<path class="st0" d="M331.2,162c2.6,1.5,2.6,3.9,0,5.4l-32.5,18.9c-2.6,1.5-6.8,1.5-9.4,0l-32.7-18.9c-2.6-1.5-2.6-3.9,0-5.4
			l32.5-18.9c2.6-1.5,6.8-1.5,9.4,0L331.2,162z"/>
		<path class="st8" d="M333.2,150.5l0,9.3c0,1-0.6,1.9-1.9,2.7l-32.5,18.9c-2.6,1.5-6.8,1.5-9.4,0l-32.7-18.9c-1.3-0.8-2-1.8-2-2.7
			l0-9.3c0,1,0.7,2,2,2.7l32.7,18.9c2.6,1.5,6.8,1.5,9.4,0l32.5-18.9C332.6,152.4,333.2,151.5,333.2,150.5z"/>
		<path class="st9" d="M331.3,153.2L298.9,172v9.2l32.3-18.8c1.3-0.7,1.9-1.7,1.9-2.7l0-9.3C333.2,151.5,332.6,152.4,331.3,153.2z"
			/>
		<path class="st4" d="M331.2,147.7c2.6,1.5,2.6,3.9,0,5.4l-32.5,18.9c-2.6,1.5-6.8,1.5-9.4,0l-32.7-18.9c-2.6-1.5-2.6-3.9,0-5.4
			l32.5-18.9c2.6-1.5,6.8-1.5,9.4,0L331.2,147.7z"/>
		<path class="st2" d="M294.1,173.8c-1.8,0-3.6-0.4-5-1.2l-32.7-18.9c-1.5-0.8-2.3-2-2.3-3.2c0-1.2,0.8-2.4,2.2-3.2l32.5-18.9
			c2.8-1.6,7.2-1.6,10,0l32.7,18.9c1.5,0.8,2.3,2,2.3,3.2c0,1.2-0.8,2.4-2.2,3.2l-32.5,18.9C297.7,173.4,295.9,173.8,294.1,173.8z
			 M293.8,128.3c-1.6,0-3.2,0.3-4.4,1.1L257,148.3c-1.1,0.6-1.6,1.4-1.6,2.2c0,0.8,0.6,1.6,1.7,2.2l32.7,18.9c2.4,1.4,6.4,1.4,8.8,0
			l32.5-18.9c1-0.6,1.6-1.4,1.6-2.2c0-0.8-0.6-1.6-1.7-2.2l-32.7-18.9C297,128.7,295.4,128.3,293.8,128.3z"/>
		<g>
			<path class="st2" d="M294.1,183c-1.8,0-3.6-0.4-5-1.2l-32.7-18.9c-1.5-0.8-2.3-2-2.3-3.3l0-9.3c0-0.3,0.3-0.6,0.6-0.6h0
				c0.3,0,0.6,0.3,0.6,0.6c0,0.8,0.6,1.6,1.7,2.2l32.7,18.9c2.4,1.4,6.4,1.4,8.8,0l32.5-18.9c1-0.6,1.6-1.4,1.6-2.2v0
				c0-0.3,0.3-0.6,0.6-0.6h0c0.3,0,0.6,0.3,0.6,0.6c0,0,0,0,0,0l0,9.2c0,1.2-0.8,2.4-2.2,3.2l-8.4,4.9c-0.3,0.2-0.7,0.1-0.8-0.2
				c-0.2-0.3-0.1-0.7,0.2-0.8l8.4-4.9c1-0.6,1.6-1.4,1.6-2.2l0-6.8c-0.3,0.3-0.6,0.5-1,0.7l-32.5,18.9c-2.7,1.6-7.2,1.6-10,0
				l-32.7-18.9c-0.4-0.2-0.8-0.5-1.1-0.8l0,6.8c0,0.8,0.6,1.6,1.7,2.2l32.7,18.9c2.4,1.4,6.4,1.4,8.8,0l12.4-7.2
				c0.3-0.2,0.7-0.1,0.8,0.2c0.2,0.3,0.1,0.7-0.2,0.8l-12.4,7.2C297.7,182.6,295.9,183,294.1,183z"/>
		</g>
		<g>
			<polyline class="st10" points="281.9,153.1 280.8,149 298.7,150.5 297.1,144.1 316.8,145.8 284.7,164.4 283.6,159.8 			"/>
			<path class="st2" d="M284.7,165c-0.1,0-0.2,0-0.2,0c-0.2-0.1-0.3-0.2-0.3-0.4L283,160c-0.1-0.3,0.1-0.6,0.4-0.7
				c0.3-0.1,0.6,0.1,0.7,0.4l1,3.8l29.7-17.3l-16.9-1.4l1.4,5.6c0,0.2,0,0.4-0.1,0.5c-0.1,0.1-0.3,0.2-0.5,0.2l-17-1.4l0.8,3.2
				c0.1,0.3-0.1,0.6-0.4,0.7c-0.3,0.1-0.6-0.1-0.7-0.4l-1-4.1c0-0.2,0-0.4,0.1-0.5c0.1-0.1,0.3-0.2,0.5-0.2l17,1.4l-1.4-5.6
				c0-0.2,0-0.4,0.1-0.5c0.1-0.1,0.3-0.2,0.5-0.2l19.7,1.7c0.3,0,0.5,0.2,0.5,0.5c0.1,0.3-0.1,0.5-0.3,0.7l-32,18.6
				C284.9,165,284.8,165,284.7,165z"/>
			<g>
				<path class="st2" d="M291.3,142.6c1.4,0.8,1.4,2.2,0,3c-1.4,0.8-3.7,0.8-5.2,0c-1.4-0.8-1.4-2.2,0-3
					C287.5,141.8,289.8,141.8,291.3,142.6z"/>
				<path class="st2" d="M288.7,146.8c-1,0-2.1-0.2-2.9-0.7c-0.9-0.5-1.4-1.2-1.4-2c0-0.8,0.5-1.5,1.4-2c1.6-0.9,4.2-0.9,5.8,0
					c0.9,0.5,1.4,1.2,1.4,2c0,0.8-0.5,1.5-1.4,2C290.8,146.6,289.7,146.8,288.7,146.8z M288.7,142.6c-0.8,0-1.7,0.2-2.3,0.5
					c-0.5,0.3-0.8,0.6-0.8,1c0,0.3,0.3,0.7,0.8,1c1.2,0.7,3.3,0.7,4.6,0c0.5-0.3,0.8-0.6,0.8-1c0-0.3-0.3-0.7-0.8-1l0,0
					C290.3,142.8,289.5,142.6,288.7,142.6z"/>
			</g>
			<g>
				<line class="st11" x1="280.8" y1="149" x2="301.3" y2="150.7"/>
				<path class="st2" d="M301.3,151.3C301.3,151.3,301.2,151.3,301.3,151.3l-20.5-1.7c-0.3,0-0.6-0.3-0.5-0.6c0-0.3,0.3-0.6,0.6-0.5
					l20.4,1.7c0.3,0,0.6,0.3,0.5,0.6C301.8,151.1,301.6,151.3,301.3,151.3z"/>
			</g>
		</g>
		<g>
			<path class="st0" d="M266.1,124.4c2.6,1.5,2.6,3.9,0,5.4l-32.5,18.9c-2.6,1.5-6.8,1.5-9.4,0l-32.7-18.9c-2.6-1.5-2.6-3.9,0-5.4
				l32.5-18.9c2.6-1.5,6.8-1.5,9.4,0L266.1,124.4z"/>
			<path class="st8" d="M268.1,112.9l0,9.3c0,1-0.6,1.9-1.9,2.7l-32.5,18.9c-2.6,1.5-6.8,1.5-9.4,0l-32.7-18.9c-1.3-0.8-2-1.8-2-2.7
				l0-9.3c0,1,0.7,2,2,2.7l32.7,18.9c2.6,1.5,6.8,1.5,9.4,0l32.5-18.9C267.4,114.8,268.1,113.8,268.1,112.9z"/>
			<path class="st9" d="M266.1,115.6l-32.4,18.8v9.2l32.3-18.8c1.3-0.7,1.9-1.7,1.9-2.7l0-9.3C268.1,113.8,267.4,114.8,266.1,115.6z
				"/>
			<path class="st4" d="M266.1,110.1c2.6,1.5,2.6,3.9,0,5.4l-32.5,18.9c-2.6,1.5-6.8,1.5-9.4,0l-32.7-18.9c-2.6-1.5-2.6-3.9,0-5.4
				L224,91.2c2.6-1.5,6.8-1.5,9.4,0L266.1,110.1z"/>
			<path class="st2" d="M229,136.2c-1.8,0-3.6-0.4-5-1.2l-32.7-18.9c-1.5-0.8-2.3-2-2.3-3.2c0-1.2,0.8-2.4,2.2-3.2l32.5-18.9
				c2.8-1.6,7.2-1.6,10,0l32.7,18.9l0,0c1.5,0.8,2.3,2,2.3,3.2c0,1.2-0.8,2.4-2.2,3.2L233.9,135C232.5,135.8,230.8,136.2,229,136.2z
				 M228.7,90.7c-1.6,0-3.2,0.3-4.4,1.1l-32.5,18.9c-1.1,0.6-1.6,1.4-1.6,2.2c0,0.8,0.6,1.6,1.7,2.2l32.7,18.9
				c2.4,1.4,6.4,1.4,8.8,0l32.5-18.9c1-0.6,1.6-1.4,1.6-2.2c0-0.8-0.6-1.6-1.7-2.2l-32.7-18.9C231.9,91.1,230.3,90.7,228.7,90.7z"/>
			<g>
				<path class="st2" d="M228.9,145.4c-1.8,0-3.6-0.4-5-1.2l-32.7-18.9c-1.5-0.8-2.3-2-2.3-3.3l0-9.3c0-0.3,0.3-0.6,0.6-0.6h0
					c0.3,0,0.6,0.3,0.6,0.6c0,0.8,0.6,1.6,1.7,2.2l32.7,18.9c2.4,1.4,6.4,1.4,8.8,0l32.5-18.9c1-0.6,1.6-1.4,1.6-2.2v0
					c0-0.3,0.3-0.6,0.6-0.6h0c0.3,0,0.6,0.3,0.6,0.6c0,0,0,0,0,0l0,0c0,0,0,0,0,0l0,9.2c0,1.2-0.8,2.4-2.2,3.2l-8.4,4.9
					c-0.3,0.2-0.7,0.1-0.8-0.2c-0.2-0.3-0.1-0.7,0.2-0.8l8.4-4.9c1-0.6,1.6-1.4,1.6-2.2l0-6.8c-0.3,0.3-0.6,0.5-1,0.7L233.9,135
					c-2.7,1.6-7.2,1.6-10,0l-32.7-18.9c-0.4-0.2-0.8-0.5-1.1-0.8l0,6.8c0,0.8,0.6,1.6,1.7,2.2l32.7,18.9c2.4,1.4,6.4,1.4,8.8,0
					l12.4-7.2c0.3-0.2,0.7-0.1,0.8,0.2c0.2,0.3,0.1,0.7-0.2,0.8l-12.4,7.2C232.5,145,230.7,145.4,228.9,145.4z"/>
			</g>
			<g>
				<polyline class="st12" points="237.5,113.7 242.3,116.5 235.1,120.6 212.6,107.6 219.7,103.4 230.3,109.5 				"/>
				<path class="st2" d="M235.1,121.2c-0.1,0-0.2,0-0.3-0.1l-22.6-13c-0.2-0.1-0.3-0.3-0.3-0.5c0-0.2,0.1-0.4,0.3-0.5l7.2-4.2
					c0.2-0.1,0.4-0.1,0.6,0l10.6,6.1c0.3,0.2,0.4,0.5,0.2,0.8c-0.2,0.3-0.5,0.4-0.8,0.2l-10.3-5.9l-6,3.5l21.4,12.3l6-3.5l-3.9-2.2
					c-0.3-0.2-0.4-0.5-0.2-0.8c0.2-0.3,0.5-0.4,0.8-0.2l4.8,2.8c0.2,0.1,0.3,0.3,0.3,0.5c0,0.2-0.1,0.4-0.3,0.5l-7.2,4.2
					C235.3,121.2,235.2,121.2,235.1,121.2z"/>
				<polygon class="st13" points="230.9,123.1 223.7,127.3 210.2,119.5 217.4,115.3 				"/>
				<path class="st2" d="M223.7,127.9c-0.1,0-0.2,0-0.3-0.1l-13.5-7.8c-0.2-0.1-0.3-0.3-0.3-0.5c0-0.2,0.1-0.4,0.3-0.5l7.2-4.2
					c0.2-0.1,0.4-0.1,0.6,0l13.5,7.8c0.2,0.1,0.3,0.3,0.3,0.5c0,0.2-0.1,0.4-0.3,0.5l-7.2,4.2C223.9,127.8,223.8,127.9,223.7,127.9z
					 M211.4,119.5l12.3,7.1l6-3.5l-12.3-7.1L211.4,119.5z"/>
				<g>
					<polygon class="st13" points="253.7,109.8 246.5,114 233,106.2 240.2,102 					"/>
					<path class="st2" d="M246.5,114.6c-0.1,0-0.2,0-0.3-0.1l-13.5-7.8c-0.2-0.1-0.3-0.3-0.3-0.5c0-0.2,0.1-0.4,0.3-0.5l7.2-4.2
						c0.2-0.1,0.4-0.1,0.6,0l13.5,7.8c0.2,0.1,0.3,0.3,0.3,0.5c0,0.2-0.1,0.4-0.3,0.5l-7.2,4.2C246.7,114.6,246.6,114.6,246.5,114.6
						z M234.2,106.2l12.3,7.1l6-3.5l-12.3-7.1L234.2,106.2z"/>
				</g>
			</g>
		</g>
	</g>
	<g>
		<path class="st7" d="M136.5,112.7l-52.2,45.5l-0.1-33.4c10.4-5.3,5.5,19.1,14.3,4.1c9-15.3,9,7.7,15.6-4.5c6.7-12.1,13.5-2,16-7.1
			C132.5,112.5,136,112.7,136.5,112.7z"/>
	</g>
	<g>
		<path class="st2" d="M62.6,48.5h-3.4c-0.3,0-0.6-0.3-0.6-0.6c0-0.3,0.3-0.6,0.6-0.6h3.4c0.3,0,0.6,0.3,0.6,0.6
			C63.2,48.2,63,48.5,62.6,48.5z M55.7,48.5h-3.4c-0.3,0-0.6-0.3-0.6-0.6c0-0.3,0.3-0.6,0.6-0.6h3.4c0.3,0,0.6,0.3,0.6,0.6
			C56.3,48.2,56,48.5,55.7,48.5z M57.5,46.7c-0.3,0-0.6-0.3-0.6-0.6v-3.4c0-0.3,0.3-0.6,0.6-0.6s0.6,0.3,0.6,0.6v3.4
			C58.1,46.4,57.8,46.7,57.5,46.7z M57.5,53.6c-0.3,0-0.6-0.3-0.6-0.6v-3.4c0-0.3,0.3-0.6,0.6-0.6s0.6,0.3,0.6,0.6V53
			C58.1,53.4,57.8,53.6,57.5,53.6z M189.6,77.4c-2,0-3.6-1.6-3.6-3.6c0-2,1.6-3.6,3.6-3.6c2,0,3.6,1.6,3.6,3.6
			C193.1,75.8,191.5,77.4,189.6,77.4z M189.6,71.5c-1.3,0-2.4,1.1-2.4,2.4s1.1,2.4,2.4,2.4s2.4-1.1,2.4-2.4S190.9,71.5,189.6,71.5z
			 M319.3,204c-2,0-3.6-1.6-3.6-3.6c0-2,1.6-3.6,3.6-3.6c2,0,3.6,1.6,3.6,3.6C322.9,202.4,321.3,204,319.3,204z M319.3,198
			c-1.3,0-2.4,1.1-2.4,2.4s1.1,2.4,2.4,2.4s2.4-1.1,2.4-2.4S320.6,198,319.3,198z"/>
		<g>
			<path class="st2" d="M300,313.9c-0.2,0-0.3-0.1-0.4-0.2c-0.2-0.2-0.2-0.6,0-0.8l2.4-2.4c0.2-0.2,0.6-0.2,0.8,0s0.2,0.6,0,0.8
				l-2.4,2.4C300.4,313.9,300.2,313.9,300,313.9z M295.2,318.8c-0.2,0-0.3-0.1-0.4-0.2c-0.2-0.2-0.2-0.6,0-0.8l2.4-2.4
				c0.2-0.2,0.6-0.2,0.8,0s0.2,0.6,0,0.8l-2.4,2.4C295.5,318.8,295.3,318.8,295.2,318.8z"/>
			<g>
				<path class="st2" d="M297.5,313.9c-0.2,0-0.3-0.1-0.4-0.2l-2.4-2.4c-0.2-0.2-0.2-0.6,0-0.8s0.6-0.2,0.8,0l2.4,2.4
					c0.2,0.2,0.2,0.6,0,0.8C297.8,313.9,297.7,313.9,297.5,313.9z M302.4,318.8c-0.2,0-0.3-0.1-0.4-0.2l-2.4-2.4
					c-0.2-0.2-0.2-0.6,0-0.8s0.6-0.2,0.8,0l2.4,2.4c0.2,0.2,0.2,0.6,0,0.8C302.7,318.8,302.6,318.8,302.4,318.8z"/>
			</g>
		</g>
		<g>
			<path class="st2" d="M106,277.6c-0.1,0-0.2,0-0.3-0.1c-1.9-1-2.4-2.4-2.9-3.7c-0.4-1.2-0.8-2.3-2.3-3.1c-1.5-0.7-2.6-0.4-3.8,0
				c-1.3,0.4-2.8,0.9-4.7-0.1c-1.9-1-2.4-2.4-2.9-3.7c-0.4-1.2-0.8-2.3-2.3-3.1c-1.5-0.7-2.6-0.4-3.8,0c-1.3,0.4-2.8,0.9-4.7-0.1
				c-1.9-1-2.4-2.4-2.9-3.7c-0.4-1.2-0.8-2.3-2.3-3.1c-0.3-0.1-0.4-0.5-0.3-0.8c0.1-0.3,0.5-0.4,0.8-0.3c1.9,1,2.4,2.4,2.9,3.7
				c0.4,1.2,0.8,2.3,2.3,3.1c1.5,0.7,2.6,0.4,3.8,0c1.3-0.4,2.8-0.9,4.7,0.1c1.9,1,2.4,2.4,2.9,3.7c0.4,1.2,0.8,2.3,2.3,3.1
				c1.5,0.8,2.6,0.4,3.8,0c1.3-0.4,2.8-0.9,4.7,0.1c1.9,1,2.4,2.4,2.9,3.7c0.4,1.2,0.8,2.3,2.3,3.1c0.3,0.1,0.4,0.5,0.3,0.8
				C106.5,277.5,106.2,277.6,106,277.6z"/>
		</g>
	</g>
	<g>
		<path d="M84,159.1c-0.1,0-0.2,0-0.3-0.1c-0.2-0.1-0.3-0.3-0.3-0.5l-0.1-39.9c0-0.3,0.3-0.6,0.6-0.6c0,0,0,0,0,0
			c0.3,0,0.6,0.3,0.6,0.6l0.1,38.9l53.6-30.9c0.3-0.2,0.7-0.1,0.8,0.2c0.2,0.3,0.1,0.7-0.2,0.8L84.3,159
			C84.2,159,84.1,159.1,84,159.1z"/>
	</g>
</g>
</svg>
