<?xml version="1.0" encoding="utf-8"?>
<!-- Generator: Adobe Illustrator 28.0.0, SVG Export Plug-In . SVG Version: 6.00 Build 0)  -->
<svg version="1.1" id="SvgjsSvg1626" xmlns:svgjs="http://svgjs.com/svgjs"
	 xmlns="http://www.w3.org/2000/svg" xmlns:xlink="http://www.w3.org/1999/xlink" x="0px" y="0px" viewBox="0 0 360 360"
	 style="enable-background:new 0 0 360 360;" xml:space="preserve">
<style type="text/css">
	.st0{fill:#1D1E20;}
	.st1{fill:#FFFFFF;}
	.st2{fill:#E9E9E9;}
	.st3{fill:none;}
	.st4{opacity:0.1;fill:#1FB6FF;enable-background:new    ;}
	.st5{fill:#1FB6FF;}
	.st6{fill:#07A5D6;}
	.st7{fill:#D3DC5E;}
	.st8{fill:#8EEA7F;}
	.st9{fill:#FED19E;}
	.st10{fill:#FFBF66;}
	.st11{fill:#FA778D;}
</style>
<g id="SvgjsG1628">
	<path class="st0" d="M133.4,273.5c-0.2,0-0.3-0.1-0.4-0.2c-0.1-0.2,0-0.4,0.2-0.5c0.7-0.3,1.4-0.6,2.1-0.9c0.2-0.1,0.4,0,0.5,0.2
		c0.1,0.2,0,0.4-0.2,0.5c-0.7,0.3-1.4,0.6-2.1,0.9C133.5,273.5,133.5,273.5,133.4,273.5z M106.6,278.8l-0.5,0
		c-0.2,0-0.4-0.2-0.4-0.4c0-0.2,0.2-0.4,0.4-0.4l0.5,0c1.4,0,2.8,0,4.1-0.1c0.2,0,0.4,0.1,0.4,0.4c0,0.2-0.2,0.4-0.4,0.4
		C109.4,278.7,108,278.8,106.6,278.8z M101.4,278.6C101.4,278.6,101.4,278.6,101.4,278.6c-1.6-0.1-3.2-0.3-4.7-0.5
		c-0.2,0-0.4-0.2-0.3-0.4c0-0.2,0.2-0.4,0.4-0.3c1.5,0.2,3.1,0.4,4.6,0.5c0.2,0,0.4,0.2,0.4,0.4
		C101.8,278.4,101.6,278.6,101.4,278.6z M115.4,278.2c-0.2,0-0.4-0.1-0.4-0.3c0-0.2,0.1-0.4,0.3-0.4c1.5-0.2,3.1-0.4,4.6-0.7
		c0.2,0,0.4,0.1,0.5,0.3c0,0.2-0.1,0.4-0.3,0.5C118.5,277.8,117,278,115.4,278.2C115.4,278.2,115.4,278.2,115.4,278.2z M92.1,277.3
		C92.1,277.3,92.1,277.3,92.1,277.3c-1.6-0.3-3.1-0.7-4.6-1.1c-0.2-0.1-0.3-0.3-0.3-0.5s0.3-0.3,0.5-0.3c1.5,0.4,3,0.8,4.5,1.1
		c0.2,0,0.3,0.2,0.3,0.5C92.5,277.2,92.3,277.3,92.1,277.3z M124.6,276.5c-0.2,0-0.3-0.1-0.4-0.3c-0.1-0.2,0.1-0.4,0.3-0.5
		c1.5-0.4,3-0.8,4.5-1.3c0.2-0.1,0.4,0,0.5,0.2c0.1,0.2,0,0.4-0.2,0.5C127.7,275.6,126.2,276.1,124.6,276.5
		C124.6,276.5,124.6,276.5,124.6,276.5z M83.1,274.8c0,0-0.1,0-0.1,0l-0.2-0.1c-1.4-0.5-2.8-1-4.2-1.6c-0.2-0.1-0.3-0.3-0.2-0.5
		c0.1-0.2,0.3-0.3,0.5-0.2c1.4,0.6,2.7,1.1,4.1,1.6l0.2,0.1c0.2,0.1,0.3,0.3,0.2,0.5C83.4,274.7,83.3,274.8,83.1,274.8z M74.5,271.1
		c-0.1,0-0.1,0-0.2,0c-1.4-0.7-2.8-1.5-4.1-2.3c-0.2-0.1-0.2-0.3-0.1-0.5c0.1-0.2,0.3-0.2,0.5-0.1c1.3,0.8,2.7,1.5,4.1,2.2
		c0.2,0.1,0.3,0.3,0.2,0.5C74.8,271,74.7,271.1,74.5,271.1z M66.5,266.3c-0.1,0-0.2,0-0.2-0.1c-1.3-0.9-2.6-1.8-3.8-2.8
		c-0.2-0.1-0.2-0.4-0.1-0.5c0.1-0.2,0.4-0.2,0.5-0.1c1.2,0.9,2.5,1.9,3.8,2.7c0.2,0.1,0.2,0.4,0.1,0.5
		C66.8,266.3,66.6,266.3,66.5,266.3z M59.1,260.6c-0.1,0-0.2,0-0.3-0.1c-1.2-1-2.3-2.1-3.4-3.2c-0.2-0.2-0.2-0.4,0-0.5
		c0.2-0.2,0.4-0.2,0.5,0c1.1,1.1,2.2,2.2,3.4,3.2c0.2,0.1,0.2,0.4,0,0.5C59.4,260.6,59.2,260.6,59.1,260.6z M52.5,254
		c-0.1,0-0.2,0-0.3-0.1c-1-1.2-2-2.4-3-3.6c-0.1-0.2-0.1-0.4,0.1-0.5c0.2-0.1,0.4-0.1,0.5,0.1c1,1.2,2,2.4,3,3.6
		c0.1,0.2,0.1,0.4,0,0.5C52.7,254,52.6,254,52.5,254z M46.8,246.7c-0.1,0-0.2-0.1-0.3-0.2c-0.9-1.3-1.7-2.6-2.5-3.9
		c-0.1-0.2-0.1-0.4,0.1-0.5c0.2-0.1,0.4-0.1,0.5,0.1c0.8,1.3,1.6,2.6,2.5,3.9c0.1,0.2,0.1,0.4-0.1,0.5
		C46.9,246.6,46.8,246.7,46.8,246.7z M41.9,238.7c-0.1,0-0.3-0.1-0.3-0.2c-0.7-1.4-1.4-2.8-2-4.3c-0.1-0.2,0-0.4,0.2-0.5
		c0.2-0.1,0.4,0,0.5,0.2c0.6,1.4,1.3,2.8,2,4.2c0.1,0.2,0,0.4-0.2,0.5C42.1,238.6,42,238.7,41.9,238.7z M38.3,230.1
		c-0.2,0-0.3-0.1-0.4-0.3c-0.5-1.5-0.9-3.1-1.2-4.6c0-0.2,0.1-0.4,0.3-0.5c0.2,0,0.4,0.1,0.5,0.3c0.3,1.5,0.7,3,1.2,4.5
		c0.1,0.2,0,0.4-0.3,0.5C38.4,230.1,38.4,230.1,38.3,230.1z M36.5,220.9c-0.2,0-0.4-0.2-0.4-0.4c-0.1-0.8-0.1-1.6-0.1-2.4
		c0-0.8,0-1.6,0.1-2.4c0-0.2,0.2-0.4,0.4-0.4c0.2,0,0.4,0.2,0.4,0.4c-0.1,0.8-0.1,1.5-0.1,2.3c0,0.8,0,1.5,0.1,2.3
		C36.9,220.7,36.7,220.9,36.5,220.9C36.5,220.9,36.5,220.9,36.5,220.9z M37.2,211.6C37.2,211.6,37.2,211.6,37.2,211.6
		c-0.3-0.1-0.4-0.3-0.4-0.5c0.1-0.4,0.2-0.8,0.3-1.2c0.3-1.1,0.8-2.2,1.3-3.3c0.1-0.2,0.3-0.3,0.5-0.2c0.2,0.1,0.3,0.3,0.2,0.5
		c-0.5,1-0.9,2.1-1.2,3.2c-0.1,0.4-0.2,0.7-0.3,1.1C37.6,211.5,37.4,211.6,37.2,211.6z M41.2,203.2c-0.1,0-0.2,0-0.2-0.1
		c-0.2-0.1-0.2-0.4-0.1-0.5c0.9-1.3,1.9-2.5,3-3.6c0.1-0.2,0.4-0.2,0.5,0c0.2,0.1,0.2,0.4,0,0.5c-1.1,1.1-2.1,2.3-3,3.5
		C41.4,203.2,41.3,203.2,41.2,203.2z M47.7,196.6c-0.1,0-0.2-0.1-0.3-0.2c-0.1-0.2-0.1-0.4,0.1-0.5c1.2-0.9,2.6-1.8,3.9-2.6
		c0.2-0.1,0.4,0,0.5,0.1c0.1,0.2,0,0.4-0.1,0.5c-1.3,0.8-2.6,1.6-3.8,2.6C47.9,196.5,47.8,196.6,47.7,196.6z M55.8,191.9
		c-0.1,0-0.3-0.1-0.4-0.2c-0.1-0.2,0-0.4,0.2-0.5c0.4-0.2,0.7-0.3,1.1-0.5c1.1-0.4,2.2-0.8,3.3-1.2c0.2-0.1,0.4,0.1,0.5,0.3
		c0.1,0.2-0.1,0.4-0.3,0.5c-1.1,0.3-2.2,0.7-3.3,1.1c-0.4,0.1-0.7,0.3-1.1,0.4C55.9,191.9,55.8,191.9,55.8,191.9z M64.7,189.1
		c-0.2,0-0.3-0.1-0.4-0.3c0-0.2,0.1-0.4,0.3-0.5c1.5-0.3,3-0.6,4.6-0.8c0.2,0,0.4,0.1,0.4,0.3c0,0.2-0.1,0.4-0.3,0.4
		C67.7,188.5,66.2,188.8,64.7,189.1C64.7,189.1,64.7,189.1,64.7,189.1z M73.9,187.7c-0.2,0-0.4-0.1-0.4-0.3c0-0.2,0.1-0.4,0.3-0.4
		c1.4-0.1,3-0.3,4.7-0.4c0.2,0,0.4,0.1,0.4,0.4s-0.1,0.4-0.4,0.4C76.9,187.4,75.4,187.5,73.9,187.7
		C73.9,187.7,73.9,187.7,73.9,187.7z M83.2,187c-0.2,0-0.4-0.2-0.4-0.4c0-0.2,0.2-0.4,0.4-0.4l0.7,0c1.3-0.1,2.7-0.1,4-0.2
		c0.2,0,0.4,0.2,0.4,0.4c0,0.2-0.2,0.4-0.4,0.4c-1.3,0.1-2.7,0.1-4,0.2L83.2,187C83.2,187,83.2,187,83.2,187z M92.6,186.6
		c-0.2,0-0.4-0.2-0.4-0.4c0-0.2,0.2-0.4,0.4-0.4c1.6-0.1,3.1-0.1,4.7-0.2c0.2,0,0.4,0.2,0.4,0.4c0,0.2-0.2,0.4-0.4,0.4
		C95.7,186.4,94.1,186.5,92.6,186.6C92.6,186.6,92.6,186.6,92.6,186.6z M101.9,186.1c-0.2,0-0.4-0.2-0.4-0.4c0-0.2,0.2-0.4,0.4-0.4
		c1.6-0.1,3.1-0.1,4.7-0.2c0.2,0,0.4,0.2,0.4,0.4c0,0.2-0.2,0.4-0.4,0.4C105,186,103.5,186.1,101.9,186.1
		C101.9,186.1,101.9,186.1,101.9,186.1z M111.2,185.7c-0.2,0-0.4-0.2-0.4-0.4c0-0.2,0.2-0.4,0.4-0.4c1.6-0.1,3.1-0.1,4.7-0.2
		c0.2,0,0.4,0.2,0.4,0.4s-0.2,0.4-0.4,0.4C114.4,185.6,112.8,185.7,111.2,185.7C111.3,185.7,111.3,185.7,111.2,185.7z M120.6,185.4
		c-0.2,0-0.4-0.2-0.4-0.4c0-0.2,0.2-0.4,0.4-0.4c1.6-0.1,3.1-0.1,4.7-0.2c0.2,0,0.4,0.2,0.4,0.4c0,0.2-0.2,0.4-0.4,0.4
		C123.7,185.3,122.2,185.4,120.6,185.4C120.6,185.4,120.6,185.4,120.6,185.4z M129.9,185.1c-0.2,0-0.4-0.2-0.4-0.4
		c0-0.2,0.2-0.4,0.4-0.4c1.6,0,3.1-0.1,4.7-0.1c0.2,0,0.4,0.2,0.4,0.4s-0.2,0.4-0.4,0.4C133.1,185,131.5,185.1,129.9,185.1
		C129.9,185.1,129.9,185.1,129.9,185.1z M139.3,184.9c-0.2,0-0.4-0.2-0.4-0.4c0-0.2,0.2-0.4,0.4-0.4c1.6,0,3.1-0.1,4.7-0.1
		c0.2,0,0.4,0.2,0.4,0.4c0,0.2-0.2,0.4-0.4,0.4C142.4,184.8,140.8,184.8,139.3,184.9C139.3,184.9,139.3,184.9,139.3,184.9z
		 M148.6,184.7c-0.2,0-0.4-0.2-0.4-0.4c0-0.2,0.2-0.4,0.4-0.4c1.6,0,3.1-0.1,4.7-0.1c0.2,0,0.4,0.2,0.4,0.4c0,0.2-0.2,0.4-0.4,0.4
		C151.7,184.6,150.2,184.6,148.6,184.7C148.6,184.7,148.6,184.7,148.6,184.7z M158,184.5c-0.2,0-0.4-0.2-0.4-0.4
		c0-0.2,0.2-0.4,0.4-0.4c1.6,0,3.1,0,4.7-0.1c0,0,0,0,0,0c0.2,0,0.4,0.2,0.4,0.4c0,0.2-0.2,0.4-0.4,0.4
		C161.1,184.5,159.5,184.5,158,184.5C158,184.5,158,184.5,158,184.5z M167.3,184.4c-0.2,0-0.4-0.2-0.4-0.4c0-0.2,0.2-0.4,0.4-0.4
		c1.6,0,3.1,0,4.7,0c0,0,0,0,0,0c0.2,0,0.4,0.2,0.4,0.4c0,0.2-0.2,0.4-0.4,0.4C170.4,184.4,168.9,184.4,167.3,184.4
		C167.3,184.4,167.3,184.4,167.3,184.4z M176.7,184.3c-0.2,0-0.4-0.2-0.4-0.4c0-0.2,0.2-0.4,0.4-0.4l4.7,0c0,0,0,0,0,0
		c0.2,0,0.4,0.2,0.4,0.4c0,0.2-0.2,0.4-0.4,0.4L176.7,184.3C176.7,184.3,176.7,184.3,176.7,184.3z M186,184.3
		c-0.2,0-0.4-0.2-0.4-0.4c0-0.2,0.2-0.4,0.4-0.4c1.6,0,3.1,0,4.7,0c0.2,0,0.4,0.2,0.4,0.4c0,0.2-0.2,0.4-0.4,0.4
		C189.1,184.3,187.6,184.3,186,184.3C186,184.3,186,184.3,186,184.3z M195.4,184.3c-0.2,0-0.4-0.2-0.4-0.4c0-0.2,0.2-0.4,0.4-0.4
		c1.6,0,3.1,0,4.7-0.1c0.2,0,0.4,0.2,0.4,0.4c0,0.2-0.2,0.4-0.4,0.4C198.5,184.2,196.9,184.2,195.4,184.3
		C195.4,184.3,195.4,184.3,195.4,184.3z M204.7,184.1c-0.2,0-0.4-0.2-0.4-0.4c0-0.2,0.2-0.4,0.4-0.4c1.6,0,3.2-0.1,4.7-0.2
		c0.2,0,0.4,0.2,0.4,0.4s-0.2,0.4-0.4,0.4C207.9,184,206.3,184,204.7,184.1C204.7,184.1,204.7,184.1,204.7,184.1z M214,183.7
		c-0.2,0-0.4-0.2-0.4-0.4c0-0.2,0.2-0.4,0.4-0.4c1.6-0.1,3.2-0.2,4.7-0.3c0.2,0,0.4,0.1,0.4,0.4s-0.1,0.4-0.4,0.4
		C217.2,183.5,215.7,183.6,214,183.7C214.1,183.7,214.1,183.7,214,183.7z M223.4,183c-0.2,0-0.4-0.1-0.4-0.3c0-0.2,0.1-0.4,0.3-0.4
		c1.6-0.1,3.1-0.3,4.6-0.5c0.2,0,0.4,0.1,0.4,0.3c0,0.2-0.1,0.4-0.3,0.4C226.5,182.7,225,182.9,223.4,183
		C223.4,183,223.4,183,223.4,183z M232.7,181.9c-0.2,0-0.4-0.1-0.4-0.3c0-0.2,0.1-0.4,0.3-0.4c1.6-0.2,3.1-0.5,4.6-0.7
		c0.2,0,0.4,0.1,0.4,0.3c0,0.2-0.1,0.4-0.3,0.4C235.8,181.5,234.3,181.7,232.7,181.9C232.7,181.9,232.7,181.9,232.7,181.9z
		 M241.9,180.4c-0.2,0-0.3-0.1-0.4-0.3c0-0.2,0.1-0.4,0.3-0.5c1.5-0.3,3.1-0.6,4.6-1c0.2,0,0.4,0.1,0.5,0.3s-0.1,0.4-0.3,0.5
		C245,179.7,243.5,180,241.9,180.4C241.9,180.4,241.9,180.4,241.9,180.4z M251,178.2c-0.2,0-0.3-0.1-0.4-0.3
		c-0.1-0.2,0.1-0.4,0.3-0.5c1.5-0.4,3-0.8,4.5-1.3c0.2-0.1,0.4,0.1,0.5,0.3c0.1,0.2-0.1,0.4-0.3,0.5c-1.5,0.5-3,0.9-4.5,1.3
		C251,178.2,251,178.2,251,178.2z M259.9,175.4c-0.2,0-0.3-0.1-0.4-0.3c-0.1-0.2,0-0.4,0.2-0.5c1.5-0.5,2.9-1.1,4.3-1.7
		c0.2-0.1,0.4,0,0.5,0.2s0,0.4-0.2,0.5c-1.4,0.6-2.9,1.2-4.4,1.7C260,175.4,259.9,175.4,259.9,175.4z M268.5,171.9
		c-0.1,0-0.3-0.1-0.3-0.2c-0.1-0.2,0-0.4,0.2-0.5c1.4-0.7,2.8-1.4,4.2-2.1c0.2-0.1,0.4,0,0.5,0.2c0.1,0.2,0,0.4-0.2,0.5
		c-1.4,0.7-2.8,1.4-4.2,2.1C268.6,171.9,268.6,171.9,268.5,171.9z M276.8,167.5c-0.1,0-0.3-0.1-0.3-0.2c-0.1-0.2,0-0.4,0.1-0.5
		c1.3-0.8,2.7-1.6,3.9-2.5c0.2-0.1,0.4-0.1,0.5,0.1c0.1,0.2,0.1,0.4-0.1,0.5c-1.3,0.9-2.6,1.7-4,2.5
		C276.9,167.5,276.8,167.5,276.8,167.5z M284.6,162.4c-0.1,0-0.2-0.1-0.3-0.2c-0.1-0.2-0.1-0.4,0.1-0.5c1.2-0.9,2.5-1.9,3.7-2.8
		c0.2-0.1,0.4-0.1,0.5,0.1c0.1,0.2,0.1,0.4-0.1,0.5c-1.2,1-2.5,1.9-3.7,2.9C284.7,162.3,284.7,162.4,284.6,162.4z M291.8,156.5
		c-0.1,0-0.2,0-0.3-0.1c-0.1-0.2-0.1-0.4,0-0.5c1.2-1,2.3-2.1,3.4-3.2c0.1-0.2,0.4-0.2,0.5,0c0.2,0.1,0.2,0.4,0,0.5
		c-1.1,1.1-2.2,2.2-3.4,3.3C292,156.4,291.9,156.5,291.8,156.5z M298.4,149.8c-0.1,0-0.2,0-0.3-0.1c-0.2-0.1-0.2-0.4,0-0.5
		c0.5-0.6,1-1.2,1.5-1.8c0.1-0.2,0.4-0.2,0.5-0.1c0.2,0.1,0.2,0.4,0.1,0.5c-0.5,0.6-1,1.2-1.5,1.8
		C298.6,149.7,298.5,149.8,298.4,149.8z"/>
	<path class="st1" d="M239.5,289.4H116.7c-3.8,0-6.8-3.1-6.8-6.8V76c0-3.8,3.1-6.8,6.8-6.8h122.9c3.8,0,6.8,3.1,6.8,6.8v206.5
		C246.4,286.3,243.3,289.4,239.5,289.4z"/>
	<path class="st0" d="M228,289.7h-99.9c-10.3,0-18.7-8.4-18.7-18.7V87.5c0-10.3,8.4-18.7,18.7-18.7H228c10.3,0,18.7,8.4,18.7,18.7
		V271C246.8,281.3,238.4,289.7,228,289.7z M128.2,69.6c-9.9,0-18,8.1-18,18V271c0,9.9,8.1,18,18,18H228c9.9,0,18-8.1,18-18V87.5
		c0-9.9-8.1-18-18-18H128.2z"/>
	<path class="st2" d="M128.2,280.9c-5.4,0-9.8-4.4-9.8-9.8V87.5c0-5.4,4.4-9.8,9.8-9.8h21.7c0.2,0,0.4,0.1,0.4,0.3l1.7,4.4
		c1,2.6,3.5,4.3,6.2,4.3H198c2.7,0,5.2-1.7,6.2-4.3l1.7-4.4c0.1-0.2,0.2-0.3,0.4-0.3H228c5.4,0,9.8,4.4,9.8,9.8V271
		c0,5.4-4.4,9.8-9.8,9.8H128.2z"/>
	<path class="st0" d="M165.3,76.7h-2.2c-0.8,0-1.6,0.6-1.7,1.5c-0.1,1,0.7,1.8,1.6,1.8h2.3c0.9,0,1.6-0.7,1.6-1.6l0,0
		C166.9,77.4,166.2,76.7,165.3,76.7z M193.8,76.7H171c-0.9,0-1.6,0.7-1.6,1.6l0,0c0,0.9,0.7,1.6,1.6,1.6h22.8c0.9,0,1.7-0.8,1.6-1.8
		C195.4,77.3,194.6,76.7,193.8,76.7z"/>
	<path class="st2" d="M116.8,109.7l-11.7,40l-3.7-2.5c-1.1-0.7-1.6-2.2-1.2-3.6l10.5-34.4L116.8,109.7z"/>
	<path class="st0" d="M105,150.1c-0.1,0-0.1,0-0.2-0.1l-3.7-2.5c-1.3-0.8-1.8-2.5-1.3-4.1l10.5-34.4c0.1-0.2,0.2-0.3,0.4-0.3
		l6.1,0.5c0.1,0,0.2,0.1,0.3,0.2c0.1,0.1,0.1,0.2,0.1,0.3l-11.7,40c0,0.1-0.1,0.2-0.2,0.3C105.1,150.1,105,150.1,105,150.1z
		 M110.9,109.6l-10.4,34.1c-0.4,1.2,0.1,2.6,1,3.2l3.3,2.2l11.5-39L110.9,109.6z"/>
	<path class="st1" d="M120.7,112.5l-5,31.9c-0.2,1.1-0.8,2.1-1.7,2.7l-9.1,2.7l11.7-40L120.7,112.5z"/>
	<path class="st0" d="M105,150.1c-0.1,0-0.2,0-0.3-0.1c-0.1-0.1-0.1-0.2-0.1-0.4l11.7-40c0-0.1,0.1-0.2,0.2-0.3c0.1,0,0.2,0,0.3,0
		l4,2.8c0.1,0.1,0.2,0.2,0.2,0.4l-5,31.9c-0.2,1.3-0.9,2.4-1.9,3c0,0-0.1,0-0.1,0l-9.1,2.7C105.1,150.1,105,150.1,105,150.1z
		 M117,110.4l-11.4,38.8l8.3-2.4c0.8-0.5,1.3-1.4,1.5-2.4l5-31.6L117,110.4z"/>
	<path class="st1" d="M117.8,127.4c-0.1,0.7-0.9,1.3-1.8,1.6c-0.9,0.3-1.9,0.4-2.6,0.3l-2.3-0.4c1.4,0.3,3.7,1.9,3.4,3.4
		c-0.1,0.7-0.9,1.3-1.8,1.6c-0.9,0.3-1.9,0.4-2.6,0.3l-1.7-0.3c1.4,0.3,3.7,1.9,3.4,3.4c-0.1,0.7-0.9,1.3-1.8,1.6
		c-0.9,0.3-1.9,0.4-2.6,0.3l-3.5-0.7c-1.4-0.3-2.4-1.7-2.1-3.1c0.1-0.7,0.6-1.3,1.1-1.7c0.6-0.4-0.4-2.1-0.1-3.5
		c0.1-0.7,0.6-1.3,1.1-1.7c0.6-0.4-0.4-2.1-0.1-3.5c0.1-0.7,0.6-1.3,1.1-1.7c0.6-0.4-0.4-2.1-0.1-3.5c0.1-0.7,0.6-1.3,1.1-1.7
		c0.6-0.4,1.3-0.5,2-0.4l5.2,1c1.4,0.3,3.7,1.9,3.4,3.4c-0.1,0.7-0.9,1.3-1.8,1.6c-0.9,0.3-1.9,0.4-2.6,0.3l2.3,0.4
		C115.9,124.3,118.1,125.9,117.8,127.4z"/>
	<path class="st0" d="M108.2,139.4c-0.3,0-0.5,0-0.8-0.1l-3.5-0.7c-1.6-0.3-2.7-1.9-2.4-3.6c0.2-0.8,0.6-1.5,1.3-1.9
		c0.1-0.1-0.1-0.7-0.1-1c-0.1-0.7-0.3-1.5-0.2-2.3c0.2-0.8,0.6-1.5,1.3-1.9c0.1-0.1-0.1-0.7-0.1-1c-0.1-0.7-0.3-1.5-0.2-2.3
		c0.2-0.8,0.6-1.5,1.3-1.9c0.1-0.1-0.1-0.7-0.1-1c-0.1-0.7-0.3-1.5-0.2-2.3c0.2-0.8,0.6-1.5,1.3-1.9c0.7-0.5,1.5-0.6,2.3-0.5l5.2,1
		c0.8,0.2,1.8,0.7,2.5,1.3c0.9,0.8,1.3,1.7,1.2,2.5c-0.2,0.8-0.9,1.5-2,1.9c0,0-0.1,0-0.1,0c1.5,0.4,3.8,2.1,3.5,3.7l0,0
		c-0.2,0.8-0.9,1.5-2,1.9c-0.8,0.3-1.8,0.4-2.6,0.3c0,0,0.1,0.1,0.1,0.1c0.9,0.8,1.3,1.7,1.2,2.5c-0.2,0.8-0.9,1.5-2,1.9
		c-0.7,0.2-1.4,0.4-2.1,0.4c0.1,0.1,0.2,0.1,0.2,0.2c0.9,0.8,1.3,1.7,1.2,2.5c-0.2,0.8-0.9,1.5-2,1.9
		C109.6,139.2,108.8,139.4,108.2,139.4z M107.4,117.7c-0.5,0-0.9,0.1-1.3,0.4c-0.5,0.3-0.8,0.9-1,1.5c-0.1,0.6,0,1.3,0.2,2
		c0.2,0.8,0.3,1.5-0.2,1.8c-0.5,0.3-0.8,0.9-1,1.5c-0.1,0.6,0,1.3,0.2,2c0.2,0.8,0.3,1.5-0.2,1.8c-0.5,0.3-0.8,0.9-1,1.5
		c-0.1,0.6,0,1.3,0.2,2c0.2,0.8,0.3,1.5-0.2,1.8c-0.5,0.3-0.8,0.9-1,1.5c-0.2,1.2,0.6,2.4,1.8,2.7l3.5,0.7c0.7,0.1,1.6,0,2.4-0.3
		c0.9-0.3,1.4-0.8,1.5-1.3c0.1-0.5-0.2-1.1-0.9-1.8c-0.6-0.6-1.5-1-2.2-1.2h0l0,0c-0.2,0-0.3-0.2-0.3-0.5c0-0.2,0.2-0.3,0.5-0.3l0,0
		c0,0,0,0,0,0l1.7,0.3c0.7,0.1,1.6,0,2.4-0.3c0.9-0.3,1.4-0.8,1.5-1.3c0.1-0.5-0.2-1.1-0.9-1.8c-0.6-0.6-1.5-1-2.2-1.2
		c-0.2,0-0.3-0.2-0.3-0.5c0-0.2,0.2-0.3,0.5-0.3l2.3,0.4c0.7,0.1,1.6,0,2.4-0.3c0.9-0.3,1.4-0.8,1.5-1.3c0.2-1.2-1.8-2.7-3.1-2.9
		L112,124c0,0,0,0,0,0l0,0c-0.2,0-0.3-0.2-0.3-0.5c0-0.2,0.2-0.3,0.5-0.3h0c0.7,0.1,1.6,0,2.4-0.3c0.9-0.3,1.4-0.8,1.5-1.3
		c0.1-0.5-0.2-1.1-0.9-1.8c-0.6-0.6-1.5-1-2.2-1.2l-5.2-1C107.7,117.7,107.6,117.7,107.4,117.7z M117.8,127.4L117.8,127.4
		L117.8,127.4z"/>
	<line class="st3" x1="112.1" y1="123.6" x2="107.7" y2="123.3"/>
	<path class="st0" d="M112.1,124C112.1,124,112.1,124,112.1,124l-4.4-0.3c-0.2,0-0.4-0.2-0.4-0.4c0-0.2,0.2-0.4,0.4-0.4l4.4,0.3
		c0.2,0,0.4,0.2,0.4,0.4C112.5,123.8,112.3,124,112.1,124z"/>
	<g>
		<line class="st3" x1="111.1" y1="128.8" x2="108.1" y2="128.3"/>
		<path class="st0" d="M111.1,129.2C111.1,129.2,111.1,129.2,111.1,129.2l-3-0.5c-0.2,0-0.4-0.2-0.3-0.4c0-0.2,0.2-0.4,0.4-0.3
			l3,0.5c0.2,0,0.4,0.2,0.3,0.4C111.5,129.1,111.3,129.2,111.1,129.2z"/>
	</g>
	<g>
		<line class="st3" x1="108.5" y1="133.7" x2="105.9" y2="133.3"/>
		<path class="st0" d="M108.5,134.1C108.4,134.1,108.4,134.1,108.5,134.1l-2.6-0.4c-0.2,0-0.4-0.2-0.3-0.4c0-0.2,0.2-0.4,0.4-0.3
			l2.5,0.4c0.2,0,0.4,0.2,0.3,0.4C108.8,134,108.6,134.1,108.5,134.1z"/>
	</g>
	<g>
		<ellipse transform="matrix(0.2346 -0.9721 0.9721 0.2346 6.4305 206.8876)" class="st0" cx="134.6" cy="99.4" rx="8" ry="7.4"/>
		<path class="st0" d="M134.4,107.7c-0.6,0-1.2-0.1-1.7-0.2c-2-0.5-3.7-1.8-4.8-3.7c-1.1-1.9-1.4-4.1-0.8-6.3c0.5-2.2,1.8-4,3.6-5.2
			c1.8-1.2,3.9-1.6,6-1.1c2,0.5,3.7,1.8,4.8,3.7c1.1,1.9,1.4,4.1,0.8,6.3C141.3,105.1,138,107.7,134.4,107.7z M134.8,91.8
			c-1.3,0-2.6,0.4-3.8,1.2c-1.6,1.1-2.8,2.8-3.3,4.7l0,0c-0.5,2-0.2,4,0.8,5.7c1,1.7,2.5,2.9,4.3,3.3c3.8,0.9,7.7-1.6,8.6-5.7
			c0.5-2,0.2-4-0.8-5.7c-1-1.7-2.5-2.9-4.3-3.3C135.8,91.9,135.3,91.8,134.8,91.8z M127.3,97.6L127.3,97.6L127.3,97.6z"/>
		<path class="st1" d="M72.7,116.3c26.3-6.2,41.7-2.7,44.6-2.3c0.4,0.1,0.5,0.1,0.5,0.1l0.2,0l8.8,1.7c0.4,0,0.8,0,1.3-0.1
			c1.7-0.4,3.1-1.8,4.4-3.8c5.2-8.3,6.5-27,0.4-29.3l-9.1-1.7l-0.5-0.1c-15.7-1.4-42.9-22.2-42.9-22.2L73,114.2L72.7,116.3z"/>
		<path class="st4" d="M88.5,73.6c0,0,14.2,9,18.2,10.5c4,1.5,20.5,4.7,20.5,4.7l-0.2,2.7c0,0-26.5-4.5-32.1-4.7
			c-5.6-0.2-4.9-1-4.9-1L88.5,73.6z"/>
		<path class="st0" d="M72.7,116.7c-0.1,0-0.2,0-0.3-0.1c-0.1-0.1-0.1-0.2-0.1-0.3L80,58.5c0-0.1,0.1-0.3,0.2-0.3
			c0.1-0.1,0.3,0,0.4,0.1c0.3,0.2,27.3,20.8,42.7,22.2l9.6,1.7c0,0,0,0,0.1,0c1.5,0.6,2.6,2,3.3,4.2c2.2,6.7,0.5,19.2-3.5,25.7
			c-1.4,2.2-2.9,3.6-4.6,4c-0.4,0.1-0.9,0.2-1.4,0.2c0,0,0,0-0.1,0l-9-1.8c0,0-0.2,0-0.5-0.1c-0.2,0-0.5-0.1-0.8-0.1
			C103.8,112,89.1,112.8,72.7,116.7C72.8,116.7,72.8,116.7,72.7,116.7z M80.7,59.3l-7.5,56.5c16.1-3.7,30.7-4.5,43.5-2.3
			c0.3,0.1,0.6,0.1,0.7,0.1c0.4,0.1,0.6,0.1,0.6,0.1l0.2,0l8.8,1.7c0.4,0,0.7,0,1.1-0.1c1.5-0.4,2.9-1.6,4.1-3.7
			c3.9-6.2,5.6-18.6,3.5-25c-0.7-2-1.6-3.2-2.8-3.7l-9.6-1.7C108.7,79.9,84.7,62.3,80.7,59.3z"/>
		<path class="st5" d="M118.4,114.6l8.5,1.5c0,0,0,0,0.1,0c2.2,0.1,4.2-1.6,5.7-4.2c5.2-8.5,6.5-27.3,0.4-29.7c0,0-0.1,0-0.1,0
			l-8.7-1.5c-0.2,0-0.4,0.1-0.4,0.4c0,0.1,0,0.2,0.1,0.3c4.5,4.5,3.1,20.8-1.6,28.7h0c-1.1,1.9-2.5,3.3-4,4
			c-0.1,0.1-0.2,0.2-0.2,0.3C118,114.3,118.2,114.5,118.4,114.6z"/>
		<path class="st6" d="M118.4,114.6l8.5,1.5c0,0,0,0,0.1,0c2.2,0.1,4.2-1.6,5.7-4.2c0,0-0.1,0-0.1,0c-9,3-10.2-2-10.2-2h0
			c-1.1,1.9-2.5,3.3-4,4c-0.1,0.1-0.2,0.2-0.2,0.3C118,114.3,118.2,114.5,118.4,114.6z"/>
		<path class="st0" d="M127,116.4c0,0-0.1,0-0.1,0c0,0-0.1,0-0.1,0l-8.5-1.5c-0.2,0-0.4-0.1-0.5-0.3c-0.1-0.2-0.2-0.4-0.1-0.6
			c0-0.2,0.2-0.5,0.4-0.6c1.3-0.6,2.6-1.9,3.8-3.8c0,0,0,0,0,0c4.5-7.6,6.2-23.7,1.7-28.2c-0.2-0.2-0.2-0.4-0.2-0.6
			c0-0.2,0.1-0.4,0.3-0.6c0.2-0.1,0.4-0.2,0.6-0.2l8.7,1.5c0.1,0,0.1,0,0.2,0c1.5,0.6,2.6,2,3.3,4.2c2.3,6.7,0.6,19.4-3.5,26.1
			C131.2,114.9,129.2,116.4,127,116.4z M118.5,114.2l8.4,1.5c2.4,0.1,4.3-2.2,5.4-4c3.9-6.4,5.6-19,3.4-25.4c-0.7-2-1.6-3.3-2.9-3.7
			l-8.7-1.5c4.7,4.7,3.1,21.4-1.6,29.1c0,0,0,0,0,0C121.3,112.2,120,113.6,118.5,114.2z M118.5,114.2L118.5,114.2L118.5,114.2
			L118.5,114.2z"/>
		
			<ellipse transform="matrix(0.1569 -0.9876 0.9876 0.1569 -27.7739 140.5974)" class="st2" cx="68.5" cy="86.6" rx="31.2" ry="22.4"/>
		<path class="st1" d="M64.4,112.8c10.2,1.2,20.1-9.7,22.1-24.2c1.8-13.2-3.5-24.8-12-27.8l0,0c-0.9-0.3-1.8-0.5-2.8-0.6
			C61.4,59,51.5,69.8,49.5,84.4c0,0.3-0.1,0.6-0.1,0.8C47.8,99.4,54.4,111.7,64.4,112.8z"/>
		<path class="st1" d="M64.4,112.8c10.2,1.2,20.1-9.7,22.1-24.2c1.8-13.2-3.5-24.8-12-27.8l0,0c0,0,4.2,3.2,2.7,6.2
			c-1.5,3-5.6,7.5-4.8,11.3c0.7,3.7-5.1,25.8-10.4,26.1c-5.3,0.3-2.9-6.1-6.4-7.2c-2.6-0.9-5.1-7.9-6.1-11.9
			C47.8,99.4,54.4,111.7,64.4,112.8z"/>
		<path class="st0" d="M64.4,112.8c7,0.8,13.8-4,18.1-11.8c2-3.6,3.4-7.8,4-12.4c0.5-3.8,0.5-7.4-0.1-10.8
			c-1.4-8.4-5.8-14.9-11.9-17l0,0c0,0,4.2,3.2,2.7,6.2c-1.3,2.7-4.7,6.5-4.9,9.9c0,0.4,0,0.9,0.1,1.3c0.4,2.2-1.5,11-4.2,17.8
			c-1.9,4.6-4.1,8.2-6.2,8.3c-5.3,0.3-2.9-6.1-6.4-7.2c-2.6-0.9-5.1-7.9-6.1-11.9C47.8,99.4,54.4,111.7,64.4,112.8z"/>
		<path class="st0" d="M66.1,118c-0.6,0-1.3,0-1.9-0.1c-4.8-0.6-9.1-3.1-12.4-7.4c-5.1-6.6-7.3-16.5-6-26.5l0.4,0.1L45.8,84
			c2.4-17.3,14.4-30.1,26.9-28.7c4.8,0.6,9.1,3.1,12.4,7.4c5.1,6.6,7.3,16.5,6,26.5C88.9,105.6,77.9,118,66.1,118z M70.8,55.9
			c-11.4,0-22.1,12.2-24.2,28.2c-1.3,9.8,0.8,19.5,5.8,25.9c3.2,4.1,7.3,6.6,11.9,7.1c12.1,1.4,23.8-11.2,26.1-28
			c1.3-9.8-0.8-19.5-5.8-25.9c-3.2-4.1-7.3-6.6-11.9-7.1C72,55.9,71.4,55.9,70.8,55.9z"/>
		<g>
			<path class="st0" d="M65.9,113.3c-0.5,0-1,0-1.5-0.1l0,0c-5-0.6-9.3-3.8-12.1-9.1c-2.8-5.3-4-12-3.2-18.9c0-0.3,0.1-0.6,0.1-0.9
				c2-14.7,12.1-25.8,22.5-24.6c1,0.1,2,0.3,2.9,0.7c8.9,3.1,14.1,15,12.3,28.2C84.9,102.6,75.7,113.3,65.9,113.3z M64.4,112.4
				c10,1.1,19.7-9.6,21.6-23.9c1.7-12.7-3.3-24.5-11.8-27.4c-0.9-0.3-1.8-0.5-2.7-0.6c-10-1.1-19.7,9.6-21.7,23.9
				c0,0.3-0.1,0.6-0.1,0.8c-0.8,6.8,0.3,13.4,3.1,18.5C55.6,108.8,59.7,111.9,64.4,112.4L64.4,112.4z"/>
		</g>
		<g>
			<path class="st1" d="M64.3,94.8L68,96l14.4,5c2-3.6,3.4-7.8,4-12.4c0.5-3.8,0.5-7.4-0.1-10.8l-18.4-1.1L64.3,94.8z"/>
			<path class="st0" d="M82.4,101.4c0,0-0.1,0-0.1,0l-18.1-6.3c-0.2-0.1-0.3-0.3-0.3-0.4l3.6-18c0-0.2,0.2-0.3,0.4-0.3l18.4,1.1
				c0.2,0,0.3,0.1,0.4,0.3c0.6,3.5,0.6,7.2,0.1,10.9c-0.6,4.5-2,8.8-4.1,12.5C82.7,101.3,82.6,101.4,82.4,101.4z M64.8,94.5l17.5,6
				c1.9-3.6,3.2-7.7,3.8-12c0.5-3.5,0.5-7-0.1-10.4l-17.8-1.1L64.8,94.5z"/>
		</g>
		<g>
			<path class="st0" d="M65.2,95.2c-0.2,0-0.4,0-0.6,0c-1.6-0.3-3-1.5-3.8-3.5c-0.8-1.9-1-4.4-0.6-6.9c0.8-5.2,4.2-9.1,7.4-8.5
				c1.6,0.3,3,1.5,3.8,3.5c0.8,1.9,1,4.4,0.6,6.9c-0.4,2.5-1.4,4.8-2.7,6.4C68,94.5,66.6,95.2,65.2,95.2z M67,77
				c-2.7,0-5.3,3.4-6.1,7.9c-0.4,2.4-0.2,4.7,0.6,6.5c0.7,1.8,1.9,2.8,3.2,3.1c1.3,0.2,2.8-0.5,4-1.9c1.3-1.5,2.2-3.6,2.6-6
				c0.4-2.4,0.2-4.7-0.6-6.5c-0.7-1.8-1.9-2.8-3.2-3.1C67.3,77,67.1,77,67,77z"/>
		</g>
		<g>
			<path class="st0" d="M65.4,91.5c-0.1,0-0.2,0-0.2,0c-0.8-0.1-1.4-0.9-1.8-2.1c-0.3-1.1-0.4-2.6-0.1-4.1c0.5-3.2,2.1-5.6,3.7-5.3
				c1.6,0.3,2.4,3,1.9,6.2c-0.2,1.5-0.7,2.9-1.4,3.9C66.9,91,66.1,91.5,65.4,91.5z M66.8,80.7c-1,0-2.3,1.9-2.7,4.7l0,0
				c-0.2,1.4-0.2,2.7,0.1,3.8c0.3,0.9,0.7,1.5,1.2,1.6c0.5,0.1,1.1-0.3,1.6-1.1c0.6-0.9,1-2.2,1.3-3.5c0.5-3-0.3-5.2-1.2-5.3
				C66.8,80.7,66.8,80.7,66.8,80.7z M63.7,85.3L63.7,85.3L63.7,85.3z"/>
		</g>
		<g>
			
				<ellipse transform="matrix(0.1569 -0.9876 0.9876 0.1569 -28.9545 137.5354)" class="st5" cx="66.1" cy="85.7" rx="9.2" ry="5.6"/>
			<path class="st0" d="M65.2,95.2c-0.2,0-0.4,0-0.6,0c-1.6-0.3-3-1.5-3.8-3.5c-0.8-1.9-1-4.4-0.6-6.9c0.8-5.2,4.2-9.1,7.4-8.5
				c1.6,0.3,3,1.5,3.8,3.5c0.8,1.9,1,4.4,0.6,6.9c-0.4,2.5-1.4,4.8-2.7,6.4C68,94.5,66.6,95.2,65.2,95.2z M67,77
				c-2.7,0-5.3,3.4-6.1,7.9c-0.4,2.4-0.2,4.7,0.6,6.5c0.7,1.8,1.9,2.8,3.2,3.1c1.3,0.2,2.8-0.5,4-1.9c1.3-1.5,2.2-3.6,2.6-6
				c0.4-2.4,0.2-4.7-0.6-6.5c-0.7-1.8-1.9-2.8-3.2-3.1C67.3,77,67.1,77,67,77z"/>
		</g>
		<g>
			
				<ellipse transform="matrix(0.1569 -0.9876 0.9876 0.1569 -28.9545 137.5354)" class="st0" cx="66.1" cy="85.7" rx="5.5" ry="2.5"/>
			<path class="st0" d="M65.4,91.5c-0.1,0-0.2,0-0.2,0c-0.8-0.1-1.4-0.9-1.8-2.1c-0.3-1.1-0.4-2.6-0.1-4.1c0.5-3.2,2.1-5.6,3.7-5.3
				c1.6,0.3,2.4,3,1.9,6.2c-0.2,1.5-0.7,2.9-1.4,3.9C66.9,91,66.1,91.5,65.4,91.5z M66.8,80.7c-1,0-2.3,1.9-2.7,4.7l0,0
				c-0.2,1.4-0.2,2.7,0.1,3.8c0.3,0.9,0.7,1.5,1.2,1.6c0.5,0.1,1.1-0.3,1.6-1.1c0.6-0.9,1-2.2,1.3-3.5c0.5-3-0.3-5.2-1.2-5.3
				C66.8,80.7,66.8,80.7,66.8,80.7z M63.7,85.3L63.7,85.3L63.7,85.3z"/>
		</g>
	</g>
	<g>
		<path class="st1" d="M190,172.5h-21.7l-13.9,46.2c-0.5,1.8-0.9,3.6-1,5.4l-0.3,59.4h26.3l1.7-58.2l8-22.9c1.8-5.2,2.5-10.7,2-16.1
			L190,172.5z"/>
		<path class="st0" d="M179.4,283.9C179.4,283.9,179.4,283.9,179.4,283.9l-28.1-1.1c-0.2,0-0.4-0.2-0.4-0.4l2.1-58.3
			c0.1-1.9,0.5-3.7,1-5.5l13.9-46.2c0-0.2,0.2-0.3,0.4-0.3H190c0.2,0,0.4,0.2,0.4,0.4l1.2,13.8c0.5,5.6-0.2,11-2.1,16.3l-8,22.8
			l-1.7,58.2c0,0.1,0,0.2-0.1,0.3C179.6,283.9,179.5,283.9,179.4,283.9z M151.7,282l27.3,1.1l1.7-57.8c0,0,0-0.1,0-0.1l8-22.9
			c1.8-5.2,2.5-10.5,2-16l-1.2-13.5h-21.1l-13.8,45.9c-0.5,1.7-0.9,3.5-1,5.4L151.7,282z"/>
		<path class="st1" d="M180.8,236c0.9,1.3,2,2.5,3.2,3.6l40.2,34.7l16.1-21.1L207,224.1l0.6-28c0.3-1.9-0.5-9.6-1.2-15.7
			c-0.5-4.4-0.9-7.9-0.9-7.9h-27.6l-0.2,7.6l-0.3,9.8l-0.2,8.1l-0.6,23.9C176.3,226.9,177.9,231.9,180.8,236z"/>
		<path class="st0" d="M164.4,185.4c2.2,1.3,6.3,4.8,12.6,5.8c0.3,0.1,0.7,0.1,1,0.2c3.8,0.5,8.5,1.1,12.9,1.8
			c7.4,1.3,14.4,1.7,14.6,4.5c0.3,4.5,1.4,26.4,1.4,26.4l0.6-28c0.3-1.9-0.5-9.6-1.2-15.7l-15.7-0.2l-13.1-0.2l-9-0.1l-3.2,2.4
			L164.4,185.4z"/>
		<path class="st0" d="M224.2,274.7c-0.1,0-0.2,0-0.3-0.1l-40.2-34.7c-5.1-4.6-7.9-11.2-7.7-18.1l0.6-23.9c0-0.2,0.2-0.4,0.4-0.4
			c0.2,0,0.4,0.2,0.4,0.4l-0.6,23.9c-0.2,6.7,2.5,13,7.5,17.5l39.9,34.4l15.6-20.5l-33.1-28.8c-0.1-0.1-0.1-0.2-0.1-0.3l0.6-28
			c0,0,0,0,0,0c0.4-2.9-1.8-20.5-2.1-23.2h-27.3c-0.2,0-0.4-0.2-0.4-0.4s0.2-0.4,0.4-0.4h27.6c0.2,0,0.4,0.1,0.4,0.3
			c0.1,0.8,2.6,20.4,2.1,23.7l-0.6,27.8l33.2,29c0.2,0.1,0.2,0.4,0.1,0.5l-16.1,21.1C224.5,274.6,224.4,274.6,224.2,274.7
			C224.3,274.7,224.2,274.7,224.2,274.7z"/>
		<path class="st1" d="M166.2,156.7c0,0-1.4,0.6-3.5,1.6c-2.9,1.3-7.2,3.1-11.5,4.7c-5.5,2-11.1,3.6-14,3.2
			c-6.3-0.9-20.4-27.6-20.4-27.6l2.5-16l-5.8-1c-1.9-0.3-2.9-2.3-2.2-4l0,0c0.5-1.3,2-2.1,3.4-1.8l8.8,2c1.4,0.3,2.6,1.3,3.2,2.6
			l1.3,2.8c0,0,15.6,23.3,16.3,23.3c0.2,0,1.3-0.6,2.8-1.5c1.3-0.7,2.8-1.7,4.3-2.5c2.4-1.5,4.6-2.8,4.6-2.8L166.2,156.7z"/>
		<path class="st0" d="M138.2,166.5c-0.4,0-0.8,0-1.1-0.1c-6.5-1-20.1-26.8-20.7-27.8c0-0.1-0.1-0.2,0-0.2l2.5-15.6l-5.4-0.9
			c-1-0.2-1.9-0.8-2.4-1.7c-0.5-0.9-0.6-1.9-0.2-2.9c0.6-1.5,2.2-2.4,3.8-2l8.8,2c1.6,0.4,2.8,1.4,3.5,2.8l1.3,2.7
			c5.8,8.7,14.7,21.8,16,23.1c0.2-0.1,0.8-0.4,2.5-1.4c1.1-0.6,2.4-1.4,4.3-2.5c2.4-1.5,4.5-2.8,4.6-2.8c0.1-0.1,0.2-0.1,0.3,0
			c0.1,0,0.2,0.1,0.2,0.2l10.4,17c0.1,0.1,0.1,0.2,0,0.3c0,0.1-0.1,0.2-0.2,0.2c0,0-1.4,0.7-3.5,1.6c-2.8,1.3-7.2,3.1-11.5,4.7
			C145.3,165.4,140.9,166.5,138.2,166.5z M117.2,138.4c1,1.9,14.2,26.5,20.1,27.3c2.4,0.4,7.1-0.7,13.8-3.2
			c4.3-1.6,8.6-3.4,11.5-4.6c1.5-0.6,2.6-1.1,3.1-1.4l-9.9-16.3c-0.7,0.4-2.4,1.5-4.2,2.6c-1.8,1.1-3.2,1.9-4.3,2.5
			c-2.6,1.5-2.8,1.5-3,1.5c-0.3,0-0.6,0-8.7-11.8c-3.9-5.8-7.8-11.6-7.9-11.6c0,0,0,0,0-0.1l-1.3-2.8c-0.6-1.2-1.7-2.1-3-2.4l-8.8-2
			c-1.2-0.3-2.5,0.4-2.9,1.5c-0.3,0.7-0.2,1.5,0.1,2.2c0.4,0.7,1,1.1,1.8,1.3l5.8,1c0.2,0,0.4,0.2,0.3,0.4L117.2,138.4z
			 M144.3,146.1L144.3,146.1L144.3,146.1z"/>
		<path class="st0" d="M149.1,144.5c1.2,3.4,4.3,12.4,4.2,17.9c4.3-1.6,8.6-3.4,11.5-4.7c0.8-1.6,1.4-2.8,1.4-2.9
			c0-0.3-8.8-10.3-8.8-10.3s-1.9-1.7-4-2.6C151.9,142.9,150.4,143.8,149.1,144.5z"/>
		<path class="st0" d="M153.3,162.9c-0.1,0-0.2,0-0.2-0.1c-0.1-0.1-0.2-0.2-0.2-0.3c0.1-5.4-2.9-14.3-4.2-17.8
			c-0.1-0.2,0-0.4,0.2-0.5c1.1-0.6,2.6-1.5,4.3-2.5c0.1-0.1,0.2-0.1,0.4,0c2.1,0.9,4,2.6,4.1,2.7c0,0,0,0,0,0
			c8.9,10.1,8.9,10.3,8.9,10.5c0,0.1,0,0.2-1.4,3.1c0,0.1-0.1,0.1-0.2,0.2c-4.2,1.8-8.1,3.4-11.5,4.7
			C153.4,162.9,153.4,162.9,153.3,162.9z M149.6,144.7c1.3,3.6,4,11.8,4.1,17.2c3.2-1.2,7-2.7,10.8-4.4c0.8-1.6,1.1-2.3,1.2-2.6
			c-0.7-0.9-5.4-6.4-8.6-10c-0.2-0.2-1.9-1.6-3.7-2.5C151.9,143.3,150.6,144.1,149.6,144.7z"/>
		<path class="st7" d="M151.2,141.8c0,5.2,4.9,18.7,7.1,20.9c4.8-0.3,25.7-13,25.7-13l-8.1-19.6C174.4,130.5,155,138.5,151.2,141.8z
			"/>
		<path class="st0" d="M158.3,163.1c-0.1,0-0.2,0-0.3-0.1c-2.3-2.3-7.2-15.9-7.2-21.2c0-0.1,0-0.2,0.1-0.3
			c3.8-3.4,23.4-11.5,24.8-11.7c0.2,0,0.4,0.1,0.4,0.2l8.1,19.6c0.1,0.2,0,0.4-0.2,0.5C183.3,150.6,163.2,162.7,158.3,163.1
			C158.3,163.1,158.3,163.1,158.3,163.1z M151.6,142c0.1,5,4.6,17.8,6.8,20.3c4.7-0.6,22.6-11.2,25.1-12.7l-7.9-19
			C172.8,131.6,155.4,138.8,151.6,142z"/>
		<path class="st7" d="M163.5,183.7c-0.8,4.1,45.5,12.5,47.4,6.3c-1.5-4.6-1.6-22.2-1.6-22.2s1.5-29.3-1.2-35.4
			c-2.1-4.6-32.6-7.3-39.2,2.2C165,140.1,163.5,183.7,163.5,183.7z"/>
		<path class="st0" d="M202.2,192.6c-8.3,0-20.3-2-28.2-3.9c-7.5-1.8-11.1-3.5-10.9-5c0-0.9,0.9-25,3.1-39.8c0-0.2,0.2-0.4,0.4-0.3
			c0.2,0,0.4,0.2,0.3,0.4c-2.1,14.9-3,39.5-3,39.7c0,0,0,0,0,0.1c-0.1,0.5,1.9,2.1,10.3,4.2c15.3,3.8,34.8,5.4,36.3,2
			c-1.5-4.8-1.6-21.5-1.6-22.2c0-0.3,1.5-29.3-1.2-35.2c-0.2-0.4-0.9-1.3-3.7-2.1c-7.5-2.4-23.9-3-31.7,1.6c-0.2,0.1-0.4,0-0.5-0.1
			c-0.1-0.2,0-0.4,0.1-0.5c8.1-4.7,24.6-4.1,32.3-1.7c2.3,0.7,3.7,1.6,4.2,2.6c2.7,6,1.3,34.3,1.3,35.5c0,0.2,0.1,17.6,1.6,22.1
			c0,0.1,0,0.2,0,0.2C210.7,191.9,207.2,192.6,202.2,192.6z"/>
		<path class="st1" d="M161.1,195.2l14.2-1c2.8-0.2,4.9-3.1,4.5-6.3l-3.3-24.7c-0.4-2.9-2.7-5-5.2-4.8l-14.2,1
			c-2.8,0.2-4.9,3.1-4.5,6.3l3.3,24.7C156.2,193.3,158.5,195.4,161.1,195.2z"/>
		<path class="st0" d="M160.8,195.6c-2.6,0-4.9-2.2-5.3-5.2l-3.3-24.7c-0.2-1.8,0.2-3.6,1.3-4.9c0.9-1.1,2.2-1.8,3.5-1.9l14.2-1
			c2.8-0.2,5.2,2.1,5.6,5.2l3.3,24.7c0.2,1.8-0.2,3.6-1.3,4.9c-0.9,1.1-2.2,1.8-3.5,1.9l-14.2,1C161,195.6,160.9,195.6,160.8,195.6z
			 M161.1,194.9l0,0.4L161.1,194.9l14.2-1c1.1-0.1,2.2-0.6,3-1.6c0.9-1.1,1.4-2.7,1.1-4.3l-3.3-24.7c-0.4-2.7-2.5-4.7-4.8-4.5
			l-14.2,1c-1.1,0.1-2.2,0.6-3,1.6c-0.9,1.1-1.4,2.7-1.1,4.3l3.3,24.7C156.6,193,158.7,195,161.1,194.9z"/>
		<path class="st1" d="M166.2,174.8c0.2,1.7,3.3,2.1,3.4,2.1c-0.2,0.1-3.2,1-2.8,2.2c0.5,1.3,2.9,1.5,3,1.5
			c-0.2,0.1-3.3,1.2-1.5,3.1c1.9,2,16.8,1.9,17.4,1.9c0,0,0,0,0,0c6.8,0.4,28.8,1.2,33.4-3.5c0.7-0.7,1.3-1.6,1.8-2.7
			c0,0,0-0.1,0.1-0.1c0,0,0,0,0,0c0-0.1,0.1-0.2,0.1-0.3c0,0,0,0,0,0c1.6-4,1.3-9.8,0.9-15.2c-0.3-3.6-1.3-8.5-2.2-12.1
			c-0.7-3-1.3-5.2-1.3-5.2l-10.9,3.5l-3.8,1.2l1.4,11.9l0.7,6.1l-22.2,2.1h0l-0.5-0.1c0,0-4.6-7.7-6.3-6.4c-1.7,1.3-0.1,6.1-0.1,6.1
			s-7.2-2.6-8.1-0.1c-0.6,1.6,1.5,2.2,1.5,2.2S165.9,172.8,166.2,174.8z"/>
		<path class="st0" d="M196.7,186.3c-4.3,0-8.2-0.2-11-0.3c-0.6,0-15.6,0.2-17.7-2c-0.5-0.6-0.7-1.1-0.6-1.7
			c0.1-0.6,0.7-1.1,1.2-1.5c-0.8-0.2-1.8-0.7-2.2-1.6c-0.1-0.3-0.1-0.6,0-0.8c0.2-0.5,0.8-0.9,1.7-1.4c-1-0.3-2.3-0.9-2.4-2.2
			c-0.1-0.5,0.1-0.9,0.4-1.2c0.6-0.7,1.8-0.9,2.7-1.1c-0.2-0.2-0.3-0.4-0.5-0.6c-0.2-0.4-0.2-0.9,0-1.4c0.9-2.4,5.9-1,7.9-0.4
			c-0.4-1.5-1-4.6,0.5-5.8c0.3-0.2,0.6-0.3,0.9-0.2c2,0.4,5.2,5.4,5.9,6.6l0.3,0l21.8-2l-2.1-17.6c0-0.2,0.1-0.4,0.3-0.4l14.7-4.7
			c0.1,0,0.2,0,0.3,0c0.1,0.1,0.2,0.1,0.2,0.2c0,0,0.6,2.2,1.3,5.3c0.8,3.5,1.9,8.4,2.2,12.2c0.4,5.6,0.6,11.3-1,15.3
			c0,0,0,0.1,0,0.1c0,0.1-0.1,0.2-0.1,0.2l0,0c0,0,0,0,0,0c0,0,0,0.1-0.1,0.1c-0.5,1.1-1.1,2-1.8,2.8
			C216.3,185.5,205.8,186.3,196.7,186.3z M185.8,185.2C185.8,185.2,185.8,185.2,185.8,185.2c6.7,0.4,28.6,1.2,33.2-3.4
			c0.7-0.7,1.2-1.5,1.7-2.6c0,0,0-0.1,0-0.1c0,0,0,0,0-0.1c0-0.1,0.1-0.1,0.1-0.2c0,0,0,0,0,0c0,0,0,0,0,0c1.5-3.9,1.3-9.5,0.9-15
			c-0.3-3.7-1.3-8.6-2.1-12c-0.5-2.3-1-4.1-1.2-4.8l-14,4.4l2.1,17.7c0,0.1,0,0.2-0.1,0.3c-0.1,0.1-0.2,0.1-0.3,0.1l-22.2,2.1
			c0,0-0.1,0-0.1,0l-0.5-0.1c-0.1,0-0.2-0.1-0.3-0.2c-1-1.7-3.9-6.1-5.4-6.4c-0.2,0-0.3,0-0.3,0.1c-1.2,0.9-0.4,4.4,0,5.6
			c0,0.1,0,0.3-0.1,0.4c-0.1,0.1-0.3,0.1-0.4,0.1c-1.8-0.6-6.9-2.1-7.6-0.3c-0.1,0.3-0.1,0.6,0,0.8c0.3,0.6,1.2,0.9,1.2,0.9
			c0.2,0.1,0.3,0.2,0.3,0.4c0,0.2-0.2,0.3-0.4,0.3c0,0,0,0-0.1,0c-0.8,0-2.7,0.2-3.4,0.9c-0.2,0.2-0.2,0.4-0.2,0.6l0,0
			c0.2,1.3,2.7,1.7,3.1,1.8c0.2,0,0.3,0.1,0.4,0.3s-0.1,0.4-0.2,0.4c0,0-0.1,0-0.1,0c-1.9,0.6-2.3,1.2-2.4,1.4c0,0.1,0,0.2,0,0.2
			c0.3,0.8,1.6,1.2,2.7,1.3c0.2,0,0.3,0.2,0.4,0.3c0,0.2-0.1,0.3-0.2,0.4c-0.7,0.3-1.7,0.8-1.8,1.4c-0.1,0.3,0.1,0.6,0.4,1
			C170.1,185,181.8,185.2,185.8,185.2C185.7,185.2,185.7,185.2,185.8,185.2z M220.7,178.8L220.7,178.8L220.7,178.8z M220.8,178.8
			C220.8,178.8,220.8,178.8,220.8,178.8C220.8,178.8,220.8,178.8,220.8,178.8z"/>
		<g>
			<path class="st0" d="M203.8,151.1l1.4,11.9c1.5-0.2,3.7-0.4,5.7-0.5c3.6-0.3,9.9,0.1,10.2,2.6c0.3,2.4,0.8,11.5,0,13.8
				c1.6-4,1.3-9.8,0.9-15.2c-0.3-3.6-1.3-8.5-2.2-12.1l-12.3-1.8L203.8,151.1z"/>
		</g>
		<g>
			<line class="st3" x1="170.2" y1="172.8" x2="175.3" y2="173.6"/>
			<path class="st0" d="M175.3,174C175.2,174,175.2,174,175.3,174l-5.2-0.8c-0.2,0-0.4-0.2-0.3-0.4s0.2-0.4,0.4-0.3l5.1,0.8
				c0.2,0,0.4,0.2,0.3,0.4C175.6,173.9,175.5,174,175.3,174z"/>
			<line class="st3" x1="169.6" y1="176.9" x2="174.3" y2="177.2"/>
			<path class="st0" d="M174.3,177.5C174.2,177.5,174.2,177.5,174.3,177.5l-4.7-0.3c-0.2,0-0.4-0.2-0.4-0.4c0-0.2,0.2-0.4,0.4-0.4
				l4.7,0.3c0.2,0,0.4,0.2,0.4,0.4C174.6,177.4,174.5,177.5,174.3,177.5z"/>
			<g>
				<line class="st3" x1="169.9" y1="180.5" x2="173.1" y2="180.6"/>
				<path class="st0" d="M173.1,181C173.1,181,173.1,181,173.1,181l-3.3,0c-0.2,0-0.4-0.2-0.4-0.4c0-0.2,0.2-0.4,0.4-0.4l3.3,0
					c0.2,0,0.4,0.2,0.4,0.4C173.5,180.8,173.3,181,173.1,181z"/>
			</g>
		</g>
		<g>
			<path class="st7" d="M206.8,131.1c0,0,5.9,1.5,10.4,8.3c4,6.1,6.4,19,6.4,19s-19.6,4.4-21.1,2.2s-1.9-20.4-1.9-20.4"/>
			<path class="st0" d="M205.4,161.4c-1.7,0-2.9-0.2-3.3-0.8c-1.5-2.2-1.9-18.7-2-20.6c0-0.2,0.2-0.4,0.4-0.4c0.2,0,0.4,0.2,0.4,0.4
				c0.1,5,0.6,18.5,1.8,20.2c0.9,1.3,12.3-0.5,20.4-2.2c-0.4-2.1-2.7-13.1-6.3-18.5c-4.3-6.6-10.1-8.1-10.1-8.1
				c-0.2-0.1-0.3-0.3-0.3-0.5c0.1-0.2,0.3-0.3,0.5-0.3c0.2,0.1,6.1,1.6,10.6,8.5c4,6.1,6.4,18.6,6.5,19.1c0,0.2-0.1,0.4-0.3,0.4
				C221.1,159.2,210.8,161.4,205.4,161.4z"/>
		</g>
		<g>
			<path class="st1" d="M137.2,308.7c0,0.4,0.1,0.8,0.2,1.3l10.2-0.3l0.4,0l18-0.5l6.6-0.2c2.3-0.1,4.2-1.6,4.8-3.7
				c0.1-0.4,0.2-0.9,0.2-1.4l0.2-9l0.2-11l-20.8-1.5l-0.4,10.7l-11.2,6.3l-0.9,0.5l-4,2.3c-1.6,0.9-2.7,2.3-3.3,4
				C137.3,306.9,137.1,307.8,137.2,308.7z"/>
			<path class="st0" d="M137.4,310.4c-0.2,0-0.3-0.1-0.4-0.3c-0.1-0.4-0.2-0.9-0.2-1.3l0,0c-0.1-1,0.1-1.9,0.4-2.8
				c0.6-1.8,1.8-3.3,3.5-4.2l15.8-8.9l0.4-10.4c0-0.1,0.1-0.2,0.1-0.3c0.1-0.1,0.2-0.1,0.3-0.1l20.8,1.5c0.2,0,0.4,0.2,0.4,0.4
				l-0.4,20c0,0.5-0.1,1-0.2,1.5c-0.7,2.3-2.8,3.9-5.2,4L137.4,310.4C137.4,310.4,137.4,310.4,137.4,310.4z M137.6,308.7
				c0,0.3,0.1,0.6,0.1,0.9l35-1c2.1-0.1,3.9-1.4,4.5-3.4c0.1-0.4,0.2-0.8,0.2-1.3l0.4-19.6l-20-1.5l-0.4,10.3c0,0.1-0.1,0.3-0.2,0.3
				l-16,9c-1.5,0.8-2.6,2.2-3.1,3.8C137.6,307,137.5,307.8,137.6,308.7L137.6,308.7z"/>
			<path class="st0" d="M137.2,308.7c0,0.4,0.1,0.8,0.2,1.3l10.2-0.3c0.8-1.3,1.3-2.9,1.2-4.6c-0.1-2.4-1.3-4.4-3-5.8l-0.9,0.5
				l-4,2.3c-1.6,0.9-2.7,2.3-3.3,4C137.3,306.9,137.1,307.8,137.2,308.7z"/>
			<path class="st0" d="M137.4,310.4c-0.2,0-0.3-0.1-0.4-0.3c-0.1-0.4-0.2-0.9-0.2-1.3l0,0c-0.1-1,0.1-1.9,0.4-2.8
				c0.6-1.8,1.8-3.3,3.5-4.2l4.9-2.7c0.1-0.1,0.3-0.1,0.4,0c1.9,1.5,3,3.7,3.2,6c0.1,1.7-0.3,3.4-1.2,4.8c-0.1,0.1-0.2,0.2-0.3,0.2
				L137.4,310.4C137.4,310.4,137.4,310.4,137.4,310.4z M137.6,308.7c0,0.3,0.1,0.6,0.1,0.9l9.7-0.3c0.7-1.3,1.1-2.7,1-4.2
				c-0.1-2.1-1.1-4-2.7-5.3l-4.6,2.6c-1.5,0.8-2.6,2.2-3.1,3.8C137.6,307,137.5,307.8,137.6,308.7L137.6,308.7z M166,309.1l6.6-0.2
				c2.3-0.1,4.2-1.6,4.8-3.7c0.1-0.4,0.2-0.9,0.2-1.4l0.2-9c-3.8,1.3-11.9,4.7-12.1,12C165.7,307.7,165.8,308.4,166,309.1z"/>
			<path class="st0" d="M166,309.5c-0.2,0-0.3-0.1-0.4-0.3c-0.2-0.7-0.3-1.5-0.3-2.4c0.2-5.3,4.5-9.6,12.4-12.4c0.1,0,0.3,0,0.4,0.1
				c0.1,0.1,0.2,0.2,0.2,0.3l-0.2,9c0,0.5-0.1,1-0.2,1.5c-0.7,2.3-2.8,3.9-5.2,4L166,309.5C166,309.5,166,309.5,166,309.5z
				 M177.5,295.4c-7.3,2.7-11.2,6.6-11.3,11.5c0,0.6,0,1.3,0.2,1.8l6.3-0.2c2.1-0.1,3.9-1.4,4.5-3.4c0.1-0.4,0.2-0.8,0.2-1.3
				L177.5,295.4z"/>
			<path class="st0" d="M137.2,308.7c0,0.4,0.1,0.8,0.2,1.3l35.3-1.1c2.3-0.1,4.2-1.6,4.8-3.7l-39.9,0.8
				C137.3,306.9,137.1,307.8,137.2,308.7z"/>
			<path class="st0" d="M137.4,310.4c-0.2,0-0.3-0.1-0.4-0.3c-0.1-0.4-0.2-0.9-0.2-1.3l0,0c-0.1-1,0.1-1.9,0.4-2.8
				c0.1-0.2,0.2-0.3,0.4-0.3l39.9-0.8c0.1,0,0.2,0.1,0.3,0.2c0.1,0.1,0.1,0.2,0.1,0.3c-0.7,2.3-2.8,3.9-5.2,4L137.4,310.4
				C137.4,310.4,137.4,310.4,137.4,310.4z M137.6,308.7c0,0.3,0.1,0.6,0.1,0.9l35-1c1.9,0,3.6-1.2,4.3-2.9l-39.1,0.8
				C137.6,307.2,137.5,307.9,137.6,308.7L137.6,308.7z"/>
			<g>
				<path class="st0" d="M154.4,292.4c0,0.2,0.1,0.5,0.2,0.7l2.2,2.2c0.3,0.3,0.8,0.3,1.1,0c0.1-0.1,0.2-0.3,0.2-0.5
					c0-0.2-0.1-0.5-0.2-0.7l-2.2-2.2c-0.3-0.3-0.8-0.3-1.1,0C154.5,292,154.4,292.2,154.4,292.4z"/>
			</g>
			<g>
				<path class="st0" d="M151.1,294.5c0,0.2,0.1,0.5,0.2,0.7l2.2,2.2c0.3,0.3,0.8,0.3,1.1,0c0.1-0.1,0.2-0.3,0.2-0.5
					c0-0.2-0.1-0.5-0.2-0.7l-2.2-2.2c-0.3-0.3-0.8-0.3-1.1,0C151.2,294.2,151.1,294.3,151.1,294.5z"/>
			</g>
			<g>
				<path class="st0" d="M147.8,296.7c0,0.2,0.1,0.5,0.2,0.7l2.2,2.2c0.3,0.3,0.8,0.3,1.1,0c0.1-0.1,0.2-0.3,0.2-0.5
					c0-0.2-0.1-0.5-0.2-0.7l-2.2-2.2c-0.3-0.3-0.8-0.3-1.1,0C147.9,296.3,147.8,296.5,147.8,296.7z"/>
			</g>
		</g>
		<g>
			<path class="st0" d="M149.7,283v2.1c0,1.4,1.1,2.5,2.5,2.5h27.9c1.4,0,2.5-1.1,2.5-2.5V283c0-1.4-1.1-2.5-2.5-2.5h-27.9
				C150.8,280.6,149.7,281.7,149.7,283z"/>
			<path class="st0" d="M180.1,288h-27.9c-1.6,0-2.9-1.3-2.9-2.9V283c0-1.6,1.3-2.9,2.9-2.9h27.9c1.6,0,2.9,1.3,2.9,2.9v2.1
				C182.9,286.7,181.6,288,180.1,288z M152.1,281c-1.1,0-2.1,0.9-2.1,2.1v2.1c0,1.1,0.9,2.1,2.1,2.1h27.9c1.1,0,2.1-0.9,2.1-2.1V283
				c0-1.1-0.9-2.1-2.1-2.1H152.1z"/>
		</g>
		<g>
			<path class="st1" d="M235.8,303.7c0.3,0.2,0.7,0.4,1.1,0.6l5.8-8.4l0.2-0.4l10.3-14.8l3.8-5.4c1.3-1.9,1.2-4.3-0.1-6.1
				c-0.3-0.4-0.6-0.7-1-1l-7.1-5.5l-8.7-6.7l-13.6,15.8l8.3,6.7l-1.6,12.7l-0.1,1l-0.6,4.6c-0.2,1.8,0.2,3.6,1.2,5
				C234.4,302.6,235,303.2,235.8,303.7z"/>
			<path class="st0" d="M236.9,304.7c-0.1,0-0.1,0-0.2,0c-0.4-0.2-0.8-0.4-1.2-0.6l0,0c-0.8-0.5-1.5-1.2-2-2
				c-1.1-1.5-1.5-3.4-1.3-5.3l2.3-18l-8.1-6.6c-0.1-0.1-0.1-0.2-0.1-0.3c0-0.1,0-0.2,0.1-0.3l13.6-15.8c0.1-0.2,0.4-0.2,0.5-0.1
				l15.8,12.2c0.4,0.3,0.8,0.7,1.1,1.1c1.4,1.9,1.5,4.6,0.1,6.5l-20.2,28.9C237.2,304.7,237.1,304.7,236.9,304.7z M227.2,271.8
				l8,6.5c0.1,0.1,0.2,0.2,0.1,0.3l-2.3,18.3c-0.2,1.7,0.2,3.4,1.2,4.8c0.5,0.7,1.1,1.3,1.8,1.8l0,0c0.2,0.2,0.5,0.3,0.8,0.4
				l20-28.7c1.2-1.7,1.2-4-0.1-5.6c-0.3-0.3-0.6-0.7-0.9-0.9l-15.5-12L227.2,271.8z"/>
			<path class="st0" d="M235.8,303.7c0.3,0.2,0.7,0.4,1.1,0.6l5.8-8.4c-0.6-1.5-1.6-2.8-3-3.7c-2-1.3-4.3-1.6-6.4-1l-0.1,1l-0.6,4.6
				c-0.2,1.8,0.2,3.6,1.2,5C234.4,302.6,235,303.2,235.8,303.7z"/>
			<path class="st0" d="M236.9,304.7c-0.1,0-0.1,0-0.2,0c-0.4-0.2-0.8-0.4-1.2-0.6c-0.8-0.5-1.5-1.2-2-2c-1.1-1.5-1.5-3.4-1.3-5.3
				l0.7-5.5c0-0.2,0.1-0.3,0.3-0.3c2.3-0.6,4.8-0.2,6.7,1.1c1.4,0.9,2.5,2.3,3.1,3.9c0,0.1,0,0.3,0,0.4l-5.8,8.4
				C237.2,304.7,237.1,304.7,236.9,304.7z M233.7,291.6l-0.7,5.3c-0.2,1.7,0.2,3.4,1.2,4.8c0.5,0.7,1.1,1.3,1.8,1.8l0,0
				c0.2,0.2,0.5,0.3,0.8,0.4l5.5-7.9c-0.6-1.4-1.5-2.5-2.8-3.3C237.8,291.5,235.7,291.1,233.7,291.6z M253.3,280.9l3.8-5.4
				c1.3-1.9,1.2-4.3-0.1-6.1c-0.3-0.4-0.6-0.7-1-1l-7.1-5.5c-1.2,3.8-3.3,12.4,2.4,16.9C252,280.2,252.7,280.6,253.3,280.9z"/>
			<path class="st0" d="M253.3,281.2c0,0-0.1,0-0.1,0c-0.7-0.3-1.4-0.7-2.1-1.2c-4.2-3.3-5-9.3-2.5-17.3c0-0.1,0.1-0.2,0.3-0.3
				c0.1,0,0.3,0,0.4,0.1l7.1,5.5c0.4,0.3,0.8,0.7,1.1,1.1c1.4,1.9,1.5,4.6,0.1,6.5l-3.8,5.4C253.6,281.2,253.5,281.2,253.3,281.2z
				 M249.2,263.5c-2.2,7.4-1.3,12.9,2.4,16c0.5,0.4,1,0.7,1.6,1l3.6-5.2c1.2-1.7,1.2-4-0.1-5.6c-0.3-0.3-0.6-0.7-0.9-0.9
				L249.2,263.5z"/>
			<path class="st0" d="M235.8,303.7c0.3,0.2,0.7,0.4,1.1,0.6l20.2-28.9c1.3-1.9,1.2-4.3-0.1-6.1l-23.2,32.5
				C234.4,302.6,235,303.2,235.8,303.7z"/>
			<path class="st0" d="M236.9,304.7c-0.1,0-0.1,0-0.2,0c-0.4-0.2-0.8-0.4-1.2-0.6c-0.8-0.5-1.5-1.2-2-2c-0.1-0.1-0.1-0.3,0-0.4
				l23.2-32.5c0.1-0.1,0.2-0.2,0.3-0.2c0.1,0,0.2,0.1,0.3,0.2c1.4,1.9,1.5,4.6,0.1,6.5l-20.2,28.9
				C237.2,304.7,237.1,304.7,236.9,304.7z M234.3,301.9c0.5,0.6,1,1.1,1.7,1.6l0,0c0.2,0.2,0.5,0.3,0.8,0.4l20-28.7
				c1.1-1.6,1.2-3.6,0.2-5.2L234.3,301.9z"/>
			<g>
				<path class="st0" d="M232.9,280.2c0.2,0.2,0.4,0.2,0.7,0.2l3.1-0.4c0.4-0.1,0.7-0.5,0.7-0.9c0-0.2-0.1-0.4-0.2-0.5
					c-0.2-0.2-0.4-0.2-0.7-0.2l-3.1,0.4c-0.4,0.1-0.7,0.5-0.7,0.9C232.7,279.9,232.8,280.1,232.9,280.2z"/>
			</g>
			<g>
				<path class="st0" d="M232.7,284.1c0.2,0.2,0.4,0.2,0.7,0.2l3.1-0.4c0.4-0.1,0.7-0.5,0.7-0.9c0-0.2-0.1-0.4-0.2-0.5
					c-0.2-0.2-0.4-0.2-0.7-0.2l-3.1,0.4c-0.4,0.1-0.7,0.5-0.7,0.9C232.5,283.8,232.6,284,232.7,284.1z"/>
			</g>
			<g>
				<path class="st0" d="M232.5,288c0.2,0.2,0.4,0.2,0.7,0.2l3.1-0.4c0.4-0.1,0.7-0.5,0.7-0.9c0-0.2-0.1-0.4-0.2-0.5
					c-0.2-0.2-0.4-0.2-0.7-0.2l-3.1,0.4c-0.4,0.1-0.7,0.5-0.7,0.9C232.3,287.8,232.3,287.9,232.5,288z"/>
			</g>
			<g>
				<path class="st0" d="M222.7,278.4l1.6,1.2c1.1,0.8,2.6,0.6,3.5-0.5l16.7-22.4c0.8-1.1,0.6-2.6-0.5-3.5l-1.6-1.2
					c-1.1-0.8-2.6-0.6-3.4,0.5l-16.7,22.4C221.4,276,221.6,277.6,222.7,278.4z"/>
				<path class="st0" d="M225.8,280.5c-0.6,0-1.2-0.2-1.7-0.6l-1.6-1.2c-1.3-0.9-1.5-2.7-0.6-4l16.7-22.4c0.5-0.6,1.1-1,1.9-1.1
					c0.8-0.1,1.5,0.1,2.1,0.5l1.6,1.2c0.6,0.5,1,1.1,1.1,1.9c0.1,0.8-0.1,1.5-0.5,2.1l-16.7,22.4c-0.5,0.6-1.1,1-1.9,1.1
					C226.1,280.5,225.9,280.5,225.8,280.5z M240.8,251.9c-0.1,0-0.2,0-0.3,0c-0.5,0.1-1,0.4-1.4,0.8l-16.7,22.4
					c-0.7,0.9-0.5,2.2,0.4,2.9l1.6,1.2c0.4,0.3,1,0.5,1.5,0.4c0.6-0.1,1-0.4,1.4-0.8l16.7-22.4c0.3-0.4,0.5-1,0.4-1.5
					c-0.1-0.6-0.4-1-0.8-1.4l-1.6-1.2C241.7,252.1,241.3,251.9,240.8,251.9z"/>
			</g>
		</g>
		<g>
			<path class="st1" d="M193.7,113.5l-0.5,14.6c0,0-5,7-10.2,7c-3.9,0-3.1-6.6-3.1-6.6v-19.4"/>
			<path class="st0" d="M183,135.5C183,135.5,183,135.5,183,135.5c-0.9,0-1.7-0.3-2.3-1c-1.6-1.8-1.2-5.6-1.2-6v-19.4
				c0-0.2,0.2-0.4,0.4-0.4s0.4,0.2,0.4,0.4v19.4c0,0,0,0,0,0c0,0-0.5,3.8,1,5.4c0.4,0.5,1,0.7,1.7,0.7c0,0,0,0,0,0
				c4.6,0,9.2-5.9,9.8-6.7l0.5-14.5c0-0.2,0.2-0.4,0.4-0.4c0.2,0,0.4,0.2,0.4,0.4l-0.5,14.6c0,0.1,0,0.1-0.1,0.2
				C193.3,128.7,188.4,135.5,183,135.5z"/>
		</g>
		<g>
			<path class="st1" d="M186.9,120.4c-4,2.4-8.6,3.5-11.8,2.8c-6.7-1.4-9.3-11-7.3-19.4S177.4,90.1,185,92
				c7.6,1.9,12.1,10.2,10,18.6c-0.3,1.1-0.7,2.2-1.3,3.2"/>
			<path class="st0" d="M177.1,123.9c-0.7,0-1.4-0.1-2.1-0.2c-2.3-0.5-4.3-1.9-5.7-4.2c-2.5-4-3.2-10-1.8-15.7
				c2.1-8.7,9.9-14.1,17.6-12.2c3.8,0.9,6.9,3.4,8.9,7c1.9,3.6,2.4,7.9,1.4,12.1c-0.3,1.1-0.7,2.3-1.3,3.3c-0.1,0.2-0.3,0.3-0.5,0.1
				c-0.2-0.1-0.3-0.3-0.1-0.5c0.6-1,1-2.1,1.3-3.1c1-4,0.5-8.1-1.3-11.5c-1.8-3.4-4.8-5.8-8.4-6.7c-7.3-1.8-14.6,3.3-16.7,11.6
				c-1.3,5.5-0.7,11.4,1.7,15.1c1.3,2.1,3.1,3.4,5.2,3.8c3.1,0.6,7.7-0.5,11.6-2.8c0.2-0.1,0.4-0.1,0.5,0.1c0.1,0.2,0.1,0.4-0.1,0.5
				C183.8,122.8,180.2,123.9,177.1,123.9z"/>
			<path class="st0" d="M189.6,107.3c0,0-1.4-1.5-1.3-3.3c0.1-1.9,1.3-3.4,1.3-3.4s-22.8,4.7-24.2-1.6c-3.3-14.9,13.6-13.2,24.9-9.2
				c13.7-6.2,18.2,19.2,3.4,24.1l1.3-6L189.6,107.3z"/>
			<path class="st0" d="M193.7,114.2c-0.1,0-0.2,0-0.3-0.1c-0.1-0.1-0.1-0.2-0.1-0.4l1.2-5.6l-5-0.6c-0.1,0-0.2-0.1-0.2-0.1
				c-0.1-0.1-1.5-1.6-1.4-3.6c0.1-1.1,0.5-2.1,0.8-2.8c-4.3,0.8-22.5,3.8-23.8-2.1c-1-4.4-0.3-7.7,2.1-9.8
				c4.7-4.2,15.1-2.7,23.2,0.2c4.2-1.8,7.1-0.7,8.8,0.6c3.3,2.5,4.9,7.8,4,13c-0.9,5.5-4.3,9.6-9.2,11.2
				C193.8,114.2,193.7,114.2,193.7,114.2z M189.8,106.9l5.3,0.6c0.1,0,0.2,0.1,0.3,0.2c0.1,0.1,0.1,0.2,0.1,0.3l-1.2,5.3
				c4.3-1.7,7.2-5.4,8.1-10.4c0.8-4.9-0.7-10-3.7-12.3c-2.2-1.7-5-1.9-8.1-0.5c-0.1,0-0.2,0-0.3,0c-7.6-2.7-18.1-4.4-22.6-0.4
				c-2.1,1.9-2.8,5-1.8,9.1c1.1,4.9,17.5,2.6,23.8,1.3c0.2,0,0.3,0,0.4,0.2c0.1,0.1,0.1,0.3,0,0.4c0,0-1.1,1.4-1.2,3.2
				C188.6,105.4,189.5,106.5,189.8,106.9z"/>
			<g>
				<path class="st1" d="M194.1,112.4c2.5,0,4.6-2,4.6-4.6c0-2.5-2-4.6-4.6-4.6c-2.5,0-4.6,2-4.6,4.6"/>
				<path class="st0" d="M194.1,112.8c-0.2,0-0.4-0.2-0.4-0.4s0.2-0.4,0.4-0.4c2.3,0,4.2-1.9,4.2-4.2c0-2.3-1.9-4.2-4.2-4.2
					c-2.3,0-4.2,1.9-4.2,4.2c0,0.2-0.2,0.4-0.4,0.4s-0.4-0.2-0.4-0.4c0-2.7,2.2-4.9,4.9-4.9s4.9,2.2,4.9,4.9
					C199.1,110.6,196.9,112.8,194.1,112.8z"/>
			</g>
		</g>
		<g>
			
				<ellipse transform="matrix(0.1337 -0.991 0.991 0.1337 46.7369 271.3059)" class="st0" cx="178.6" cy="108.9" rx="1.5" ry="1.1"/>
		</g>
		<g>
			<path class="st1" d="M175.3,106.5c-0.8,3.8-3,5.8-2.2,6.5c1.1,0.9,2.5,0.9,2.5,0.9"/>
			<path class="st0" d="M175.6,114.2c-0.3,0-1.6,0-2.7-1c-0.6-0.5-0.2-1.4,0.4-2.5c0.5-1,1.3-2.5,1.7-4.4c0-0.2,0.2-0.3,0.5-0.3
				c0.2,0,0.3,0.2,0.3,0.5c-0.4,2-1.2,3.5-1.7,4.5c-0.3,0.6-0.7,1.4-0.6,1.6c1,0.8,2.2,0.8,2.2,0.8c0.2,0,0.4,0.2,0.4,0.4
				C176,114.1,175.8,114.2,175.6,114.2C175.6,114.2,175.6,114.2,175.6,114.2z"/>
		</g>
		<g>
			<path class="st1" d="M177.7,106.3c0,0,1.7-0.3,2.6,1.1"/>
			<path class="st0" d="M180.3,107.8c-0.1,0-0.2-0.1-0.3-0.2c-0.8-1.1-2.1-0.9-2.2-0.9c-0.2,0-0.4-0.1-0.4-0.3
				c0-0.2,0.1-0.4,0.3-0.4c0.1,0,1.9-0.3,3,1.2c0.1,0.2,0.1,0.4-0.1,0.5C180.5,107.8,180.4,107.8,180.3,107.8z"/>
		</g>
		<g>
			<ellipse transform="matrix(0.1337 -0.991 0.991 0.1337 42.587 262.2316)" class="st0" cx="171.3" cy="106.8" rx="1.6" ry="1.2"/>
		</g>
		<g>
			<path class="st1" d="M170.4,104.3c0,0,1.7-0.3,2.6,1.1"/>
			<path class="st0" d="M173,105.7c-0.1,0-0.2-0.1-0.3-0.2c-0.8-1.1-2.1-0.9-2.2-0.9c-0.2,0-0.4-0.1-0.4-0.3c0-0.2,0.1-0.4,0.3-0.4
				c0.1,0,1.9-0.3,3,1.2c0.1,0.2,0.1,0.4-0.1,0.5C173.1,105.7,173,105.7,173,105.7z"/>
		</g>
		<g>
			<path class="st1" d="M180.7,115.6c0,0-1.2,3-3.9,2.6"/>
			<path class="st0" d="M177.3,118.7c-0.2,0-0.3,0-0.5,0c-0.2,0-0.4-0.2-0.3-0.4c0-0.2,0.2-0.4,0.4-0.3c2.4,0.3,3.4-2.3,3.4-2.4
				c0.1-0.2,0.3-0.3,0.5-0.2c0.2,0.1,0.3,0.3,0.2,0.5C180.7,116.8,179.4,118.7,177.3,118.7z"/>
		</g>
	</g>
	<g>
		<circle class="st8" cx="241.3" cy="82.7" r="27.6"/>
		<path class="st0" d="M241.3,110.7c-0.5,0-1,0-1.5,0c-15.4-0.8-27.3-14-26.5-29.4c0.4-7.5,3.6-14.3,9.2-19.4s12.7-7.6,20.2-7.2
			c15.4,0.8,27.3,14,26.5,29.4c-0.4,7.5-3.6,14.3-9.2,19.4C254.9,108.2,248.3,110.7,241.3,110.7z M241.3,55.5
			c-6.8,0-13.2,2.5-18.2,7c-5.4,4.9-8.6,11.6-8.9,18.8c-0.8,15,10.8,27.8,25.8,28.6c7.3,0.4,14.2-2.1,19.6-7
			c5.4-4.9,8.6-11.6,8.9-18.8c0.8-15-10.8-27.8-25.8-28.6C242.2,55.5,241.7,55.5,241.3,55.5z M213.7,81.3L213.7,81.3L213.7,81.3z"/>
		<circle class="st1" cx="241.3" cy="82.7" r="20.8"/>
		<path class="st0" d="M241.3,103.9c-0.4,0-0.7,0-1.1,0c-5.7-0.3-10.9-2.8-14.7-7c-3.8-4.2-5.7-9.6-5.4-15.3
			c0.3-5.7,2.8-10.9,7-14.7c4.2-3.8,9.6-5.7,15.3-5.4c5.7,0.3,10.9,2.8,14.7,7c3.8,4.2,5.7,9.6,5.4,15.3c-0.3,5.7-2.8,10.9-7,14.7
			C251.6,102,246.6,103.9,241.3,103.9z M241.3,62.3c-5.1,0-9.9,1.9-13.7,5.3c-4.1,3.7-6.4,8.7-6.7,14.1l0,0
			c-0.3,5.5,1.6,10.7,5.2,14.7c3.7,4.1,8.7,6.4,14.1,6.7c5.5,0.3,10.7-1.6,14.7-5.2c4.1-3.7,6.4-8.7,6.7-14.1
			c0.3-5.5-1.6-10.7-5.2-14.7c-3.7-4.1-8.7-6.4-14.1-6.7C242,62.3,241.6,62.3,241.3,62.3z M220.5,81.6L220.5,81.6L220.5,81.6z"/>
		<g>
			<circle class="st8" cx="241.3" cy="82.7" r="13.9"/>
			<path class="st0" d="M241.3,97c-0.2,0-0.5,0-0.7,0c-3.8-0.2-7.3-1.9-9.9-4.7c-2.6-2.8-3.9-6.5-3.7-10.3s1.9-7.3,4.7-9.9
				c2.8-2.6,6.5-3.9,10.3-3.7c7.9,0.4,14,7.1,13.6,15c-0.2,3.8-1.9,7.3-4.7,9.9C248.2,95.7,244.9,97,241.3,97z M241.3,69.2
				c-3.4,0-6.5,1.2-9,3.5c-2.7,2.4-4.3,5.7-4.4,9.3l0,0c-0.2,3.6,1,7.1,3.5,9.8c2.4,2.7,5.7,4.3,9.3,4.4c3.6,0.2,7.1-1,9.8-3.5
				c2.7-2.4,4.3-5.7,4.4-9.3c0.2-3.6-1-7.1-3.5-9.8s-5.7-4.3-9.3-4.4C241.7,69.2,241.5,69.2,241.3,69.2z M227.4,82L227.4,82
				L227.4,82z"/>
		</g>
		<g>
			<circle class="st1" cx="241.3" cy="82.7" r="7.4"/>
			<path class="st0" d="M241.3,90.4c-0.1,0-0.3,0-0.4,0c-2.1-0.1-4-1-5.4-2.5c-1.4-1.5-2.1-3.5-2-5.6c0.1-2.1,1-4,2.5-5.4
				c1.5-1.4,3.5-2.1,5.6-2c4.3,0.2,7.6,3.9,7.4,8.1C248.8,87.2,245.4,90.4,241.3,90.4z M241.3,75.7c-1.7,0-3.4,0.6-4.7,1.8
				c-1.4,1.2-2.2,3-2.3,4.8l0,0c-0.1,1.9,0.5,3.7,1.8,5c1.2,1.4,3,2.2,4.8,2.3c3.8,0.2,7.1-2.8,7.3-6.6c0.2-3.8-2.8-7.1-6.6-7.3
				C241.5,75.7,241.4,75.7,241.3,75.7z M233.9,82.3L233.9,82.3L233.9,82.3z"/>
		</g>
		<g>
			<path class="st0" d="M245.3,82.1l-2.5-2.6c-0.6-0.6-1.7-0.4-2,0.5l-0.9,3.3c-0.2,0.8,0.5,1.6,1.4,1.4l3.4-0.7
				C245.7,83.8,246,82.7,245.3,82.1z"/>
			<path class="st0" d="M241.1,85.2c-0.4,0-0.8-0.2-1.1-0.5c-0.4-0.4-0.5-0.9-0.4-1.5l0.9-3.3c0.1-0.5,0.6-1,1.1-1.1
				c0.5-0.1,1.1,0,1.5,0.4l2.5,2.6l0,0c0.4,0.4,0.5,1,0.4,1.5c-0.2,0.6-0.6,1-1.2,1.1l-3.4,0.7C241.3,85.2,241.2,85.2,241.1,85.2z
				 M242,79.5c-0.1,0-0.1,0-0.2,0c-0.3,0.1-0.5,0.3-0.6,0.6l-0.9,3.3c-0.1,0.3,0,0.5,0.2,0.7c0.2,0.2,0.5,0.3,0.7,0.2l3.4-0.7
				c0.3-0.1,0.5-0.3,0.6-0.5c0.1-0.3,0-0.6-0.2-0.8l-2.5-2.6C242.4,79.6,242.2,79.5,242,79.5z"/>
			<polygon class="st0" points="271.2,54.7 276.2,54.6 270.2,59.9 265.2,60.2 265.5,55.2 271.4,50 			"/>
			<path class="st0" d="M265.2,60.6c-0.1,0-0.2,0-0.3-0.1c-0.1-0.1-0.1-0.2-0.1-0.3l0.3-5c0-0.1,0.1-0.2,0.1-0.3l5.9-5.2
				c0.1-0.1,0.3-0.1,0.4-0.1s0.2,0.2,0.2,0.4l-0.1,4.3l4.5-0.1c0.2,0,0.3,0.1,0.4,0.2c0.1,0.1,0,0.3-0.1,0.4l-5.9,5.4
				c-0.1,0.1-0.2,0.1-0.2,0.1L265.2,60.6C265.2,60.6,265.2,60.6,265.2,60.6z M265.9,55.4l-0.3,4.4l4.5-0.2l5.1-4.6l-3.9,0.1
				c-0.1,0-0.2,0-0.3-0.1c-0.1-0.1-0.1-0.2-0.1-0.3l0.1-3.8L265.9,55.4z"/>
			<g>
				<line class="st3" x1="274.7" y1="51.2" x2="242.6" y2="82"/>
				<path class="st0" d="M242.6,82.4c-0.1,0-0.2,0-0.3-0.1c-0.1-0.2-0.1-0.4,0-0.5L274.4,51c0.2-0.1,0.4-0.1,0.5,0
					c0.1,0.2,0.1,0.4,0,0.5l-32.1,30.8C242.8,82.4,242.7,82.4,242.6,82.4z"/>
			</g>
		</g>
	</g>
	<g>
		
			<ellipse transform="matrix(0.3129 -0.9498 0.9498 0.3129 51.4111 341.3487)" class="st9" cx="261.6" cy="135.1" rx="13.4" ry="9.6"/>
		<path d="M259.7,148.6c-0.8,0-1.6-0.1-2.3-0.4c-5.3-1.7-7.6-9-5.2-16.2c1.1-3.5,3.2-6.4,5.8-8.3c2.6-1.9,5.5-2.5,8.1-1.7
			c2.6,0.8,4.5,3,5.5,6.1c1,3.1,0.9,6.6-0.3,10.1C269.1,144.5,264.3,148.6,259.7,148.6z M263.6,122.4c-1.7,0-3.5,0.6-5.2,1.9
			c-2.5,1.8-4.4,4.6-5.5,7.9c-2.2,6.8-0.1,13.7,4.7,15.3c4.8,1.6,10.6-2.7,12.9-9.5c1.1-3.3,1.2-6.8,0.3-9.7c-0.9-2.9-2.7-4.8-5-5.6
			C265,122.6,264.3,122.4,263.6,122.4z"/>
		
			<ellipse transform="matrix(0.3129 -0.9498 0.9498 0.3129 51.4111 341.3487)" class="st10" cx="261.6" cy="135.1" rx="9.6" ry="6.9"/>
		<path class="st0" d="M260,148.7c5.1,1.7,11-2.7,13.4-9.7c2.3-7,0.1-14.1-5-15.8l-2.6-0.8c5.1,1.7,7.3,8.7,5,15.8
			c-2.3,7-8.3,11.4-13.4,9.7L260,148.7z"/>
		<path d="M262.2,149.5c-0.8,0-1.6-0.1-2.3-0.4l0,0l-2.6-0.8c0,0,0,0,0,0l0,0c-0.2-0.1-0.3-0.3-0.2-0.5c0.1-0.2,0.3-0.3,0.5-0.2
			c4.8,1.6,10.6-2.7,12.9-9.5c1.1-3.3,1.2-6.8,0.3-9.7c-0.9-2.9-2.7-4.8-5-5.6l0,0c-0.2-0.1-0.3-0.3-0.2-0.5
			c0.1-0.2,0.3-0.3,0.5-0.2l2.6,0.8c2.6,0.8,4.5,3,5.5,6.1c1,3.1,0.9,6.6-0.3,10.1C271.7,145.3,266.9,149.5,262.2,149.5z
			 M260.8,148.5c4.7,1,10.1-3.1,12.2-9.7c1.1-3.3,1.2-6.8,0.3-9.7c-0.8-2.6-2.3-4.4-4.3-5.4c1.1,1.1,2,2.5,2.5,4.3
			c1,3.1,0.9,6.6-0.3,10.1C269.3,144,265.1,147.9,260.8,148.5z"/>
		<g>
			<path class="st1" d="M258.8,139.4c-0.1,0-0.1-0.1-0.1-0.2c0-0.1,0-0.2,0-0.2l0.3-0.8c-0.4-0.3-0.7-0.7-0.9-1.1
				c-0.2-0.4-0.3-0.7-0.3-1.1c0-0.4,0-0.7,0.1-1c0-0.1,0.1-0.1,0.1-0.1c0.1,0,0.1,0,0.2,0l0.8,0.4c0.1,0,0.1,0.1,0.1,0.1
				c0,0.1,0,0.1,0,0.2c0,0.2,0,0.3,0,0.5c0,0.2,0.1,0.4,0.3,0.6c0.1,0.2,0.4,0.4,0.7,0.5c0.5,0.3,0.9,0.4,1.2,0.3
				c0.3-0.1,0.6-0.3,0.7-0.6c0.1-0.2,0.1-0.5,0-0.7c-0.1-0.2-0.2-0.4-0.5-0.7c-0.2-0.2-0.5-0.5-0.9-0.8c-0.4-0.3-0.7-0.7-1-1
				c-0.2-0.3-0.4-0.6-0.4-1c0-0.3,0-0.7,0.2-1.1c0.2-0.5,0.6-0.9,1.1-1.2c0.5-0.3,1.1-0.4,1.8-0.3l0.3-0.8c0-0.1,0.1-0.1,0.2-0.2
				c0.1,0,0.1-0.1,0.2,0l0.7,0.1c0.1,0,0.1,0.1,0.2,0.1c0,0.1,0,0.1,0,0.2l-0.3,0.8c0.5,0.2,0.9,0.5,1.2,0.8
				c0.3,0.4,0.5,0.7,0.5,1.1c0.1,0.4,0.1,0.7-0.1,1.1c0,0.1-0.1,0.1-0.2,0.2c-0.1,0-0.2,0-0.2,0l-1.2-0.4c-0.1,0-0.1-0.1-0.2-0.1
				c0-0.1-0.1-0.1-0.1-0.2c0.1-0.3,0-0.5-0.2-0.8c-0.2-0.2-0.5-0.4-0.8-0.5c-0.4-0.1-0.7-0.1-1,0c-0.3,0.1-0.5,0.3-0.6,0.6
				c-0.1,0.2-0.1,0.4-0.1,0.6c0,0.2,0.2,0.4,0.4,0.6c0.2,0.2,0.5,0.4,0.9,0.7c0.6,0.4,1,0.8,1.3,1.2c0.3,0.4,0.6,0.8,0.6,1.2
				c0.1,0.4,0,0.9-0.2,1.4c-0.2,0.5-0.5,0.9-0.9,1.1c-0.4,0.2-0.8,0.4-1.3,0.3c-0.5,0-1-0.1-1.5-0.4l-0.3,0.8c0,0.1-0.1,0.1-0.2,0.2
				c-0.1,0-0.1,0-0.2,0L258.8,139.4z"/>
		</g>
	</g>
	<g>
		
			<ellipse transform="matrix(0.8944 -0.4473 0.4473 0.8944 -62.453 56.3528)" class="st9" cx="88.1" cy="160.4" rx="10.5" ry="14.6"/>
		<path d="M91.1,174.7c-1.7,0-3.4-0.5-5.2-1.4c-3.1-1.6-5.8-4.5-7.5-8l0,0c-3.7-7.4-2.3-15.6,3-18.3c5.4-2.7,12.7,1.1,16.4,8.5
			c3.7,7.4,2.3,15.6-3,18.3C93.7,174.4,92.4,174.7,91.1,174.7z M79.1,164.9c1.7,3.4,4.3,6.1,7.2,7.7c2.9,1.5,5.8,1.7,8.2,0.5
			c5-2.5,6.2-10.2,2.7-17.2c-3.5-7-10.4-10.7-15.4-8.2C76.8,150.2,75.6,157.9,79.1,164.9L79.1,164.9z"/>
		
			<ellipse transform="matrix(0.8944 -0.4473 0.4473 0.8944 -62.453 56.3528)" class="st10" cx="88.1" cy="160.4" rx="7.5" ry="10.5"/>
		<path class="st0" d="M92,174.8c-5.2,2.6-12.3-1.2-15.9-8.4c-3.6-7.2-2.3-15.2,2.9-17.7l2.6-1.3c-5.2,2.6-6.5,10.5-2.9,17.7
			c3.6,7.2,10.7,11,15.9,8.4L92,174.8z"/>
		<path d="M88.5,176c-4.7,0-9.8-3.6-12.7-9.4c-3.7-7.4-2.3-15.6,3-18.3l2.6-1.3c0.2-0.1,0.4,0,0.5,0.2c0.1,0.2,0,0.4-0.2,0.5
			c-5,2.5-6.2,10.2-2.7,17.2c1.7,3.4,4.3,6.1,7.2,7.7c2.9,1.5,5.8,1.7,8.2,0.5l0,0l0,0c0.2-0.1,0.4,0,0.5,0.2c0.1,0.2,0,0.4-0.2,0.5
			l-2.6,1.3l0,0C91,175.7,89.8,176,88.5,176z M78.6,149.3c-4.6,2.7-5.6,10.2-2.2,17c3.4,6.8,9.9,10.4,14.9,8.4
			c-1.7,0-3.6-0.4-5.4-1.4c-3.1-1.6-5.8-4.5-7.5-8C75.4,159.4,75.7,153,78.6,149.3z M92,174.8L92,174.8L92,174.8z"/>
		<g>
			<path class="st1" d="M91.1,165.4c-0.1,0-0.1,0.1-0.2,0c-0.1,0-0.1-0.1-0.2-0.2l-0.4-0.9c-0.5,0.3-1.1,0.4-1.6,0.4
				c-0.5,0-1-0.1-1.3-0.4c-0.4-0.2-0.7-0.6-0.9-1c0-0.1,0-0.2,0-0.2s0.1-0.1,0.1-0.2l1-0.6c0.1-0.1,0.2-0.1,0.3,0s0.1,0.1,0.2,0.1
				c0.1,0.1,0.3,0.2,0.5,0.3c0.2,0.1,0.4,0.1,0.7,0.1c0.3,0,0.6-0.1,0.9-0.3c0.5-0.3,0.8-0.6,0.9-0.9c0.1-0.3,0.1-0.7-0.1-1
				c-0.1-0.2-0.3-0.4-0.5-0.5c-0.2-0.1-0.5-0.1-0.8-0.1c-0.3,0-0.8,0.1-1.3,0.2c-0.6,0.1-1.2,0.2-1.7,0.2c-0.5,0-1-0.2-1.3-0.4
				c-0.4-0.3-0.7-0.6-1-1.2c-0.3-0.7-0.4-1.4-0.2-2.1c0.2-0.7,0.7-1.2,1.4-1.6l-0.4-0.9c0-0.1-0.1-0.2,0-0.2c0-0.1,0.1-0.1,0.2-0.2
				l0.7-0.2c0.1,0,0.2,0,0.2,0c0.1,0,0.1,0.1,0.2,0.2l0.4,0.9c0.5-0.1,1-0.1,1.5,0c0.4,0.1,0.8,0.3,1.1,0.5c0.3,0.2,0.5,0.5,0.7,0.8
				c0,0.1,0,0.1,0,0.2c0,0.1,0,0.1-0.1,0.1l-0.9,0.4c-0.1,0-0.1,0-0.2,0c-0.1,0-0.1-0.1-0.2-0.1c-0.2-0.2-0.4-0.4-0.7-0.5
				c-0.3-0.1-0.7,0-1.1,0.1c-0.4,0.2-0.7,0.4-0.9,0.7c-0.2,0.3-0.2,0.6,0,1c0.1,0.2,0.3,0.4,0.5,0.5c0.2,0.1,0.5,0.2,0.8,0.1
				c0.3,0,0.7,0,1.2-0.1c0.7-0.1,1.2-0.2,1.7-0.1c0.4,0,0.8,0.2,1.1,0.4c0.3,0.2,0.6,0.6,0.8,1c0.2,0.5,0.3,0.9,0.3,1.3
				c0,0.4-0.1,0.9-0.3,1.3c-0.2,0.4-0.5,0.8-1,1.2l0.4,0.9c0,0.1,0.1,0.2,0,0.3c0,0.1-0.1,0.2-0.1,0.2L91.1,165.4z"/>
		</g>
	</g>
	<g>
		<polygon class="st1" points="320.8,150.8 323.6,108.2 286.9,128.5 300.4,135.1 301.6,145 311.5,142.7 		"/>
		<path class="st0" d="M320.8,151.2c-0.1,0-0.2,0-0.3-0.1l-9.1-7.9l-9.7,2.2c-0.1,0-0.2,0-0.3-0.1c-0.1-0.1-0.1-0.2-0.2-0.3
			l-1.2-9.6l-13.3-6.6c-0.1-0.1-0.2-0.2-0.2-0.3c0-0.1,0.1-0.3,0.2-0.3l36.7-20.2c0.1-0.1,0.3-0.1,0.4,0c0.1,0.1,0.2,0.2,0.2,0.4
			l-2.8,42.6c0,0.1-0.1,0.3-0.2,0.3C320.9,151.2,320.8,151.2,320.8,151.2z M311.5,142.3c0.1,0,0.2,0,0.3,0.1l8.7,7.6l2.7-41.1
			l-35.4,19.5l12.8,6.3c0.1,0.1,0.2,0.2,0.2,0.3l1.2,9.4L311.5,142.3C311.5,142.3,311.5,142.3,311.5,142.3z"/>
	</g>
	<g>
		<polygon class="st0" points="311.5,142.7 323.6,108.2 300.4,135.1 301.6,145 		"/>
		<path class="st0" d="M301.6,145.4c-0.1,0-0.2,0-0.2-0.1c-0.1-0.1-0.1-0.2-0.2-0.3l-1.2-9.8c0-0.1,0-0.2,0.1-0.3l23.2-26.9
			c0.1-0.1,0.3-0.2,0.5-0.1c0.2,0.1,0.2,0.3,0.2,0.5l-12.1,34.5c0,0.1-0.1,0.2-0.3,0.2L301.6,145.4
			C301.7,145.4,301.6,145.4,301.6,145.4z M300.8,135.3l1.1,9.2l9.3-2.1l11.4-32.4L300.8,135.3z M311.5,142.7L311.5,142.7
			L311.5,142.7z"/>
	</g>
	<g>
		<polygon class="st1" points="71.6,210.7 88.1,256.1 148.4,237.8 136.7,207 		"/>
		<path class="st0" d="M88.1,256.5c-0.2,0-0.3-0.1-0.4-0.3l-16.5-45.4c0-0.1,0-0.2,0-0.3c0.1-0.1,0.2-0.2,0.3-0.2l65.1-3.7
			c0.2,0,0.3,0.1,0.4,0.2l11.7,30.8c0,0.1,0,0.2,0,0.3c0,0.1-0.1,0.2-0.2,0.2l-60.3,18.3C88.1,256.5,88.1,256.5,88.1,256.5z
			 M72.1,211l16.2,44.6l59.6-18l-11.4-30.2L72.1,211z"/>
		<polygon class="st2" points="84.7,216.3 92.6,215.2 101.2,242.2 93.8,244.6 		"/>
		<path class="st0" d="M93.8,245c-0.2,0-0.3-0.1-0.4-0.3l-9.1-28.3c0-0.1,0-0.2,0-0.3c0.1-0.1,0.2-0.2,0.3-0.2l7.9-1.1
			c0.2,0,0.4,0.1,0.4,0.3l8.7,27c0,0.1,0,0.2,0,0.3c0,0.1-0.1,0.2-0.2,0.2l-7.4,2.4C93.8,245,93.8,245,93.8,245z M85.2,216.6
			l8.8,27.5l6.7-2.2l-8.4-26.3L85.2,216.6z"/>
		<polygon class="st0" points="104.6,231 111.8,229.4 114.9,239 107.9,241.3 		"/>
		<path class="st0" d="M107.9,241.7c-0.1,0-0.1,0-0.2,0c-0.1,0-0.2-0.1-0.2-0.2l-3.3-10.3c0-0.1,0-0.2,0-0.3
			c0.1-0.1,0.1-0.2,0.3-0.2l7.2-1.6c0.2,0,0.4,0.1,0.4,0.3l3.1,9.6c0.1,0.2,0,0.4-0.2,0.5l-7,2.3C108,241.7,107.9,241.7,107.9,241.7
			z M105.1,231.3l3.1,9.6l6.3-2l-2.9-8.9L105.1,231.3z"/>
		<polygon class="st2" points="115.8,219.4 123.2,218.4 128.7,235.6 121.7,237.8 		"/>
		<path class="st0" d="M121.7,238.2c-0.1,0-0.1,0-0.2,0c-0.1,0-0.2-0.1-0.2-0.2l-5.9-18.4c0-0.1,0-0.2,0-0.3
			c0.1-0.1,0.2-0.2,0.3-0.2l7.4-1c0.2,0,0.4,0.1,0.4,0.3l5.5,17.2c0,0.1,0,0.2,0,0.3c0,0.1-0.1,0.2-0.2,0.2l-7,2.3
			C121.7,238.2,121.7,238.2,121.7,238.2z M116.3,219.8l5.6,17.6l6.3-2l-5.3-16.5L116.3,219.8z"/>
		<g>
			<polygon class="st0" points="130.2,224.9 136.6,223.6 140.1,232.4 133.5,234.5 			"/>
			<path class="st0" d="M133.5,234.9c-0.2,0-0.3-0.1-0.4-0.3l-3.3-9.6c0-0.1,0-0.2,0-0.3c0.1-0.1,0.2-0.2,0.3-0.2l6.4-1.3
				c0.2,0,0.4,0.1,0.4,0.2l3.4,8.8c0,0.1,0,0.2,0,0.3s-0.1,0.2-0.2,0.2l-6.6,2.1C133.5,234.9,133.5,234.9,133.5,234.9z M130.7,225.2
				l3,8.9l5.8-1.9l-3.2-8.1L130.7,225.2z"/>
		</g>
		<g>
			<path class="st0" d="M105.5,223.9c-0.2,0-0.5-0.1-0.6-0.2l-25.3-22.8c-0.4-0.4-0.4-1-0.1-1.4c0.4-0.4,1-0.4,1.4-0.1l24.4,21.9
				l9.7-19.6c0.1-0.3,0.4-0.5,0.7-0.5c0.3-0.1,0.6,0,0.8,0.2l16.3,13.8c0.4,0.3,0.5,1,0.1,1.4c-0.3,0.4-1,0.5-1.4,0.1l-15.4-13
				l-9.8,19.6c-0.1,0.3-0.4,0.5-0.7,0.5C105.6,223.9,105.5,223.9,105.5,223.9z"/>
		</g>
		<g>
			<path class="st0" d="M86.3,200.7l-5.8,5.3c-1,0.9-2.6,0.4-2.9-0.8l-2.5-9c-0.4-1.5,1.1-2.8,2.5-2.1l8.3,3.7
				C87,198.3,87.3,199.8,86.3,200.7z"/>
		</g>
	</g>
	<g>
		<circle class="st11" cx="268.8" cy="220.3" r="15.4"/>
		<path class="st0" d="M268.8,236c-8.7,0-15.8-7.1-15.8-15.8c0-8.7,7.1-15.8,15.8-15.8c8.7,0,15.8,7.1,15.8,15.8
			C284.6,229,277.5,236,268.8,236z M268.8,205.3c-8.3,0-15,6.7-15,15s6.7,15,15,15s15-6.7,15-15C283.9,212,277.1,205.3,268.8,205.3z
			"/>
	</g>
	<g>
		<path class="st1" d="M273.9,221.6l-5.2,4c-1.3,1-3.1,0.1-3.3-1.6l-0.6-7.1c-0.1-1.7,1.5-2.9,3-2.1l5.7,3.1
			C275,218.6,275.1,220.7,273.9,221.6z"/>
		<path class="st0" d="M267.5,226.4c-0.3,0-0.6-0.1-1-0.2c-0.9-0.4-1.4-1.2-1.5-2.2l-0.6-7.1c-0.1-1,0.4-1.9,1.1-2.4
			c0.7-0.5,1.6-0.5,2.4-0.1l5.7,3.1c0.8,0.4,1.3,1.2,1.3,2.1c0.1,0.9-0.3,1.8-1,2.3l-5.2,4C268.5,226.2,268,226.4,267.5,226.4z
			 M266.9,214.9c-0.3,0-0.6,0.1-0.8,0.3c-0.5,0.4-0.9,1-0.8,1.7l0.6,7.1c0.1,0.7,0.5,1.3,1.1,1.6c0.5,0.2,1.1,0.2,1.6-0.2l5.2-4l0,0
			c0.5-0.4,0.7-1,0.7-1.6c-0.1-0.6-0.4-1.2-0.9-1.5l-5.7-3.1C267.4,214.9,267.2,214.9,266.9,214.9z"/>
	</g>
</g>
</svg>
