<?xml version="1.0" encoding="utf-8"?>
<!-- Generator: Adobe Illustrator 28.0.0, SVG Export Plug-In . SVG Version: 6.00 Build 0)  -->
<svg version="1.1" id="SvgjsSvg3256" xmlns:svgjs="http://svgjs.com/svgjs"
	 xmlns="http://www.w3.org/2000/svg" xmlns:xlink="http://www.w3.org/1999/xlink" x="0px" y="0px" viewBox="0 0 360 360"
	 style="enable-background:new 0 0 360 360;" xml:space="preserve">
<style type="text/css">
	.st0{fill:#040514;stroke:#040514;stroke-width:1.035;stroke-linecap:round;stroke-linejoin:round;stroke-miterlimit:3.6;}
	.st1{fill:#FFFFFF;stroke:#040514;stroke-width:1.008;stroke-linecap:round;stroke-linejoin:round;stroke-miterlimit:3.6;}
	.st2{fill:none;stroke:#040514;stroke-width:1.008;stroke-linecap:round;stroke-linejoin:round;stroke-miterlimit:3.6;}
	.st3{fill:none;stroke:#040514;stroke-width:1.323;stroke-linecap:round;stroke-linejoin:round;stroke-miterlimit:3.6;}
	.st4{fill:#28E87E;stroke:#040514;stroke-width:1.008;stroke-linecap:round;stroke-linejoin:round;stroke-miterlimit:3.6;}
	.st5{fill:none;stroke:#FFFFFF;stroke-width:1.368;stroke-linecap:round;stroke-linejoin:round;stroke-miterlimit:3.6;}
	.st6{fill:#040514;stroke:#040514;stroke-width:1.008;stroke-linecap:round;stroke-linejoin:round;stroke-miterlimit:3.6;}
	.st7{fill:#FF8736;stroke:#040514;stroke-width:1.008;stroke-linecap:round;stroke-linejoin:round;stroke-miterlimit:3.6;}
	.st8{fill:none;stroke:#FFFFFF;stroke-width:1.782;stroke-linecap:round;stroke-miterlimit:9;}
	.st9{fill:none;stroke:#28E87E;stroke-width:2.376;stroke-linecap:round;stroke-linejoin:round;stroke-miterlimit:3.6;}
	.st10{fill:none;stroke:#FF8736;stroke-width:2.376;stroke-linecap:round;stroke-linejoin:round;stroke-miterlimit:3.6;}
	.st11{fill:#FFC840;stroke:#040514;stroke-width:1.008;stroke-linecap:round;stroke-linejoin:round;stroke-miterlimit:3.6;}
	.st12{fill:#61C3FF;stroke:#040514;stroke-width:1.008;stroke-linecap:round;stroke-linejoin:round;stroke-miterlimit:3.6;}
	.st13{fill:none;stroke:#FFFFFF;stroke-width:1.035;stroke-linecap:round;stroke-linejoin:round;stroke-miterlimit:3.6;}
</style>
<g id="SvgjsG3258">
	<polygon class="st0" points="309.8,220.7 301.9,218.6 299,211 306.9,213 	"/>
	<polygon class="st1" points="309.8,220.7 303.8,227.4 295.8,225.3 301.9,218.6 	"/>
	<polygon class="st1" points="299,211 292.9,217.7 295.9,225.3 301.9,218.6 	"/>
	<polygon class="st0" points="162.6,62.9 156.2,68.1 148.3,66 154.7,60.8 	"/>
	<polygon class="st1" points="162.6,62.9 164.5,71.7 158.1,76.9 156.2,68.1 	"/>
	<polygon class="st1" points="148.3,66 150.2,74.8 158.1,76.9 156.3,68.1 	"/>
	<line class="st2" x1="54.9" y1="171" x2="62.4" y2="178.6"/>
	<line class="st2" x1="62.4" y1="171" x2="54.9" y2="178.6"/>
	<line class="st3" x1="148.3" y1="279.6" x2="146.1" y2="279.6"/>
	<line class="st3" x1="140.9" y1="279.6" x2="138.6" y2="279.6"/>
	<line class="st3" x1="143.5" y1="284.4" x2="143.5" y2="282.1"/>
	<line class="st3" x1="143.5" y1="277" x2="143.5" y2="274.7"/>
	<path class="st2" d="M289.2,141.7c-2.2,0.7-3.5,3.1-2.8,5.3c0.7,2.2,3.1,3.5,5.3,2.8c2.2-0.7,3.5-3.1,2.8-5.3"/>
	<polyline class="st2" points="272,85.4 272,120.1 257,124.6 	"/>
	<path class="st2" d="M262.6,89.9c-6.1-3.1-10.4-9.1-11.2-16.3"/>
	<path class="st4" d="M287.8,69.8c0.9,8.7-5.4,16.5-14.1,17.4c-8.7,0.9-16.5-5.4-17.4-14.1c-0.9-8.7,5.4-16.5,14.1-17.5
		C279.1,54.7,286.9,61,287.8,69.8L287.8,69.8z"/>
	<polyline class="st5" points="265.3,72 269.4,76.1 278.8,66.7 	"/>
	<path class="st6" d="M252,128.4V245c0,2.4-1.5,4.5-3.7,5.3l-5.9,2.2l-5-5.5l-135.8-6.3V120.4l-3.3-1.5l5.4-5.6
		c1.3-1.4,3.2-2.2,5.2-2.1l132.9,6.4C247.5,118.1,252,122.8,252,128.4L252,128.4z"/>
	<path class="st7" d="M246.6,130.2c0-3.6-2.8-6.6-6.4-6.7l-136.9-6.4c-3.9-0.2-7.1,2.9-7.1,6.7v10l150.4,7L246.6,130.2L246.6,130.2z
		"/>
	<path class="st1" d="M96.2,133.9v106c0,3.6,2.8,6.6,6.4,6.7l136.9,6.4c3.9,0.2,7.1-2.9,7.1-6.7V140.9L96.2,133.9L96.2,133.9z
		 M114.4,126.4c0,1.6-1.3,2.7-2.8,2.6s-2.8-1.5-2.8-3c0-1.6,1.3-2.7,2.8-2.6S114.4,124.8,114.4,126.4z M136.7,128
		c0,1.6-1.3,2.7-2.8,2.6c-1.6-0.1-2.8-1.5-2.8-3c0-1.6,1.3-2.7,2.8-2.6S136.7,126.4,136.7,128z M125.5,127.2c0,1.6-1.3,2.7-2.8,2.6
		c-1.6-0.1-2.8-1.5-2.8-3c0-1.6,1.3-2.7,2.8-2.6C124.3,124.3,125.5,125.7,125.5,127.2z"/>
	<line class="st8" x1="177.7" y1="129.9" x2="231.5" y2="132.1"/>
	<g>
		<line class="st9" x1="133.9" y1="146.7" x2="105.2" y2="145.4"/>
		<line class="st10" x1="118.7" y1="153.2" x2="105.2" y2="152.6"/>
	</g>
	<g>
		<path class="st6" d="M95.8,57.6v28.6c0,3.3-2.7,5.8-5.9,5.7l-30.3-1.4c-3.3-0.2-5.9-2.9-5.9-6.2V55.6c0-3.3,2.7-5.8,5.9-5.7
			l30.3,1.4C93.2,51.5,95.8,54.3,95.8,57.6z"/>
		<polygon class="st6" points="94.3,90.2 91,93.7 52.2,54.6 55.4,51.5 		"/>
		<path class="st11" d="M92.4,61v28.6c0,3.3-2.7,5.8-5.9,5.7l-30.3-1.4c-3.3-0.2-5.9-2.9-5.9-6.2V59c0-3.3,2.7-5.8,5.9-5.7l30.3,1.4
			C89.7,54.9,92.4,57.7,92.4,61z"/>
	</g>
	<polyline class="st2" points="70,94.5 70,126.2 90.7,139.1 	"/>
	<path class="st6" d="M235.1,174.5v35.6c0,3.1-2.6,5.5-5.6,5.4l-109.3-5.1c-2.9-0.1-5.1-2.5-5.1-5.4v-35.6c0-3.1,2.6-5.5,5.6-5.4
		l109.3,5.1C232.9,169.3,235.1,171.6,235.1,174.5L235.1,174.5z"/>
	<polygon class="st6" points="233.5,214 229.7,217.8 112.7,169.5 116.5,165.7 	"/>
	<line class="st2" x1="124.1" y1="227.2" x2="110.9" y2="226.6"/>
	<line class="st2" x1="231.5" y1="232.2" x2="131.7" y2="227.5"/>
	<line class="st2" x1="185.8" y1="239.4" x2="131.7" y2="236.7"/>
	<line class="st2" x1="204.1" y1="240.3" x2="191" y2="239.6"/>
	<path class="st1" d="M231.5,178.1v35.6c0,3.1-2.6,5.5-5.6,5.4l-109.3-5.1c-2.9-0.1-5.1-2.5-5.1-5.4v-35.6c0-3.1,2.6-5.5,5.6-5.4
		l109.3,5.1C229.2,172.9,231.5,175.3,231.5,178.1L231.5,178.1z"/>
	<path class="st7" d="M146.3,169l-29.3-1.4c-3.1-0.1-5.6,2.3-5.6,5.4v35.6c0,2.9,2.3,5.3,5.1,5.4l29.8,1.4L146.3,169L146.3,169z"/>
	<g>
		<circle class="st8" cx="128" cy="189.6" r="7.7"/>
		<line class="st8" x1="133.5" y1="195.1" x2="137.3" y2="198.9"/>
	</g>
	<g>
		<path d="M157.1,202.9c-0.3-0.2-0.5-0.5-0.6-0.9l-3.9-11.8c-0.1-0.2-0.1-0.3-0.1-0.5c0-0.4,0.1-0.6,0.4-0.9
			c0.2-0.2,0.5-0.3,0.9-0.3c0.3,0,0.5,0.1,0.7,0.2c0.2,0.1,0.4,0.3,0.4,0.6l3.2,10.9l3.2-10.3c0.1-0.3,0.3-0.5,0.5-0.7
			c0.2-0.2,0.5-0.3,0.8-0.2c0.3,0,0.6,0.1,0.8,0.3s0.4,0.4,0.5,0.7l3.2,10.6l3.2-10.5c0.1-0.2,0.2-0.4,0.4-0.5
			c0.2-0.1,0.4-0.2,0.7-0.2c0.4,0,0.6,0.2,0.9,0.4c0.2,0.3,0.4,0.6,0.4,0.9c0,0.1,0,0.3-0.1,0.5l-3.9,11.3c-0.1,0.3-0.3,0.6-0.6,0.8
			c-0.3,0.2-0.6,0.3-1,0.3s-0.7-0.2-1-0.4c-0.3-0.2-0.5-0.5-0.6-0.9l-2.9-9.3l-2.9,9c-0.1,0.3-0.3,0.6-0.6,0.8
			c-0.3,0.2-0.6,0.3-1,0.3S157.4,203.1,157.1,202.9L157.1,202.9z M178.8,204c-0.3-0.2-0.5-0.5-0.6-0.9l-3.9-11.8
			c-0.1-0.2-0.1-0.3-0.1-0.5c0-0.4,0.1-0.6,0.4-0.9c0.2-0.2,0.5-0.3,0.9-0.3c0.3,0,0.5,0.1,0.7,0.2c0.2,0.2,0.4,0.3,0.4,0.6
			l3.2,10.9l3.2-10.3c0.1-0.3,0.3-0.5,0.5-0.7c0.2-0.2,0.5-0.3,0.8-0.2c0.3,0,0.6,0.1,0.8,0.3s0.4,0.4,0.5,0.7l3.2,10.6l3.2-10.5
			c0.1-0.2,0.2-0.4,0.4-0.5c0.2-0.1,0.4-0.2,0.7-0.2c0.4,0,0.6,0.2,0.9,0.4c0.2,0.3,0.4,0.6,0.4,0.9c0,0.1,0,0.3-0.1,0.5l-3.9,11.3
			c-0.1,0.3-0.3,0.6-0.6,0.8c-0.3,0.2-0.6,0.3-1,0.3s-0.7-0.2-1-0.4c-0.3-0.2-0.5-0.5-0.6-0.9l-2.9-9.3l-2.9,9
			c-0.1,0.3-0.3,0.6-0.6,0.8c-0.3,0.2-0.6,0.3-1,0.3S179.1,204.3,178.8,204L178.8,204z M200.6,205.2c-0.3-0.2-0.5-0.5-0.6-0.9
			l-3.9-11.8c-0.1-0.2-0.1-0.3-0.1-0.5c0-0.4,0.1-0.6,0.4-0.9c0.2-0.2,0.5-0.3,0.9-0.3c0.3,0,0.5,0.1,0.7,0.2
			c0.2,0.2,0.4,0.3,0.4,0.6l3.2,10.9l3.2-10.3c0.1-0.3,0.3-0.5,0.5-0.7c0.2-0.2,0.5-0.3,0.8-0.2c0.3,0,0.6,0.1,0.8,0.3
			s0.4,0.4,0.5,0.7l3.2,10.6l3.2-10.5c0.1-0.2,0.2-0.4,0.4-0.5c0.2-0.1,0.4-0.2,0.7-0.2c0.4,0,0.6,0.2,0.9,0.4
			c0.2,0.3,0.4,0.6,0.4,0.9c0,0.1,0,0.3-0.1,0.5l-3.9,11.3c-0.1,0.3-0.3,0.6-0.6,0.8c-0.3,0.2-0.6,0.3-1,0.3s-0.7-0.2-1-0.4
			s-0.5-0.5-0.6-0.9l-2.9-9.3l-2.9,9c-0.1,0.3-0.3,0.6-0.6,0.8c-0.3,0.2-0.6,0.3-1,0.3S200.9,205.5,200.6,205.2L200.6,205.2z"/>
	</g>
	<g>
		<line class="st8" x1="78.4" y1="81.4" x2="56.1" y2="80.3"/>
		<line class="st8" x1="86.5" y1="75.1" x2="56.1" y2="73.6"/>
		<line class="st8" x1="86.5" y1="68.4" x2="56.1" y2="66.9"/>
	</g>
	<g>
		<path class="st6" d="M226,291.8c0.4,1.9,1.1,3.7,2.1,5.3l-2.8,4l3.8,4l4.1-2.6c1.6,1.1,3.3,1.9,5.2,2.4l0.9,4.9l5.4,0.3l1-4.8
			c1.9-0.3,3.7-1,5.2-1.9l4.1,2.9l3.8-3.6l-2.7-4.2c1-1.5,1.8-3.3,2.2-5.1l4.8-0.7l0-5.4l-4.8-1.2c-0.4-1.9-1.1-3.7-2.1-5.3l2.8-4
			l-3.8-4l-4.1,2.6c-1.6-1.1-3.3-1.9-5.2-2.4l-0.9-4.9l-5.4-0.3l-1,4.8c-1.9,0.3-3.7,1-5.2,1.9l-4.1-2.9l-3.8,3.6l2.7,4.2
			c-1,1.5-1.8,3.3-2.2,5.1l-4.8,0.7l0,5.4L226,291.8L226,291.8z M233,288.5c0-5.1,4.2-9,9.3-8.8s9.2,4.5,9.2,9.6
			c0,5.1-4.2,9-9.3,8.8S233,293.6,233,288.5z"/>
		<path class="st1" d="M223.4,291.7c0.4,1.9,1.1,3.7,2.1,5.3l-2.8,4l3.8,4l4.1-2.6c1.6,1.1,3.3,1.9,5.2,2.4l0.9,4.9l5.4,0.3l1-4.8
			c1.9-0.3,3.7-1,5.2-1.9l4.1,2.9l3.8-3.6l-2.7-4.2c1-1.5,1.8-3.3,2.2-5.1l4.8-0.7l0-5.4l-4.8-1.2c-0.4-1.9-1.1-3.7-2.1-5.3l2.8-4
			l-3.8-4l-4.1,2.6c-1.6-1.1-3.3-1.9-5.2-2.4l-0.9-4.9l-5.4-0.3l-1,4.8c-1.9,0.3-3.7,1-5.2,1.9l-4.1-2.9l-3.8,3.6l2.7,4.2
			c-1,1.5-1.8,3.3-2.2,5.1l-4.8,0.7l0,5.4L223.4,291.7L223.4,291.7z M230.4,288.4c0-5.1,4.2-9,9.3-8.8s9.2,4.5,9.2,9.6
			s-4.2,9-9.3,8.8S230.3,293.5,230.4,288.4L230.4,288.4z"/>
	</g>
	<g>
		<path class="st6" d="M108.7,245.4v29.7c0,1-0.4,2-1,2.7h0l-0.3,0.3l-3.3,3.3l-2.8-2.4l-35.7-1.7c-2.1-0.1-3.8-1.8-3.8-4v-29.7
			c0-1,0.3-1.9,0.9-2.6l0.5-0.5c0.8-0.7,1.8-1.1,2.9-1l38.8,1.8C107,241.5,108.7,243.2,108.7,245.4L108.7,245.4z"/>
		<path class="st6" d="M62.6,241.2c-0.6,0.7-0.9,1.6-0.9,2.6v2.3l-2.1-1.8L62.6,241.2z"/>
		<path class="st12" d="M58,277.3v-29.7c0-2.4,2-4.3,4.4-4.2l38.8,1.8c2.1,0.1,3.8,1.8,3.8,4v29.7c0,2.4-2,4.3-4.4,4.2l-38.8-1.8
			C59.6,281.2,58,279.5,58,277.3z"/>
		<line class="st13" x1="61.7" y1="249.3" x2="71.1" y2="249.9"/>
		<line class="st13" x1="61.7" y1="252.9" x2="66.7" y2="253.2"/>
		
			<ellipse transform="matrix(0.7156 -0.6985 0.6985 0.7156 -160.5198 132.3259)" class="st13" cx="82.2" cy="263.3" rx="12.5" ry="13.1"/>
		
			<ellipse transform="matrix(1 -9.424639e-03 9.424639e-03 1 -2.4775 0.7866)" class="st13" cx="82.2" cy="263.3" rx="5.2" ry="12.8"/>
		<line class="st13" x1="93.4" y1="270.2" x2="71.1" y2="269.1"/>
		<line class="st13" x1="69.4" y1="262.6" x2="95.1" y2="263.9"/>
		<line class="st13" x1="93.4" y1="257.4" x2="71.1" y2="256.3"/>
	</g>
</g>
</svg>
