<?xml version="1.0" encoding="utf-8"?>
<!-- Generator: Adobe Illustrator 28.0.0, SVG Export Plug-In . SVG Version: 6.00 Build 0)  -->
<svg version="1.1" id="SvgjsSvg1291" xmlns:svgjs="http://svgjs.com/svgjs"
	 xmlns="http://www.w3.org/2000/svg" xmlns:xlink="http://www.w3.org/1999/xlink" x="0px" y="0px" viewBox="0 0 360 360"
	 style="enable-background:new 0 0 360 360;" xml:space="preserve">
<style type="text/css">
	
		.st0{opacity:0.1;clip-path:url(#SVGID_00000124858988247819707490000001244161147976257977_);fill:#1A6AFD;stroke:#482FF7;stroke-width:1.800000e-02;stroke-linecap:round;stroke-linejoin:round;stroke-miterlimit:10;enable-background:new    ;}
	.st1{clip-path:url(#SVGID_00000160154519327343591290000002146345198523994276_);}
	.st2{fill:#46C3DB;}
	.st3{clip-path:url(#SVGID_00000093862720442283758550000014786045157501795211_);fill:#0F8BA3;}
	.st4{fill:none;stroke:#482FF7;stroke-width:0.3122;stroke-linecap:round;stroke-linejoin:round;stroke-miterlimit:10;}
	.st5{fill:#0F8BA3;}
	.st6{fill:none;stroke:#482FF7;stroke-width:0.3122;stroke-miterlimit:10;}
	.st7{clip-path:url(#SVGID_00000057829741920885039160000004683363065103822270_);fill:#0F8BA3;}
	.st8{fill:#485265;stroke:#482FF7;stroke-width:0.3122;stroke-linecap:round;stroke-linejoin:round;stroke-miterlimit:10;}
	.st9{fill:#F3F3F3;}
	.st10{clip-path:url(#SVGID_00000008147129503098978840000017128281614261712046_);fill:#F3F3F3;}
	.st11{fill:#1B6BFD;stroke:#482FF7;stroke-width:0.3122;stroke-linecap:round;stroke-linejoin:round;stroke-miterlimit:10;}
	.st12{fill:#FFFFFF;stroke:#482FF7;stroke-width:0.3122;stroke-linecap:round;stroke-linejoin:round;stroke-miterlimit:10;}
	.st13{fill:#1A6AFD;stroke:#482FF7;stroke-width:0.3122;stroke-linecap:round;stroke-linejoin:round;stroke-miterlimit:10;}
	.st14{fill:#3971FF;}
	.st15{clip-path:url(#SVGID_00000152227802027159338770000004595790809551978128_);fill:#2D6CDF;}
	.st16{fill:#FF6699;}
	.st17{clip-path:url(#SVGID_00000059286663285957021990000004413845413058496689_);fill:#FF6699;}
	.st18{clip-path:url(#SVGID_00000014636226306438230670000017427559902220815509_);fill:#FF6699;}
	.st19{fill:#E4E133;}
	.st20{clip-path:url(#SVGID_00000047760410882667598730000017407487365614085532_);fill:#C1BF1F;}
</style>
<g id="SvgjsG1293">
	<g>
		<defs>
			<rect id="SVGID_1_" y="45" width="360" height="270"/>
		</defs>
		<clipPath id="SVGID_00000097462250005785260670000008054430617469573292_">
			<use xlink:href="#SVGID_1_"  style="overflow:visible;"/>
		</clipPath>
		
			<path style="opacity:0.1;clip-path:url(#SVGID_00000097462250005785260670000008054430617469573292_);fill:#1A6AFD;stroke:#482FF7;stroke-width:1.800000e-02;stroke-linecap:round;stroke-linejoin:round;stroke-miterlimit:10;enable-background:new    ;" d="
			M93.9,218.1c8.9,4.8,20.3,7.7,32.9,8.3c0,0,0,0.1,0,0.1c3.9,29.7,46.4,48.6,94.9,42.2c46.3-6,81.3-32.8,81.2-60.9
			c19.6-9.2,31.8-24.1,29.9-39.2c-1.2-9.6-8-17.6-18.2-23.2c5.3-8.2,7.8-17.1,6.6-26c-3.9-29.7-46.4-48.6-94.9-42.2
			c-30.8,4-56.6,17.2-70.4,33.9c-11.9-1.8-24.9-2-38.4-0.3c-48.6,6.3-84.8,35.5-81,65.1C39.3,197.6,62.7,213.5,93.9,218.1z"/>
	</g>
	<g>
		<defs>
			<rect id="SVGID_00000004546427192189844930000015784911581335453349_" y="45" width="360" height="270"/>
		</defs>
		<clipPath id="SVGID_00000060711237505734338750000009443193177952156346_">
			<use xlink:href="#SVGID_00000004546427192189844930000015784911581335453349_"  style="overflow:visible;"/>
		</clipPath>
		<g style="clip-path:url(#SVGID_00000060711237505734338750000009443193177952156346_);">
			<g>
				<path id="c" class="st2" d="M180.5,225.3c40.9-4.3,94.1-48,53-61.1c0,0,53.2-18,12.6-36.9c0,0,34.3-27.4-5.9-28.7
					c0,0,15.7-33.2-1.4-36.8c-18.5-3.8-23,29.4-23,29.4s-32.1-12.2-22.1,22c0,0-34.5-6.6-18,30.4c0,0-48.7-0.5-15.4,54.5
					C177.6,226.9,180.5,225.3,180.5,225.3z"/>
			</g>
			<g>
				<defs>
					<path id="SVGID_00000122679701927406441390000007638770098027684252_" d="M180.5,225.3c40.9-4.3,94.1-48,53-61.1
						c0,0,53.2-18,12.6-36.9c0,0,34.3-27.4-5.9-28.7c0,0,15.7-33.2-1.4-36.8c-18.5-3.8-23,29.4-23,29.4s-32.1-12.2-22.1,22
						c0,0-34.5-6.6-18,30.4c0,0-48.7-0.5-15.4,54.5C177.6,226.9,180.5,225.3,180.5,225.3z"/>
				</defs>
				<clipPath id="SVGID_00000144311015908704457370000004029832456245255086_">
					<use xlink:href="#SVGID_00000122679701927406441390000007638770098027684252_"  style="overflow:visible;"/>
				</clipPath>
				<path style="clip-path:url(#SVGID_00000144311015908704457370000004029832456245255086_);fill:#0F8BA3;" d="M88.5,1.8
					c55.1-32.6,88.8-7.4,53.7,39.9s25.4,1.1,43.5-5.8c0,0-72.7,52.6,0.2,35.9s-16.3,13.9,14.1,44.1S96.1,133.6,90.5,132.7
					c-5.6-0.9-4.7-114-4.7-114 M178.4,231.4c35.1-72.3,88.7-45.9,71.7,10.4c-17.1,56.4,24.3-7.5,39-20.2c0,0-50.7,74.1,12.2,33.7
					s-10.7,18.6,28.2,36.7c38.8,18.2-91.8,51.8-97.4,52.9c-5.6,1-42.9-105.7-42.9-105.7"/>
			</g>
			<g>
				<path id="c_00000177484360914826154130000005263754960127611576_" class="st4" d="M180.5,225.3c40.9-4.3,94.1-48,53-61.1
					c0,0,53.2-18,12.6-36.9c0,0,34.3-27.4-5.9-28.7c0,0,15.7-33.2-1.4-36.8c-18.5-3.8-23,29.4-23,29.4s-32.1-12.2-22.1,22
					c0,0-34.5-6.6-18,30.4c0,0-48.7-0.5-15.4,54.5C177.6,226.9,180.5,225.3,180.5,225.3z"/>
			</g>
			<g>
				<path class="st5" d="M231,76.7c-0.4,9.9-44.7,141.7-50.5,148.6l0,0C180.5,225.3,226.1,95.3,231,76.7z M199.7,97.4
					c6.7,14.2,11.6,18.4,11.6,18.4L199.7,97.4z M246.4,106.7c-13.9,7.4-17.8,12.4-17.8,12.4L246.4,106.7z M178.4,122
					c15.9,18.4,24.6,22.9,24.6,22.9L178.4,122z M165.3,159.1c15.9,18.4,24.6,22.9,24.6,22.9L165.3,159.1z M219.8,148.8l29.9-8.1
					C227.6,143.7,219.8,148.8,219.8,148.8z M205.1,183.8l29.9-8.1C212.9,178.7,205.1,183.8,205.1,183.8z"/>
			</g>
			<path class="st6" d="M175.5,188.2c0.6,1.2,1.6,2.2,2.8,2.8 M214.4,165.3c2.5-1.1,5-2.2,7.5-3.3 M212,100c0.6,1.2,0.9,2.5,0.9,3.8
				"/>
			<g>
				<g>
					<path id="e" class="st2" d="M113.5,258.2c13.4-18.8,14.7-57.6-6.1-45c0,0,12.2-29.1-10.8-19c0,0,1.2-24.6-14.3-8.2
						c0,0-8.1-19-16-13c-8.5,6.4,3.9,20.6,3.9,20.6s-17,9,1.1,17.5c0,0-15.6,12.1,6.1,18.9c0,0-18.3,20.3,17.2,26.7
						C113.1,260,113.5,258.2,113.5,258.2z"/>
				</g>
				<g>
					<defs>
						<path id="SVGID_00000181071570035340855440000002490143429174259611_" d="M113.5,258.2c13.4-18.8,14.7-57.6-6.1-45
							c0,0,12.2-29.1-10.8-19c0,0,1.2-24.6-14.3-8.2c0,0-8.1-19-16-13c-8.5,6.4,3.9,20.6,3.9,20.6s-17,9,1.1,17.5
							c0,0-15.6,12.1,6.1,18.9c0,0-18.3,20.3,17.2,26.7C113.1,260,113.5,258.2,113.5,258.2z"/>
					</defs>
					<clipPath id="SVGID_00000111904321442260437990000013641022725307308980_">
						<use xlink:href="#SVGID_00000181071570035340855440000002490143429174259611_"  style="overflow:visible;"/>
					</clipPath>
					<path style="clip-path:url(#SVGID_00000111904321442260437990000013641022725307308980_);fill:#0F8BA3;" d="M-14.8,214.1
						c6.7-35.4,29.8-40.2,36.7-7.9s9.9-10.3,13.7-20.5c0,0-4.8,50.2,15.2,13.2s-0.2,12,23.8,10.4c24-1.6-31.1,50.5-33.6,52.5
						s-49.7-40.3-49.7-40.3 M115.2,261.4c-17.4-41.6,13.6-54.5,31-26.4s5.8-13.1,6-24c0,0,12.4,48.9,18.7,7.3
						c6.4-41.6,3.9,11.4,25.9,1.7s-12.3,58-13.9,60.8c-1.6,2.8-60.4-21.1-60.4-21.1"/>
				</g>
				<g>
					<path id="e_00000066474062533540488350000003039381115096869278_" class="st4" d="M113.5,258.2c13.4-18.8,14.7-57.6-6.1-45
						c0,0,12.2-29.1-10.8-19c0,0,1.2-24.6-14.3-8.2c0,0-8.1-19-16-13c-8.5,6.4,3.9,20.6,3.9,20.6s-17,9,1.1,17.5
						c0,0-15.6,12.1,6.1,18.9c0,0-18.3,20.3,17.2,26.7C113.1,260,113.5,258.2,113.5,258.2z"/>
				</g>
				<g>
					<path class="st5" d="M69.6,181.8c4,3.9,43.1,71.5,43.8,76.5l0,0C113.5,258.2,75.7,190.7,69.6,181.8z M66.7,202.6
						c8.5,2.4,12.1,2,12.1,2L66.7,202.6z M88,186.4c-2,8.6-1.4,12.1-1.4,12.1L88,186.4z M69.2,220.8c13.6,0.1,18.7-1.9,18.7-1.9
						L69.2,220.8z M79.9,240.1c13.6,0.1,18.7-1.9,18.7-1.9L79.9,240.1z M95.8,213.2l7.7-15.6C96.6,208,95.8,213.2,95.8,213.2z
						 M105.1,232.4l7.7-15.6C105.9,227.2,105.1,232.4,105.1,232.4z"/>
				</g>
				<path class="st6" d="M96,246.6c0.7,0.2,1.5,0.1,2.2-0.2 M100.8,221.6c0.5-1.5,0.9-2.9,1.4-4.4 M72.4,198.4
					c0.7,0.2,1.4,0.5,1.9,1"/>
			</g>
			<g>
				<rect x="117" y="68.9" class="st8" width="84.4" height="16.5"/>
				<path class="st8" d="M204.7,68.9h-14.5c-1.4,0-2.5,1.1-2.5,2.5v0c0,2.6-2.1,4.8-4.8,4.8h-47.6c-2.6,0-4.8-2.1-4.8-4.8v0
					c0-1.4-1.1-2.5-2.5-2.5h-14.5c-5.8,0-10.6,4.7-10.6,10.6v207.1c0,5.9,4.7,10.6,10.6,10.6h91.1c5.8,0,10.6-4.7,10.6-10.6V79.5
					C215.3,73.6,210.6,68.9,204.7,68.9z"/>
				<path class="st8" d="M204.7,68.9h-14.5c-1.4,0-2.5,1.1-2.5,2.5v0c0,2.6-2.1,4.8-4.8,4.8h-47.6c-2.6,0-4.8-2.1-4.8-4.8v0
					c0-1.4-1.1-2.5-2.5-2.5h-14.5c-5.8,0-10.6,4.7-10.6,10.6v207.1c0,5.9,4.7,10.6,10.6,10.6h91.1c5.8,0,10.6-4.7,10.6-10.6V79.5
					C215.3,73.6,210.6,68.9,204.7,68.9z"/>
				<g>
					<path id="g" class="st9" d="M201.2,290.7h-84c-5.7,0-10.4-4.6-10.4-10.4V89.2c0-5.7,4.6-10.4,10.4-10.4h84
						c5.7,0,10.4,4.6,10.4,10.4v191.1C211.5,286,206.9,290.7,201.2,290.7z"/>
				</g>
				<g>
					<defs>
						<path id="SVGID_00000090994598221355355200000003281689212858844859_" d="M201.2,290.7h-84c-5.7,0-10.4-4.6-10.4-10.4V89.2
							c0-5.7,4.6-10.4,10.4-10.4h84c5.7,0,10.4,4.6,10.4,10.4v191.1C211.5,286,206.9,290.7,201.2,290.7z"/>
					</defs>
					<clipPath id="SVGID_00000049205075034496606500000000027065766615050413_">
						<use xlink:href="#SVGID_00000090994598221355355200000003281689212858844859_"  style="overflow:visible;"/>
					</clipPath>
					<path style="clip-path:url(#SVGID_00000049205075034496606500000000027065766615050413_);fill:#F3F3F3;" d="M235.1,74.7
						c-10.8-14.1-133.8,254.7-133.8,254.7l154.2-0.7l4.2-259.8"/>
				</g>
				<g>
					<path id="g_00000163054011593302904150000017931869548137573273_" class="st4" d="M201.2,290.7h-84c-5.7,0-10.4-4.6-10.4-10.4
						V89.2c0-5.7,4.6-10.4,10.4-10.4h84c5.7,0,10.4,4.6,10.4,10.4v191.1C211.5,286,206.9,290.7,201.2,290.7z"/>
				</g>
				<g>
					<path class="st11" d="M147.6,205.8h-24.3c-3,0-5.4-2.4-5.4-5.4v-46.2c0-3,2.4-5.4,5.4-5.4h24.3c3,0,5.4,2.4,5.4,5.4v46.2
						C153,203.3,150.6,205.8,147.6,205.8z"/>
					<path class="st12" d="M195.1,205.8h-24.3c-3,0-5.4-2.4-5.4-5.4v-46.2c0-3,2.4-5.4,5.4-5.4h24.3c3,0,5.4,2.4,5.4,5.4v46.2
						C200.5,203.3,198.1,205.8,195.1,205.8z M147.6,275h-24.3c-3,0-5.4-2.4-5.4-5.4v-46.2c0-3,2.4-5.4,5.4-5.4h24.3
						c3,0,5.4,2.4,5.4,5.4v46.2C153,272.6,150.6,275,147.6,275z"/>
					<path class="st11" d="M195.1,275h-24.3c-3,0-5.4-2.4-5.4-5.4v-46.2c0-3,2.4-5.4,5.4-5.4h24.3c3,0,5.4,2.4,5.4,5.4v46.2
						C200.5,272.6,198.1,275,195.1,275z"/>
				</g>
				<g>
					<polygon class="st13" points="104.9,111.9 83.3,111.9 101.8,96.3 118.2,96.3 					"/>
					<polygon class="st12" points="126.6,111.9 104.9,111.9 118.2,96.3 134.6,96.3 					"/>
					<polygon class="st13" points="148.3,111.9 126.6,111.9 134.6,96.3 151,96.3 					"/>
					<polygon class="st12" points="170,111.9 148.3,111.9 151,96.3 167.4,96.3 					"/>
					<polygon class="st13" points="191.7,111.9 170,111.9 167.4,96.3 183.8,96.3 					"/>
					<polygon class="st12" points="213.4,111.9 191.7,111.9 183.8,96.3 200.1,96.3 					"/>
					<polygon class="st13" points="235.1,111.9 213.4,111.9 200.1,96.3 216.5,96.3 					"/>
					<path class="st13" d="M95.5,134.7h-2.9c-5.2,0-9.4-4.2-9.4-9.4v-13.4h21.7v13.4C104.9,130.5,100.7,134.7,95.5,134.7z"/>
					<path class="st12" d="M117.2,134.7h-2.9c-5.2,0-9.4-4.2-9.4-9.4v-13.4h21.7v13.4C126.6,130.5,122.4,134.7,117.2,134.7z"/>
					<path class="st13" d="M138.9,134.7h-2.9c-5.2,0-9.4-4.2-9.4-9.4v-13.4h21.7v13.4C148.3,130.5,144.1,134.7,138.9,134.7z"/>
					<path class="st12" d="M160.6,134.7h-2.9c-5.2,0-9.4-4.2-9.4-9.4v-13.4H170v13.4C170,130.5,165.8,134.7,160.6,134.7z"/>
					<path class="st13" d="M182.3,134.7h-2.9c-5.2,0-9.4-4.2-9.4-9.4v-13.4h21.7v13.4C191.7,130.5,187.5,134.7,182.3,134.7z"/>
					<path class="st12" d="M204,134.7h-2.9c-5.2,0-9.4-4.2-9.4-9.4v-13.4h21.7v13.4C213.4,130.5,209.2,134.7,204,134.7z"/>
					<path class="st13" d="M225.7,134.7h-2.9c-5.2,0-9.4-4.2-9.4-9.4v-13.4h21.7v13.4C235.1,130.5,230.9,134.7,225.7,134.7z"/>
					<path class="st12" d="M216.8,94.9H101.6c-0.1,0-0.2,0.1-0.2,0.2v1c0,0.1,0.1,0.2,0.2,0.2h115.2c0.1,0,0.2-0.1,0.2-0.2v-1
						C217,95,216.9,94.9,216.8,94.9z"/>
				</g>
				<path class="st6" d="M138.4,162.7c-1.2,1.4-2.3,2.8-3.5,4.2 M191.8,253.4c-1.2,0.9-2.4,1.9-3.5,2.8"/>
			</g>
			<g>
				<g>
					<ellipse id="i" class="st14" cx="94.1" cy="256.2" rx="39.8" ry="39.9"/>
				</g>
				<g>
					<defs>
						<ellipse id="SVGID_00000114777897524830671780000000230958822255114647_" cx="94.1" cy="256.2" rx="39.8" ry="39.9"/>
					</defs>
					<clipPath id="SVGID_00000104670150518492986900000003699795571179218575_">
						<use xlink:href="#SVGID_00000114777897524830671780000000230958822255114647_"  style="overflow:visible;"/>
					</clipPath>
					<path style="clip-path:url(#SVGID_00000104670150518492986900000003699795571179218575_);fill:#2D6CDF;" d="M112.1,215.6
						c33.9,86.8-41.8,82.2-41.8,82.2l40.8,13.5l44.8-43.1l-23.4-45.3"/>
				</g>
				<g>
					<ellipse id="i_00000153686024548611080650000001158378852808435354_" class="st4" cx="94.1" cy="256.2" rx="39.8" ry="39.9"/>
				</g>
				<g>
					<path class="st12" d="M88.2,269.2c-0.4-0.4-0.8-0.7-1.4-0.9c-0.5-0.2-1-0.3-1.6-0.3c-0.6,0-1.1,0.1-1.6,0.3
						c-0.5,0.2-0.9,0.5-1.3,0.9c-0.4,0.4-0.7,0.8-0.9,1.3c-0.2,0.5-0.3,1.1-0.3,1.6c0,0.6,0.1,1.1,0.3,1.6c0.2,0.5,0.5,1,0.9,1.3
						c0.4,0.4,0.8,0.7,1.3,0.9c0.5,0.2,1,0.3,1.6,0.3c0.6,0,1.1-0.1,1.6-0.3c0.5-0.2,1-0.5,1.4-0.9c0.4-0.4,0.7-0.8,0.9-1.3
						c0.2-0.5,0.3-1.1,0.3-1.6c0-0.6-0.1-1.1-0.3-1.6C88.9,270.1,88.6,269.6,88.2,269.2z M107,269.3c-0.4-0.4-0.8-0.7-1.3-0.9
						c-0.5-0.2-1.1-0.3-1.6-0.3c-0.6,0-1.1,0.1-1.6,0.3c-0.5,0.2-1,0.5-1.3,0.9c-0.4,0.4-0.7,0.8-0.9,1.3c-0.2,0.5-0.3,1.1-0.3,1.6
						c0,0.6,0.1,1.1,0.3,1.6c0.2,0.5,0.5,1,0.9,1.3c0.4,0.4,0.8,0.7,1.3,0.9c0.5,0.2,1,0.3,1.6,0.3c0.6,0,1.1-0.1,1.6-0.3
						c0.5-0.2,1-0.5,1.3-0.9c0.4-0.4,0.7-0.8,0.9-1.3c0.2-0.5,0.3-1.1,0.3-1.6c0-0.6-0.1-1.1-0.3-1.6
						C107.6,270.1,107.3,269.7,107,269.3z M114.5,243.7c-0.2-0.3-0.5-0.6-1-0.8c-0.5-0.2-1.1-0.3-2-0.3H80.8
						c-0.1-0.6-0.2-1.2-0.3-1.7c-0.1-0.5-0.1-0.9-0.2-1.3c-0.1-0.4-0.1-0.8-0.2-1c-0.1-0.2-0.1-0.5-0.2-0.8
						c-0.1-0.3-0.2-0.6-0.5-0.9c-0.2-0.3-0.5-0.5-0.9-0.7c-0.4-0.2-0.8-0.3-1.4-0.3h-4.5c-0.7,0-1.2,0.2-1.6,0.6
						c-0.4,0.4-0.6,0.9-0.6,1.5c0,0.3,0,0.6,0.1,1c0.1,0.4,0.2,0.7,0.4,1c0.2,0.3,0.4,0.6,0.7,0.8c0.3,0.2,0.7,0.3,1.1,0.3h3.4
						c0.7,3.7,1.4,7.1,1.9,10.1c0.2,1.3,0.5,2.6,0.7,3.9c0.2,1.3,0.5,2.4,0.7,3.5c0.2,1,0.4,1.9,0.5,2.6c0.1,0.7,0.2,1.1,0.2,1.3
						c0.1,0.5,0.2,0.9,0.4,1.4c0.2,0.5,0.4,1,0.7,1.4c0.3,0.4,0.6,0.8,1,1.1c0.4,0.3,0.9,0.4,1.5,0.4h23.6c0.8,0,1.4-0.2,1.7-0.7
						c0.3-0.4,0.4-1,0.4-1.6c0-1.2-0.7-1.8-2.2-1.8H84.6l-0.7-4.1h23.6c0.9,0,1.6-0.2,2.2-0.7c0.6-0.5,1.1-1.3,1.5-2.5
						c0.2-0.6,0.4-1.4,0.8-2.3c0.3-1,0.7-2,1.1-3c0.4-1,0.7-1.9,1-2.8c0.3-0.8,0.5-1.4,0.6-1.7c0.1-0.3,0.1-0.6,0.2-1
						C114.8,244.4,114.7,244,114.5,243.7z"/>
				</g>
				<path class="st6" d="M87.3,224.5c-0.7,0.8-1.3,1.5-2,2.3 M120.2,274.3c-1.6,1.6-3.3,3.3-4.9,4.9"/>
			</g>
			<g>
				<path class="st12" d="M173.8,172.1c0.1,0,0.2,0,0.3,0c1.1-0.2,1.8-1.2,1.7-2.3l-1.4-9.6c-1.1-7.5-6.2-13.8-13.2-16.5l-28.2-10.8
					c-1-0.4-2.2,0.1-2.6,1.1c-0.4,1,0.1,2.2,1.1,2.6l28.2,10.8c5.7,2.2,9.8,7.3,10.7,13.4l1.4,9.6
					C172,171.4,172.9,172.1,173.8,172.1z"/>
				<ellipse class="st8" cx="273" cy="288.1" rx="10.3" ry="10.3"/>
				<ellipse class="st12" cx="273" cy="288.1" rx="5.7" ry="5.7"/>
				<g>
					<path id="k" class="st16" d="M272,290.6L272,290.6c1.6,0,3.2-1.1,3.8-2.7l5.6-14.4h-9.6l-2.2,14.4
						C269.4,289.4,270.4,290.6,272,290.6z"/>
				</g>
				<g>
					<defs>
						<path id="SVGID_00000054252916324582169210000011105115406002870934_" d="M272,290.6L272,290.6c1.6,0,3.2-1.1,3.8-2.7
							l5.6-14.4h-9.6l-2.2,14.4C269.4,289.4,270.4,290.6,272,290.6z"/>
					</defs>
					<clipPath id="SVGID_00000148643770338887238920000003864885036477523076_">
						<use xlink:href="#SVGID_00000054252916324582169210000011105115406002870934_"  style="overflow:visible;"/>
					</clipPath>
					<path style="clip-path:url(#SVGID_00000148643770338887238920000003864885036477523076_);fill:#FF6699;" d="M264.9,275.5
						c19.3,0,14.9,9,14.9,9l6.4-13l-15.9-2"/>
				</g>
				<g>
					<path id="k_00000063626002718513991480000001856558003581495454_" class="st4" d="M272,290.6L272,290.6c1.6,0,3.2-1.1,3.8-2.7
						l5.6-14.4h-9.6l-2.2,14.4C269.4,289.4,270.4,290.6,272,290.6z"/>
				</g>
				<ellipse class="st8" cx="185.7" cy="288.1" rx="10.3" ry="10.3"/>
				<ellipse class="st12" cx="185.7" cy="288.1" rx="5.7" ry="5.7"/>
				<g>
					<path id="m" class="st16" d="M184.7,290.6L184.7,290.6c1.6,0,3.2-1.1,3.8-2.7l5.6-14.4h-9.6l-2.2,14.4
						C182.1,289.4,183.1,290.6,184.7,290.6z"/>
				</g>
				<g>
					<defs>
						<path id="SVGID_00000175280125639281176340000006811360231635516335_" d="M184.7,290.6L184.7,290.6c1.6,0,3.2-1.1,3.8-2.7
							l5.6-14.4h-9.6l-2.2,14.4C182.1,289.4,183.1,290.6,184.7,290.6z"/>
					</defs>
					<clipPath id="SVGID_00000065763319706511001850000005194364424103089577_">
						<use xlink:href="#SVGID_00000175280125639281176340000006811360231635516335_"  style="overflow:visible;"/>
					</clipPath>
					<path style="clip-path:url(#SVGID_00000065763319706511001850000005194364424103089577_);fill:#FF6699;" d="M176.2,275.5
						c20.5,0,15.2,8.4,15.2,8.4l6.6-10.4l-9.8-6"/>
				</g>
				<g>
					<path id="m_00000028308770319150068230000002543053587220244611_" class="st4" d="M184.7,290.6L184.7,290.6
						c1.6,0,3.2-1.1,3.8-2.7l5.6-14.4h-9.6l-2.2,14.4C182.1,289.4,183.1,290.6,184.7,290.6z"/>
				</g>
				<g>
					<path class="st12" d="M300.3,209.7c1,0,1.8-0.7,2-1.7c0.1-1.1-0.6-2.1-1.7-2.2L176.5,190c-1.1-0.1-2.1,0.6-2.2,1.7
						c-0.1,1.1,0.6,2.1,1.7,2.2l124.1,15.7C300.1,209.7,300.2,209.7,300.3,209.7z"/>
				</g>
				<g>
					<path class="st12" d="M294.5,230.7c1,0,1.9-0.8,2-1.8c0.1-1.1-0.7-2.1-1.8-2.1l-115.4-10c-1.1-0.1-2.1,0.7-2.1,1.8
						c-0.1,1.1,0.7,2.1,1.8,2.1l115.4,10C294.4,230.7,294.5,230.7,294.5,230.7z"/>
				</g>
				<g>
					<path class="st12" d="M196,244.6C196,244.6,196,244.6,196,244.6c1.1,0,2-0.9,2-2l-1.2-72.1c0-1.1-0.9-2-2-2c-1.1,0-2,0.9-1.9,2
						l1.2,72.1C194.1,243.7,194.9,244.6,196,244.6z"/>
				</g>
				<g>
					<path class="st12" d="M207.7,244.6c1.1,0,1.9-0.9,2-1.9l2.1-69.2c0-1.1-0.8-2-1.9-2c-1.1,0-2,0.8-2,1.9l-2.1,69.2
						C205.7,243.6,206.6,244.6,207.7,244.6C207.7,244.6,207.7,244.6,207.7,244.6z"/>
				</g>
				<g>
					<path class="st12" d="M220,244.6c1,0,1.9-0.8,2-1.8l4.9-67c0.1-1.1-0.7-2-1.8-2.1c-1.1-0.1-2,0.7-2.1,1.8l-4.9,67
						c-0.1,1.1,0.7,2,1.8,2.1C219.9,244.6,220,244.6,220,244.6z"/>
				</g>
				<g>
					<path class="st12" d="M234.3,244.6c1,0,1.9-0.8,2-1.8l5.8-64.5c0.1-1.1-0.7-2.1-1.8-2.2c-1.1-0.1-2.1,0.7-2.2,1.8l-5.8,64.5
						c-0.1,1.1,0.7,2.1,1.8,2.2C234.1,244.6,234.2,244.6,234.3,244.6z"/>
				</g>
				<g>
					<path class="st12" d="M247.9,244.6c1,0,1.9-0.7,2-1.8l7.1-62c0.1-1.1-0.7-2.1-1.7-2.2c-1.1-0.1-2.1,0.7-2.2,1.7l-7.1,62
						c-0.1,1.1,0.7,2.1,1.7,2.2C247.8,244.6,247.9,244.6,247.9,244.6z"/>
				</g>
				<g>
					<path class="st12" d="M261.6,244.6c1,0,1.8-0.7,2-1.7l9.7-59.3c0.2-1.1-0.6-2.1-1.6-2.3c-1.1-0.2-2.1,0.6-2.3,1.6l-9.7,59.3
						c-0.2,1.1,0.6,2.1,1.6,2.3C261.4,244.6,261.5,244.6,261.6,244.6z"/>
				</g>
				<g>
					<path class="st12" d="M275.8,244.6c0.9,0,1.8-0.7,1.9-1.6l10.3-56.8c0.2-1.1-0.5-2.1-1.6-2.3c-1.1-0.2-2.1,0.5-2.3,1.6
						l-10.3,56.8c-0.2,1.1,0.5,2.1,1.6,2.3C275.6,244.6,275.7,244.6,275.8,244.6z"/>
				</g>
				<g>
					<path class="st12" d="M176.2,275.5h110c1.1,0,2-0.9,2-2s-0.9-2-2-2H178.6l5.1-28.6c0.2-1.1-0.5-2.1-1.6-2.3
						c-1.1-0.2-2.1,0.5-2.3,1.6l-5.5,30.9c-0.1,0.6,0.1,1.2,0.4,1.6C175.1,275.3,175.6,275.5,176.2,275.5z"/>
				</g>
				<g>
					<g>
						<path id="o" class="st19" d="M131.1,138.6l30,10.3c1.2,0.4,2.6-0.2,3-1.5l0.6-1.7c0.4-1.2-0.2-2.6-1.5-3l-30-10.3
							c-1.2-0.4-2.6,0.2-3,1.5l-0.6,1.7C129.2,136.8,129.9,138.2,131.1,138.6z"/>
					</g>
					<g>
						<defs>
							<path id="SVGID_00000079474651290382630320000016236228415681076380_" d="M131.1,138.6l30,10.3c1.2,0.4,2.6-0.2,3-1.5
								l0.6-1.7c0.4-1.2-0.2-2.6-1.5-3l-30-10.3c-1.2-0.4-2.6,0.2-3,1.5l-0.6,1.7C129.2,136.8,129.9,138.2,131.1,138.6z"/>
						</defs>
						<clipPath id="SVGID_00000007419499693314574720000003210954169155729596_">
							<use xlink:href="#SVGID_00000079474651290382630320000016236228415681076380_"  style="overflow:visible;"/>
						</clipPath>
						<path style="clip-path:url(#SVGID_00000007419499693314574720000003210954169155729596_);fill:#C1BF1F;" d="M133.4,129.2
							c-2.5,13.9,21.5,15.3,27.7,19.7s-45.6,5.3-45.6,5.3l-4.4-15.8l13.4-9.5"/>
					</g>
					<g>
						<path id="o_00000183245521788605779470000010380792173813739683_" class="st4" d="M131.1,138.6l30,10.3c1.2,0.4,2.6-0.2,3-1.5
							l0.6-1.7c0.4-1.2-0.2-2.6-1.5-3l-30-10.3c-1.2-0.4-2.6,0.2-3,1.5l-0.6,1.7C129.2,136.8,129.9,138.2,131.1,138.6z"/>
					</g>
				</g>
				<g>
					<path class="st12" d="M301.6,195.5c0.3-1.2,0.1-2.5-0.5-3.6c-0.7-1.1-1.8-1.8-3-2l-122.3-20.5l7.7,71.3h102.3
						c2,0,3.8-1.4,4.4-3.3L301.6,195.5L301.6,195.5z M179.7,242.8l-8.2-75.6c-0.1-0.6,0.2-1.2,0.6-1.7c0.5-0.4,1.1-0.6,1.7-0.5
						l124.8,20.9c2.4,0.4,4.4,1.8,5.7,3.8c1.3,2,1.7,4.5,1,6.8l0,0l-11.5,41.8c-1,3.7-4.4,6.2-8.2,6.2H181.7
						C180.7,244.6,179.8,243.8,179.7,242.8z"/>
				</g>
				<path class="st6" d="M273.8,282.3c-0.5,0.6-1.1,1.3-1.6,1.9 M154.4,141.8c-1.5,0.8-3.2,1.3-4.9,1.6"/>
			</g>
		</g>
	</g>
</g>
</svg>
