<svg xmlns="http://www.w3.org/2000/svg" version="1.1" xmlns:xlink="http://www.w3.org/1999/xlink" width="512" height="512" x="0" y="0" viewBox="0 0 512 512" style="enable-background:new 0 0 512 512" xml:space="preserve" class=""><g><path d="M255.985 59.99c-8.284 0-15 6.716-15 15s6.716 15 15 15c49.634 0 90.015 40.374 90.015 90 0 8.284 6.716 15 15 15s15-6.716 15-15c0-66.168-53.838-120-120.015-120z" fill="#000000" opacity="1" data-original="#000000"></path><path d="M217.335 4.03c-67.77 14.161-122.72 68.585-137.179 136.776-12.209 57.582 2.836 115.392 41.277 158.607C140.224 320.536 151 348.419 151 375.99v30c0 19.96 13.067 36.917 31.093 42.79 5.928 35.025 36.328 63.209 73.907 63.209 37.569 0 67.977-28.175 73.907-63.209C347.933 442.907 361 425.95 361 405.989v-30c0-27.625 10.812-55.173 30.442-77.569A179.6 179.6 0 0 0 436 179.99C436 66.425 332.051-19.936 217.335 4.03zM256 481.99c-19.282 0-36.188-13.268-42.431-31.1h84.861c-6.242 17.832-23.148 31.1-42.43 31.1zm75-76c0 8.271-6.729 15-15 15H196c-8.271 0-15-6.729-15-15v-15h150v15zm37.882-127.343c-20.92 23.867-33.791 52.647-37.057 82.343H180.178c-3.262-29.712-16.1-58.775-36.328-81.516-32.038-36.016-44.557-84.291-34.346-132.445C121.423 90.815 167.223 45.15 223.472 33.397 319.496 13.33 406 85.442 406 179.99a149.619 149.619 0 0 1-37.118 98.657zM45 179.99H15c-8.284 0-15 6.716-15 15s6.716 15 15 15h30c8.284 0 15-6.716 15-15s-6.716-15-15-15zM51.213 104.99 30 83.777c-5.857-5.858-15.355-5.858-21.213 0-5.858 5.858-5.858 15.355 0 21.213L30 126.203c5.857 5.858 15.355 5.859 21.213 0 5.858-5.858 5.858-15.355 0-21.213zM51.213 263.777c-5.858-5.858-15.356-5.858-21.213 0L8.787 284.99c-5.858 5.858-5.858 15.355 0 21.213 5.857 5.858 15.355 5.859 21.213 0l21.213-21.213c5.858-5.858 5.858-15.355 0-21.213zM497 179.99h-30c-8.284 0-15 6.716-15 15s6.716 15 15 15h30c8.284 0 15-6.716 15-15s-6.716-15-15-15zM503.213 83.777c-5.857-5.858-15.355-5.858-21.213 0l-21.213 21.213c-5.858 5.858-5.858 15.355 0 21.213 5.857 5.857 15.355 5.858 21.213 0l21.213-21.213c5.858-5.858 5.858-15.355 0-21.213zM503.213 284.99 482 263.777c-5.857-5.858-15.355-5.858-21.213 0-5.858 5.858-5.858 15.355 0 21.213L482 306.203c5.857 5.857 15.355 5.858 21.213 0 5.858-5.858 5.858-15.355 0-21.213z" fill="#000000" opacity="1" data-original="#000000"></path></g></svg>