<?xml version="1.0" encoding="utf-8"?>
<!-- Generator: Adobe Illustrator 28.0.0, SVG Export Plug-In . SVG Version: 6.00 Build 0)  -->
<svg version="1.1" id="SvgjsSvg2188" xmlns:svgjs="http://svgjs.com/svgjs"
	 xmlns="http://www.w3.org/2000/svg" xmlns:xlink="http://www.w3.org/1999/xlink" x="0px" y="0px" viewBox="0 0 360 360"
	 style="enable-background:new 0 0 360 360;" xml:space="preserve">
<style type="text/css">
	.st0{clip-path:url(#SVGID_00000042711758406381808880000012199023614562166685_);}
	.st1{fill:#3CF0A0;}
	.st2{fill:#A0A0A0;}
	.st3{fill:none;stroke:#000000;stroke-width:0.7992;stroke-miterlimit:3.6;}
	.st4{fill:#FFFFFF;stroke:#000000;stroke-width:0.882;stroke-linecap:round;stroke-miterlimit:3.6;}
	.st5{fill:#FFFFFF;stroke:#000000;stroke-width:0.6048;stroke-linecap:round;stroke-miterlimit:3.6;}
	.st6{fill:none;stroke:#3CF0A0;stroke-width:0.5364;stroke-linecap:round;stroke-miterlimit:3.6;}
	.st7{fill:#FFFFFF;stroke:#000000;stroke-width:0.5364;stroke-linecap:round;stroke-miterlimit:3.6;}
	.st8{fill:#FFFFFF;stroke:#000000;stroke-width:0.6217;stroke-miterlimit:3.6;}
	.st9{fill:#FFFFFF;}
	.st10{fill:none;stroke:#000000;stroke-width:0.6192;stroke-linecap:round;stroke-miterlimit:3.6;stroke-dasharray:1.8576,2.5992;}
	.st11{fill:#FFFFFF;stroke:#000000;stroke-width:0.6192;stroke-miterlimit:3.6;}
	.st12{fill:none;stroke:#000000;stroke-width:0.6192;stroke-miterlimit:3.6;}
	.st13{fill:#FFFFFF;stroke:#000000;stroke-width:0.9324;stroke-miterlimit:3.6;}
	.st14{fill:none;stroke:#000000;stroke-width:0.9324;stroke-linecap:round;stroke-miterlimit:3.6;stroke-dasharray:2.79,3.906;}
	.st15{fill:none;stroke:#000000;stroke-width:0.9324;stroke-miterlimit:3.6;}
	.st16{fill:#FFFFFF;stroke:#000000;stroke-width:0.72;stroke-miterlimit:3.6;}
	.st17{fill:#FFFFFF;stroke:#000000;stroke-width:0.5868;stroke-miterlimit:3.6;}
	.st18{fill:none;stroke:#000000;stroke-width:0.5652;stroke-miterlimit:3.6;}
	.st19{stroke:#000000;stroke-width:0.522;stroke-miterlimit:3.6;}
	.st20{fill:#FFFFFF;stroke:#FFFFFF;stroke-width:0.522;stroke-miterlimit:3.6;}
	.st21{fill:#FFFFFF;stroke:#000000;stroke-width:0.5544;stroke-miterlimit:3.6;}
	.st22{fill:#FFFFFF;stroke:#000000;stroke-width:0.522;stroke-linecap:round;stroke-miterlimit:3.6;}
	.st23{fill:none;stroke:#FFFFFF;stroke-width:0.522;stroke-linecap:round;stroke-miterlimit:3.6;}
	.st24{fill:none;stroke:#000000;stroke-width:0.522;stroke-miterlimit:3.6;}
	.st25{fill:#3CF0A0;stroke:#000000;stroke-width:0.72;stroke-miterlimit:3.6;}
	.st26{fill:#A0A0A0;stroke:#000000;stroke-width:0.72;stroke-miterlimit:3.6;}
	.st27{fill:none;stroke:#000000;stroke-width:0.72;stroke-miterlimit:3.6;}
	.st28{fill:none;stroke:#000000;stroke-width:0.5364;stroke-linecap:round;stroke-miterlimit:3.6;}
	.st29{stroke:#000000;stroke-width:0.72;stroke-miterlimit:3.6;}
	.st30{fill:#FFFFFF;stroke:#000000;stroke-width:0.7524;stroke-miterlimit:3.6;}
	.st31{fill:#FFFFFF;stroke:#000000;stroke-width:0.72;stroke-linecap:round;stroke-miterlimit:3.6;}
	.st32{fill:none;stroke:#000000;stroke-width:0.6876;stroke-linecap:round;stroke-miterlimit:3.6;stroke-dasharray:6.0984,6.0984;}
	.st33{fill:none;stroke:#000000;stroke-width:0.72;stroke-linecap:round;stroke-miterlimit:3.6;}
	.st34{fill:#3CF0A0;stroke:#000000;stroke-width:0.72;stroke-linecap:round;stroke-miterlimit:3.6;}
	.st35{fill:#FFFFFF;stroke:#000000;stroke-width:0.6984;stroke-miterlimit:3.6;}
	.st36{fill:#FFFFFF;stroke:#000000;stroke-width:0.7236;stroke-miterlimit:3.6;}
	.st37{fill:#FFFFFF;stroke:#000000;stroke-width:0.7272;stroke-miterlimit:3.6;}
	.st38{fill:#FFFFFF;stroke:#000000;stroke-width:0.756;stroke-miterlimit:3.6;}
	.st39{fill:none;stroke:#000000;stroke-width:0.5616;stroke-miterlimit:3.6;}
	.st40{fill:#3CF0A0;stroke:#000000;stroke-width:0.774;stroke-miterlimit:3.6;}
	.st41{fill:#FFFFFF;stroke:#000000;stroke-width:0.6948;stroke-miterlimit:3.6;}
	.st42{fill:#3CF0A0;stroke:#000000;stroke-width:0.6048;stroke-miterlimit:3.6;}
	.st43{fill:none;stroke:#000000;stroke-width:0.6048;stroke-miterlimit:3.6;}
	.st44{fill:#FFFFFF;stroke:#000000;stroke-width:0.6048;stroke-miterlimit:3.6;}
	.st45{stroke:#000000;stroke-width:0.6048;stroke-miterlimit:3.6;}
	.st46{stroke:#FFFFFF;stroke-width:0.6048;stroke-miterlimit:3.6;}
	.st47{fill:none;stroke:#FFFFFF;stroke-width:0.72;stroke-linecap:square;stroke-miterlimit:3.6;}
	.st48{fill:#FFFFFF;stroke:#000000;stroke-width:0.616;stroke-miterlimit:3.6;}
	.st49{fill:none;stroke:#000000;stroke-width:0.7164;stroke-linecap:round;stroke-miterlimit:3.6;}
	.st50{fill:none;stroke:#000000;stroke-width:0.6984;stroke-miterlimit:3.6;}
</style>
<g id="SvgjsG2190">
	<g>
		<defs>
			<rect id="SVGID_1_" x="4.7" y="23.8" width="352.1" height="314.3"/>
		</defs>
		<clipPath id="SVGID_00000170251751699292566310000017200134139896256907_">
			<use xlink:href="#SVGID_1_"  style="overflow:visible;"/>
		</clipPath>
		<g style="clip-path:url(#SVGID_00000170251751699292566310000017200134139896256907_);">
			<path class="st1" d="M285.6,136.8c27.3,0,49.5-22.2,49.5-49.5s-22.2-49.5-49.5-49.5c-27.3,0-49.5,22.2-49.5,49.5
				S258.2,136.8,285.6,136.8L285.6,136.8z"/>
			<path class="st2" d="M76.9,332.3c36,0,65.2-29.2,65.2-65.2c0-36-29.2-65.2-65.2-65.2s-65.2,29.2-65.2,65.2
				C11.7,303.1,40.9,332.3,76.9,332.3z"/>
			<path class="st3" d="M4.9,291.4h348.8"/>
			<path class="st4" d="M39.2,63.7c8.5,0,15.4-6.9,15.4-15.4c0-8.5-6.9-15.4-15.4-15.4s-15.4,6.9-15.4,15.4
				C23.8,56.7,30.7,63.7,39.2,63.7z"/>
			<path class="st5" d="M347.6,191.6c4.9,0,8.9-4,8.9-8.9c0-4.9-4-8.9-8.9-8.9c-4.9,0-8.9,4-8.9,8.9
				C338.7,187.6,342.7,191.6,347.6,191.6z"/>
			<path class="st6" d="M18.1,251.1c7.3,0,13.2-5.9,13.2-13.2c0-7.3-5.9-13.2-13.2-13.2c-7.3,0-13.2,5.9-13.2,13.2
				C4.9,245.2,10.8,251.1,18.1,251.1z"/>
			<path class="st7" d="M320,275.2c4.7,0,8.5-3.8,8.5-8.5c0-4.7-3.8-8.5-8.5-8.5s-8.5,3.8-8.5,8.5
				C311.5,271.4,315.3,275.2,320,275.2z M211.5,65c3.6,0,6.4-2.9,6.4-6.5c0-3.6-2.9-6.5-6.4-6.5S205,55,205,58.5
				C205,62.1,207.9,65,211.5,65z"/>
			<path class="st8" d="M336.5,266.5c0.7-7.4-4.6-13.9-11.7-14.5c-7.1-0.6-13.4,4.8-14.1,12.2c-0.7,7.4,4.6,13.9,11.7,14.5
				C329.5,279.3,335.8,273.8,336.5,266.5L336.5,266.5z"/>
			<path class="st9" d="M330.9,266.2c0.5-5.7-3.5-10.6-9-11.1c-5.4-0.5-10.3,3.7-10.7,9.4c-0.5,5.7,3.5,10.6,9,11.1
				C325.7,276.1,330.5,271.9,330.9,266.2z"/>
			<path class="st10" d="M330.9,266.2c0.5-5.7-3.5-10.6-9-11.1c-5.4-0.5-10.3,3.7-10.7,9.4c-0.5,5.7,3.5,10.6,9,11.1
				C325.7,276.1,330.5,271.9,330.9,266.2z"/>
			<path class="st11" d="M323.4,252.2c4,0,7.7,1.8,10.1,4.9c4.5,5.8,3.6,14.1-1.9,18.8c-2.9,2.4-6.7,3.5-10.4,2.8
				c2.9-0.1,5.8-1.1,8-3c5.5-4.8,6.4-13,1.9-18.8C329.2,254.5,326.4,252.8,323.4,252.2L323.4,252.2z"/>
			<path class="st12" d="M330.2,277l-2.4-0.2 M333.7,273.6l-2.4-0.2 M335.5,270.2l-2.4-0.2 M336.4,266.2l-2.4-0.2 M336,262.2
				l-2.4-0.2 M334.5,258.7l-2.4-0.2 M331.7,255.2l-2.4-0.2"/>
			<path class="st13" d="M55.8,57.6c6.6-8.9,5-21.3-3.6-27.6s-20.9-4.3-27.5,4.6c-6.6,8.9-5,21.3,3.6,27.6
				C36.9,68.6,49.2,66.5,55.8,57.6z"/>
			<path class="st9" d="M52.2,55c5.1-6.8,3.8-16.4-2.8-21.3s-16.1-3.3-21.1,3.5c-5.1,6.8-3.8,16.4,2.8,21.3S47.2,61.8,52.2,55z"/>
			<path class="st14" d="M52.2,55c5.1-6.8,3.8-16.4-2.8-21.3s-16.1-3.3-21.1,3.5c-5.1,6.8-3.8,16.4,2.8,21.3S47.2,61.8,52.2,55z"/>
			<path class="st13" d="M26.9,61.2c-5.1-3.1-8.4-8.3-9-14.2C16.7,36.1,24.4,26,35.2,24.4c5.6-0.9,11.3,0.8,15.6,4.6
				c-3.8-2.3-8.3-3.1-12.6-2.5c-10.7,1.6-18.5,11.7-17.3,22.5C21.3,53.7,23.5,58,26.9,61.2z"/>
			<path class="st15" d="M37.7,24.2l2.9,2.2 M30.7,25.6l2.9,2.2 M25.6,28.6l2.9,2.1 M21.4,33.1l2.9,2.2 M18.7,38.5l2.9,2.1
				 M17.8,44.1l2.9,2.2 M18.7,50.8l2.9,2.2"/>
			<path class="st16" d="M117.7,80.5l-10.3,25.3c-1.6,3.9,0.3,8.4,4.2,10c3.9,1.6,8.4-0.3,10-4.3L132,86.3c1.6-3.9-0.3-8.4-4.2-10
				C123.8,74.7,119.3,76.6,117.7,80.5L117.7,80.5z"/>
			<path class="st17" d="M198.5,76.7h-27.3c-4.3,0-7.7,3.4-7.7,7.7c0,4.3,3.5,7.7,7.7,7.7h27.3c4.3,0,7.7-3.4,7.7-7.7
				C206.2,80.1,202.8,76.7,198.5,76.7z"/>
			<path class="st18" d="M142.7,102.5l3.1,22.6"/>
			<path class="st19" d="M126.5,76.7l1.3,57l39.1,2l3.1-59.3c-0.3,0-1,0.1-1.4,0.1c-4-0.4-9.6-1.4-9.6-1.4L145,67.7
				C145,67.7,141.8,75.7,126.5,76.7L126.5,76.7z"/>
			<path class="st20" d="M161.7,75.1c0,0,3.2,7.6-1.7,8.8c-4.9,1.3-6.1-4.6-6.1-4.6s3.3,1.5,5.3-4.2L161.7,75.1L161.7,75.1z
				 M153.3,79.3c0,0-3.7,7.3-10.2,2.2c-8-6.3,3.2-16.5,3.2-16.5S143.1,74.1,153.3,79.3L153.3,79.3z"/>
			<path class="st21" d="M152.5,81c1.9,0.9,4.3-0.3,5.2-2.5l3.3-7.5L147.8,61l-1.2,3.3C144.3,71.2,146.8,78.5,152.5,81z"/>
			<path d="M159.1,75.2c0,0-1,2.5-1.4,3.3c-0.4,0.8-7.2,2-9.8-6.3c-1.8-5.9,0.7-10.4,0.7-10.4S148.7,67.9,159.1,75.2z"/>
			<path class="st22" d="M147.8,61.5c0.3,0.3,0.6,0.5,0.9,0.6l-0.1,1.2c-1.7,7.6,3.1,12.6,5.9,13.9c4.4,2,10.4,0.9,15.2-8.7
				c0.5-1.1,1.4-2.7,1.9-3.9c-3.2-2.3-5.9-5.3-8-8.8c0,0-2.9,2.9-5.6,2.1c-2-0.6-4.1-1-6.2-1.3c-0.4-0.3-0.8-0.5-1.3-0.6
				c-1.5-0.2-2.9,0.7-3.4,2.1C146.7,59.4,147,60.6,147.8,61.5L147.8,61.5z"/>
			<path d="M146,57.9c0,0-1.6,5.1,0,8.1l1.7-4.3c-0.8-0.9-1.1-2.1-0.7-3.2c0.5-1.5,1.9-2.4,3.4-2.1c1.1,0.3,1.8,1.4,1.7,2.5
				c0.6-0.4,1-1.4,4.6-0.3c2.6,0.8,5.5-0.8,5.5-0.8c2.7,4.5,6.1,6.4,8.3,7.9c3.5,2.5,7.2,1.4,8.5,0.9c2.5-0.8,3.5-3.8,3-6.5
				c-0.3-1.6-1.4-2.9-2.9-3.5c-0.9-2.2-2.6-4.1-5.8-4.7c0,0-3.7-15.4-17-9.7C156.3,42.1,145.1,43.3,146,57.9z"/>
			<path class="st23" d="M179.4,56.4c0,0-4.3-1.9-6.1,1.8 M173.9,51.7c0,0-4.5-1.4-5.9,2.4 M157.5,41.3c0,0-4.3,2.3-2.7,6"/>
			<path class="st24" d="M147.9,58.8l2.1,0.9c0,0,0,0,0,0c0,0,0,0,0,0l-1-2.4"/>
			<path class="st25" d="M174.3,232.9l-13.7,0.4l-0.3-11.5h13.7L174.3,232.9z M129.7,233.4l13.7,0l0-11.1l-13.7,0L129.7,233.4
				L129.7,233.4z"/>
			<path class="st26" d="M151,235.3h-29.3l2.4-7.3c0.7-2.2,2.8-3.7,5.1-3.7h14.5c2.3,0,4.3,1.5,5.1,3.7L151,235.3L151,235.3z"/>
			<path class="st16" d="M141.4,227.9h-10c-5.5,0-10,4.5-10,10v0c0,5.5,4.5,10,10,10h10c5.5,0,10-4.5,10-10v0
				C151.4,232.4,146.9,227.9,141.4,227.9z"/>
			<path class="st27" d="M122.2,242c0,0,5.5,4.6,10.2,1.7c4-2.4,5.8-1,7.9,0s7.8,1.5,10.1-1.6 M129.9,229.8h12.6 M129.9,231.7h12.6
				 M132.8,225.8h7.3"/>
			<path class="st26" d="M181.8,235.1h-29.3l2.4-7.2c0.7-2.2,2.8-3.7,5.2-3.7h14.3c2.3,0,4.4,1.5,5.2,3.8L181.8,235.1z"/>
			<path class="st16" d="M172.4,227.6l-10,0c-5.5,0-10,4.5-10,10v0c0,5.5,4.5,10,10,10l10,0c5.5,0,10-4.5,10-10v0
				C182.4,232.1,177.9,227.6,172.4,227.6z"/>
			<path class="st27" d="M153,241.8c0,0,5.5,4.6,10.2,1.8c4-2.4,5.8-1,8,0c2.1,1,7.8,1.5,10.1-1.6 M160.7,229.6l12.5,0 M160.7,231.5
				l12.5,0 M163.5,225.6l7.3,0"/>
			<path class="st28" d="M167.4,63.9c0,0,1.3,0.4,1.7,2.5"/>
			<path d="M159.5,63.5c0.3-0.5,0.2-1.1-0.1-1.3c-0.3-0.2-0.8,0.1-1.1,0.6c-0.3,0.5-0.2,1.1,0.1,1.3
				C158.7,64.4,159.2,64.1,159.5,63.5z"/>
			<path class="st28" d="M163.2,65.7l-1,5.2c0,0.1-0.2,0.2-0.3,0.2c0,0,0,0-0.1,0l-2.4-1.3"/>
			<path d="M167.4,67.7c0.3-0.5,0.2-1.1-0.1-1.3c-0.3-0.2-0.8,0.1-1.1,0.6c-0.3,0.5-0.2,1.1,0.1,1.3
				C166.6,68.6,167.1,68.3,167.4,67.7z"/>
			<path class="st28" d="M157.1,60.6c1.2-0.6,2.6-0.6,3.9-0.1 M156.3,68.6c0,0-2,2.9,1.1,4.7"/>
			<path class="st16" d="M73.4,209.3h-2.7v85.3h2.7C73.4,294.6,73.4,209.3,73.4,209.3z"/>
			<path class="st16" d="M72,300.5c4,0,7.2-3.2,7.2-7.2c0-4-3.2-7.2-7.2-7.2c-4,0-7.2,3.2-7.2,7.2C64.9,297.3,68.1,300.5,72,300.5z"
				/>
			<path class="st29" d="M72,297.6c2.4,0,4.3-1.9,4.3-4.3c0-2.4-1.9-4.3-4.3-4.3c-2.4,0-4.3,1.9-4.3,4.3
				C67.8,295.7,69.7,297.6,72,297.6z"/>
			<path class="st16" d="M278.1,209.3h-2.7v85.3h2.7V209.3z"/>
			<path class="st16" d="M276.8,300.5c4,0,7.2-3.2,7.2-7.2c0-4-3.2-7.2-7.2-7.2c-4,0-7.2,3.2-7.2,7.2
				C269.6,297.3,272.8,300.5,276.8,300.5z"/>
			<path class="st29" d="M276.8,297.6c2.4,0,4.3-1.9,4.3-4.3c0-2.4-1.9-4.3-4.3-4.3c-2.4,0-4.3,1.9-4.3,4.3
				C272.5,295.7,274.4,297.6,276.8,297.6z"/>
			<path class="st30" d="M183.4,247.9h-61.8c-3.4,0-6.2,2.8-6.2,6.2v55.5c0,3.4,2.8,6.2,6.2,6.2h61.8c3.4,0,6.2-2.8,6.2-6.2v-55.5
				C189.6,250.7,186.8,247.9,183.4,247.9L183.4,247.9z"/>
			<path class="st16" d="M43.3,211.7c-0.1-0.8-0.2-1.6-0.2-2.4V104.9c0-7.2,5.8-13,13-13h213.6c7.2,0,13,5.8,13,13c0,0,0,0,0,0
				v104.4c0,7.2-5.8,13-13,13H56C49.8,222.3,44.4,217.8,43.3,211.7z"/>
			<path class="st16" d="M280.4,92.1H66.8c-7.2,0-13,5.8-13,13v104.4c0,7.2,5.8,13,13,13h213.6c7.2,0,13-5.8,13-13V105.1
				C293.4,97.9,287.5,92.1,280.4,92.1z"/>
			<path class="st27" d="M45.5,97.2h10.9 M43.3,102.4h10.4 M43.1,107.5h10.6 M43.1,114.7h10.6 M43.1,122h10.6 M43.1,129.2h10.6
				 M43.1,136.4h10.7 M43.1,143.6h10.7 M43.1,150.9h10.7 M43.1,158.1h10.7 M43.1,165.3h10.7 M43.1,172.6h10.7 M43.1,179.8h10.7
				 M43.1,187h10.7 M43.1,194.2h10.7 M43.1,201.5h10.7 M43.1,208.7h10.7"/>
			<path class="st31" d="M199,179.1h-9.7c-2.6,0-4.7,2.1-4.7,4.7v15.5c0,2.6,2.1,4.7,4.7,4.7h9.7c2.6,0,4.7-2.1,4.7-4.7v-15.5
				C203.7,181.2,201.6,179.1,199,179.1z"/>
			<path class="st9" d="M101.3,158.7c16.2,0,29.4-13.2,29.4-29.4c0-16.2-13.2-29.4-29.4-29.4S71.8,113,71.8,129.2
				C71.8,145.5,85,158.7,101.3,158.7L101.3,158.7z"/>
			<path class="st32" d="M122.1,150.1c11.5-11.5,11.5-30.1,0-41.6S92,97,80.5,108.5s-11.5,30.1,0,41.6S110.6,161.5,122.1,150.1z"/>
			<path class="st16" d="M240.3,117.5h-15.7c-1.2,0-2.1,1-2.1,2.1v7.3c0,1.2,1,2.2,2.1,2.2h15.7c1.2,0,2.1-1,2.1-2.2v-7.3
				C242.4,118.5,241.4,117.5,240.3,117.5z"/>
			<path class="st33" d="M225,121.2h12.6 M225,125.3h12.6"/>
			<path class="st16" d="M171.5,144.2c-9.3,0-16.8,7.5-16.9,16.8c0,1.1,0.1,2.2,0.3,3.3c1.3,6.7,6.5,11.9,13.2,13.2
				c9.1,1.8,18-4.1,19.8-13.2c1.8-9.1-4.1-18-13.2-19.8C173.7,144.3,172.6,144.2,171.5,144.2L171.5,144.2z M171.5,174.1
				c-2.6,0-5.1-0.8-7.3-2.2c-6-4-7.6-12.1-3.6-18.1c0.5-0.7,1-1.4,1.6-2c5.1-5.1,13.4-5.1,18.5,0c0.6,0.6,1.2,1.3,1.6,2
				c4,6,2.4,14.1-3.6,18.1C176.6,173.3,174.1,174.1,171.5,174.1L171.5,174.1z"/>
			<path class="st26" d="M171.5,147.9c-7.2,0-13.1,5.8-13.1,13c0,0.9,0.1,1.7,0.2,2.6c1,5.2,5.1,9.3,10.3,10.3
				c7.1,1.4,14-3.2,15.4-10.3c0.2-0.8,0.3-1.7,0.3-2.6C184.5,153.8,178.7,148,171.5,147.9z M171.5,170.2c-3.7,0-7.1-2.2-8.6-5.7
				c-1.4-3.5-0.7-7.4,2-10.1c2.6-2.6,6.6-3.4,10.1-2c3.5,1.4,5.7,4.8,5.7,8.6C180.7,166.1,176.6,170.2,171.5,170.2z"/>
			<path class="st16" d="M171.5,151.8c-5.1,0-9.3,4.1-9.3,9.2c0,5.1,4.1,9.3,9.2,9.3c1.2,0,2.4-0.2,3.6-0.7c3.5-1.4,5.7-4.8,5.7-8.5
				C180.7,155.9,176.6,151.8,171.5,151.8z M171.5,165.8c-2.6,0-4.8-2.1-4.8-4.8c0-2.6,2.1-4.8,4.8-4.8c2.6,0,4.8,2.1,4.8,4.8
				C176.3,163.7,174.1,165.8,171.5,165.8z"/>
			<path class="st25" d="M171.5,165.8c2.6,0,4.8-2.1,4.8-4.8c0-2.6-2.1-4.8-4.8-4.8s-4.8,2.1-4.8,4.8
				C166.7,163.7,168.9,165.8,171.5,165.8z"/>
			<path class="st16" d="M235.7,142.9l47.1-0.2l-0.2-32.2l-47.1,0.2L235.7,142.9z"/>
			<path class="st25" d="M282.6,110.4l-47.1,0.2l0-4.5c0-0.7,0.6-1.3,1.3-1.3l44.5-0.2c0.7,0,1.3,0.6,1.3,1.3c0,0,0,0,0,0
				L282.6,110.4L282.6,110.4z"/>
			<path class="st27" d="M271.8,121.2l7.5,0l0-7.5l-7.5,0L271.8,121.2z M238.9,121.4l7.5,0l0-7.5l-7.5,0L238.9,121.4L238.9,121.4z
				 M255.3,121.3l7.5,0l0-7.5l-7.5,0L255.3,121.3z M272.5,128.8h7.5v-7.5h-7.5V128.8z M238.9,130.5l7.5,0l0-7.5l-7.5,0L238.9,130.5
				L238.9,130.5z M255.4,130.4l7.5,0l0-7.5l-7.5,0L255.4,130.4z"/>
			<path class="st25" d="M271.9,139.5l7.5,0l0-7.5l-7.5,0L271.9,139.5L271.9,139.5z"/>
			<path class="st16" d="M238.9,139.6l7.5,0l0-7.5l-7.5,0L238.9,139.6z"/>
			<path class="st27" d="M255.5,139.5l7.5,0l0-7.5l-7.5,0L255.5,139.5L255.5,139.5z M246.4,113.7l-7.5,7.5 M238.9,113.7l7.5,7.4
				 M279.4,122.6l-7.4,7.5 M271.9,122.7l7.5,7.5 M279.5,134.5l-3.8,4.5c-0.1,0.1-0.2,0.1-0.3,0.1c-0.1,0-0.2-0.1-0.2-0.2l-3.2-7"/>
			<path class="st33" d="M245.8,104.6l0,2.9 M248.3,104.6l0.1,2.3"/>
			<path class="st16" d="M281.5,180.2h-25.6v39.6h25.6V180.2z"/>
			<path class="st27" d="M265.4,187.8h-6.3v6.3h6.3V187.8z M265.4,197.3h-6.3v6.3h6.3V197.3z M265.4,206.9h-6.3v6.3h6.3V206.9z"/>
			<path class="st33" d="M267.6,191h11.2 M267.6,200.5h11.2 M278.5,210.1h11.2 M267.2,211.1h11.2"/>
			<path class="st16" d="M302.4,205.3h-29.9c-1,0-1.8,0.8-1.8,1.8v19.3c0,1,0.8,1.8,1.8,1.8h29.9c1,0,1.8-0.8,1.8-1.8v-19.3
				C304.1,206.1,303.3,205.3,302.4,205.3z"/>
			<path class="st9" d="M271.3,205.7l15.1,10.3c0.6,0.4,1.4,0.4,2,0l15-10.3"/>
			<path class="st27" d="M271.3,205.7l15.1,10.3c0.6,0.4,1.4,0.4,2,0l15-10.3"/>
			<path class="st1" d="M72.6,152.4H66V216h6.6V152.4z M85.6,162.4H79V216h6.6V162.4z M98.7,172.3H92V216h6.6V172.3z M111.7,182.2
				h-6.6V216h6.6L111.7,182.2L111.7,182.2z M124.7,192.2h-6.6V216h6.6V192.2z M137.8,202.1h-6.6V216h6.6V202.1L137.8,202.1z
				 M150.8,212.1h-6.6v3.9h6.6L150.8,212.1L150.8,212.1z"/>
			<path class="st34" d="M114.1,111.1v9.3c0,1.9-1.6,3.5-3.5,3.5c0,0,0,0,0,0h-3.2l-4.5,4.5l-4.5-4.5h-3.1c-0.9,0-1.8-0.4-2.5-1
				c-0.7-0.7-1-1.6-1-2.5v-9.3c0-0.9,0.4-1.8,1-2.5c0.7-0.7,1.6-1,2.5-1h15.4C112.5,107.5,114.1,109.1,114.1,111.1
				C114.1,111.1,114.1,111.1,114.1,111.1L114.1,111.1z"/>
			<path class="st31" d="M125.7,132.2v7.8c0,1.6-1.3,3-3,3c0,0,0,0,0,0H120l-3.8,3.9l-3.9-3.9h-2.7c-0.8,0-1.6-0.3-2.1-0.9
				c-0.6-0.6-0.9-1.3-0.9-2.1v-7.8c0-1.2,0.7-2.3,1.9-2.8c0.4-0.1,0.8-0.2,1.1-0.2h13C124.3,129.2,125.7,130.6,125.7,132.2
				L125.7,132.2z"/>
			<path class="st25" d="M113.9,136.2v2.3h-2l-0.4,0.1c-1.1,0.1-2.1-0.5-2.6-1.5c-0.7-1.3-0.1-2.9,1.2-3.6c0.6-0.3,1.4-0.4,2.1-0.2
				c1,0.3,1.8,1.3,1.9,2.4L113.9,136.2z"/>
			<path class="st31" d="M95.1,128.3v8c0,1.2-0.7,2.3-1.8,2.8c-0.4,0.1-0.8,0.2-1.2,0.2h-2.8l-3.9,3.9l-3.9-3.9h-2.7
				c-1.7,0-3-1.3-3-3c0,0,0,0,0,0v-8c0-1.7,1.4-3,3-3l0,0h13.3C93.8,125.3,95.1,126.6,95.1,128.3C95.1,128.3,95.1,128.3,95.1,128.3
				L95.1,128.3z"/>
			<path class="st25" d="M80.4,132.9c0.7,0,1.2-0.5,1.2-1.2c0-0.7-0.5-1.2-1.2-1.2c0,0,0,0,0,0c-0.7,0-1.2,0.6-1.2,1.2
				C79.1,132.3,79.7,132.9,80.4,132.9z M82,135.5h-3.2c-0.4,0-0.6-0.2-0.6-0.5l0.1-0.4c0.1-0.7,0.9-1.2,1.8-1.2h0.6
				c0.9,0,1.7,0.5,1.8,1.2l0.1,0.4C82.6,135.3,82.3,135.5,82,135.5z"/>
			<path class="st16" d="M97.8,119.4c0,0-0.1,0.1-0.2,0.1c-0.1,0-0.1,0-0.2-0.1l-2.8-2.6c-0.9-0.9-0.9-2.4,0-3.4v-0.1
				c0.6-0.5,1.5-0.5,2,0.1c0.1,0.1,0.1,0.2,0.2,0.3l0.6,1l0.7-1.1c0.3-0.6,1-0.8,1.6-0.6c0.2,0.1,0.4,0.2,0.5,0.3
				c0.5,0.5,0.7,1.1,0.7,1.7c0,0.7-0.3,1.3-0.8,1.7L97.8,119.4L97.8,119.4z"/>
			<path class="st25" d="M101.3,137.5c1.9,0,3.4-1.5,3.4-3.4s-1.5-3.4-3.4-3.4s-3.4,1.5-3.4,3.4C97.8,136,99.4,137.5,101.3,137.5z
				 M98.5,191.1c1.9,0,3.4-1.5,3.4-3.4s-1.5-3.4-3.4-3.4c0,0,0,0,0,0c-1.9,0-3.4,1.5-3.4,3.4C95,189.6,96.6,191.1,98.5,191.1z
				 M255,133.6c1.9,0,3.4-1.5,3.4-3.4c0-1.9-1.5-3.4-3.4-3.4c-1.9,0-3.4,1.5-3.4,3.4C251.6,132.1,253.1,133.6,255,133.6z
				 M270.7,209.2c1.9,0,3.4-1.5,3.4-3.4c0-1.9-1.5-3.4-3.4-3.4c-1.9,0-3.4,1.5-3.4,3.4C267.3,207.6,268.8,209.2,270.7,209.2
				C270.7,209.2,270.7,209.2,270.7,209.2z"/>
			<path class="st33" d="M255,130.2l-33.9,23l-22.3-28.5L171.5,161l22,25.5l43.7-10.6l33.5,29.9 M98.5,187.7l56.2,13.7l16.8-40.4
				l-38.2,12.3l-35.5-9l3.4-30.2"/>
			<path class="st2" d="M221.1,154.2c1.1,0,2-0.9,2-2c0-1.1-0.9-2-2-2l0,0c-1.1,0-2,0.9-2,2C219.1,153.3,220,154.2,221.1,154.2z
				 M198.9,127.3c1.1,0,2-0.9,2-2c0-1.1-0.9-2-2-2c0,0,0,0-0.1,0c-1.1,0-2,0.9-2,2.1C196.9,126.4,197.8,127.2,198.9,127.3z
				 M237.2,178.4c1.1,0,2-0.9,2-2s-0.9-2-2-2s-2,0.9-2,2S236.1,178.4,237.2,178.4z M193.7,188c1.1,0,2-0.9,2-2s-0.9-2-2-2l0,0
				c-1.1,0-2,0.9-2,2S192.6,188,193.7,188z M154.3,202.8c1.1,0,2-0.9,2-2c0-1.1-0.9-2-2-2c0,0,0,0,0,0c-1.1,0-2,0.9-2,2
				C152.2,201.9,153.1,202.8,154.3,202.8z M133.3,174.8c1.1,0,2-0.9,2-2c0-1.1-0.9-2-2-2l0,0c-1.1,0-2,0.9-2,2
				C131.3,173.9,132.2,174.8,133.3,174.8z M98.5,165.7c1.1,0,2-0.9,2-2s-0.9-2-2-2l0,0c-1.1,0-2,0.9-2,2S97.4,165.7,98.5,165.7z"/>
			<path class="st33" d="M187,191.6h12.6 M187,198.4h12.6"/>
			<path class="st35" d="M80,91.8V87c0-0.1,0-0.1,0.1-0.1c0,0,0,0,0,0h10c1.4,0,2.5,1.1,2.5,2.5c0,1.4-1.1,2.5-2.5,2.5l0,0L80,91.8
				C80,91.9,80,91.8,80,91.8L80,91.8z"/>
			<path class="st36" d="M76.7,98.3c4.3,0,7.7-3.4,7.7-7.6S81,83,76.7,83S69,86.4,69,90.6C69,94.9,72.5,98.3,76.7,98.3z"/>
			<path class="st37" d="M181.5,99.2l0.6,5l-11.1,1.4c-1,0.1-2-0.4-2.5-1.2c-0.7-1.2-0.3-2.7,0.9-3.4c0.3-0.2,0.6-0.3,0.9-0.3
				L181.5,99.2L181.5,99.2z"/>
			<path class="st16" d="M192.2,80.3l-15,22.9c-2.3,3.6-1.3,8.3,2.2,10.7c3.6,2.3,8.3,1.3,10.7-2.2l15-22.9
				c2.3-3.6,1.3-8.3-2.2-10.7C199.3,75.7,194.5,76.7,192.2,80.3L192.2,80.3z"/>
			<path class="st25" d="M164.1,102.2l-8.5,11.9c-1.7,2.4-1.1,5.8,1.3,7.5l17.1,12.2c2.4,1.7,5.8,1.1,7.5-1.3l8.5-11.9
				c1.7-2.4,1.1-5.8-1.3-7.5L171.6,101C169.2,99.3,165.8,99.8,164.1,102.2z"/>
			<path class="st9" d="M190.2,111.3l-6.1,9.4c-0.8,1.1-2.3,1.5-3.4,0.7c-0.6-0.4-0.9-0.9-1.1-1.6c-0.1-0.6,0-1.3,0.3-1.9l6.1-9.4"
				/>
			<path class="st27" d="M190.2,111.3l-6.1,9.4c-0.8,1.1-2.3,1.5-3.4,0.7c-0.6-0.4-0.9-0.9-1.1-1.6c-0.1-0.6,0-1.3,0.3-1.9l6.1-9.4"
				/>
			<path class="st9" d="M186,108.5l-6.7,10.3c-0.4,0.6-1,1-1.7,1.2c-0.7,0.1-1.4,0-2-0.4c-1.2-0.8-1.6-2.5-0.8-3.7l6.7-10.3"/>
			<path class="st27" d="M186,108.5l-6.7,10.3c-0.4,0.6-1,1-1.7,1.2c-0.7,0.1-1.4,0-2-0.4c-1.2-0.8-1.6-2.5-0.8-3.7l6.7-10.3"/>
			<path class="st9" d="M181.5,105.6l-6.3,9.6c-0.8,1.1-2.3,1.5-3.4,0.7c-0.6-0.4-1-0.9-1.1-1.6c-0.1-0.6,0-1.3,0.4-1.9l6.2-9.6"/>
			<path class="st27" d="M181.5,105.6l-6.3,9.6c-0.8,1.1-2.3,1.5-3.4,0.7c-0.6-0.4-1-0.9-1.1-1.6c-0.1-0.6,0-1.3,0.4-1.9l6.2-9.6"/>
			<path class="st16" d="M210.4,259.6c1.3-0.6,2.7,0,3.3,1.5l4.6,11.6l-4.6,2.3l-4.6-11.6C208.6,261.9,209.2,260.2,210.4,259.6z"/>
			<path class="st29" d="M136.7,297.3h124.2v9.8c0,9-7.3,16.4-16.4,16.4H136.7V297.3L136.7,297.3z"/>
			<path class="st38" d="M158.2,303.9h-28.6v15.7h28.6V303.9z"/>
			<path class="st16" d="M130,297.6l5.4,19.5c0.5,1.9-0.6,3.8-2.4,4.3c0,0,0,0,0,0l-14.1,3.9l-11.1-40.3
				C117.4,282.3,127.3,287.9,130,297.6C130,297.6,130,297.6,130,297.6z"/>
			<path class="st25" d="M107.7,284.9l11.1,40.3l-2.2,0.6c-1.7,0.5-3.4-0.5-3.9-2.2c0,0,0,0,0,0l-8.8-31.9
				C103.1,288.7,104.8,285.7,107.7,284.9L107.7,284.9L107.7,284.9z"/>
			<path class="st27" d="M129.9,297.1l-6.8,1.8 M130.5,299.4l-6.8,1.9 M118,285.2c0,0-1.2,6.5-7.9,8.4 M133,321.4
				c0,0-6.8-13.1-18-10"/>
			<path class="st16" d="M147.3,306.6h-25.9v15.7h25.9V306.6z"/>
			<path class="st9" d="M249.3,281.6c-0.1,0.9-0.4,1.7-0.7,2.5c-1.6,3.3-5.6,5.4-9.5,4.6"/>
			<path class="st39" d="M249.3,281.6c-0.1,0.9-0.4,1.7-0.7,2.5c-1.6,3.3-5.6,5.4-9.5,4.6"/>
			<path class="st9" d="M239.4,288.8l-30.5-5.3c-3.7-0.6-6.5-3.6-7-7.2c-0.2-1.6,0-3.2,0.7-4.7c1.6-3.5,5.4-5.4,9.1-4.7l5.6,1
				l24.8,4.3c4.6,0.8,7.7,5.2,7,9.8c0,0,0,0,0,0"/>
			<path class="st39" d="M239.4,288.8l-30.5-5.3c-3.7-0.6-6.5-3.6-7-7.2c-0.2-1.6,0-3.2,0.7-4.7c1.6-3.5,5.4-5.4,9.1-4.7l5.6,1
				l24.8,4.3c4.6,0.8,7.7,5.2,7,9.8c0,0,0,0,0,0"/>
			<path class="st40" d="M221.1,286.5l-23.6,6.4c-5.2,1.4-10.8-0.6-13.8-5.1c-1-1.5-1.6-3.1-1.9-4.8l-4.6-26.1
				c-0.1-0.7,0-1.5,0.4-2.2c0.4-0.6,1-1.1,1.8-1.3l35.3-10.1L221.1,286.5L221.1,286.5z"/>
			<path class="st41" d="M218.9,284.3l-30.3,8.3c-0.7,0.2-1.5,0.1-2.2-0.3c-0.7-0.4-1.1-1.1-1.2-1.9l-5.8-32.7
				c-0.2-1.4,0.6-2.7,1.9-3.1l31.7-9.1L218.9,284.3z"/>
			<path class="st42" d="M216.2,289.7l-29.8,5.9l-7.4-43l30.4-8.9L216.2,289.7L216.2,289.7z"/>
			<path class="st16" d="M201.9,262.3c1.2-0.7,2.7-0.1,3.4,1.3l5.3,11.3l-4.4,2.6l-5.3-11.3C200.2,264.7,200.6,263,201.9,262.3
				L201.9,262.3z"/>
			<path class="st9" d="M241.9,291c-0.2,0.9-0.6,1.8-1,2.6c-2.1,3.4-6.6,5.1-10.6,3.9"/>
			<path class="st43" d="M241.9,291c-0.2,0.9-0.6,1.8-1,2.6c-2.1,3.4-6.6,5.1-10.6,3.9"/>
			<path class="st9" d="M230.6,297.6l-31.9-9.1c-3.8-1.1-6.5-4.5-6.7-8.5c0-0.9,0.1-1.8,0.3-2.7c0.2-0.8,0.6-1.5,1-2.2
				c2.2-3.5,6.4-5.1,10.3-4l5.9,1.7l26,7.4c2.3,0.6,4.3,2.2,5.5,4.3c1.2,2.1,1.5,4.6,0.8,6.9"/>
			<path class="st27" d="M230.6,297.6l-31.9-9.1c-3.8-1.1-6.5-4.5-6.7-8.5c0-0.9,0.1-1.8,0.3-2.7c0.2-0.8,0.6-1.5,1-2.2
				c2.2-3.5,6.4-5.1,10.3-4l5.9,1.7l26,7.4c2.3,0.6,4.3,2.2,5.5,4.3c1.2,2.1,1.5,4.6,0.8,6.9"/>
			<path class="st44" d="M253.2,249.1h7.7v52.3H232v-31.2C232,258.6,241.5,249.1,253.2,249.1L253.2,249.1z"/>
			<path class="st1" d="M252.7,250.5c0.7,0.3,1.4,0.8,2,1.3c1.5,1.3,2.6,3,3,5c0.4,2,0.2,4-0.7,5.8"/>
			<path class="st43" d="M252.7,250.5c0.7,0.3,1.4,0.8,2,1.3c1.5,1.3,2.6,3,3,5c0.4,2,0.2,4-0.7,5.8"/>
			<path class="st1" d="M257.9,264.8L241,293.4c-2,3.4-6,5.2-9.9,4.3c-0.9-0.2-1.7-0.5-2.5-1c-0.7-0.4-1.3-0.9-1.9-1.5
				c-2.9-2.9-3.4-7.4-1.3-11l3.1-5.3l13.7-23.3c2.5-4.4,8.1-5.8,12.5-3.3"/>
			<path class="st43" d="M257.9,264.8L241,293.4c-2,3.4-6,5.2-9.9,4.3c-0.9-0.2-1.7-0.5-2.5-1c-0.7-0.4-1.3-0.9-1.9-1.5
				c-2.9-2.9-3.4-7.4-1.3-11l3.1-5.3l13.7-23.3c2.5-4.4,8.1-5.8,12.5-3.3"/>
			<path class="st44" d="M228.5,229.1c-1.5,4.7-0.7,10.4,3.3,13.5c5.7,4.5,14.7,2.4,19.7-2.9c4.9-5.3,4.7-13.6-0.6-18.5
				c-4.9-4.6-10.3-9.1-17-1.4c-1.3,1.5-2.7,2.9-4.2,4.1l-4,3.1c-0.1,0-0.1,0.1,0,0.2L228.5,229.1L228.5,229.1z"/>
			<path class="st45" d="M275.9,259.2l-0.3,0.4c-2.1,2.6-2.1-0.8-4.9-5.5s-6.1-12.4-6.2-12c-0.1,0.3,9.4,19.2,7.2,20.6
				c-2.1,1.4-4.4,0.7-10.2,7c-0.3,0.3-2,1.2-2.9,1.4c-3.1,1.1-7.3-3.3-11.1-6.5c-1.2-1,3-21.7,2.7-20.8c-0.9,2.2-3.7,19.8-5.6,18.5
				c-1.9-1.3-3.7-2.8-5-2.9c-1.3-0.1,2.7-12.3,2.7-12.3s-3.7,12.1-4.7,12.2c-4.3,0.2-8.9,1.5-8.6-4.7c0.3-5.3,10.4-12,13.6-18.9
				c0-0.1,0.1-0.1,0.1-0.2c0.1,0,0.1-0.1,0.2-0.1c1.3-0.1,2.7-0.6,3-2.9c0.2-1.6-1.2-2.7-2.4-2.9h-0.2c-0.1,0-0.1-0.1-0.1-0.1
				c-0.2-0.7-0.5-1.3-0.9-1.8c-3.5-5.4-4.1-7.9-4.8-9.6c-0.8-1.7-1.1-4,3.1-5.1c4.1-1.1,7.7-1.8,14.3,0.6c8.5,3,9.9,11.5,11.6,24
				C268.2,250.1,281.1,252.8,275.9,259.2L275.9,259.2z"/>
			<path class="st43" d="M239.3,215.8c0,0,2.5,9.6,7.4,12.7"/>
			<path class="st46" d="M261,221.3c3.3,0,6-2.7,6-6s-2.7-6-6-6c-3.3,0-6,2.7-6,6C255,218.6,257.7,221.3,261,221.3z"/>
			<path class="st43" d="M241,216.1c0,0,2.7,6,5.9,7.4"/>
			<path d="M218,301.4h42.9v9.8c0,9-7.3,16.4-16.3,16.4c0,0,0,0,0,0H136.7v-26.2"/>
			<path class="st27" d="M218,301.4h42.9v9.8c0,9-7.3,16.4-16.3,16.4c0,0,0,0,0,0H136.7v-26.2"/>
			<path class="st47" d="M136.7,301.4H218"/>
			<path class="st16" d="M127.6,301.8l5.4,19.5c0.5,1.9-0.6,3.8-2.4,4.3l-14.1,3.9l-11.1-40.3C115,286.4,125,292.1,127.6,301.8
				C127.6,301.8,127.6,301.8,127.6,301.8L127.6,301.8z"/>
			<path class="st25" d="M105.4,289.1l11.1,40.3l-2.2,0.6c-1.7,0.5-3.4-0.5-3.9-2.2c0,0,0,0,0,0l-8.8-31.9
				C100.8,292.9,102.5,289.9,105.4,289.1C105.4,289.1,105.4,289.1,105.4,289.1L105.4,289.1L105.4,289.1z"/>
			<path class="st27" d="M127.5,301.3l-6.8,1.9 M128.1,303.6l-6.8,1.9 M115.6,289.4c0,0-1.2,6.5-7.9,8.4 M130.6,325.6
				c0,0-6.8-13.1-18-10"/>
			<path class="st48" d="M176.7,252.6l7.4,42.7c-1.3,0.2-2.5-0.6-2.7-1.9c0,0,0,0,0,0l-6.6-38.1C174.5,254,175.4,252.8,176.7,252.6z
				"/>
			<path d="M235,224c0.4-0.6,0.4-1.3,0-1.5c-0.4-0.2-1,0.1-1.3,0.7c-0.4,0.6-0.4,1.3,0,1.5C234,224.9,234.6,224.6,235,224z"/>
			<path class="st33" d="M237.9,223.9c-0.2-1.6-1-3-2.3-3.9"/>
			<path class="st49" d="M227.9,234.9c0,0,1.7,1.1,2.9-0.3"/>
			<path class="st9" d="M200.4,289l-11-2.9c-1.3-0.4-2.2-1.9-1.9-3.4c0.3-1.5,1.6-2.5,3-2.1l10.9,2.9"/>
			<path class="st27" d="M200.4,289l-11-2.9c-1.3-0.4-2.2-1.9-1.9-3.4c0.3-1.5,1.6-2.5,3-2.1l10.9,2.9"/>
			<path class="st9" d="M201.4,283.5l-13-3.5c-1.6-0.4-2.6-2.2-2.3-4c0.3-1.8,1.9-2.9,3.4-2.4l13,3.5"/>
			<path class="st27" d="M201.4,283.5l-13-3.5c-1.6-0.4-2.6-2.2-2.3-4c0.3-1.8,1.9-2.9,3.4-2.4l13,3.5"/>
			<path class="st9" d="M202.6,277.2l-11.5-3.1c-1.4-0.4-2.3-2-2-3.7c0.3-1.6,1.7-2.7,3.1-2.3l11.6,3.1"/>
			<path class="st27" d="M202.6,277.2l-11.5-3.1c-1.4-0.4-2.3-2-2-3.7c0.3-1.6,1.7-2.7,3.1-2.3l11.6,3.1"/>
			<path class="st9" d="M84.4,90.6v10.5c0,1.3-1.1,2.4-2.5,2.4c-1.3,0-2.5-1-2.5-2.4V90.6"/>
			<path class="st50" d="M84.4,90.6v10.5c0,1.3-1.1,2.4-2.5,2.4c-1.3,0-2.5-1-2.5-2.4V90.6"/>
			<path class="st9" d="M79.4,90.6l0.1,11.6c0,1.4-1.2,2.6-2.7,2.5c-1.1,0-2-0.6-2.5-1.5c-0.1-0.3-0.2-0.7-0.2-1L74,90.6"/>
			<path class="st50" d="M79.4,90.6l0.1,11.6c0,1.4-1.2,2.6-2.7,2.5c-1.1,0-2-0.6-2.5-1.5c-0.1-0.3-0.2-0.7-0.2-1L74,90.6"/>
			<path class="st9" d="M74,90.6v10.8c0,1.3-1.1,2.4-2.5,2.4c-1,0-1.9-0.5-2.3-1.4c-0.1-0.3-0.2-0.6-0.2-0.9l-0.1-10.8"/>
			<path class="st50" d="M74,90.6v10.8c0,1.3-1.1,2.4-2.5,2.4c-1,0-1.9-0.5-2.3-1.4c-0.1-0.3-0.2-0.6-0.2-0.9l-0.1-10.8"/>
			<path class="st33" d="M181.9,95.8l12.6,8.8 M183.6,93.2l12.7,8.8"/>
			<path class="st11" d="M181.7,329c3.5-6.2,1.2-14.1-5.2-17.8c-6.4-3.7-14.4-1.6-18,4.6c-3.5,6.2-1.2,14.1,5.2,17.8
				C170.1,337.2,178.1,335.2,181.7,329z"/>
			<path class="st9" d="M179,327.5c2.7-4.7,0.9-10.9-4-13.7c-4.9-2.8-11.1-1.2-13.8,3.5c-2.7,4.7-0.9,10.9,4,13.7
				C170.1,333.8,176.3,332.2,179,327.5L179,327.5z"/>
			<path class="st10" d="M179,327.5c2.7-4.7,0.9-10.9-4-13.7c-4.9-2.8-11.1-1.2-13.8,3.5c-2.7,4.7-0.9,10.9,4,13.7
				C170.1,333.8,176.3,332.3,179,327.5z"/>
			<path class="st11" d="M181,330.3c-1.6,3.6-4.8,6.2-8.7,7.1c-7.1,1.6-14.2-2.6-16.2-9.6c-1-3.6-0.4-7.6,1.8-10.6
				c-1.2,2.7-1.4,5.7-0.6,8.5c2,7,9.1,11.3,16.2,9.7C176.5,334.6,179.2,332.8,181,330.3L181,330.3z"/>
			<path class="st12" d="M155.7,326.1l1.2-2.1 M157.2,330.6l1.2-2.1 M159.5,333.7l1.2-2.1 M162.9,336.2l1.2-2.1 M166.7,337.5
				l1.2-2.1 M170.4,337.7l1.2-2.1 M174.8,336.5l1.2-2.1"/>
		</g>
	</g>
</g>
</svg>
