<?xml version="1.0" encoding="utf-8"?>
<!-- Generator: Adobe Illustrator 28.0.0, SVG Export Plug-In . SVG Version: 6.00 Build 0)  -->
<svg version="1.1" id="SvgjsSvg2347" xmlns:svgjs="http://svgjs.com/svgjs"
	 xmlns="http://www.w3.org/2000/svg" xmlns:xlink="http://www.w3.org/1999/xlink" x="0px" y="0px" viewBox="0 0 360 360"
	 style="enable-background:new 0 0 360 360;" xml:space="preserve">
<style type="text/css">
	.st0{fill:#8526FE;}
	.st1{fill:#AD59D4;}
	.st2{fill:#FFFFFF;}
	.st3{fill:#5FE4D4;}
	.st4{fill:url(#SVGID_1_);}
	.st5{fill:url(#SVGID_00000178200849460947960040000015830497499916253314_);}
	.st6{opacity:0.1;}
	.st7{fill:#D8A353;}
	.st8{fill:#BECDCB;}
	.st9{fill:#F0F5F4;}
	.st10{fill:none;}
	.st11{opacity:0.1;fill:#D8A353;enable-background:new    ;}
</style>
<g id="SvgjsG2349">
	<path class="st0" d="M70.2,301.1c-0.1,0-0.2-0.1-0.2-0.1c-0.1-0.1,0-0.3,0.1-0.4l73.1-41.6c0.1-0.1,0.3,0,0.4,0.1
		c0.1,0.1,0,0.3-0.1,0.4L70.4,301C70.3,301,70.3,301.1,70.2,301.1z"/>
	<path class="st1" d="M99.8,282.4c-0.8,0-1.7,0.2-2.3,0.5c-0.5,0.3-0.7,0.6-0.7,0.9c0,0.3,0.3,0.6,0.7,0.9c0.6,0.3,1.4,0.5,2.2,0.5
		c0.8,0,1.7-0.2,2.3-0.5c0.5-0.3,0.7-0.6,0.7-0.9c0-0.3-0.3-0.6-0.7-0.9C101.4,282.6,100.6,282.4,99.8,282.4z"/>
	<path class="st0" d="M163.5,321.6c0,0-0.1,0-0.1,0l-37.9-22c-0.7-0.4-1.2-1.2-1.2-2c0-0.9,0.4-1.6,1.2-2l38.2-22
		c0.1-0.1,0.3,0,0.4,0.1c0.1,0.1,0,0.3-0.1,0.4l-38.2,22c-0.6,0.3-0.9,0.9-0.9,1.6c0,0.7,0.3,1.2,0.9,1.6l37.9,22
		c0.1,0.1,0.2,0.2,0.1,0.4C163.7,321.5,163.6,321.6,163.5,321.6z"/>
	<path class="st2" d="M159.1,322.5c-2-1.2-2-3.1,0-4.2s5.3-1.2,7.3,0s2,3.1,0,4.2C164.4,323.6,161.1,323.6,159.1,322.5z"/>
	<path class="st0" d="M162.8,323.6c-1.4,0-2.8-0.3-3.8-0.9l0,0c-1.1-0.6-1.7-1.5-1.7-2.4c0-0.9,0.6-1.7,1.6-2.4
		c2.1-1.2,5.5-1.2,7.6,0c1.1,0.6,1.7,1.5,1.7,2.4c0,0.9-0.6,1.7-1.6,2.4C165.5,323.3,164.1,323.6,162.8,323.6z M159.2,322.2
		c2,1.1,5.1,1.1,7,0c0.9-0.5,1.4-1.2,1.4-1.9c0-0.7-0.5-1.4-1.4-1.9c-2-1.1-5.1-1.1-7,0c-0.9,0.5-1.4,1.2-1.4,1.9
		C157.8,321,158.3,321.7,159.2,322.2L159.2,322.2z"/>
	<path class="st3" d="M162.7,319c0.8,0,1.6,0.2,2.1,0.5c0.4,0.3,0.7,0.6,0.7,0.8c0,0.3-0.2,0.6-0.7,0.8c-0.5,0.3-1.3,0.5-2.1,0.5
		s-1.6-0.2-2.1-0.5c-0.4-0.3-0.7-0.6-0.7-0.9c0-0.3,0.2-0.6,0.7-0.8C161.2,319.2,161.9,319,162.7,319z"/>
	<path class="st1" d="M144.9,308.8c0.8,0,1.7,0.2,2.3,0.5c0.5,0.3,0.7,0.6,0.7,0.9c0,0.3-0.3,0.6-0.7,0.9c-0.6,0.3-1.4,0.5-2.2,0.5
		c-0.8,0-1.7-0.2-2.3-0.5c-0.5-0.3-0.7-0.6-0.7-0.9c0-0.3,0.3-0.6,0.7-0.9C143.2,309,144,308.8,144.9,308.8z"/>
	<path class="st0" d="M258.3,318.5c-0.1,0-0.2-0.1-0.2-0.1c-0.1-0.1,0-0.3,0.1-0.4l23.1-13.4c0.3-0.2,0.5-0.5,0.5-0.9
		c0-0.4-0.2-0.7-0.5-0.9l-39.4-22.7c-0.1-0.1-0.2-0.3-0.1-0.4c0.1-0.1,0.3-0.2,0.4-0.1l39.4,22.7c0.5,0.3,0.8,0.8,0.8,1.4
		c0,0.6-0.3,1.1-0.8,1.4l-23.1,13.4C258.4,318.5,258.4,318.5,258.3,318.5z M314.7,301.1c0,0-0.1,0-0.1,0l-59.3-33.8
		c-0.1-0.1-0.2-0.2-0.1-0.4c0.1-0.1,0.2-0.2,0.4-0.1l59.3,33.8c0.1,0.1,0.2,0.2,0.1,0.4C314.9,301,314.8,301.1,314.7,301.1z"/>
	<path class="st2" d="M310.9,302.5c-2-1.2-2-3.1,0-4.2c2-1.2,5.3-1.2,7.3,0c2,1.2,2,3.1,0,4.2C316.2,303.7,312.9,303.7,310.9,302.5z
		"/>
	<path class="st0" d="M314.6,303.7c-1.4,0-2.8-0.3-3.8-0.9c-1.1-0.6-1.7-1.5-1.7-2.4c0-0.9,0.6-1.7,1.6-2.4c2.1-1.2,5.5-1.2,7.6,0
		c1.1,0.6,1.7,1.5,1.7,2.4c0,0.9-0.6,1.7-1.6,2.4C317.3,303.4,315.9,303.7,314.6,303.7z M314.5,297.7c-1.3,0-2.6,0.3-3.5,0.8
		c-0.9,0.5-1.4,1.2-1.4,1.9c0,0.7,0.5,1.4,1.4,1.9l0,0c1.9,1.1,5.1,1.1,7,0c0.9-0.5,1.4-1.2,1.4-1.9c0-0.7-0.5-1.4-1.4-1.9
		C317.1,297.9,315.8,297.7,314.5,297.7z"/>
	<path class="st3" d="M314.5,299c0.8,0,1.6,0.2,2.1,0.5c0.4,0.3,0.7,0.6,0.7,0.8c0,0.3-0.2,0.6-0.7,0.8c-0.5,0.3-1.3,0.5-2.1,0.5
		s-1.6-0.2-2.1-0.5c-0.4-0.3-0.7-0.6-0.7-0.9c0-0.3,0.2-0.6,0.7-0.8C313,299.2,313.7,299,314.5,299z"/>
	<path class="st1" d="M298.9,290.3c0.8,0,1.7,0.2,2.3,0.5c0.5,0.3,0.7,0.6,0.7,0.9c0,0.3-0.3,0.6-0.7,0.9c-0.6,0.3-1.4,0.5-2.2,0.5
		c-0.8,0-1.7-0.2-2.3-0.5c-0.5-0.3-0.7-0.6-0.7-0.9c0-0.3,0.3-0.6,0.7-0.9C297.3,290.5,298.1,290.3,298.9,290.3z"/>
	<path class="st2" d="M310.9,302.5c-2-1.2-2-3.1,0-4.2c2-1.2,5.3-1.2,7.3,0c2,1.2,2,3.1,0,4.2C316.2,303.7,312.9,303.7,310.9,302.5z
		"/>
	<path class="st0" d="M314.6,303.7c-1.4,0-2.8-0.3-3.8-0.9c-1.1-0.6-1.7-1.5-1.7-2.4c0-0.9,0.6-1.7,1.6-2.4c2.1-1.2,5.5-1.2,7.6,0
		c1.1,0.6,1.7,1.5,1.7,2.4c0,0.9-0.6,1.7-1.6,2.4C317.3,303.4,315.9,303.7,314.6,303.7z M314.5,297.7c-1.3,0-2.6,0.3-3.5,0.8
		c-0.9,0.5-1.4,1.2-1.4,1.9c0,0.7,0.5,1.4,1.4,1.9l0,0c1.9,1.1,5.1,1.1,7,0c0.9-0.5,1.4-1.2,1.4-1.9c0-0.7-0.5-1.4-1.4-1.9
		C317.1,297.9,315.8,297.7,314.5,297.7z"/>
	<path class="st3" d="M314.5,299c0.8,0,1.6,0.2,2.1,0.5c0.4,0.3,0.7,0.6,0.7,0.8c0,0.3-0.2,0.6-0.7,0.8c-0.5,0.3-1.3,0.5-2.1,0.5
		s-1.6-0.2-2.1-0.5c-0.4-0.3-0.7-0.6-0.7-0.9c0-0.3,0.2-0.6,0.7-0.8C313,299.2,313.7,299,314.5,299z"/>
	<path class="st0" d="M255.3,116.9c0,0-0.1,0-0.1,0l-34.2-19.8c-0.1-0.1-0.2-0.3-0.1-0.4c0.1-0.1,0.3-0.2,0.4-0.1l34.2,19.8
		c0.1,0.1,0.2,0.3,0.1,0.4C255.5,116.9,255.4,116.9,255.3,116.9z M231.8,158.9c-0.1,0-0.2-0.1-0.2-0.1c-0.1-0.1,0-0.3,0.1-0.4
		l66.8-38.8c0.1-0.1,0.3,0,0.4,0.1c0.1,0.1,0,0.3-0.1,0.4L232,158.9C231.9,158.9,231.9,158.9,231.8,158.9z"/>
	<path class="st1" d="M118,217c0,0-0.1,0-0.1,0l-33-19.2c-0.1-0.1-0.1-0.1-0.1-0.2v-35.3c0-0.2,0.1-0.3,0.3-0.3s0.3,0.1,0.3,0.3
		v35.2l32.9,19.1c0.1,0.1,0.2,0.3,0.1,0.4C118.1,217,118.1,217,118,217z M138.3,205.3c0,0-0.1,0-0.1,0l-33-19.2
		c-0.1-0.1-0.1-0.1-0.1-0.2v-35.3c0-0.2,0.1-0.3,0.3-0.3c0.2,0,0.3,0.1,0.3,0.3v35.2l32.9,19.1c0.1,0.1,0.2,0.3,0.1,0.4
		C138.5,205.2,138.4,205.3,138.3,205.3z M158.6,193.5c0,0-0.1,0-0.1,0l-33-19.2c-0.1-0.1-0.1-0.1-0.1-0.2v-35.3
		c0-0.2,0.1-0.3,0.3-0.3c0.2,0,0.3,0.1,0.3,0.3v35.2l32.9,19.1c0.1,0.1,0.2,0.3,0.1,0.4C158.8,193.5,158.7,193.5,158.6,193.5z"/>
	<path class="st2" d="M82.1,145.1l0,15.4c0,0.4,0.3,0.8,0.8,1.2c1.1,0.6,2.9,0.6,4,0c0.6-0.3,0.8-0.8,0.8-1.2l0-15.4
		c0,0.4-0.3,0.8-0.8,1.2c-1.1,0.6-2.9,0.6-4,0C82.4,146,82.1,145.6,82.1,145.1z"/>
	<path class="st1" d="M84.9,162.4c-0.8,0-1.5-0.2-2.1-0.5c-0.6-0.4-1-0.9-1-1.4l0-15.4l0,0c0-0.2,0.1-0.3,0.3-0.3c0,0,0,0,0,0
		c0.2,0,0.3,0.1,0.3,0.3c0,0.3,0.2,0.7,0.7,0.9c1,0.6,2.7,0.6,3.7,0c0.5-0.3,0.7-0.6,0.7-0.9l0,0l0,0c0-0.2,0.1-0.3,0.3-0.3
		c0,0,0,0,0,0c0.2,0,0.3,0.1,0.3,0.3l0,15.4c0,0.5-0.3,1.1-1,1.4C86.5,162.3,85.7,162.4,84.9,162.4z M82.4,146.3l0,14.3
		c0,0.3,0.2,0.7,0.7,0.9c1,0.6,2.7,0.6,3.7,0c0.5-0.3,0.7-0.6,0.7-0.9l0-14.3c-0.1,0.1-0.3,0.2-0.4,0.3c-1.2,0.7-3.1,0.7-4.3,0
		C82.6,146.5,82.5,146.4,82.4,146.3z"/>
	<path class="st2" d="M82.9,144c-1.1,0.6-1.1,1.7,0,2.3c1.1,0.6,2.9,0.6,4,0c1.1-0.6,1.1-1.7,0-2.3C85.8,143.3,84,143.3,82.9,144z"
		/>
	<path class="st1" d="M84.9,147c-0.8,0-1.5-0.2-2.1-0.5c-0.6-0.4-1-0.9-1-1.4c0-0.5,0.3-1,1-1.4c1.2-0.7,3.1-0.7,4.3,0
		c0.6,0.4,1,0.9,1,1.4c0,0.5-0.3,1-1,1.4C86.4,146.9,85.7,147,84.9,147z M84.9,143.8c-0.7,0-1.3,0.1-1.9,0.4l0,0
		c-0.4,0.3-0.7,0.6-0.7,0.9s0.2,0.7,0.7,0.9c1,0.6,2.7,0.6,3.7,0c0.5-0.3,0.7-0.6,0.7-0.9c0-0.3-0.2-0.7-0.7-0.9
		C86.3,143.9,85.6,143.8,84.9,143.8z M82.9,144L82.9,144L82.9,144z"/>
	<path class="st2" d="M102.4,133.4l0,15.4c0,0.4,0.3,0.8,0.8,1.2c1.1,0.6,2.9,0.6,4,0c0.6-0.3,0.8-0.8,0.8-1.2l0-15.4
		c0,0.4-0.3,0.8-0.8,1.2c-1.1,0.6-2.9,0.6-4,0C102.7,134.2,102.4,133.8,102.4,133.4z"/>
	<path class="st1" d="M105.2,150.7c-0.8,0-1.5-0.2-2.1-0.5c-0.6-0.4-1-0.9-1-1.4l0-15.4v0l0,0c0-0.2,0.1-0.3,0.3-0.3h0
		c0.2,0,0.3,0.1,0.3,0.3l0,0v0c0,0.3,0.2,0.7,0.7,0.9c1,0.6,2.7,0.6,3.7,0c0.5-0.3,0.7-0.6,0.7-0.9l0,0l0,0c0-0.2,0.1-0.3,0.3-0.3
		c0,0,0,0,0,0c0.2,0,0.3,0.1,0.3,0.3l0,15.4c0,0.5-0.3,1.1-1,1.4C106.8,150.5,106,150.7,105.2,150.7z M102.7,134.5l0,14.3
		c0,0.3,0.2,0.7,0.7,0.9c1,0.6,2.7,0.6,3.7,0c0.5-0.3,0.7-0.6,0.7-0.9l0-14.3c-0.1,0.1-0.3,0.2-0.4,0.3c-1.2,0.7-3.1,0.7-4.3,0
		C102.9,134.7,102.8,134.6,102.7,134.5z"/>
	<path class="st2" d="M103.2,132.2c-1.1,0.6-1.1,1.7,0,2.3c1.1,0.6,2.9,0.6,4,0c1.1-0.6,1.1-1.7,0-2.3
		C106.1,131.6,104.3,131.6,103.2,132.2z"/>
	<path class="st1" d="M105.2,135.3c-0.8,0-1.5-0.2-2.1-0.5c-0.6-0.4-1-0.9-1-1.4c0-0.5,0.3-1,1-1.4l0,0c1.2-0.7,3.1-0.7,4.3,0
		c0.6,0.4,1,0.9,1,1.4c0,0.5-0.3,1-1,1.4C106.7,135.1,106,135.3,105.2,135.3z M103.4,132.5c-0.4,0.3-0.7,0.6-0.7,0.9
		c0,0.3,0.2,0.7,0.7,0.9c1,0.6,2.7,0.6,3.7,0c0.5-0.3,0.7-0.6,0.7-0.9c0-0.3-0.2-0.7-0.7-0.9C106.1,131.9,104.4,131.9,103.4,132.5
		L103.4,132.5z"/>
	<path class="st2" d="M122.7,121.6l0,15.4c0,0.4,0.3,0.8,0.8,1.2c1.1,0.6,2.9,0.6,4,0c0.6-0.3,0.8-0.8,0.8-1.2l0-15.4
		c0,0.4-0.3,0.8-0.8,1.2c-1.1,0.6-2.9,0.6-4,0C123,122.5,122.7,122.1,122.7,121.6z"/>
	<path class="st1" d="M125.5,139c-0.8,0-1.5-0.2-2.1-0.5c-0.6-0.4-1-0.9-1-1.4l0-15.4l0,0c0-0.2,0.1-0.3,0.3-0.3c0,0,0,0,0,0
		c0.2,0,0.3,0.1,0.3,0.3c0,0.3,0.2,0.7,0.7,0.9c1,0.6,2.7,0.6,3.7,0c0.5-0.3,0.7-0.6,0.7-0.9l0,0l0,0c0-0.2,0.1-0.3,0.3-0.3
		c0,0,0,0,0,0c0.2,0,0.3,0.1,0.3,0.3l0,15.4c0,0.5-0.3,1-1,1.4C127.1,138.8,126.3,139,125.5,139z M123,122.8l0,14.3
		c0,0.3,0.2,0.7,0.7,0.9c1,0.6,2.7,0.6,3.7,0c0.5-0.3,0.7-0.6,0.7-0.9l0-14.3c-0.1,0.1-0.3,0.2-0.4,0.3c-1.2,0.7-3.1,0.7-4.3,0
		C123.2,123,123.1,122.9,123,122.8z"/>
	<path class="st2" d="M123.5,120.5c-1.1,0.6-1.1,1.7,0,2.3c1.1,0.6,2.9,0.6,4,0c1.1-0.6,1.1-1.7,0-2.3
		C126.4,119.8,124.6,119.8,123.5,120.5z"/>
	<path class="st1" d="M125.5,123.6c-0.8,0-1.5-0.2-2.1-0.5c-0.6-0.4-1-0.9-1-1.4c0-0.5,0.3-1,1-1.4l0,0c1.2-0.7,3.1-0.7,4.3,0
		c0.6,0.4,1,0.9,1,1.4c0,0.5-0.3,1-1,1.4C127,123.4,126.3,123.6,125.5,123.6z M123.7,120.7c-0.4,0.3-0.7,0.6-0.7,0.9
		c0,0.3,0.2,0.7,0.7,0.9c1,0.6,2.7,0.6,3.7,0c0.5-0.3,0.7-0.6,0.7-0.9c0-0.3-0.2-0.7-0.7-0.9C126.4,120.1,124.7,120.1,123.7,120.7
		L123.7,120.7z"/>
	<path class="st1" d="M120.4,103.1l0.1,28c0,0.8,0.5,1.5,1.5,2.1c2,1.2,5.2,1.2,7.2,0c1-0.6,1.5-1.4,1.5-2.1l-0.1-28
		c0,0.8-0.5,1.5-1.5,2.1c-2,1.2-5.3,1.2-7.2,0C120.9,104.7,120.4,103.9,120.4,103.1z"/>
	<path class="st1" d="M125.6,134.4c-1.4,0-2.7-0.3-3.8-0.9c-1.1-0.6-1.6-1.4-1.6-2.3l-0.1-28l0,0l0,0c0-0.2,0.1-0.3,0.3-0.3
		c0,0,0,0,0,0c0.2,0,0.3,0.1,0.3,0.3c0,0.7,0.5,1.4,1.4,1.9c1.9,1.1,5,1.1,7,0c0.9-0.5,1.4-1.2,1.4-1.9l0,0c0-0.2,0.1-0.3,0.3-0.3
		c0,0,0,0,0,0c0.2,0,0.3,0.1,0.3,0.3l0.1,28c0,0.9-0.6,1.7-1.7,2.4C128.3,134.1,126.9,134.4,125.6,134.4z M120.6,104.6l0.1,26.5
		c0,0.7,0.5,1.4,1.4,1.9c1.9,1.1,5,1.1,7,0c0.9-0.5,1.4-1.2,1.4-1.9l-0.1-26.5c-0.3,0.3-0.6,0.6-1.1,0.9c-2.1,1.2-5.5,1.2-7.5,0
		C121.3,105.2,120.9,104.9,120.6,104.6z"/>
	<path class="st1" d="M121.9,101c-2,1.2-2,3,0,4.2c2,1.2,5.2,1.2,7.2,0c2-1.2,2-3.1,0-4.2C127.1,99.9,123.9,99.9,121.9,101z"/>
	<path class="st1" d="M125.5,106.4c-1.4,0-2.7-0.3-3.8-0.9c-1.1-0.6-1.6-1.5-1.6-2.4c0-0.9,0.6-1.7,1.6-2.3l0,0
		c2.1-1.2,5.4-1.2,7.6,0c1,0.6,1.6,1.4,1.6,2.3c0,0.9-0.6,1.7-1.7,2.4C128.2,106.1,126.8,106.4,125.5,106.4z M122,101.3L122,101.3
		c-0.9,0.5-1.4,1.2-1.4,1.9c0,0.7,0.5,1.4,1.4,1.9c1.9,1.1,5,1.1,7,0c0.9-0.5,1.4-1.2,1.4-1.9c0-0.7-0.5-1.3-1.3-1.9
		C127.1,100.2,123.9,100.2,122,101.3z M100.1,114.9l0.1,28c0,0.8,0.5,1.5,1.5,2.1c2,1.2,5.2,1.2,7.2,0c1-0.6,1.5-1.4,1.5-2.1
		l-0.1-28c0,0.8-0.5,1.5-1.5,2.1c-2,1.2-5.3,1.2-7.2,0C100.6,116.4,100.1,115.7,100.1,114.9z"/>
	<path class="st1" d="M105.3,146.1c-1.4,0-2.7-0.3-3.8-0.9c-1.1-0.6-1.6-1.4-1.6-2.3l-0.1-28l0,0l0,0c0-0.2,0.1-0.3,0.3-0.3
		c0,0,0,0,0,0c0.2,0,0.3,0.1,0.3,0.3c0,0.7,0.5,1.4,1.4,1.9c1.9,1.1,5,1.1,7,0c0.9-0.5,1.4-1.2,1.4-1.9l0,0c0-0.2,0.1-0.3,0.3-0.3
		c0,0,0,0,0,0c0.2,0,0.3,0.1,0.3,0.3l0.1,28c0,0.9-0.6,1.8-1.7,2.4C108,145.8,106.6,146.1,105.3,146.1z M100.3,116.4l0.1,26.5
		c0,0.7,0.5,1.4,1.4,1.9c1.9,1.1,5,1.1,7,0c0.9-0.5,1.4-1.2,1.4-1.9l-0.1-26.5c-0.3,0.3-0.6,0.6-1.1,0.9c-2.1,1.2-5.5,1.2-7.5,0
		C101,117,100.6,116.7,100.3,116.4z"/>
	<path class="st1" d="M101.6,112.8c-2,1.2-2,3,0,4.2c2,1.2,5.2,1.2,7.2,0c2-1.2,2-3.1,0-4.2C106.8,111.6,103.6,111.6,101.6,112.8z"
		/>
	<path class="st1" d="M105.2,118.1c-1.4,0-2.7-0.3-3.8-0.9c-1.1-0.6-1.6-1.5-1.6-2.4c0-0.9,0.6-1.7,1.6-2.3c2.1-1.2,5.5-1.2,7.6,0
		c1,0.6,1.6,1.4,1.6,2.3c0,0.9-0.6,1.7-1.7,2.4C107.9,117.8,106.5,118.1,105.2,118.1z M105.2,112.2c-1.3,0-2.5,0.3-3.5,0.8l0,0
		c-0.9,0.5-1.4,1.2-1.4,1.9c0,0.7,0.5,1.4,1.4,1.9c1.9,1.1,5,1.1,7,0c0.9-0.5,1.4-1.2,1.4-1.9c0-0.7-0.5-1.3-1.3-1.8
		C107.7,112.5,106.5,112.2,105.2,112.2z M101.6,112.8L101.6,112.8L101.6,112.8z M79.8,126.6l0.1,28c0,0.8,0.5,1.5,1.5,2.1
		c2,1.2,5.2,1.2,7.2,0c1-0.6,1.5-1.4,1.5-2.1l-0.1-28c0,0.8-0.5,1.5-1.5,2.1c-2,1.2-5.3,1.2-7.2,0C80.3,128.2,79.8,127.4,79.8,126.6
		z"/>
	<path class="st1" d="M85,157.9c-1.4,0-2.7-0.3-3.8-0.9c-1.1-0.6-1.6-1.5-1.6-2.3l-0.1-28l0,0l0,0c0-0.2,0.1-0.3,0.3-0.3
		c0,0,0,0,0,0c0.2,0,0.3,0.1,0.3,0.3c0,0.7,0.5,1.4,1.4,1.9c1.9,1.1,5,1.1,7,0c0.9-0.5,1.4-1.2,1.4-1.9c0-0.2,0.1-0.3,0.3-0.3
		c0,0,0,0,0,0c0.2,0,0.3,0.1,0.3,0.3l0.1,28c0,0.9-0.6,1.8-1.7,2.4C87.7,157.6,86.3,157.9,85,157.9z M80,128.1l0.1,26.5
		c0,0.7,0.5,1.4,1.4,1.9c1.9,1.1,5,1.1,7,0c0.9-0.5,1.4-1.2,1.4-1.9l-0.1-26.5c-0.3,0.3-0.6,0.6-1.1,0.9c-2.1,1.2-5.5,1.2-7.5,0
		C80.7,128.7,80.3,128.4,80,128.1z"/>
	<g>
		<path class="st1" d="M81.3,124.5c-2,1.2-2,3,0,4.2c2,1.2,5.2,1.2,7.2,0c2-1.2,2-3.1,0-4.2C86.5,123.4,83.3,123.4,81.3,124.5z"/>
		<path class="st1" d="M84.9,129.9c-1.4,0-2.7-0.3-3.8-0.9c-1.1-0.6-1.6-1.5-1.6-2.4c0-0.9,0.6-1.7,1.6-2.3l0,0
			c2.1-1.2,5.5-1.2,7.6,0c1,0.6,1.6,1.4,1.6,2.3c0,0.9-0.6,1.7-1.7,2.4C87.6,129.6,86.2,129.9,84.9,129.9z M81.4,124.8
			c-0.9,0.5-1.4,1.2-1.4,1.9c0,0.7,0.5,1.4,1.4,1.9c1.9,1.1,5,1.1,7,0c0.9-0.5,1.4-1.2,1.4-1.9c0-0.7-0.5-1.3-1.3-1.8
			C86.5,123.6,83.3,123.6,81.4,124.8L81.4,124.8z"/>
	</g>
	<g>
		<path class="st1" d="M168.7,64.5c-3.4-2-8.2-1.7-13.4,1.3c-2.8,1.6-5.5,3.9-7.8,6.5l-11-6.4c2.4-2.7,5.1-4.9,7.9-6.5
			c5.2-3,10-3.3,13.4-1.3L168.7,64.5z"/>
		<path class="st1" d="M147.5,72.6c0,0-0.1,0-0.1,0l-11-6.4c-0.1,0-0.1-0.1-0.1-0.2c0-0.1,0-0.2,0.1-0.2c2.5-2.8,5.2-5,7.9-6.6
			c5.1-3,10-3.5,13.7-1.3l10.9,6.4c0,0,0,0,0,0c0.1,0.1,0.2,0.3,0.1,0.4c-0.1,0.1-0.3,0.2-0.4,0.1l0,0c0,0,0,0,0,0l0,0
			c-3.5-2-8.1-1.5-13.1,1.3c-2.7,1.6-5.3,3.8-7.8,6.5C147.6,72.6,147.5,72.6,147.5,72.6z M136.9,65.9l10.5,6.1
			c2.4-2.7,5-4.8,7.8-6.4c3.8-2.2,7.5-3,10.6-2.4l-8.2-4.8c-3.5-2-8.1-1.6-13.1,1.3C141.8,61.2,139.3,63.3,136.9,65.9z"/>
		<path class="st1" d="M145.4,62.6c-1.6-1-3.9-0.8-6.3,0.6c-1.9,1.1-3.6,2.8-5,4.7l-11-6.4c1.4-2,3.2-3.7,5-4.7
			c2.5-1.4,4.7-1.6,6.4-0.6L145.4,62.6z"/>
		<path class="st1" d="M134.1,68.2c0,0-0.1,0-0.1,0l-11-6.4c-0.1,0-0.1-0.1-0.1-0.2c0-0.1,0-0.2,0-0.2c1.5-2,3.3-3.7,5.1-4.8
			c2.5-1.4,4.9-1.7,6.6-0.6l10.9,6.4c0,0,0,0,0,0c0.1,0.1,0.2,0.3,0.1,0.4c-0.1,0.1-0.2,0.2-0.4,0.1l0,0l0,0l0,0
			c-1.6-0.9-3.7-0.7-6,0.6c-1.7,1-3.5,2.6-5,4.6C134.2,68.1,134.1,68.2,134.1,68.2z M123.5,61.4l10.5,6.1c1.5-2,3.2-3.6,5-4.6
			c1.5-0.9,3-1.3,4.4-1.3l-9-5.3c-1.6-0.9-3.8-0.7-6.1,0.6C126.6,58,124.9,59.5,123.5,61.4z M52.7,162.2l-11-6.4
			c-3.4-2-5.5-6.2-5.5-12.1c0-12,8.4-26.6,18.8-32.6c1.4-0.8,2.8-1.4,4.1-1.8l11,6.4c-1.3,0.4-2.7,1-4.1,1.8
			c-10.4,6-18.8,20.6-18.8,32.6C47.3,156,49.4,160.2,52.7,162.2z"/>
		<path class="st1" d="M52.7,162.4c0,0-0.1,0-0.1,0c0,0,0,0,0,0l-11-6.4c-3.6-2.1-5.6-6.5-5.6-12.3c0-12,8.5-26.8,18.9-32.8
			c1.4-0.8,2.8-1.4,4.1-1.9c0.1,0,0.2,0,0.2,0l11,6.4c0.1,0.1,0.1,0.2,0.1,0.3c0,0.1-0.1,0.2-0.2,0.2c-1.3,0.4-2.7,1-4,1.8
			c-10.3,6-18.7,20.5-18.6,32.3c0,5.7,1.9,9.9,5.4,11.9l0,0c0.1,0.1,0.2,0.3,0.1,0.4C52.9,162.4,52.8,162.4,52.7,162.4z M59.1,109.5
			c-1.3,0.4-2.6,1-3.9,1.8c-10.3,6-18.7,20.5-18.6,32.3c0,5.7,1.9,9.9,5.4,11.9l8.2,4.8c-2-2.4-3.1-5.9-3.1-10.2
			c0-12,8.5-26.8,18.9-32.8c1.2-0.7,2.4-1.2,3.5-1.7L59.1,109.5z"/>
		<g>
			<path class="st1" d="M124.5,44.9c-6-3.5-14.3-3-23.4,2.3c-18.2,10.5-32.9,36.1-32.8,57c0,4.4,0.7,8.2,1.9,11.4l-11-6.4
				c-1.2-3.2-1.9-7.1-1.9-11.4c0-20.9,14.6-46.4,32.9-57c9.1-5.3,17.4-5.8,23.4-2.3L124.5,44.9z"/>
			<path class="st1" d="M70.1,115.9c0,0-0.1,0-0.1,0l-11-6.4c-0.1,0-0.1-0.1-0.1-0.1c-1.2-3.3-1.9-7.2-1.9-11.5
				c0-21,14.8-46.7,33-57.2c8.9-5.2,17.3-6,23.7-2.3l11,6.4c0,0,0,0,0,0l0,0c0.1,0.1,0.2,0.3,0.1,0.4c-0.1,0.1-0.3,0.2-0.4,0.1l0,0
				c-6.2-3.6-14.4-2.8-23.1,2.3c-18.1,10.5-32.8,35.9-32.7,56.7c0,4.2,0.6,8,1.8,11.3c0,0.1,0,0.2-0.1,0.3
				C70.2,115.9,70.2,115.9,70.1,115.9z M59.4,109l10.2,6c-1.1-3.2-1.6-6.8-1.6-10.8c-0.1-21,14.7-46.7,33-57.2
				c7.2-4.2,14-5.5,19.8-3.9l-7.3-4.3C107.2,35.2,99,36,90.3,41C72.2,51.5,57.5,77,57.5,97.8C57.6,102,58.2,105.8,59.4,109z"/>
		</g>
		<g>
			<path class="st2" d="M101.1,47.2c18.2-10.5,33-2,33,18.9c0,0.6,0,1.2-0.1,1.8c1.4-1.9,3.2-3.6,5-4.7c4.9-2.9,8.9-0.6,9,5.1
				c0,1.3-0.2,2.7-0.6,4.1c2.4-2.7,5.1-4.9,7.9-6.5c10.4-6,18.8-1.2,18.9,10.8c0,12-8.4,26.6-18.8,32.6c-10.4,6-78.9,45.6-89.2,51.6
				c-10.4,6-18.9,1.2-18.9-10.8c0-12,8.4-26.6,18.8-32.6c1.4-0.8,2.8-1.4,4.1-1.8c-1.2-3.2-1.9-7-1.9-11.4
				C68.2,83.3,82.9,57.7,101.1,47.2z"/>
			<path class="st1" d="M57.7,163.7c-1.8,0-3.5-0.4-5-1.3c-3.6-2.1-5.7-6.5-5.7-12.4c0-12,8.5-26.8,18.9-32.8
				c1.3-0.7,2.6-1.3,3.8-1.8c-1.2-3.3-1.8-7.1-1.8-11.3c-0.1-21,14.7-46.7,33-57.2l0,0c8.9-5.1,17.3-6,23.6-2.3
				c6.3,3.6,9.8,11.2,9.8,21.5c0,0.3,0,0.6,0,0.9c1.4-1.7,3-3.1,4.6-4.1c2.5-1.4,4.8-1.7,6.6-0.6c1.8,1,2.8,3.1,2.8,6
				c0,1-0.1,2-0.3,3.1c2.3-2.4,4.7-4.3,7.2-5.8c5.1-3,10-3.4,13.6-1.3c3.6,2.1,5.7,6.5,5.7,12.4c0,12-8.4,26.8-18.9,32.8
				c-10.4,6-78.9,45.6-89.2,51.6C63.3,162.8,60.3,163.7,57.7,163.7z M101.2,47.4L101.2,47.4c-18.1,10.5-32.8,35.9-32.7,56.7
				c0,4.3,0.6,8.1,1.9,11.3c0,0.1,0,0.2,0,0.2c0,0.1-0.1,0.1-0.2,0.1c-1.3,0.4-2.7,1-4,1.8c-10.3,6-18.7,20.5-18.6,32.3
				c0,5.7,1.9,9.9,5.4,11.9c3.5,2,8.1,1.5,13.1-1.3c10.4-6,78.8-45.6,89.2-51.6c10.3-6,18.7-20.5,18.6-32.3c0-5.7-1.9-9.9-5.4-11.9
				c-3.5-2-8.1-1.5-13.1,1.3c-2.7,1.6-5.3,3.7-7.8,6.5c-0.1,0.1-0.2,0.1-0.3,0.1c-0.1-0.1-0.2-0.2-0.1-0.3c0.4-1.4,0.6-2.8,0.6-4
				c0-2.6-0.9-4.6-2.5-5.5c-1.6-0.9-3.7-0.7-6,0.6c-1.8,1-3.5,2.7-4.9,4.6c-0.1,0.1-0.2,0.1-0.3,0.1c-0.1,0-0.2-0.2-0.2-0.3
				c0-0.6,0.1-1.2,0.1-1.8c0-10-3.4-17.4-9.5-21C118.1,41.6,109.9,42.4,101.2,47.4z"/>
		</g>
	</g>
	<g>
		<path class="st1" d="M89.2,107.4c2.4-1.4,4.3-0.3,4.3,2.5c0,2.7-1.9,6.1-4.3,7.4c-2.4,1.4-4.3,0.3-4.3-2.5
			C84.9,112.1,86.8,108.7,89.2,107.4z"/>
	</g>
	<g>
		<path class="st1" d="M107.2,97c2.4-1.4,4.3-0.3,4.3,2.5c0,2.7-1.9,6.1-4.3,7.4c-2.4,1.4-4.3,0.3-4.3-2.5
			C102.9,101.7,104.8,98.3,107.2,97z"/>
	</g>
	<g>
		<path class="st1" d="M125.2,86.6c2.4-1.4,4.3-0.3,4.3,2.5c0,2.7-1.9,6.1-4.3,7.5c-2.4,1.4-4.3,0.3-4.3-2.5
			C120.9,91.3,122.8,87.9,125.2,86.6z"/>
	</g>
	<g>
		<path class="st2" d="M37.7,305.3c-1.9,1.1-1.9,2.8,0,3.9l23.7,13.8c1.9,1.1,4.9,1.1,6.7,0l23.8-13.8c1.9-1.1,1.9-2.8,0-3.9
			l-23.7-13.8c-1.9-1.1-4.9-1.1-6.7,0L37.7,305.3z"/>
		<path class="st0" d="M64.7,324c-1.3,0-2.5-0.3-3.5-0.8l-23.7-13.8c-1-0.6-1.5-1.3-1.5-2.2c0-0.8,0.5-1.6,1.5-2.2l23.8-13.8
			c1.9-1.1,5.1-1.1,7,0L92.1,305c1,0.6,1.5,1.3,1.5,2.2c0,0.8-0.5,1.6-1.5,2.2l-23.8,13.8C67.2,323.7,66,324,64.7,324z M37.8,305.5
			L37.8,305.5c-0.8,0.5-1.3,1.1-1.3,1.7c0,0.6,0.4,1.2,1.2,1.7l23.7,13.8c1.8,1,4.7,1,6.4,0l23.8-13.8c0.8-0.5,1.3-1.1,1.3-1.7
			c0-0.6-0.4-1.2-1.2-1.7l-23.7-13.8c-1.8-1-4.7-1-6.4,0L37.8,305.5z"/>
	</g>
	<g>
		<path class="st2" d="M74.3,301.7c5.3,3.1,5.3,8,0.1,11.1c-5.3,3.1-13.8,3.1-19.1,0c-5.3-3.1-5.3-8-0.1-11.1
			C60.5,298.6,69,298.6,74.3,301.7z"/>
		<path class="st1" d="M64.8,315.3c-3.5,0-7-0.8-9.7-2.3c-2.7-1.5-4.1-3.6-4.1-5.8c0-2.2,1.4-4.2,4.1-5.8c5.3-3.1,14.1-3.1,19.4,0
			l0,0c2.7,1.5,4.1,3.6,4.1,5.8c0,2.2-1.4,4.2-4.1,5.8C71.9,314.5,68.4,315.3,64.8,315.3z M64.8,299.6c-3.4,0-6.8,0.8-9.4,2.3
			c-2.5,1.4-3.8,3.3-3.8,5.3c0,2,1.4,3.9,3.8,5.3c5.2,3,13.7,3,18.9,0c2.5-1.4,3.8-3.3,3.8-5.3c0-2-1.4-3.9-3.9-5.3l0,0
			C71.6,300.4,68.2,299.6,64.8,299.6z"/>
	</g>
	<g>
		<path class="st2" d="M56,279.2l0.1,27.1c0,1.3,0.8,2.6,2.5,3.6c3.4,2,8.9,2,12.3,0c1.7-1,2.6-2.3,2.6-3.6l-0.1-27.1
			c0,1.3-0.9,2.6-2.6,3.6c-3.4,2-8.9,2-12.3,0C56.9,281.8,56,280.5,56,279.2z"/>
		<path class="st0" d="M58.6,282.8c1.7,1,3.9,1.5,6.1,1.5v27.1c-2.2,0-4.4-0.5-6-1.5c-1.7-1-2.5-2.3-2.5-3.6L56,279.2
			C56,280.5,56.9,281.8,58.6,282.8z"/>
		<path class="st1" d="M64.8,311.6c-2.3,0-4.6-0.5-6.3-1.5c-1.7-1-2.7-2.3-2.7-3.8l-0.1-27.1c0,0,0,0,0,0v0l0,0
			c0-0.2,0.1-0.3,0.3-0.3h0c0.2,0,0.3,0.1,0.3,0.3v0c0,1.2,0.9,2.4,2.4,3.3c3.3,1.9,8.7,1.9,12,0c1.6-0.9,2.4-2.1,2.4-3.3l0,0l0,0
			c0-0.2,0.1-0.3,0.3-0.3h0c0.2,0,0.3,0.1,0.3,0.3l0.1,27.1c0,1.5-1,2.8-2.7,3.8C69.4,311.1,67.1,311.6,64.8,311.6z M56.3,281.1
			l0.1,25.2c0,1.2,0.9,2.4,2.4,3.3c3.3,1.9,8.7,1.9,12,0c1.6-0.9,2.4-2.1,2.4-3.3L73.2,281c-0.5,0.7-1.2,1.4-2.2,2
			c-3.5,2-9.1,2-12.6,0C57.5,282.4,56.8,281.8,56.3,281.1z"/>
		<path class="st1" d="M64.7,284.5c-2.3,0-4.6-0.5-6.3-1.5c-1.7-1-2.7-2.4-2.7-3.8c0-1.5,1-2.8,2.7-3.8l0,0c3.5-2,9.1-2,12.6,0
			c1.7,1,2.7,2.4,2.7,3.8c0,1.5-1,2.8-2.7,3.8C69.3,284,67,284.5,64.7,284.5z M58.7,275.8L58.7,275.8c-1.6,0.9-2.4,2.1-2.4,3.3
			c0,1.2,0.9,2.4,2.4,3.3c3.3,1.9,8.7,1.9,12,0c1.6-0.9,2.4-2.1,2.4-3.3c0-1.2-0.8-2.4-2.4-3.3C67.5,273.9,62.1,273.9,58.7,275.8z"
			/>
	</g>
	<g>
		<path class="st2" d="M59,260.5l0.1,17.9c0,0.9,0.6,1.7,1.7,2.4c2.3,1.3,5.9,1.3,8.2,0c1.1-0.7,1.7-1.5,1.7-2.4l-0.1-17.9
			c0,0.9-0.6,1.7-1.7,2.4c-2.3,1.3-5.9,1.3-8.2,0C59.5,262.2,59,261.3,59,260.5z"/>
		<path class="st0" d="M60.7,262.8c1.1,0.6,2.6,1,4,1v17.9c-1.4,0-2.9-0.3-4-1c-1.1-0.7-1.7-1.5-1.7-2.4L59,260.5
			C59,261.3,59.5,262.2,60.7,262.8z"/>
		<path class="st1" d="M64.8,282c-1.5,0-3.1-0.3-4.2-1c-1.2-0.7-1.8-1.6-1.8-2.6l-0.1-17.9c0,0,0,0,0,0v0l0,0c0-0.2,0.1-0.3,0.3-0.3
			h0c0.2,0,0.3,0.1,0.3,0.3v0c0,0.8,0.6,1.5,1.5,2.1c2.2,1.3,5.7,1.3,7.9,0c1-0.6,1.6-1.3,1.6-2.1l0,0l0,0c0-0.2,0.1-0.3,0.3-0.3h0
			c0.2,0,0.3,0.1,0.3,0.3l0.1,17.9c0,1-0.7,1.9-1.8,2.6C67.9,281.7,66.4,282,64.8,282z M59.3,262l0.1,16.4c0,0.8,0.6,1.5,1.5,2.1
			c2.2,1.3,5.7,1.3,7.9,0c1-0.6,1.6-1.3,1.6-2.1L70.3,262c-0.3,0.4-0.7,0.8-1.3,1.1c-2.3,1.4-6.2,1.4-8.5,0
			C60,262.7,59.6,262.4,59.3,262z"/>
		<path class="st3" d="M60.7,258.1c-2.3,1.3-2.3,3.4,0,4.8c2.3,1.3,5.9,1.3,8.2,0c2.3-1.3,2.3-3.4,0-4.7
			C66.6,256.8,62.9,256.8,60.7,258.1z"/>
		<path class="st1" d="M64.7,264.1c-1.5,0-3.1-0.3-4.2-1c-1.2-0.7-1.8-1.6-1.8-2.6c0-1,0.7-1.9,1.9-2.6l0,0c2.3-1.4,6.1-1.3,8.5,0
			c1.2,0.7,1.8,1.6,1.8,2.6c0,1-0.7,1.9-1.8,2.6C67.8,263.7,66.3,264.1,64.7,264.1z M60.8,258.3c-1,0.6-1.6,1.3-1.6,2.1
			c0,0.8,0.5,1.5,1.5,2.1c2.2,1.3,5.7,1.3,7.9,0c1-0.6,1.6-1.3,1.6-2.1c0-0.8-0.5-1.5-1.5-2.1C66.6,257,63,257,60.8,258.3
			L60.8,258.3z"/>
		<g>
			
				<linearGradient id="SVGID_1_" gradientUnits="userSpaceOnUse" x1="2590.6038" y1="-3607.5847" x2="2590.6038" y2="-3456.2556" gradientTransform="matrix(0.144 0 0 -0.144 -308.2843 -255.176)">
				<stop  offset="0" style="stop-color:#5FE4D4;stop-opacity:0.9"/>
				<stop  offset="1" style="stop-color:#FFFFFF;stop-opacity:0"/>
			</linearGradient>
			<path class="st4" d="M70.2,241.5v18.9c0,0.8-0.6,1.6-1.6,2.2c-2.2,1.2-5.6,1.2-7.8,0c-1-0.6-1.5-1.4-1.6-2.2v-18.9L70.2,241.5
				L70.2,241.5z"/>
		</g>
	</g>
	<g>
		<path class="st2" d="M190.8,90.4c-1.6,0.9-1.6,2.4,0,3.3l20.1,11.7c1.6,0.9,4.1,0.9,5.7,0l20.2-11.7c1.6-0.9,1.6-2.4,0-3.3
			l-20.1-11.7c-1.6-0.9-4.1-0.9-5.7,0L190.8,90.4z"/>
		<path class="st0" d="M213.8,106.4c-1.1,0-2.2-0.2-3-0.7L190.7,94c-0.8-0.5-1.3-1.2-1.3-1.9c0-0.7,0.5-1.4,1.3-1.9l0,0l20.2-11.7
			c1.7-1,4.3-1,6,0L237,90.2c0.8,0.5,1.3,1.2,1.3,1.9c0,0.7-0.5,1.4-1.3,1.9l-20.2,11.7C215.9,106.2,214.9,106.4,213.8,106.4z
			 M191,90.7c-0.7,0.4-1.1,0.9-1.1,1.4c0,0.5,0.4,1,1,1.4l20.1,11.7c1.5,0.9,3.9,0.9,5.4,0l20.2-11.7c0.7-0.4,1.1-0.9,1.1-1.4
			c0-0.5-0.4-1-1-1.4L216.6,79c-1.5-0.9-3.9-0.9-5.4,0L191,90.7z"/>
	</g>
	<g>
		<path class="st2" d="M221.9,87.4c4.5,2.6,4.5,6.8,0,9.4c-4.5,2.6-11.8,2.6-16.3,0c-4.5-2.6-4.5-6.8,0-9.4
			C210.2,84.8,217.5,84.8,221.9,87.4z"/>
		<path class="st1" d="M213.9,99c-3,0-6-0.7-8.3-2c-2.3-1.3-3.5-3.1-3.5-5c0-1.9,1.2-3.6,3.5-4.9c4.6-2.6,12-2.6,16.5,0
			c2.3,1.3,3.5,3.1,3.5,5c0,1.9-1.2,3.6-3.5,4.9C219.9,98.4,216.9,99,213.9,99z M213.8,85.7c-2.9,0-5.8,0.6-8,1.9
			c-2.1,1.2-3.2,2.8-3.2,4.5c0,1.7,1.2,3.3,3.2,4.5c4.4,2.6,11.6,2.6,16,0c2.1-1.2,3.2-2.8,3.2-4.5c0-1.7-1.2-3.3-3.3-4.5l0,0
			C219.6,86.3,216.7,85.7,213.8,85.7z"/>
	</g>
	<g>
		<path class="st2" d="M206.4,68.3l0.1,23c0,1.1,0.7,2.2,2.2,3c2.9,1.7,7.6,1.7,10.5,0c1.5-0.8,2.2-1.9,2.2-3.1l-0.1-23
			c0,1.1-0.7,2.2-2.2,3.1c-2.9,1.7-7.6,1.7-10.5,0C207.1,70.5,206.4,69.4,206.4,68.3z"/>
		<path class="st0" d="M208.6,71.3c1.4,0.8,3.3,1.2,5.2,1.3v23c-1.9,0-3.7-0.4-5.1-1.2c-1.4-0.8-2.2-1.9-2.2-3l-0.1-23
			C206.4,69.4,207.1,70.5,208.6,71.3z"/>
		<path class="st1" d="M213.9,95.9c-1.9,0-3.9-0.4-5.4-1.3c-1.5-0.9-2.3-2-2.3-3.3l-0.1-23c0,0,0,0,0,0v0l0,0c0-0.2,0.1-0.3,0.3-0.3
			c0,0,0,0,0,0c0.2,0,0.3,0.1,0.3,0.3v0c0,1,0.7,2,2,2.8c2.8,1.6,7.4,1.6,10.2,0c1.3-0.8,2-1.8,2-2.8l0,0l0,0c0-0.2,0.1-0.3,0.3-0.3
			c0,0,0,0,0,0c0.2,0,0.3,0.1,0.3,0.3l0.1,23c0,1.3-0.8,2.4-2.3,3.3C217.8,95.4,215.8,95.9,213.9,95.9z M206.7,70l0.1,21.3
			c0,1,0.7,2,2,2.8c2.8,1.6,7.4,1.6,10.2,0c1.3-0.8,2-1.8,2-2.8L220.9,70c-0.4,0.6-1,1.1-1.8,1.6c-3,1.7-7.8,1.7-10.8,0
			C207.7,71.1,207.1,70.6,206.7,70z"/>
		<path class="st1" d="M213.8,72.9c-1.9,0-3.9-0.4-5.4-1.3c-1.5-0.9-2.3-2-2.3-3.3c0-1.3,0.8-2.4,2.3-3.3l0,0c3-1.7,7.8-1.7,10.8,0
			c1.5,0.9,2.3,2,2.3,3.3c0,1.3-0.8,2.4-2.3,3.3C217.7,72.4,215.7,72.9,213.8,72.9z M213.8,64.3c-1.8,0-3.7,0.4-5.1,1.2l0,0
			c-1.3,0.8-2,1.8-2,2.8c0,1,0.7,2,2,2.8c2.8,1.6,7.4,1.6,10.2,0c1.3-0.8,2-1.8,2-2.8c0-1-0.7-2-2-2.8
			C217.5,64.7,215.7,64.3,213.8,64.3z M208.6,65.3L208.6,65.3L208.6,65.3z"/>
	</g>
	<g>
		<path class="st2" d="M208.9,52.4l0.1,15.2c0,0.7,0.5,1.5,1.4,2c1.9,1.1,5,1.1,7,0c1-0.6,1.5-1.3,1.5-2l-0.1-15.2
			c0,0.7-0.5,1.5-1.5,2c-1.9,1.1-5,1.1-7,0C209.4,53.8,208.9,53.1,208.9,52.4z"/>
		<path class="st0" d="M210.3,54.4c0.9,0.5,2.2,0.8,3.4,0.8v15.2c-1.2,0-2.4-0.3-3.4-0.8c-1-0.6-1.4-1.3-1.4-2l-0.1-15.2
			C208.9,53.1,209.4,53.8,210.3,54.4z"/>
		<path class="st1" d="M213.9,70.7c-1.3,0-2.6-0.3-3.6-0.9c-1-0.6-1.6-1.4-1.6-2.2l-0.1-15.2c0,0,0,0,0,0v0c0,0,0,0,0,0
			c0-0.2,0.1-0.3,0.3-0.3c0,0,0,0,0,0c0.2,0,0.3,0.1,0.3,0.3v0c0,0.7,0.5,1.3,1.3,1.8c1.8,1.1,4.8,1.1,6.7,0
			c0.8-0.5,1.3-1.1,1.3-1.8l0,0l0,0c0-0.2,0.1-0.3,0.3-0.3h0c0.2,0,0.3,0.1,0.3,0.3l0.1,15.2c0,0.9-0.6,1.7-1.6,2.3
			C216.5,70.4,215.2,70.7,213.9,70.7z M209.2,53.8l0.1,13.8c0,0.7,0.5,1.3,1.3,1.8c1.8,1.1,4.8,1.1,6.7,0c0.8-0.5,1.3-1.1,1.3-1.8
			l-0.1-13.8c-0.3,0.3-0.6,0.6-1,0.8c-2,1.2-5.3,1.2-7.2,0C209.8,54.4,209.4,54.1,209.2,53.8z"/>
		<path class="st3" d="M210.3,50.3c-1.9,1.1-1.9,2.9,0,4c1.9,1.1,5,1.1,7,0c1.9-1.1,1.9-2.9,0-4C215.4,49.2,212.3,49.2,210.3,50.3z"
			/>
		<path class="st1" d="M213.8,55.5c-1.3,0-2.6-0.3-3.6-0.9c-1-0.6-1.6-1.4-1.6-2.3c0-0.9,0.6-1.7,1.6-2.3l0,0c2-1.2,5.3-1.2,7.2,0
			c1,0.6,1.6,1.4,1.6,2.3c0,0.9-0.6,1.7-1.6,2.3C216.4,55.2,215.1,55.5,213.8,55.5z M210.5,50.6c-0.8,0.5-1.3,1.1-1.3,1.8
			c0,0.7,0.5,1.3,1.3,1.8c1.8,1.1,4.8,1.1,6.7,0c0.8-0.5,1.3-1.1,1.3-1.8c0-0.7-0.5-1.3-1.3-1.8C215.3,49.5,212.3,49.5,210.5,50.6
			L210.5,50.6z"/>
		<g>
			
				<linearGradient id="SVGID_00000131333797408794969640000006282106748129798327_" gradientUnits="userSpaceOnUse" x1="3625.6787" y1="-2158.5925" x2="3625.6787" y2="-2030.0616" gradientTransform="matrix(0.144 0 0 -0.144 -308.2843 -255.176)">
				<stop  offset="0" style="stop-color:#5FE4D4;stop-opacity:0.9"/>
				<stop  offset="1" style="stop-color:#FFFFFF;stop-opacity:0"/>
			</linearGradient>
			<path style="fill:url(#SVGID_00000131333797408794969640000006282106748129798327_);" d="M218.5,36.3v16c0,0.7-0.5,1.3-1.4,1.8
				c-1.8,1.1-4.8,1.1-6.6,0c-0.9-0.5-1.3-1.2-1.3-1.8v-16H218.5z"/>
		</g>
	</g>
	<g class="st6">
		<path class="st7" d="M311.4,266.9l-95.9,55.2c-3.9,2.2-10.1,2.2-13.9,0L98.9,262.2l-30.3-17.6c-3.8-2.2-3.8-5.8,0.1-8.1l95.9-55.2
			c3.9-2.2,10.1-2.2,13.9,0l11.9,7l121.1,70.5C315.3,261,315.3,264.6,311.4,266.9z"/>
	</g>
	<g>
		<path class="st8" d="M315.6,246.2c0,1.5-1,2.9-2.9,4.1l-95.9,55.2c-0.9,0.5-1.9,0.9-3,1.2c-2.7,0.7-5.9,0.6-8.5-0.2
			c-0.9-0.3-1.7-0.6-2.4-1L69.9,228c-1.9-1.1-2.8-2.6-2.9-4v9c0,1.4,1,2.9,2.9,4l133,77.5c0.7,0.4,1.5,0.8,2.3,1
			c2.6,0.8,5.8,0.9,8.5,0.2c1.1-0.3,2.1-0.7,3-1.2l95.9-55.2c1.9-1.1,2.9-2.6,2.9-4L315.6,246.2z"/>
		<path class="st1" d="M199.4,312.7c-0.2,0-0.3-0.1-0.3-0.3v-9c0-0.2,0.1-0.3,0.3-0.3c0.2,0,0.3,0.1,0.3,0.3v9
			C199.7,312.5,199.6,312.7,199.4,312.7z M81.8,244.2c-0.2,0-0.3-0.1-0.3-0.3v-9c0-0.2,0.1-0.3,0.3-0.3c0.2,0,0.3,0.1,0.3,0.3v9
			C82.1,244.1,82,244.2,81.8,244.2z"/>
		<path class="st9" d="M213.8,306.6c-2.7,0.7-5.9,0.6-8.5-0.2l0,9c2.6,0.8,5.8,0.9,8.5,0.2L213.8,306.6z"/>
		<path class="st1" d="M209.9,316.4c-1.6,0-3.2-0.2-4.7-0.7c-0.9-0.3-1.7-0.6-2.4-1l-133-77.5c-1.9-1.1-3-2.6-3-4.3v-9
			c0-0.2,0.1-0.3,0.3-0.3h0c0.2,0,0.3,0.1,0.3,0.3c0,0,0,0,0,0v0c0,1.4,1,2.8,2.7,3.8l133,77.5c0.7,0.4,1.5,0.7,2.3,1
			c2.6,0.8,5.7,0.9,8.4,0.2c1.1-0.3,2.1-0.7,2.9-1.1l95.9-55.2c1.8-1,2.8-2.4,2.8-3.8v0c0,0,0,0,0,0l0,0c0-0.2,0.1-0.3,0.3-0.3h0
			c0.2,0,0.3,0.1,0.3,0.3c0,0,0,0,0,0l0,9c0,1.6-1.1,3.2-3.1,4.3L217,314.7c-0.9,0.5-2,0.9-3.1,1.2
			C212.6,316.2,211.2,316.4,209.9,316.4z M67.3,226v7c0,1.4,1,2.7,2.7,3.8l133,77.5c0.7,0.4,1.5,0.7,2.3,1c2.6,0.8,5.7,0.9,8.4,0.2
			c1.1-0.3,2.1-0.7,2.9-1.1l95.9-55.2c1.8-1,2.8-2.4,2.8-3.8l0-7c-0.5,0.9-1.3,1.7-2.5,2.3L217,305.7c-0.9,0.5-1.9,0.9-3.1,1.2
			c-2.8,0.7-6,0.6-8.7-0.2c-0.9-0.3-1.7-0.6-2.4-1l-133-77.5C68.6,227.6,67.8,226.8,67.3,226z"/>
		<path class="st1" d="M307.6,262.5c-0.2,0-0.3-0.1-0.3-0.3l0-9c0-0.2,0.1-0.3,0.3-0.3l0,0c0.2,0,0.3,0.1,0.3,0.3l0,9
			C307.9,262.4,307.7,262.5,307.6,262.5L307.6,262.5z"/>
		<path class="st3" d="M191.7,171.7L81.8,234.9l-12-7c-3.8-2.2-3.8-5.8,0.1-8.1l95.9-55.2c3.9-2.2,10.1-2.2,13.9,0L191.7,171.7z"/>
		<path class="st1" d="M81.8,235.2c0,0-0.1,0-0.1,0l-12-7c-1.9-1.1-3-2.6-3-4.3c0-1.6,1.1-3.2,3.1-4.3l95.9-55.2
			c3.9-2.3,10.3-2.2,14.2,0l12,7c0.1,0.1,0.1,0.1,0.1,0.2c0,0.1-0.1,0.2-0.1,0.2L82,235.2C81.9,235.2,81.9,235.2,81.8,235.2z
			 M172.8,163.3c-2.5,0-4.9,0.5-6.8,1.6l-95.9,55.2c-1.8,1-2.8,2.4-2.8,3.8c0,1.4,1,2.8,2.7,3.8l11.8,6.9l109.3-62.9l-11.5-6.7
			C177.7,163.9,175.2,163.3,172.8,163.3z"/>
		<g>
			<path class="st2" d="M191.7,171.7l121.1,70.5c3.8,2.2,3.8,5.8-0.1,8.1l-95.9,55.2c-3.9,2.2-10.1,2.2-13.9,0L81.8,234.9
				L191.7,171.7z"/>
			<path class="st1" d="M209.9,307.4c-2.6,0-5.2-0.6-7.1-1.7L81.7,235.2c-0.1-0.1-0.1-0.1-0.1-0.2c0-0.1,0.1-0.2,0.1-0.2l109.8-63.2
				c0.1-0.1,0.2,0,0.3,0L312.9,242c1.9,1.1,3,2.6,3,4.3c0,1.6-1.1,3.2-3.1,4.3L217,305.7C215,306.8,212.5,307.4,209.9,307.4z
				 M82.4,234.9l120.7,70.3c3.7,2.2,9.9,2.2,13.6,0l95.9-55.2c1.8-1,2.8-2.4,2.8-3.8c0-1.4-1-2.8-2.7-3.8L191.7,172L82.4,234.9z"/>
		</g>
		<g>
			<path class="st2" d="M102.9,208.7c-1.3,0.7-1.3,1.9,0,2.7c1.3,0.7,3.3,0.7,4.6,0c1.3-0.7,1.3-1.9,0-2.7
				C106.3,208,104.2,208,102.9,208.7z M93.2,214.3c-1.3,0.7-1.3,1.9,0,2.7c1.3,0.7,3.3,0.7,4.6,0c1.3-0.7,1.3-1.9,0-2.7
				C96.6,213.5,94.5,213.5,93.2,214.3z M83.5,219.9c-1.3,0.7-1.3,1.9,0,2.7c1.3,0.7,3.3,0.8,4.6,0c1.3-0.7,1.3-1.9,0-2.7
				C86.9,219.1,84.8,219.1,83.5,219.9z"/>
		</g>
	</g>
	<g class="st6">
		<path class="st7" d="M202.4,236.1c9.2,5.3,9.2,13.9,0.1,19.1c-9.1,5.3-23.9,5.3-33.1,0c-9.2-5.3-9.2-13.9-0.1-19.2
			C178.4,230.8,193.2,230.8,202.4,236.1z"/>
	</g>
	<g>
		<path class="st8" d="M209.3,232.2l0,9.3c0,3.4-2.3,6.9-6.8,9.5c-9.1,5.3-23.9,5.3-33.1,0c-4.6-2.7-6.9-6.2-6.9-9.7l0-9.3
			c0,3.5,2.3,7,6.9,9.7c9.2,5.3,24,5.3,33.1,0C207.1,239.1,209.3,235.6,209.3,232.2z"/>
	</g>
	<g>
		<path class="st9" d="M183,245.2v9.5c1,0.2,2,0.3,3,0.3c1,0,2-0.1,2.9-0.3v-9.5c-1,0.2-2,0.2-2.9,0.2
			C184.9,245.5,183.9,245.4,183,245.2z"/>
	</g>
	<g>
		<path class="st1" d="M186,255.3c-6,0-12.1-1.3-16.7-4c-4.6-2.6-7.1-6.1-7-9.9l0-9.3c0-0.2,0.1-0.3,0.3-0.3h0
			c0.2,0,0.3,0.1,0.3,0.3c0,3.5,2.4,6.9,6.8,9.4c9.1,5.2,23.8,5.2,32.8,0c4.3-2.5,6.6-5.8,6.7-9.2v0c0-0.2,0.1-0.3,0.3-0.3h0
			c0.2,0,0.3,0.1,0.3,0.3v0c0,0,0,0,0,0l0,9.3c0,3.7-2.5,7.2-6.9,9.7C198.1,253.9,192,255.3,186,255.3z M162.8,235.1l0,6.3
			c0,3.5,2.4,6.9,6.8,9.4c9.1,5.2,23.8,5.2,32.8,0c4.3-2.5,6.6-5.8,6.7-9.3l0-6.3c-1,2.5-3.1,4.9-6.4,6.7c-9.2,5.3-24.1,5.3-33.4,0
			C166,240,163.8,237.7,162.8,235.1z"/>
		<path class="st2" d="M202.4,222.5c9.2,5.3,9.2,13.9,0.1,19.1c-9.1,5.3-23.9,5.3-33.1,0c-9.2-5.3-9.2-13.9-0.1-19.2
			C178.4,217.2,193.2,217.2,202.4,222.5z"/>
		<path class="st1" d="M186,245.9c-6,0-12.1-1.3-16.7-4c-4.5-2.6-7-6.1-7-9.9c0-3.7,2.5-7.2,6.9-9.8c9.2-5.3,24.1-5.3,33.4,0l0,0
			c4.5,2.6,7,6.1,7,9.8c0,3.7-2.5,7.2-6.9,9.8C198.1,244.6,192,245.9,186,245.9z M185.8,218.8c-5.9,0-11.9,1.3-16.4,3.9
			c-4.3,2.5-6.7,5.8-6.7,9.3c0,3.5,2.4,6.9,6.8,9.4c9.1,5.2,23.8,5.2,32.8,0c4.3-2.5,6.7-5.8,6.7-9.3c0-3.5-2.4-6.9-6.8-9.4
			C197.7,220.2,191.8,218.8,185.8,218.8z"/>
		<g>
			<path class="st9" d="M186,240.9c-4.7,0-9.1-1-12.3-2.9c-2.9-1.7-4.5-3.8-4.5-5.9c0-2.1,1.6-4.2,4.4-5.8c3.2-1.9,7.6-2.9,12.3-2.9
				c4.7,0,9.1,1,12.4,2.9c2.9,1.7,4.5,3.7,4.5,5.9c0,2.1-1.6,4.2-4.4,5.8C195,239.8,190.7,240.9,186,240.9z"/>
		</g>
	</g>
	<g>
		<path class="st0" d="M197.3,165l-0.2,65.6c0,1.6-1,3.1-3.1,4.3c-4.1,2.4-10.8,2.4-15,0c-2.1-1.2-3.1-2.8-3.1-4.4l0.2-65.6
			c0,1.6,1,3.2,3.1,4.4c4.1,2.4,10.9,2.4,15,0C196.3,168.1,197.3,166.5,197.3,165z"/>
		<path class="st1" d="M186.6,236.9c-2.8,0-5.5-0.6-7.6-1.8c-2.1-1.2-3.3-2.9-3.3-4.6l0.2-65.6l0,0c0-0.2,0.1-0.3,0.3-0.3
			c0,0,0,0,0,0c0.2,0,0.3,0.1,0.3,0.3l0,0c0,1.5,1.1,3,3,4.1c4.1,2.3,10.7,2.3,14.7,0c1.9-1.1,2.9-2.5,2.9-4.1
			c0-0.2,0.1-0.3,0.3-0.3c0,0,0,0,0,0c0.2,0,0.3,0.1,0.3,0.3l-0.2,65.6c0,1.7-1.1,3.3-3.2,4.6C192.1,236.3,189.4,236.9,186.6,236.9z
			 M176.4,167l-0.2,63.5c0,1.5,1.1,3,3,4.1c4.1,2.3,10.7,2.3,14.7,0c1.9-1.1,2.9-2.5,2.9-4.1L197,167c-0.5,0.9-1.4,1.8-2.7,2.5
			c-4.2,2.4-11,2.4-15.3,0C177.9,168.8,177,167.9,176.4,167z"/>
		<g>
			<path class="st2" d="M194.2,160.6c4.1,2.4,4.2,6.3,0,8.7c-4.1,2.4-10.8,2.4-15,0c-4.2-2.4-4.2-6.3-0.1-8.7
				C183.3,158.2,190.1,158.2,194.2,160.6z"/>
			<path class="st1" d="M186.8,171.4c-2.8,0-5.5-0.6-7.6-1.8c-2.1-1.2-3.3-2.8-3.3-4.6c0-1.7,1.1-3.4,3.2-4.6c4.2-2.4,11-2.4,15.3,0
				l0,0c2.1,1.2,3.3,2.8,3.3,4.6c0,1.7-1.1,3.4-3.2,4.6C192.3,170.7,189.5,171.4,186.8,171.4z M186.7,159.1c-2.7,0-5.3,0.6-7.3,1.8
				c-1.9,1.1-2.9,2.5-2.9,4.1c0,1.5,1.1,3,3,4.1c4.1,2.3,10.7,2.3,14.7,0c1.9-1.1,2.9-2.6,2.9-4.1c0-1.5-1.1-3-3-4.1l0,0
				C192,159.7,189.4,159.1,186.7,159.1z"/>
		</g>
	</g>
	<g>
		<path class="st8" d="M296.5,183.9c0,18.5-12.9,41-29.1,50.4c-16.1,9.3-29.2,1.8-29.3-16.7c-0.1-18.5,13-41.1,29.1-50.4
			C283.4,157.9,296.5,165.4,296.5,183.9z"/>
		<path class="st1" d="M254.4,238.5c-2.8,0-5.4-0.7-7.8-2c-5.6-3.2-8.7-10-8.7-19c-0.1-18.6,13.1-41.3,29.2-50.6
			c7.9-4.6,15.4-5.3,21-2.1c5.6,3.2,8.7,10,8.7,19l0,0c0,18.6-13.1,41.3-29.2,50.6C262.9,237.2,258.4,238.5,254.4,238.5z
			 M280.4,163.5c-4,0-8.4,1.3-12.9,4c-16,9.2-29,31.7-28.9,50.1c0,8.8,3,15.4,8.4,18.5c5.4,3.1,12.7,2.4,20.4-2.1
			c16-9.2,29-31.7,28.9-50.1l0,0c0-8.8-3-15.4-8.4-18.5C285.6,164.1,283.1,163.5,280.4,163.5z"/>
		<path class="st9" d="M273,188.7l-12.3,22.4l-18.2-7.5c2.3-9.7,8.1-19.7,15.4-26.6L273,188.7z"/>
		<path class="st1" d="M260.7,211.4c0,0-0.1,0-0.1,0l-18.2-7.5c-0.1-0.1-0.2-0.2-0.2-0.3c2.3-9.8,8.1-19.8,15.5-26.7
			c0.1-0.1,0.3-0.1,0.4,0l15.1,11.7c0.1,0.1,0.1,0.2,0.1,0.4l-12.3,22.4C260.9,211.3,260.8,211.4,260.7,211.4z M242.8,203.5
			l17.8,7.3l12-22l-14.7-11.4C250.8,184.2,245.1,193.9,242.8,203.5z"/>
		<g>
			<path class="st2" d="M275.5,194.5c0,5.8-4,12.8-9,15.7c-5,2.9-9.1,0.6-9.1-5.2c0-5.8,4-12.8,9-15.7
				C271.4,186.4,275.5,188.8,275.5,194.5z"/>
			<path class="st1" d="M262.4,211.7c-0.9,0-1.8-0.2-2.5-0.6c-1.8-1-2.8-3.2-2.8-6.1c0-5.8,4.1-13,9.2-15.9c2.5-1.5,4.9-1.7,6.7-0.6
				c1.8,1,2.8,3.2,2.8,6.1c0,5.8-4.1,13-9.2,15.9C265.1,211.3,263.7,211.7,262.4,211.7z M270.5,188.4c-1.2,0-2.5,0.4-3.9,1.2
				c-4.9,2.8-8.9,9.8-8.9,15.4c0,2.7,0.9,4.7,2.5,5.6c1.6,0.9,3.8,0.7,6.2-0.6c4.9-2.8,8.9-9.8,8.9-15.4c0-2.7-0.9-4.7-2.5-5.6
				C272.1,188.5,271.3,188.4,270.5,188.4z"/>
		</g>
		<g>
			<path class="st3" d="M271.2,197c0,3-2.1,6.7-4.8,8.3c-2.6,1.5-4.8,0.3-4.8-2.7c0-3,2.1-6.8,4.8-8.3
				C269.1,192.7,271.2,193.9,271.2,197z"/>
		</g>
		<g>
			<path class="st8" d="M194.8,133.4c-3.1-1.8-7.4-1.5-12.1,1.2c-3.3,1.9-6.3,4.7-8.9,8c-2.7,3.5-5,7.6-6.4,11.8
				c-1.1,3.2-1.7,6.5-1.7,9.6c0,5.4,1.9,9.1,5,10.9l-8.6-5c-3.1-1.8-5-5.6-5-10.9c0-3.1,0.6-6.3,1.7-9.6c1.4-4.2,3.6-8.3,6.4-11.8
				c2.6-3.3,5.6-6.2,8.9-8.1c4.7-2.7,9-3,12.1-1.2L194.8,133.4z"/>
			<path class="st9" d="M173.8,142.7c-2.7,3.5-5,7.6-6.4,11.8l-8.6-4.9c1.4-4.2,3.6-8.3,6.4-11.8L173.8,142.7z"/>
			<path class="st1" d="M170.7,175.3c0,0-0.1,0-0.1,0l-8.6-5c-3.3-1.9-5.1-5.9-5.1-11.2c0-10.9,7.7-24.2,17.1-29.7
				c4.7-2.7,9.1-3.1,12.4-1.2l8.6,5l0,0c0.1,0.1,0.2,0.3,0.1,0.4c-0.1,0.1-0.2,0.2-0.4,0.1l0,0c-3.1-1.8-7.3-1.4-11.8,1.2
				c-9.3,5.4-16.9,18.5-16.8,29.2c0,5.1,1.7,8.9,4.8,10.7l0,0l0,0c0.1,0.1,0.2,0.2,0.1,0.4C170.8,175.2,170.8,175.3,170.7,175.3z
				 M181.8,127.6c-2.3,0-4.9,0.8-7.5,2.3c-9.3,5.4-16.9,18.5-16.8,29.2c0,5.1,1.7,8.9,4.8,10.7l5.9,3.4c-1.8-2.2-2.7-5.3-2.7-9.1
				c0-10.9,7.6-24.2,17.1-29.7c3.4-2,6.7-2.7,9.5-2.2l-5.9-3.4C184.8,127.9,183.4,127.6,181.8,127.6z"/>
			<path class="st1" d="M182.7,134.6c9.4-5.4,17.1-1.1,17.1,9.8c0,10.8-7.6,24-17,29.4c-9.4,5.4-17.1,1.1-17.1-9.7
				C165.7,153.2,173.3,140,182.7,134.6z"/>
			<path class="st1" d="M175.1,176.4c-1.7,0-3.2-0.4-4.6-1.2c-3.3-1.9-5.1-5.9-5.1-11.2c0-10.9,7.7-24.2,17.1-29.7l0,0
				c4.7-2.7,9.1-3.1,12.4-1.2c3.3,1.9,5.1,5.9,5.1,11.2c0,10.9-7.7,24.2-17.1,29.7C180.2,175.6,177.5,176.4,175.1,176.4z
				 M182.8,134.9L182.8,134.9c-9.3,5.4-16.9,18.5-16.9,29.2c0,5.1,1.7,8.9,4.9,10.7c3.1,1.8,7.3,1.4,11.8-1.2
				c9.3-5.4,16.9-18.5,16.9-29.2c0-5.1-1.7-8.9-4.9-10.7C191.5,131.8,187.3,132.3,182.8,134.9z"/>
			<g>
				<path class="st2" d="M224.2,152.6c-2.9-1.7-6.9-1.4-11.3,1.1c-8.8,5.1-15.8,17.3-15.8,27.4c0,5,1.8,8.5,4.6,10.2l-29.2-17
					c-2.8-1.7-4.6-5.2-4.6-10.2c0-10.1,7.1-22.3,15.8-27.4c4.4-2.5,8.4-2.8,11.3-1.1L224.2,152.6z"/>
				<path class="st1" d="M201.7,191.5c0,0-0.1,0-0.1,0l0,0c0,0,0,0,0,0l-29.2-17c-3.1-1.8-4.8-5.5-4.8-10.4c0-10.2,7.1-22.6,16-27.6
					c4.4-2.5,8.5-2.9,11.6-1.1l29.2,17c0,0,0,0,0,0c0.1,0.1,0.2,0.2,0.1,0.4c-0.1,0.1-0.3,0.2-0.4,0.1l0,0c-2.9-1.7-6.8-1.3-11,1.1
					c-8.7,5-15.7,17.2-15.7,27.2c0,4.7,1.6,8.2,4.5,9.9l0,0l0,0c0.1,0.1,0.2,0.2,0.1,0.4C201.9,191.5,201.8,191.5,201.7,191.5z
					 M190.8,134.8c-2.1,0-4.5,0.7-7,2.1c-8.7,5-15.7,17.2-15.7,27.2c0,4.7,1.6,8.2,4.5,9.9l26.6,15.5c-1.6-2-2.5-4.9-2.5-8.4
					c0-10.1,7.1-22.5,16-27.6c3.1-1.8,6.1-2.5,8.7-2.1l-26.6-15.5C193.7,135.1,192.3,134.8,190.8,134.8z"/>
				<g>
					<path class="st1" d="M212.9,153.7c8.8-5.1,15.9-1,15.9,9.1c0,10.1-7,22.3-15.8,27.4c-8.8,5.1-15.9,1-15.9-9.1
						C197.1,171,204.1,158.7,212.9,153.7z"/>
					<path class="st1" d="M205.9,192.6c-1.6,0-3-0.4-4.3-1.1c-3.1-1.8-4.8-5.5-4.8-10.4c0-10.1,7.1-22.5,16-27.6l0,0
						c4.3-2.5,8.4-2.9,11.5-1.1c3.1,1.8,4.8,5.5,4.8,10.4c0,10.1-7.1,22.5-16,27.6C210.6,191.9,208.1,192.6,205.9,192.6z M213,153.9
						L213,153.9c-8.7,5-15.7,17.2-15.7,27.2c0,4.7,1.6,8.3,4.5,9.9c2.9,1.7,6.8,1.3,11-1.1c8.7-5,15.7-17.2,15.7-27.1
						c0-4.8-1.6-8.3-4.5-10C221.1,151.1,217.2,151.5,213,153.9z"/>
				</g>
			</g>
			<g>
				<path class="st3" d="M239.5,231.2l-37.1-43.4l-0.2-0.2c-1.7-1.8-1.9-4.9-1.9-6.5c0-8.9,6.5-20.1,14.2-24.6
					c2-1.1,3.9-1.7,5.5-1.7c0.2,0,0.5,0,0.7,0l51.2,1C252.3,172.1,229.3,205.4,239.5,231.2z"/>
				<path class="st1" d="M239.5,231.5c-0.1,0-0.2,0-0.2-0.1l-37.2-43.6c-1.7-1.9-2-5-2-6.7c0-9,6.5-20.3,14.3-24.8
					c2-1.2,4-1.8,5.6-1.8c0.3,0,0.5,0,0.7,0l51.1,1c0.1,0,0.2,0.1,0.3,0.2c0,0.1,0,0.2-0.1,0.3c-18,15-42.7,48.7-32.3,75.1
					c0.1,0.1,0,0.3-0.1,0.3C239.6,231.4,239.6,231.5,239.5,231.5z M220,155c-1.6,0-3.4,0.6-5.4,1.7c-7.6,4.4-14.1,15.5-14,24.3
					c0,1.6,0.3,4.6,1.9,6.3l0.2,0.2l36.1,42.3c-9-26.2,14.7-58.7,32.4-73.7l-50.4-1C220.5,155,220.2,155,220,155z"/>
			</g>
			<g>
				<path class="st1" d="M293.7,185.5c0,16.7-11.7,37.1-26.2,45.5c-7.3,4.2-14,4.6-18.7,1.8l-7.9-4.6c4.8,2.8,11.4,2.4,18.7-1.8
					c14.5-8.4,26.3-28.7,26.2-45.5c0-8.3-3-14.1-7.7-16.9l7.9,4.6C290.7,171.3,293.7,177.2,293.7,185.5z"/>
				<path class="st1" d="M255.6,234.9c-2.6,0-5-0.6-7.1-1.8l-7.9-4.6c0,0,0,0,0,0h0c-0.1-0.1-0.2-0.2-0.1-0.4
					c0.1-0.1,0.3-0.2,0.4-0.1h0c4.9,2.8,11.5,2.2,18.5-1.8c14.4-8.3,26.1-28.6,26.1-45.2c0-7.9-2.7-13.8-7.5-16.7
					c-0.1-0.1-0.2-0.2-0.1-0.4c0.1-0.1,0.2-0.2,0.4-0.1l7.9,4.6c5,2.9,7.8,9,7.8,17.1l0,0c0,16.8-11.8,37.3-26.4,45.7
					C263.4,233.6,259.3,234.9,255.6,234.9z M244.3,229.9l4.6,2.7c4.9,2.9,11.5,2.2,18.5-1.8c14.4-8.3,26.1-28.6,26.1-45.2l0,0
					c0-7.9-2.7-13.9-7.5-16.7l-4.6-2.7c3.1,3.3,4.8,8.4,4.8,14.8c0,16.8-11.8,37.3-26.4,45.7C254.1,229.9,248.8,231,244.3,229.9z"/>
				<path class="st9" d="M291,160c-6.1-3.5-14.5-3-23.7,2.3C248.8,173,233.9,198.8,234,220c0,10.5,3.7,17.9,9.7,21.4l-7.9-4.6
					c-6-3.5-9.7-10.9-9.7-21.4c-0.1-21.2,14.8-47,33.2-57.6c9.3-5.4,17.7-5.9,23.7-2.3L291,160z"/>
				<path class="st1" d="M243.7,241.6c0,0-0.1,0-0.1,0l-7.9-4.6c-6.3-3.7-9.8-11.4-9.9-21.6c-0.1-21.2,14.9-47.2,33.4-57.8
					c9.1-5.2,17.6-6.1,24-2.3l7.9,4.6c0,0,0,0,0,0l0,0c0.1,0.1,0.2,0.2,0.1,0.4c-0.1,0.1-0.3,0.2-0.4,0.1
					c-6.2-3.6-14.6-2.8-23.4,2.3c-18.3,10.6-33.2,36.3-33.1,57.4c0,10.1,3.4,17.6,9.6,21.2c0.1,0.1,0.2,0.2,0.1,0.4
					C243.9,241.6,243.8,241.6,243.7,241.6z M274.4,153.5c-4.5,0-9.6,1.5-14.8,4.6c-18.3,10.6-33.2,36.3-33.1,57.4
					c0,10.1,3.4,17.6,9.6,21.2l4.2,2.4c-4.2-4.2-6.4-10.8-6.5-19c-0.1-21.2,14.9-47.2,33.4-57.8c7.3-4.2,14.2-5.6,20-4l-4.2-2.4
					C280.4,154.2,277.5,153.5,274.4,153.5z"/>
				<g>
					<path class="st2" d="M267.3,162.4c18.4-10.6,33.4-2.1,33.5,19.1c0.1,21.2-14.8,46.9-33.2,57.6c-18.4,10.6-33.4,2.1-33.5-19.1
						C233.9,198.8,248.8,173,267.3,162.4z M267.5,231c14.5-8.4,26.3-28.7,26.2-45.5s-11.9-23.5-26.4-15.1
						c-14.5,8.4-26.3,28.8-26.2,45.5C241.1,232.6,252.9,239.4,267.5,231"/>
					<path class="st1" d="M252.5,243.9c-3.2,0-6.2-0.8-8.9-2.3c-6.4-3.7-9.9-11.4-9.9-21.7c-0.1-21.2,14.9-47.2,33.4-57.8l0.1,0.2
						l-0.1-0.2c9-5.2,17.5-6.1,23.9-2.4c6.4,3.7,9.9,11.4,9.9,21.7c0.1,21.2-14.9,47.2-33.4,57.8
						C262.3,242.4,257.2,243.9,252.5,243.9z M282.2,158.1c-4.5,0-9.6,1.5-14.8,4.6c-18.3,10.6-33.2,36.3-33.1,57.4
						c0,10.1,3.5,17.6,9.6,21.2c6.2,3.6,14.6,2.8,23.4-2.4c18.3-10.6,33.2-36.3,33.1-57.3c0-10.1-3.5-17.6-9.7-21.2
						C288.2,158.8,285.4,158.1,282.2,158.1z M255.6,234.9c-2.6,0-4.9-0.6-7-1.8c-5.1-2.9-7.8-9-7.9-17.2c0-16.8,11.8-37.3,26.4-45.7
						c7.1-4.1,13.9-4.8,19-1.9c5.1,2.9,7.8,9,7.9,17.2c0,16.8-11.8,37.3-26.4,45.7C263.4,233.6,259.3,234.9,255.6,234.9z
						 M279.1,167.1c-3.6,0-7.5,1.2-11.7,3.6c-14.4,8.3-26.2,28.6-26.1,45.2c0,8,2.7,13.9,7.6,16.7c4.9,2.8,11.4,2.2,18.4-1.9
						l0.1,0.2l-0.1-0.2c14.4-8.3,26.1-28.6,26.1-45.2c0-8-2.7-13.9-7.6-16.7C283.8,167.7,281.6,167.1,279.1,167.1z"/>
				</g>
			</g>
		</g>
	</g>
	<g>
		<path class="st1" d="M191.8,196.8c2.6-1.5,4.7-0.3,4.7,2.7c0,3-2.1,6.6-4.7,8.1c-2.6,1.5-4.7,0.3-4.7-2.7
			C187.1,201.9,189.2,198.3,191.8,196.8z"/>
		<path class="st1" d="M189.7,208.5c-0.5,0-1-0.1-1.4-0.4c-1-0.6-1.5-1.7-1.5-3.2c0-3.1,2.1-6.8,4.8-8.3l0,0
			c1.3-0.8,2.6-0.9,3.6-0.3c1,0.6,1.5,1.7,1.5,3.3c0,3.1-2.1,6.8-4.8,8.3C191.2,208.2,190.4,208.5,189.7,208.5z M193.9,196.4
			c-0.6,0-1.3,0.2-2,0.6l0,0c-2.5,1.4-4.5,5-4.5,7.8c0,1.3,0.4,2.3,1.2,2.8c0.8,0.5,1.9,0.3,3-0.3c2.5-1.4,4.5-5,4.5-7.8
			c0-1.3-0.4-2.3-1.2-2.8C194.6,196.5,194.3,196.4,193.9,196.4z M191.8,196.8L191.8,196.8L191.8,196.8z"/>
		<path class="st2" d="M201.5,201.4c-0.7-0.4-1.7-0.4-2.8,0.3c-2.1,1.2-3.9,4.2-3.9,6.7c0,1.2,0.4,2.1,1.1,2.5l-6.2-3.6
			c-0.7-0.4-1.1-1.3-1.1-2.5c0-2.5,1.7-5.5,3.9-6.7c1.1-0.6,2-0.7,2.8-0.3L201.5,201.4z"/>
		<path class="st1" d="M196.1,211.2c0,0-0.1,0-0.1,0l-6.2-3.6c-0.8-0.5-1.3-1.4-1.3-2.7c0-2.6,1.8-5.7,4-6.9c1.1-0.6,2.2-0.7,3-0.3
			l6.2,3.5c0,0,0,0,0,0c0.1,0.1,0.2,0.2,0.1,0.4c-0.1,0.1-0.2,0.2-0.4,0.1l0,0c-0.6-0.4-1.5-0.2-2.4,0.3c-2.1,1.2-3.7,4.1-3.7,6.4
			c0,1.1,0.4,1.9,1,2.2c0.1,0.1,0.2,0.2,0.1,0.4C196.2,211.1,196.2,211.2,196.1,211.2z M194.3,197.9c-0.5,0-1,0.2-1.6,0.5
			c-2.1,1.2-3.7,4.1-3.7,6.4c0,1.1,0.4,1.9,1,2.2l4.9,2.8c-0.2-0.4-0.3-0.9-0.3-1.5c0-2.6,1.8-5.7,4-6.9c0.5-0.3,1-0.5,1.4-0.5
			l-4.9-2.8C194.9,198,194.6,197.9,194.3,197.9z"/>
		<g>
			<path class="st3" d="M198.8,201.7c2.1-1.2,3.9-0.2,3.9,2.2c0,2.4-1.7,5.5-3.9,6.7c-2.1,1.2-3.9,0.2-3.9-2.2
				C194.9,205.9,196.7,202.9,198.8,201.7z"/>
			<path class="st1" d="M197.1,211.4c-0.4,0-0.8-0.1-1.2-0.3c-0.8-0.5-1.3-1.4-1.3-2.7c0-2.5,1.8-5.7,4-6.9l0,0
				c1.1-0.7,2.2-0.7,3-0.3c0.8,0.5,1.3,1.4,1.3,2.7c0,2.5-1.8,5.7-4,6.9C198.3,211.2,197.7,211.4,197.1,211.4z M200.5,201.5
				c-0.5,0-1,0.2-1.6,0.5l0,0c-2.1,1.2-3.7,4.1-3.7,6.4c0,1.1,0.4,1.9,1,2.2c0.6,0.4,1.5,0.3,2.5-0.3c2.1-1.2,3.7-4.1,3.7-6.4
				c0-1.1-0.4-1.9-1-2.2C201.1,201.5,200.9,201.5,200.5,201.5z M198.8,201.7L198.8,201.7L198.8,201.7z"/>
		</g>
	</g>
	<g>
		<line class="st10" x1="188.7" y1="161.6" x2="176" y2="154.2"/>
		
			<rect x="181.8" y="150.6" transform="matrix(0.4997 -0.8662 0.8662 0.4997 -45.5725 236.9543)" class="st1" width="1.1" height="14.7"/>
	</g>
	<g>
		<line class="st10" x1="188.7" y1="167.7" x2="176" y2="160.4"/>
		
			<rect x="181.8" y="156.7" transform="matrix(0.4997 -0.8662 0.8662 0.4997 -50.8752 240.0168)" class="st1" width="1.1" height="14.7"/>
	</g>
	<g>
		<line class="st10" x1="188.7" y1="173.8" x2="176" y2="166.5"/>
		
			<rect x="181.8" y="162.8" transform="matrix(0.4997 -0.8662 0.8662 0.4997 -56.179 243.0804)" class="st1" width="1.1" height="14.7"/>
	</g>
	<g>
		<path class="st11" d="M263.8,116.1c-11.8,6.8-11.8,17.8-0.1,24.6c11.7,6.8,30.7,6.8,42.5,0c11.8-6.8,11.8-17.8,0.1-24.6
			C294.6,109.3,275.6,109.3,263.8,116.1z"/>
		<path class="st8" d="M314.9,123.5c0,4.5-2.9,8.9-8.8,12.3c-4.6,2.6-10.2,4.3-16.2,4.8c-3.3,0.3-6.6,0.3-9.9,0
			c-6-0.6-11.7-2.2-16.3-4.8c-5.8-3.4-8.7-7.8-8.7-12.2l0-10.9c0,4.4,2.9,8.8,8.7,12.2c4.6,2.7,10.3,4.3,16.3,4.8
			c3.3,0.3,6.6,0.3,9.9,0c5.9-0.6,11.6-2.2,16.1-4.8c5.9-3.4,8.8-7.9,8.8-12.3L314.9,123.5z"/>
		<path class="st9" d="M289.9,129.8v10.8c-3.3,0.3-6.6,0.3-9.9,0v-10.8C283.3,130.1,286.6,130.1,289.9,129.8z"/>
		<path class="st1" d="M284.9,141.2c-7.7,0-15.4-1.7-21.3-5.1c-5.7-3.3-8.8-7.7-8.8-12.4l0-10.8l0,0v0c0-0.2,0.1-0.3,0.3-0.3
			c0,0,0,0,0,0c0.2,0,0.3,0.1,0.3,0.3c0,4.5,3.1,8.7,8.6,11.9c11.6,6.7,30.4,6.7,42.1,0c5.6-3.2,8.7-7.5,8.7-12.1v0l0,0v0
			c0-0.2,0.1-0.3,0.3-0.3c0,0,0,0,0,0c0.2,0,0.3,0.1,0.3,0.3c0,0,0,0,0,0l0,10.8c0,4.8-3.2,9.2-9,12.6
			C300.3,139.5,292.6,141.2,284.9,141.2z M255.3,116.2l0,7.4c0,4.5,3.1,8.7,8.6,11.9c11.6,6.7,30.4,6.7,42.1,0
			c5.6-3.2,8.7-7.5,8.7-12.1l0-7.4c-1.1,3.5-4,6.6-8.4,9.2c-11.8,6.8-30.9,6.8-42.6,0C259.3,122.7,256.4,119.6,255.3,116.2z"/>
		<path class="st2" d="M263.8,100.5c-11.7,6.8-11.8,17.7-0.1,24.5c11.7,6.8,30.6,6.8,42.3,0c11.7-6.8,11.8-17.7,0.1-24.5
			C294.5,93.7,275.6,93.7,263.8,100.5z"/>
		<path class="st1" d="M284.8,130.3c-7.7,0-15.4-1.7-21.3-5.1c-5.7-3.3-8.8-7.7-8.8-12.5c0-4.8,3.2-9.2,9-12.5l0,0
			c11.8-6.8,30.9-6.8,42.6,0c5.7,3.3,8.8,7.7,8.8,12.5c0,4.8-3.2,9.2-9,12.6C300.3,128.6,292.6,130.3,284.8,130.3z M285,95.7
			c-7.6,0-15.2,1.7-21.1,5l0,0c-5.6,3.2-8.7,7.5-8.7,12.1c0,4.5,3,8.8,8.6,12c11.6,6.7,30.4,6.7,42.1,0c5.6-3.2,8.7-7.5,8.7-12.1
			c0-4.5-3-8.8-8.6-12C300.3,97.4,292.7,95.7,285,95.7z M263.8,100.5L263.8,100.5L263.8,100.5z"/>
		<g>
			<path class="st1" d="M297.9,101.6l-4.4,7.5c-0.1,0.1-0.2,0.2-0.3,0.3l-10.6,6.1c0.1-0.1,0.2-0.1,0.2-0.2l4.4-7.5L297.9,101.6z"/>
			<path class="st1" d="M282.7,115.8c-0.1,0-0.2,0-0.2-0.1c-0.1-0.1,0-0.3,0.1-0.4c0.1,0,0.1-0.1,0.1-0.1l4.4-7.5
				c0,0,0.1-0.1,0.1-0.1l10.6-6.1c0.1-0.1,0.3,0,0.3,0s0.1,0.2,0,0.3l-4.4,7.5c-0.1,0.2-0.2,0.3-0.4,0.4l-10.6,6.1
				C282.8,115.8,282.7,115.8,282.7,115.8z M287.5,107.9l-3.9,6.7l9.5-5.5c0.1,0,0.1-0.1,0.2-0.2l3.9-6.6L287.5,107.9z"/>
		</g>
		<g>
			<path class="st9" d="M323.7,88.2c0,6.7-2.5,11.4-6.8,13.9l-10.6,6.1c4.2-2.5,6.8-7.2,6.8-13.9c0-15.8-13.9-36.8-31.2-46.7
				c-10-5.7-18.8-6.6-24.6-3.3l10.6-6.1c5.7-3.3,14.6-2.5,24.6,3.3C309.8,51.5,323.8,72.4,323.7,88.2z"/>
			<path class="st1" d="M306.4,108.5c-0.1,0-0.2-0.1-0.2-0.1c-0.1-0.1,0-0.3,0.1-0.4l0,0c4.3-2.5,6.6-7.2,6.6-13.6
				c0-15.7-13.9-36.6-31.1-46.5c-9.5-5.5-18.4-6.7-24.3-3.3l0,0c0,0,0,0,0,0c-0.1,0.1-0.3,0-0.4-0.1c-0.1-0.1,0-0.3,0.1-0.4
				l10.6-6.1c6.1-3.5,15.1-2.3,24.9,3.3c17.3,10,31.4,31.1,31.4,47l0,0c0,6.6-2.4,11.5-6.9,14.1l-10.6,6.1c0,0,0,0,0,0
				C306.5,108.5,306.4,108.5,306.4,108.5z M265.3,42.1c5,0,10.8,1.8,16.8,5.3c17.3,10,31.4,31.1,31.4,47c0,5-1.4,8.9-3.9,11.7
				l7.3-4.2c4.3-2.5,6.6-7.2,6.6-13.6c0-15.7-13.9-36.6-31.1-46.5c-9.6-5.5-18.4-6.7-24.3-3.3l-7.2,4.2
				C262.2,42.3,263.7,42.1,265.3,42.1z M323.7,88.2L323.7,88.2L323.7,88.2z"/>
		</g>
		<g>
			<path class="st0" d="M323.7,88.2c0,6.7-2.5,11.4-6.8,13.9l-10.6,6.1c4.2-2.5,6.8-7.2,6.8-13.9"/>
			<path class="st1" d="M306.4,108.5c-0.1,0-0.2-0.1-0.2-0.1c-0.1-0.1,0-0.3,0.1-0.4l0,0c4.3-2.5,6.6-7.2,6.6-13.6
				c0-0.2,0.1-0.3,0.3-0.3h0c0.2,0,0.3,0.1,0.3,0.3c0,5-1.4,8.9-3.9,11.7l7.3-4.2c4.3-2.5,6.6-7.2,6.6-13.6c0-0.2,0.1-0.3,0.3-0.3h0
				c0.2,0,0.3,0.1,0.3,0.3c0,6.6-2.4,11.5-6.9,14.1l-10.6,6.1c0,0,0,0,0,0C306.5,108.5,306.4,108.5,306.4,108.5z"/>
		</g>
		<g>
			<path class="st2" d="M281.9,47.6c17.3,10,31.3,30.9,31.2,46.7c0,14.1-11.2,19.4-25.8,13.4l-4.4,7.5c-0.3,0.4-0.7,0.4-1.2,0.2
				c-0.5-0.3-1-0.8-1.2-1.5l-4.3-12.6c-14.6-10.8-25.7-29-25.6-43.1C250.6,42.4,264.7,37.7,281.9,47.6z"/>
			<path class="st1" d="M282.4,115.9c-0.2,0-0.5-0.1-0.8-0.2c-0.6-0.3-1.1-1-1.3-1.7l-4.3-12.5c-14.9-11.1-25.7-29.3-25.7-43.2
				c0-6.5,2.5-11.6,7-14.1c6.1-3.5,15.1-2.3,24.8,3.3l0,0c17.3,10,31.4,31.1,31.4,47c0,6.2-2.2,11-6.2,13.7
				c-4.8,3.2-11.8,3.2-19.7,0l-4.3,7.3C283,115.7,282.7,115.9,282.4,115.9z M265.3,42.7c-2.9,0-5.5,0.6-7.8,1.9
				c-4.4,2.5-6.7,7.2-6.7,13.7c0,13.8,10.7,31.8,25.5,42.8c0,0,0.1,0.1,0.1,0.1l4.3,12.6c0.2,0.6,0.6,1.1,1.1,1.4
				c0.2,0.1,0.6,0.3,0.8-0.1l4.4-7.5c0.1-0.1,0.2-0.2,0.3-0.1c7.8,3.2,14.7,3.3,19.4,0.1c3.9-2.6,6-7.2,6-13.2
				c0-15.7-13.9-36.6-31.1-46.5l0,0C275.8,44.5,270.2,42.7,265.3,42.7z"/>
		</g>
	</g>
	<g>
		<path class="st3" d="M281,55.4c-11.1-5.9-20.1-1.2-20.1,10.5c0,11.7,8.9,25.9,20,31.7c11.1,5.9,20.1,1.1,20.1-10.5
			C301,75.4,292.1,61.2,281,55.4z M270.9,67.4c0-1.8,1.4-2.5,3.1-1.6c1.7,0.9,3.1,3.1,3.1,4.9c0,1.8-1.4,2.5-3.1,1.6
			C272.3,71.4,270.9,69.2,270.9,67.4z M280.9,90.1c-3.8-2-7-6.7-7.4-10.8c-0.1-0.5,0.3-0.8,0.8-0.5l13.3,7c0.5,0.3,0.9,0.9,0.8,1.4
			C287.9,90.8,284.7,92.1,280.9,90.1z M287.9,79.6c-1.7-0.9-3.1-3.1-3.1-4.9c0-1.8,1.4-2.5,3.1-1.6c1.7,0.9,3.1,3.1,3.1,4.9
			C291,79.8,289.6,80.5,287.9,79.6z"/>
	</g>
	<g>
		<path class="st2" d="M260.8,320.4c2-1.2,2-3.1,0-4.2c-2-1.2-5.3-1.2-7.3,0s-2,3.1,0,4.2C255.5,321.5,258.8,321.5,260.8,320.4z"/>
		<path class="st0" d="M257.1,321.5c-1.4,0-2.8-0.3-3.8-0.9c-1.1-0.6-1.6-1.5-1.6-2.4c0-0.9,0.6-1.7,1.7-2.4c2.1-1.2,5.5-1.2,7.6,0
			c1.1,0.6,1.6,1.5,1.6,2.4c0,0.9-0.6,1.8-1.7,2.4l0,0C259.9,321.2,258.5,321.5,257.1,321.5z M257.2,315.5c-1.3,0-2.6,0.3-3.5,0.8
			c-0.9,0.5-1.4,1.2-1.4,1.9c0,0.7,0.5,1.4,1.4,1.9c1.9,1.1,5.1,1.1,7,0l0,0c0.9-0.5,1.4-1.2,1.4-1.9c0-0.7-0.5-1.4-1.4-1.9
			C259.7,315.8,258.4,315.5,257.2,315.5z M260.8,320.4L260.8,320.4L260.8,320.4z"/>
	</g>
	<g>
		<path class="st3" d="M257.1,316.9c-0.8,0-1.6,0.2-2.1,0.5c-0.4,0.3-0.7,0.6-0.7,0.8c0,0.3,0.2,0.6,0.7,0.8
			c0.5,0.3,1.3,0.5,2.1,0.5s1.6-0.2,2.1-0.5c0.4-0.3,0.7-0.6,0.7-0.9c0-0.3-0.2-0.6-0.7-0.8C258.7,317.1,257.9,316.9,257.1,316.9z"
			/>
	</g>
	<g>
		<path class="st1" d="M275,306.7c-0.8,0-1.7,0.2-2.3,0.5c-0.5,0.3-0.7,0.6-0.7,0.9c0,0.3,0.3,0.6,0.7,0.9c0.6,0.3,1.4,0.5,2.2,0.5
			s1.7-0.2,2.3-0.5c0.5-0.3,0.7-0.6,0.7-0.9c0-0.3-0.3-0.6-0.7-0.9C276.7,306.9,275.9,306.7,275,306.7z"/>
	</g>
	<g>
		<path class="st1" d="M239.9,106.1c-0.8,0-1.7,0.2-2.3,0.5c-0.5,0.3-0.7,0.6-0.7,0.9c0,0.3,0.3,0.6,0.7,0.9
			c0.6,0.3,1.4,0.5,2.2,0.5c0.8,0,1.7-0.2,2.3-0.5c0.5-0.3,0.7-0.6,0.7-0.9c0-0.3-0.3-0.6-0.7-0.9
			C241.5,106.3,240.7,106.1,239.9,106.1z"/>
	</g>
</g>
</svg>
