<?xml version="1.0" encoding="utf-8"?>
<!-- Generator: Adobe Illustrator 28.0.0, SVG Export Plug-In . SVG Version: 6.00 Build 0)  -->
<svg version="1.1" id="SvgjsSvg1001" xmlns:svgjs="http://svgjs.com/svgjs"
	 xmlns="http://www.w3.org/2000/svg" xmlns:xlink="http://www.w3.org/1999/xlink" x="0px" y="0px" viewBox="0 0 360 360"
	 style="enable-background:new 0 0 360 360;" xml:space="preserve">
<style type="text/css">
	.st0{fill:#D8D6FF;}
	.st1{fill:#F9CEFF;}
	.st2{fill:#6636AD;}
	.st3{fill:#FFD4C2;}
	.st4{fill:#7948C2;}
	.st5{fill:#FABEA5;}
	.st6{fill:#63ADFF;}
	.st7{fill:#C4626E;}
	.st8{fill:#FFFFFF;}
	.st9{fill:#E2EDF0;}
	.st10{fill:#FFC9B3;}
	.st11{fill:#F2E0D5;}
	.st12{fill:#572416;}
	.st13{fill:#942525;}
	.st14{fill:#FF7878;}
	.st15{fill:#FFBA9E;}
	.st16{fill:#222731;}
	.st17{fill:#442361;}
	.st18{fill:#F04FA0;}
	.st19{fill:#FAC9B4;}
	.st20{fill:#FFC53D;}
	.st21{fill:#FF69B4;}
	.st22{fill:#FFB300;}
	.st23{fill:#FFDBCC;}
	.st24{fill:#34194D;}
	.st25{fill:#FFB394;}
	.st26{fill:#FFD0BD;}
	.st27{fill:#E3C9D3;}
	.st28{fill:#390F73;}
	.st29{fill:#3E8EE6;}
	.st30{fill:#D4C8BC;}
	.st31{fill:#6F42B3;}
	.st32{fill:#FFB921;}
	.st33{fill:#FFB129;}
	.st34{fill:#FFC257;}
	.st35{fill:#8747E6;}
	.st36{fill:#78B8FF;}
	.st37{fill:#BADDDE;}
	.st38{fill:#D1ECED;}
	.st39{fill:#552996;}
	.st40{fill:#603BA6;}
	.st41{fill:#3F1182;}
	.st42{fill:#B5D8FF;}
	.st43{fill:#E65FA0;}
	.st44{fill:#FFBDD1;}
	.st45{fill:#582F94;}
	.st46{fill:#EB9D0C;}
	.st47{fill:#F5B79D;}
	.st48{fill:#3D1A10;}
	.st49{fill:#EDD0BE;}
	.st50{fill:#6633B0;}
	.st51{fill:#996AE0;}
	.st52{fill:#CBBAFF;}
	.st53{fill:#D1D7FF;}
	.st54{fill:#8153C2;}
</style>
<g id="SvgjsG1008">
	<path class="st0" d="M52.4,161.4h-20c-0.2,0-0.4-0.2-0.4-0.4s0.2-0.4,0.4-0.4h19.8l4.7-4.7c0.1-0.1,0.2-0.1,0.3-0.1h17.9
		c0.2,0,0.4,0.2,0.4,0.4c0,0.2-0.2,0.4-0.4,0.4H57.3l-4.7,4.7C52.6,161.3,52.5,161.4,52.4,161.4z"/>
	<path class="st0" d="M29.5,163.9c-1.6,0-3-1.3-3-3c0-1.6,1.3-3,3-3c1.6,0,3,1.3,3,3C32.5,162.6,31.1,163.9,29.5,163.9z M29.5,158.8
		c-1.2,0-2.2,1-2.2,2.2s1,2.2,2.2,2.2s2.2-1,2.2-2.2S30.7,158.8,29.5,158.8z M298.8,235.7h-32.4c-0.1,0-0.2,0-0.3-0.1l-3.7-3.7
		h-21.3c-0.2,0-0.4-0.2-0.4-0.4s0.2-0.4,0.4-0.4h21.5c0.1,0,0.2,0,0.3,0.1l3.7,3.7h32.2c0.2,0,0.4,0.2,0.4,0.4
		C299.2,235.5,299,235.7,298.8,235.7z"/>
	<path class="st0" d="M301.1,237.7c-1.3,0-2.4-1.1-2.4-2.4c0-1.3,1.1-2.4,2.4-2.4c1.3,0,2.4,1.1,2.4,2.4
		C303.5,236.6,302.4,237.7,301.1,237.7z M301.1,233.7c-0.9,0-1.6,0.7-1.6,1.6s0.7,1.6,1.6,1.6s1.6-0.7,1.6-1.6
		S302,233.7,301.1,233.7z M28.3,215.5c-1.6,0-3-1.3-3-3c0-1.6,1.3-3,3-3c1.6,0,3,1.3,3,3C31.3,214.2,30,215.5,28.3,215.5z
		 M28.3,210.4c-1.2,0-2.2,1-2.2,2.2c0,1.2,1,2.2,2.2,2.2s2.2-1,2.2-2.2C30.5,211.3,29.5,210.4,28.3,210.4z M50.2,172.6
		c-1.6,0-3-1.3-3-3s1.3-3,3-3s3,1.3,3,3S51.8,172.6,50.2,172.6z M50.2,167.5c-1.2,0-2.2,1-2.2,2.2s1,2.2,2.2,2.2
		c1.2,0,2.2-1,2.2-2.2S51.4,167.5,50.2,167.5z M75.8,170H53.7c-0.2,0-0.4-0.2-0.4-0.4s0.2-0.4,0.4-0.4h22.1c0.2,0,0.4,0.2,0.4,0.4
		S76.1,170,75.8,170z"/>
	<path class="st0" d="M70.2,220.7H53.2c-0.1,0-0.2,0-0.3-0.1l-7.6-7.6H30.9c-0.2,0-0.4-0.2-0.4-0.4c0-0.2,0.2-0.4,0.4-0.4h14.6
		c0.1,0,0.2,0,0.3,0.1l7.6,7.6h16.9c0.2,0,0.4,0.2,0.4,0.4C70.6,220.5,70.5,220.7,70.2,220.7z M331.7,181.3c-1.6,0-3-1.3-3-3
		s1.3-3,3-3c1.6,0,3,1.3,3,3C334.6,179.9,333.3,181.3,331.7,181.3z M331.7,176.1c-1.2,0-2.2,1-2.2,2.2s1,2.2,2.2,2.2
		c1.2,0,2.2-1,2.2-2.2S332.9,176.1,331.7,176.1z"/>
	<path class="st0" d="M329.1,178.7h-14.6c-0.1,0-0.2,0-0.3-0.1l-7.6-7.6h-16.9c-0.2,0-0.4-0.2-0.4-0.4s0.2-0.4,0.4-0.4h17.1
		c0.1,0,0.2,0,0.3,0.1l7.6,7.6h14.4c0.2,0,0.4,0.2,0.4,0.4C329.5,178.5,329.3,178.7,329.1,178.7z M311.7,226.9
		c-1.3,0-2.4-1.1-2.4-2.4c0-1.3,1.1-2.4,2.4-2.4c1.3,0,2.4,1.1,2.4,2.4C314.1,225.8,313,226.9,311.7,226.9z M311.7,222.8
		c-0.9,0-1.6,0.7-1.6,1.6s0.7,1.6,1.6,1.6s1.6-0.7,1.6-1.6S312.6,222.8,311.7,222.8z"/>
	<path class="st0" d="M309.7,224.8h-11.5c-0.1,0-0.2,0-0.3-0.1l-6-6h-13.3c-0.2,0-0.4-0.2-0.4-0.4s0.2-0.4,0.4-0.4h13.5
		c0.1,0,0.2,0,0.3,0.1l6,6h11.3c0.2,0,0.4,0.2,0.4,0.4C310,224.7,309.9,224.8,309.7,224.8z"/>
	<path class="st1" d="M130.5,244.3H65.8v-94.4h64.7v18.9H84.7v18.9h31v18.9h-31v18.8h45.8L130.5,244.3L130.5,244.3z M162.6,244.3
		h-18.9v-94.4h37.8c3.5,0,6.8,0.5,10,1.3c3.2,0.9,6.2,2.2,9,3.8c2.8,1.6,5.3,3.6,7.6,5.9c2.3,2.3,4.3,4.9,5.9,7.7s2.9,5.8,3.8,9
		c0.9,3.2,1.3,6.5,1.3,10c0,3.2-0.4,6.4-1.2,9.5c-0.8,3.1-2,6-3.5,8.8c-1.5,2.8-3.4,5.3-5.6,7.6c-2.2,2.3-4.7,4.3-7.4,6.1l10.5,24.7
		h-20.1l-8.2-19l-21.1,0.1L162.6,244.3L162.6,244.3z M162.6,168.8v37.8h18.9c2.6,0,5-0.5,7.3-1.5c2.3-1,4.3-2.3,6-4
		c1.7-1.7,3.1-3.7,4-6c1-2.3,1.5-4.7,1.5-7.3c0-2.6-0.5-5-1.5-7.3c-1-2.3-2.3-4.3-4-6c-1.7-1.7-3.7-3.1-6-4c-2.3-1-4.7-1.5-7.3-1.5
		L162.6,168.8L162.6,168.8z M250.5,244.3h-18.9v-94.4h37.8c3.5,0,6.8,0.5,10,1.3c3.2,0.9,6.2,2.2,9,3.8c2.8,1.6,5.3,3.6,7.6,5.9
		c2.3,2.3,4.3,4.9,5.9,7.7c1.6,2.8,2.9,5.8,3.8,9c0.9,3.2,1.3,6.5,1.3,10c0,5.2-1,10.1-3,14.6c-2,4.6-4.7,8.6-8.1,12
		c-3.4,3.4-7.4,6.1-12,8.1c-4.6,2-9.5,3-14.6,3h-18.9L250.5,244.3L250.5,244.3z M250.5,168.8v37.8h18.9c2.6,0,5-0.5,7.3-1.5
		c2.3-1,4.3-2.3,6-4c1.7-1.7,3.1-3.7,4-6c1-2.3,1.5-4.7,1.5-7.3c0-2.6-0.5-5-1.5-7.3c-1-2.3-2.3-4.3-4-6c-1.7-1.7-3.7-3.1-6-4
		c-2.3-1-4.7-1.5-7.3-1.5L250.5,168.8L250.5,168.8z"/>
	<path class="st2" d="M260,198.5c0.1-0.3-4.2,0.3-4.8,1.3c-0.8,1.3,8.9,6.3,9.7,4.9l10.8-4.5l-5.5-1.7L260,198.5z"/>
	<path class="st3" d="M261.7,206.5C261.7,206.5,261.7,206.5,261.7,206.5c-0.1,0-0.1,0-0.1,0c-1.5,0-2.5-0.1-2.5-0.1s-0.1,0-0.2,0
		c-1.3,0.2-8.2,1.2-7.5-1.3c0.6-2.3,4.7-1.8,6.4-1.5c0,0,0,0,0,0c0.4,0.1,0.7,0.1,0.7,0.1s0.8-0.3,2.1-0.8c0.1,0,0.1,0,0.2-0.1
		c4.3-1.5,13.4-4.3,15.7-2.3l0,0c0,0,0.1,0,0.1,0.1c0,0,0,0,0,0c0,0,0,0.1,0.1,0.1c0,0,0,0,0.1,0.1c0,0,0,0,0,0c0,0,0,0.1,0.1,0.1v0
		c0,0,0,0.1,0.1,0.1c0,0,0,0.1,0.1,0.1c0,0.1,0.1,0.2,0.1,0.3c0,0.1,0,0.2,0,0.3c0,0.2,0,0.3,0,0.5
		C276.6,206.4,266.6,206.7,261.7,206.5z"/>
	<path class="st4" d="M261.8,207l-0.1-0.5l-0.1-0.2c0,0,0,0,0,0l-2.1-2.7l0.3-0.7c4.3-1.5,14.4-4.3,16.7-2.3v0c0,0,0.1,0,0.1,0.1
		c0,0,0,0,0,0c0,0,0,0.1,0.1,0.1c0,0,0,0,0.1,0.1c0,0,0,0,0,0c0,0,0,0.1,0.1,0.1v0c0,0,0,0.1,0.1,0.1c0,0,0,0.1,0.1,0.1
		c0,0.1,0.1,0.2,0.1,0.3c0,0.1,0,0.2,0,0.3c0,0.2,0,0.3,0,0.5C276.6,206.5,266.6,207.2,261.8,207z M258.4,203.7c0,0-7.7-1.8-8.2,1.4
		c-0.5,3.5,8.9,1.2,8.9,1.2s-3.6,0.6-3.4-1.4C256,203.1,258.4,203.7,258.4,203.7z"/>
	<path class="st5" d="M270.4,190.5c-1.5,2.1-0.2,8-0.2,8H260c0.3-0.4,1.1-5.5-0.7-8.2c-2.9-4.5-0.6-7.6-0.6-7.6l5.1-1.2l0.3-1.4
		l0.2-0.9l0-0.2h1.9l0.1,0.4l0.2,0.9l0.2,1.3l3.9,0.8C270.5,182.4,273.9,185.6,270.4,190.5z"/>
	<path class="st6" d="M270.4,190.5c-1.5,2.1-0.2,8-0.2,8H260c0.2-0.3,0.9-4.1-0.1-6.9c-0.2-0.5-0.4-1-0.6-1.4
		c-2.9-4.5-0.5-8.4-0.5-8.4c1.7-0.4,3.2,0,5-0.3c0.2,1,2.5,0.9,2.9,0.1l4.4,0.6C271.1,182.1,273.9,185.6,270.4,190.5z"/>
	<path class="st7" d="M260,198.5c0.2-0.3,0.9-4.1-0.1-6.9c2-0.6,1.7,5,5,6.9H260z"/>
	<path class="st3" d="M276,194.9c-0.1,0.7-0.6,1.4-1.3,2.1c-1.8,1.8-5.4,1.7-7.9,2.4l-0.3-1.3c0,0,4.4-1.2,5.4-2.8
		c0.1-0.2,0.2-0.3,0.2-0.5c0.3-1.5-0.7-2.4-0.7-2.4l-0.2-9C271.3,183.5,276.5,191.6,276,194.9z"/>
	<path class="st6" d="M276,194.9c-0.1,0.6-0.5,1.4-1.1,2.1c-0.1,0.1-0.2,0.1-0.3,0l-0.8-0.5l-2-1.3c0.1-0.2,0.2-0.3,0.2-0.5
		c0.3-1.5-2.5-3.9-2.5-3.9l1.5-8.8C273.2,182.5,276.4,193.2,276,194.9z"/>
	<path class="st3" d="M263.6,198.1l0,0.9c0.1,0,0.1-0.1,0-0.2c-2.2-0.5-5.8,0.2-7.6-1.3c-1.1-0.9-1.7-2.1-1.8-2.9
		c-0.5-3.4,3.6-11.3,3.6-11.3l1.5,7.9c0,0-1.8,1.9-1.5,3.5c0.1,0.3,0.3,0.6,0.6,1C259.8,197.2,263.6,198.1,263.6,198.1z"/>
	<path class="st6" d="M257.8,194.7c0.1,0.3,0.4,0.5,0.7,0.9l-1.8,1.5l-0.7,0.6c-1.1-0.9-2.5-2.2-2.7-3.1c-0.7-2.9,3.5-12.6,5.5-12.9
		l1.6,9.5C260.4,191.3,257.5,193.1,257.8,194.7z"/>
	<path class="st3" d="M266.1,223.5c-1.9,1.9-3.2-3.1-3.7-4.3c-0.1-0.1-0.1-0.2-0.1-0.2s-0.6-0.8-1.4-2.1c0,0,0-0.1-0.1-0.1
		c-1.2-1.9-2.9-4.8-4.1-7.6c-1.4-3.4-2.1-6.8,0-8.1c0,0,0,0,0,0c0.1-0.1,0.2-0.1,0.3-0.1c0,0,0,0,0,0c0.1,0,0.2-0.1,0.3-0.1
		c0.1,0,0.2-0.1,0.3-0.1c0,0,0.1,0,0.1,0c0,0,0.1,0,0.1,0c0,0,0,0,0,0c0,0,0.1,0,0.1,0c0,0,1,0.4,1.3,0.7c2.4,2.4,4.3,10.2,5.2,14.2
		c0,0.1,0,0.1,0,0.2c0.3,1.4,0.4,2.3,0.4,2.3s0.2,0.2,0.5,0.5c0,0,0,0,0,0C266.6,220,267.7,221.8,266.1,223.5z"/>
	<path class="st4" d="M265.1,215.8c0,0-3.3,1.6-4,1.8c-1.1-1.7-3.2-4.9-4.2-7.5c-1.6-4.1-3.8-10.6-0.1-11.3
		C262.9,197.1,265.1,215.8,265.1,215.8z M265,218.2c0,0,4.3,3.8,1.7,5.9c-2.8,2.3-4.4-5.1-4.4-5.1s0.6,0.3,1.7-0.1
		C264.9,218.5,265,218.2,265,218.2z"/>
	<path class="st8" d="M272.3,190.6v8.4c0,0.5-0.4,0.8-0.8,0.8h-12.9c-0.5,0-0.8-0.4-0.8-0.8v-8.4c0-0.5,0.4-0.8,0.8-0.8h12.9
		C271.9,189.8,272.3,190.1,272.3,190.6z"/>
	<path class="st9" d="M263.7,194.8c0-0.7,0.6-1.3,1.3-1.3c0.7,0,1.3,0.6,1.3,1.3c0,0.7-0.6,1.3-1.3,1.3
		C264.3,196.1,263.7,195.5,263.7,194.8z"/>
	<path class="st8" d="M272.3,190.6v8.4c0,0.5-0.4,0.8-0.8,0.8h-12.9c-0.5,0-0.8-0.4-0.8-0.8c13,0.6,14.5-1.3,13.7-9.2
		C271.9,189.8,272.3,190.1,272.3,190.6z"/>
	<path class="st10" d="M259.9,175.3c0.4-0.6,1.1,0.3,1.1,0.3l0.1,2.2C259.4,177.6,259.5,175.8,259.9,175.3z"/>
	<path class="st11" d="M260.1,175.8c0.1-0.1,0.3,0,0.3,0.1c0,0.1-0.1,0.1-0.1,0c0,0-0.1-0.1-0.1-0.1c0,0-0.1,0.1-0.1,0.1
		c-0.1,0.1,0,0.3,0,0.4c0,0.1,0.1,0.2,0.2,0.3c0.1,0.1,0.2,0.2,0.2,0.3c0.1,0.1-0.1,0.2-0.2,0.2c-0.1-0.1-0.1-0.1-0.2-0.2
		c0-0.1-0.1-0.1-0.1-0.2c-0.1-0.2-0.1-0.3-0.2-0.5C259.9,176,260,175.8,260.1,175.8z"/>
	<path class="st10" d="M270.4,175.3c-0.3-0.6-1.1,0.2-1.1,0.2l-0.3,2.2C270.6,177.7,270.7,175.9,270.4,175.3z"/>
	<path class="st11" d="M270.1,175.8c-0.1-0.1-0.3,0-0.4,0.1c0,0.1,0,0.1,0.1,0.1c0,0,0.1-0.1,0.1,0c0,0,0.1,0.1,0.1,0.1
		c0.1,0.1,0,0.3-0.1,0.4c-0.1,0.1-0.1,0.2-0.2,0.3c-0.1,0.1-0.2,0.2-0.3,0.3c-0.1,0.1,0.1,0.2,0.2,0.2c0.1,0,0.1-0.1,0.2-0.2
		c0.1-0.1,0.1-0.1,0.1-0.2c0.1-0.1,0.2-0.3,0.2-0.5C270.3,176.1,270.3,175.9,270.1,175.8z"/>
	<path class="st3" d="M268.6,171.3c2.6,6.2-0.7,9.5-3.8,9.3c-2.8-0.2-5.4-2.8-3.6-9.1L268.6,171.3z"/>
	<path class="st11" d="M265.7,176.6c-0.2-0.3-0.5-0.6-0.5-1c0-0.1-0.1-0.1-0.1,0c-0.3,0.5,0.4,0.9,0.4,1.3c0,0.5-0.6,0.6-0.4,0.6
		C265.4,177.5,265.9,177.2,265.7,176.6z"/>
	<path class="st12" d="M263.8,174.7C263.8,174.7,263.7,174.7,263.8,174.7c-0.1-0.1-0.2-0.2-0.2-0.2c-0.1-0.1-0.3-0.1-0.4-0.1
		c-0.3,0-0.5,0.2-0.6,0.4c0,0.1,0.1,0.2,0.1,0.1c0.1-0.1,0.1-0.1,0.2-0.2c0.1,0,0.2-0.1,0.3-0.1c0,0,0.1,0,0.1,0c0,0,0.1,0,0.1,0
		s0,0,0,0c0,0,0.1,0.1,0.1,0.1c0,0.1,0.1,0.1,0.1,0.1c0.1,0,0.2,0,0.2-0.1C263.8,174.8,263.8,174.8,263.8,174.7z M266.7,174.8
		C266.8,174.8,266.8,174.7,266.7,174.8c0.1-0.1,0.2-0.1,0.2-0.1c0.1,0,0.2,0,0.4,0c0.2,0.1,0.4,0.2,0.4,0.5c0,0.1-0.1,0.1-0.1,0
		c0-0.1-0.1-0.1-0.1-0.2c-0.1,0-0.1-0.1-0.2-0.1c0,0-0.1,0-0.1,0c0,0,0,0-0.1,0c0,0,0,0,0,0c0,0-0.1,0-0.1,0.1
		c-0.1,0-0.1,0.1-0.2,0.1c-0.1,0-0.2-0.1-0.2-0.1C266.7,174.8,266.7,174.8,266.7,174.8z"/>
	<path class="st13" d="M266.1,178.3c0,0.2-0.1,0.5-0.3,0.6c-0.2,0.2-0.4,0.3-0.7,0.3c-0.3,0-0.6-0.1-0.8-0.3
		c-0.1-0.2-0.2-0.4-0.2-0.6c0-0.5,0.6-0.1,1-0.1C265.4,178.1,266.1,177.7,266.1,178.3z"/>
	<path class="st14" d="M265.8,178.9c-0.2,0.2-0.4,0.3-0.7,0.3c-0.3,0-0.6-0.1-0.8-0.3c0.2-0.1,0.4-0.2,0.7-0.2
		C265.4,178.6,265.7,178.7,265.8,178.9z"/>
	
		<ellipse transform="matrix(8.169493e-02 -0.9967 0.9967 8.169493e-02 64.6747 424.3475)" class="st15" cx="262.6" cy="177.1" rx="0.4" ry="1"/>
	<ellipse class="st15" cx="267.7" cy="177.5" rx="1" ry="0.4"/>
	
		<ellipse transform="matrix(0.9995 -3.162010e-02 3.162010e-02 0.9995 -5.4325 8.4107)" class="st16" cx="263.2" cy="176" rx="0.4" ry="0.6"/>
	<circle class="st8" cx="263.3" cy="175.8" r="0.1"/>
	
		<ellipse transform="matrix(0.9995 -3.162010e-02 3.162010e-02 0.9995 -5.4342 8.5396)" class="st16" cx="267.3" cy="176.1" rx="0.4" ry="0.6"/>
	<circle class="st8" cx="267.4" cy="175.9" r="0.1"/>
	<path class="st12" d="M259.9,171.3c0.2-0.3,0.6-0.5,1-0.6c0.1-0.6,0.6-1.2,1.1-1.4c0.6-0.3,1.3-0.3,1.8,0c0.4-0.6,1.1-0.9,1.8-0.9
		c0.7,0.1,1.4,0.5,1.6,1.1c0.2-0.2,0.9-0.2,1.7,0.3c0.7,0.4,0.9,1.3,0.4,1.9c0,0,0.6,0.5,0.2,1.4c-0.6,1.2-2.1,0.3-2.2,0.1
		c-0.4,0.2-0.7,0.8-1.5,0.4c-0.4-0.2-0.7-0.6-0.7-1.1c-0.2,0.4-0.5,0.7-0.9,0.7c-0.4,0.1-0.8,0-1.1-0.3c0.1,1-1.6,0.9-1.8,0.3
		c-0.4,0.3-0.5,0.9-0.6,2.9c-0.5-0.6-0.9-1.2-1.1-1.8C259.6,173.8,259.1,172.2,259.9,171.3z"/>
	<path class="st12" d="M270.4,173.4c0.5-1.4-0.9-1.8-0.9-1.8l-0.1,0c-1.3,0.3-1.2,2-0.4,2.3s0.4,2.4,0.4,2.4c0.4-1,0.9-0.8,0.9-0.8
		C271.4,174.5,270.6,173.3,270.4,173.4z M148.9,122.9l-0.3-1.6c-1.1-0.2-2.5,0.7-3.1,1.5c-0.5,0.8-0.5,1.8-0.2,2.6
		c0.2,0.7,0.7,1.4,0.4,2.1c-0.2,0.5-0.7,0.9-1.1,1.4c-0.7,0.7-1.4,1.5-1.9,2.3c-0.4,0.5-0.7,1.1-0.7,1.7c-0.1,1.5,1.5,2.7,2,4.1
		c0.4,1.3-0.2,2.7-1.4,3.6c1.3-0.3,2.6-1.1,3.3-2s1.1-2.1,0.8-3.2c-0.2-0.8-0.6-1.5-0.9-2.3c-0.3-0.8-0.4-1.7,0.1-2.4
		c0.2-0.3,0.4-0.5,0.7-0.7c-0.4,0.7-0.8,1.5-0.7,2.2c0.2,1.3,1.9,2.2,1.9,3.6c0.3-1.5-1.3-2.9-0.8-4.4c0.3-0.6,0.9-1.1,1.3-1.7
		c0.7-1.1,0.4-2.3-0.2-3.4c0,0-0.8-1.1-0.8-1.9C147.4,123.6,147.9,122.9,148.9,122.9z"/>
	<path class="st3" d="M171.8,176.3c-0.4,0.6-1.9,0.5-2.5,0.2c-0.5-0.3-1.4-1-1.9-1c-0.5,0-1.4,0-1.7-0.4c-0.2-0.4,0-1.2,0.1-1.9l0,0
		c0.1-0.5-0.4-2.5-0.4-2.5l2.7,0.2c0,0-0.3,1.9,0,2.5c0.2,0.4,0.7,0.8,1.2,1C169.6,174.5,172,175.9,171.8,176.3z"/>
	<path class="st17" d="M172.2,176.4c-0.4,0.6-2.4,0.5-2.9,0.1c-0.5-0.3-1.4-1-1.9-1c-0.5,0-1.4,0-1.7-0.4c-0.2-0.4,0-1.2,0.1-1.9
		l0,0c0,0,0.2,0.5,0.6,0.9c0.3,0.4,3.2,1.7,3.6,0.5C170.7,174.7,172.5,176,172.2,176.4z"/>
	<path class="st3" d="M160.3,175.8c-0.5,0.5-2,0-2.4-0.4c-0.4-0.4-1.1-1.3-1.6-1.4c-0.5-0.1-1.4-0.3-1.5-0.8
		c-0.1-0.5,0.3-1.2,0.5-1.8l0,0c0.2-0.5,0.2-2.6,0.2-2.6l2.6,0.8c0,0-0.8,1.8-0.6,2.4c0.1,0.4,0.5,1,1,1.3
		C158.7,173.5,160.7,175.5,160.3,175.8z"/>
	<path class="st17" d="M160.8,175.9c-0.5,0.5-2.4-0.1-2.9-0.6c-0.4-0.4-1.1-1.3-1.6-1.4c-0.5-0.1-1.4-0.3-1.5-0.8
		c-0.1-0.5,0.3-1.2,0.5-1.8l0,0c0,0,0.1,0.6,0.3,1.1c0.2,0.5,2.7,2.4,3.3,1.3C159.7,173.9,161.1,175.6,160.8,175.9z"/>
	<path class="st18" d="M168.2,170.9c-1.2,0.2-1.6,0.2-2.9-0.2c-0.5-2.6-2.9-13.6-1.8-18.6c0-0.2,4.3-1.7,4.3-1.7
		C169.9,152.8,168.2,169.1,168.2,170.9z"/>
	<path class="st18" d="M167.8,150.5c0.1,0.1-2.9,4-3.1,3.9c-1.8-1.2-11.8-2.9-14.8-6.8c-0.1-0.1,0.2-5.9,2.8-5.1
		C152.6,142.5,165.8,147.7,167.8,150.5z"/>
	<path class="st19" d="M154.9,129.2c0,4.2-3.1,2.8-4.6,0c0.2-0.2,0.4-0.5,0.4-0.9c0.1-0.4,0.1-1,0.2-1.6c0-0.1,0-0.2,0-0.3l0.3,0
		l0.6-0.1l2-0.2c0,0.2,0,0.4-0.1,0.6c-0.1,0.7-0.1,1.5,0,2C153.8,129.1,154.7,129.1,154.9,129.2z M160.1,138.1l4.7,5.3l-1.1,1.4
		c-2.9-2.2-6.9-4.1-7.4-6.5L160.1,138.1z"/>
	<path class="st20" d="M160.5,137.7c-1.1,1.1-3,2.3-4.6,2.9l-2.2-4.4l2.6-5.8C158.2,131.6,159.3,134.8,160.5,137.7z"/>
	<path class="st21" d="M158.4,171.3c-1.3-0.3-2.3-0.5-3.5-1.4c1.3-2.8,1.6-11,4.8-15.6c0.1-0.2,3.9-1.5,3.9-1.5
		C165.7,156.5,159.4,169.7,158.4,171.3z"/>
	<path class="st21" d="M161.6,157c0,0,2-4.2,2-4.3c-0.8-2.7-6.8-5.4-8.3-7.8c-1.8-1.1-5.7-3.3-6.5-0.7c-0.4,1.2-1.8,4.9,0,7
		C150.7,153.6,161.6,157,161.6,157z"/>
	<path class="st22" d="M146.9,136.6c0.2,0.3,0.4,0.6,0.6,0.9c1,1.3,2.2,2.6,1.6,4.7c-0.5,1.6-1.9,4.2-1.4,4.9
		c0.4,0.6,1.2,0.9,2.2,1.1c3,0.6,8-2.7,8.5-3.5c-0.4-0.8-1.3-2.6-1.3-3.4c-0.1-1.8,0.1-2.8,1-5.2c0.7-1.8,0.3-6.5-4.2-7.1
		c0.5,2.9-2.5,2-3.6,0.2c-0.8,0.1-2.2,1.1-2.8,1.7C146.1,132.6,146,134.1,146.9,136.6z"/>
	<path class="st8" d="M153.4,131.7c-2,0.4-3.5-1.4-3.9-2.2c0.2,0,0.7-0.2,0.8-0.3c1.2,1.7,4.1,2.6,3.6-0.2c0.2,0,0.6,0.1,0.8,0.2
		C155,130,154.6,131.5,153.4,131.7z"/>
	<circle class="st12" cx="152.4" cy="122.2" r="4.8"/>
	<path class="st23" d="M157,119c0,0,1.5,3.9,0.3,6.9c-0.7,1.5-2.2,2.7-4.2,2.4c-3.2-0.6-3.5-2.4-3.6-3.7c-0.1-2.1,0.5-4.2,1.1-5.4
		L157,119z"/>
	<path class="st23" d="M148.9,122.8c0.3-0.5,1,0.3,1,0.3v2C148.4,125,148.6,123.3,148.9,122.8z"/>
	<path class="st12" d="M157.8,122.1c-0.5-0.6-1.6-2.8-3.9-3c-0.3,3.6-4.1,2.5-4.5,4.8c0,0-0.8-2.2,0.4-4.8c1-2.2,5.6-3.5,7.7,0.1
		C158.2,120.6,158,122.1,157.8,122.1z"/>
	<path class="st23" d="M154.6,143.6l7,2.3l0.5,2c-3.7-0.2-8.4-0.8-10.3-2.2L154.6,143.6z"/>
	<path class="st23" d="M154.6,143.6c0,0-2.7,2.3-2.9,2.1c-2.1-2.4-3.8-8.7-3.9-9.7c-0.4-3,3.2-1.9,3.8-0.5
		C152.5,137.7,154.6,143.6,154.6,143.6z"/>
	<path class="st20" d="M154,139.3c-1.7,1.3-3.4,1.5-5.1,1.8c0,0-4.3-6.6-0.4-8.3C152.4,131,154,139.3,154,139.3z"/>
	<g>
		<polygon class="st17" points="152.5,148.4 158.3,148.4 168.2,148.4 170.7,140.8 160.7,140.8 158.5,147.8 152.5,147.8 		"/>
		<path class="st24" d="M158.5,148.4h9.7l2.4-7.6h-1.2C167.6,148.1,161.3,147,158.5,148.4z"/>
	</g>
	<g>
		
			<ellipse transform="matrix(0.9996 -2.828801e-02 2.828801e-02 0.9996 -3.4433 4.3581)" class="st16" cx="152.3" cy="123.9" rx="0.4" ry="0.6"/>
		
			<ellipse transform="matrix(3.259691e-02 -0.9995 0.9995 3.259691e-02 27.5737 275.9018)" class="st16" cx="156.3" cy="123.7" rx="0.5" ry="0.4"/>
		<path class="st11" d="M154.9,124.2c-0.2-0.3-0.6-0.6-0.6-1c0-0.1-0.1-0.1-0.1,0c-0.2,0.5,0.4,0.8,0.5,1.2c0,0.5-0.6,0.6-0.4,0.6
			C154.6,125.1,155.2,124.8,154.9,124.2z"/>
		<path class="st12" d="M152.9,122.9C152.9,122.9,152.8,122.8,152.9,122.9c-0.1-0.1-0.2-0.2-0.3-0.2c-0.1-0.1-0.3-0.1-0.4-0.1
			c-0.3,0-0.5,0.2-0.6,0.5c0,0.1,0.1,0.2,0.1,0.1c0-0.1,0.1-0.2,0.2-0.2c0.1,0,0.2-0.1,0.3-0.1c0,0,0.1,0,0.1,0c0,0,0.1,0,0.1,0
			c0,0,0,0,0,0c0,0,0.1,0.1,0.1,0.1c0.1,0,0.1,0.1,0.2,0.1c0.1,0,0.2,0,0.2-0.1C152.9,123,152.9,122.9,152.9,122.9z M155.9,122.7
			C155.9,122.7,155.9,122.7,155.9,122.7c0.1-0.1,0.2-0.1,0.2-0.1c0.1,0,0.2,0,0.4,0c0.2,0,0.4,0.2,0.5,0.4c0,0.1-0.1,0.1-0.1,0.1
			c0-0.1-0.1-0.1-0.2-0.2c-0.1,0-0.1-0.1-0.2-0.1c0,0-0.1,0-0.1,0c0,0,0,0-0.1,0c0,0,0,0,0,0c0,0-0.1,0-0.1,0.1
			c-0.1,0-0.1,0.1-0.1,0.1c-0.1,0-0.2,0-0.2-0.1C155.8,122.8,155.8,122.7,155.9,122.7z"/>
		<path class="st13" d="M155.1,126c0,0.2-0.1,0.4-0.2,0.6c-0.2,0.2-0.4,0.3-0.7,0.3c-0.3,0-0.5-0.1-0.7-0.3
			c-0.1-0.1-0.2-0.3-0.2-0.5c0-0.5,0.6-0.1,0.9-0.1C154.4,125.9,155,125.5,155.1,126z"/>
		<path class="st14" d="M154.8,126.6c-0.2,0.2-0.4,0.3-0.7,0.3c-0.3,0-0.5-0.1-0.7-0.3c0.1-0.1,0.4-0.2,0.7-0.3
			C154.4,126.3,154.7,126.4,154.8,126.6z"/>
		
			<ellipse transform="matrix(3.259691e-02 -0.9995 0.9995 3.259691e-02 22.2712 273.0934)" class="st25" cx="152.2" cy="125" rx="0.4" ry="0.9"/>
		<ellipse class="st25" cx="156.2" cy="125.3" rx="0.8" ry="0.3"/>
		<circle class="st8" cx="152.4" cy="123.7" r="0.1"/>
		<circle class="st8" cx="156.4" cy="123.5" r="0.1"/>
	</g>
	<g>
		<path class="st26" d="M84.1,187.4c-0.8-0.5-0.9,1.6-1.9,1.8c-0.2-0.1-0.3-0.9-0.5-0.8c-0.5,0.3,0,1.6,0,2.2l1.5,0.7
			C83.8,190.8,85.4,188.3,84.1,187.4z"/>
		<path class="st26" d="M76.4,196.8c1.5-0.9,3.5-3.9,5.5-6.7l1.4,0.8c0,0-0.9,6.4-3.2,8.1L76.4,196.8z"/>
		<path class="st26" d="M78.7,195.8L80,199c-2,1.1-10.6-0.6-10.9-1.8c-0.5-2.6,1.9-5,1.9-5L78.7,195.8z"/>
		<path class="st21" d="M72.9,198.9c1.7,0.6,3.5,0.6,3.5,0.6c0.6-0.4,1.3-2.6,1-4.8c-2.9-1-6-2.9-7.8-2.8c0,0-2,2.8-1.6,4.3
			C68.2,197.1,70.7,198.1,72.9,198.9z"/>
		<path class="st27" d="M76.4,199.5c0,0-2.2-1.1-2.7-3.1c-0.6-2-2.5-2.2-2.5-2.2l1.7,4.7C74.6,199.5,76.4,199.5,76.4,199.5z"/>
		<path class="st28" d="M77.5,242.9C77.5,242.9,77.5,242.9,77.5,242.9c-0.1-1-2.8-0.8-3.3-2.7c-0.8-1.6-2.1,2-2.9-0.2
			c-0.6-0.1-0.5,1.1-0.6,1.1c-0.2,0.2-0.3,0.9-0.2,1c-0.3,2.3,1.4,0.8,4.6,1.4C78,244,77.5,243.3,77.5,242.9z M64.7,240.1l-3,0.3
			c0,0-1.5,2.7-0.6,3.4c0.9,0.7,3.8,0.3,4.2-0.2C65.8,242.8,64.7,240.1,64.7,240.1z"/>
		<path class="st29" d="M74.9,240.8c-1.4,0.3-2.9,0.2-4.3,0l-2.3-17.4l5.8-2C74.5,228.2,74.9,240.8,74.9,240.8z"/>
		<path class="st29" d="M74.2,225.1l-5.6,0.6l-3.1-18.8c0,0,7.6-1.5,8,1.5L74.2,225.1z"/>
		<path class="st6" d="M65.8,240.8c-1.5,0.3-3.5,0.2-5.1,0l0.1-18.4l6.3-1.3C66.7,228.2,65.8,240.8,65.8,240.8z"/>
		<path class="st6" d="M68.7,208.2l-1.9,17l-5.9-0.1l0-6v0l0-7.9l0-1.7C60.8,209.4,68.7,205.1,68.7,208.2z"/>
		<path class="st30" d="M66.1,212.5c0,0-2.4,1-3.9,1.3c-1.1,0.3-1.3,3.6-1.4,5.3l0-7.9L66.1,212.5z"/>
		<path class="st26" d="M64.8,191.4c1.8,2.3,3.8,1.7,3.6,0.1c-0.2-0.2-0.3-0.4-0.3-0.7c0-0.4,0-0.8,0-1.3c0-0.1,0-0.2,0-0.3l-0.2,0
			l-0.6-0.1l-1.9-0.2c0,0.2,0,0.3,0,0.5c0,0.6,0,1.2-0.2,1.6C65.1,191.2,65,191.4,64.8,191.4z"/>
		<path class="st21" d="M70.6,212.1L70.6,212.1c-3.9,0.6-9.6,0.5-10.6-1.1c1.8-4,1.5-6.8,0.8-9.2c-0.8-2.6-1.9-4.6-1.1-7.2
			c0.6-1.8,2.6-3.1,4.9-3.4c0.2,0,0.3-0.1,0.5-0.2c0.3,0.6,1.7,1.2,2.3,1.1c0.5-0.1,0.7-0.9,0.7-0.9c0.1,0,0.2,0,0.3,0.1
			c1.7,0.3,2.6,0.7,3.3,1.1c2.5,1.5,0.2,12.1,2.4,18C74.4,211.2,72.9,211.8,70.6,212.1z"/>
		<path class="st27" d="M70.6,212.1L70.6,212.1c-3.9,0.6-9.6,0.5-10.6-1.1c1.8-4,1.5-6.8,0.8-9.2l2.8-4.2c0,0,0.5,3.4,0,5.4
			c-0.5,2.1-0.4,3.9,2.2,6C68.5,211.2,70.6,212.1,70.6,212.1z"/>
		<path class="st8" d="M64.7,191.2c0.6,0.6,1.6,1.5,2.7,1.4c1-0.1,1.2-0.8,1.1-1.3c-0.1,0-0.2,0-0.3-0.1c0,0-0.2,0.8-0.7,0.9
			c-0.6,0.1-2-0.4-2.3-1.1C65,191.1,64.8,191.2,64.7,191.2z"/>
		<path class="st23" d="M69.9,180.2c0,0,2.3,3.4,1.7,6.6c-0.3,1.6-1.6,3.4-3.6,3.5c-3.2,0.1-4.2-2-4.6-3.2c-0.5-2-0.8-4.2-0.5-5.4
			L69.9,180.2z"/>
		<ellipse transform="matrix(0.9934 -0.1147 0.1147 0.9934 -20.8313 8.7946)" class="st16" cx="66" cy="185.4" rx="0.4" ry="0.6"/>
		
			<ellipse transform="matrix(0.9986 -5.289369e-02 5.289369e-02 0.9986 -9.6806 3.9752)" class="st16" cx="70.3" cy="184.9" rx="0.4" ry="0.6"/>
		<path class="st11" d="M68.8,185.6c-0.2-0.3-0.6-0.6-0.7-1c0-0.1-0.1-0.1-0.1,0c-0.2,0.6,0.5,0.9,0.6,1.3c0.1,0.5-0.6,0.7-0.3,0.7
			C68.6,186.5,69.1,186.2,68.8,185.6z"/>
		<path class="st12" d="M66.5,184.3C66.5,184.3,66.5,184.3,66.5,184.3c-0.2-0.1-0.2-0.1-0.3-0.2c-0.1,0-0.3-0.1-0.4,0
			c-0.3,0.1-0.5,0.3-0.6,0.5c0,0.1,0.1,0.1,0.2,0.1c0-0.1,0.1-0.2,0.2-0.2c0.1-0.1,0.2-0.1,0.3-0.1c0.1,0,0.1,0,0.1,0
			c0,0,0.1,0,0.1,0c0,0,0,0,0.1,0c0.1,0,0.1,0,0.1,0.1c0.1,0,0.1,0.1,0.2,0.1c0.1,0,0.2-0.1,0.2-0.2
			C66.6,184.4,66.6,184.4,66.5,184.3z M69.7,183.9C69.7,183.8,69.7,183.8,69.7,183.9c0.1-0.1,0.2-0.1,0.2-0.2
			c0.1-0.1,0.3-0.1,0.4-0.1c0.3,0,0.4,0.2,0.5,0.4c0,0.1-0.1,0.1-0.1,0.1c0-0.1-0.1-0.1-0.2-0.2c-0.1,0-0.2-0.1-0.2-0.1
			c0,0-0.1,0-0.1,0c0,0-0.1,0-0.1,0c0,0,0,0,0,0c0,0-0.1,0-0.1,0.1c0,0-0.1,0.1-0.1,0.1c-0.1,0-0.2,0-0.2-0.1
			C69.6,183.9,69.7,183.9,69.7,183.9z"/>
		<path class="st13" d="M69.1,187.4c0,0.2,0,0.5-0.2,0.6c-0.2,0.2-0.4,0.3-0.7,0.4c-0.3,0-0.6-0.1-0.8-0.2c-0.2-0.1-0.3-0.3-0.3-0.5
			c-0.1-0.5,0.6-0.2,1-0.2C68.5,187.4,69.1,186.9,69.1,187.4z"/>
		<path class="st14" d="M68.9,188c-0.2,0.2-0.4,0.3-0.7,0.4c-0.3,0-0.6-0.1-0.8-0.2c0.1-0.2,0.4-0.3,0.7-0.3
			C68.5,187.8,68.8,187.9,68.9,188z"/>
		
			<ellipse transform="matrix(0.9986 -5.289369e-02 5.289369e-02 0.9986 -9.7813 3.7537)" class="st25" cx="66" cy="186.7" rx="1" ry="0.4"/>
		
			<ellipse transform="matrix(0.996 -8.934627e-02 8.934627e-02 0.996 -16.3342 7.0408)" class="st25" cx="70.5" cy="186" rx="0.9" ry="0.4"/>
		<circle class="st8" cx="66.1" cy="185.2" r="0.1"/>
		<circle class="st8" cx="70.3" cy="184.7" r="0.1"/>
		<path class="st23" d="M62.1,184.8c0.3-0.6,0.9,0,1,0.2c0.3,0.5,0.6,2.1,0.6,2.1C62,187.3,61.8,185.4,62.1,184.8z"/>
		<path class="st11" d="M62.4,185.3c0.1-0.1,0.3-0.1,0.4,0c0,0.1,0,0.1-0.1,0.1c0,0-0.1-0.1-0.1,0c0,0-0.1,0.1-0.1,0.1
			c0,0.1,0,0.3,0.1,0.4s0.1,0.2,0.2,0.3c0.1,0.1,0.2,0.2,0.3,0.2c0.1,0.1,0,0.2-0.1,0.2c-0.1,0-0.2-0.1-0.2-0.2
			c-0.1-0.1-0.1-0.1-0.2-0.2c-0.1-0.1-0.2-0.3-0.3-0.5C62.2,185.6,62.2,185.4,62.4,185.3z"/>
		<path class="st12" d="M62,182.6c0.2-0.3,0.5-0.5,0.7-0.7c-0.1-0.6,0.2-1.2,0.6-1.6s1.1-0.6,1.7-0.5c0.2-0.6,0.7-1.2,1.4-1.3
			c0.7-0.2,1.4,0.1,1.8,0.6c0.1-0.2,0.8-0.5,1.7-0.2c0.7,0.2,1.2,0.9,0.9,1.6c0,0,0.7,0.3,0.6,1.2c-0.2,1.3-1.8,0.9-2,0.7
			c-0.3,0.3-0.4,0.9-1.3,0.8c-0.4,0-0.8-0.4-0.9-0.8c0,0.4-0.3,0.7-0.6,0.9s-0.8,0.2-1.1,0c0.3,0.9-1.2,1.3-1.5,0.8
			c-0.3,0.3-0.2,1.5-0.1,2.2c-0.7-0.1-1.5-1.1-1.8-1.7C61.7,184,61.6,183.2,62,182.6z"/>
		<path class="st23" d="M58.8,204.1l7.3,4.3l-0.6,1.7c-1.7-0.4-8.3-1.7-8.5-3.6L58.8,204.1z"/>
		<path class="st23" d="M57.1,207l3.4-1.5l3.1-9.5c0,0-2.7-2.3-4.1-0.7C58,197,56.4,205.4,57.1,207z"/>
		<path class="st21" d="M57,200.8c0.9,1.2,4.1,2,4.9,2c0,0,4.2-8.3,1.6-9.8C59.2,190.5,57,200.8,57,200.8z"/>
		<path class="st23" d="M69.2,209.6c0-0.5-1.4-0.3-1.5-0.5c-0.5-0.4,1.1-0.8,0.2-1.1c-0.3-0.1-1.6,0.5-2,0.4l-0.6,1.7
			C67.4,211.7,69.1,211.9,69.2,209.6z"/>
		<circle class="st31" cx="93.1" cy="181.1" r="1.9"/>
		<path class="st32" d="M79.1,180.9l1.1,5.4c-1.3,0-2.5-0.9-2.7-2.3C77.2,182.7,77.9,181.5,79.1,180.9z"/>
		<path class="st33" d="M78.6,181.2l0.5,2.6c0.2,0.8-0.8,1.4-1.4,0.9c0,0,0,0,0,0c0.5,1,1.4,1.6,2.5,1.6l-1.1-5.4
			C78.9,181,78.8,181.1,78.6,181.2z"/>
		<path class="st32" d="M83.1,183c0.3,1.5-0.7,3-2.2,3.3c-0.2,0-0.4,0.1-0.6,0.1l-1.1-5.4c0.2-0.1,0.4-0.1,0.6-0.2
			C81.3,180.4,82.8,181.4,83.1,183z"/>
		<path class="st32" d="M94,187.8c-2.8-1.9-8.7-1.8-12.8-1.8l-1-5.2c3.7-1.5,9-3.4,11.1-6.6L94,187.8z"/>
		<path class="st33" d="M89.8,175.9L89.8,175.9c0.8,4.2-2.4,8.1-6.7,8c-0.8,0-1.6,0-2.4,0l0.4,2.2c4.1,0,10-0.2,12.8,1.8l-2.7-13.5
			C90.9,174.9,90.4,175.4,89.8,175.9z"/>
		<path class="st4" d="M83.5,179.3l1.4,6.8c0,0.2-0.1,0.3-0.2,0.4l-3.9,0.8c-0.2,0-0.3-0.1-0.4-0.2l-1.4-6.8c0-0.2,0.1-0.3,0.2-0.4
			l3.9-0.8C83.3,179,83.5,179.1,83.5,179.3z"/>
		<path class="st4" d="M85.2,192.8l-2.5,0.5c-0.3,0.1-0.7-0.2-0.7-0.5l-0.3-5.7l2-0.4l1.9,5.3C85.7,192.3,85.5,192.7,85.2,192.8z"/>
		<path class="st31" d="M85.6,192l-1.9-5.3l-0.8,0.2l1,4.3c0.1,0.3-0.1,0.7-0.4,0.7l-1.5,0.3l0,0.5c0,0.3,0.3,0.6,0.7,0.5l2.5-0.5
			C85.5,192.7,85.7,192.3,85.6,192z"/>
		
			<rect x="92.6" y="174.1" transform="matrix(0.9803 -0.1973 0.1973 0.9803 -33.8839 21.8862)" class="st4" width="0.5" height="13.8"/>
		<path class="st31" d="M82.8,180.4l-2.8,0.6c-0.1,0-0.1,0-0.1-0.1l0-0.1c0-0.1,0-0.1,0.1-0.1l2.8-0.6c0.1,0,0.1,0,0.1,0.1l0,0.1
			C82.9,180.3,82.9,180.4,82.8,180.4z M83,181.4l-2.8,0.6c-0.1,0-0.1,0-0.1-0.1l0-0.1c0-0.1,0-0.1,0.1-0.1l2.8-0.6
			c0.1,0,0.1,0,0.1,0.1l0,0.1C83.1,181.3,83.1,181.4,83,181.4z M83.2,182.4l-2.8,0.6c-0.1,0-0.1,0-0.1-0.1l0-0.1
			c0-0.1,0-0.1,0.1-0.1l2.8-0.6c0.1,0,0.1,0,0.1,0.1l0,0.1C83.3,182.3,83.3,182.4,83.2,182.4z M83.5,183.4l-2.8,0.6
			c-0.1,0-0.1,0-0.1-0.1l0-0.1c0-0.1,0-0.1,0.1-0.1l2.8-0.6c0.1,0,0.1,0,0.1,0.1l0,0.1C83.5,183.4,83.5,183.4,83.5,183.4z
			 M83.7,184.4l-2.8,0.6c-0.1,0-0.1,0-0.1-0.1l0-0.1c0-0.1,0-0.1,0.1-0.1l2.8-0.6c0.1,0,0.1,0,0.1,0.1l0,0.1
			C83.7,184.4,83.7,184.4,83.7,184.4z M83.9,185.5l-2.8,0.6c-0.1,0-0.1,0-0.1-0.1l0-0.1c0-0.1,0-0.1,0.1-0.1l2.8-0.6
			c0.1,0,0.1,0,0.1,0.1l0,0.1C84,185.4,83.9,185.4,83.9,185.5z"/>
		<path class="st4" d="M95.6,177.7c-0.1,0-0.1,0-0.2,0c-0.2,0.2-0.4,0.4-0.6,0.6c0,0,0,0.1,0,0.2c0,0,0.1,0,0.2,0
			c0.2-0.2,0.4-0.4,0.6-0.6C95.6,177.9,95.6,177.8,95.6,177.7z"/>
		
			<ellipse transform="matrix(0.9496 -0.3135 0.3135 0.9496 -51.4639 39.3716)" class="st4" cx="96.7" cy="179.7" rx="247.6" ry="0.1"/>
		<path class="st4" d="M96.7,181.8c-0.3,0-0.6-0.1-0.9-0.1c-0.1,0-0.1,0-0.1,0.1c0,0.1,0,0.1,0.1,0.1c0.3,0,0.6,0.1,0.9,0.1
			c0.1,0,0.1,0,0.1-0.1C96.8,181.9,96.7,181.8,96.7,181.8z"/>
		<circle class="st34" cx="96" cy="185" r="0.2"/>
		
			<ellipse transform="matrix(0.9518 -0.3067 0.3067 0.9518 -53.6632 34.9128)" class="st26" cx="84.2" cy="188.2" rx="0.3" ry="0.9"/>
		<path class="st26" d="M81.9,188.1c-0.4,0.1-0.5,1-0.5,1l0.5,0.3C81.8,189.3,82.2,188,81.9,188.1z"/>
	</g>
	<g>
		<path class="st22" d="M89.8,139.9c-2.6,0-5.1-0.9-7.1-2.6l7.2-7.6l9,5.4c-0.9,1.4-2.2,2.5-3.6,3.3
			C93.7,139.4,91.8,139.9,89.8,139.9z"/>
		<path class="st21" d="M90.5,128.2v-10.3c5.6,0.3,10,4.8,10.4,10.3H90.5z"/>
		<path class="st35" d="M94.3,130h8.6c-0.1,1.5-0.5,3-1.2,4.4L94.3,130z"/>
		<path class="st36" d="M81.7,136.4c-1.9-2-3-4.7-3-7.5c0-5.8,4.6-10.6,10.4-11v10.7L81.7,136.4z"/>
	</g>
	<g>
		<path class="st37" d="M219.6,141.6v3c-2.7-0.1-5.4-1.1-7.5-2.8l1.7-2.5C215.5,140.8,217.5,141.6,219.6,141.6z"/>
		<path class="st21" d="M219.6,141.6v3c-2.7-0.1-5.4-1.1-7.5-2.8l1.7-2.5C215.5,140.8,217.5,141.6,219.6,141.6z"/>
		<path class="st38" d="M213.3,138.9l-1.7,2.5c-2.6-2.3-4-5.7-4-9.1c0-0.1,0-0.2,0-0.3h3c0,0.1,0,0.2,0,0.3
			C210.5,134.7,211.5,137.1,213.3,138.9z"/>
		<path class="st22" d="M213.3,138.9l-1.7,2.5c-2.6-2.3-4-5.7-4-9.1c0-0.1,0-0.2,0-0.3h3c0,0.1,0,0.2,0,0.3
			C210.5,134.7,211.5,137.1,213.3,138.9z"/>
		<path class="st37" d="M216.9,123.3c-3.4,1.2-5.9,4.3-6.3,7.9h-3c0.2-2.4,1.1-4.7,2.6-6.7c1.5-1.9,3.5-3.3,5.8-4.1L216.9,123.3z"/>
		<path class="st36" d="M216.9,123.3c-3.4,1.2-5.9,4.3-6.3,7.9h-3c0.2-2.4,1.1-4.7,2.6-6.7c1.5-1.9,3.5-3.3,5.8-4.1L216.9,123.3z"/>
		<path class="st37" d="M232.5,132.2c0,1.2-0.2,2.4-0.5,3.5l-2.8-1.2c0.2-0.8,0.3-1.5,0.3-2.3c0-2.9-1.4-5.6-3.6-7.4l1.9-2.3
			c1.4,1.1,2.6,2.5,3.4,4.1C232,128.3,232.5,130.2,232.5,132.2z"/>
		<path class="st21" d="M232.5,132.2c0,1.2-0.2,2.4-0.5,3.5l-2.8-1.2c0.2-0.8,0.3-1.5,0.3-2.3c0-2.9-1.4-5.6-3.6-7.4l1.9-2.3
			c1.4,1.1,2.6,2.5,3.4,4.1C232,128.3,232.5,130.2,232.5,132.2z"/>
		<path class="st38" d="M231.7,136.5c-0.8,2.3-2.3,4.3-4.4,5.8c-2,1.5-4.5,2.3-7,2.4v-3c3.9-0.2,7.3-2.7,8.6-6.4L231.7,136.5z"/>
		<path class="st35" d="M231.7,136.5c-0.8,2.3-2.3,4.3-4.4,5.8c-2,1.5-4.5,2.3-7,2.4v-3c3.9-0.2,7.3-2.7,8.6-6.4L231.7,136.5z"/>
		<path class="st38" d="M227.1,122l-1.9,2.3c-1.5-1-3.3-1.6-5.2-1.6c-0.2,0-0.4,0-0.6,0c-0.6,0-1.2,0.1-1.7,0.3l-0.9-2.9
			c1-0.3,2-0.4,3.1-0.4c0.1,0,0.1,0,0.2,0C222.6,119.8,225,120.6,227.1,122z"/>
		<path class="st22" d="M227.1,122l-1.9,2.3c-1.5-1-3.3-1.6-5.2-1.6c-0.2,0-0.4,0-0.6,0c-0.6,0-1.2,0.1-1.7,0.3l-0.9-2.9
			c1-0.3,2-0.4,3.1-0.4c0.1,0,0.1,0,0.2,0C222.6,119.8,225,120.6,227.1,122z"/>
	</g>
	<g>
		<path class="st21" d="M301,159.3c-4.1,8.2-14,11.7-22.3,7.9c-0.2-0.1-0.4-0.2-0.6-0.3c-8.4-4.2-11.8-14.5-7.6-22.9
			c4.2-8.4,14.5-11.8,22.9-7.6c0.2,0.1,0.4,0.2,0.6,0.3C302,141.1,305.1,151.1,301,159.3z"/>
		<circle class="st8" cx="285.8" cy="151.7" r="14.8"/>
		<path class="st8" d="M276.8,147.2c2.5-4.9,8.5-6.9,13.4-4.5c4.9,2.5,6.9,8.5,4.5,13.4c-2.5,4.9-8.5,6.9-13.4,4.5
			S274.3,152.1,276.8,147.2z"/>
		
			<ellipse transform="matrix(9.860763e-02 -0.9951 0.9951 9.860763e-02 106.6387 421.1205)" class="st39" cx="285.8" cy="151.7" rx="12.8" ry="12.8"/>
		
			<ellipse transform="matrix(9.860767e-02 -0.9951 0.9951 9.860767e-02 106.6387 421.1205)" class="st8" cx="285.8" cy="151.7" rx="10.7" ry="10.7"/>
		<circle class="st22" cx="285.8" cy="151.7" r="9.6"/>
		
			<ellipse transform="matrix(0.3118 -0.9501 0.9501 0.3118 52.5261 375.916)" class="st8" cx="285.8" cy="151.7" rx="5.5" ry="5.5"/>
		<path class="st21" d="M283.1,150.3c0.7-1.5,2.6-2.1,4-1.3c1.5,0.7,2.1,2.6,1.3,4c-0.7,1.5-2.6,2.1-4,1.3
			C282.9,153.6,282.3,151.8,283.1,150.3z"/>
		
			<rect x="286" y="145.5" transform="matrix(0.8793 -0.4763 0.4763 0.8793 -33.6441 158.6399)" class="st40" width="20.2" height="0.3"/>
		<polygon class="st40" points="287.6,149.4 288.4,150.8 285.2,151.7 		"/>
		<polygon class="st40" points="288.6,148.9 289.4,150.3 286.1,151.2 		"/>
		<polygon class="st21" points="303.1,143.3 302.9,143 301.4,142.9 302.1,141.5 301.9,141.2 300.9,143.1 		"/>
		<polygon class="st21" points="303.5,143.1 303.3,142.8 301.8,142.6 302.5,141.3 302.3,141 301.3,142.9 		"/>
		<polygon class="st21" points="304.7,142.4 304.6,142.1 303.1,142 303.8,140.6 303.6,140.3 302.6,142.2 		"/>
		<polygon class="st21" points="305.1,142.2 305,141.9 303.5,141.8 304.2,140.4 304,140.1 303,142 		"/>
		<path class="st40" d="M304.7,140.9l0.4-0.2c0.1-0.1,0.2,0,0.3,0.1l0,0c0.1,0.1,0,0.2-0.1,0.3l-0.4,0.2c-0.1,0.1-0.2,0-0.3-0.1l0,0
			C304.5,141.1,304.5,140.9,304.7,140.9z"/>
	</g>
	<g>
		
			<rect x="118.5" y="228.9" transform="matrix(0.9532 -0.3024 0.3024 0.9532 -64.1698 47.5097)" class="st41" width="5.7" height="4.2"/>
		<path class="st41" d="M95,243.7c-1.5,0.6-3.4-0.8-4.1-3c-0.7-2.2,0-4.4,1.6-4.8l21.3-5.7l1.2-0.3l0.9-0.2l1.2-0.3l1.5-0.4l1.8,5.5
			l-1.4,0.5l-1.2,0.4l-0.9,0.3l-1.2,0.4L95,243.7z"/>
		<polygon class="st32" points="117.3,235.4 115.5,229.7 117.2,229.2 119,234.8 		"/>
		<polygon class="st32" points="114.5,236.5 112.6,230.5 114.3,230 116.1,235.9 		"/>
		<path class="st42" d="M144.1,207.3c9.8,1.4,16.7,10.4,15.3,20.3c-1.4,9.8-10.4,16.7-20.3,15.3c-9.8-1.4-16.7-10.4-15.3-20.3
			C125.2,212.8,134.2,206,144.1,207.3z"/>
		<path class="st41" d="M159.9,219.2c-3.2-10.1-14-15.8-24.1-12.6c-10.1,3.2-15.7,14.1-12.5,24.2c3.2,10.1,14,15.8,24.1,12.6
			C157.5,240.2,163.1,229.4,159.9,219.2z M124.7,230.4c-3-9.4,2.2-19.4,11.5-22.4s19.4,2.2,22.4,11.6c3,9.4-2.2,19.4-11.5,22.4
			C137.7,245,127.6,239.8,124.7,230.4z"/>
		<path class="st8" d="M148.7,215.2c-4.3-2.7-8.7-1.8-8.7-2.3c0-0.5,6.1-2.6,10.6,0.4c4.4,2.9,5.1,9.2,4.5,9.5
			C154.7,223,153.5,218.1,148.7,215.2z M138,214.1c-0.3,0.7-1.2,0.9-1.8,0.6c-0.7-0.3-0.9-1.2-0.6-1.8c0.3-0.7,1.2-0.9,1.8-0.6
			C138.1,212.6,138.4,213.5,138,214.1z"/>
	</g>
	<g>
		<path class="st3" d="M208.1,210.3l1.8,0.4c0,0,0.4,1.7-0.3,2.5c-0.5,0.6-2.2-0.1-2.1-0.3c0.2-0.5,0.5-0.8,0.4-1.2
			c-0.1-0.2-0.9,0.5-0.9,0.1C207,211.5,208.1,210.3,208.1,210.3z"/>
		<path class="st21" d="M212.2,216.2h-8.1v-0.4c0-2.2,1.8-3.9,3.9-3.9h0.2c2.2,0,3.9,1.8,3.9,3.9V216.2z M205,215.3h6.3
			c-0.2-1.5-1.5-2.6-3-2.6H208C206.5,212.7,205.2,213.8,205,215.3z"/>
		<path class="st21" d="M213.6,227.8h-11.2c-1.1,0-2-0.9-2-2v-8.6c0-1.1,0.9-2,2-2h11.2c1.1,0,2,0.9,2,2v8.6
			C215.6,226.9,214.7,227.8,213.6,227.8z"/>
		<path class="st43" d="M214.8,215.3c0.1,0.2,0.1,0.3,0.1,0.5v8.5c0,1.6-1.3,2.9-2.9,2.9h-11.2c-0.1,0-0.3,0-0.4-0.1
			c0.2,0.4,0.6,0.7,1.1,0.7h12.8c0.7,0,1.2-0.5,1.2-1.2v-10.2C215.6,215.9,215.2,215.4,214.8,215.3z"/>
		<rect x="203.2" y="217.7" class="st44" width="9.8" height="1.3"/>
		<rect x="203.1" y="220.6" class="st44" width="10" height="5.2"/>
		<path class="st3" d="M206.4,189.2c-0.4,0.5-0.1,1.1-0.2,1.2c-0.4,0.4-2.4-3-2.7-2.5c-0.3,0.7,0.9,1.7,0.9,2.2
			c0,0.4-1.5,1.1-0.5,2.3s2.2,0.9,2.2,0.9l1.3-1.9C207.4,191.5,206.8,188.7,206.4,189.2z"/>
		<path class="st12" d="M230,196.6c-0.2-0.9-0.8-1.6-1.4-2.3c-0.6-0.8-1.2-1.6-1.8-2.4c-0.6-0.9-1.1-2-0.9-3.1c0,0,0,0,0,0
			c0-0.5,0.1-1.1,0.2-1.8c0.9-3.8-0.2-7-4.2-8c-3.3-1.2-8.3,1-6.7,5.1l1.2-1.1c-0.7,0.8-1.3,1.9-1.7,3.1c-0.5,0.6-0.8,1.4-0.8,2.2
			c0,0.5,0.1,0.9,0.3,1.3c0.2,0.5,0.5,0.9,0.7,1.4c0.1,0.3,0.2,0.5,0.2,0.8c0,0,0,0,0,0.1c-0.3,1.1-2.3,1.2-2.5,3.1
			c-1.1,8.2,3.3,10.3,5.6,9.8c2.8-0.5,4.3-2,7.1-1.4c1.1,0.1,3-0.8,3.9-2.7C230,199.5,230.4,198,230,196.6z M214.5,189.9
			c-0.2-0.4-0.4-0.8-0.5-1.3c-0.1-0.4,0-0.9,0.1-1.3c0.1-0.4,0.3-0.7,0.5-1c-0.2,0.7-0.3,1.4-0.3,2c0.1,1.3,0.6,1.9,0.7,2.7
			C214.9,190.6,214.7,190.2,214.5,189.9z M229.3,199.8c0.3-1,0.3-2.1-0.2-3.4c-1.2-3.2-2.8-3.6-3.2-6c0.1,0.3,0.3,0.6,0.4,0.9
			c0.5,0.8,1.1,1.6,1.6,2.4c0.3,0.4,0.6,0.8,0.9,1.1c0.3,0.4,0.6,0.7,0.8,1.2c0.4,0.8,0.4,1.7,0.2,2.6
			C229.7,199.1,229.5,199.5,229.3,199.8z"/>
		<path class="st4" d="M207.7,210.4l2.7,0.9c0,0.1,4.2-6,4-8.5l-3.8,0.9C210,205.2,208.4,208.8,207.7,210.4z"/>
		<path class="st4" d="M214.3,192.9c-1.8,0.7-2.8,8.8-3.8,10.9c0,0.4,2.2,1.3,2.8,1.1c2.9-0.8,4-8,4.3-8.5
			C218,195.8,214.3,192.9,214.3,192.9z"/>
		<path class="st3" d="M224.4,243.9c0.9,0.3,3-0.2,3.2-0.9c0.3-0.6,0.6-1.9,1.1-2.2c0.5-0.3,1.4-1,1.3-1.5c-0.1-0.5-0.9-1.1-1.5-1.6
			h0c-0.4-0.4-1.5-2.6-1.5-2.6l-2.5,2.1c0,0,1.8,1.5,1.9,2.3c0.1,0.5-0.1,1.3-0.5,1.8c-0.1,0.2-0.7,1.2-1.1,1.5v0
			C224.1,243.2,223.8,243.7,224.4,243.9z"/>
		<path class="st45" d="M224,243.9c0.9,0.3,3.3-0.3,3.6-0.9c0.3-0.6,0.6-1.9,1.1-2.2c0.5-0.3,1.4-1,1.3-1.5
			c-0.1-0.5-0.9-1.1-1.5-1.6h0c0,0,0.2,0.7,0.2,1.3s-1.8,3.7-3.2,2.9C224.9,242.2,223.5,243.7,224,243.9z"/>
		<path class="st46" d="M225.1,238.3c1.3-0.6,1.7-0.8,2.8-2c-1.3-2.8-5-11.4-9.6-15.4c-0.2-0.2-4.4,1.4-4.4,1.4
			C215.2,227.1,223.8,236.6,225.1,238.3z"/>
		<path class="st46" d="M215.2,224.8c0,0.1,4.6-0.7,4.5-1c-0.7-2.4,3.7-14.7,0.4-19.4c-0.1-0.1-6.2-1.9-6.3,1.2
			C213.8,205.6,212,222.2,215.2,224.8z"/>
		<path class="st3" d="M211.3,244.2c0.2,0.3,4.5-0.1,5.1-0.3c0.6-0.1,2.3,0.2,3.1-0.1c0.8-0.4,0.1-1.3-0.1-2.2c0,0,0,0,0,0v0
			c0-0.1,0-0.1,0-0.2c0,0,0,0,0,0c0-0.4,0.5-2.5,0.5-2.5l-3.2-0.3c0,0.3,0.4,1.8-0.2,2.6c-0.5,0.8-1.9,0.9-2.5,1.1
			c0,0-0.1,0-0.2,0.1c0,0-0.1,0-0.1,0c-0.1,0-0.1,0-0.2,0.1c0,0-0.1,0-0.1,0c-0.3,0.1-0.5,0.1-0.8,0.2c-0.2,0.1-0.4,0.1-0.5,0.2
			C210.8,243.2,211.1,243.8,211.3,244.2z"/>
		<path class="st22" d="M216.3,239.2c1.4,0.3,2.2,0.4,3.8,0.1c0.1-3.2,2.4-11.3,1.7-17c0-0.2-5.8-3.2-5.8-3.2
			C216.5,225.8,216.5,237.1,216.3,239.2z"/>
		<path class="st22" d="M222.2,220.4c-0.3,1.3-0.4,2.2-0.3,2.8c0.1,0.2-4.3,1.4-4.3,1.3c-3.1-2.7-0.3-19-0.3-19
			c0.2-3.1,6-1.3,6.1-1.2c0.4,0.7,0.7,1.5,0.9,2.4C224.9,210.7,223,216.8,222.2,220.4z"/>
		<path class="st45" d="M211.3,244.2c0.7,0.4,4.5-0.1,5.1-0.3c0.6-0.1,2.3,0.2,3.1-0.1c0.8-0.4,0.1-1.3-0.1-2.2c0,0,0,0,0,0
			c0,0.4-0.3,1.1-1.1,1.3c-1,0.2-3.9,0.6-4.4,0.2c-0.5-0.4,0.2-0.7,0.2-0.7s-0.1,0-0.2,0.1c0,0-0.1,0-0.1,0c-0.1,0-0.1,0-0.2,0.1
			c0,0-0.1,0-0.1,0c-0.2,0.1-0.5,0.1-0.8,0.2c-0.2,0.1-0.4,0.1-0.5,0.2C210.8,243.2,211,243.9,211.3,244.2z"/>
		<path class="st8" d="M221.8,192c-0.7,0.2-1.2,0.2-1.7,0c-0.6,0-1-0.1-1.7-0.4c-0.4,0-1.5,0-2.5,0.6c-2,0.2-1.8,2.8-1.4,4.6
			c0.7,2.3,1.9,3.7,1.6,5.3c-0.2,1.2-1.4,2.8-1.5,3.3c-0.3,2.1,8.4,2.5,8.6,0.2c-0.1-0.6-1.3-1.8-1.3-3c0-1.7,1.5-2.9,2.7-5
			C225.4,196,222.2,192.1,221.8,192z"/>
		<path class="st47" d="M221.4,192c-1.2,0.9-2.9,0.4-3.7-0.2c0.3-0.2,0.4-0.5,0.5-0.8c0.1-0.4,0.1-1,0.2-1.6c0-0.1,0-0.2,0-0.3
			l0.3,0l0.6,0l1.9-0.1c0,0.2,0,0.4-0.1,0.6c-0.1,0.7-0.2,1.4,0,2C221.2,191.8,221.2,191.9,221.4,192z"/>
		<path class="st3" d="M224,182.3c0.9,7.1-2.9,9-6.1,8.1c-2.4-0.7-4.7-3.9-1.1-9.7L224,182.3z"/>
		<path class="st3" d="M225.1,185.6c-0.2-0.7-1.2-0.1-1.2-0.1l-0.9,2.2C224.7,188.1,225.3,186.3,225.1,185.6z"/>
		<path class="st11" d="M224.5,185.9c-0.1-0.1-0.3,0-0.4,0.1c0,0.1,0,0.1,0.1,0.1c0,0,0.1-0.1,0.1,0c0,0,0.1,0.1,0.1,0.1
			c0.1,0.1,0,0.3-0.1,0.4c-0.1,0.1-0.1,0.2-0.2,0.3c-0.1,0.1-0.2,0.2-0.3,0.3c-0.1,0.1,0.1,0.2,0.2,0.2c0.1,0,0.1-0.1,0.2-0.2
			c0.1-0.1,0.1-0.1,0.2-0.2c0.1-0.2,0.2-0.3,0.2-0.5C224.7,186.3,224.7,186,224.5,185.9z"/>
		<path class="st4" d="M221.8,192c-0.3,0.5-0.9,1.2-2.1,1c-1.3-0.1-2.1-0.9-2.4-1.3c0.2,0,0.4-0.1,0.6-0.1c0.6,1,2.7,1.2,3.3,0.3
			C221.4,191.9,221.6,192,221.8,192z M221.9,192c0,0-5.4,19.5-2.6,22c2.8,2.5,6.1,1,6.1,1c-2.2-6.5,1.9-17.3-0.6-21.1
			C223.8,192.4,221.9,192,221.9,192z M217,191.8c0.1,0.4-0.7,11.3-1.2,17.4c-0.2,2-2,1.6-2.7,1.3c0.2-8.3,1.7-8.3,1.2-17.3
			C214.1,192.4,217,191.8,217,191.8z"/>
		<path class="st12" d="M224.5,185.6c0,0-0.5,0.9-0.7,0.9c-0.3-0.1-0.3-2.8-0.3-2.8s-0.2,1.6-0.5,1.6c-0.3,0-1.5-0.7-1.7-1.3
			c0-0.2,0.1-1.4,0.1-1.4s-0.4,1.1-0.6,1.2c-0.2,0.1-2.3-0.4-2.4-0.6c-0.1-0.1,0-1.4,0-1.4s-0.3,1.4-0.5,1.5c-0.2,0.1-1.6,0.2-1.7,0
			c-0.1-0.2,0.1-1,0.1-1s-0.5,1.4-0.9,1.3c-0.3-0.1,0.4-2.5,0.4-2.5s2.4-1.6,5-0.7C223.4,181,225.8,183,224.5,185.6z"/>
		<ellipse transform="matrix(0.1267 -0.9919 0.9919 0.1267 8.3888 381.4859)" class="st48" cx="220.9" cy="186" rx="0.6" ry="0.5"/>
		
			<ellipse transform="matrix(6.529869e-02 -0.9979 0.9979 6.529869e-02 17.4423 389.3025)" class="st48" cx="216.5" cy="185.3" rx="0.6" ry="0.4"/>
		<path class="st49" d="M218,186.1c0.2-0.3,0.7-0.6,0.7-1c0-0.1,0.1-0.1,0.1,0c0.2,0.6-0.6,0.9-0.6,1.3c-0.1,0.5,0.6,0.8,0.3,0.7
			C218.2,187,217.7,186.7,218,186.1z"/>
		<path class="st12" d="M220.3,184.8C220.4,184.8,220.4,184.8,220.3,184.8c0.2-0.1,0.2-0.1,0.3-0.2c0.1,0,0.3,0,0.4,0
			c0.3,0.1,0.5,0.3,0.6,0.6c0,0.1-0.1,0.2-0.2,0.1c0-0.1-0.1-0.2-0.2-0.2c-0.1-0.1-0.2-0.1-0.3-0.1c-0.1,0-0.1,0-0.1,0
			c0,0-0.1,0-0.1,0c0,0,0,0-0.1,0c-0.1,0-0.1,0-0.1,0.1c-0.1,0-0.1,0.1-0.2,0.1c-0.1,0-0.2-0.1-0.2-0.2
			C220.3,184.9,220.3,184.9,220.3,184.8z M217.1,184.3C217.1,184.3,217.1,184.3,217.1,184.3c-0.1-0.1-0.2-0.1-0.2-0.2
			c-0.1-0.1-0.3-0.1-0.4-0.1c-0.3,0-0.5,0.2-0.6,0.4c0,0.1,0.1,0.1,0.1,0.1c0-0.1,0.1-0.1,0.2-0.2c0.1,0,0.2-0.1,0.2-0.1
			c0,0,0.1,0,0.1,0c0,0,0.1,0,0.1,0c0,0,0,0,0,0c0,0,0.1,0.1,0.1,0.1c0.1,0,0.1,0.1,0.1,0.1c0.1,0,0.2,0,0.2-0.1
			C217.2,184.4,217.1,184.4,217.1,184.3z"/>
		<path class="st13" d="M217.4,187.8c0,0.2,0.1,0.5,0.2,0.6c0.2,0.2,0.4,0.3,0.7,0.3c0.3,0,0.6-0.1,0.8-0.3c0.2-0.1,0.3-0.3,0.3-0.6
			c0-0.5-0.6-0.2-1-0.2C218.1,187.7,217.4,187.3,217.4,187.8z"/>
		<path class="st14" d="M217.6,188.4c0.2,0.2,0.4,0.3,0.7,0.3c0.3,0,0.6-0.1,0.8-0.3c-0.1-0.2-0.4-0.3-0.7-0.3
			C218.1,188.2,217.8,188.3,217.6,188.4z"/>
		
			<ellipse transform="matrix(6.529869e-02 -0.9979 0.9979 6.529869e-02 19.5767 395.338)" class="st25" cx="220.8" cy="187.2" rx="0.5" ry="1.1"/>
		
			<ellipse transform="matrix(6.529869e-02 -0.9979 0.9979 6.529869e-02 15.925 390.2525)" class="st25" cx="216.3" cy="186.6" rx="0.4" ry="0.9"/>
		<circle class="st8" cx="220.7" cy="185.8" r="0.1"/>
		<circle class="st8" cx="216.5" cy="185.1" r="0.1"/>
		<path class="st4" d="M223.4,193.4c-2.6,0.3-7.7,2.1-9.9,2.3c-0.3,0.2-0.1,3.9,0.4,4.4c0.9,1,7.5-0.9,9.5-1.7
			C225.5,197.6,224.7,193.2,223.4,193.4z"/>
		<path class="st4" d="M207.5,191.1l-1.9,2.2c-0.1,0,6.6,6.6,9,7l0.4-4.6C215.1,195.8,208.8,192.1,207.5,191.1z"/>
		<path class="st3" d="M209.5,213.1c0,0.2-0.7,0.2-1.2,0.2c-0.5-0.1-0.9-0.3-0.9-0.5c0-0.2,0.5-0.4,1-0.3
			C208.9,212.5,209.5,212.9,209.5,213.1z M207.3,211.4c0,0-0.6,0.5-0.4,0.7c0.1,0.2,0.9-0.4,0.9-0.4L207.3,211.4z"/>
	</g>
	<g>
		<path class="st50" d="M188,259.5h-65c-0.5,0-0.9-0.4-0.9-0.9c0-0.5,0.4-0.9,0.9-0.9h65c0.5,0,0.9,0.4,0.9,0.9
			C188.9,259.1,188.5,259.5,188,259.5z"/>
	</g>
	<g>
		<path class="st50" d="M228.5,259.5h-22.3c-0.5,0-0.9-0.4-0.9-0.9c0-0.5,0.4-0.9,0.9-0.9h22.3c0.5,0,0.9,0.4,0.9,0.9
			C229.5,259.1,229,259.5,228.5,259.5z"/>
	</g>
	<g>
		<path class="st51" d="M142.1,111.3c0-0.1,0-0.2,0-0.3v-5.7c0-1.6-0.7-2.8-1.6-2.8h-31.4c-0.9,0-1.6,1.3-1.6,2.8v5.7
			c0,1.6,0.7,2.8,1.6,2.8H140c1.8,1.2,3.7,0.7,3.7,0.7C142.2,114.2,142.1,112.1,142.1,111.3z"/>
		<path class="st8" d="M120.4,105.6h19.3c0.1,0,0.2-0.1,0.2-0.2v-0.1c0-0.1-0.1-0.2-0.2-0.2h-19.3c-0.1,0-0.2,0.1-0.2,0.2v0.1
			C120.2,105.5,120.3,105.6,120.4,105.6z M116.8,111.1h22.8c0.1,0,0.2-0.1,0.2-0.2v-0.1c0-0.1-0.1-0.2-0.2-0.2h-22.8
			c-0.1,0-0.2,0.1-0.2,0.2v0.1C116.6,111,116.7,111.1,116.8,111.1z M131,108.4h8.7c0.1,0,0.2-0.1,0.2-0.2V108c0-0.1-0.1-0.2-0.2-0.2
			H131c-0.1,0-0.2,0.1-0.2,0.2v0.1C130.8,108.3,130.9,108.4,131,108.4z M115.4,108.4h13.7c0.1,0,0.2-0.1,0.2-0.2V108
			c0-0.1-0.1-0.2-0.2-0.2h-13.7c-0.1,0-0.2,0.1-0.2,0.2v0.1C115.2,108.3,115.3,108.4,115.4,108.4z M110.4,105.6h7.8
			c0.1,0,0.2-0.1,0.2-0.2v-0.1c0-0.1-0.1-0.2-0.2-0.2h-7.8c-0.1,0-0.2,0.1-0.2,0.2v0.1C110.2,105.5,110.3,105.6,110.4,105.6z
			 M110.4,111.1h4c0.1,0,0.2-0.1,0.2-0.2v-0.1c0-0.1-0.1-0.2-0.2-0.2h-4c-0.1,0-0.2,0.1-0.2,0.2v0.1
			C110.2,111,110.3,111.1,110.4,111.1z"/>
	</g>
	<g>
		<path class="st52" d="M180,139.6c-0.1,0-0.1,0-0.2,0c-0.2-0.1-0.3-0.3-0.2-0.5c0.5-1.2,1.1-2.2,1.5-3.1c0.1-0.2,0.3-0.3,0.5-0.2
			c0.2,0.1,0.3,0.3,0.2,0.5c-0.5,0.9-1,1.9-1.5,3.1C180.3,139.6,180.1,139.6,180,139.6z M196.1,134.4c-0.8,0-1.6-0.3-2.1-0.7
			c-0.3-0.3-0.6-0.6-0.8-0.9c-0.1-0.2-0.1-0.4,0.1-0.6c0.2-0.1,0.4-0.1,0.6,0.1c0.2,0.3,0.5,0.5,0.7,0.8c0.5,0.4,1.1,0.6,1.9,0.5
			c0.2,0,0.4,0.1,0.4,0.4c0,0.2-0.1,0.4-0.4,0.4C196.3,134.4,196.2,134.4,196.1,134.4z M183.3,133.6c-0.1,0-0.2,0-0.2-0.1
			c-0.2-0.1-0.2-0.4-0.1-0.5c0.7-1,1.4-2,2.1-2.8c0.1-0.2,0.4-0.2,0.6,0c0.2,0.1,0.2,0.4,0,0.6c-0.7,0.8-1.4,1.7-2,2.7
			C183.5,133.6,183.4,133.6,183.3,133.6z M263,132.8c-0.2,0-0.4-0.2-0.4-0.4c0-0.2,0.2-0.4,0.4-0.4c1.1,0,2.2-0.1,3.4-0.2
			c0.2,0,0.4,0.1,0.4,0.4c0,0.2-0.1,0.4-0.4,0.4C265.2,132.8,264,132.8,263,132.8L263,132.8z M199.3,132.8c-0.1,0-0.2,0-0.2-0.1
			c-0.2-0.1-0.2-0.4-0.1-0.6c0.1-0.2,0.3-0.4,0.3-0.6c0.2-0.4,0.2-0.8,0.2-1.2c0-0.4-0.1-0.7-0.2-1.1c-0.1-0.2,0-0.4,0.2-0.5
			c0.2-0.1,0.4,0,0.5,0.2c0.2,0.4,0.2,0.9,0.2,1.3c0,0.5-0.1,1-0.3,1.5c-0.1,0.3-0.3,0.5-0.4,0.8
			C199.6,132.7,199.5,132.8,199.3,132.8z M259.5,132.6C259.5,132.6,259.5,132.6,259.5,132.6c-1.2-0.2-2.4-0.4-3.5-0.7
			c-0.2-0.1-0.3-0.3-0.3-0.5s0.3-0.3,0.5-0.3c1.1,0.3,2.1,0.6,3.3,0.7c0.2,0,0.4,0.2,0.3,0.4C259.9,132.5,259.7,132.6,259.5,132.6z
			 M269.8,132.2c-0.2,0-0.4-0.1-0.4-0.3c0-0.2,0.1-0.4,0.3-0.5c1.1-0.2,2.2-0.4,3.3-0.7c0.2,0,0.4,0.1,0.5,0.3
			c0.1,0.2-0.1,0.4-0.3,0.5C272,131.7,270.9,132,269.8,132.2C269.8,132.2,269.8,132.2,269.8,132.2z M253,130.6c-0.1,0-0.1,0-0.2,0
			c-1-0.5-2-1.1-3-1.8c-0.2-0.1-0.2-0.4-0.1-0.6c0.1-0.2,0.4-0.2,0.6-0.1c1,0.7,1.9,1.3,2.9,1.8c0.2,0.1,0.3,0.3,0.2,0.5
			C253.3,130.5,253.2,130.6,253,130.6z M192.2,129.7c-0.2,0-0.4-0.2-0.4-0.4c0-0.3,0-0.5,0-0.8c0-0.9,0.1-1.8,0.4-2.7
			c0.1-0.2,0.3-0.3,0.5-0.3s0.3,0.3,0.3,0.5c-0.2,0.9-0.4,1.7-0.4,2.5c0,0.3,0,0.5,0,0.7C192.7,129.5,192.5,129.7,192.2,129.7
			C192.3,129.7,192.2,129.7,192.2,129.7z M187.9,128.6c-0.1,0-0.2-0.1-0.3-0.2c-0.1-0.2-0.1-0.4,0.1-0.6c1-0.7,2-1.3,3.1-1.7
			c0.2-0.1,0.4,0,0.5,0.2c0.1,0.2,0,0.4-0.2,0.5c-1,0.4-2,0.9-2.9,1.6C188,128.5,188,128.6,187.9,128.6z M197.5,127
			c-0.1,0-0.1,0-0.2-0.1c-0.9-0.5-2.1-0.8-3.1-0.7c-0.2,0-0.4-0.2-0.4-0.4c0-0.2,0.2-0.4,0.4-0.4c1.2-0.1,2.4,0.2,3.5,0.8
			c0.2,0.1,0.3,0.3,0.2,0.5C197.8,127,197.7,127,197.5,127z M247.4,126.7c-0.1,0-0.2,0-0.3-0.1c-0.8-0.7-1.6-1.4-2.5-2.3
			c-0.2-0.2-0.2-0.4,0-0.6c0.2-0.2,0.4-0.2,0.6,0c1,0.9,1.8,1.7,2.5,2.3c0.2,0.1,0.2,0.4,0,0.6C247.7,126.6,247.5,126.7,247.4,126.7
			z M193.9,123.2c-0.1,0-0.1,0-0.2,0c-0.2-0.1-0.3-0.3-0.2-0.5c0.5-1,1.2-2,1.9-2.9c0.1-0.2,0.4-0.2,0.6-0.1
			c0.2,0.1,0.2,0.4,0.1,0.6c-0.7,0.9-1.3,1.9-1.8,2.8C194.1,123.1,194,123.2,193.9,123.2z M242.4,122c-0.1,0-0.2,0-0.3-0.1
			c-0.7-0.7-1.6-1.5-2.5-2.4c-0.2-0.2-0.2-0.4,0-0.6s0.4-0.2,0.6,0c0.9,0.9,1.8,1.7,2.5,2.4c0.2,0.2,0.2,0.4,0,0.6
			C242.7,121.9,242.6,122,242.4,122z M198,117.7c-0.1,0-0.2,0-0.3-0.1c-0.2-0.2-0.2-0.4,0-0.6c0.8-0.8,1.7-1.6,2.6-2.3
			c0.2-0.1,0.4-0.1,0.6,0.1c0.1,0.2,0.1,0.4-0.1,0.6c-0.9,0.7-1.7,1.5-2.5,2.3C198.2,117.7,198.1,117.7,198,117.7z M237.5,117.2
			c-0.1,0-0.2,0-0.3-0.1c-0.9-0.8-1.7-1.5-2.6-2.3c-0.2-0.1-0.2-0.4,0-0.6c0.1-0.2,0.4-0.2,0.6,0c0.9,0.7,1.7,1.5,2.6,2.3
			c0.2,0.1,0.2,0.4,0,0.6C237.7,117.2,237.6,117.2,237.5,117.2z M203.3,113.3c-0.1,0-0.3-0.1-0.3-0.2c-0.1-0.2-0.1-0.4,0.1-0.5
			c1-0.6,2-1.2,3-1.8c0.2-0.1,0.4,0,0.5,0.2s0,0.4-0.2,0.5c-1,0.5-2,1.1-2.9,1.7C203.4,113.3,203.3,113.3,203.3,113.3z M232.2,112.8
			c-0.1,0-0.2,0-0.2-0.1c-0.9-0.7-1.9-1.2-2.9-1.7c-0.2-0.1-0.3-0.3-0.2-0.5c0.1-0.2,0.3-0.3,0.5-0.2c1,0.5,2,1.1,3,1.8
			c0.2,0.1,0.2,0.4,0.1,0.6C232.5,112.8,232.3,112.8,232.2,112.8z M209.3,110.2c-0.2,0-0.3-0.1-0.4-0.3c-0.1-0.2,0-0.4,0.2-0.5
			c1.1-0.4,2.2-0.8,3.3-1c0.2-0.1,0.4,0.1,0.5,0.3c0.1,0.2-0.1,0.4-0.3,0.5c-1.1,0.3-2.2,0.6-3.2,1
			C209.4,110.2,209.4,110.2,209.3,110.2z M226.1,109.7c0,0-0.1,0-0.1,0c-1.1-0.4-2.2-0.7-3.3-0.9c-0.2,0-0.4-0.2-0.3-0.5
			c0-0.2,0.2-0.4,0.5-0.3c1.1,0.2,2.3,0.5,3.4,0.9c0.2,0.1,0.3,0.3,0.2,0.5C226.5,109.6,226.3,109.7,226.1,109.7z M216,108.6
			c-0.2,0-0.4-0.2-0.4-0.4c0-0.2,0.1-0.4,0.4-0.4c1.2-0.1,2.3-0.2,3.5-0.1c0.2,0,0.4,0.2,0.4,0.4c0,0.2-0.2,0.4-0.4,0.4
			C218.3,108.4,217.2,108.5,216,108.6C216,108.6,216,108.6,216,108.6z"/>
	</g>
	<g>
		<path class="st21" d="M282,112.9L282,112.9L282,112.9z"/>
		<path class="st21" d="M280,116.5c0.2,0.4,0.5,0.7,0.8,1C280.6,117.2,280.3,116.8,280,116.5z M290,117.3c0.3-0.3,0.5-0.6,0.8-1
			C290.5,116.7,290.2,117,290,117.3z"/>
		<path class="st21" d="M285.4,106.6c-3.5,0-6.4,2.8-6.4,6.2c0,1.3,0.4,2.6,1.1,3.6l0,0l0,0l0,0c1.9,2.3,3.7,4.8,5,7.3
			c0.1,0.3,0.5,0.3,0.6,0c1.2-2.4,3.5-5.1,5.1-7.5c0.6-1,0.9-2.1,0.9-3.3C291.7,109.5,288.9,106.6,285.4,106.6z M285.3,117
			c-0.8,0-1.5-0.2-2.1-0.6c-1.2-0.7-2-2-2-3.5c0-2.2,1.8-4,4-4c2.2,0,4,1.8,4,4c0,1.4-0.7,2.7-1.9,3.4
			C286.9,116.8,286.1,117,285.3,117z"/>
		<circle class="st21" cx="285.4" cy="126.5" r="1.5"/>
		<path class="st21" d="M280,116.5c0.2,0.4,0.5,0.7,0.8,1C280.6,117.2,280.3,116.8,280,116.5z M290,117.3c0.3-0.3,0.5-0.6,0.8-1
			C290.5,116.7,290.2,117,290,117.3z"/>
	</g>
	<g>
		<path class="st0" d="M178.8,120c-0.5-1.1,0-2.4,1-2.9c1.1-0.5,2.4,0,2.9,1c0.5,1.1,0,2.4-1,2.9C180.7,121.6,179.4,121.1,178.8,120
			z M184.5,115c-0.2,0.1-0.5,0.1-0.7-0.1c-0.1-0.1-2.2-1.5-5-0.1c-2.8,1.3-3.2,3.8-3.3,3.9c-0.1,0.4-0.4,0.6-0.8,0.6
			c-0.4-0.1-0.6-0.4-0.6-0.8c0-0.1,0.5-3.3,4-4.9c3.5-1.6,6.2,0.2,6.3,0.3c0.3,0.2,0.4,0.6,0.2,0.9
			C184.7,114.8,184.6,114.9,184.5,115z"/>
		<path class="st0" d="M185.5,111c-0.2,0.1-0.5,0.1-0.7-0.1c-0.1-0.1-3.5-2.3-7.8-0.2c-4.4,2.1-5.1,6-5.1,6.1
			c-0.1,0.4-0.4,0.6-0.8,0.6s-0.6-0.4-0.6-0.8c0-0.2,0.8-4.8,5.9-7.2c5.1-2.4,9,0.2,9.2,0.4c0.3,0.2,0.4,0.6,0.2,0.9
			C185.7,110.9,185.6,111,185.5,111z"/>
		<path class="st0" d="M185.9,107.4c-0.2,0.1-0.5,0.1-0.7-0.1c-0.2-0.1-4.4-2.9-10-0.3c-5.6,2.6-6.4,7.6-6.5,7.8
			c-0.1,0.4-0.4,0.6-0.8,0.6c-0.4-0.1-0.6-0.4-0.6-0.8c0-0.2,1-5.9,7.2-8.8c6.3-3,11.1,0.3,11.3,0.4c0.3,0.2,0.4,0.6,0.2,0.9
			C186.1,107.3,186,107.4,185.9,107.4z"/>
		<path class="st0" d="M186.9,103.8c-0.2,0.1-0.5,0.1-0.7-0.1c-0.2-0.2-5.6-3.7-12.7-0.4c-7.1,3.3-8.2,9.8-8.2,9.9
			c-0.1,0.4-0.4,0.6-0.8,0.6c-0.4-0.1-0.6-0.4-0.6-0.8c0-0.3,1.2-7.3,9-10.9c7.8-3.7,13.8,0.4,14,0.5c0.3,0.2,0.4,0.6,0.2,0.9
			C187.1,103.6,187,103.7,186.9,103.8z"/>
	</g>
	<g>
		<rect x="41" y="138.2" class="st53" width="3.4" height="3.8"/>
		<rect x="47.1" y="135.1" class="st53" width="3.4" height="6.8"/>
		<rect x="53.2" y="132.3" class="st53" width="3.4" height="9.6"/>
		<rect x="59.4" y="130" class="st53" width="3.4" height="11.9"/>
		<path class="st53" d="M61.5,122.4l-0.8-2.7c-0.1-0.2-0.3-0.2-0.4-0.1l-1.9,2c-0.1,0.1-0.1,0.4,0.1,0.4l0.8,0.2
			c-0.2,0.6-0.5,1.2-0.8,1.7c-0.4,0.7-1,1.3-1.6,1.9c-1.3,1.1-2.8,2-4.5,2.5c-1.7,0.5-3.4,0.7-5.1,0.7c-0.9,0-1.7-0.2-2.6-0.4
			c-0.8-0.2-1.7-0.5-2.5-0.9c0,0-0.1,0-0.1,0c0,0,0,0.1,0,0.1c0.8,0.4,1.6,0.8,2.5,1c0.9,0.3,1.7,0.4,2.6,0.5c1.8,0.2,3.6,0,5.4-0.4
			c0.9-0.2,1.7-0.5,2.6-0.9c0.8-0.4,1.6-0.9,2.3-1.5c0.7-0.6,1.4-1.3,1.9-2c0.4-0.6,0.8-1.3,1.1-2l0.8,0.2
			C61.4,122.7,61.6,122.5,61.5,122.4z"/>
	</g>
	<g>
		<path class="st36" d="M42.3,192.8c-0.1-0.1-0.2-0.1-0.3-0.2C42.1,192.6,42.2,192.7,42.3,192.8C42.3,192.7,42.3,192.8,42.3,192.8z"
			/>
		<circle class="st4" cx="43.5" cy="189.6" r="3.4"/>
		<path class="st36" d="M40.3,192.3c0,0,0.1,0.1,0.1,0.1c-0.2,0.1-0.3,0.1-0.5,0.2c0,0,0,0,0,0C40.1,192.5,40.2,192.4,40.3,192.3z
			 M47.1,192.4c-0.1,0-0.1-0.1-0.2-0.1c0,0,0,0,0,0C47,192.3,47.1,192.4,47.1,192.4z"/>
		<path class="st4" d="M46.7,193.1c-0.3-0.2-0.7-0.2-0.9,0c-0.6,0.5-1.3,0.8-2.2,0.8c-0.8,0-1.5-0.3-2.1-0.7c-0.3-0.2-0.7-0.2-0.9,0
			c-0.7,0.6-1.1,1.5-1.1,2.6v0.1c0,0.6,0.5,1,1,1h6.4c0.6,0,1-0.5,1-1v-0.1C47.9,194.6,47.4,193.7,46.7,193.1z"/>
		<path class="st22" d="M51.9,189.3c0,1.9-1.5,3.4-3.4,3.4c-0.5,0-0.9-0.1-1.3-0.3l0,0c-0.1,0-0.1-0.1-0.2-0.1c0,0,0,0,0,0
			c0.6-0.7,0.9-1.7,0.9-2.7c0-1.3-0.6-2.4-1.4-3.2c0.6-0.4,1.2-0.6,2-0.6C50.3,185.8,51.9,187.4,51.9,189.3z M52.8,195.4v0.1
			c0,0.6-0.5,1-1,1h-3.2c0.1-0.2,0.1-0.4,0.1-0.6v-0.1c0-0.9-0.2-1.6-0.6-2.3c0.1,0,0.3,0,0.4,0c0.8,0,1.6-0.3,2.2-0.8
			c0.3-0.2,0.7-0.2,0.9,0C52.4,193.3,52.8,194.2,52.8,195.4z M39.4,189.6c0,1,0.4,1.9,0.9,2.7c0,0,0.1,0.1,0.1,0.1
			c-0.2,0.1-0.3,0.1-0.5,0.2c-0.3,0.1-0.5,0.1-0.8,0.1c-1.9,0-3.4-1.5-3.4-3.4c0-1.9,1.5-3.4,3.4-3.4c0.7,0,1.3,0.2,1.8,0.5
			C40,187.1,39.4,188.3,39.4,189.6z M38.6,195.8v0.1c0,0.2,0,0.4,0.1,0.6H36c-0.6,0-1-0.5-1-1v-0.1c0-1.1,0.4-2,1.1-2.6
			c0.3-0.2,0.7-0.2,0.9,0c0.6,0.5,1.3,0.7,2.1,0.7C38.8,194.1,38.6,194.9,38.6,195.8z"/>
		<path class="st36" d="M42.3,192.8c-0.1-0.1-0.2-0.1-0.3-0.2C42.1,192.6,42.2,192.7,42.3,192.8C42.3,192.7,42.3,192.8,42.3,192.8z"
			/>
	</g>
	<g>
		<path class="st53" d="M262.6,118.3c0-2.1-1.2-3.3-3.7-4.3V109c1.2,0,2.1,0.4,2.6,0.7l0.5-1.5c-0.6-0.4-1.7-0.7-3.1-0.7v-2.1h-1.6
			v2.2c-2.1,0.5-3.4,2-3.4,3.8c0,1.9,1.3,3.1,3.4,4v5.6c-1.2,0-2.4-0.5-3.2-1l-0.5,1.6c0.8,0.5,2.3,0.9,3.7,0.9v2.1h1.6v-2.2
			C261.4,122,262.6,120.3,262.6,118.3z M255.9,111.2c0-0.7,0.4-1.6,1.5-2v4.1C256.4,112.8,255.9,112.2,255.9,111.2z M258.9,120.8
			V116c1.2,0.6,1.7,1.4,1.7,2.5C260.7,119.6,260,120.4,258.9,120.8z"/>
	</g>
	<g>
		<path class="st35" d="M327,195.9l-0.5-0.2c0.1-0.7,0.1-1.5-0.1-2.2l0.6-0.3c0.9-0.4,1.3-1.5,0.9-2.4s-1.5-1.3-2.4-0.9l-0.5,0.2
			c-0.4-0.6-1-1.1-1.6-1.5l0,0l0.2-0.6c0.3-0.9-0.2-2-1.1-2.3c-0.9-0.3-2,0.2-2.3,1.1l-0.2,0.5c-0.7-0.1-1.5-0.1-2.2,0.1l-0.3-0.6
			c-0.4-0.9-1.5-1.3-2.4-0.9c-0.9,0.4-1.3,1.5-0.9,2.4l0.2,0.5c-0.6,0.4-1.1,1-1.5,1.6l0,0l-0.6-0.2c-0.9-0.3-2,0.2-2.3,1.1
			c-0.3,0.9,0.2,2,1.1,2.3l0.5,0.2c-0.1,0.7-0.1,1.5,0.1,2.2l-0.6,0.3c-0.9,0.4-1.3,1.5-0.9,2.4c0.4,0.9,1.5,1.3,2.4,0.9l0.5-0.2
			l0,0c0.4,0.6,1,1.1,1.6,1.5l-0.2,0.6c-0.3,0.9,0.2,2,1.1,2.3c0.9,0.3,2-0.2,2.3-1.1l0.2-0.5c0.7,0.1,1.5,0.1,2.2-0.1l0.3,0.6
			c0.4,0.9,1.5,1.3,2.4,0.9c0.9-0.4,1.3-1.5,0.9-2.4l-0.2-0.5l0,0c0.6-0.4,1.1-1,1.5-1.6l0.6,0.2c0.9,0.3,2-0.2,2.3-1.1
			C328.4,197.3,327.9,196.3,327,195.9z M324.1,196.6c-1,2.8-4.1,4.2-6.8,3.2c-2.8-1-4.2-4.1-3.2-6.8c1-2.8,4.1-4.2,6.8-3.2
			C323.6,190.7,325.1,193.8,324.1,196.6z"/>
		<path class="st35" d="M320.2,191.6c-1.8-0.6-3.7,0.3-4.3,2.1c-0.6,1.8,0.3,3.7,2,4.3c1.8,0.6,3.7-0.3,4.3-2
			C322.9,194.2,321.9,192.2,320.2,191.6z"/>
	</g>
	<path class="st0" d="M328.8,140.5L328.8,140.5L328.8,140.5c0-0.1,0-0.2,0-0.2c0-0.1,0-0.3,0-0.4v0c0,0,0-0.1,0-0.1
		c0-0.3-0.1-0.5-0.1-0.7c-0.1-0.5-0.2-1.1-0.4-1.6c-0.1-0.2-0.1-0.3-0.2-0.4l-0.1-0.2c-0.1-0.2-0.2-0.4-0.3-0.6l-0.1-0.2
		c-0.3-0.6-0.7-1.2-1.1-1.7c0-0.1-0.1-0.1-0.2-0.2c-0.1-0.1-0.3-0.3-0.4-0.4c-0.1-0.1-0.2-0.2-0.3-0.3c-0.9-0.8-2-1.5-3.1-1.9
		c-2.2-0.6-4.3-0.6-6.5,0c-1.1,0.4-2.2,1.1-3.1,1.9c-0.1,0.1-0.2,0.2-0.3,0.3c-0.1,0.1-0.3,0.3-0.4,0.4c0,0.1-0.1,0.1-0.2,0.2
		c-0.4,0.5-0.8,1.1-1.1,1.7l-0.1,0.2c-0.1,0.2-0.2,0.4-0.3,0.6l-0.1,0.2c-0.1,0.1-0.1,0.3-0.2,0.4c-0.2,0.5-0.3,1-0.4,1.6
		c0,0.2-0.1,0.5-0.1,0.7c0,0,0,0.1,0,0.1v0c0,0.1,0,0.3,0,0.4c0,0.1,0,0.1,0,0.2v0v0c0,0,0,0.1,0,0.1c0,0.1,0,0.3,0,0.4
		c0,0.3,0,0.5,0.1,0.8c0,0.2,0.1,0.5,0.1,0.7c0,0.1,0,0.2,0.1,0.4c0,0.2,0.1,0.4,0.2,0.6c0.1,0.3,0.2,0.6,0.3,0.9c0,0,0,0.1,0.1,0.1
		c0.1,0.2,0.2,0.4,0.3,0.6c0,0,0,0.1,0.1,0.1l0,0c0.1,0.2,0.3,0.4,0.4,0.6c0.1,0.2,0.3,0.4,0.4,0.6c0.2,0.3,0.5,0.5,0.7,0.8
		c0.3,0.3,0.5,0.5,0.8,0.7c0.8,0.6,1.7,1.1,2.7,1.5c2.2,0.6,4.3,0.6,6.5,0c1-0.3,1.9-0.8,2.7-1.5c0.3-0.2,0.6-0.5,0.8-0.7
		c0.2-0.2,0.5-0.5,0.7-0.8c0.2-0.2,0.3-0.4,0.4-0.6c0.1-0.2,0.3-0.4,0.4-0.6l0,0c0,0,0-0.1,0.1-0.1c0.1-0.2,0.2-0.4,0.3-0.6
		c0,0,0,0,0-0.1c0,0,0,0,0-0.1c0.1-0.3,0.2-0.6,0.3-0.9c0.1-0.2,0.1-0.4,0.2-0.6c0-0.1,0.1-0.3,0.1-0.4c0.1-0.2,0.1-0.5,0.1-0.7
		c0-0.3,0.1-0.5,0.1-0.8v0C328.8,140.9,328.8,140.7,328.8,140.5C328.8,140.6,328.8,140.5,328.8,140.5z M327.6,137.4
		c0.2,0.5,0.4,1.1,0.5,1.6c0,0.3,0.1,0.5,0.1,0.8c0,0,0,0.1,0,0.1l0,0.2h-3l0-0.2c0-0.8-0.2-1.6-0.3-2.4l0-0.2h2.7L327.6,137.4z
		 M325.5,134.2c0.5,0.5,1,1.1,1.4,1.7c0,0.1,0.1,0.1,0.1,0.2c0.1,0.2,0.2,0.4,0.3,0.6l0.1,0.2h-2.7l0-0.1c-0.2-0.9-0.6-1.7-1-2.4
		l-0.1-0.2L325.5,134.2L325.5,134.2z M322.2,137l0-0.1c-0.1-0.9-0.3-1.7-0.5-2.4l-0.1-0.2h1.4l0,0.1c0.5,0.7,0.8,1.6,1.1,2.5
		l0.1,0.2H322.2z M324.2,137.3l0,0.1c0.2,0.8,0.3,1.6,0.4,2.5l0,0.2h-2.2l0-0.2c0-0.8-0.1-1.7-0.2-2.4l0-0.2
		C322.2,137.3,324.2,137.3,324.2,137.3z M322.3,143.5l0-0.1h2.1l0,0.2c-0.2,0.9-0.5,1.7-0.8,2.5l0,0.1h-1.7l0-0.2
		C322,145.2,322.2,144.4,322.3,143.5z M322.3,143.1l0-0.2c0.1-0.7,0.1-1.5,0.1-2.3c0,0,0,0,0-0.1c0,0,0,0,0-0.1v-0.2h2.2l0,0.2
		c0,0,0,0,0,0.1c0,0,0,0.1,0,0.1c0,0.8-0.1,1.6-0.2,2.3l0,0.1C324.4,143.1,322.3,143.1,322.3,143.1z M322.5,132.3
		c0.7,0.3,1.2,0.6,1.8,1c0.2,0.1,0.3,0.2,0.4,0.3l0.4,0.3h-1.7l0-0.1c-0.3-0.5-0.6-0.8-1-1.2c-0.2-0.2-0.7-0.6-0.7-0.6
		S322.3,132.3,322.5,132.3z M321.1,132.3c0.5,0.3,1,0.8,1.5,1.3l0.2,0.3h-1.3l0-0.1c-0.2-0.5-0.4-0.9-0.6-1.3l-0.3-0.5L321.1,132.3z
		 M319.4,132.1l0.2,0.1c0.4,0.2,0.8,0.7,1.1,1.4l0.1,0.2h-1.5V132.1z M319.4,134.2h1.6l0,0.1c0.3,0.7,0.5,1.5,0.6,2.5l0,0.2h-2.3
		L319.4,134.2L319.4,134.2z M319.4,137.3h2.3l0,0.1c0.1,0.8,0.2,1.6,0.2,2.5l0,0.2h-2.5V137.3z M319.4,140.3h2.5v0.2v0.1
		c0,0,0,0.1,0,0.1c0,0.8,0,1.6-0.1,2.3l0,0.1h-2.4L319.4,140.3L319.4,140.3z M319.4,143.4h2.4l0,0.2c-0.1,0.9-0.3,1.7-0.5,2.5l0,0.1
		h-1.9L319.4,143.4L319.4,143.4z M318,132l-0.3,0.5c-0.2,0.4-0.4,0.8-0.6,1.3l0,0.1h-1.3l0.2-0.3c0.5-0.6,1-1,1.5-1.3L318,132z
		 M316.1,140.3v0.2c0,0,0,0,0,0.1c0,0,0,0,0,0.1c0,0.8,0,1.5,0.1,2.3l0,0.2H314l0-0.1c-0.1-0.8-0.2-1.5-0.2-2.3c0,0,0-0.1,0-0.1
		c0,0,0,0,0-0.1l0-0.2C313.8,140.3,316.1,140.3,316.1,140.3z M313.8,140l0-0.2c0-0.8,0.2-1.7,0.4-2.5l0-0.1h2l0,0.2
		c-0.1,0.8-0.2,1.6-0.2,2.4l0,0.2C316.1,140,313.8,140,313.8,140z M316.2,143.4l0,0.1c0.1,0.9,0.2,1.7,0.4,2.4l0,0.2H315l0-0.1
		c-0.4-0.8-0.6-1.6-0.8-2.5l0-0.2H316.2z M316.3,137h-2l0.1-0.2c0.3-0.9,0.6-1.8,1.1-2.5l0-0.1h1.4l-0.1,0.2
		c-0.2,0.7-0.4,1.5-0.5,2.4L316.3,137z M313.7,133.6c0.1-0.1,0.3-0.2,0.4-0.3c0.6-0.4,1.2-0.7,1.8-1c0.2-0.1,0.9-0.3,0.9-0.3
		s-0.6,0.4-0.7,0.5c-0.4,0.3-0.7,0.8-1,1.2l0,0.1h-1.7L313.7,133.6z M311.2,136.7c0.1-0.2,0.2-0.4,0.3-0.6c0-0.1,0.1-0.1,0.1-0.2
		c0.4-0.6,0.8-1.2,1.4-1.7l0,0h1.8l-0.1,0.2c-0.4,0.7-0.7,1.5-1,2.4l0,0.1h-2.7L311.2,136.7z M310.3,139.9
		C310.3,139.8,310.3,139.8,310.3,139.9l0-0.1c0-0.3,0.1-0.5,0.1-0.8c0.1-0.5,0.3-1.1,0.5-1.6l0-0.1h2.7l0,0.2
		c-0.2,0.8-0.3,1.6-0.3,2.4l0,0.2h-3L310.3,139.9z M310.6,143c0-0.1-0.1-0.2-0.1-0.4c-0.1-0.2-0.1-0.5-0.1-0.8
		c0-0.3-0.1-0.5-0.1-0.8c0-0.1,0-0.3,0-0.4c0,0,0-0.1,0-0.1l0-0.2h3l0,0.2c0,0,0,0,0,0.1c0,0,0,0.1,0,0.1c0,0.8,0.1,1.5,0.2,2.3
		l0,0.2h-2.8L310.6,143z M312.3,146.1L312.3,146.1c-0.2-0.3-0.4-0.5-0.5-0.7c0,0-0.1-0.1-0.1-0.1l0,0c-0.1-0.2-0.3-0.4-0.4-0.6
		c0,0,0-0.1-0.1-0.1c-0.2-0.3-0.3-0.6-0.4-0.9l-0.1-0.2h2.8l0,0.1c0.2,0.9,0.4,1.7,0.7,2.4l0.1,0.2L312.3,146.1L312.3,146.1z
		 M315.8,148.8c-0.3-0.2-0.7-0.3-1-0.5c-0.4-0.2-0.8-0.5-1.1-0.8c-0.3-0.2-0.6-0.5-0.9-0.8l-0.3-0.3h2l0,0.1
		c0.1,0.3,0.3,0.5,0.4,0.7c0.3,0.5,0.6,0.9,1,1.3c0.2,0.2,0.7,0.6,0.8,0.6C316.7,149.1,316.1,148.9,315.8,148.8z M317.5,149
		c-0.8-0.5-1.6-1.3-2.2-2.3l-0.1-0.2h1.6l0,0.1c0.1,0.2,0.1,0.4,0.2,0.6c0.2,0.6,0.4,1.2,0.7,1.6l0.3,0.5L317.5,149z M319,149.1
		l-0.2-0.1c-0.7-0.4-1.2-1.5-1.5-2.3l-0.1-0.2h1.8V149.1z M319,146.1h-1.9l0-0.1c-0.2-0.7-0.4-1.6-0.5-2.5l0-0.2h2.4L319,146.1
		L319,146.1z M319,143.1h-2.4l0-0.1c-0.1-0.8-0.1-1.5-0.1-2.3c0,0,0-0.1,0-0.1c0,0,0,0,0-0.1v-0.2h2.5L319,143.1L319,143.1z
		 M319,140h-2.5l0-0.2c0-0.8,0.1-1.7,0.2-2.5l0-0.1h2.3V140z M319,137h-2.3l0-0.2c0.2-0.9,0.4-1.8,0.6-2.5l0-0.1h1.6L319,137
		L319,137z M319,133.9h-1.5l0.1-0.2c0.3-0.8,0.7-1.2,1.1-1.4l0.2-0.1V133.9z M319.7,149l-0.2,0.1v-2.7h1.8l-0.1,0.2
		C320.9,147.5,320.4,148.6,319.7,149z M320.5,149.3l0.3-0.5c0.3-0.4,0.5-1,0.7-1.6c0.1-0.2,0.1-0.4,0.2-0.6l0-0.1h1.6l-0.1,0.2
		c-0.6,1-1.3,1.8-2.2,2.3L320.5,149.3z M325.7,146.7c-0.3,0.3-0.6,0.6-0.9,0.8c-0.3,0.3-0.7,0.5-1.1,0.8c-0.3,0.2-0.7,0.4-1,0.5
		c-0.2,0.1-0.9,0.3-0.9,0.3s0.6-0.5,0.7-0.6c0.4-0.4,0.7-0.8,1-1.3c0.1-0.2,0.3-0.5,0.4-0.7l0-0.1h2L325.7,146.7z M327.6,143.6
		c-0.1,0.3-0.3,0.6-0.4,0.9l0,0c0,0,0,0.1-0.1,0.1c-0.1,0.2-0.2,0.4-0.4,0.6c0,0-0.1,0.1-0.1,0.1c-0.2,0.2-0.3,0.4-0.5,0.6l-0.1,0.1
		h-2.1l0.1-0.2c0.3-0.7,0.6-1.6,0.7-2.4l0-0.1h2.8L327.6,143.6z M328.2,141c0,0.3,0,0.5-0.1,0.8c0,0.3-0.1,0.5-0.1,0.8
		c0,0.1-0.1,0.3-0.1,0.4l0,0.1H325l0-0.2c0.1-0.7,0.2-1.5,0.2-2.3c0,0,0-0.1,0-0.1c0,0,0,0,0-0.1l0-0.2h3l0,0.2c0,0,0,0.1,0,0.1
		C328.2,140.7,328.2,140.9,328.2,141z"/>
	<g>
		<path class="st22" d="M45,230.5l1.3-1.3c0.3-0.3,0.3-0.8,0-1.1c-0.3-0.3-0.8-0.3-1.1,0l-1.3,1.3l-1.3-1.3c-0.3-0.3-0.8-0.3-1.1,0
			c-0.3,0.3-0.3,0.8,0,1.1l1.3,1.3l-1.3,1.3c-0.3,0.3-0.3,0.8,0,1.1c0.1,0.1,0.3,0.2,0.5,0.2c0.2,0,0.4-0.1,0.5-0.2l1.3-1.3l1.3,1.3
			c0.1,0.1,0.3,0.2,0.5,0.2c0.2,0,0.4-0.1,0.5-0.2c0.3-0.3,0.3-0.8,0-1.1L45,230.5z"/>
	</g>
	<g>
		<path class="st22" d="M314.7,215.3l1.3-1.3c0.3-0.3,0.3-0.8,0-1.1c-0.3-0.3-0.8-0.3-1.1,0l-1.3,1.3l-1.3-1.3
			c-0.3-0.3-0.8-0.3-1.1,0c-0.3,0.3-0.3,0.8,0,1.1l1.3,1.3l-1.3,1.3c-0.3,0.3-0.3,0.8,0,1.1c0.1,0.1,0.3,0.2,0.5,0.2
			c0.2,0,0.4-0.1,0.5-0.2l1.3-1.3l1.3,1.3c0.1,0.1,0.3,0.2,0.5,0.2s0.4-0.1,0.5-0.2c0.3-0.3,0.3-0.8,0-1.1L314.7,215.3z"/>
	</g>
	<g>
		<path class="st54" d="M122.3,138.7c-1.6,0-2.9-1.3-2.9-2.9c0-1.6,1.3-2.9,2.9-2.9c1.6,0,2.9,1.3,2.9,2.9S123.9,138.7,122.3,138.7z
			 M122.2,133.7c-1.1,0-2,0.9-2,2c0,1.1,0.9,2,2,2c1.1,0,2-0.9,2-2C124.3,134.6,123.4,133.7,122.2,133.7z"/>
	</g>
	<g>
		<path class="st21" d="M35,174.8c0.1,0.2,0.2,0.5,0.1,0.8c-0.1,0.4-0.4,0.6-0.7,0.8l-3.5,1c-0.4,0.1-0.7,0-1-0.2
			c-0.3-0.3-0.4-0.6-0.3-1l0.9-3.5c0.1-0.4,0.4-0.6,0.7-0.8c0.4-0.1,0.7,0,1,0.2l2.6,2.5C34.9,174.6,35,174.7,35,174.8z M30.4,176.5
			C30.5,176.5,30.5,176.5,30.4,176.5c0.1,0.1,0.1,0.1,0.3,0.1l3.5-1c0.1,0,0.1-0.1,0.2-0.2c0,0,0-0.1-0.1-0.2l-2.6-2.5
			c-0.1-0.1-0.2-0.1-0.2-0.1s-0.1,0-0.2,0.2l-0.9,3.5C30.4,176.4,30.4,176.5,30.4,176.5z"/>
	</g>
	<g>
		<path class="st21" d="M223.2,158c0.3,0.1,0.5,0.3,0.6,0.5c0.2,0.3,0.2,0.7,0,1l-1.9,3.1c-0.2,0.3-0.5,0.5-0.9,0.5
			c-0.4,0-0.7-0.2-0.9-0.5l-1.8-3.2c-0.2-0.3-0.2-0.7,0-1c0.2-0.3,0.5-0.5,0.9-0.5l3.6,0.1C223,157.9,223.1,158,223.2,158z
			 M221,162.3C221,162.3,221,162.3,221,162.3c0.1,0,0.2,0,0.3-0.1l1.9-3.1c0.1-0.1,0-0.2,0-0.2s-0.1-0.1-0.2-0.1l-3.6-0.1
			c-0.1,0-0.2,0.1-0.2,0.1c0,0-0.1,0.1,0,0.2l1.8,3.2C220.9,162.3,220.9,162.3,221,162.3z"/>
	</g>
	<g>
		<path class="st50" d="M319.2,245.2H32c-0.5,0-0.9-0.4-0.9-0.9s0.4-0.9,0.9-0.9h287.1c0.5,0,0.9,0.4,0.9,0.9
			S319.7,245.2,319.2,245.2z"/>
	</g>
</g>
</svg>
