<?xml version="1.0" encoding="utf-8"?>
<!-- Generator: Adobe Illustrator 28.0.0, SVG Export Plug-In . SVG Version: 6.00 Build 0)  -->
<svg version="1.1" id="Layer_1" xmlns="http://www.w3.org/2000/svg" xmlns:xlink="http://www.w3.org/1999/xlink" x="0px" y="0px"
	 viewBox="0 0 300.5 50.5" style="enable-background:new 0 0 300.5 50.5;" xml:space="preserve">
<style type="text/css">
	.st0{fill:#FFFFFF;}
</style>
<g>
	<g>
		<g>
			<polygon class="st0" points="12.7,49.4 12.7,6.7 0.2,6.7 0.2,1 38.2,1 38.2,6.7 25.8,6.7 25.8,49.4 			"/>
			<polygon class="st0" points="45.1,49.4 45.1,1 81.4,1 81.4,6.7 58,6.7 58,20.2 80.7,20.2 80.7,27 58,27 58,43.8 82,43.8 82,49.4 
							"/>
			<polygon class="st0" points="90.1,49.4 90.1,1 103.1,1 103.1,19.2 104.1,19.2 121.1,1 131.2,1 115.2,24.5 132.8,49.4 122.3,49.4 
				104,30.1 103.1,30.1 103.1,49.4 			"/>
			<polygon class="st0" points="138.6,49.4 138.6,1 151.6,1 151.6,21.7 168.5,21.7 168.5,1 181.4,1 181.4,49.4 168.5,49.4 
				168.5,27.9 151.6,27.9 151.6,49.4 			"/>
			<polygon class="st0" points="210.4,1 216.2,1 233.6,38.8 243.4,1 257.2,1 243.4,49.4 223.7,49.4 			"/>
			<polygon class="st0" points="263.6,49.4 263.6,1 300,1 300,6.7 276.6,6.7 276.6,20.2 299.3,20.2 299.3,27 276.6,27 276.6,43.8 
				300.5,43.8 300.5,49.4 			"/>
			<path class="st0" d="M203.8,1v48.4h-13.1V11.2l3.6-2.7l9.5,9.7v-0.4L190.7,1H203.8z"/>
		</g>
	</g>
</g>
</svg>
