<?xml version="1.0" encoding="UTF-8"?>
<svg id="Layer_1" data-name="Layer 1" xmlns="http://www.w3.org/2000/svg" xmlns:xlink="http://www.w3.org/1999/xlink" viewBox="0 0 417.8 118">
  <defs>
    <style>
      .cls-1 {
        fill: url(#linear-gradient);
      }

      .cls-1, .cls-2 {
        stroke-width: 0px;
      }

      .cls-2 {
        fill: #fff;
      }
    </style>
    <linearGradient id="linear-gradient" x1="-.19" y1="58.6" x2="93.86" y2="58.6" gradientTransform="translate(0 117.6) scale(1 -1)" gradientUnits="userSpaceOnUse">
      <stop offset="0" stop-color="#499bd5"/>
      <stop offset="1" stop-color="#57bf93"/>
    </linearGradient>
  </defs>
  <g>
    <polygon class="cls-2" points="130 83.2 130 40.5 117.5 40.5 117.5 34.8 155.5 34.8 155.5 40.5 143.1 40.5 143.1 83.2 130 83.2"/>
    <polygon class="cls-2" points="162.4 83.2 162.4 34.8 198.7 34.8 198.7 40.5 175.3 40.5 175.3 54 198 54 198 60.8 175.3 60.8 175.3 77.6 199.3 77.6 199.3 83.2 162.4 83.2"/>
    <polygon class="cls-2" points="207.4 83.2 207.4 34.8 220.4 34.8 220.4 53 221.4 53 238.4 34.8 248.5 34.8 232.5 58.3 250.1 83.2 239.6 83.2 221.3 63.9 220.4 63.9 220.4 83.2 207.4 83.2"/>
    <polygon class="cls-2" points="255.9 83.2 255.9 34.8 268.9 34.8 268.9 55.5 285.8 55.5 285.8 34.8 298.7 34.8 298.7 83.2 285.8 83.2 285.8 61.7 268.9 61.7 268.9 83.2 255.9 83.2"/>
    <polygon class="cls-2" points="327.7 34.8 333.5 34.8 350.9 72.6 360.7 34.8 374.5 34.8 360.7 83.2 341 83.2 327.7 34.8"/>
    <polygon class="cls-2" points="380.9 83.2 380.9 34.8 417.3 34.8 417.3 40.5 393.9 40.5 393.9 54 416.6 54 416.6 60.8 393.9 60.8 393.9 77.6 417.8 77.6 417.8 83.2 380.9 83.2"/>
    <path class="cls-2" d="m321.1,34.8v48.4h-13.1v-38.2l3.6-2.7,9.5,9.7v-.4l-13.1-16.8h13.1Z"/>
  </g>
  <path class="cls-1" d="m93.9,58.9h0v-11.5l-17-9,14.4-7.7-6-3.3-12.7,6.9V13.6L46.8,0l-25.5,13.6v20.7l-12.7-6.9-6,3.3,14.4,7.7L0,47.4v11.5h0v.2h0v11.5l17,9-14.4,7.7,6,3.3,12.7-6.8v20.7l25.5,13.5,25.5-13.5v-20.7l12.7,6.9,6-3.3-14.4-7.7,17-9v-11.5h0v-.1l.3-.2ZM5.9,67.5v-16.8l17-9,16.6,9v16.8l-16.6,9-17-9Zm60.5,14.5v19.3l-19.5,10.3-19.5-10.3v-20.8l18.2-9.9v-11.5h0v-.2h0v-11.5l-18.2-9.9v-20.8l19.5-10.3,19.4,10.4v20.8l-18.2,9.9v11.5h0v.2h0v11.5l18.2,9.9.1,1.4Zm21.4-14.5l-17,9-16.6-9v-16.8l16.6-9,17,9v16.8Z"/>
</svg>