<?xml version="1.0" encoding="utf-8"?>
<!-- Generator: Adobe Illustrator 28.0.0, SVG Export Plug-In . SVG Version: 6.00 Build 0)  -->
<svg version="1.1" id="Layer_1" xmlns="http://www.w3.org/2000/svg" xmlns:xlink="http://www.w3.org/1999/xlink" x="0px" y="0px"
	 viewBox="0 0 186.6 176.4" style="enable-background:new 0 0 186.6 176.4;" xml:space="preserve">
<style type="text/css">
	.st0{fill:#FFFFFF;}
</style>
<g>
	<g>
		<path class="st0" d="M90.4,167.6c-35.5,0-64.4-28.9-64.4-64.4V73.3c0-16.5,6.2-32.2,17.6-44.2l0.4,0.4
			C32.6,41.3,26.4,56.9,26.4,73.3v29.9c0,35.3,28.7,63.9,63.9,63.9c2.1,0,4.2-0.1,6.2-0.3l0.1,0.5C94.5,167.5,92.4,167.6,90.4,167.6
			z"/>
	</g>
	<g>
		<path class="st0" d="M59.1,16.9c0.1,0.2,0.2,0.3,0.3,0.5c-0.1,0-0.2,0.1-0.2,0.1c-0.1,0-0.2,0.1-0.2,0.1c-2.7,1.5-5.3,3.3-7.8,5.2
			l-0.3-0.4c2.5-1.9,5.1-3.7,7.8-5.2v0c0.1,0,0.2-0.1,0.2-0.1C58.9,17,59,17,59.1,16.9z"/>
		<path class="st0" d="M154.7,69.9c-0.1-0.2-0.1-0.4-0.2-0.5c-0.1,0.3-0.2,0.5-0.3,0.7c0,0.1-0.1,0.1-0.1,0.2c0-0.2,0-0.4,0-0.6
			c0-0.3,0-0.5-0.1-0.8c0,0,0,0,0,0v0c-2.3-33.2-30-59.5-63.8-59.5c-9.2,0-18,1.9-26.2,5.6C64.1,15,64,15,63.9,15
			c-0.1,0-0.2,0.1-0.2,0.1c-0.1-0.2-0.1-0.3-0.2-0.5c0.1,0,0.2-0.1,0.2-0.1c0.1,0,0.2-0.1,0.2-0.1c8.2-3.7,17.1-5.6,26.4-5.6
			c32.8,0,59.9,24.6,63.9,56.2c0,0,0,0,0,0c0.1,0.8,0.2,1.6,0.3,2.4c0,0.4,0.1,0.8,0.1,1.1C154.7,69.1,154.7,69.5,154.7,69.9z"/>
		<path class="st0" d="M154.8,78.4v3.7c-0.1-0.2-0.2-0.5-0.3-0.7c-0.1,0.3-0.2,0.5-0.3,0.7v-3.7c0.1,0.2,0.2,0.5,0.3,0.7
			C154.6,78.9,154.7,78.6,154.8,78.4z"/>
		<path class="st0" d="M154.8,90.3V94c-0.1-0.2-0.2-0.5-0.3-0.7c-0.1,0.3-0.2,0.5-0.3,0.7v-3.7c0.1,0.2,0.2,0.5,0.3,0.7
			C154.6,90.8,154.7,90.5,154.8,90.3z"/>
		<path class="st0" d="M154.5,103c0.1-0.3,0.2-0.5,0.3-0.7v0.9c0,0.5,0,1.1,0,1.6c0,0,0,0,0,0v0h0c0,2.2-0.2,4.4-0.5,6.6
			c-3.5,27.1-24,49.6-51.3,55l-0.1-0.5c29.3-5.8,50.7-31.5,51.3-61.3v-0.1c0,0,0,0,0,0c0,0,0,0,0,0c0-0.4,0-0.8,0-1.3v-0.9
			C154.4,102.5,154.5,102.7,154.5,103z"/>
	</g>
	<g>
		<path class="st0" d="M154.8,65.3v4.9c0-0.1-0.1-0.1-0.1-0.2c-0.1-0.2-0.1-0.4-0.2-0.5c-0.1,0.3-0.2,0.5-0.3,0.7v-5.1c0,0,0,0,0,0
			c-0.1-35.1-28.8-63.7-63.9-63.7c-35.2,0-63.8,28.6-63.9,63.7v46.2c0,0,0,0,0,0c0.1,35.2,28.8,63.7,63.9,63.7
			c10.4,0,20.7-2.5,29.8-7.3l0.2,0.5c-9.2,4.8-19.6,7.4-30,7.4c-35.5,0-64.4-28.9-64.4-64.4V65.3c0-35.5,28.9-64.4,64.4-64.4
			C125.9,0.8,154.8,29.8,154.8,65.3z"/>
		<path class="st0" d="M154.8,78.4v3.7c-0.1-0.2-0.2-0.5-0.3-0.7c-0.1,0.3-0.2,0.5-0.3,0.7v-3.7c0.1,0.2,0.2,0.5,0.3,0.7
			C154.6,78.9,154.7,78.6,154.8,78.4z"/>
		<path class="st0" d="M154.8,90.3V94c-0.1-0.2-0.2-0.5-0.3-0.7c-0.1,0.3-0.2,0.5-0.3,0.7v-3.7c0.1,0.2,0.2,0.5,0.3,0.7
			C154.6,90.8,154.7,90.5,154.8,90.3z"/>
		<path class="st0" d="M154.5,103c0.1-0.3,0.2-0.5,0.3-0.7v8.9c0,19.6-8.8,37.9-24,50.2l-0.3-0.4c15.1-12.2,23.8-30.2,23.8-49.6
			v-9.1C154.4,102.5,154.5,102.7,154.5,103z"/>
	</g>
	<g>
		<path class="st0" d="M47.3,21.1L47.3,21.1c0.1,2.6,2.2,4.8,4.9,4.9l0,0l0,0c-2.6,0.1-4.8,2.2-4.9,4.9l0,0l0,0
			c-0.1-2.6-2.2-4.8-4.9-4.9l0,0l0,0C45.1,25.9,47.2,23.8,47.3,21.1L47.3,21.1z"/>
	</g>
	<g>
		<path class="st0" d="M130.6,164.5c-2.5-0.1-4.5-2.1-4.6-4.6c0-0.1-0.1-0.2-0.3-0.2c-0.1,0-0.2,0.1-0.3,0.2
			c-0.1,2.5-2.1,4.5-4.6,4.6c-0.1,0-0.2,0.1-0.2,0.3c0,0.1,0.1,0.3,0.2,0.3c2.5,0.1,4.5,2.1,4.6,4.6c0,0.1,0.1,0.2,0.3,0.2
			c0.1,0,0.3-0.1,0.3-0.2c0.1-2.5,2.1-4.5,4.6-4.6c0.1,0,0.2-0.1,0.2-0.3C130.8,164.6,130.7,164.5,130.6,164.5z M125.7,168.1
			c-0.5-1.6-1.8-2.9-3.4-3.4c1.6-0.5,2.9-1.8,3.4-3.4c0.5,1.6,1.8,2.9,3.4,3.4C127.5,165.3,126.2,166.5,125.7,168.1z"/>
	</g>
	<g>
		<g>
			<path class="st0" d="M161.1,74c-3.4-0.1-6.1-2.9-6.3-6.3c0-0.1-0.1-0.2-0.3-0.2c-0.1,0-0.2,0.1-0.3,0.2c0,0.4-0.1,0.7-0.2,1.1v0
				c0,0,0,0,0,0c-0.6,2.8-3.1,5-6.1,5.1c-0.1,0-0.2,0.1-0.2,0.3s0.1,0.3,0.2,0.3c3.2,0.1,5.8,2.6,6.2,5.7c0,0.2,0,0.4,0,0.5
				c0,0.1,0,0.1,0.1,0.2c0,0,0.1,0.1,0.2,0.1c0.1,0,0.1,0,0.2-0.1c0.1-0.1,0.1-0.1,0.1-0.2c0-0.2,0-0.4,0-0.5c0.4-3.1,3-5.6,6.2-5.7
				c0.1,0,0.2-0.1,0.2-0.3S161.2,74,161.1,74z M154.8,78.4c-0.1,0.2-0.2,0.5-0.3,0.7c-0.1-0.3-0.2-0.5-0.3-0.7
				c-0.8-2-2.5-3.5-4.6-4.1c2-0.6,3.7-2,4.5-3.9c0-0.1,0.1-0.1,0.1-0.2c0.1-0.2,0.2-0.5,0.3-0.7c0.1,0.2,0.1,0.4,0.2,0.5
				c0,0.1,0.1,0.1,0.1,0.2c0.8,2,2.5,3.5,4.6,4.1C157.3,74.8,155.6,76.4,154.8,78.4z"/>
		</g>
		<g>
			<path class="st0" d="M161.1,85.9c-3.2-0.1-5.8-2.6-6.2-5.7c0-0.2,0-0.4,0-0.5c0-0.1,0-0.1-0.1-0.2c0,0-0.1-0.1-0.2-0.1
				c-0.1,0-0.1,0-0.2,0.1c-0.1,0-0.1,0.1-0.1,0.2c0,0.2,0,0.4,0,0.5c-0.4,3.1-3,5.6-6.2,5.7c-0.1,0-0.2,0.1-0.2,0.3
				c0,0.1,0.1,0.3,0.2,0.3c3.2,0.1,5.8,2.6,6.2,5.7c0,0.2,0,0.4,0,0.5c0,0.1,0,0.1,0.1,0.2c0,0,0.1,0.1,0.2,0.1c0.1,0,0.1,0,0.2-0.1
				c0.1,0,0.1-0.1,0.1-0.2c0-0.2,0-0.4,0-0.5c0.4-3.1,3-5.6,6.2-5.7c0.1,0,0.2-0.1,0.2-0.3C161.3,86.1,161.2,85.9,161.1,85.9z
				 M154.8,90.3c-0.1,0.2-0.2,0.5-0.3,0.7c-0.1-0.3-0.2-0.5-0.3-0.7c-0.8-2-2.5-3.5-4.6-4.1c2.1-0.6,3.8-2.1,4.6-4.1
				c0.1-0.2,0.2-0.5,0.3-0.7c0.1,0.3,0.2,0.5,0.3,0.7c0.8,2,2.5,3.5,4.6,4.1C157.3,86.8,155.6,88.3,154.8,90.3z"/>
		</g>
		<g>
			<path class="st0" d="M161.1,97.9c-3.2-0.1-5.8-2.6-6.2-5.7c0-0.2,0-0.4,0-0.5c0-0.1,0-0.1-0.1-0.2c0,0-0.1-0.1-0.2-0.1
				c-0.1,0-0.1,0-0.2,0.1c-0.1,0.1-0.1,0.1-0.1,0.2c0,0.2,0,0.4,0,0.5c-0.4,3.1-3,5.6-6.2,5.7c-0.1,0-0.2,0.1-0.2,0.3
				c0,0.1,0.1,0.3,0.2,0.3c3.3,0.1,6,2.8,6.2,6c0,0,0,0,0,0c0,0,0,0,0,0v0.1c0,0.1,0,0.1,0,0.1c0,0.1,0.1,0.2,0.3,0.2
				c0.1,0,0.2-0.1,0.2-0.1h0v0c0,0,0,0,0,0c0,0,0-0.1,0-0.1c0.1-3.4,2.9-6.1,6.3-6.3c0.1,0,0.2-0.1,0.2-0.3
				C161.3,98,161.2,97.9,161.1,97.9z M154.8,102.2c-0.1,0.2-0.2,0.5-0.3,0.7c-0.1-0.3-0.2-0.5-0.3-0.7c-0.8-2-2.5-3.5-4.6-4.1
				c2.1-0.6,3.8-2.1,4.6-4.1c0.1-0.2,0.2-0.5,0.3-0.7c0.1,0.3,0.2,0.5,0.3,0.7c0.8,2,2.5,3.5,4.6,4.1
				C157.3,98.7,155.6,100.2,154.8,102.2z"/>
		</g>
	</g>
	<g>
		<path class="st0" d="M64.2,14.9c-0.1-0.2-0.1-0.3-0.2-0.5c-0.5-1-1.5-1.6-2.7-1.6c-1.7,0-3,1.4-3,3c0,0.5,0.1,0.9,0.3,1.3v0
			c0.1,0.2,0.2,0.3,0.3,0.4c0.5,0.8,1.4,1.3,2.4,1.3c1.7,0,3-1.4,3-3C64.3,15.5,64.3,15.2,64.2,14.9z M61.3,18.4c-0.8,0-1.5-0.4-2-1
			c-0.1-0.1-0.2-0.3-0.3-0.5c-0.2-0.3-0.2-0.7-0.2-1.1c0-1.4,1.1-2.5,2.5-2.5c1,0,1.8,0.5,2.2,1.3c0.1,0.2,0.1,0.3,0.2,0.5
			c0.1,0.2,0.1,0.5,0.1,0.7C63.8,17.2,62.7,18.4,61.3,18.4z"/>
	</g>
	<g>
		<path class="st0" d="M101.8,166.4c0,1.1-0.9,2-2,2c-1.1,0-2-0.9-2-2c0-1.1,0.9-2,2-2C100.9,164.4,101.8,165.3,101.8,166.4z"/>
	</g>
</g>
</svg>
