<?xml version="1.0" encoding="utf-8"?>
<!-- Generator: Adobe Illustrator 28.0.0, SVG Export Plug-In . SVG Version: 6.00 Build 0)  -->
<svg version="1.1" id="Layer_1" xmlns="http://www.w3.org/2000/svg" xmlns:xlink="http://www.w3.org/1999/xlink" x="0px" y="0px"
	 viewBox="0 0 112.7 132.4" style="enable-background:new 0 0 112.7 132.4;" xml:space="preserve">
<style type="text/css">
	.st0{fill:url(#SVGID_1_);}
</style>
<linearGradient id="SVGID_1_" gradientUnits="userSpaceOnUse" x1="9.2129" y1="66.8" x2="103.2566" y2="66.8" gradientTransform="matrix(1 0 0 -1 0 134)">
	<stop  offset="0" style="stop-color:#499BD5"/>
	<stop  offset="1" style="stop-color:#57BF93"/>
</linearGradient>
<path class="st0" d="M103.3,67.1L103.3,67.1V55.6l-17-9l14.4-7.7l-6-3.3L82,42.5V21.8L56.2,8.2L30.7,21.8v20.7L18,35.6l-6,3.3
	l14.4,7.7l-17,9v11.5l0,0v0.1v0.1l0,0v11.5l17,9L12,95.5l6,3.3L30.7,92v20.7l25.5,13.5l25.5-13.5V92l12.7,6.9l6-3.3L86,87.9l17-9
	V67.4l0,0v-0.1L103.3,67.1z M15.3,75.7v-8.4v-8.4l17-9l16.6,9v8.4v8.4l-16.6,9L15.3,75.7z M75.8,90.2v19.3l-19.5,10.3l-19.5-10.3
	V90.2v-1.5L55,78.8V67.3l0,0v-0.1v-0.1l0,0V55.6l-18.2-9.9v-1.5V24.9l19.5-10.3L75.7,25v19.3v1.5l-18.2,9.9v11.5l0,0v0.1v0.1l0,0
	v11.5l18.2,9.9L75.8,90.2z M97.2,75.7l-17,9l-16.6-9v-8.4v-8.4l16.6-9l17,9v8.4V75.7z"/>
</svg>
