<?xml version="1.0" encoding="utf-8"?>
<!-- Generator: Adobe Illustrator 28.0.0, SVG Export Plug-In . SVG Version: 6.00 Build 0)  -->
<svg version="1.1" id="Layer_1" xmlns="http://www.w3.org/2000/svg" xmlns:xlink="http://www.w3.org/1999/xlink" x="0px" y="0px"
	 viewBox="0 0 319.7 132.4" style="enable-background:new 0 0 319.7 132.4;" xml:space="preserve">
<style type="text/css">
	.st0{fill:#FFFFFF;}
</style>
<g>
	<g>
		<g>
			<polygon class="st0" points="22.2,90.4 22.2,47.7 9.7,47.7 9.7,42 47.7,42 47.7,47.7 35.3,47.7 35.3,90.4 			"/>
			<polygon class="st0" points="54.6,90.4 54.6,42 90.9,42 90.9,47.7 67.5,47.7 67.5,61.2 90.2,61.2 90.2,68 67.5,68 67.5,84.8 
				91.5,84.8 91.5,90.4 			"/>
			<polygon class="st0" points="99.6,90.4 99.6,42 112.6,42 112.6,60.2 113.6,60.2 130.6,42 140.7,42 124.7,65.5 142.3,90.4 
				131.8,90.4 113.5,71.1 112.6,71.1 112.6,90.4 			"/>
			<polygon class="st0" points="148.1,90.4 148.1,42 161.1,42 161.1,62.7 178,62.7 178,42 190.9,42 190.9,90.4 178,90.4 178,68.9 
				161.1,68.9 161.1,90.4 			"/>
			<polygon class="st0" points="219.9,42 225.7,42 243.1,79.8 252.9,42 266.7,42 252.9,90.4 233.2,90.4 			"/>
			<polygon class="st0" points="273.1,90.4 273.1,42 309.5,42 309.5,47.7 286.1,47.7 286.1,61.2 308.8,61.2 308.8,68 286.1,68 
				286.1,84.8 310,84.8 310,90.4 			"/>
			<path class="st0" d="M213.3,42v48.4h-13.1V52.2l3.6-2.7l9.5,9.7v-0.4L200.2,42H213.3z"/>
		</g>
	</g>
</g>
</svg>
