<?xml version="1.0" encoding="utf-8"?>
<!-- Generator: Adobe Illustrator 28.0.0, SVG Export Plug-In . SVG Version: 6.00 Build 0)  -->
<svg version="1.1" id="SvgjsSvg1416" xmlns:svgjs="http://svgjs.com/svgjs"
	 xmlns="http://www.w3.org/2000/svg" xmlns:xlink="http://www.w3.org/1999/xlink" x="0px" y="0px" viewBox="0 0 360 360"
	 style="enable-background:new 0 0 360 360;" xml:space="preserve">
<style type="text/css">
	.st0{opacity:0.5;fill:url(#SVGID_1_);enable-background:new    ;}
	.st1{fill:#1B1270;}
	.st2{fill:#FFF2F2;}
	.st3{fill:#FFFFFF;}
	.st4{fill:url(#SVGID_00000171720108424055684520000005565309706795111595_);}
	.st5{opacity:0.4;fill:#00AAFF;enable-background:new    ;}
	.st6{fill:#00AAFF;stroke:#1B1270;stroke-width:0.24;stroke-linecap:round;stroke-linejoin:round;stroke-miterlimit:1.2;}
	.st7{fill:url(#SVGID_00000125570486078022773180000010813164715023373959_);}
	.st8{fill:url(#SVGID_00000173839837049012177760000008699464424139211397_);}
	.st9{fill:#4F4BEA;}
	.st10{fill:#00D39C;}
	.st11{fill:url(#SVGID_00000155147104552363926490000015070816936793165243_);}
	.st12{fill:url(#SVGID_00000067200939416590683140000006983083761099111352_);}
	.st13{fill:url(#SVGID_00000161601638005252327970000004150242096289326519_);}
	.st14{fill:#00AAFF;}
	.st15{fill:url(#SVGID_00000009573527731652343520000016133778298923425717_);}
	.st16{fill:url(#SVGID_00000125604926349682340470000000989375622898706072_);}
	.st17{fill:url(#SVGID_00000011713774330026281310000013240973956519473564_);}
	.st18{fill:#00FFA1;}
	.st19{fill:url(#SVGID_00000168805912776677176110000001117426032794123151_);}
	.st20{opacity:0.3;fill:#00AAFF;enable-background:new    ;}
	.st21{fill:#5FC9FF;}
	.st22{opacity:0.3;}
	.st23{fill:url(#SVGID_00000091713306206309175340000005364948702414930052_);}
	.st24{fill:url(#SVGID_00000091736342804488673450000011329372505017354901_);}
	.st25{fill:url(#SVGID_00000114760573382592106590000013723648547914131332_);}
	.st26{fill:url(#SVGID_00000150091362421725846230000008802334372397181837_);}
	.st27{fill:url(#SVGID_00000023981959206170650450000012880704879094761133_);}
	.st28{opacity:0.3;fill:#2D6C87;enable-background:new    ;}
	.st29{fill:#7499AD;}
	.st30{fill:#DBDAEF;}
	.st31{fill:url(#SVGID_00000021102660190036039910000001335326992066812812_);}
</style>
<g id="SvgjsG1418">
	<g>
		
			<linearGradient id="SVGID_1_" gradientUnits="userSpaceOnUse" x1="3192.6667" y1="-3770.6667" x2="5072.6665" y2="-3770.6667" gradientTransform="matrix(0.12 0 0 -0.12 -315.92 -272.48)">
			<stop  offset="0" style="stop-color:#DADCE0"/>
			<stop  offset="1" style="stop-color:#DBDAEF"/>
		</linearGradient>
		<circle class="st0" cx="180" cy="180" r="112.8"/>
		<path class="st1" d="M221.1,263C221.1,263,221.1,263,221.1,263c0,1-0.6,1.9-1.8,2.7L175.5,291c-2.7,1.5-7.3,1.3-10.3-0.4
			L61.4,229.8c-1.7-1-2.6-2.3-2.5-3.5c0,0,0,0,0,0c-0.1,1.2,0.1,6.1,0,7c-0.1,1.2,0.8,2.6,2.5,3.6l103.8,60.7
			c3.1,1.8,7.7,2,10.3,0.4l43.8-25.3c1.3-0.8,1.9-1.8,1.8-2.9C220.9,268.8,221.1,264,221.1,263z"/>
		<path class="st1" d="M171,299.2c-2.1,0-4.2-0.5-5.9-1.5L61.3,237c-1.8-1-2.7-2.4-2.6-3.7c0-0.5,0-2.1,0-3.7c0-1.4,0-2.7,0-3.3
			c0,0,0,0,0,0c0-0.1,0.1-0.1,0.1-0.1c0.1,0,0.1,0.1,0.1,0.1c-0.1,1.2,0.8,2.5,2.5,3.4l103.8,60.7c3,1.7,7.6,1.9,10.2,0.4l43.8-25.3
			c1.2-0.7,1.8-1.6,1.7-2.6c0,0,0,0,0,0c0-0.1,0-0.1,0.1-0.1c0.1,0,0.1,0,0.1,0.1v0l0,0l0,0c0,0.4,0,1.2,0,2.2c0,1.8-0.1,4,0,4.6
			c0.1,1.2-0.5,2.2-1.8,3l-43.8,25.3C174.3,298.8,172.7,299.2,171,299.2z M59,227.5c0,0.6,0,1.3,0,2.1c0,1.6,0,3.2,0,3.7
			c-0.1,1.2,0.8,2.5,2.5,3.5l103.8,60.7c3,1.7,7.6,1.9,10.2,0.4l43.8-25.3c1.2-0.7,1.8-1.7,1.7-2.8c-0.1-0.7,0-2.9,0-4.7
			c0-0.4,0-0.7,0-1c-0.3,0.6-0.8,1.2-1.6,1.6l-43.8,25.3c-2.7,1.5-7.4,1.4-10.5-0.4L61.3,229.9C60.1,229.2,59.3,228.4,59,227.5z"/>
		<path class="st2" d="M165.1,290.5L61.4,229.8c-3.1-1.8-3.4-4.4-0.7-6l43.8-25.3c2.7-1.5,7.3-1.3,10.3,0.4l103.8,60.7
			c3.1,1.8,3.4,4.4,0.7,6L175.5,291C172.8,292.5,168.2,292.3,165.1,290.5z"/>
		<path class="st1" d="M171,292.1c-2.1,0-4.2-0.5-5.9-1.5l0,0L61.3,229.9c-1.6-1-2.6-2.2-2.6-3.5c0-1.1,0.7-2,1.9-2.7l43.8-25.3
			c2.7-1.5,7.4-1.4,10.5,0.4l103.8,60.7c1.6,1,2.6,2.2,2.6,3.5c0,1.1-0.7,2-1.9,2.7l-43.8,25.3C174.3,291.8,172.7,292.1,171,292.1z
			 M165.2,290.4c3,1.7,7.6,1.9,10.2,0.4l43.8-25.3c1.1-0.6,1.7-1.5,1.7-2.5c0-1.2-0.9-2.4-2.5-3.3l-103.8-60.7
			c-3-1.7-7.6-1.9-10.2-0.4l-43.8,25.3c-1.1,0.6-1.7,1.5-1.7,2.5c0,1.2,0.9,2.4,2.5,3.3L165.2,290.4z"/>
		<g>
			<polygon class="st3" points="184.3,292.5 190.5,288.9 190.5,283.1 184.3,286.7 			"/>
			<polygon class="st3" points="197.5,279.1 193.9,281.2 193.9,287 197.5,284.9 			"/>
		</g>
		<g>
			
				<linearGradient id="SVGID_00000167389077529819473500000011936709927741642936_" gradientUnits="userSpaceOnUse" x1="3415.5266" y1="-4053.1975" x2="3735.0474" y2="-4053.1975" gradientTransform="matrix(0.12 0 0 -0.12 -315.92 -272.48)">
				<stop  offset="0" style="stop-color:#DADCE0"/>
				<stop  offset="1" style="stop-color:#DBDAEF"/>
			</linearGradient>
			<path style="fill:url(#SVGID_00000167389077529819473500000011936709927741642936_);" d="M132.3,213.1L132.3,213.1
				c0-0.1,0-0.2-0.1-0.3l-2-9.5l0,0c0,0.7-0.4,1.4-1.3,2l-12.6,7.3c-1.8,1-4.7,1-6.4,0l-12.5-7.2c-0.9-0.5-1.3-1.2-1.3-1.9h0
				l-1.9,9.3c-0.1,0.2-0.1,0.4-0.1,0.6l0,0l0,0c0,0.8,0.5,1.5,1.5,2.1l14,8.1c2,1.1,5.2,1.1,7.2,0l14.1-8.2
				C131.9,214.8,132.4,214,132.3,213.1z"/>
			<path class="st1" d="M113,224.6c-1.3,0-2.6-0.3-3.6-0.9l-14-8.1c-1-0.6-1.6-1.4-1.5-2.2c0,0,0,0,0,0v0c0-0.2,0-0.4,0.1-0.6
				l1.9-9.3c0,0,0-0.1,0.1-0.1c0,0,0.1,0,0.1,0c0,0,0.1,0.1,0,0.1c0,0.7,0.4,1.3,1.3,1.8l12.5,7.2c1.7,1,4.6,1,6.3,0l12.6-7.3
				c0.9-0.5,1.3-1.2,1.3-1.9c0-0.1,0-0.1,0.1-0.1c0.1,0,0.1,0,0.1,0.1l2,9.5c0,0.1,0.1,0.2,0.1,0.3l0,0c0.1,0.9-0.5,1.8-1.5,2.4
				l-14.1,8.2C115.7,224.3,114.4,224.6,113,224.6z M94.1,213.4C94.1,213.4,94.1,213.4,94.1,213.4c0,0.8,0.5,1.5,1.4,2l14,8.1
				c1.9,1.1,5.1,1.1,7.1,0l14.1-8.2c1-0.6,1.5-1.4,1.4-2.2c0-0.1,0-0.2-0.1-0.3l-1.8-8.8c-0.2,0.5-0.6,1-1.3,1.4l-12.6,7.3
				c-1.8,1-4.7,1.1-6.5,0l-12.5-7.2c-0.6-0.4-1.1-0.8-1.3-1.3l-1.8,8.7c0,0,0,0,0,0C94.1,213,94.1,213.2,94.1,213.4
				C94.1,213.4,94.1,213.4,94.1,213.4z"/>
			<path class="st3" d="M110,194.4l-12.6,7.3c-1.8,1-1.8,2.7,0,3.7l12.5,7.2c1.8,1,4.6,1,6.4,0l12.6-7.3c1.8-1,1.8-2.7,0-3.7
				l-12.5-7.2C114.6,193.3,111.7,193.4,110,194.4z"/>
			<path class="st1" d="M113,213.5c-1.2,0-2.4-0.3-3.3-0.8l-12.5-7.2c-0.9-0.5-1.4-1.2-1.4-1.9c0-0.7,0.5-1.4,1.4-2l12.6-7.3l0,0
				c1.8-1,4.7-1.1,6.5,0l12.5,7.2c0.9,0.5,1.4,1.2,1.4,1.9c0,0.7-0.5,1.4-1.4,2l-12.6,7.3C115.4,213.2,114.2,213.5,113,213.5z
				 M110,194.5l-12.6,7.3c-0.8,0.5-1.3,1.1-1.3,1.8c0,0.7,0.4,1.3,1.3,1.7l12.5,7.2c1.7,1,4.6,1,6.3,0l12.6-7.3
				c0.8-0.5,1.3-1.1,1.3-1.8c0-0.7-0.4-1.3-1.3-1.7l-12.5-7.2C114.6,193.5,111.8,193.5,110,194.5L110,194.5z"/>
			<path class="st5" d="M113.1,218.2l-18-10.4l-1,5.1c-0.1,0.2-0.1,0.4-0.1,0.6l0,0l0,0c0,0.8,0.5,1.5,1.5,2.1l14,8.1
				c1,0.6,2.3,0.9,3.7,0.9L113.1,218.2L113.1,218.2z"/>
			<g>
				<path class="st1" d="M113.1,224.6c-0.1,0-0.1-0.1-0.1-0.1v-11.1c0-0.1,0.1-0.1,0.1-0.1c0.1,0,0.1,0.1,0.1,0.1v11.1
					C113.2,224.5,113.2,224.6,113.1,224.6z"/>
			</g>
			<g>
				<path class="st6" d="M116.5,200.4l2.1,1.2l-4.7,6.9l-1.8-1l1-1.5l-4.3-2.5l-2.5,0.6l-1.8-1L116.5,200.4z M114,205.1l1.6-2.4
					l0.6-0.8l-0.1,0l-1.4,0.4l-4.2,0.9L114,205.1z"/>
			</g>
			<g>
				
					<linearGradient id="SVGID_00000176727263886332914610000001893364876819704509_" gradientUnits="userSpaceOnUse" x1="3610.4465" y1="-4165.2622" x2="3929.9553" y2="-4165.2622" gradientTransform="matrix(0.12 0 0 -0.12 -315.92 -272.48)">
					<stop  offset="0" style="stop-color:#DADCE0"/>
					<stop  offset="1" style="stop-color:#DBDAEF"/>
				</linearGradient>
				<path style="fill:url(#SVGID_00000176727263886332914610000001893364876819704509_);" d="M155.7,226.6L155.7,226.6
					c0-0.1,0-0.2-0.1-0.3l-2-9.5l0,0c0,0.7-0.4,1.4-1.3,2l-12.6,7.3c-1.8,1-4.7,1-6.4,0l-12.5-7.2c-0.9-0.5-1.3-1.2-1.3-1.9h0
					l-1.9,9.3c-0.1,0.2-0.1,0.4-0.1,0.6l0,0l0,0c0,0.8,0.5,1.5,1.5,2.1l14,8.1c2,1.1,5.2,1.1,7.2,0l14.1-8.2
					C155.3,228.2,155.8,227.4,155.7,226.6z"/>
				<path class="st1" d="M136.4,238c-1.3,0-2.6-0.3-3.6-0.9l-14-8.1c-1-0.6-1.6-1.4-1.5-2.2c0,0,0,0,0,0v0c0-0.2,0-0.4,0.1-0.6
					l1.9-9.3c0,0,0-0.1,0.1-0.1c0,0,0.1,0,0.1,0c0,0,0.1,0.1,0,0.1c0,0.7,0.4,1.3,1.3,1.8l12.5,7.2c1.7,1,4.6,1,6.3,0l12.6-7.3
					c0.9-0.5,1.3-1.2,1.3-1.9c0-0.1,0-0.1,0.1-0.1c0.1,0,0.1,0,0.1,0.1l2,9.5c0,0.1,0.1,0.2,0.1,0.3l-0.1,0l0.1,0
					c0.1,0.9-0.5,1.8-1.5,2.4l-14.1,8.2C139.1,237.7,137.7,238,136.4,238z M117.5,226.8C117.5,226.8,117.5,226.8,117.5,226.8
					c0,0.8,0.5,1.5,1.4,2l14,8.1c1.9,1.1,5.1,1.1,7.1,0l14.1-8.2c1-0.6,1.5-1.4,1.4-2.2l0,0c0-0.1,0-0.2-0.1-0.3l-1.8-8.8
					c-0.2,0.5-0.6,1-1.3,1.4l-12.6,7.3c-1.8,1-4.7,1.1-6.5,0l-12.5-7.2c-0.6-0.4-1.1-0.8-1.3-1.3l-1.8,8.7c0,0,0,0,0,0
					C117.5,226.5,117.5,226.6,117.5,226.8C117.5,226.8,117.5,226.8,117.5,226.8z"/>
				<path class="st3" d="M133.3,207.8l-12.6,7.3c-1.8,1-1.8,2.7,0,3.7l12.5,7.2c1.8,1,4.6,1,6.4,0l12.6-7.3c1.8-1,1.8-2.7,0-3.7
					l-12.5-7.2C138,206.8,135.1,206.8,133.3,207.8z"/>
				<path class="st1" d="M136.4,226.9c-1.2,0-2.4-0.3-3.3-0.8l-12.5-7.2c-0.9-0.5-1.4-1.2-1.4-1.9c0-0.7,0.5-1.4,1.4-2l12.6-7.3l0,0
					c1.8-1,4.7-1.1,6.5,0l12.5,7.2c0.9,0.5,1.4,1.2,1.4,1.9c0,0.7-0.5,1.4-1.4,2l-12.6,7.3C138.8,226.7,137.6,226.9,136.4,226.9z
					 M133.4,207.9l-12.6,7.3c-0.8,0.5-1.3,1.1-1.3,1.8c0,0.7,0.4,1.3,1.3,1.7l12.5,7.2c1.7,1,4.6,1,6.3,0l12.6-7.3
					c0.8-0.5,1.3-1.1,1.3-1.8c0-0.7-0.4-1.3-1.3-1.7l-12.5-7.2C138,206.9,135.2,206.9,133.4,207.9z"/>
				<path class="st5" d="M136.5,231.6l-18-10.4l-1,5.1c-0.1,0.2-0.1,0.4-0.1,0.6l0,0l0,0c0,0.8,0.5,1.5,1.5,2.1l14,8.1
					c1,0.6,2.3,0.9,3.7,0.9L136.5,231.6L136.5,231.6z"/>
				<g>
					<path class="st1" d="M136.5,238c-0.1,0-0.1-0.1-0.1-0.1v-11.1c0-0.1,0.1-0.1,0.1-0.1c0.1,0,0.1,0.1,0.1,0.1v11.1
						C136.6,238,136.6,238,136.5,238z"/>
				</g>
				<g>
					<path class="st6" d="M136.9,212.2l4.2,2.4c1.1,0.6,1.6,1.2,1.7,1.8c0,0.6-0.4,1.1-1.2,1.6c-0.9,0.5-1.9,0.7-2.9,0.7
						c-1-0.1-2-0.4-3-0.9l-2.5-1.4l-3,1.7l-1.7-1L136.9,212.2z M137.2,213.9l-2.8,1.6l2.3,1.4c0.6,0.3,1.1,0.5,1.6,0.5
						c0.5,0,1-0.1,1.4-0.4c0.5-0.3,0.7-0.6,0.6-0.9s-0.4-0.6-0.9-0.9L137.2,213.9z"/>
				</g>
			</g>
			<g>
				
					<linearGradient id="SVGID_00000085224378348761857920000013392524349567517870_" gradientUnits="userSpaceOnUse" x1="3796.1565" y1="-4273.9126" x2="4115.6655" y2="-4273.9126" gradientTransform="matrix(0.12 0 0 -0.12 -315.92 -272.48)">
					<stop  offset="0" style="stop-color:#DADCE0"/>
					<stop  offset="1" style="stop-color:#DBDAEF"/>
				</linearGradient>
				<path style="fill:url(#SVGID_00000085224378348761857920000013392524349567517870_);" d="M177.9,239.6L177.9,239.6
					c0-0.1,0-0.2-0.1-0.3l-2-9.5l0,0c0,0.7-0.4,1.4-1.3,2l-12.6,7.3c-1.8,1-4.7,1-6.4,0l-12.5-7.2c-0.9-0.5-1.3-1.2-1.3-1.9h0
					l-1.9,9.3c-0.1,0.2-0.1,0.4-0.1,0.6l0,0l0,0c0,0.8,0.5,1.5,1.5,2.1l14,8.1c2,1.1,5.2,1.1,7.2,0l14.1-8.2
					C177.5,241.3,178,240.4,177.9,239.6z"/>
				<path class="st1" d="M158.7,251.1c-1.3,0-2.6-0.3-3.6-0.9l-14-8.1c-1-0.6-1.6-1.4-1.5-2.2c0,0,0,0,0,0v0c0-0.2,0-0.4,0.1-0.6
					l1.9-9.3c0,0,0-0.1,0.1-0.1c0,0,0.1,0,0.1,0c0,0,0.1,0.1,0,0.1c0,0.7,0.4,1.3,1.3,1.8l12.5,7.2c1.7,1,4.6,1,6.3,0l12.6-7.3
					c0.9-0.5,1.3-1.2,1.3-1.9c0-0.1,0-0.1,0.1-0.1c0.1,0,0.1,0,0.1,0.1l2,9.5c0,0.1,0.1,0.2,0.1,0.3l0,0c0.1,0.9-0.5,1.8-1.5,2.4
					l-14.1,8.2C161.4,250.8,160,251.1,158.7,251.1z M139.7,239.9C139.7,239.9,139.7,239.9,139.7,239.9c0,0.8,0.5,1.5,1.4,2l14,8.1
					c1.9,1.1,5.1,1.1,7.1,0l14.1-8.2c1-0.6,1.5-1.4,1.4-2.2c0-0.1,0-0.2-0.1-0.3l-1.8-8.8c-0.2,0.5-0.6,1-1.3,1.4l-12.6,7.3
					c-1.8,1-4.7,1.1-6.5,0l-12.5-7.2c-0.6-0.4-1.1-0.8-1.3-1.3l-1.8,8.7c0,0,0,0,0,0C139.8,239.5,139.7,239.7,139.7,239.9
					C139.7,239.9,139.7,239.9,139.7,239.9z"/>
				<path class="st3" d="M155.6,220.9l-12.6,7.3c-1.8,1-1.8,2.7,0,3.7l12.5,7.2c1.8,1,4.6,1,6.4,0l12.6-7.3c1.8-1,1.8-2.7,0-3.7
					l-12.5-7.2C160.3,219.8,157.4,219.8,155.6,220.9z"/>
				<path class="st1" d="M158.7,240c-1.2,0-2.4-0.3-3.3-0.8l-12.5-7.2c-0.9-0.5-1.4-1.2-1.4-1.9c0-0.7,0.5-1.4,1.4-2l12.6-7.3
					l0.1,0.1l-0.1-0.1c1.8-1,4.7-1.1,6.5,0l12.5,7.2c0.9,0.5,1.4,1.2,1.4,1.9c0,0.7-0.5,1.4-1.4,2l-12.6,7.3
					C161.1,239.7,159.9,240,158.7,240z M158.9,220.2c-1.1,0-2.3,0.3-3.2,0.8l-12.6,7.3c-0.8,0.5-1.3,1.1-1.3,1.8
					c0,0.7,0.4,1.3,1.3,1.7l12.5,7.2c1.7,1,4.6,1,6.3,0l12.6-7.3c0.8-0.5,1.3-1.1,1.3-1.8c0-0.7-0.4-1.3-1.3-1.7L162,221
					C161.1,220.5,160,220.2,158.9,220.2z"/>
				<path class="st5" d="M158.8,244.6l-18-10.4l-1,5.1c-0.1,0.2-0.1,0.4-0.1,0.6l0,0l0,0c0,0.8,0.5,1.5,1.5,2.1l14,8.1
					c1,0.6,2.3,0.9,3.7,0.9L158.8,244.6L158.8,244.6z"/>
				<g>
					<path class="st1" d="M158.8,251.1c-0.1,0-0.1-0.1-0.1-0.1v-11.1c0-0.1,0.1-0.1,0.1-0.1c0.1,0,0.1,0.1,0.1,0.1v11.1
						C158.9,251,158.9,251.1,158.8,251.1z"/>
				</g>
				<g>
					<path class="st6" d="M158.2,224.7l1.7,1l-8.3,4.8l-1.7-1L158.2,224.7z"/>
				</g>
			</g>
		</g>
		<g>
			<path class="st9" d="M216.8,260.1l-0.8-0.4l-14.4-8.3l-6-3.5c-0.2,0.2-0.4,0.4-0.6,0.6c-1.8,1.6-1.4,1.7-3.3,3.1
				c-2.1,1.5-4.4,2.6-6.7,3.8c-3.5,1.7-7,3.4-10.4,5.3c0.2,1-0.3,2-1.6,2.7l-2.2,1.3c-1.1-0.4-2.5-0.6-3.8-0.5
				c0-0.1,0.1-0.2,0.1-0.3c0.2-0.9-0.3-1.9-1.5-2.6l-24.1-13.9c-1-0.6-2.3-0.9-3.7-0.9c-0.1-0.8-0.6-1.5-1.6-2.1l-17.1-9.6
				c-1.3-0.7-3-1-4.7-0.9c0-0.1,0.1-0.2,0.1-0.3c0.2-0.9-0.3-1.9-1.5-2.6l-24.1-13.9c-2.1-1.2-5.6-1.2-7.7,0l-15.2,8.8
				c-1.1,0.6-1.6,1.4-1.6,2.2c0,0.8,0.5,1.6,1.6,2.3l24.1,13.9c1.3,0.7,3,1,4.7,0.9c-0.1,0.2-0.1,0.4-0.1,0.6c0,0.8,0.5,1.6,1.6,2.3
				l17.1,9.6c1,0.6,2.3,0.9,3.7,0.9c0.1,0.8,0.6,1.5,1.6,2.1l26.8,15.6c1.3,0.7,3,1,4.7,0.9c-0.1,0.2-0.1,0.4-0.1,0.6
				c0,0.8,0.5,1.6,1.6,2.3l3.1,1.5l12.6,7.3c2.1,1.2,5.6,1.2,7.8,0l41.9-24.2C218.9,263.3,218.9,261.3,216.8,260.1z"/>
			<path class="st1" d="M170.9,289.8c-1.4,0-2.8-0.3-3.9-0.9l-12.6-7.3l-3.1-1.5c-1.1-0.6-1.7-1.5-1.7-2.4c0-0.2,0-0.3,0.1-0.5
				c-1.7,0.1-3.4-0.2-4.6-0.9l-26.8-15.6c-1-0.6-1.5-1.3-1.6-2.1c-1.4,0-2.7-0.4-3.6-0.9L96,248.1c-1.1-0.6-1.7-1.5-1.6-2.4
				c0-0.2,0-0.3,0.1-0.5c-1.7,0.1-3.4-0.2-4.6-0.9l-24.1-13.9c-1.1-0.6-1.7-1.5-1.6-2.4c0-0.9,0.6-1.7,1.7-2.3L81,217
				c2.2-1.3,5.7-1.3,7.9,0l24.1,13.9c1.2,0.7,1.8,1.7,1.6,2.7c0,0,0,0.1,0,0.1c1.7-0.1,3.4,0.2,4.6,0.9l17.1,9.6
				c1,0.6,1.5,1.3,1.6,2.1c1.4,0,2.7,0.4,3.6,0.9l24.1,13.9c1.2,0.7,1.8,1.7,1.6,2.7c0,0,0,0.1,0,0.1c1.3-0.1,2.5,0.1,3.6,0.5
				l2.2-1.3c1.2-0.7,1.8-1.6,1.5-2.6c0-0.1,0-0.1,0.1-0.1c2.5-1.4,5.2-2.7,7.7-4c0.9-0.4,1.8-0.9,2.7-1.3c2.3-1.2,4.6-2.3,6.7-3.8
				c1.1-0.8,1.5-1.1,1.9-1.6c0.3-0.4,0.7-0.8,1.4-1.4c0.2-0.2,0.4-0.4,0.6-0.6c0,0,0.1,0,0.1,0l21.2,12.2c1.1,0.6,1.7,1.4,1.7,2.3
				c0,0.9-0.6,1.7-1.7,2.4l-41.9,24.2C173.8,289.5,172.3,289.8,170.9,289.8z M149.9,277C149.9,277,149.9,277,149.9,277
				c0.1,0.1,0.1,0.1,0.1,0.2c-0.1,0.2-0.1,0.4-0.1,0.6c0,0.8,0.5,1.6,1.5,2.1l3.1,1.5l12.6,7.3c2.1,1.2,5.5,1.2,7.7,0l41.9-24.2
				c1-0.6,1.6-1.3,1.6-2.2c0-0.8-0.5-1.6-1.5-2.1l0,0L195.6,248c-0.2,0.2-0.4,0.3-0.6,0.5c-0.7,0.6-1.1,1-1.4,1.4
				c-0.4,0.5-0.8,0.9-1.9,1.7c-2.1,1.5-4.4,2.6-6.7,3.8c-0.9,0.4-1.8,0.9-2.7,1.3c-2.5,1.2-5.1,2.5-7.7,3.9c0.2,1-0.4,2-1.6,2.8
				l-2.2,1.3c0,0-0.1,0-0.1,0c-1.1-0.4-2.4-0.6-3.7-0.4c0,0-0.1,0-0.1,0s0-0.1,0-0.1c0-0.1,0.1-0.2,0.1-0.2c0.2-0.9-0.3-1.8-1.5-2.5
				l-24.1-13.9c-1-0.6-2.2-0.9-3.6-0.9c-0.1,0-0.1-0.1-0.1-0.1c0-0.8-0.6-1.5-1.5-2l-17.1-9.6c-1.2-0.7-2.9-1-4.6-0.9
				c0,0-0.1,0-0.1,0c0,0,0-0.1,0-0.1c0-0.1,0.1-0.2,0.1-0.2c0.2-0.9-0.3-1.8-1.5-2.5l-24.1-13.9c-2.1-1.2-5.5-1.2-7.6,0L65.9,226
				c-1,0.6-1.5,1.3-1.6,2.1c0,0.8,0.5,1.6,1.5,2.1L90,244.1c1.2,0.7,2.9,1,4.6,0.9c0,0,0.1,0,0.1,0c0,0,0,0.1,0,0.1
				c-0.1,0.2-0.1,0.4-0.1,0.6c0,0.8,0.5,1.6,1.5,2.1l17.1,9.6c1,0.6,2.2,0.9,3.6,0.9c0.1,0,0.1,0.1,0.1,0.1c0,0.8,0.6,1.5,1.5,2
				l26.8,15.6C146.4,276.8,148.1,277.2,149.9,277C149.8,277,149.8,277,149.9,277z"/>
			<path class="st10" d="M113,231.8L113,231.8L113,231.8c0-0.1,0-0.2-0.1-0.2l-2.4-9.5l0,0c-0.1,0.6-0.5,1.2-1.3,1.6l-12.6,7.3
				c-1.8,1-4.7,1-6.4,0l-20-11.5c-1-0.6-1.4-1.3-1.3-2l0,0l-2.4,9.5c0,0,0,0,0,0l0,0l0,0c-0.2,0.9,0.3,1.8,1.4,2.5l22.3,12.9
				c2,1.1,5.2,1.1,7.2,0l14.1-8.1C112.6,233.6,113.1,232.7,113,231.8z"/>
			<path class="st1" d="M93.8,243.4c-1.3,0-2.6-0.3-3.6-0.9l-22.3-12.9c-1.2-0.7-1.7-1.6-1.5-2.6c0,0,0,0,0,0l0.1,0l0,0l-0.1,0
				l2.4-9.5c0-0.1,0.1-0.1,0.1-0.1c0.1,0,0.1,0.1,0.1,0.1c-0.1,0.7,0.4,1.4,1.2,1.9l20,11.5c1.7,1,4.6,1,6.3,0l12.6-7.3
				c0.7-0.4,1.2-1,1.3-1.6c0-0.1,0.1-0.1,0.1-0.1l0,0c0.1,0,0.1,0,0.1,0.1l2.4,9.5c0,0.1,0,0.1,0.1,0.2l0,0c0,0,0,0,0,0
				c0.2,0.9-0.4,1.8-1.5,2.5l-14.1,8.1C96.4,243.1,95.1,243.4,93.8,243.4z M66.6,227C66.6,227,66.6,227,66.6,227
				c-0.2,0.9,0.3,1.7,1.4,2.3l22.3,12.9c1.9,1.1,5.1,1.1,7.1,0l14.1-8.1c1-0.6,1.6-1.4,1.4-2.3c0,0,0,0,0,0l0,0c0-0.1,0-0.1-0.1-0.2
				l-2.3-9.1c-0.2,0.5-0.6,1-1.3,1.3l-12.6,7.3c-1.8,1-4.7,1.1-6.5,0l-20-11.5c-0.7-0.4-1.1-0.9-1.3-1.4L66.6,227
				C66.6,227,66.6,227,66.6,227z"/>
			<path class="st3" d="M109.2,220.1l-20-11.5c-1.8-1-4.6-1-6.4,0l-12.6,7.3c-1.8,1-1.8,2.7,0,3.7l20,11.5c1.8,1,4.6,1,6.4,0
				l12.6-7.3C111,222.7,111,221.1,109.2,220.1z"/>
			<path class="st1" d="M93.4,232c-1.2,0-2.4-0.3-3.3-0.8l-20-11.5c-0.9-0.5-1.4-1.2-1.4-1.9c0-0.7,0.5-1.4,1.4-2l12.6-7.3
				c1.8-1,4.7-1.1,6.5,0l20,11.5c0.9,0.5,1.4,1.2,1.4,1.9c0,0.7-0.5,1.4-1.4,2l-12.6,7.3C95.7,231.7,94.5,232,93.4,232z M86.1,207.9
				c-1.1,0-2.3,0.3-3.2,0.8l-12.6,7.3c-0.8,0.5-1.3,1.1-1.3,1.8c0,0.7,0.4,1.3,1.3,1.7l20,11.5c1.7,1,4.6,1,6.3,0l12.6-7.3
				c0.8-0.5,1.3-1.1,1.3-1.8c0-0.7-0.4-1.3-1.3-1.7l-20-11.5C88.3,208.1,87.2,207.9,86.1,207.9z"/>
			<g>
				
					<linearGradient id="SVGID_00000127725467952704148720000012409128012293122700_" gradientUnits="userSpaceOnUse" x1="3185.9402" y1="-4190.3286" x2="3574.4258" y2="-4190.3286" gradientTransform="matrix(0.12 0 0 -0.12 -315.92 -272.48)">
					<stop  offset="0" style="stop-color:#DADCE0"/>
					<stop  offset="1" style="stop-color:#DBDAEF"/>
				</linearGradient>
				<path style="fill:url(#SVGID_00000127725467952704148720000012409128012293122700_);" d="M113,231.8L113,231.8L113,231.8
					c0-0.1,0-0.2-0.1-0.2l-2.4-9.5l0,0c-0.1,0.6-0.5,1.2-1.3,1.6l-12.6,7.3c-1.8,1-4.7,1-6.4,0l-20-11.5c-1-0.6-1.4-1.3-1.3-2l0,0
					l-2.4,9.5c0,0,0,0,0,0l0,0l0,0c-0.2,0.9,0.3,1.8,1.4,2.5l22.3,12.9c2,1.1,5.2,1.1,7.2,0l14.1-8.1
					C112.6,233.6,113.1,232.7,113,231.8z"/>
				<path class="st1" d="M93.8,243.4c-1.3,0-2.6-0.3-3.6-0.9l-22.3-12.9c-1.2-0.7-1.7-1.6-1.5-2.6c0,0,0,0,0,0l0.1,0l0,0l-0.1,0
					l2.4-9.5c0-0.1,0.1-0.1,0.1-0.1c0.1,0,0.1,0.1,0.1,0.1c-0.1,0.7,0.4,1.4,1.2,1.9l20,11.5c1.7,1,4.6,1,6.3,0l12.6-7.3
					c0.7-0.4,1.2-1,1.3-1.6c0-0.1,0.1-0.1,0.1-0.1l0,0c0.1,0,0.1,0,0.1,0.1l2.4,9.5c0,0.1,0,0.1,0.1,0.2l0,0c0,0,0,0,0,0
					c0.2,0.9-0.4,1.8-1.5,2.5l-14.1,8.1C96.4,243.1,95.1,243.4,93.8,243.4z M66.6,227C66.6,227,66.6,227,66.6,227
					c-0.2,0.9,0.3,1.7,1.4,2.3l22.3,12.9c1.9,1.1,5.1,1.1,7.1,0l14.1-8.1c1-0.6,1.6-1.4,1.4-2.3c0,0,0,0,0,0l0,0
					c0-0.1,0-0.1-0.1-0.2l-2.3-9.1c-0.2,0.5-0.6,1-1.3,1.3l-12.6,7.3c-1.8,1-4.7,1.1-6.5,0l-20-11.5c-0.7-0.4-1.1-0.9-1.3-1.4
					L66.6,227C66.6,227,66.6,227,66.6,227z"/>
			</g>
			<g>
				<path class="st1" d="M93.7,243.4c-0.1,0-0.1-0.1-0.1-0.1v-11.4c0-0.1,0.1-0.1,0.1-0.1c0.1,0,0.1,0.1,0.1,0.1v11.4
					C93.9,243.3,93.8,243.4,93.7,243.4z"/>
			</g>
			<g>
				
					<linearGradient id="SVGID_00000036219215897487418750000001193199510738157986_" gradientUnits="userSpaceOnUse" x1="3438.6865" y1="-4318.1675" x2="3758.1953" y2="-4318.1675" gradientTransform="matrix(0.12 0 0 -0.12 -315.92 -272.48)">
					<stop  offset="0" style="stop-color:#DADCE0"/>
					<stop  offset="1" style="stop-color:#DBDAEF"/>
				</linearGradient>
				<path style="fill:url(#SVGID_00000036219215897487418750000001193199510738157986_);" d="M135.1,244.9L135.1,244.9
					c0-0.1,0-0.2-0.1-0.3l-2-9.5l0,0c0,0.7-0.4,1.4-1.3,2l-12.6,7.3c-1.8,1-4.7,1-6.4,0l-12.5-7.2c-0.9-0.5-1.3-1.2-1.3-1.9h0
					l-1.9,9.3c-0.1,0.2-0.1,0.4-0.1,0.6l0,0l0,0c0,0.8,0.5,1.5,1.5,2.1l14,8.1c2,1.1,5.2,1.1,7.2,0l14.1-8.2
					C134.6,246.6,135.1,245.8,135.1,244.9z"/>
				<path class="st1" d="M115.8,256.4c-1.3,0-2.6-0.3-3.6-0.9l-14-8.1c-1-0.6-1.6-1.4-1.5-2.2c0,0,0,0,0,0v0c0-0.2,0-0.4,0.1-0.6
					l1.9-9.3c0,0,0-0.1,0.1-0.1c0,0,0.1,0,0.1,0c0,0,0.1,0.1,0,0.1c0,0.7,0.4,1.3,1.3,1.8l12.5,7.2c1.7,1,4.6,1,6.3,0l12.6-7.3
					c0.9-0.5,1.3-1.2,1.3-1.9c0-0.1,0-0.1,0.1-0.1c0.1,0,0.1,0,0.1,0.1l2,9.5c0,0.1,0.1,0.2,0.1,0.3l0,0c0.1,0.9-0.5,1.8-1.5,2.4
					l-14.1,8.2C118.5,256.1,117.1,256.4,115.8,256.4z M96.8,245.2C96.8,245.2,96.8,245.2,96.8,245.2c0,0.8,0.5,1.5,1.4,2l14,8.1
					c1.9,1.1,5.1,1.1,7.1,0l14.1-8.2c1-0.6,1.5-1.4,1.4-2.2l0,0c0-0.1,0-0.2-0.1-0.3l-1.8-8.8c-0.2,0.5-0.6,1-1.3,1.4l-12.6,7.3
					c-1.8,1-4.7,1.1-6.5,0l-12.5-7.2c-0.6-0.4-1.1-0.8-1.3-1.3l-1.8,8.7c0,0,0,0,0,0C96.9,244.8,96.9,245,96.8,245.2
					C96.8,245.2,96.8,245.2,96.8,245.2z"/>
				<g>
					<path class="st3" d="M112.7,226.2l-12.6,7.3c-1.8,1-1.8,2.7,0,3.7l12.5,7.2c1.8,1,4.6,1,6.4,0l12.6-7.3c1.8-1,1.8-2.7,0-3.7
						l-12.5-7.2C117.4,225.1,114.5,225.1,112.7,226.2z"/>
					<path class="st1" d="M115.8,245.3c-1.2,0-2.4-0.3-3.3-0.8l-12.5-7.2c-0.9-0.5-1.4-1.2-1.4-1.9c0-0.7,0.5-1.4,1.4-2l12.6-7.3
						c1.8-1,4.7-1.1,6.5,0l12.5,7.2c0.9,0.5,1.4,1.2,1.4,1.9c0,0.7-0.5,1.4-1.4,2l-12.6,7.3C118.2,245,117,245.3,115.8,245.3z
						 M112.8,226.3l-12.6,7.3c-0.8,0.5-1.3,1.1-1.3,1.8c0,0.7,0.4,1.3,1.3,1.7l12.5,7.2c1.7,1,4.6,1,6.3,0l12.6-7.3
						c0.8-0.5,1.3-1.1,1.3-1.8c0-0.7-0.4-1.3-1.3-1.7l-12.5-7.2C117.4,225.3,114.5,225.3,112.8,226.3L112.8,226.3z M112.7,226.2
						L112.7,226.2L112.7,226.2z"/>
				</g>
				<g>
					<path class="st1" d="M115.9,256.4c-0.1,0-0.1-0.1-0.1-0.1v-11.1c0-0.1,0.1-0.1,0.1-0.1c0.1,0,0.1,0.1,0.1,0.1v11.1
						C116,256.3,116,256.4,115.9,256.4z"/>
				</g>
			</g>
			<g>
				
					<linearGradient id="SVGID_00000077303344716424867860000011142698711575138223_" gradientUnits="userSpaceOnUse" x1="3630.0901" y1="-4448.7886" x2="4018.5562" y2="-4448.7886" gradientTransform="matrix(0.12 0 0 -0.12 -315.92 -272.48)">
					<stop  offset="0" style="stop-color:#DADCE0"/>
					<stop  offset="1" style="stop-color:#DBDAEF"/>
				</linearGradient>
				<path style="fill:url(#SVGID_00000077303344716424867860000011142698711575138223_);" d="M166.3,262.9L166.3,262.9L166.3,262.9
					c0-0.1,0-0.2-0.1-0.2l-2.4-9.5l0,0c-0.1,0.6-0.5,1.2-1.3,1.6l-12.6,7.3c-1.8,1-4.7,1-6.4,0l-20-11.5c-1-0.6-1.4-1.3-1.3-2l0,0
					l-2.4,9.5c0,0,0,0,0,0l0,0l0,0c-0.2,0.9,0.3,1.8,1.4,2.5l22.3,12.9c2,1.1,5.2,1.1,7.2,0l14.1-8.1
					C165.9,264.6,166.4,263.7,166.3,262.9z"/>
				<path class="st1" d="M147.1,274.4c-1.3,0-2.6-0.3-3.6-0.9l-22.3-12.9c-1.2-0.7-1.7-1.6-1.5-2.6c0,0,0,0,0,0l0,0l2.4-9.5
					c0-0.1,0.1-0.1,0.1-0.1c0.1,0,0.1,0.1,0.1,0.1c-0.1,0.7,0.4,1.4,1.2,1.9l20,11.5c1.7,1,4.6,1,6.3,0l12.6-7.3
					c0.7-0.4,1.2-1,1.3-1.6c0-0.1,0.1-0.1,0.1-0.1l0,0c0.1,0,0.1,0,0.1,0.1l2.4,9.5c0,0.1,0,0.1,0.1,0.2l0,0c0,0,0,0,0,0
					c0.2,0.9-0.4,1.8-1.5,2.5l-14.1,8.1C149.7,274.1,148.4,274.4,147.1,274.4z M119.9,258C119.9,258,119.9,258,119.9,258
					c-0.2,0.9,0.3,1.7,1.4,2.3l22.3,12.9c1.9,1.1,5.1,1.1,7.1,0l14.1-8.1c1-0.6,1.6-1.4,1.4-2.3c0,0,0,0,0,0l0,0
					c0-0.1,0-0.2-0.1-0.2l-2.3-9.1c-0.2,0.5-0.6,1-1.3,1.3l-12.6,7.3c-1.8,1-4.7,1.1-6.5,0l-20-11.5c-0.7-0.4-1.1-0.9-1.3-1.4
					L119.9,258z"/>
				<path class="st3" d="M162.5,251.1l-20-11.5c-1.8-1-4.6-1-6.4,0l-12.6,7.3c-1.8,1-1.8,2.7,0,3.7l20,11.5c1.8,1,4.6,1,6.4,0
					l12.6-7.3C164.3,253.8,164.3,252.1,162.5,251.1z"/>
				<path class="st1" d="M146.6,263c-1.2,0-2.4-0.3-3.3-0.8l-20-11.5c-0.9-0.5-1.4-1.2-1.4-1.9c0-0.7,0.5-1.4,1.4-2l12.6-7.3
					c1.8-1,4.7-1.1,6.5,0l20,11.5c0.9,0.5,1.4,1.2,1.4,1.9c0,0.7-0.5,1.4-1.4,2l-12.6,7.3C149,262.7,147.8,263,146.6,263z
					 M139.3,238.9c-1.1,0-2.3,0.3-3.2,0.8l-12.6,7.3c-0.8,0.5-1.3,1.1-1.3,1.8c0,0.7,0.4,1.3,1.3,1.7l20,11.5c1.7,1,4.6,1,6.3,0
					l12.6-7.3c0.8-0.5,1.3-1.1,1.3-1.8c0-0.7-0.4-1.3-1.3-1.7l-20-11.5C141.6,239.1,140.5,238.9,139.3,238.9z"/>
				<g>
					<path class="st14" d="M137.7,240.6l2.3,1.3l-1.9,1.1l-2.3-1.3L137.7,240.6z"/>
					<path class="st1" d="M138,243.2C138,243.2,137.9,243.2,138,243.2l-2.3-1.3c0,0-0.1-0.1-0.1-0.1s0-0.1,0.1-0.1l1.9-1.1
						c0,0,0.1,0,0.1,0l2.3,1.3c0,0,0.1,0.1,0.1,0.1s0,0.1-0.1,0.1L138,243.2C138,243.2,138,243.2,138,243.2z M136,241.8l2,1.2l1.7-1
						l-2-1.2L136,241.8z"/>
					<path class="st14" d="M142.1,243.2l2.3,1.3l-1.9,1.1l-2.3-1.3L142.1,243.2z"/>
					<path class="st1" d="M142.5,245.8C142.5,245.8,142.4,245.8,142.5,245.8l-2.3-1.3c0,0-0.1-0.1-0.1-0.1c0,0,0-0.1,0.1-0.1
						l1.9-1.1c0,0,0.1,0,0.1,0l2.3,1.3c0,0,0.1,0.1,0.1,0.1s0,0.1-0.1,0.1L142.5,245.8C142.5,245.8,142.5,245.8,142.5,245.8z
						 M140.5,244.3l2,1.2l1.7-1l-2-1.2L140.5,244.3z"/>
					<g>
						<path class="st14" d="M146.6,245.8l2.3,1.3l-1.9,1.1l-2.3-1.3L146.6,245.8z"/>
						<path class="st1" d="M147,248.4C146.9,248.4,146.9,248.4,147,248.4l-2.3-1.3c0,0-0.1-0.1-0.1-0.1s0-0.1,0.1-0.1l1.9-1.1
							c0,0,0.1,0,0.1,0l2.3,1.3c0,0,0.1,0.1,0.1,0.1s0,0.1-0.1,0.1L147,248.4C147,248.4,147,248.4,147,248.4z M144.9,246.9l2,1.2
							l1.7-1l-2-1.2L144.9,246.9z"/>
					</g>
				</g>
				<g>
					<path class="st1" d="M147,274.4c-0.1,0-0.1-0.1-0.1-0.1v-11.4c0-0.1,0.1-0.1,0.1-0.1s0.1,0.1,0.1,0.1v11.4
						C147.1,274.3,147.1,274.4,147,274.4z"/>
				</g>
			</g>
		</g>
		<g>
			
				<linearGradient id="SVGID_00000137121145184973843980000015610153749874750610_" gradientUnits="userSpaceOnUse" x1="3894.4722" y1="-4517.4888" x2="4428.9951" y2="-4517.4888" gradientTransform="matrix(0.12 0 0 -0.12 -315.92 -272.48)">
				<stop  offset="0" style="stop-color:#DADCE0"/>
				<stop  offset="1" style="stop-color:#DBDAEF"/>
			</linearGradient>
			<path style="fill:url(#SVGID_00000137121145184973843980000015610153749874750610_);" d="M215.6,261.9L215.6,261.9L215.6,261.9
				c0-0.1,0-0.2-0.1-0.4l-1.9-10.1l0,0c0.1,0.7-0.4,1.4-1.3,2l-38.6,23.2c-1.8,1-4.7,1-6.4,0l-12.5-7.2c-0.9-0.5-1.4-1.2-1.3-2l0,0
				l-1.9,9.5l0,0c-0.2,0.8,0.3,1.7,1.4,2.3l13.6,7.8c1.9,1.1,5,1.1,7,0l40.7-22.9C215.1,263.5,215.6,262.7,215.6,261.9z"/>
			<path class="st1" d="M169.9,287.9c-1.3,0-2.5-0.3-3.5-0.8l-13.6-7.8c-1.1-0.6-1.6-1.5-1.5-2.4l1.9-9.5c0-0.1,0.1-0.1,0.1-0.1
				c0.1,0,0.1,0.1,0.1,0.1c0,0.7,0.4,1.4,1.3,1.8l12.5,7.2c1.7,1,4.6,1,6.3,0l38.6-23.2c0.9-0.5,1.3-1.2,1.3-1.9
				c0-0.1,0-0.1,0.1-0.1c0.1,0,0.1,0,0.1,0.1l1.9,10.1c0,0.1,0.1,0.3,0.1,0.4v0c0.1,0.8-0.5,1.7-1.5,2.3l-40.7,22.9
				C172.5,287.7,171.2,287.9,169.9,287.9z M153.3,268.1l-1.8,8.8c-0.2,0.8,0.3,1.6,1.3,2.2l13.6,7.8c1.9,1.1,4.9,1.1,6.8,0L214,264
				c0.9-0.5,1.4-1.3,1.4-2c0,0,0,0,0,0v0c0-0.1,0-0.2-0.1-0.3c0,0,0,0,0,0l-1.8-9.4c-0.2,0.5-0.6,1-1.3,1.4l-38.6,23.2
				c-1.8,1-4.7,1.1-6.5,0l-12.5-7.2C154,269.1,153.5,268.6,153.3,268.1z"/>
			
				<linearGradient id="SVGID_00000171698331714453914850000000903662645025793468_" gradientUnits="userSpaceOnUse" x1="3996.802" y1="-4357.2417" x2="4095.6245" y2="-4357.2417" gradientTransform="matrix(0.12 0 0 -0.12 -315.92 -272.48)">
				<stop  offset="0" style="stop-color:#DADCE0"/>
				<stop  offset="1" style="stop-color:#DBDAEF"/>
			</linearGradient>
			<path style="fill:url(#SVGID_00000171698331714453914850000000903662645025793468_);" d="M165.1,255.6l2.7,1.6l6.4-3.7
				c1.8-1,1.8-2.7,0-3.7l-7.2-4.2c-0.9-0.5-1.4-1.3-1.3-2l0,0l-2,9.7c0,0,0,0,0,0l0,0l0,0C163.6,254.2,164.1,255,165.1,255.6z"/>
			<path class="st1" d="M167.8,257.3C167.8,257.3,167.8,257.3,167.8,257.3l-2.8-1.6c-1.1-0.6-1.6-1.5-1.5-2.4c0,0,0,0,0,0
				c0,0,0,0,0,0l0,0l2-9.7c0,0,0-0.1,0.1-0.1c0,0,0.1,0,0.1,0c0.1,0,0.1,0.1,0.1,0.1c-0.1,0.7,0.4,1.4,1.3,1.9l7.2,4.2
				c0.9,0.5,1.4,1.2,1.4,1.9c0,0.7-0.5,1.4-1.4,2L167.8,257.3C167.9,257.3,167.8,257.3,167.8,257.3z M165.2,255.5l2.6,1.5l6.3-3.7
				c0.8-0.5,1.3-1.1,1.3-1.8c0-0.7-0.4-1.3-1.3-1.7l-7.2-4.2c-0.7-0.4-1.1-0.9-1.3-1.4l-1.8,9c0,0,0,0,0,0
				C163.7,254.2,164.2,254.9,165.2,255.5L165.2,255.5z"/>
			<path class="st5" d="M165.1,255.6l2.9,1.7l6.2-3.8c0.1-0.1,0.2-0.1,0.3-0.2l-9.7-5.6l-1.1,5.6c0,0,0,0,0,0l0,0l0,0
				C163.6,254.2,164.1,255,165.1,255.6z"/>
			<g>
				<path class="st3" d="M212.3,249.7l-0.6-0.4l-11.9-6.9l-13.6-7.9c-1.8-1-4.6-1-6.4,0l-12.6,7.3c-1.8,1-1.8,2.7,0,3.7l7.2,4.2
					c1.8,1,1.8,2.7,0,3.7l-19.5,12.2c-1.8,1-1.8,2.7,0,3.7l12.5,7.2c1.8,1,4.6,1,6.4,0l38.6-23.2C214,252.4,214,250.7,212.3,249.7z"
					/>
				<path class="st1" d="M170.4,277.5c-1.2,0-2.4-0.3-3.3-0.8l-12.5-7.2c-0.9-0.5-1.4-1.2-1.4-1.9c0-0.7,0.5-1.4,1.4-2l19.5-12.2
					c0.8-0.5,1.3-1.1,1.3-1.8c0-0.7-0.4-1.3-1.3-1.7l-7.2-4.2c-0.9-0.5-1.4-1.2-1.4-1.9c0-0.7,0.5-1.4,1.4-2l12.6-7.3
					c1.8-1,4.7-1.1,6.5,0l26.2,15.1c0.9,0.5,1.4,1.2,1.4,1.9c0,0.7-0.5,1.4-1.4,2l-38.6,23.2C172.8,277.2,171.6,277.5,170.4,277.5z
					 M182.9,233.9c-1.1,0-2.3,0.3-3.2,0.8l-12.6,7.3c-0.8,0.5-1.3,1.1-1.3,1.8c0,0.7,0.4,1.3,1.3,1.7l7.2,4.2
					c0.9,0.5,1.4,1.2,1.4,1.9c0,0.7-0.5,1.4-1.4,2l-19.5,12.2c-0.8,0.5-1.3,1.1-1.3,1.8c0,0.7,0.4,1.3,1.3,1.7l12.5,7.2
					c1.7,1,4.6,1,6.3,0l38.6-23.2c0.8-0.5,1.3-1.1,1.3-1.8c0-0.7-0.4-1.3-1.3-1.7L186,234.7C185.2,234.2,184,233.9,182.9,233.9z"/>
			</g>
			<path class="st1" d="M170.2,277.2c-0.1,0-0.1,0.1-0.1,0.1v10.5c0,0.1,0.1,0.1,0.1,0.1c0.1,0,0.1-0.1,0.1-0.1v-10.5
				C170.3,277.3,170.3,277.2,170.2,277.2z"/>
			<g>
				
					<linearGradient id="SVGID_00000123404056678929803800000003022721726017014685_" gradientUnits="userSpaceOnUse" x1="3894.4722" y1="-4517.4888" x2="4428.9951" y2="-4517.4888" gradientTransform="matrix(0.12 0 0 -0.12 -315.92 -272.48)">
					<stop  offset="0" style="stop-color:#DADCE0"/>
					<stop  offset="1" style="stop-color:#DBDAEF"/>
				</linearGradient>
				<path style="fill:url(#SVGID_00000123404056678929803800000003022721726017014685_);" d="M215.6,261.9L215.6,261.9L215.6,261.9
					c0-0.1,0-0.2-0.1-0.4l-1.9-10.1l0,0c0.1,0.7-0.4,1.4-1.3,2l-38.6,23.2c-1.8,1-4.7,1-6.4,0l-12.5-7.2c-0.9-0.5-1.4-1.2-1.3-2l0,0
					l-1.9,9.5l0,0c-0.2,0.8,0.3,1.7,1.4,2.3l13.6,7.8c1.9,1.1,5,1.1,7,0l40.7-22.9C215.1,263.5,215.6,262.7,215.6,261.9z"/>
				<path class="st1" d="M169.9,287.9c-1.3,0-2.5-0.3-3.5-0.8l-13.6-7.8c-1.1-0.6-1.6-1.5-1.5-2.4l1.9-9.5c0-0.1,0.1-0.1,0.1-0.1
					c0.1,0,0.1,0.1,0.1,0.1c0,0.7,0.4,1.4,1.3,1.8l12.5,7.2c1.7,1,4.6,1,6.3,0l38.6-23.2c0.9-0.5,1.3-1.2,1.3-1.9
					c0-0.1,0-0.1,0.1-0.1c0.1,0,0.1,0,0.1,0.1l1.9,10.1c0,0.1,0.1,0.3,0.1,0.4v0c0.1,0.8-0.5,1.7-1.5,2.3l-40.7,22.9
					C172.5,287.7,171.2,287.9,169.9,287.9z M153.3,268.1l-1.8,8.8c-0.2,0.8,0.3,1.6,1.3,2.2l13.6,7.8c1.9,1.1,4.9,1.1,6.8,0L214,264
					c0.9-0.5,1.4-1.3,1.4-2c0,0,0,0,0,0v0c0-0.1,0-0.2-0.1-0.3c0,0,0,0,0,0l-1.8-9.4c-0.2,0.5-0.6,1-1.3,1.4l-38.6,23.2
					c-1.8,1-4.7,1.1-6.5,0l-12.5-7.2C154,269.1,153.5,268.6,153.3,268.1z"/>
				<path class="st3" d="M212.3,249.7l-0.6-0.4l-11.9-6.9l-13.6-7.9c-1.8-1-4.6-1-6.4,0l-12.6,7.3c-1.8,1-1.8,2.7,0,3.7l7.2,4.2
					c1.8,1,1.8,2.7,0,3.7l-19.5,12.2c-1.8,1-1.8,2.7,0,3.7l12.5,7.2c1.8,1,4.6,1,6.4,0l38.6-23.2C214,252.4,214,250.7,212.3,249.7z"
					/>
				<path class="st1" d="M170.4,277.5c-1.2,0-2.4-0.3-3.3-0.8l-12.5-7.2c-0.9-0.5-1.4-1.2-1.4-1.9c0-0.7,0.5-1.4,1.4-2l19.5-12.2
					c0.8-0.5,1.3-1.1,1.3-1.8c0-0.7-0.4-1.3-1.3-1.7l-7.2-4.2c-0.9-0.5-1.4-1.2-1.4-1.9c0-0.7,0.5-1.4,1.4-2l12.6-7.3
					c1.8-1,4.7-1.1,6.5,0l26.2,15.1c0.9,0.5,1.4,1.2,1.4,1.9c0,0.7-0.5,1.4-1.4,2l-38.6,23.2C172.8,277.2,171.6,277.5,170.4,277.5z
					 M182.9,233.9c-1.1,0-2.3,0.3-3.2,0.8l-12.6,7.3c-0.8,0.5-1.3,1.1-1.3,1.8c0,0.7,0.4,1.3,1.3,1.7l7.2,4.2
					c0.9,0.5,1.4,1.2,1.4,1.9c0,0.7-0.5,1.4-1.4,2l-19.5,12.2c-0.8,0.5-1.3,1.1-1.3,1.8c0,0.7,0.4,1.3,1.3,1.7l12.5,7.2
					c1.7,1,4.6,1,6.3,0l38.6-23.2c0.8-0.5,1.3-1.1,1.3-1.8c0-0.7-0.4-1.3-1.3-1.7L186,234.7C185.2,234.2,184,233.9,182.9,233.9z"/>
				<path class="st18" d="M191.4,244.9c0.2,0.2,0.4,0.4,0.6,0.6c0.2,0.3,0.5,0.5,1.1,0.4c0.3,0,0.6,0,0.8,0c0.5,0.1,0.7,0,0.9-0.2
					c0.9-0.7,1-0.8,2.4-0.4c0.4,0.1,0.8,0.2,1.2,0.4c0.6,0.2,0.8,0.5,0.5,0.8c-0.4,0.5-0.2,0.8,0.3,1.2c0.6,0.4,1,0.5,1.8,0.4
					c0.8-0.1,1.2,0,1.5,0.5c0.2,0.3,0.4,0.7,0.6,1c0.2,0.4,0.1,0.7-0.6,0.8c-0.9,0.2-1.2,0.5-1.3,1c-0.1,0.5,0.1,0.7,0.8,0.9
					c0.9,0.3,0.9,0.5,0.5,1c-0.3,0.3-0.5,0.6-0.8,0.9c-0.4,0.4-0.7,0.5-1.4,0.3c-0.3-0.1-0.7-0.1-1-0.2c-0.2-0.1-0.4,0-0.6,0.1
					c-0.3,0.2-0.7,0.3-1,0.5c-0.3,0.1-0.4,0.2-0.3,0.4c0.1,0.2,0.2,0.4,0.2,0.6c0.1,0.3-0.2,0.6-0.7,0.7c-0.7,0.1-1.4,0.3-2.1,0.4
					c-0.6,0.1-1.1,0-1.3-0.3c-0.3-0.6-0.9-0.8-1.9-0.8c-0.5,0-0.8,0-1.1,0.3c-0.8,0.8-1,0.8-2.4,0.4c-0.4-0.1-0.8-0.2-1.2-0.4
					c-0.6-0.2-0.7-0.4-0.5-0.7c0.1-0.2,0.2-0.4,0.3-0.6c0.1-0.2,0.1-0.3-0.2-0.4c-0.3-0.1-0.6-0.3-0.7-0.5c-0.3-0.3-0.6-0.3-1.1-0.2
					c-1.5,0.2-1.6,0.1-2.1-0.7c-0.1-0.3-0.3-0.5-0.4-0.8c-0.2-0.4,0-0.7,0.6-0.8c0.9-0.2,1.1-0.5,1.2-1c0.1-0.5-0.1-0.8-0.9-1.1
					c-0.6-0.2-0.7-0.5-0.4-0.8c0.3-0.4,0.6-0.7,1-1.1c0.3-0.3,0.8-0.5,1.4-0.3c0.8,0.2,1.3,0.1,2-0.2c0.7-0.3,1-0.6,0.7-1.1
					c-0.2-0.3,0.1-0.6,0.7-0.7c0.7-0.1,1.4-0.3,2.2-0.4C190.8,244.8,191.1,244.9,191.4,244.9z M196,251.9c1-1.1,0.3-2.4-1.6-3
					c-1.9-0.5-4.2-0.1-5.2,1c-0.9,1.1-0.2,2.4,1.6,2.9C192.7,253.4,195,253,196,251.9z"/>
				<path class="st1" d="M194.4,257.2c-0.5,0-0.8-0.2-1-0.4c-0.3-0.5-0.8-0.8-1.8-0.7c-0.5,0-0.8,0-1,0.3c-0.9,0.8-1.1,0.8-2.5,0.4
					c-0.1,0-0.3-0.1-0.4-0.1c-0.3-0.1-0.6-0.2-0.9-0.3c-0.4-0.1-0.6-0.3-0.7-0.4c-0.1-0.1,0-0.3,0-0.5c0.1-0.2,0.2-0.4,0.4-0.6
					c0,0,0-0.1,0-0.1c0,0,0,0-0.2-0.1c-0.3-0.2-0.6-0.3-0.8-0.5c-0.2-0.2-0.5-0.3-1-0.2c-1.5,0.2-1.7,0.1-2.2-0.8
					c0-0.1-0.1-0.2-0.1-0.2c-0.1-0.2-0.2-0.4-0.3-0.5c-0.1-0.3-0.1-0.4,0-0.5c0.1-0.2,0.3-0.3,0.7-0.4c0.9-0.2,1-0.4,1.1-0.9
					c0.1-0.5,0-0.7-0.8-0.9c-0.3-0.1-0.5-0.3-0.6-0.5c0-0.1,0-0.3,0.2-0.6c0.3-0.4,0.6-0.7,1-1.1c0.4-0.4,0.9-0.5,1.5-0.3
					c0.7,0.2,1.2,0.2,1.9-0.2c0.4-0.2,0.7-0.4,0.7-0.6c0-0.1,0-0.2-0.1-0.4c-0.1-0.2-0.1-0.3,0-0.4c0.1-0.2,0.4-0.4,0.8-0.4
					c0.7-0.2,1.5-0.3,2.2-0.4c0.2,0,0.4,0,0.6,0c0.1,0,0.2,0,0.3,0h0l0,0c0.1,0.1,0.1,0.1,0.2,0.2c0.2,0.1,0.3,0.3,0.4,0.4
					c0.2,0.3,0.4,0.4,1,0.4c0.3,0,0.6,0,0.9,0c0.4,0.1,0.6,0,0.8-0.2c0.9-0.8,1.1-0.8,2.5-0.4c0.1,0,0.2,0.1,0.4,0.1
					c0.3,0.1,0.6,0.2,0.9,0.3c0.4,0.1,0.7,0.3,0.7,0.5c0,0.2,0,0.3-0.2,0.5c-0.1,0.2-0.2,0.3-0.2,0.4c0,0.2,0.2,0.3,0.5,0.6
					c0.5,0.4,1,0.5,1.7,0.3c0.8-0.1,1.3,0,1.6,0.5c0.2,0.4,0.4,0.7,0.6,1c0.1,0.2,0.1,0.4,0.1,0.6c-0.1,0.2-0.3,0.3-0.8,0.4
					c-0.9,0.2-1.1,0.5-1.2,0.9c0,0.4,0,0.6,0.7,0.8c0.5,0.2,0.8,0.3,0.8,0.5c0.1,0.2-0.1,0.5-0.3,0.7l-0.2,0.2
					c-0.2,0.2-0.4,0.5-0.6,0.7c-0.4,0.4-0.8,0.5-1.5,0.4c-0.3-0.1-0.7-0.1-1-0.2c-0.2-0.1-0.3,0-0.5,0.1c-0.4,0.2-0.7,0.4-1,0.5
					c-0.2,0.1-0.2,0.1-0.2,0.1c0,0,0,0,0,0.1c0.1,0.2,0.2,0.4,0.2,0.6c0,0.2,0,0.3-0.1,0.4c-0.1,0.2-0.4,0.3-0.7,0.4
					c-0.7,0.1-1.4,0.3-2.1,0.4C194.7,257.1,194.6,257.2,194.4,257.2z M191.8,255.7c1,0,1.5,0.3,1.9,0.9c0.1,0.3,0.6,0.4,1.2,0.3
					c0.7-0.1,1.4-0.2,2.1-0.4c0.3-0.1,0.5-0.2,0.6-0.3c0-0.1,0.1-0.2,0-0.2c0-0.2-0.1-0.4-0.2-0.6c-0.1-0.1-0.1-0.2,0-0.3
					c0-0.1,0.2-0.2,0.4-0.3c0.3-0.1,0.7-0.3,1-0.5c0.2-0.1,0.4-0.2,0.7-0.1c0.3,0.1,0.7,0.1,1,0.2c0.7,0.1,1,0,1.3-0.3
					c0.2-0.2,0.4-0.5,0.6-0.7l0.2-0.2c0.2-0.2,0.3-0.4,0.2-0.5c0-0.1-0.2-0.2-0.7-0.4c-0.7-0.2-1-0.5-0.9-1.1c0.1-0.7,0.5-1,1.4-1.2
					c0.3-0.1,0.5-0.2,0.6-0.3c0-0.1,0-0.2,0-0.4c-0.2-0.3-0.3-0.6-0.6-1c-0.2-0.4-0.5-0.6-1.3-0.4c-0.8,0.1-1.3,0-1.9-0.4
					c-0.4-0.3-0.6-0.5-0.6-0.7c0-0.2,0.1-0.4,0.3-0.6c0.1-0.1,0.1-0.2,0.1-0.3c0-0.1-0.1-0.2-0.6-0.4c-0.3-0.1-0.6-0.2-0.9-0.3
					c-0.1,0-0.2-0.1-0.4-0.1c-1.3-0.4-1.4-0.4-2.3,0.3c-0.2,0.2-0.5,0.4-1,0.3c-0.2,0-0.5-0.1-0.8,0c-0.6,0.1-1-0.1-1.2-0.5
					c-0.1-0.1-0.2-0.2-0.3-0.4c-0.1-0.1-0.1-0.1-0.2-0.2c-0.1,0-0.2,0-0.3,0c-0.2,0-0.4,0-0.5,0c-0.7,0.1-1.4,0.2-2.1,0.4
					c-0.3,0.1-0.5,0.2-0.6,0.3c0,0.1,0,0.1,0,0.2c0.1,0.2,0.1,0.4,0.1,0.6c-0.1,0.3-0.3,0.5-0.9,0.7c-0.7,0.3-1.2,0.4-2.1,0.2
					c-0.5-0.1-1,0-1.2,0.3c-0.3,0.4-0.6,0.7-0.9,1.1c-0.1,0.1-0.2,0.2-0.1,0.3c0,0.1,0.2,0.2,0.4,0.3c0.8,0.2,1.1,0.5,1,1.2
					c-0.1,0.6-0.3,0.9-1.3,1.1c-0.3,0.1-0.5,0.1-0.5,0.3c0,0.1,0,0.2,0,0.3c0.1,0.2,0.2,0.4,0.3,0.5c0,0.1,0.1,0.2,0.1,0.2
					c0.4,0.8,0.5,0.8,2,0.6c0.5-0.1,0.9,0,1.2,0.3c0.2,0.2,0.4,0.3,0.7,0.5c0.1,0.1,0.3,0.1,0.3,0.3c0,0.1,0,0.2-0.1,0.3
					c-0.1,0.2-0.2,0.3-0.3,0.5c-0.1,0.1-0.1,0.2,0,0.3c0,0.1,0.2,0.2,0.5,0.3c0.3,0.1,0.6,0.2,0.9,0.3c0.1,0,0.3,0.1,0.4,0.1
					c1.4,0.4,1.5,0.4,2.3-0.3c0.3-0.3,0.7-0.3,1.2-0.3C191.7,255.7,191.7,255.7,191.8,255.7z M192.6,253.2c-0.6,0-1.2-0.1-1.8-0.3
					c-1.1-0.3-1.9-1-2.1-1.7c-0.1-0.5,0-1,0.4-1.5c1-1.1,3.4-1.6,5.3-1c1.1,0.3,1.9,0.9,2.1,1.7c0.1,0.5,0,1-0.4,1.5
					C195.4,252.8,194,253.2,192.6,253.2z M192.7,248.8c-1.4,0-2.7,0.4-3.4,1.2c-0.3,0.4-0.5,0.8-0.3,1.2c0.2,0.7,0.9,1.2,1.9,1.5
					c1.8,0.5,4.1,0.1,5-0.9l0,0c0.4-0.4,0.5-0.8,0.4-1.3c-0.2-0.6-0.9-1.2-1.9-1.5C193.8,248.9,193.2,248.8,192.7,248.8z"/>
				<g>
					<path class="st18" d="M180.9,256.2c0.1,0.1,0.3,0.2,0.3,0.3c0.1,0.2,0.3,0.3,0.7,0.3c0.2,0,0.3,0,0.5,0c0.3,0.1,0.4,0,0.5-0.1
						c0.5-0.4,0.6-0.5,1.4-0.2c0.2,0.1,0.5,0.1,0.7,0.2c0.4,0.1,0.5,0.3,0.3,0.5c-0.2,0.3-0.1,0.5,0.2,0.7c0.3,0.2,0.6,0.3,1.1,0.2
						c0.5-0.1,0.7,0,0.9,0.3c0.1,0.2,0.2,0.4,0.3,0.6c0.1,0.2,0,0.4-0.4,0.5c-0.6,0.1-0.7,0.3-0.8,0.6c0,0.3,0.1,0.4,0.5,0.6
						c0.5,0.2,0.5,0.3,0.3,0.6c-0.2,0.2-0.3,0.4-0.5,0.5c-0.2,0.2-0.4,0.3-0.8,0.2c-0.2,0-0.4-0.1-0.6-0.1c-0.1,0-0.2,0-0.3,0
						c-0.2,0.1-0.4,0.2-0.6,0.3c-0.2,0.1-0.2,0.1-0.2,0.2c0.1,0.1,0.1,0.2,0.1,0.3c0,0.2-0.1,0.3-0.4,0.4c-0.4,0.1-0.8,0.2-1.2,0.2
						c-0.4,0.1-0.7,0-0.8-0.2c-0.2-0.3-0.5-0.5-1.1-0.5c-0.3,0-0.5,0-0.6,0.2c-0.5,0.5-0.6,0.5-1.4,0.2c-0.2-0.1-0.5-0.1-0.7-0.2
						c-0.3-0.1-0.4-0.2-0.3-0.4c0.1-0.1,0.1-0.2,0.2-0.3c0.1-0.1,0-0.2-0.1-0.2c-0.2-0.1-0.3-0.2-0.4-0.3c-0.2-0.2-0.4-0.2-0.6-0.1
						c-0.9,0.1-1,0.1-1.2-0.4c-0.1-0.2-0.2-0.3-0.3-0.5c-0.1-0.2,0-0.4,0.3-0.5c0.5-0.1,0.7-0.3,0.7-0.6c0-0.3,0-0.5-0.5-0.6
						c-0.3-0.1-0.4-0.3-0.2-0.5c0.2-0.2,0.4-0.4,0.6-0.6c0.2-0.2,0.5-0.3,0.8-0.2c0.5,0.1,0.8,0.1,1.2-0.1c0.4-0.2,0.6-0.4,0.4-0.7
						c-0.1-0.2,0.1-0.3,0.4-0.4c0.4-0.1,0.8-0.2,1.3-0.2C180.5,256.2,180.7,256.2,180.9,256.2z M183.6,260.4c0.6-0.6,0.1-1.4-1-1.8
						c-1.1-0.3-2.5-0.1-3.1,0.6c-0.6,0.6-0.1,1.4,1,1.7C181.7,261.3,183,261,183.6,260.4z"/>
					<path class="st1" d="M182.7,263.6c-0.3,0-0.5-0.1-0.6-0.3c-0.2-0.3-0.5-0.4-1-0.4c-0.3,0-0.4,0-0.6,0.1
						c-0.5,0.5-0.7,0.5-1.5,0.3l-0.2-0.1c-0.2-0.1-0.3-0.1-0.5-0.2c-0.2-0.1-0.4-0.2-0.4-0.3c0-0.1,0-0.2,0-0.3
						c0.1-0.1,0.1-0.2,0.2-0.4c0,0,0,0-0.1,0c-0.2-0.1-0.4-0.2-0.5-0.3c-0.1-0.1-0.3-0.1-0.5-0.1c-0.9,0.1-1,0.1-1.4-0.5l-0.1-0.1
						c-0.1-0.1-0.1-0.2-0.2-0.3c-0.1-0.2-0.1-0.3,0-0.4c0.1-0.1,0.2-0.2,0.5-0.3c0.5-0.1,0.6-0.3,0.6-0.5c0-0.2,0-0.4-0.4-0.5
						c-0.2-0.1-0.3-0.2-0.4-0.3c0-0.1,0-0.2,0.1-0.4c0.2-0.2,0.4-0.4,0.6-0.6c0.2-0.2,0.6-0.3,0.9-0.2c0.4,0.1,0.7,0.1,1.1-0.1
						c0.2-0.1,0.4-0.2,0.4-0.3c0,0,0-0.1,0-0.2c-0.1-0.1,0-0.2,0-0.3c0.1-0.1,0.2-0.2,0.5-0.3c0.4-0.1,0.9-0.2,1.3-0.2
						c0.1,0,0.2,0,0.3,0c0.1,0,0.1,0,0.2,0h0l0,0c0,0,0.1,0.1,0.1,0.1c0.1,0.1,0.2,0.2,0.2,0.3c0.1,0.1,0.2,0.2,0.6,0.2
						c0.2,0,0.4,0,0.5,0c0.2,0,0.3,0,0.4-0.1c0.6-0.5,0.7-0.5,1.5-0.2c0.1,0,0.1,0,0.2,0.1c0.2,0.1,0.4,0.1,0.5,0.2
						c0.3,0.1,0.4,0.2,0.5,0.3c0,0.1,0,0.2-0.1,0.3c-0.1,0.1-0.1,0.2-0.1,0.2c0,0.1,0.1,0.2,0.3,0.3c0.3,0.2,0.6,0.3,1,0.2
						c0.5-0.1,0.8,0,1,0.3c0.1,0.2,0.2,0.4,0.3,0.6c0.1,0.1,0.1,0.3,0,0.4c-0.1,0.1-0.2,0.2-0.5,0.3c-0.5,0.1-0.6,0.3-0.7,0.5
						c0,0.2,0,0.3,0.4,0.4c0.2,0.1,0.5,0.2,0.5,0.4c0,0.2-0.1,0.3-0.2,0.4l-0.1,0.1c-0.1,0.1-0.2,0.3-0.4,0.4
						c-0.2,0.3-0.5,0.3-1,0.2c-0.2,0-0.4-0.1-0.6-0.1c-0.1,0-0.2,0-0.3,0c-0.2,0.1-0.4,0.2-0.6,0.3c-0.1,0-0.1,0.1-0.1,0.1
						c0,0,0,0,0,0c0.1,0.1,0.1,0.2,0.1,0.4c0,0.1,0,0.2,0,0.3c-0.1,0.1-0.2,0.2-0.5,0.3c-0.4,0.1-0.8,0.2-1.2,0.2
						C182.9,263.6,182.8,263.6,182.7,263.6z M181.1,262.6c0.6,0,1,0.2,1.1,0.5c0.1,0.1,0.3,0.2,0.6,0.1c0.4-0.1,0.8-0.1,1.2-0.2
						c0.2,0,0.3-0.1,0.3-0.1c0,0,0-0.1,0-0.1c0-0.1-0.1-0.2-0.1-0.3c0-0.1,0-0.1,0-0.2c0-0.1,0.1-0.2,0.2-0.2
						c0.2-0.1,0.4-0.2,0.6-0.3c0.1-0.1,0.2-0.1,0.4-0.1c0.2,0.1,0.4,0.1,0.6,0.1c0.4,0.1,0.6,0,0.7-0.2c0.1-0.1,0.2-0.3,0.4-0.4
						l0.1-0.1c0.1-0.1,0.1-0.2,0.1-0.2c0,0-0.1-0.1-0.4-0.2c-0.4-0.1-0.6-0.3-0.6-0.7c0.1-0.4,0.3-0.6,0.9-0.7
						c0.2,0,0.3-0.1,0.3-0.1c0,0,0-0.1,0-0.2c-0.1-0.2-0.2-0.4-0.3-0.6c-0.1-0.2-0.3-0.3-0.7-0.2c-0.5,0.1-0.8,0-1.2-0.2
						c-0.2-0.1-0.4-0.3-0.4-0.5c0-0.1,0-0.3,0.2-0.4c0,0,0.1-0.1,0.1-0.1c0,0,0-0.1-0.3-0.2c-0.2-0.1-0.3-0.1-0.5-0.2
						c-0.1,0-0.1,0-0.2-0.1c-0.8-0.2-0.8-0.2-1.3,0.2c-0.1,0.1-0.3,0.2-0.6,0.2c-0.1,0-0.3,0-0.5,0c-0.4,0-0.6-0.1-0.8-0.3
						c0-0.1-0.1-0.1-0.2-0.2c0,0-0.1-0.1-0.1-0.1c0,0-0.1,0-0.1,0c-0.1,0-0.2,0-0.3,0c-0.4,0.1-0.8,0.1-1.3,0.2
						c-0.2,0-0.3,0.1-0.3,0.2c0,0,0,0,0,0.1c0.1,0.1,0.1,0.3,0.1,0.4c-0.1,0.2-0.2,0.3-0.5,0.4c-0.4,0.2-0.7,0.3-1.3,0.1
						c-0.3-0.1-0.5,0-0.7,0.1c-0.2,0.2-0.4,0.4-0.6,0.6c-0.1,0.1-0.1,0.1-0.1,0.1c0,0.1,0.1,0.1,0.2,0.1c0.5,0.1,0.7,0.4,0.6,0.8
						c-0.1,0.4-0.3,0.6-0.8,0.7c-0.1,0-0.3,0.1-0.3,0.1c0,0,0,0.1,0,0.2c0.1,0.1,0.1,0.2,0.2,0.3l0.1,0.1c0.2,0.4,0.3,0.5,1.1,0.4
						c0.3,0,0.5,0,0.7,0.2c0.1,0.1,0.3,0.2,0.4,0.3c0.1,0,0.2,0.1,0.2,0.2c0,0.1,0,0.1-0.1,0.2c-0.1,0.1-0.1,0.2-0.2,0.3
						c0,0.1,0,0.1,0,0.1c0,0,0.1,0.1,0.3,0.2c0.2,0.1,0.3,0.1,0.5,0.2l0.2,0.1c0.8,0.2,0.9,0.2,1.3-0.2c0.2-0.2,0.4-0.2,0.7-0.2
						C181.1,262.6,181.1,262.6,181.1,262.6z M178,262.1L178,262.1L178,262.1z M181.6,261.2c-0.4,0-0.7,0-1.1-0.2
						c-0.7-0.2-1.1-0.6-1.3-1c-0.1-0.3,0-0.6,0.2-0.9c0.6-0.7,2-1,3.2-0.6c0.7,0.2,1.1,0.6,1.3,1c0.1,0.3,0,0.6-0.3,0.9l0,0
						C183.3,261,182.5,261.2,181.6,261.2z M181.6,258.6c-0.8,0-1.6,0.2-2,0.7c-0.2,0.2-0.3,0.5-0.2,0.7c0.1,0.4,0.5,0.7,1.1,0.9
						c1.1,0.3,2.4,0.1,2.9-0.5l0,0c0.2-0.2,0.3-0.5,0.2-0.7c-0.1-0.4-0.5-0.7-1.1-0.9C182.3,258.7,182,258.6,181.6,258.6z"/>
				</g>
				<g>
					<path class="st18" d="M180.3,240.5c0.1,0.1,0.2,0.2,0.3,0.3c0.1,0.2,0.2,0.2,0.6,0.2c0.1,0,0.3,0,0.4,0c0.2,0,0.3,0,0.5-0.1
						c0.4-0.4,0.5-0.4,1.2-0.2c0.2,0.1,0.4,0.1,0.6,0.2c0.3,0.1,0.4,0.2,0.3,0.4c-0.2,0.2-0.1,0.4,0.2,0.6c0.3,0.2,0.5,0.2,0.9,0.2
						c0.4-0.1,0.6,0,0.7,0.2c0.1,0.2,0.2,0.3,0.3,0.5c0.1,0.2,0,0.3-0.3,0.4c-0.5,0.1-0.6,0.2-0.7,0.5c0,0.2,0.1,0.4,0.4,0.5
						c0.4,0.1,0.5,0.3,0.2,0.5c-0.1,0.2-0.3,0.3-0.4,0.5c-0.2,0.2-0.4,0.2-0.7,0.2c-0.2,0-0.3-0.1-0.5-0.1c-0.1,0-0.2,0-0.3,0
						c-0.2,0.1-0.3,0.2-0.5,0.2c-0.1,0.1-0.2,0.1-0.1,0.2c0,0.1,0.1,0.2,0.1,0.3c0,0.2-0.1,0.3-0.4,0.3c-0.3,0.1-0.7,0.1-1,0.2
						c-0.3,0.1-0.6,0-0.7-0.2c-0.2-0.3-0.4-0.4-1-0.4c-0.2,0-0.4,0-0.6,0.2c-0.4,0.4-0.5,0.4-1.2,0.2c-0.2-0.1-0.4-0.1-0.6-0.2
						c-0.3-0.1-0.4-0.2-0.3-0.4c0-0.1,0.1-0.2,0.2-0.3c0.1-0.1,0-0.1-0.1-0.2c-0.1-0.1-0.3-0.2-0.4-0.2c-0.1-0.1-0.3-0.1-0.5-0.1
						c-0.7,0.1-0.8,0.1-1.1-0.4c-0.1-0.1-0.1-0.3-0.2-0.4c-0.1-0.2,0-0.3,0.3-0.4c0.5-0.1,0.6-0.2,0.6-0.5c0-0.3,0-0.4-0.4-0.5
						c-0.3-0.1-0.3-0.2-0.2-0.4c0.2-0.2,0.3-0.4,0.5-0.5c0.2-0.2,0.4-0.2,0.7-0.2c0.4,0.1,0.7,0.1,1-0.1c0.4-0.2,0.5-0.3,0.4-0.6
						c-0.1-0.2,0.1-0.3,0.3-0.3c0.4-0.1,0.7-0.1,1.1-0.2C180,240.5,180.1,240.5,180.3,240.5z M182.6,244.1c0.5-0.6,0.1-1.2-0.8-1.5
						c-0.9-0.3-2.1-0.1-2.6,0.5c-0.5,0.5-0.1,1.2,0.8,1.5C180.9,244.9,182.1,244.6,182.6,244.1z"/>
					<path class="st1" d="M181.8,246.8c-0.3,0-0.5-0.1-0.5-0.3c-0.1-0.2-0.3-0.4-0.9-0.3c-0.2,0-0.4,0-0.5,0.1
						c-0.4,0.4-0.6,0.4-1.3,0.2l-0.2-0.1c-0.1,0-0.3-0.1-0.4-0.1c-0.2-0.1-0.3-0.1-0.4-0.3c0-0.1,0-0.2,0-0.3c0-0.1,0.1-0.2,0.2-0.3
						c0,0,0,0,0,0c-0.2-0.1-0.3-0.2-0.4-0.3c-0.1-0.1-0.2-0.1-0.4-0.1c-0.7,0.1-0.9,0.1-1.2-0.4l-0.1-0.1c-0.1-0.1-0.1-0.2-0.2-0.3
						c-0.1-0.1-0.1-0.3,0-0.3c0.1-0.1,0.2-0.2,0.4-0.2c0.4-0.1,0.5-0.2,0.5-0.4c0-0.2,0-0.3-0.4-0.4c-0.2-0.1-0.3-0.1-0.3-0.3
						c0-0.1,0-0.2,0.1-0.3c0.2-0.2,0.3-0.4,0.5-0.5c0.2-0.2,0.5-0.3,0.8-0.2c0.3,0.1,0.6,0.1,0.9-0.1c0.1-0.1,0.3-0.2,0.3-0.3
						c0,0,0-0.1,0-0.2c-0.1-0.1,0-0.2,0-0.3c0.1-0.1,0.2-0.2,0.4-0.3c0.4-0.1,0.7-0.1,1.1-0.2c0.1,0,0.2,0,0.3,0c0,0,0.1,0,0.2,0h0
						l0,0c0,0,0.1,0.1,0.1,0.1c0.1,0.1,0.2,0.1,0.2,0.2c0.1,0.1,0.2,0.2,0.5,0.2c0.1,0,0.3,0,0.5,0c0.2,0,0.3,0,0.4-0.1
						c0.5-0.4,0.6-0.4,1.3-0.2c0.1,0,0.1,0,0.2,0.1c0.1,0,0.3,0.1,0.4,0.1c0.2,0.1,0.4,0.1,0.4,0.3c0,0.1,0,0.2-0.1,0.3
						c-0.1,0.1-0.1,0.1-0.1,0.2c0,0.1,0.1,0.1,0.2,0.2c0.3,0.2,0.5,0.2,0.8,0.2c0.4-0.1,0.7,0,0.9,0.3c0.1,0.2,0.2,0.4,0.3,0.5
						c0.1,0.1,0.1,0.2,0,0.3c-0.1,0.1-0.2,0.2-0.4,0.2c-0.5,0.1-0.5,0.2-0.6,0.4c0,0.1,0,0.2,0.3,0.3c0.2,0.1,0.4,0.2,0.5,0.3
						c0,0.1-0.1,0.3-0.2,0.4l-0.1,0.1c-0.1,0.1-0.2,0.2-0.3,0.4c-0.2,0.2-0.4,0.3-0.8,0.2c-0.2,0-0.3-0.1-0.5-0.1
						c-0.1,0-0.1,0-0.2,0c-0.2,0.1-0.4,0.2-0.5,0.3c0,0-0.1,0-0.1,0c0,0,0,0,0,0c0,0.1,0.1,0.2,0.1,0.3c0,0.1,0,0.2,0,0.3
						c-0.1,0.1-0.2,0.2-0.4,0.2c-0.3,0.1-0.7,0.1-1,0.2C181.9,246.8,181.9,246.8,181.8,246.8z M180.5,246c0.5,0,0.8,0.1,1,0.5
						c0.1,0.1,0.3,0.2,0.5,0.1c0.4-0.1,0.7-0.1,1-0.2c0.2,0,0.2-0.1,0.3-0.1c0,0,0,0,0-0.1c0-0.1-0.1-0.2-0.1-0.3c0-0.1,0-0.1,0-0.2
						c0-0.1,0.1-0.1,0.2-0.2c0.2-0.1,0.3-0.1,0.5-0.2c0.1-0.1,0.2-0.1,0.4,0c0.2,0,0.3,0.1,0.5,0.1c0.4,0.1,0.5,0,0.6-0.1
						c0.1-0.1,0.2-0.2,0.3-0.3l0.1-0.1c0.1-0.1,0.1-0.2,0.1-0.2c0,0,0-0.1-0.3-0.2c-0.3-0.1-0.5-0.2-0.5-0.6c0-0.4,0.3-0.5,0.8-0.6
						c0.2,0,0.2-0.1,0.3-0.1c0,0,0-0.1,0-0.1c-0.1-0.2-0.2-0.3-0.3-0.5c-0.1-0.2-0.2-0.2-0.6-0.2c-0.4,0.1-0.7,0-1-0.2
						c-0.2-0.1-0.3-0.2-0.3-0.4c0-0.1,0-0.2,0.1-0.4c0,0,0-0.1,0-0.1c0,0,0-0.1-0.2-0.1c-0.1,0-0.3-0.1-0.4-0.1
						c-0.1,0-0.1,0-0.2-0.1c-0.7-0.2-0.7-0.2-1.1,0.2c-0.1,0.1-0.3,0.2-0.6,0.1c-0.1,0-0.3,0-0.4,0c-0.3,0-0.5-0.1-0.7-0.3
						c0-0.1-0.1-0.1-0.2-0.2c0,0,0,0-0.1-0.1c0,0-0.1,0-0.1,0c-0.1,0-0.2,0-0.2,0c-0.4,0.1-0.7,0.1-1.1,0.2c-0.2,0-0.2,0.1-0.3,0.1
						c0,0,0,0,0,0.1c0.1,0.1,0.1,0.2,0,0.3c-0.1,0.2-0.3,0.3-0.5,0.4c-0.3,0.2-0.6,0.2-1.1,0.1c-0.2-0.1-0.4,0-0.6,0.1
						c-0.2,0.2-0.3,0.4-0.5,0.5c0,0-0.1,0.1-0.1,0.1c0,0,0.1,0.1,0.2,0.1c0.4,0.1,0.6,0.3,0.5,0.7c0,0.4-0.2,0.5-0.7,0.6
						c-0.1,0-0.2,0.1-0.2,0.1c0,0,0,0.1,0,0.1c0,0.1,0.1,0.2,0.1,0.3l0.1,0.1c0.2,0.4,0.2,0.4,0.9,0.3c0.3,0,0.5,0,0.6,0.1
						c0.1,0.1,0.2,0.2,0.3,0.2c0.1,0,0.2,0.1,0.2,0.2c0,0.1,0,0.1-0.1,0.2c-0.1,0.1-0.1,0.2-0.2,0.3c0,0,0,0.1,0,0.1
						c0,0,0,0.1,0.2,0.1c0.1,0,0.3,0.1,0.4,0.1l0.2,0.1c0.7,0.2,0.7,0.2,1.1-0.2C179.9,246,180.1,246,180.5,246
						C180.4,246,180.4,246,180.5,246z M180.9,244.8c-0.3,0-0.6,0-0.9-0.1c-0.6-0.2-1-0.5-1.1-0.9c-0.1-0.3,0-0.6,0.2-0.8
						c0.5-0.6,1.7-0.8,2.7-0.5c0.6,0.2,1,0.5,1.1,0.9c0.1,0.3,0,0.6-0.2,0.8C182.3,244.6,181.6,244.8,180.9,244.8z M180.9,242.6
						c-0.7,0-1.3,0.2-1.7,0.6c-0.2,0.2-0.2,0.4-0.2,0.6c0.1,0.3,0.4,0.6,0.9,0.7c0.9,0.3,2,0.1,2.5-0.4l0,0c0.2-0.2,0.2-0.4,0.2-0.6
						c-0.1-0.3-0.4-0.6-0.9-0.7C181.5,242.6,181.2,242.6,180.9,242.6z"/>
				</g>
				<path class="st1" d="M170.2,277.2c-0.1,0-0.1,0.1-0.1,0.1v10.5c0,0.1,0.1,0.1,0.1,0.1c0.1,0,0.1-0.1,0.1-0.1v-10.5
					C170.3,277.3,170.3,277.2,170.2,277.2z"/>
			</g>
		</g>
		<g>
			<path class="st1" d="M280.8,115.4C280.8,115.4,280.8,115.4,280.8,115.4c-0.1-0.1-0.1-0.1-0.1-0.2c4.8-7.7,6.5-14.8,5.2-21.1
				c-1.5-6.9-7.8-12.3-16.8-14.6c-0.1,0-0.2,0-0.2,0c-0.1,0-0.2,0-0.3,0c-2.8-0.8-5.5-1.1-8.6-1.5c-1.7-0.1-3.3-0.2-5.5-0.2
				c-2.1,0-4.1,0.1-6,0.2l-1.1,0.2c0,0,0,0,0,0c-8.2,0.4-15.6,2-21.8,3.5c-5.2,1.3-10.3,2.8-16.3,5c-1.5,0.6-3,1.1-4.4,1.7
				c-1.1,0.4-2.1,0.8-3.3,1.3c-0.1,0-0.1,0-0.2-0.1c0-0.1,0-0.1,0.1-0.2c1.1-0.4,2.2-0.8,3.3-1.3c1.4-0.5,2.8-1.1,4.4-1.7
				c6.1-2.2,11.1-3.8,16.4-5.1c6.2-1.5,13.7-3.1,21.9-3.5l1.1-0.2c0,0,0,0,0,0c1.9-0.1,3.9-0.2,6-0.2c2.2,0,3.8,0.1,5.5,0.2
				c3,0.3,5.8,0.7,8.6,1.5c0.1,0,0.2,0,0.2,0c0.1,0,0.2,0,0.3,0c4.1,1,7.8,2.8,10.6,5c3.4,2.7,5.5,5.9,6.3,9.7
				c0.7,3.5,0.5,7.2-0.6,11.1C284.7,108.5,283.1,111.9,280.8,115.4C280.9,115.4,280.9,115.4,280.8,115.4z M104.3,282.9
				c-2.7,0-5.5-0.1-8.5-0.3c0,0,0,0,0,0c-0.3-0.1-0.5-0.1-0.8-0.1c-0.3,0-0.5-0.1-0.8-0.1c-4.1-0.4-8.6-0.9-13.6-2.1
				c-0.1,0-0.2-0.1-0.3-0.1c0,0-0.1-0.1-0.2-0.1c0,0,0,0,0,0c-4.3-1.1-7.7-2.4-10.5-4c-3.6-2-6.3-4.4-8.5-7.5
				c-2.8-4.1-3.6-9.2-2.3-14.3c0-0.1,0.1-0.1,0.1-0.1c0.1,0,0.1,0.1,0.1,0.1c-1.3,5.1-0.5,10.1,2.2,14.1c4.9,7,12.7,9.7,18.9,11.4
				c0.1,0,0.2,0.1,0.3,0.1c0,0,0.1,0.1,0.2,0.1c0,0,0,0,0,0c4.9,1.2,9.4,1.7,13.5,2.1c0,0,0,0,0,0c0.3,0.1,0.5,0.1,0.8,0.1
				c0.3,0,0.5,0.1,0.8,0.1c6.8,0.5,12.8,0.4,18.7-0.2c0,0,0,0,0,0h1.1c0.8-0.1,1.7-0.2,2.5-0.2c0.4,0,0.9-0.1,1.3-0.1
				c14.6-1.6,29.5-5.1,45.6-10.8c0.2-0.1,0.3-0.1,0.4-0.2c0.1-0.1,0.3-0.2,0.5-0.2c2.5-0.9,5-1.9,7.4-3c0.7-0.3,1.4-0.6,2.1-0.9
				l-4.2,0.1h0c-0.1,0-0.1-0.1-0.1-0.1c0-0.1,0.1-0.1,0.1-0.1l4.9-0.1c0.1,0,0.1,0,0.1,0.1c0,0.1,0,0.1-0.1,0.1
				c-0.9,0.4-1.8,0.8-2.7,1.1c-2.4,1-4.9,2-7.4,3c-0.2,0.1-0.3,0.1-0.4,0.2c-0.1,0.1-0.3,0.2-0.5,0.2c-16.1,5.7-31,9.3-45.7,10.9
				c-0.4,0-0.9,0.1-1.3,0.1c-0.8,0-1.7,0.1-2.5,0.2c0,0,0,0,0,0h-1.1C111.2,282.7,107.8,282.9,104.3,282.9z"/>
			<path class="st1" d="M173.3,270.3C173.3,270.3,173.2,270.3,173.3,270.3c-0.1-0.1-0.1-0.1-0.1-0.2l3-3.6c0-0.1,0.1-0.1,0.2,0
				c0.1,0,0.1,0.1,0,0.2L173.3,270.3C173.4,270.3,173.3,270.3,173.3,270.3z"/>
			<g>
				<path class="st1" d="M102,189.6c-0.1,0-0.1-0.1-0.1-0.1V175c0-0.1,0.1-0.1,0.1-0.1c0.1,0,0.1,0.1,0.1,0.1v14.4
					C102.2,189.5,102.1,189.6,102,189.6z M102,146.8c-0.1,0-0.1-0.1-0.1-0.1v-14.4c0-0.1,0.1-0.1,0.1-0.1c0.1,0,0.1,0.1,0.1,0.1
					v14.4C102.2,146.8,102.1,146.8,102,146.8z M87.9,161H73.4c-0.1,0-0.1-0.1-0.1-0.1c0-0.1,0.1-0.1,0.1-0.1h14.4
					c0.1,0,0.1,0.1,0.1,0.1C88,160.9,87.9,161,87.9,161z M130.6,161h-14.4c-0.1,0-0.1-0.1-0.1-0.1c0-0.1,0.1-0.1,0.1-0.1h14.4
					c0.1,0,0.1,0.1,0.1,0.1C130.7,160.9,130.7,161,130.6,161z"/>
				<g>
					<path class="st1" d="M92,151C92,151,92,151,92,151l-10.3-10.2c0,0,0-0.1,0-0.2s0.1,0,0.2,0l10.2,10.2
						C92.2,150.8,92.2,150.9,92,151C92.1,151,92.1,151,92,151z M122.2,181.2C122.2,181.2,122.2,181.2,122.2,181.2L112,170.9
						c0,0,0-0.1,0-0.2c0,0,0.1,0,0.2,0l10.2,10.2C122.4,181,122.4,181.1,122.2,181.2C122.3,181.2,122.3,181.2,122.2,181.2z"/>
				</g>
				<g>
					<path class="st1" d="M81.8,181.2C81.8,181.2,81.8,181.2,81.8,181.2c-0.1-0.1-0.1-0.2-0.1-0.2l10.2-10.2c0,0,0.1,0,0.2,0
						c0,0,0,0.1,0,0.2L81.8,181.2C81.9,181.2,81.9,181.2,81.8,181.2z M112,151C112,151,112,151,112,151c-0.1-0.1-0.1-0.2-0.1-0.2
						l10.2-10.2c0,0,0.1,0,0.2,0c0,0,0,0.1,0,0.2L112,151C112.1,151,112.1,151,112,151z"/>
				</g>
			</g>
		</g>
		<g>
			<path class="st1" d="M246.1,117.5L139.6,56c-2.5-1.4-4.8-1.7-6.5-0.8c-1.9,0.9-10,5.6-10.2,5.7c-1.8,1-2.9,3.1-2.9,6.2v89.4
				c0,6,4.3,13.4,9.5,16.4l106.5,61.5c2.6,1.5,5,1.7,6.7,0.7c1.7-1,8.3-4.7,10-5.6c1.7-1,2.8-3.1,2.8-6.1v-89.4
				C255.6,127.9,251.4,120.5,246.1,117.5z"/>
			<path class="st1" d="M240.4,235.8c-1.3,0-2.8-0.4-4.3-1.3l-106.5-61.5c-5.3-3.1-9.6-10.5-9.6-16.5V67c0-3,1-5.2,2.9-6.3
				c0,0,0.3-0.2,0.6-0.4c2-1.1,8-4.6,9.6-5.4c1.8-0.9,4.1-0.6,6.6,0.8l106.5,61.5c5.3,3.1,9.6,10.5,9.6,16.5v89.4c0,3-1,5.2-2.9,6.2
				c-1.7,1-8.3,4.7-10,5.6C242.1,235.6,241.3,235.8,240.4,235.8z M135.3,54.8c-0.8,0-1.5,0.2-2.1,0.5c-1.6,0.8-7.6,4.2-9.6,5.4
				c-0.4,0.2-0.6,0.3-0.6,0.4c-1.8,1-2.8,3.1-2.8,6v89.4c0,6,4.2,13.3,9.5,16.3l106.5,61.5c2.5,1.4,4.9,1.7,6.6,0.7
				c1.7-1,8.3-4.7,10-5.6c1.8-1,2.8-3.1,2.8-6v-89.4c0-6-4.2-13.3-9.5-16.3L139.5,56.1C138,55.2,136.6,54.8,135.3,54.8z"/>
			<path class="st14" d="M236.1,123.1L129.6,61.6c-5.3-3-9.5-0.6-9.5,5.4v89.4c0,6,4.3,13.4,9.5,16.4l106.5,61.5
				c5.3,3,9.5,0.6,9.5-5.4v-89.4C245.6,133.5,241.4,126.2,236.1,123.1z"/>
			<path class="st1" d="M240.4,235.8c-1.3,0-2.8-0.4-4.3-1.3l-106.5-61.5c-5.3-3.1-9.6-10.5-9.6-16.5V67c0-2.9,1-5.1,2.8-6.2
				c1.8-1.1,4.3-0.8,6.9,0.7L236.2,123c5.3,3.1,9.6,10.5,9.6,16.5v89.4c0,2.9-1,5.1-2.8,6.2C242.2,235.6,241.3,235.8,240.4,235.8z
				 M125.3,60.4c-0.9,0-1.7,0.2-2.4,0.6c-1.7,1-2.7,3.1-2.7,6v89.4c0,6,4.2,13.3,9.5,16.3l106.5,61.5c2.5,1.5,4.9,1.7,6.6,0.7
				c1.7-1,2.7-3.1,2.7-6v-89.4c0-6-4.2-13.3-9.5-16.3L129.5,61.7C128,60.9,126.6,60.4,125.3,60.4z"/>
			
				<linearGradient id="SVGID_00000168112628877450948070000016811321964640395417_" gradientUnits="userSpaceOnUse" x1="3702.8867" y1="-3503.8066" x2="4609.5366" y2="-3503.8066" gradientTransform="matrix(0.12 0 0 -0.12 -315.92 -272.48)">
				<stop  offset="0" style="stop-color:#DADCE0"/>
				<stop  offset="1" style="stop-color:#DBDAEF"/>
			</linearGradient>
			<path style="fill:url(#SVGID_00000168112628877450948070000016811321964640395417_);" d="M133.8,165.6c-2.6-1.5-5.3-6.1-5.3-9.1
				V70.7l103.5,59.7c2.6,1.5,5.3,6.1,5.3,9.1v85.7L133.8,165.6z"/>
			<path class="st1" d="M237.2,225.4C237.2,225.4,237.2,225.4,237.2,225.4l-103.5-59.8c-2.7-1.5-5.4-6.2-5.4-9.2V70.7
				c0,0,0-0.1,0.1-0.1c0,0,0.1,0,0.1,0L232,130.3c2.7,1.5,5.4,6.2,5.4,9.2v85.7C237.3,225.3,237.3,225.4,237.2,225.4
				C237.3,225.4,237.2,225.4,237.2,225.4z M128.5,70.9v85.5c0,3,2.7,7.5,5.3,9l103.3,59.6v-85.5c0-3-2.7-7.5-5.3-9L128.5,70.9z"/>
			<g>
				<polygon class="st3" points="254.7,172.9 246.5,177.6 246.5,185.3 254.7,180.6 				"/>
				<polygon class="st3" points="254.7,185.7 246.5,190.5 246.5,195.1 254.7,190.4 				"/>
				<path class="st3" d="M251.3,124.1l-7.7,4.5v0.1c0.3,0.3,0.5,0.7,0.6,1.1l7.6-4.4v-0.5C251.6,124.7,251.4,124.4,251.3,124.1z"/>
			</g>
			<path class="st20" d="M205.3,124.3L126.9,79c-3.9-2.2-7-0.4-7,4v65.8c0,4.4,3.1,9.8,7,12.1l78.4,45.3c3.9,2.2,7,0.4,7-4v-65.8
				C212.3,131.9,209.2,126.5,205.3,124.3z"/>
			<g>
				<path class="st1" d="M198.4,141.4l-73.9-42.7c-1.7-1-3.3-1.1-4.5-0.6c-1.3,0.6-6.9,3.9-7.1,4c-1.2,0.7-2,2.1-2,4.3v62
					c0,4.2,3,9.3,6.6,11.4l73.9,42.7c1.8,1.1,3.5,1.2,4.7,0.5s5.7-3.2,6.9-3.9c1.2-0.7,2-2.1,2-4.2v-62
					C205,148.6,202,143.5,198.4,141.4z"/>
				<path class="st1" d="M194.4,223.5c-0.9,0-2-0.3-3-0.9l-73.9-42.7c-3.7-2.1-6.7-7.3-6.7-11.5v-62c0-2.1,0.7-3.7,2-4.4
					c0,0,0.2-0.1,0.4-0.3c1.4-0.8,5.5-3.2,6.6-3.7c1.3-0.6,2.9-0.4,4.6,0.6l73.9,42.7c3.7,2.1,6.7,7.3,6.7,11.5v62
					c0,2.1-0.7,3.6-2,4.4c-1.2,0.7-5.7,3.2-6.9,3.9C195.6,223.3,195,223.5,194.4,223.5z M121.5,97.9c-0.5,0-1,0.1-1.5,0.3
					c-1.1,0.5-5.3,2.9-6.6,3.7c-0.3,0.2-0.4,0.2-0.4,0.3c-1.2,0.7-1.9,2.2-1.9,4.2v62c0,4.1,2.9,9.2,6.5,11.3l73.9,42.7
					c1.7,1,3.3,1.2,4.6,0.5c1.2-0.7,5.7-3.2,6.9-3.9c1.2-0.7,1.9-2.2,1.9-4.1v-62c0-4.1-2.9-9.2-6.5-11.3l-73.9-42.7
					C123.4,98.2,122.4,97.9,121.5,97.9z"/>
				<path class="st3" d="M191.4,145.3l-73.9-42.7c-3.6-2.1-6.6-0.4-6.6,3.8v62c0,4.2,3,9.3,6.6,11.4l73.9,42.7
					c3.6,2.1,6.6,0.4,6.6-3.8v-62C198,152.5,195.1,147.4,191.4,145.3z"/>
				<path class="st1" d="M194.4,223.5c-0.9,0-2-0.3-3-0.9l-73.9-42.7c-3.7-2.1-6.7-7.3-6.7-11.5v-62c0-2.1,0.7-3.6,2-4.3
					c1.3-0.7,3-0.6,4.8,0.5l73.9,42.7c3.7,2.1,6.7,7.3,6.7,11.5v62c0,2.1-0.7,3.6-2,4.3C195.6,223.3,195,223.5,194.4,223.5z
					 M114.5,101.8c-0.6,0-1.2,0.1-1.7,0.4c-1.2,0.7-1.9,2.2-1.9,4.1v62c0,4.1,2.9,9.2,6.5,11.3l73.9,42.7c1.7,1,3.4,1.2,4.6,0.5
					c1.2-0.7,1.9-2.2,1.9-4.1v-62c0-4.1-2.9-9.2-6.5-11.3l-73.9-42.7C116.4,102.1,115.4,101.8,114.5,101.8z"/>
				<polygon class="st3" points="204.3,179.8 198.6,183.1 198.6,188.4 204.3,185.1 				"/>
				<polygon class="st3" points="204.3,188.7 198.6,192 198.6,195.2 204.3,191.9 				"/>
				<path class="st3" d="M201.9,146l-5.4,3.1v0.1c0.2,0.2,0.3,0.5,0.4,0.8l5.3-3v-0.4C202.1,146.4,202,146.2,201.9,146z"/>
				<path class="st21" d="M191.4,145.3l-73.9-42.7c-3.6-2.1-6.6-0.4-6.6,3.8v8.5l87.1,50.3v-8.5C198,152.5,195.1,147.4,191.4,145.3z
					"/>
				<path class="st1" d="M198,165.3C198,165.3,198,165.3,198,165.3L110.8,115c0,0-0.1-0.1-0.1-0.1v-8.5c0-2.1,0.7-3.6,2-4.3
					c1.3-0.7,3-0.6,4.8,0.5l73.9,42.7c3.7,2.1,6.7,7.3,6.7,11.5v8.5C198.1,165.3,198.1,165.3,198,165.3
					C198.1,165.3,198,165.3,198,165.3z M111,114.8l86.9,50.2v-8.3c0-4.1-2.9-9.2-6.5-11.3l-73.9-42.7c-1.7-1-3.4-1.2-4.6-0.5
					c-1.2,0.7-1.9,2.2-1.9,4.1V114.8z"/>
				<g class="st22">
					<path class="st1" d="M121.5,107.1c-1-0.6-2.1-0.7-2.9-0.2c-0.8,0.5-1.2,1.4-1.2,2.6c0,2.2,1.5,4.7,3.4,5.8
						c0.6,0.3,1.2,0.5,1.7,0.5c0.4,0,0.8-0.1,1.2-0.3c0.8-0.5,1.2-1.4,1.2-2.6C124.9,110.7,123.4,108.1,121.5,107.1z M131.9,113
						c-1-0.6-2.1-0.7-2.9-0.2c-0.8,0.5-1.2,1.4-1.2,2.6c0,2.2,1.5,4.7,3.4,5.8c0.6,0.3,1.2,0.5,1.7,0.5c0.4,0,0.8-0.1,1.2-0.3
						c0.8-0.5,1.2-1.4,1.2-2.6C135.2,116.6,133.8,114.1,131.9,113z M142.6,119.2c-1-0.6-2.1-0.7-2.9-0.2c-0.8,0.5-1.2,1.4-1.2,2.6
						c0,2.2,1.5,4.7,3.4,5.8c0.6,0.3,1.2,0.5,1.7,0.5c0.4,0,0.8-0.1,1.2-0.3c0.8-0.5,1.2-1.4,1.2-2.6
						C146,122.8,144.5,120.3,142.6,119.2z"/>
				</g>
				<g>
					<path class="st1" d="M119.8,108.8c-0.7-0.4-1.4-0.5-1.9-0.3c-0.4,0.2-1.6,1-1.9,1.1c-0.6,0.3-0.9,1-0.9,1.9
						c0,1.9,1.3,4.2,3,5.1c0.7,0.4,1.3,0.5,1.7,0.4c0.5-0.1,1.9-1,2.2-1.2c0.5-0.3,0.8-1,0.8-1.9C122.8,112,121.4,109.7,119.8,108.8
						z"/>
					<path class="st1" d="M119.3,117.2c-0.4,0-0.9-0.1-1.4-0.4c-1.7-1-3-3.3-3-5.3c0-1,0.3-1.7,1-2c0.1-0.1,0.3-0.2,0.6-0.3
						c0.5-0.3,1.1-0.7,1.4-0.8c0.6-0.2,1.3-0.1,2,0.3l0,0c1.7,1,3,3.3,3,5.3c0,0.9-0.3,1.6-0.9,2c0,0-0.1,0.1-0.2,0.1
						c-0.5,0.3-1.6,1-2,1.1C119.6,117.2,119.5,117.2,119.3,117.2z M118.4,108.5c-0.2,0-0.4,0-0.5,0.1c-0.3,0.1-0.9,0.5-1.3,0.8
						c-0.3,0.2-0.5,0.3-0.6,0.3c-0.6,0.3-0.9,0.9-0.9,1.8c0,1.8,1.3,4.1,2.9,5c0.6,0.3,1.2,0.5,1.7,0.3c0.4-0.1,1.5-0.8,2-1.1
						c0.1-0.1,0.2-0.1,0.2-0.1c0.5-0.3,0.8-0.9,0.8-1.8c0-1.8-1.3-4.1-2.9-5l0,0C119.3,108.6,118.8,108.5,118.4,108.5z"/>
					
						<ellipse transform="matrix(0.8629 -0.5054 0.5054 0.8629 -41.0677 75.1534)" class="st18" cx="118" cy="113.3" rx="2.4" ry="4.2"/>
					<path class="st1" d="M119.3,117.2c-0.4,0-0.9-0.1-1.4-0.4c-1.7-1-3-3.3-3-5.3c0-1,0.3-1.7,0.9-2c0.6-0.3,1.4-0.3,2.2,0.2
						c1.7,1,3,3.3,3,5.3c0,1-0.3,1.7-0.9,2C119.9,117.1,119.6,117.2,119.3,117.2z M116.6,109.5c-0.3,0-0.5,0.1-0.7,0.2
						c-0.5,0.3-0.8,0.9-0.8,1.8c0,1.8,1.3,4.1,2.9,5c0.8,0.4,1.5,0.5,2,0.2c0.5-0.3,0.8-0.9,0.8-1.8c0-1.8-1.3-4.1-2.9-5
						C117.5,109.7,117,109.5,116.6,109.5z"/>
					<g>
						<path class="st1" d="M130.1,114.7c-0.7-0.4-1.4-0.5-1.9-0.3c-0.4,0.2-1.6,1-1.9,1.1c-0.6,0.3-0.9,1-0.9,1.9
							c0,1.9,1.3,4.2,3,5.1c0.7,0.4,1.3,0.5,1.7,0.4c0.5-0.1,1.9-1,2.2-1.2c0.5-0.3,0.8-1,0.8-1.9
							C133.1,118,131.7,115.7,130.1,114.7z"/>
						<path class="st1" d="M129.6,123.2c-0.4,0-0.9-0.1-1.4-0.4c-1.7-1-3-3.3-3-5.3c0-1,0.3-1.7,1-2c0.1-0.1,0.3-0.2,0.6-0.3
							c0.5-0.3,1.1-0.7,1.4-0.8c0.6-0.2,1.3-0.1,2,0.3c1.7,1,3,3.3,3,5.3c0,0.9-0.3,1.6-0.9,2c0,0-0.1,0.1-0.2,0.1
							c-0.5,0.3-1.6,1-2,1.1C129.9,123.1,129.8,123.2,129.6,123.2z M128.7,114.4c-0.2,0-0.4,0-0.5,0.1c-0.3,0.1-0.9,0.5-1.3,0.8
							c-0.3,0.2-0.5,0.3-0.6,0.3c-0.6,0.3-0.9,0.9-0.9,1.8c0,1.8,1.3,4.1,2.9,5c0.6,0.3,1.2,0.5,1.7,0.3c0.4-0.1,1.5-0.8,2-1.1
							c0.1-0.1,0.2-0.1,0.2-0.1c0.5-0.3,0.8-0.9,0.8-1.8c0-1.8-1.3-4.1-2.9-5l0,0C129.6,114.6,129.1,114.4,128.7,114.4z"/>
						<g>
							
								<ellipse transform="matrix(0.8629 -0.5054 0.5054 0.8629 -42.6596 81.1818)" class="st18" cx="128.3" cy="119.2" rx="2.4" ry="4.2"/>
							<path class="st1" d="M129.6,123.2c-0.4,0-0.9-0.1-1.4-0.4c-1.7-1-3-3.3-3-5.3c0-1,0.3-1.7,0.9-2c0.6-0.3,1.4-0.3,2.2,0.2
								c1.7,1,3,3.3,3,5.3c0,1-0.3,1.7-0.9,2C130.2,123.1,129.9,123.2,129.6,123.2z M127,115.5c-0.3,0-0.5,0.1-0.7,0.2
								c-0.5,0.3-0.8,0.9-0.8,1.8c0,1.8,1.3,4.1,2.9,5c0.8,0.4,1.5,0.5,2,0.2c0.5-0.3,0.8-0.9,0.8-1.8c0-1.8-1.3-4.1-2.9-5
								C127.8,115.6,127.3,115.5,127,115.5z"/>
						</g>
					</g>
					<g>
						<path class="st1" d="M140.9,120.9c-0.7-0.4-1.4-0.5-1.9-0.3c-0.4,0.2-1.6,1-1.9,1.1c-0.6,0.3-0.9,1-0.9,1.9
							c0,1.9,1.3,4.2,3,5.1c0.7,0.4,1.3,0.5,1.7,0.4c0.5-0.1,1.9-1,2.2-1.2c0.5-0.3,0.8-1,0.8-1.9
							C143.9,124.2,142.5,121.9,140.9,120.9z"/>
						<path class="st1" d="M140.4,129.3c-0.4,0-0.9-0.1-1.4-0.4c-1.7-1-3-3.3-3-5.3c0-1,0.3-1.7,1-2c0.1-0.1,0.3-0.2,0.6-0.3
							c0.5-0.3,1.1-0.7,1.4-0.8c0.6-0.2,1.3-0.1,2,0.3l0,0c1.7,1,3,3.3,3,5.3c0,0.9-0.3,1.6-0.9,2c0,0-0.1,0.1-0.2,0.1
							c-0.5,0.3-1.6,1-2,1.1C140.7,129.3,140.6,129.3,140.4,129.3z M139.5,120.6c-0.2,0-0.4,0-0.5,0.1c-0.3,0.1-0.9,0.5-1.3,0.8
							c-0.3,0.2-0.5,0.3-0.6,0.3c-0.6,0.3-0.9,0.9-0.9,1.8c0,1.8,1.3,4.1,2.9,5c0.6,0.3,1.2,0.5,1.7,0.3c0.4-0.1,1.5-0.8,2-1.1
							c0.1-0.1,0.2-0.1,0.2-0.1c0.5-0.3,0.8-0.9,0.8-1.8c0-1.8-1.3-4.1-2.9-5l0,0C140.4,120.8,139.9,120.6,139.5,120.6z"/>
						<g>
							
								<ellipse transform="matrix(0.8629 -0.5054 0.5054 0.8629 -44.305 87.477)" class="st18" cx="139.1" cy="125.4" rx="2.4" ry="4.2"/>
							<path class="st1" d="M140.4,129.3c-0.4,0-0.9-0.1-1.4-0.4c-1.7-1-3-3.3-3-5.3c0-1,0.3-1.7,0.9-2c0.6-0.3,1.4-0.3,2.2,0.2
								c1.7,1,3,3.3,3,5.3c0,1-0.3,1.7-0.9,2C141,129.3,140.7,129.3,140.4,129.3z M137.7,121.7c-0.3,0-0.5,0.1-0.7,0.2
								c-0.5,0.3-0.8,0.9-0.8,1.8c0,1.8,1.3,4.1,2.9,5c0.8,0.4,1.5,0.5,2,0.2c0.5-0.3,0.8-0.9,0.8-1.8c0-1.8-1.3-4.1-2.9-5
								C138.6,121.8,138.1,121.7,137.7,121.7z"/>
						</g>
					</g>
				</g>
				<g>
					
						<linearGradient id="SVGID_00000120555827232569988500000007063777638440338050_" gradientUnits="userSpaceOnUse" x1="3600.8567" y1="-3510.8867" x2="4211.8267" y2="-3510.8867" gradientTransform="matrix(0.12 0 0 -0.12 -315.92 -272.48)">
						<stop  offset="0" style="stop-color:#DADCE0"/>
						<stop  offset="1" style="stop-color:#DBDAEF"/>
					</linearGradient>
					<polygon style="fill:url(#SVGID_00000120555827232569988500000007063777638440338050_);" points="189.5,172.9 116.2,130.5 
						116.2,124.8 189.5,167.1 					"/>
					
						<linearGradient id="SVGID_00000082341429382949799920000014091763580048928909_" gradientUnits="userSpaceOnUse" x1="3600.8567" y1="-3845.2268" x2="4211.8267" y2="-3845.2268" gradientTransform="matrix(0.12 0 0 -0.12 -315.92 -272.48)">
						<stop  offset="0" style="stop-color:#DADCE0"/>
						<stop  offset="1" style="stop-color:#DBDAEF"/>
					</linearGradient>
					<polygon style="fill:url(#SVGID_00000082341429382949799920000014091763580048928909_);" points="189.5,213 116.2,170.6 
						116.2,164.9 189.5,207.3 					"/>
					
						<linearGradient id="SVGID_00000053522900284920957330000009397027961394469504_" gradientUnits="userSpaceOnUse" x1="3600.8567" y1="-3551.5366" x2="3771.9067" y2="-3551.5366" gradientTransform="matrix(0.12 0 0 -0.12 -315.92 -272.48)">
						<stop  offset="0" style="stop-color:#DADCE0"/>
						<stop  offset="1" style="stop-color:#DBDAEF"/>
					</linearGradient>
					<polygon style="fill:url(#SVGID_00000053522900284920957330000009397027961394469504_);" points="136.7,172.7 116.2,160.9 
						116.2,134.7 136.7,146.6 					"/>
					
						<linearGradient id="SVGID_00000003811197878313257270000018412385484303297152_" gradientUnits="userSpaceOnUse" x1="3820.8167" y1="-3678.5317" x2="3991.8667" y2="-3678.5317" gradientTransform="matrix(0.12 0 0 -0.12 -315.92 -272.48)">
						<stop  offset="0" style="stop-color:#DADCE0"/>
						<stop  offset="1" style="stop-color:#DBDAEF"/>
					</linearGradient>
					<polygon style="fill:url(#SVGID_00000003811197878313257270000018412385484303297152_);" points="163.1,187.9 142.6,176.1 
						142.6,149.9 163.1,161.8 					"/>
					
						<linearGradient id="SVGID_00000018205362004559610130000002821472907190104451_" gradientUnits="userSpaceOnUse" x1="4040.7766" y1="-3805.5266" x2="4211.8267" y2="-3805.5266" gradientTransform="matrix(0.12 0 0 -0.12 -315.92 -272.48)">
						<stop  offset="0" style="stop-color:#DADCE0"/>
						<stop  offset="1" style="stop-color:#DBDAEF"/>
					</linearGradient>
					<polygon style="fill:url(#SVGID_00000018205362004559610130000002821472907190104451_);" points="189.5,203.2 169,191.3 
						169,165.2 189.5,177 					"/>
				</g>
				<g>
					<path class="st28" d="M192.1,201l-19.6-32c-0.6-0.9-1.6-1.4-2.6-1.1c-1,0.3-1.6,1.1-1.6,2.2v30.6c0,0.9,0.5,1.7,1.2,2.2
						c0.7,0.4,1.5,0.4,2.2,0.1l3.6-1.9l2.8,9c0.3,1,1.2,1.7,2.1,1.8l5.3,0.4c0.1,0,0.1,0,0.2,0c0.7,0,1.3-0.3,1.7-0.8
						c0.5-0.6,0.6-1.4,0.4-2.2l-2.1-6.6l3.6,1.8c0.9,0.5,2,0.3,2.6-0.5C192.6,203.1,192.7,202,192.1,201z"/>
					<path class="st29" d="M186.2,202.2c-6.6-10.7-13.1-21.3-19.6-32c-0.1-0.1-0.2-0.2-0.3-0.2c-0.1,0-4.2,2.6-4.2,2.7
						c-0.1,0-0.1,0.1-0.1,0.2v30.6c0,0.2,0.2,0.5,0.4,0.4c1.9-1,3.7-1.9,5.5-2.9c0.1-0.1,0.3,0.1,0.4,0.3c1.1,3.6,2.3,7.3,3.4,10.9
						c0.1,0.2,0.2,0.3,0.3,0.3c1.8,0.1,3.5,0.3,5.3,0.4c0,0,0.1,0,0.1,0c0.1,0,4.2-2.6,4.2-2.7c0-0.1,0-0.1,0-0.2
						c-0.9-3-1.5-4.6-2.5-7.6c1.8,0.9,0.9,2,2.8,3c0.1,0,0.1,0,0.1,0c0.1,0,4.2-2.6,4.2-2.7C186.3,202.6,186.3,202.4,186.2,202.2z"
						/>
					<path class="st1" d="M177.3,212.9C177.3,212.9,177.3,212.9,177.3,212.9l-5.3-0.4c-0.2,0-0.3-0.2-0.4-0.4l-3.4-10.9
						c0-0.1-0.1-0.2-0.2-0.2c0,0,0,0-0.1,0l-5.5,2.9c-0.1,0-0.2,0-0.3,0c-0.1-0.1-0.3-0.3-0.3-0.5v-30.6c0-0.2,0.1-0.2,0.1-0.2
						c0.1,0,0.7-0.5,1.4-0.9c2.8-1.8,2.8-1.8,2.8-1.8c0.1,0,0.2,0.1,0.3,0.2l19.6,32l0,0c0.1,0.1,0.1,0.3,0.1,0.4
						c0,0.1-0.1,0.1-0.1,0.1c-0.1,0-0.6,0.4-1.3,0.8c-2.2,1.4-2.9,1.8-2.9,1.9c0,0-0.1,0-0.2,0c-0.9-0.5-1.2-1-1.4-1.5
						c-0.2-0.5-0.4-0.9-1.1-1.3c0.4,1.4,0.8,2.5,1.2,3.6c0.4,1.1,0.8,2.3,1.2,3.8c0,0.1,0,0.2,0,0.3c0,0,0,0-2.2,1.4
						c-0.9,0.6-1.9,1.2-2,1.3C177.4,212.9,177.3,212.9,177.3,212.9z M168,200.8c0,0,0.1,0,0.1,0c0.1,0.1,0.3,0.2,0.3,0.4l3.4,10.9
						c0,0.1,0.2,0.2,0.2,0.3l5.3,0.4c0,0,0,0,0,0c0,0,0.4-0.2,2-1.3c1-0.6,2.1-1.3,2.2-1.4c0,0,0-0.1,0-0.1
						c-0.5-1.5-0.9-2.7-1.2-3.8c-0.4-1.1-0.8-2.3-1.2-3.8c0,0,0-0.1,0-0.1c0,0,0.1,0,0.1,0c0.9,0.5,1.2,1,1.4,1.5
						c0.2,0.5,0.5,1,1.4,1.5c0,0,0.1,0,0.1,0c0.1,0,1.8-1.1,2.9-1.8c1.3-0.8,1.3-0.8,1.3-0.8c0,0,0,0,0,0c0,0,0-0.1-0.1-0.2
						l-19.6-32c-0.1-0.1-0.1-0.1-0.2-0.1c-0.2,0.1-1.7,1.1-2.7,1.7c-1.2,0.8-1.4,0.9-1.5,0.9c0,0,0,0,0,0.1v30.6
						c0,0.1,0.1,0.3,0.2,0.3c0,0,0.1,0,0.1,0L168,200.8C167.9,200.8,167.9,200.8,168,200.8z"/>
					<g>
						<path class="st3" d="M174,201.7c1.1,3.7,2.3,7.3,3.4,10.9c0.1,0.2,0,0.3-0.1,0.3c-1.8-0.1-3.5-0.3-5.3-0.4
							c-0.1,0-0.3-0.2-0.3-0.3c-1.1-3.6-2.3-7.2-3.4-10.9c-0.1-0.2-0.3-0.4-0.4-0.3c-1.8,1-3.7,1.9-5.5,2.9
							c-0.1,0.1-0.4-0.2-0.4-0.4v-30.6c0-0.2,0.2-0.2,0.4,0c6.6,10.7,13.1,21.3,19.6,32c0.2,0.2,0.1,0.5-0.1,0.4
							c-2.6-1.3-5.1-2.6-7.7-3.9C174,201.3,173.9,201.5,174,201.7z"/>
						<path class="st1" d="M177.3,212.9C177.3,212.9,177.3,212.9,177.3,212.9l-5.3-0.4c-0.2,0-0.3-0.2-0.4-0.4l-3.4-10.9
							c0-0.1-0.1-0.2-0.2-0.2c0,0,0,0-0.1,0l-5.5,2.9c-0.1,0-0.2,0-0.3,0c-0.1-0.1-0.3-0.3-0.3-0.5v-30.6c0-0.1,0.1-0.2,0.2-0.2
							c0.1,0,0.3,0.1,0.4,0.2l19.6,32c0.1,0.2,0.1,0.4,0,0.5c-0.1,0.1-0.2,0.1-0.3,0l-7.7-3.9c0,0-0.1,0-0.1,0c0,0,0,0.1,0,0.2
							l3.4,10.9c0,0.1,0,0.2,0,0.3C177.4,212.9,177.3,212.9,177.3,212.9z M168,200.8c0,0,0.1,0,0.1,0c0.1,0.1,0.3,0.2,0.3,0.4
							l3.4,10.9c0,0.1,0.2,0.2,0.2,0.3l5.3,0.4c0,0,0,0,0,0c0,0,0-0.1,0-0.2l-3.4-10.9l0,0c0-0.2,0-0.3,0.1-0.4
							c0.1-0.1,0.2-0.1,0.3,0l7.7,3.9c0,0,0.1,0,0.1,0c0,0,0-0.1,0-0.3l-19.6-32c-0.1-0.1-0.2-0.2-0.2-0.2c0,0,0,0,0,0.1v30.6
							c0,0.1,0.1,0.3,0.2,0.3c0,0,0.1,0,0.1,0L168,200.8C167.9,200.8,167.9,200.8,168,200.8z"/>
					</g>
				</g>
			</g>
		</g>
		<g>
			<path class="st30" d="M250,214.5l-7.9,7.7l-4.9,2.3c0,0-5.2,3.1-11.2-0.6c-6-3.7-7.6-10.3-6.6-16.5c1-6.2,7.1-12.7,7.1-12.7
				s-0.2-15.7,15.9-27c6.1-13.3,8-19.3,17-24c9-4.7,22.5-6.9,27.7,8.7c7.4,3.5,11.1,3.4,13.5,16.4C293.4,178.6,250,214.5,250,214.5z
				"/>
			<path class="st1" d="M232.3,225.8c-1.8,0-4-0.4-6.2-1.8c-2.8-1.8-4.8-4.2-6-7.4c-1-2.8-1.2-6-0.7-9.3c0.9-5.9,6.6-12.2,7.1-12.8
				c0-0.5,0.1-4.3,1.9-9.3c1.8-4.9,5.7-11.9,14-17.8c0.6-1.2,1.1-2.4,1.6-3.5c4.9-10.8,7.3-16.2,15.5-20.5c3-1.6,6.2-2.7,9.1-3.1
				c3.5-0.6,6.7-0.3,9.5,0.8c4.3,1.7,7.4,5.5,9.3,11.1c0.9,0.4,1.7,0.8,2.5,1.1c5.8,2.5,8.9,3.9,11,15.4l0,0.1l0,0
				c-7.3,9.7-50.1,45.2-50.7,45.7l-7.9,7.8l0,0l-4.9,2.3C237.3,224.6,235.3,225.8,232.3,225.8z M272.1,140.3
				c-5.2,0-10.2,2.2-12.5,3.4c-8.1,4.2-10.5,9.6-15.4,20.3c-0.5,1.1-1,2.3-1.6,3.6l0,0l0,0c-8.3,5.8-12.2,12.8-14,17.7
				c-1.9,5.3-1.9,9.2-1.9,9.2l0,0l0,0c-0.1,0.1-6.1,6.6-7,12.7c-1.1,7.2,1.3,13.1,6.6,16.4c5.8,3.6,11,0.6,11,0.6l4.8-2.3l7.9-7.7
				c0.4-0.4,43.3-35.9,50.7-45.6c-2.1-11.3-5.2-12.7-10.9-15.1c-0.8-0.4-1.7-0.7-2.6-1.2l0,0l0,0c-1.9-5.6-5-9.3-9.2-11
				C276,140.6,274.1,140.3,272.1,140.3z"/>
			<path class="st3" d="M242.1,222.2c0,0,34.8-19.6,44.4-25.3c10.7-6.9,15.6-22.5,14.2-28.1c-1.4-5.6-3.2-9.8-11.6-8.2
				c-1.4-7.6-1.4-13.5-12.4-12.8c-11.1,0.7-20.2,16.4-23.2,26c-6.8,4.5-13.6,12.1-16.1,26.9c-7.1,6.8-10.6,19.5-3.8,23.5
				C235.5,225.4,238.5,224.5,242.1,222.2z"/>
			<path class="st1" d="M235.5,224.9c-0.7,0-1.4-0.2-2-0.5c-2-1.2-3.3-3.3-3.6-6c-0.6-5.5,2.5-12.9,7.4-17.6
				c1.1-6.8,3.3-12.6,6.4-17.3c2.5-3.8,5.7-6.9,9.7-9.6c1.7-5.5,5-11.6,8.6-16.3c3.3-4.2,8.5-9.3,14.7-9.7c4.7-0.3,7.7,0.6,9.5,2.7
				c1.6,2,2.1,4.9,2.7,8.3c0.1,0.6,0.2,1.1,0.3,1.7c8.5-1.6,10.3,2.8,11.6,8.3c0.7,2.9-0.3,8.4-2.6,13.6
				c-2.8,6.3-6.9,11.5-11.7,14.6c-9.4,5.7-43.9,25.1-44.4,25.3C239.4,224,237.2,224.9,235.5,224.9z M278.5,147.9
				c-0.6,0-1.2,0-1.8,0.1c-6.2,0.4-11.3,5.5-14.5,9.6c-3.6,4.7-6.8,10.8-8.6,16.3l0,0l0,0c-8.7,5.8-14,14.6-16,26.8l0,0l0,0
				c-4.9,4.7-8,12-7.3,17.5c0.3,2.7,1.5,4.7,3.5,5.9c1.7,1,4.5,0.3,8.4-2l0,0c0.3-0.2,34.9-19.7,44.4-25.3
				c4.7-3.1,8.8-8.2,11.6-14.5c2.3-5.2,3.3-10.6,2.6-13.5c-0.7-3-1.6-5.3-3.1-6.7c-1.8-1.7-4.5-2.1-8.3-1.4l-0.1,0l0-0.1
				c-0.1-0.6-0.2-1.2-0.3-1.8C287.6,152.5,286.9,147.9,278.5,147.9z"/>
			<path class="st14" d="M300.8,168.8c-2.4-13-6.1-13-13.5-16.4c1,2.2,1.3,5.1,1.9,8.2C297.6,159,299.4,163.2,300.8,168.8z"/>
			<path class="st1" d="M300.6,168.8c-0.7-3-1.6-5.3-3.1-6.7c-1.8-1.7-4.5-2.1-8.3-1.4l-0.1,0l0-0.1c-0.1-0.6-0.2-1.2-0.3-1.8
				c-0.4-2.4-0.8-4.6-1.6-6.4l-0.1-0.3l0.3,0.1c0.9,0.4,1.8,0.8,2.6,1.1c5.8,2.5,8.9,3.9,11,15.4L300.6,168.8z M292.5,160.1
				c4.5,0,6.4,2.4,7.5,5.6c-2.1-8.6-5.1-9.9-10.2-12.2c-0.7-0.3-1.5-0.6-2.3-1c0.7,1.7,1.1,3.9,1.5,6.2c0.1,0.6,0.2,1.1,0.3,1.7
				C290.4,160.2,291.5,160.1,292.5,160.1z M227.8,224.9c-0.6-0.2-1.1-0.5-1.7-0.9c-2.8-1.8-4.8-4.2-6-7.4c-1-2.8-1.2-6-0.7-9.3
				c0.9-5.9,6.6-12.2,7.1-12.8c0-0.5,0.1-4.3,1.9-9.3c1.8-4.9,5.7-11.9,14-17.8c0.6-1.2,1.1-2.4,1.6-3.5
				c4.9-10.8,7.3-16.2,15.5-20.5c2.6-1.4,6.7-3.1,11.2-3.4c4.4-0.3,8.1,0.8,11.1,3.3l0.5,0.4l-0.6-0.2c-8.5-2.7-15.5,1.5-19.9,5.5
				c-5.5,5-10.3,12.7-13.1,21.1l0,0l0,0c-8.7,7.2-12.7,14.4-14.6,19.2c-2,5.2-1.9,8.7-1.9,8.8l0,0.1l0,0c-0.1,0-5.5,4.8-7.3,14
				c-1,4.8,0,7.9,0.9,9.6c1,1.9,2.3,2.7,2.3,2.7L227.8,224.9z M272.1,140.3c-5.1,0-10,2.1-12.5,3.4c-8.1,4.2-10.5,9.6-15.4,20.3
				c-0.5,1.1-1,2.3-1.6,3.6l0,0l0,0c-8.3,5.8-12.2,12.8-14,17.7c-1.9,5.3-1.9,9.2-1.9,9.2l0,0l0,0c-0.1,0.1-6.1,6.6-7,12.7
				c-1.1,7.2,1.3,13.1,6.6,16.4c0.2,0.2,0.5,0.3,0.8,0.4c-0.5-0.4-1-1.1-1.6-2.1c-1-1.8-1.9-4.9-0.9-9.8c1.8-8.8,6.8-13.6,7.4-14.1
				c0-0.5,0.1-3.9,1.9-8.8c1.8-4.8,5.9-12.1,14.6-19.3c2.8-8.5,7.6-16.2,13.1-21.2c6.2-5.6,13-7.6,19.6-5.8
				C278.3,141,275.2,140.3,272.1,140.3z"/>
			<polygon class="st1" points="242.6,203.5 237.4,201 231.9,198.3 227.4,196 226.6,194.8 226.8,194.7 227.6,195.8 232,198.1 
				237.5,200.8 242.7,203.2 			"/>
			<polygon class="st1" points="257.8,177.6 253.4,174.2 248.2,170.5 244.2,168 242.6,167.4 242.7,167.2 244.3,167.8 248.4,170.3 
				253.5,174 257.9,177.5 			"/>
			<g>
				<polygon class="st1" points="286.9,167.4 286.6,167.3 288.9,160.6 288.3,155.1 287.8,153 288,152.9 288.6,155 289.2,160.6 				
					"/>
			</g>
			
				<linearGradient id="SVGID_00000099656049217941791740000005439745879125662108_" gradientUnits="userSpaceOnUse" x1="5734.4849" y1="-3820.9216" x2="6193.5366" y2="-3820.9216" gradientTransform="matrix(0.12 0 0 -0.12 -450.1796 -272.48)">
				<stop  offset="0" style="stop-color:#DADCE0"/>
				<stop  offset="1" style="stop-color:#DBDAEF"/>
			</linearGradient>
			<path style="fill:url(#SVGID_00000099656049217941791740000005439745879125662108_);" d="M240.3,214.3l45.3-25.7
				c0,0,5.3-3.8,6.3-7.6c1-3.9,2.2-8,0-9.3c-2.2-1.3-5.5-0.9-7.7,0s-3.4-1.4-3.2-4c0.2-2.6,1.2-8.4-3.7-9.6
				c-4.9-1.2-10.1,2.6-13.4,8.1c-3.3,5.5-3.1,11.4-5.1,13.3c-1.9,1.9-8.3,4-10,7.3c-1.7,3.3-3.3,9.3-3.7,12.2
				c-0.4,2.9-0.4,5.3-2.8,7.2C240,208.2,235,213.2,240.3,214.3z"/>
		</g>
	</g>
</g>
</svg>
