<?xml version="1.0" encoding="utf-8"?>
<!-- Generator: Adobe Illustrator 28.0.0, SVG Export Plug-In . SVG Version: 6.00 Build 0)  -->
<svg version="1.1" id="SvgjsSvg1001" xmlns:svgjs="http://svgjs.com/svgjs"
	 xmlns="http://www.w3.org/2000/svg" xmlns:xlink="http://www.w3.org/1999/xlink" x="0px" y="0px" viewBox="0 0 360 360"
	 style="enable-background:new 0 0 360 360;" xml:space="preserve">
<style type="text/css">
	.st0{display:none;fill:#E4F0F6;}
	.st1{fill:#FFFFFF;stroke:#071217;stroke-width:2.6627;stroke-linecap:round;stroke-linejoin:round;stroke-miterlimit:13.3136;}
	.st2{fill:none;stroke:#071217;stroke-width:2.6627;stroke-linecap:round;stroke-linejoin:round;stroke-miterlimit:13.3136;}
	.st3{fill:#071217;}
	.st4{fill:#FFFFFF;}
	.st5{fill:none;stroke:#071217;stroke-width:2.6627;stroke-miterlimit:13.3136;}
	.st6{fill:#7CD1FC;}
	.st7{fill:#42BEFC;}
	.st8{fill:#2AB0F3;}
	.st9{fill:none;stroke:#FFFFFF;stroke-width:3.1833;stroke-miterlimit:5.3254;}
</style>
<g id="SvgjsG1008">
	<rect x="0.6" y="42.5" class="st0" width="358.8" height="277.3"/>
	<path class="st1" d="M311.5,218.8L77,278.8c-6,1.5-11.9-2-13.3-7.9l-40.3-157c-1.5-6,2-11.9,7.9-13.3l234.6-60
		c6-1.5,11.9,2,13.3,7.9l40.1,156.9C321,211.3,317.4,217.4,311.5,218.8z"/>
	<path class="st2" d="M42.7,110.9c0.6,2.2-0.8,4.6-3.1,5.2c-2.3,0.6-4.6-0.8-5.2-3.1c-0.6-2.2,0.8-4.6,3.1-5.2
		S42.1,108.6,42.7,110.9z M56.5,107.3c0.6,2.2-0.8,4.6-3.1,5.2c-2.2,0.6-4.6-0.8-5.2-3.1c-0.6-2.3,0.8-4.6,3.1-5.2
		C53.5,103.7,55.9,105.1,56.5,107.3z M70.4,103.8c0.6,2.2-0.8,4.6-3.1,5.2c-2.2,0.6-4.6-0.8-5.2-3.1c-0.6-2.2,0.8-4.6,3.1-5.2
		C67.5,100,69.9,101.5,70.4,103.8z"/>
	<ellipse class="st3" cx="73.6" cy="300.5" rx="56.1" ry="16.5"/>
	
		<ellipse transform="matrix(0.8968 -0.4425 0.4425 0.8968 -85.9341 160.1387)" class="st3" cx="300.3" cy="264.3" rx="40.5" ry="20.1"/>
	<path class="st4" d="M121.5,177.3C121.4,177.1,121.4,177.1,121.5,177.3l-20.6-10c-0.4-0.4-9.7-1.8-10.3-1.7l-15.1-0.4
		c-12.5,2-24.2,8.2-32.9,17.3l-3.2,3.3l-0.1,0.1c-9.5,12.2-12.8,28.5-9.2,43.3l19,73.9c0.3,0.8,2,1.4,2,1.4s7.8,3.6,19.7,3.9
		c24.9,0.4,34.7-9.3,34.4-9.9l-28.5-68.3l25.1-18.2l13-4c2.6-1.4,4-4.3,3.5-7.2c-0.5-2.9-2.9-5.1-6-5.3c-1.5-0.1-3.2,0-4.7,0.3
		c-6.5,1.4-18.1,3.5-21.5,3.5c0-0.4-0.1-3.6-0.3-4.2l-4.5-8.6c-0.1-0.6-4.7-3.3-5.2-3.6l11.7-4.5l3.8,0.4c6,0.6,11.7,2.1,16.9,5
		c4,2.1,8.5,3.9,10.9,2.8c1.7-0.8,3.1-2.2,3.5-4.2C123.5,180.5,122.8,178.6,121.5,177.3z"/>
	<path class="st2" d="M86,198.9c0,0,13.6,0,22.1-1.8c1.5-0.4,2.9-0.4,4.3-0.3c4.7,0.4,6,6.7,1.8,8.9l-12.8,6.8l-24.7,18.1l28.9,67.8
		"/>
	<line class="st5" x1="328.2" y1="91.2" x2="316.3" y2="98.3"/>
	<line class="st5" x1="335.3" y1="108.9" x2="322.3" y2="112.5"/>
	<path class="st6" d="M168.3,240l-47.6,0.6c-9.6,0.1-17.4-7.6-17.5-17.1l-0.4-47.6c-0.1-9.6,7.6-17.4,17.1-17.5l47.6-0.6
		c9.6-0.1,17.4,7.6,17.5,17.1l0.6,47.6C185.5,232.1,177.9,240,168.3,240z"/>
	<path class="st2" d="M50,305.1l-19.4-76.6c-3.6-14.6-0.4-30.1,8.9-41.9l3.2-3.3c8.8-8.9,20-14.8,32.3-16.8l4.9-0.8
		c12.6-2,25.6,1.2,35.8,9l4.5,3.5c1.7,1.8,1.2,4.6-1,5.8l0,0c-3.5,1.9-7.7,1.7-10.9-0.6l-10.4-7.1l-25.1,6.7"/>
	<path class="st1" d="M75,166.4l5.2-0.8c12.5-2,25.1,1.2,35.1,8.8l4.9,3.6c1.7,1.8,1.2,4.6-1,5.8l0,0c-3.5,1.9-7.7,1.7-10.9-0.6l0,0
		c-6.7-4.5-14.8-6-22.5-3.9l-11.4,3.1"/>
	<path class="st2" d="M59.7,181.2l13.9,1.3c5.7,0.6,10.1,4.9,11.1,10.4l0.4,2.8c0.4,2.2-0.3,4.5-1.8,6.1l0,0c-1.8,2-4.6,2.9-7.2,2.2
		l-0.4-0.1"/>
	<path class="st2" d="M52.1,189.7l12.8,1.7c5.3,0.7,9.7,4.9,10.5,10.1l0.4,2.6c0.4,2.6-0.4,5.3-2.1,7.4l0,0c-1.5,1.7-3.8,2.5-6,2
		l-2.9-0.6"/>
	<path class="st2" d="M46.3,199.8l12.3,2.4c2.1,0.3,3.9,1.9,4.3,4.2l1.2,7.2c0.4,3.2-0.4,6.4-2.5,8.9l0,0c-1.2,1.3-2.9,2-4.7,1.9
		l-5.2-0.4c-2.1-0.3-3.9-1.7-4.4-3.8l0,0c-0.7-3.1,1.7-6.1,4.9-6.1l0,0"/>
	<path class="st4" d="M168.6,203.4v-6.9l-6.1-0.4c-0.4-2.2-1.3-4.4-2.4-6.3l4.2-4.9l-4.9-4.9l-4.7,4c-1.9-1.3-3.9-2.2-6.1-2.8
		l-0.4-6.4h-7l-0.4,6.1c-2.2,0.4-4.4,1.3-6.3,2.4l-4.9-4.2l-4.9,4.9l4,4.7c-1.3,1.9-2.2,3.9-2.8,6.1l-6.1,0.4v7l6,0.4
		c0.4,2.2,1.3,4.4,2.4,6.3l-4.2,4.9l4.9,4.9l4.7-4c1.9,1.3,3.9,2.2,6.1,2.8l0.4,6.1h7l0.4-6c2.2-0.4,4.4-1.3,6.3-2.4l4.9,4.2l5-4.9
		l-4-4.7c1.3-1.9,2.2-3.9,2.8-6.1L168.6,203.4z M144,210.4c-6.1,0-11.1-5-11.1-11.1s5-11.1,11.1-11.1c6.1,0,11.1,5,11.1,11.1
		C155.1,205.5,150.2,210.4,144,210.4z"/>
	<path class="st1" d="M217.1,104.6l16.9-6.9l11.8-8.2c3.9-2.8,8.8-3.6,13.3-2.6h0.3l0.8-0.4c5.2-2.5,11.2-2.1,16.2,0.8l10,6
		L284,80.4l-14.3-5.2c-2.8-1.3-4.6-4-4.7-7.1l-0.1-2.6c-0.1-2.1,2-3.8,4-2.9l22.8,8.1c3.6,1.3,6,4.3,6.9,7.8l4,19.9
		c7.5,7.8,12.1,17.8,13.3,28.5l2.1,17.9l11.4,113.8l0,0c-9,12.1-24,18-38.9,15.4l-9.6-1.7l-6.3-118.9l-6.5,2.6
		c-6,2.5-12.9,1.7-18.2-2.2l-20.5-14.9c-2-1.5-2.2-4.4-0.4-6.1l1.5-1.4c3.2-2.9,7.9-3.6,11.7-1.4l10.3,5.8c3.2,1.8,7.2,1.8,10.4-0.1
		l0,0l-16.9-26.3l-19.6,3.8c-3.2,0.6-6.5-0.1-9.2-2.1l-1.1-0.8C214.5,108.5,214.8,105.4,217.1,104.6z"/>
	<line class="st2" x1="277.9" y1="102.1" x2="259.7" y2="87.4"/>
	<line class="st2" x1="289.4" y1="96.6" x2="286.6" y2="93.5"/>
	<path class="st4" d="M334.7,130.7l-118.2-18.9l-19.6,3.2l17.5,9.2l118.2,18.9l0,0C336,139.8,336.9,134.8,334.7,130.7L334.7,130.7z"
		/>
	<path class="st3" d="M334.7,130.7l-118.2-18.9l-1.9,12.2l118.2,18.9l0,0C336,139.8,336.9,134.8,334.7,130.7L334.7,130.7z"/>
	<path class="st2" d="M334.7,130.7l-118.2-18.9l-19.6,3.2l17.5,9.2l118.2,18.9l0,0C336,139.8,336.9,134.8,334.7,130.7L334.7,130.7z"
		/>
	<polyline class="st1" points="267.6,108 252.6,92 227.3,100.6 	"/>
	<path class="st3" d="M210.2,203.1L210.2,203.1c3.9,0,7.5,2,9.6,5.2l31.8,50.2c1.7,2.6,2.1,5.6,1.4,8.5s-2.5,5.4-5,7.1L197.8,306
		c-1.8,1.2-3.9,1.8-6,1.8c-3.9,0-7.5-2-9.6-5.2l-31.6-50.4c-1.7-2.6-2.1-5.6-1.4-8.5c0.7-2.9,2.5-5.4,5-7.1l50.2-31.8
		C206,203.7,208.1,203.1,210.2,203.1 M210.2,200.7c-2.5,0-5,0.7-7.4,2.1l-50.2,31.8c-6.4,4-8.3,12.5-4.3,18.9l31.8,50.2
		c2.6,4.2,7,6.4,11.6,6.4c2.5,0,5-0.7,7.4-2.1l50.2-31.8c6.4-4,8.3-12.5,4.3-18.9l-31.8-50.2C219.3,203,214.7,200.7,210.2,200.7
		L210.2,200.7z"/>
	<circle class="st7" cx="180.8" cy="249.1" r="12.5"/>
	<path class="st3" d="M180.3,303.7l-7.2-11.4l1.9-8.5c1.4-6.1,7.6-10.1,13.7-8.6l0,0c5.8,1.3,11.7-2.4,13-8.2l7.4-32.9
		c1.8-7.8,9.5-12.6,17.3-10.9l6.5,1.4l20.6,32.6c4,6.4,2.1,14.8-4.3,18.9L199,307.9C192.7,311.9,184.3,310.1,180.3,303.7z"/>
	<polygon class="st3" points="170.5,159.4 177.2,118.9 183.7,78.4 147.1,96.9 110.4,115.3 138.9,124.8 121.5,148.6 135.5,158.9 
		152.9,135.2 	"/>
	<path class="st8" d="M287.6,185.9l-75.1-29.5c-10.5-4.2-22.4,1.1-26.5,11.6l0,0c-3.9,9.9,0.4,20.8,9.6,25.6l10.7,4.3l66.5,26.1
		c10.5,4.2,22.4-1.1,26.5-11.6l0,0C303.3,201.8,298,190,287.6,185.9z"/>
	<line class="st9" x1="207.5" y1="176.4" x2="277.5" y2="203.9"/>
</g>
</svg>
