<svg id="SvgjsSvg1001" width="360" height="360" xmlns="http://www.w3.org/2000/svg" version="1.1" xmlns:xlink="http://www.w3.org/1999/xlink" xmlns:svgjs="http://svgjs.com/svgjs"><defs id="SvgjsDefs1002"></defs><g id="SvgjsG1008"><svg xmlns="http://www.w3.org/2000/svg" enable-background="new 0 0 270.4 234.7" viewBox="0 0 270.4 234.7" width="360" height="360"><rect width="302.9" height="234.1" x="-14.2" y="3" fill="#e4f0f6" display="none" class="svgShape colorf6f3e4-0 selectable"></rect><path fill="#ffffff" stroke="#071217" stroke-linecap="round" stroke-linejoin="round" stroke-miterlimit="10" stroke-width="2" d="M248.3,151.8L50.3,202.5c-5,1.3-10.1-1.7-11.3-6.7L5,63.3c-1.3-5,1.7-10.1,6.7-11.3L209.8,1.3			c5-1.3,10.1,1.7,11.3,6.7l33.9,132.5C256.3,145.5,253.3,150.6,248.3,151.8z" class="svgShape colorffffff-1 svgStroke colorStroke080717-1 selectable"></path><path fill="none" stroke="#071217" stroke-linecap="round" stroke-linejoin="round" stroke-miterlimit="10" stroke-width="2" d="M21.3 60.7c.5 1.9-.7 3.9-2.6 4.4-1.9.5-3.9-.7-4.4-2.6-.5-1.9.7-3.9 2.6-4.4C18.8 57.6 20.8 58.8 21.3 60.7zM33 57.7c.5 1.9-.7 3.9-2.6 4.4-1.9.5-3.9-.7-4.4-2.6-.5-1.9.7-3.9 2.6-4.4S32.5 55.8 33 57.7zM44.8 54.7c.5 1.9-.7 3.9-2.6 4.4-1.9.5-3.9-.7-4.4-2.6-.5-1.9.7-3.9 2.6-4.4S44.3 52.8 44.8 54.7z" class="svgStroke colorStroke080717-2 selectable"></path><ellipse cx="47.4" cy="220.8" fill="#071217" rx="47.4" ry="13.9" class="svgShape color080717-3 selectable"></ellipse><ellipse cx="238.8" cy="190.2" fill="#071217" rx="34.2" ry="17" transform="rotate(-26.263 238.75 190.201)" class="svgShape color080717-4 selectable"></ellipse><path fill="#ffffff" d="M87.9,116.8C87.8,116.7,87.8,116.7,87.9,116.8l-17.4-8.4c-0.4-0.3-8.2-1.5-8.7-1.4L49,106.6
			c-10.5,1.7-20.4,6.9-27.8,14.6l-2.7,2.8c0,0-0.1,0.1-0.1,0.1c-8,10.3-10.8,24-7.7,36.6l16.1,62.4c0.2,0.7,1.7,1.2,1.7,1.2
			c0,0,6.6,3,16.6,3.3c21,0.4,29.3-7.8,29.1-8.3l-24-57.7l21.2-15.4l11-3.4c2.2-1.2,3.4-3.6,2.9-6.1c-0.5-2.5-2.5-4.3-5-4.5
			c-1.3-0.1-2.7,0-4,0.2c-5.5,1.2-15.3,2.9-18.2,2.9c0-0.4-0.1-3.1-0.2-3.5l-3.8-7.3c-0.1-0.5-4-2.8-4.4-3.1l9.9-3.8l3.2,0.3
			c5,0.5,9.9,1.8,14.3,4.2c3.4,1.8,7.2,3.3,9.2,2.4c1.4-0.7,2.6-1.9,2.9-3.5C89.5,119.5,89,117.9,87.9,116.8z" class="svgShape colorffffff-5 selectable"></path><path fill="none" stroke="#071217" stroke-linecap="round" stroke-linejoin="round" stroke-miterlimit="10" stroke-width="2" d="M57.9,135.1c0,0,11.5,0,18.6-1.5c1.3-0.3,2.5-0.3,3.6-0.2c4,0.4,5.1,5.6,1.5,7.5l-10.8,5.7l-20.9,15.3
			l24.4,57.2" class="svgStroke colorStroke080717-6 selectable"></path><line x1="262.4" x2="252.4" y1="44.1" y2="50.1" fill="none" stroke="#071217" stroke-miterlimit="10" stroke-width="2" class="svgStroke colorStroke080717-7 selectable"></line><line x1="268.4" x2="257.4" y1="59.1" y2="62.1" fill="none" stroke="#071217" stroke-miterlimit="10" stroke-width="2" class="svgStroke colorStroke080717-8 selectable"></line><path fill="#7cd1fc" d="M127.4,169.8l-40.2,0.5c-8.1,0.1-14.7-6.4-14.8-14.4L72,115.7c-0.1-8.1,6.4-14.7,14.4-14.8l40.2-0.5
			c8.1-0.1,14.7,6.4,14.8,14.4l0.5,40.2C141.9,163.1,135.5,169.7,127.4,169.8z" class="svgShape color7ca0fc-9 selectable"></path><path fill="none" stroke="#071217" stroke-linecap="round" stroke-linejoin="round" stroke-miterlimit="10" stroke-width="2" d="M27.5,224.7L11.1,160c-3.1-12.3-0.4-25.4,7.5-35.4l2.7-2.8c7.4-7.5,16.9-12.5,27.3-14.2l4.1-0.7
			c10.7-1.7,21.6,1,30.2,7.6l3.8,2.9c1.4,1.5,1,3.9-0.8,4.9l0,0c-2.9,1.6-6.5,1.4-9.2-0.5l-8.8-6l-21.2,5.6" class="svgStroke colorStroke080717-10 selectable"></path><path fill="#ffffff" stroke="#071217" stroke-linecap="round" stroke-linejoin="round" stroke-miterlimit="10" stroke-width="2" d="M48.6,107.6l4.4-0.7c10.5-1.7,21.2,1,29.7,7.4l4.1,3.1c1.4,1.5,1,3.9-0.8,4.9l0,0c-2.9,1.6-6.5,1.4-9.2-0.5
			l0,0c-5.6-3.8-12.5-5.1-19-3.3l-9.6,2.6" class="svgShape colorffffff-11 svgStroke colorStroke080717-11 selectable"></path><path fill="none" stroke="#071217" stroke-linecap="round" stroke-linejoin="round" stroke-miterlimit="10" stroke-width="2" d="M35.7,120.1l11.7,1.1c4.8,0.5,8.6,4.1,9.4,8.8l0.4,2.4c0.3,1.9-0.2,3.8-1.5,5.2v0c-1.5,1.7-3.9,2.5-6.1,1.9
			l-0.3-0.1" class="svgStroke colorStroke080717-12 selectable"></path><path fill="none" stroke="#071217" stroke-linecap="round" stroke-linejoin="round" stroke-miterlimit="10" stroke-width="2" d="M29.3,127.3l10.8,1.4c4.5,0.6,8.2,4.1,8.9,8.6l0.4,2.2c0.4,2.2-0.3,4.5-1.8,6.2l0,0c-1.3,1.4-3.2,2.1-5.1,1.7
			l-2.5-0.5" class="svgStroke colorStroke080717-13 selectable"></path><path fill="none" stroke="#071217" stroke-linecap="round" stroke-linejoin="round" stroke-miterlimit="10" stroke-width="2" d="M24.4,135.8l10.4,2c1.8,0.2,3.3,1.6,3.6,3.5l1,6.1c0.4,2.7-0.3,5.4-2.1,7.5l0,0c-1,1.1-2.5,1.7-4,1.6
			l-4.4-0.4c-1.8-0.2-3.3-1.4-3.7-3.2l0,0c-0.6-2.6,1.4-5.2,4.1-5.2l0,0" class="svgStroke colorStroke080717-14 selectable"></path><path fill="#ffffff" d="M127.6,138.8V133l-5.2-0.4c-0.4-1.9-1.1-3.7-2-5.3l3.5-4.1l-4.1-4.1l-4,3.4c-1.6-1.1-3.3-1.9-5.2-2.3
			l-0.4-5.4l-5.9,0l-0.4,5.2c-1.9,0.4-3.7,1.1-5.3,2l-4.1-3.5l-4.1,4.1l3.4,4c-1.1,1.6-1.9,3.3-2.3,5.2l-5.2,0.4v5.9l5,0.4
			c0.4,1.9,1.1,3.7,2,5.3l-3.5,4.1l4.1,4.1l4-3.4c1.6,1.1,3.3,1.9,5.2,2.3l0.4,5.2h5.9l0.4-5c1.9-0.4,3.7-1.1,5.3-2l4.1,3.5l4.2-4.1
			l-3.4-4c1.1-1.6,1.9-3.3,2.3-5.2L127.6,138.8z M106.9,144.8c-5.2,0-9.4-4.2-9.4-9.4c0-5.2,4.2-9.4,9.4-9.4c5.2,0,9.4,4.2,9.4,9.4
			C116.3,140.6,112.1,144.8,106.9,144.8z" class="svgShape colorffffff-15 selectable"></path><path fill="#ffffff" stroke="#071217" stroke-linecap="round" stroke-linejoin="round" stroke-miterlimit="10" stroke-width="2" d="M168.6,55.4l14.3-5.8l10-6.9c3.3-2.3,7.4-3,11.3-2.2l0.2,0l0.7-0.4c4.4-2.1,9.5-1.8,13.7,0.7l8.4,5.1
			l-2.1-10.9L213,30.6c-2.3-1.1-3.9-3.4-4-6l-0.1-2.2c-0.1-1.8,1.7-3.2,3.4-2.5l19.2,6.8c3,1.1,5.1,3.6,5.8,6.6l3.4,16.8
			c6.3,6.6,10.2,15,11.3,24l1.8,15.1l9.6,96.1l0,0c-7.6,10.2-20.3,15.2-32.8,13l-8.1-1.4l-5.3-100.4l-5.5,2.2
			c-5.1,2.1-10.9,1.4-15.4-1.9L179,84.2c-1.7-1.3-1.9-3.7-0.3-5.2l1.3-1.2c2.7-2.5,6.7-3,9.9-1.2l8.7,4.9c2.7,1.5,6.1,1.5,8.8-0.1
			l0,0l-14.3-22.2l-16.5,3.2c-2.7,0.5-5.5-0.1-7.7-1.8l-0.9-0.7C166.4,58.7,166.7,56.1,168.6,55.4z" class="svgShape colorffffff-16 svgStroke colorStroke080717-16 selectable"></path><line x1="219.9" x2="204.5" y1="53.3" y2="40.9" fill="none" stroke="#071217" stroke-linecap="round" stroke-linejoin="round" stroke-miterlimit="10" stroke-width="2" class="svgStroke colorStroke080717-17 selectable"></line><line x1="229.6" x2="227.3" y1="48.7" y2="46.1" fill="none" stroke="#071217" stroke-linecap="round" stroke-linejoin="round" stroke-miterlimit="10" stroke-width="2" class="svgStroke colorStroke080717-18 selectable"></line><path fill="#ffffff" d="M267.9,77.5l-99.8-16l-16.5,2.7l14.8,7.7l99.8,16l0,0C269,85.1,269.7,80.9,267.9,77.5L267.9,77.5z" class="svgShape colorffffff-19 selectable"></path><path fill="#071217" d="M267.9,77.5l-99.8-16l-1.6,10.3l99.8,16l0,0C269,85.1,269.7,80.9,267.9,77.5L267.9,77.5z" class="svgShape color080717-20 selectable"></path><path fill="none" stroke="#071217" stroke-linecap="round" stroke-linejoin="round" stroke-miterlimit="10" stroke-width="2" d="M267.9,77.5l-99.8-16l-16.5,2.7l14.8,7.7l99.8,16l0,0C269,85.1,269.7,80.9,267.9,77.5L267.9,77.5z" class="svgStroke colorStroke080717-21 selectable"></path><polyline fill="#ffffff" stroke="#071217" stroke-linecap="round" stroke-linejoin="round" stroke-miterlimit="10" stroke-width="2" points="211.2 58.3 198.6 44.8 177.2 52" class="svgShape colorffffff-22 svgStroke colorStroke080717-22 selectable"></polyline><path fill="#071217" d="M162.8,138.6L162.8,138.6c3.3,0,6.3,1.7,8.1,4.4l26.8,42.4c1.4,2.2,1.8,4.7,1.2,7.2c-0.6,2.5-2.1,4.6-4.2,6
			l-42.4,26.8c-1.5,1-3.3,1.5-5.1,1.5c-3.3,0-6.3-1.7-8.1-4.4L112.4,180c-1.4-2.2-1.8-4.7-1.2-7.2c0.6-2.5,2.1-4.6,4.2-6l42.4-26.8
			C159.2,139.1,161,138.6,162.8,138.6 M162.8,136.6c-2.1,0-4.2,0.6-6.2,1.8l-42.4,26.8c-5.4,3.4-7,10.5-3.6,15.9l26.8,42.4
			c2.2,3.5,5.9,5.4,9.8,5.4c2.1,0,4.2-0.6,6.2-1.8l42.4-26.8c5.4-3.4,7-10.5,3.6-15.9l-26.8-42.4
			C170.4,138.5,166.6,136.6,162.8,136.6L162.8,136.6z" class="svgShape color080717-23 selectable"></path><circle cx="137.9" cy="177.4" r="10.6" fill="#42befc" transform="rotate(-77.579 137.937 177.433)" class="svgShape colorfccc42-24 selectable"></circle><path fill="#071217" d="M137.5,223.5l-6.1-9.6l1.6-7.1c1.2-5.2,6.4-8.5,11.6-7.3h0c4.9,1.1,9.9-2,11-6.9l6.2-27.8
			c1.5-6.6,8-10.7,14.6-9.2l5.5,1.2l17.4,27.6c3.4,5.4,1.8,12.5-3.6,15.9l-42.4,26.8C148,230.5,140.9,228.9,137.5,223.5z" class="svgShape color080717-25 selectable"></path><polygon fill="#071217" points="129.3 101.7 134.9 67.5 140.4 33.3 109.5 48.9 78.5 64.5 102.6 72.5 87.9 92.6 99.7 101.3 114.4 81.2" class="svgShape color080717-26 selectable"></polygon><path fill="#2ab0f3" d="M228.1,124l-63.4-24.9c-8.9-3.5-18.9,0.9-22.4,9.8l0,0c-3.3,8.3,0.4,17.6,8.1,21.6l9,3.6l56.1,22
			c8.9,3.5,18.9-0.9,22.4-9.8l0,0C241.3,137.5,236.9,127.5,228.1,124z" class="svgShape colorf3c02a-27 selectable"></path><line x1="160.5" x2="219.6" y1="116.1" y2="139.3" fill="none" stroke="#ffffff" stroke-width="2.391" class="svgStroke colorStrokeffffff-28 selectable"></line></svg></g></svg>